<svg xmlns="http://www.w3.org/2000/svg" xmlns:xlink="http://www.w3.org/1999/xlink" width="500" zoomAndPan="magnify" viewBox="0 0 375 374.999991" height="500" preserveAspectRatio="xMidYMid meet" version="1.2"><defs><clipPath id="6322c5f5ab"><path d="M 88.359375 2.640625 L 297.328125 2.640625 L 297.328125 372.390625 L 88.359375 372.390625 Z M 88.359375 2.640625 "/></clipPath><clipPath id="11fe45f17f"><path d="M 176.980469 217.941406 L 211.933594 217.941406 L 211.933594 230.347656 L 176.980469 230.347656 Z M 176.980469 217.941406 "/></clipPath><clipPath id="bb4ce05f6a"><path d="M 209.773438 230.324219 C 184.574219 229.425781 182.925781 228.148438 182.925781 227.175781 C 182.925781 226.273438 184.425781 225.300781 185.773438 224.476562 C 188.175781 222.976562 193.800781 221.324219 196.875 220.273438 C 199.125 219.601562 201.300781 218.699219 202.648438 218.699219 C 203.398438 218.699219 204 218.773438 204.449219 219.148438 C 204.824219 219.449219 205.125 220.273438 205.125 220.800781 C 205.050781 221.324219 204.75 221.925781 204.074219 222.300781 C 202.726562 223.125 199.050781 222.898438 196.050781 223.125 C 192.226562 223.351562 185.175781 224.550781 183.074219 223.5 C 182.175781 223.050781 181.648438 222.148438 181.574219 221.550781 C 181.574219 221.023438 182.023438 220.5 182.550781 220.050781 C 183.375 219.449219 185.023438 219.226562 186.75 219 C 189.375 218.550781 195.148438 217.425781 196.949219 218.25 C 197.925781 218.699219 198.601562 219.675781 198.523438 220.273438 C 198.523438 220.949219 197.773438 221.625 196.726562 222.074219 C 193.949219 223.351562 181.351562 224.175781 178.726562 223.574219 C 177.898438 223.425781 177.449219 223.125 177.226562 222.675781 C 176.925781 222.226562 176.925781 221.398438 177.148438 220.949219 C 177.375 220.5 177.976562 219.976562 178.5 219.898438 C 179.101562 219.898438 180.226562 220.425781 180.523438 220.949219 C 180.75 221.398438 180.675781 222.300781 180.375 222.675781 C 180.148438 223.125 179.398438 223.574219 178.875 223.574219 C 178.273438 223.574219 177.148438 222.898438 177.074219 222.300781 C 176.925781 221.699219 177.375 220.574219 178.351562 219.976562 C 180.523438 218.476562 189.976562 218.25 193.5 218.175781 C 195.375 218.175781 197.023438 218.101562 197.851562 218.625 C 198.300781 219 198.601562 219.75 198.523438 220.273438 C 198.523438 220.800781 198.300781 221.398438 197.625 221.773438 C 195.675781 223.050781 185.324219 224.476562 183.074219 223.5 C 182.101562 223.125 181.574219 222.148438 181.574219 221.550781 C 181.648438 220.949219 182.324219 220.273438 183.375 219.824219 C 186.375 218.550781 200.101562 217.800781 203.101562 218.625 C 204.148438 218.925781 204.75 219.375 204.976562 219.898438 C 205.199219 220.425781 205.273438 221.101562 204.75 221.699219 C 203.175781 223.800781 187.875 229.800781 186.375 228.75 C 185.851562 228.375 185.851562 226.949219 186.449219 226.351562 C 188.398438 224.476562 206.773438 225.675781 209.773438 226.199219 C 210.523438 226.351562 210.824219 226.351562 211.125 226.726562 C 211.574219 227.101562 211.949219 227.925781 211.875 228.523438 C 211.648438 229.199219 209.773438 230.324219 209.773438 230.324219 "/></clipPath><clipPath id="5bc2818813"><path d="M 137.050781 179 L 275.316406 179 L 275.316406 316.550781 L 137.050781 316.550781 Z M 137.050781 179 "/></clipPath><clipPath id="fe553259dd"><path d="M 137.253906 279.394531 C 140.476562 249.683594 148.878906 244.839844 149.027344 241.660156 C 149.101562 239.992188 147.078125 239.675781 146.703125 237.847656 C 145.953125 234.035156 146.925781 224.660156 149.476562 219.257812 C 152.101562 213.621094 161.777344 207.34375 162.675781 204.882812 C 162.976562 204.246094 162.675781 203.929688 162.675781 203.371094 C 162.675781 202.816406 162.675781 201.703125 162.675781 201.703125 C 162.675781 201.625 162.902344 200.511719 163.050781 199.957031 C 163.203125 199.398438 163.425781 198.289062 163.425781 198.289062 C 163.425781 198.289062 163.953125 197.253906 164.175781 196.699219 C 164.476562 196.222656 164.925781 195.191406 164.925781 195.191406 C 165.003906 195.191406 165.675781 194.316406 166.050781 193.839844 C 166.425781 193.441406 167.101562 192.570312 167.101562 192.570312 C 167.175781 192.488281 168.003906 191.855469 168.453125 191.535156 C 168.902344 191.21875 169.800781 190.582031 169.800781 190.582031 C 169.878906 190.503906 179.628906 186.53125 182.175781 184.863281 C 183.453125 184.070312 184.878906 182.558594 184.878906 182.558594 C 184.878906 182.558594 185.777344 181.925781 186.300781 181.605469 C 186.753906 181.289062 187.652344 180.734375 187.726562 180.734375 C 187.726562 180.652344 188.777344 180.335938 189.300781 180.175781 C 189.828125 179.9375 190.878906 179.621094 190.878906 179.621094 C 190.878906 179.621094 192.003906 179.539062 192.527344 179.460938 C 193.050781 179.460938 194.175781 179.382812 194.175781 179.382812 C 194.175781 179.382812 195.300781 179.539062 195.828125 179.621094 C 196.351562 179.777344 197.476562 179.9375 197.476562 179.9375 C 197.476562 179.9375 198.527344 180.414062 198.976562 180.652344 C 199.503906 180.890625 199.878906 181.367188 200.402344 181.289062 C 201.226562 181.210938 202.203125 179.382812 203.402344 179.222656 C 204.828125 179.0625 206.328125 180.734375 208.351562 181.210938 C 211.351562 181.925781 217.128906 180.492188 220.050781 182.164062 C 222.601562 183.59375 223.277344 188.4375 225.378906 189.550781 C 227.101562 190.421875 228.601562 189.074219 231.078125 189.390625 C 236.027344 190.027344 247.800781 192.171875 252.828125 195.824219 C 256.578125 198.445312 259.203125 202.578125 260.402344 206.230469 C 261.453125 209.488281 259.726562 213.9375 260.476562 216.320312 C 260.925781 217.910156 262.652344 218.863281 262.800781 219.894531 C 262.953125 220.53125 262.203125 220.847656 262.203125 221.722656 C 262.277344 224.265625 267.453125 232.445312 267.753906 236.179688 C 267.902344 238.5625 266.027344 239.753906 266.402344 242.058594 C 267.003906 246.03125 274.128906 251.429688 275.027344 256.914062 C 276.003906 262.871094 273.078125 271.609375 271.128906 276.535156 C 269.777344 279.949219 267.300781 281.695312 266.175781 284.476562 C 265.050781 287.257812 265.953125 290.355469 264.453125 293.136719 C 262.351562 297.027344 257.101562 301 252.527344 304.335938 C 247.578125 307.992188 241.050781 312.996094 235.578125 313.867188 C 230.851562 314.582031 226.425781 310.53125 221.777344 310.769531 C 216.828125 311.089844 209.476562 316.332031 206.550781 316.171875 C 205.277344 316.09375 205.203125 315.058594 204.003906 314.820312 C 201.300781 314.265625 194.925781 316.886719 190.578125 315.535156 C 185.476562 313.949219 179.703125 306.242188 175.878906 304.414062 C 173.703125 303.382812 172.425781 303.621094 170.328125 303.144531 C 167.628906 302.507812 164.328125 302.269531 160.953125 301 C 156.675781 299.410156 150.753906 296.949219 146.777344 293.375 C 142.800781 289.71875 137.253906 279.394531 137.253906 279.394531 M 201.902344 275.023438 C 202.503906 276.851562 203.703125 277.167969 203.777344 277.089844 C 203.851562 277.011719 203.703125 276.851562 203.628906 276.691406 C 203.402344 276.296875 201.902344 275.023438 201.902344 275.023438 "/></clipPath><clipPath id="a63247aaed"><path d="M 133.558594 284.15625 L 170.691406 284.15625 L 170.691406 316.367188 L 133.558594 316.367188 Z M 133.558594 284.15625 "/></clipPath><clipPath id="200d19de13"><path d="M 155.101562 287.851562 C 159.449219 291.675781 157.800781 289.199219 158.101562 288.75 C 158.476562 288.375 160.050781 288.898438 161.175781 289.273438 C 162.75 289.875 165.226562 291.300781 166.5 292.351562 C 167.398438 293.101562 167.925781 293.699219 168.449219 294.75 C 169.273438 296.25 170.25 298.648438 170.398438 300.601562 C 170.550781 302.550781 170.023438 305.101562 169.425781 306.675781 C 169.050781 307.800781 168.675781 308.476562 167.851562 309.375 C 166.800781 310.648438 164.925781 312.375 163.125 313.273438 C 161.324219 314.101562 159.148438 315.300781 157.125 314.476562 C 153.375 312.898438 145.726562 300.75 145.574219 297.074219 C 145.574219 295.425781 146.773438 294.523438 147.675781 293.476562 C 148.5 292.425781 149.625 291.449219 150.824219 290.699219 C 151.949219 290.023438 153.300781 289.425781 154.648438 289.125 C 155.925781 288.824219 157.425781 288.675781 158.773438 288.824219 C 160.125 288.976562 161.550781 289.351562 162.824219 289.875 C 164.023438 290.398438 165.300781 291.226562 166.273438 292.125 C 167.324219 293.101562 168.226562 294.226562 168.824219 295.425781 C 169.5 296.625 170.023438 297.976562 170.25 299.324219 C 170.476562 300.675781 170.550781 302.101562 170.324219 303.523438 C 170.101562 304.875 169.726562 306.226562 169.050781 307.425781 C 168.449219 308.699219 167.550781 309.824219 166.574219 310.800781 C 165.601562 311.773438 164.476562 312.601562 163.199219 313.199219 C 162 313.800781 160.574219 314.175781 159.226562 314.398438 C 157.875 314.550781 156.375 314.476562 155.023438 314.25 C 153.75 313.949219 152.324219 313.425781 151.199219 312.75 C 150 312.074219 148.875 311.175781 147.976562 310.125 C 147.074219 309.074219 146.25 307.875 145.726562 306.601562 C 145.199219 305.324219 144.898438 303.898438 144.75 302.550781 C 144.675781 301.199219 144.824219 299.699219 145.199219 298.425781 C 145.5 297.074219 146.101562 295.726562 146.851562 294.601562 C 147.601562 293.476562 148.574219 292.351562 149.625 291.523438 C 150.75 290.699219 152.023438 289.949219 153.300781 289.5 C 154.574219 289.050781 156 288.824219 157.425781 288.75 C 158.773438 288.75 160.199219 288.976562 161.476562 289.351562 C 162.824219 289.800781 164.101562 290.476562 165.226562 291.300781 C 166.351562 292.050781 167.324219 293.101562 168.148438 294.226562 C 168.898438 295.351562 169.574219 296.699219 169.949219 297.976562 C 170.324219 299.324219 171 301.875 170.476562 302.101562 C 169.351562 302.625 157.5 289.800781 158.101562 288.75 C 158.476562 288.226562 162.300781 289.5 164.023438 290.476562 C 165.75 291.523438 167.398438 293.101562 168.449219 294.75 C 169.5 296.476562 170.25 298.574219 170.398438 300.601562 C 170.550781 302.550781 170.023438 305.101562 169.425781 306.675781 C 169.050781 307.800781 168.675781 308.476562 167.851562 309.375 C 166.800781 310.648438 164.925781 312.375 163.125 313.273438 C 161.324219 314.101562 158.773438 313.875 157.125 314.476562 C 155.773438 315 155.324219 316.351562 153.898438 316.351562 C 151.050781 316.425781 144.601562 312.300781 141.300781 309.75 C 138.824219 307.800781 136.648438 305.023438 135.449219 303.226562 C 134.773438 302.175781 134.476562 301.574219 134.25 300.449219 C 133.800781 298.875 133.5 296.398438 133.875 294.449219 C 134.175781 292.574219 135.148438 290.550781 136.351562 288.976562 C 137.550781 287.476562 139.273438 286.125 141.074219 285.300781 C 142.800781 284.476562 145.351562 284.175781 146.925781 284.175781 C 148.125 284.175781 148.875 284.324219 149.925781 284.773438 C 151.425781 285.300781 155.101562 287.851562 155.101562 287.851562 "/></clipPath><clipPath id="0417b0b4ad"><path d="M 141 196 L 267 196 L 267 314 L 141 314 Z M 141 196 "/></clipPath><clipPath id="cc9421977d"><path d="M 140.207031 205.390625 L 262.820312 195.621094 L 271.816406 308.515625 L 149.203125 318.285156 Z M 140.207031 205.390625 "/></clipPath><clipPath id="66486b6b86"><path d="M 140.207031 205.390625 L 262.820312 195.621094 L 271.816406 308.515625 L 149.203125 318.285156 Z M 140.207031 205.390625 "/></clipPath><clipPath id="91fd688d88"><path d="M 140.207031 205.390625 L 262.820312 195.621094 L 271.816406 308.515625 L 149.203125 318.285156 Z M 140.207031 205.390625 "/></clipPath><clipPath id="da88de5e75"><path d="M 216 206 L 252 206 L 252 285 L 216 285 Z M 216 206 "/></clipPath><clipPath id="5515ac0abe"><path d="M 140.207031 205.390625 L 262.820312 195.621094 L 271.816406 308.515625 L 149.203125 318.285156 Z M 140.207031 205.390625 "/></clipPath><clipPath id="4fb64c3b6f"><path d="M 140.207031 205.390625 L 262.820312 195.621094 L 271.816406 308.515625 L 149.203125 318.285156 Z M 140.207031 205.390625 "/></clipPath><clipPath id="7772139c1b"><path d="M 140.207031 205.390625 L 262.820312 195.621094 L 271.816406 308.515625 L 149.203125 318.285156 Z M 140.207031 205.390625 "/></clipPath><clipPath id="192addeac7"><path d="M 156 216 L 243 216 L 243 282 L 156 282 Z M 156 216 "/></clipPath><clipPath id="f41f2d8541"><path d="M 140.207031 205.390625 L 262.820312 195.621094 L 271.816406 308.515625 L 149.203125 318.285156 Z M 140.207031 205.390625 "/></clipPath><clipPath id="c5d82deb9f"><path d="M 140.207031 205.390625 L 262.820312 195.621094 L 271.816406 308.515625 L 149.203125 318.285156 Z M 140.207031 205.390625 "/></clipPath><clipPath id="9b26315505"><path d="M 140.207031 205.390625 L 262.820312 195.621094 L 271.816406 308.515625 L 149.203125 318.285156 Z M 140.207031 205.390625 "/></clipPath><clipPath id="35e9d62575"><path d="M 146 201 L 261 201 L 261 301 L 146 301 Z M 146 201 "/></clipPath><clipPath id="dcaea7b84f"><path d="M 140.207031 205.390625 L 262.820312 195.621094 L 271.816406 308.515625 L 149.203125 318.285156 Z M 140.207031 205.390625 "/></clipPath><clipPath id="b40bf17590"><path d="M 140.207031 205.390625 L 262.820312 195.621094 L 271.816406 308.515625 L 149.203125 318.285156 Z M 140.207031 205.390625 "/></clipPath><clipPath id="c4ee8f028d"><path d="M 140.207031 205.390625 L 262.820312 195.621094 L 271.816406 308.515625 L 149.203125 318.285156 Z M 140.207031 205.390625 "/></clipPath><clipPath id="a62d36f4b4"><path d="M 141 196 L 267 196 L 267 314 L 141 314 Z M 141 196 "/></clipPath><clipPath id="58bd9901e6"><path d="M 140.207031 205.390625 L 262.820312 195.621094 L 271.816406 308.515625 L 149.203125 318.285156 Z M 140.207031 205.390625 "/></clipPath><clipPath id="bb80f6e69a"><path d="M 140.207031 205.390625 L 262.820312 195.621094 L 271.816406 308.515625 L 149.203125 318.285156 Z M 140.207031 205.390625 "/></clipPath><clipPath id="233b4f505a"><path d="M 140.207031 205.390625 L 262.820312 195.621094 L 271.816406 308.515625 L 149.203125 318.285156 Z M 140.207031 205.390625 "/></clipPath></defs><g id="cfd6668504"><path style=" stroke:none;fill-rule:evenodd;fill:#c9c9c9;fill-opacity:1;" d="M 191.816406 17.671875 C 197.707031 38.632812 202.652344 65.515625 199.996094 91.824219 C 204.957031 91.867188 206.148438 88.625 210.730469 90.804688 C 220.421875 86.8125 228.410156 78.773438 237.820312 70.347656 C 241.578125 66.980469 244.796875 62.800781 249.578125 58.585938 C 253.109375 55.464844 261.0625 51.4375 262.355469 47.84375 C 263.382812 44.984375 262.117188 36.402344 260.820312 28.921875 C 259.324219 20.285156 258.691406 13.210938 255.710938 8.464844 C 234.382812 11.722656 209.882812 17.292969 191.816406 17.671875 M 229.128906 39.148438 C 228.058594 37.445312 229.464844 34.582031 231.6875 34.550781 C 233.414062 35.855469 231.871094 39.304688 229.128906 39.148438 M 222.996094 49.890625 C 220.949219 50.0625 220.710938 48.425781 220.953125 46.308594 C 223.097656 46 223.660156 48.972656 222.996094 49.890625 "/><path style=" stroke:none;fill-rule:evenodd;fill:#dddddd;fill-opacity:1;" d="M 168.816406 14.09375 C 172.0625 42.320312 178.007812 68.722656 182.105469 94.382812 C 185.761719 94.519531 185.777344 93.941406 188.75 93.871094 C 185.476562 67.296875 181.457031 43.109375 176.484375 19.207031 C 177.453125 17.277344 179.109375 16.035156 181.085938 15.113281 C 180.871094 7.816406 171.402344 11.144531 168.816406 14.09375 "/><path style=" stroke:none;fill-rule:evenodd;fill:#dddddd;fill-opacity:1;" d="M 160.636719 17.667969 C 161.195312 20.316406 163.375 18.683594 165.746094 18.691406 C 164.808594 17.585938 162.738281 17.617188 160.636719 17.667969 "/><path style=" stroke:none;fill-rule:evenodd;fill:#c9c9c9;fill-opacity:1;" d="M 181.59375 18.183594 C 180.5625 30.90625 184.113281 44.128906 186.195312 57.5625 C 187.757812 67.660156 189.855469 81.378906 192.328125 92.851562 C 198.117188 93.148438 197.820312 85.875 197.953125 80.0625 C 198.277344 65.71875 195.9375 52.796875 194.375 41.199219 C 192.933594 30.523438 193.179688 18.113281 181.59375 18.183594 "/><path style=" stroke:none;fill-rule:evenodd;fill:#000000;fill-opacity:1;" d="M 231.6875 34.550781 C 229.464844 34.585938 228.058594 37.445312 229.128906 39.148438 C 231.871094 39.304688 233.414062 35.855469 231.6875 34.550781 "/><path style=" stroke:none;fill-rule:evenodd;fill:#000000;fill-opacity:1;" d="M 220.953125 46.308594 C 220.710938 48.425781 220.949219 50.0625 222.996094 49.890625 C 223.660156 48.96875 223.097656 46 220.953125 46.308594 "/><path style=" stroke:none;fill-rule:evenodd;fill:#000000;fill-opacity:1;" d="M 146.839844 58.074219 L 143.769531 58.074219 C 143.703125 59.335938 143.695312 60.539062 144.28125 61.140625 C 146.609375 61.238281 147.71875 59.8125 146.839844 58.074219 "/><path style=" stroke:none;fill-rule:evenodd;fill:#000000;fill-opacity:1;" d="M 143.769531 66.253906 C 142.105469 66.121094 141.308594 66.863281 141.214844 68.300781 C 142.1875 68.519531 142.136719 69.761719 143.769531 69.324219 C 143.925781 68.128906 144.769531 67.210938 143.769531 66.253906 "/><path style=" stroke:none;fill-rule:evenodd;fill:#dddddd;fill-opacity:1;" d="M 162.171875 100.007812 C 177.125 99.71875 195.261719 98.808594 210.21875 96.429688 C 207.4375 92.796875 200.777344 95.265625 197.441406 96.941406 C 187.605469 96.296875 173.15625 97.710938 162.171875 100.007812 "/><path style=" stroke:none;fill-rule:evenodd;fill:#c9c9c9;fill-opacity:1;" d="M 158.59375 105.125 C 147.222656 123.410156 131.875 137.71875 121.28125 156.777344 C 136.679688 161.882812 155.992188 158.332031 171.882812 158.308594 C 202.859375 158.269531 231.671875 148.320312 260.308594 142.96875 C 262.289062 141.199219 265.863281 141.023438 267.976562 139.390625 C 250.625 125.894531 232.652344 113.019531 215.328125 99.496094 C 195.058594 101.558594 178.550781 101.949219 158.59375 105.125 M 196.929688 129.160156 C 196.101562 129.929688 193.160156 129.929688 192.328125 129.160156 C 191.726562 125.890625 197.65625 125.660156 196.929688 129.160156 M 191.816406 134.785156 C 191.722656 136.222656 190.929688 136.964844 189.261719 136.832031 C 189.632812 135.4375 188.246094 135.800781 188.238281 134.785156 C 188.863281 134.726562 189.449219 134.632812 189.261719 133.761719 C 190.53125 133.683594 190.847656 134.566406 191.816406 134.785156 "/><path style=" stroke:none;fill-rule:evenodd;fill:#000000;fill-opacity:1;" d="M 192.328125 129.160156 C 193.15625 129.929688 196.101562 129.929688 196.929688 129.160156 C 197.65625 125.65625 191.726562 125.890625 192.328125 129.160156 "/><path style=" stroke:none;fill-rule:evenodd;fill:#000000;fill-opacity:1;" d="M 189.261719 133.761719 C 189.449219 134.632812 188.863281 134.730469 188.238281 134.785156 C 188.246094 135.800781 189.632812 135.4375 189.261719 136.832031 C 190.929688 136.964844 191.722656 136.222656 191.816406 134.785156 C 190.847656 134.566406 190.53125 133.683594 189.261719 133.761719 "/><path style=" stroke:none;fill-rule:evenodd;fill:#dddddd;fill-opacity:1;" d="M 111.058594 157.800781 C 111.457031 191.324219 116.5 229.527344 121.28125 265.199219 C 122.488281 274.203125 125.105469 284.480469 127.925781 293.328125 C 134.136719 312.808594 139.707031 327.0625 152.96875 341.910156 C 159.164062 348.839844 167.363281 356.429688 174.949219 359.808594 C 189.273438 366.195312 209.917969 368.867188 226.574219 366.96875 C 258.832031 363.296875 280.671875 343.042969 286.890625 312.757812 C 289.640625 299.367188 287.640625 285.863281 287.402344 270.824219 C 287.167969 255.941406 287.4375 240.476562 285.867188 226.332031 C 282.476562 195.820312 280 172.417969 275.644531 141.945312 C 275.378906 141.75 274.886719 139.460938 274.621094 140.921875 C 259.492188 147.777344 241.359375 148.679688 224.53125 152.6875 C 220.5625 153.628906 217.253906 155.441406 213.285156 156.265625 C 201.949219 158.617188 190.335938 161.140625 177.503906 161.378906 C 154.925781 161.796875 129.589844 164.34375 111.058594 157.800781 M 264.398438 242.695312 C 267.765625 259.035156 263.804688 277.132812 255.199219 289.746094 C 250.777344 296.226562 238.859375 304.609375 231.175781 307.132812 C 199.304688 317.613281 161.855469 294.84375 155.015625 265.199219 C 150.613281 246.117188 155.964844 220.128906 166.261719 209.964844 C 169.417969 206.847656 174.996094 203.972656 180.574219 200.757812 C 185.140625 198.125 189.660156 194.640625 193.351562 193.089844 C 206.832031 187.417969 229.667969 190 242.421875 197.691406 C 252.1875 209.351562 260.835938 225.390625 264.398438 242.695312 "/><path style=" stroke:none;fill-rule:evenodd;fill:#000000;fill-opacity:1;" d="M 242.421875 197.691406 C 229.667969 190.003906 206.832031 187.417969 193.351562 193.089844 C 189.660156 194.636719 185.140625 198.125 180.574219 200.757812 C 174.996094 203.972656 169.417969 206.847656 166.261719 209.964844 C 155.964844 220.128906 150.609375 246.117188 155.015625 265.199219 C 161.855469 294.84375 199.304688 317.613281 231.175781 307.132812 C 238.859375 304.609375 250.777344 296.226562 255.199219 289.746094 C 263.804688 277.132812 267.765625 259.035156 264.398438 242.695312 C 260.835938 225.390625 252.1875 209.351562 242.421875 197.691406 M 253.664062 218.660156 C 256.1875 224.570312 261.230469 236.84375 262.355469 242.695312 C 268.441406 274.445312 248.414062 301.539062 222.996094 306.113281 C 200.832031 310.097656 177.65625 296.667969 168.816406 286.675781 C 153.457031 269.324219 151.511719 226.851562 169.328125 210.988281 C 174.445312 206.429688 185.054688 201.171875 191.304688 197.691406 C 198.535156 193.667969 209.355469 192.480469 219.929688 193.089844 C 237.984375 194.128906 248.109375 205.632812 253.664062 218.660156 "/><path style=" stroke:none;fill-rule:evenodd;fill:#ffe000;fill-opacity:1;" d="M 219.929688 193.089844 C 209.355469 192.476562 198.535156 193.667969 191.304688 197.691406 C 185.054688 201.167969 174.445312 206.429688 169.328125 210.988281 C 151.511719 226.851562 153.457031 269.324219 168.816406 286.675781 C 177.65625 296.667969 200.832031 310.097656 222.996094 306.113281 C 248.414062 301.539062 268.441406 274.445312 262.355469 242.695312 C 261.230469 236.84375 256.1875 224.566406 253.664062 218.660156 C 248.109375 205.632812 237.984375 194.128906 219.929688 193.089844 M 218.90625 206.894531 C 216.777344 214.527344 218.996094 226.410156 216.863281 236.042969 C 212.867188 236.992188 208.425781 237.492188 204.085938 238.089844 C 200.910156 229.945312 196.070312 220.609375 191.816406 212.011719 C 199.9375 208.355469 210.496094 203.292969 218.90625 206.894531 M 218.90625 252.414062 C 219.96875 254.589844 221.324219 256.46875 220.953125 260.082031 C 217.324219 265.457031 205.75 264.199219 208.683594 255.480469 C 209.667969 254.25 212.496094 254.863281 211.75 251.902344 C 214.269531 251.035156 216.476562 251.855469 218.90625 252.414062 M 231.175781 259.570312 C 239.183594 261.59375 248.851562 263.953125 257.242188 265.199219 C 253.503906 271 249.863281 276.90625 247.53125 284.121094 C 240.332031 283.292969 236.332031 276.265625 228.617188 274.402344 C 228.890625 268.878906 230.648438 264.839844 231.175781 259.570312 M 194.371094 277.984375 C 196.011719 275.535156 197.855469 270.414062 200.507812 269.800781 C 203.578125 269.089844 212.957031 273.472656 213.796875 275.425781 C 210.515625 282.808594 210.179688 290.261719 207.664062 296.394531 C 199.601562 295.59375 197.242188 289.09375 189.773438 287.699219 C 189.023438 284.453125 192.085938 281.40625 194.371094 277.984375 "/><path style=" stroke:none;fill-rule:evenodd;fill:#000000;fill-opacity:1;" d="M 191.816406 212.011719 C 196.070312 220.609375 200.910156 229.945312 204.085938 238.09375 C 208.425781 237.492188 212.867188 236.992188 216.863281 236.046875 C 218.996094 226.410156 216.777344 214.527344 218.910156 206.894531 C 210.5 203.292969 199.9375 208.355469 191.816406 212.011719 M 214.820312 232.980469 C 211.125 233.820312 208.523438 235.375 205.617188 234.511719 C 203.167969 227.230469 198.007812 219.988281 196.417969 213.546875 C 200.710938 209.828125 208.582031 209.695312 215.328125 208.429688 C 215.039062 215.675781 215.648438 224.054688 214.820312 232.980469 "/><path style=" stroke:none;fill-rule:evenodd;fill:#ff3600;fill-opacity:1;" d="M 215.328125 208.429688 C 208.582031 209.695312 200.710938 209.828125 196.417969 213.546875 C 198.007812 219.988281 203.167969 227.230469 205.617188 234.511719 C 208.523438 235.375 211.125 233.820312 214.820312 232.980469 C 215.648438 224.054688 215.039062 215.675781 215.328125 208.429688 "/><path style=" stroke:none;fill-rule:evenodd;fill:#000000;fill-opacity:1;" d="M 211.75 251.898438 C 212.5 254.863281 209.667969 254.25 208.683594 255.480469 C 205.75 264.199219 217.324219 265.457031 220.953125 260.082031 C 221.324219 256.472656 219.96875 254.589844 218.910156 252.414062 C 216.476562 251.855469 214.269531 251.035156 211.75 251.898438 M 217.886719 259.0625 C 216.191406 259.921875 213.800781 261.0625 211.75 260.082031 C 211.566406 256.660156 214.355469 256.207031 216.351562 254.96875 C 217.878906 255.320312 218.066406 257.007812 217.886719 259.0625 "/><path style=" stroke:none;fill-rule:evenodd;fill:#ff3600;fill-opacity:1;" d="M 216.351562 254.96875 C 214.355469 256.207031 211.566406 256.660156 211.75 260.082031 C 213.800781 261.0625 216.191406 259.921875 217.886719 259.0625 C 218.066406 257.007812 217.878906 255.320312 216.351562 254.96875 "/><path style=" stroke:none;fill-rule:evenodd;fill:#000000;fill-opacity:1;" d="M 228.617188 274.402344 C 236.332031 276.265625 240.332031 283.292969 247.53125 284.121094 C 249.863281 276.910156 253.503906 271 257.242188 265.199219 C 248.851562 263.953125 239.183594 261.597656 231.175781 259.570312 C 230.648438 264.84375 228.890625 268.878906 228.617188 274.402344 M 252.128906 266.734375 C 250.148438 271.394531 247.753906 275.648438 245.996094 280.542969 C 240.347656 279.035156 237.734375 274.488281 232.199219 272.867188 C 232.128906 268.878906 233.453125 266.28125 234.753906 263.660156 C 242.375 263.800781 245.402344 266.574219 252.128906 266.734375 "/><path style=" stroke:none;fill-rule:evenodd;fill:#ff3600;fill-opacity:1;" d="M 234.753906 263.660156 C 233.453125 266.28125 232.128906 268.878906 232.199219 272.867188 C 237.734375 274.488281 240.347656 279.035156 245.996094 280.542969 C 247.753906 275.648438 250.148438 271.394531 252.128906 266.734375 C 245.402344 266.574219 242.375 263.800781 234.753906 263.660156 "/><path style=" stroke:none;fill-rule:evenodd;fill:#000000;fill-opacity:1;" d="M 189.773438 287.699219 C 197.242188 289.09375 199.601562 295.59375 207.664062 296.394531 C 210.179688 290.261719 210.515625 282.808594 213.796875 275.425781 C 212.957031 273.472656 203.578125 269.089844 200.507812 269.800781 C 197.855469 270.414062 196.011719 275.535156 194.375 277.984375 C 192.085938 281.40625 189.023438 284.453125 189.773438 287.699219 M 201.527344 273.382812 C 205.003906 272.457031 206.789062 275.535156 210.21875 275.9375 C 208.417969 282.125 207.414062 286.917969 206.128906 292.816406 C 200.957031 291.003906 196.535156 288.433594 193.351562 284.632812 C 196.722656 282.171875 197.316406 274.5 201.527344 273.382812 "/><path style=" stroke:none;fill-rule:evenodd;fill:#ff3600;fill-opacity:1;" d="M 193.351562 284.632812 C 196.535156 288.433594 200.957031 291.003906 206.128906 292.816406 C 207.414062 286.917969 208.417969 282.125 210.21875 275.9375 C 206.789062 275.535156 205.003906 272.457031 201.527344 273.382812 C 197.316406 274.5 196.722656 282.171875 193.351562 284.632812 "/><g clip-rule="nonzero" clip-path="url(#6322c5f5ab)"><path style=" stroke:none;fill-rule:evenodd;fill:#000000;fill-opacity:1;" d="M 190.285156 11.023438 C 187.609375 9.945312 187.921875 5.882812 185.171875 4.886719 C 178.59375 6.292969 172.609375 4.3125 168.816406 6.417969 C 165.550781 8.234375 164.433594 14.019531 158.59375 12.554688 C 156.734375 14.105469 156.253906 17.039062 155.527344 19.71875 C 131.238281 19.6875 112.675781 23.085938 89.589844 22.277344 C 86.835938 32.171875 89.394531 42.40625 90.613281 51.9375 C 91.414062 58.234375 91.191406 64.71875 92.65625 70.347656 C 93 71.667969 95.351562 78.667969 96.742188 80.574219 C 99.074219 83.753906 105.492188 84.753906 110.035156 86.710938 C 123.515625 92.523438 136.828125 99.425781 151.945312 102.054688 C 141.140625 124.992188 124.585938 142.183594 105.433594 156.777344 C 106.925781 165.101562 107.105469 174.925781 107.480469 186.4375 C 107.992188 202.195312 109.074219 218.8125 110.546875 235.535156 C 111.835938 250.1875 115.78125 265.347656 119.234375 280.027344 C 128.304688 318.570312 142.957031 347.285156 172.394531 364.925781 C 201.261719 375.324219 241.8125 376.085938 262.863281 359.300781 C 287.390625 339.746094 300.671875 304.640625 296.601562 260.59375 C 293.855469 230.882812 294.863281 196.492188 290.464844 165.980469 C 288.519531 152.472656 288.019531 142.347656 280.242188 135.296875 C 277.980469 134.257812 276.511719 135.945312 273.089844 134.785156 C 268.601562 133.265625 263.335938 127.699219 258.777344 124.558594 C 246.402344 116.03125 230.972656 104.96875 219.929688 95.40625 C 228.390625 89.449219 235.230469 81.363281 242.929688 72.902344 C 246.195312 69.316406 250.082031 65.140625 254.175781 61.652344 C 259.332031 57.261719 264.8125 54.140625 267.976562 48.867188 C 268.730469 36.972656 265.605469 25.609375 262.863281 12.554688 C 262.03125 8.585938 262.464844 3.609375 258.777344 2.839844 C 254.296875 1.90625 246.453125 4.5 240.886719 5.398438 C 228.121094 7.453125 205.210938 7.675781 190.285156 11.023438 M 255.710938 8.464844 C 258.691406 13.210938 259.324219 20.285156 260.820312 28.921875 C 262.117188 36.402344 263.382812 44.984375 262.355469 47.84375 C 261.0625 51.4375 253.109375 55.464844 249.578125 58.585938 C 244.796875 62.800781 241.578125 66.980469 237.820312 70.347656 C 228.410156 78.773438 220.421875 86.8125 210.730469 90.804688 C 206.148438 88.625 204.957031 91.867188 199.996094 91.828125 C 202.652344 65.511719 197.707031 38.632812 191.816406 17.671875 C 209.882812 17.292969 234.382812 11.726562 255.710938 8.464844 M 181.085938 15.113281 C 179.109375 16.039062 177.449219 17.277344 176.484375 19.203125 C 181.457031 43.109375 185.476562 67.296875 188.75 93.871094 C 185.777344 93.941406 185.761719 94.523438 182.105469 94.382812 C 178.007812 68.722656 172.0625 42.320312 168.816406 14.089844 C 171.402344 11.140625 180.871094 7.816406 181.085938 15.113281 M 165.746094 18.695312 C 163.378906 18.683594 161.195312 20.316406 160.636719 17.671875 C 162.738281 17.617188 164.8125 17.585938 165.746094 18.695312 M 194.375 41.195312 C 195.9375 52.796875 198.277344 65.71875 197.953125 80.0625 C 197.820312 85.875 198.117188 93.148438 192.328125 92.851562 C 189.855469 81.378906 187.757812 67.660156 186.195312 57.5625 C 184.113281 44.128906 180.5625 30.90625 181.59375 18.183594 C 193.179688 18.113281 192.929688 30.523438 194.375 41.195312 M 167.285156 24.832031 C 171.351562 47.980469 176.015625 71.695312 178.527344 94.894531 C 169.769531 95.957031 165.128906 93.566406 159.105469 97.449219 C 159.378906 95.644531 158.671875 94.816406 157.570312 94.382812 C 150.328125 98.042969 144.871094 93.835938 137.636719 91.828125 C 133.15625 90.582031 128.25 89.308594 124.347656 87.734375 C 118.203125 85.257812 101.351562 79.527344 99.300781 73.925781 C 94.960938 62.074219 95.140625 43.71875 93.167969 28.921875 C 117.953125 26.140625 138.964844 26.359375 167.285156 24.832031 M 197.441406 96.941406 C 200.777344 95.265625 207.4375 92.796875 210.21875 96.429688 C 195.261719 98.8125 177.125 99.714844 162.171875 100.007812 C 173.15625 97.710938 187.605469 96.296875 197.441406 96.941406 M 215.328125 99.5 C 232.652344 113.019531 250.625 125.894531 267.976562 139.390625 C 265.863281 141.023438 262.289062 141.199219 260.308594 142.96875 C 231.671875 148.324219 202.859375 158.269531 171.882812 158.308594 C 155.992188 158.335938 136.679688 161.882812 121.28125 156.777344 C 131.875 137.71875 147.222656 123.410156 158.59375 105.121094 C 178.550781 101.949219 195.058594 101.5625 215.328125 99.5 M 177.503906 161.378906 C 190.335938 161.140625 201.949219 158.617188 213.285156 156.265625 C 217.253906 155.441406 220.5625 153.628906 224.53125 152.683594 C 241.359375 148.679688 259.492188 147.777344 274.621094 140.921875 C 274.886719 139.460938 275.378906 141.746094 275.644531 141.945312 C 280 172.417969 282.476562 195.820312 285.867188 226.332031 C 287.4375 240.476562 287.167969 255.941406 287.402344 270.824219 C 287.640625 285.863281 289.640625 299.367188 286.890625 312.757812 C 280.671875 343.042969 258.832031 363.296875 226.574219 366.96875 C 209.917969 368.867188 189.273438 366.195312 174.949219 359.808594 C 167.363281 356.429688 159.164062 348.839844 152.96875 341.910156 C 139.707031 327.0625 134.140625 312.808594 127.925781 293.328125 C 125.105469 284.480469 122.488281 274.203125 121.28125 265.199219 C 116.5 229.527344 111.457031 191.324219 111.058594 157.800781 C 129.589844 164.34375 154.925781 161.796875 177.503906 161.378906 "/></g><path style=" stroke:none;fill-rule:evenodd;fill:#c9c9c9;fill-opacity:1;" d="M 93.167969 28.921875 C 95.140625 43.71875 94.960938 62.070312 99.300781 73.925781 C 101.351562 79.527344 118.203125 85.257812 124.347656 87.734375 C 128.25 89.304688 133.15625 90.585938 137.636719 91.828125 C 144.871094 93.835938 150.328125 98.046875 157.570312 94.382812 C 158.671875 94.816406 159.378906 95.644531 159.105469 97.449219 C 165.128906 93.566406 169.769531 95.957031 178.527344 94.894531 C 176.015625 71.695312 171.351562 47.980469 167.285156 24.832031 C 138.964844 26.359375 117.953125 26.140625 93.167969 28.921875 M 144.28125 61.140625 C 143.695312 60.539062 143.703125 59.335938 143.769531 58.074219 L 146.839844 58.074219 C 147.71875 59.8125 146.609375 61.238281 144.28125 61.140625 M 143.769531 69.324219 C 142.136719 69.761719 142.1875 68.519531 141.214844 68.300781 C 141.308594 66.863281 142.105469 66.125 143.769531 66.253906 C 144.769531 67.210938 143.925781 68.128906 143.769531 69.324219 "/><g clip-rule="nonzero" clip-path="url(#11fe45f17f)"><g clip-rule="nonzero" clip-path="url(#bb4ce05f6a)"><path style=" stroke:none;fill-rule:nonzero;fill:#dddddd;fill-opacity:1;" d="M 174.074219 215.175781 L 214.839844 215.175781 L 214.839844 233.324219 L 174.074219 233.324219 Z M 174.074219 215.175781 "/></g></g><g clip-rule="nonzero" clip-path="url(#5bc2818813)"><g clip-rule="nonzero" clip-path="url(#fe553259dd)"><path style=" stroke:none;fill-rule:nonzero;fill:#dddddd;fill-opacity:1;" d="M 134.253906 176.046875 L 278.117188 176.046875 L 278.117188 319.351562 L 134.253906 319.351562 Z M 134.253906 176.046875 "/></g></g><g clip-rule="nonzero" clip-path="url(#a63247aaed)"><g clip-rule="nonzero" clip-path="url(#200d19de13)"><path style=" stroke:none;fill-rule:nonzero;fill:#dddddd;fill-opacity:1;" d="M 130.875 281.175781 L 173.523438 281.175781 L 173.523438 319.351562 L 130.875 319.351562 Z M 130.875 281.175781 "/></g></g><g clip-rule="nonzero" clip-path="url(#0417b0b4ad)"><g clip-rule="nonzero" clip-path="url(#cc9421977d)"><g clip-rule="nonzero" clip-path="url(#66486b6b86)"><g clip-rule="nonzero" clip-path="url(#91fd688d88)"><path style=" stroke:none;fill-rule:nonzero;fill:#e671e6;fill-opacity:1;" d="M 264.234375 214.445312 L 264.609375 219.148438 L 264.984375 223.855469 L 265.359375 228.554688 L 265.734375 233.257812 L 266.109375 237.964844 L 266.480469 242.664062 L 266.855469 247.371094 L 262.148438 247.746094 L 262.898438 257.152344 L 258.191406 257.527344 L 258.566406 262.234375 L 253.855469 262.609375 L 254.230469 267.308594 L 249.523438 267.683594 L 249.898438 272.390625 L 245.183594 272.765625 L 245.558594 277.46875 L 240.851562 277.84375 L 241.226562 282.546875 L 236.519531 282.921875 L 236.894531 287.628906 L 237.269531 292.328125 L 232.554688 292.707031 L 232.929688 297.410156 L 228.222656 297.789062 L 228.597656 302.488281 L 223.886719 302.863281 L 219.179688 303.238281 L 219.554688 307.941406 L 214.847656 308.316406 L 215.222656 313.023438 L 210.507812 313.398438 L 205.800781 313.773438 L 205.425781 309.066406 L 200.714844 309.441406 L 200.339844 304.742188 L 195.632812 305.117188 L 195.257812 300.414062 L 190.550781 300.789062 L 190.175781 296.082031 L 185.460938 296.457031 L 185.089844 291.757812 L 180.378906 292.132812 L 180.003906 287.425781 L 175.292969 287.800781 L 174.917969 283.097656 L 170.210938 283.472656 L 169.835938 278.769531 L 165.128906 279.144531 L 164.753906 274.441406 L 160.042969 274.816406 L 159.667969 270.113281 L 154.960938 270.488281 L 154.585938 265.78125 L 149.871094 266.15625 L 149.5 261.457031 L 149.125 256.753906 L 144.417969 257.128906 L 144.039062 252.421875 L 143.667969 247.71875 L 143.292969 243.011719 L 142.917969 238.3125 L 142.542969 233.609375 L 142.167969 228.902344 L 141.792969 224.203125 L 146.5 223.828125 L 146.125 219.121094 L 145.75 214.417969 L 150.460938 214.042969 L 150.085938 209.339844 L 159.507812 208.589844 L 168.921875 207.839844 L 178.34375 207.089844 L 178.714844 211.792969 L 183.429688 211.414062 L 183.804688 216.117188 L 193.21875 215.367188 L 193.59375 220.074219 L 198.304688 219.699219 L 203.011719 219.324219 L 202.636719 214.617188 L 207.351562 214.242188 L 206.976562 209.539062 L 211.683594 209.164062 L 211.308594 204.460938 L 216.015625 204.085938 L 215.640625 199.378906 L 220.351562 199.003906 L 225.058594 198.628906 L 229.773438 198.253906 L 239.1875 197.503906 L 243.898438 197.128906 L 248.605469 196.753906 L 248.980469 201.460938 L 253.695312 201.085938 L 254.070312 205.785156 L 258.777344 205.410156 L 259.152344 210.113281 L 259.527344 214.820312 Z M 264.234375 214.445312 "/></g></g></g></g><g clip-rule="nonzero" clip-path="url(#da88de5e75)"><g clip-rule="nonzero" clip-path="url(#5515ac0abe)"><g clip-rule="nonzero" clip-path="url(#4fb64c3b6f)"><g clip-rule="nonzero" clip-path="url(#7772139c1b)"><path style=" stroke:none;fill-rule:nonzero;fill:#f7a0f9;fill-opacity:1;" d="M 250.105469 215.570312 L 250.480469 220.273438 L 250.855469 224.980469 L 251.230469 229.679688 L 251.605469 234.382812 L 251.980469 239.089844 L 247.273438 239.464844 L 247.648438 244.167969 L 248.023438 248.875 L 243.308594 249.25 L 243.683594 253.949219 L 238.976562 254.324219 L 239.351562 259.027344 L 234.644531 259.402344 L 235.019531 264.109375 L 235.394531 268.8125 L 230.683594 269.1875 L 231.058594 273.894531 L 226.351562 274.269531 L 226.722656 278.96875 L 222.011719 279.34375 L 222.386719 284.046875 L 217.679688 284.421875 L 217.304688 279.722656 L 216.929688 275.019531 L 216.554688 270.3125 L 216.179688 265.609375 L 220.886719 265.234375 L 220.511719 260.527344 L 225.226562 260.152344 L 224.851562 255.453125 L 229.558594 255.078125 L 234.269531 254.699219 L 233.894531 250 L 238.601562 249.625 L 238.226562 244.917969 L 237.851562 240.214844 L 242.5625 239.839844 L 242.1875 235.132812 L 241.8125 230.433594 L 241.4375 225.730469 L 241.0625 221.023438 L 240.6875 216.320312 L 245.398438 215.945312 Z M 239.9375 206.914062 L 230.523438 207.664062 L 225.808594 208.039062 L 226.558594 217.445312 L 231.273438 217.070312 L 240.6875 216.320312 L 240.3125 211.613281 Z M 239.9375 206.914062 "/></g></g></g></g><g clip-rule="nonzero" clip-path="url(#192addeac7)"><g clip-rule="nonzero" clip-path="url(#f41f2d8541)"><g clip-rule="nonzero" clip-path="url(#c5d82deb9f)"><g clip-rule="nonzero" clip-path="url(#9b26315505)"><path style=" stroke:none;fill-rule:nonzero;fill:#f7dcf9;fill-opacity:1;" d="M 240.6875 216.320312 L 241.0625 221.023438 L 241.4375 225.730469 L 241.8125 230.433594 L 242.1875 235.132812 L 242.5625 239.839844 L 237.851562 240.214844 L 238.226562 244.917969 L 238.601562 249.625 L 233.894531 250 L 234.269531 254.699219 L 229.558594 255.078125 L 224.851562 255.453125 L 225.226562 260.152344 L 220.511719 260.527344 L 220.886719 265.234375 L 216.179688 265.609375 L 216.554688 270.3125 L 211.847656 270.6875 L 212.222656 275.394531 L 207.511719 275.769531 L 207.886719 280.472656 L 203.179688 280.847656 L 198.464844 281.222656 L 193.757812 281.597656 L 193.382812 276.894531 L 188.675781 277.269531 L 188.300781 272.5625 L 183.589844 272.9375 L 183.214844 268.238281 L 178.507812 268.613281 L 178.132812 263.90625 L 173.417969 264.28125 L 173.042969 259.578125 L 168.335938 259.953125 L 167.960938 255.253906 L 167.585938 250.546875 L 162.878906 250.921875 L 162.503906 246.21875 L 162.128906 241.511719 L 157.417969 241.886719 L 157.042969 237.1875 L 156.667969 232.484375 L 156.292969 227.777344 L 161.007812 227.402344 L 170.421875 226.652344 L 175.132812 226.277344 L 179.839844 225.902344 L 180.214844 230.609375 L 184.929688 230.234375 L 185.304688 234.933594 L 190.011719 234.558594 L 190.386719 239.261719 L 195.09375 238.886719 L 195.46875 243.59375 L 200.179688 243.21875 L 204.886719 242.84375 L 204.511719 238.136719 L 209.222656 237.761719 L 208.847656 233.058594 L 213.558594 232.683594 L 213.183594 227.980469 L 217.890625 227.605469 L 217.515625 222.898438 L 222.226562 222.523438 L 226.933594 222.148438 L 226.558594 217.445312 L 231.273438 217.070312 Z M 240.6875 216.320312 "/></g></g></g></g><g clip-rule="nonzero" clip-path="url(#35e9d62575)"><g clip-rule="nonzero" clip-path="url(#dcaea7b84f)"><g clip-rule="nonzero" clip-path="url(#b40bf17590)"><g clip-rule="nonzero" clip-path="url(#c4ee8f028d)"><path style=" stroke:none;fill-rule:nonzero;fill:#ea91ed;fill-opacity:1;" d="M 259.527344 214.820312 L 259.902344 219.523438 L 260.277344 224.230469 L 255.570312 224.605469 L 255.941406 229.304688 L 256.316406 234.007812 L 251.605469 234.382812 L 251.230469 229.679688 L 250.855469 224.980469 L 250.480469 220.273438 L 250.105469 215.570312 L 245.398438 215.945312 L 240.6875 216.320312 L 240.3125 211.613281 L 239.9375 206.914062 L 230.523438 207.664062 L 225.808594 208.039062 L 226.933594 222.148438 L 222.226562 222.523438 L 217.515625 222.898438 L 217.890625 227.605469 L 213.183594 227.980469 L 213.558594 232.683594 L 208.847656 233.058594 L 209.222656 237.761719 L 204.511719 238.136719 L 204.886719 242.84375 L 200.179688 243.21875 L 195.46875 243.59375 L 195.09375 238.886719 L 190.386719 239.261719 L 190.011719 234.558594 L 185.304688 234.933594 L 184.929688 230.234375 L 180.214844 230.609375 L 179.839844 225.902344 L 175.132812 226.277344 L 170.421875 226.652344 L 161.007812 227.402344 L 156.292969 227.777344 L 156.667969 232.484375 L 157.042969 237.1875 L 157.417969 241.886719 L 162.128906 241.511719 L 162.503906 246.21875 L 162.878906 250.921875 L 167.585938 250.546875 L 167.960938 255.253906 L 168.335938 259.953125 L 173.042969 259.578125 L 173.417969 264.28125 L 178.132812 263.90625 L 178.507812 268.613281 L 183.214844 268.238281 L 183.589844 272.9375 L 188.300781 272.5625 L 188.675781 277.269531 L 193.382812 276.894531 L 193.757812 281.597656 L 198.464844 281.222656 L 203.179688 280.847656 L 207.886719 280.472656 L 207.511719 275.769531 L 212.222656 275.394531 L 211.847656 270.6875 L 216.554688 270.3125 L 216.929688 275.019531 L 217.304688 279.722656 L 217.679688 284.421875 L 212.972656 284.796875 L 213.347656 289.503906 L 208.636719 289.878906 L 209.007812 294.582031 L 204.300781 294.957031 L 204.675781 299.664062 L 199.964844 300.039062 L 199.589844 295.332031 L 194.882812 295.707031 L 194.507812 291.003906 L 189.800781 291.378906 L 189.425781 286.675781 L 184.714844 287.050781 L 184.339844 282.347656 L 179.632812 282.722656 L 179.257812 278.019531 L 174.542969 278.394531 L 174.167969 273.691406 L 169.460938 274.066406 L 169.085938 269.363281 L 164.378906 269.738281 L 164.003906 265.03125 L 159.292969 265.40625 L 158.917969 260.703125 L 154.210938 261.078125 L 153.835938 256.378906 L 149.125 256.753906 L 148.75 252.046875 L 148.375 247.34375 L 148 242.636719 L 147.625 237.9375 L 147.25 233.234375 L 146.875 228.527344 L 151.585938 228.152344 L 150.460938 214.042969 L 155.167969 213.667969 L 159.882812 213.292969 L 169.296875 212.542969 L 174.007812 212.167969 L 174.382812 216.867188 L 179.089844 216.492188 L 179.464844 221.199219 L 184.179688 220.824219 L 188.886719 220.449219 L 189.261719 225.152344 L 193.96875 224.777344 L 194.34375 229.480469 L 199.054688 229.105469 L 199.429688 233.808594 L 204.136719 233.433594 L 203.761719 228.730469 L 203.386719 224.023438 L 208.101562 223.648438 L 207.726562 218.949219 L 212.433594 218.574219 L 212.058594 213.867188 L 216.765625 213.492188 L 216.015625 204.085938 L 220.726562 203.710938 L 225.433594 203.335938 L 230.148438 202.960938 L 239.5625 202.210938 L 244.273438 201.835938 L 244.648438 206.539062 L 249.355469 206.164062 L 254.070312 205.785156 L 254.445312 210.488281 L 254.820312 215.195312 Z M 259.527344 214.820312 "/></g></g></g></g><g clip-rule="nonzero" clip-path="url(#a62d36f4b4)"><g clip-rule="nonzero" clip-path="url(#58bd9901e6)"><g clip-rule="nonzero" clip-path="url(#bb80f6e69a)"><g clip-rule="nonzero" clip-path="url(#233b4f505a)"><path style=" stroke:none;fill-rule:nonzero;fill:#e671e6;fill-opacity:1;" d="M 264.234375 214.445312 L 264.609375 219.148438 L 264.984375 223.855469 L 265.359375 228.554688 L 265.734375 233.257812 L 266.109375 237.964844 L 266.480469 242.664062 L 266.855469 247.371094 L 262.148438 247.746094 L 262.898438 257.152344 L 258.191406 257.527344 L 258.566406 262.234375 L 253.855469 262.609375 L 254.230469 267.308594 L 249.523438 267.683594 L 249.898438 272.390625 L 245.183594 272.765625 L 245.558594 277.46875 L 240.851562 277.84375 L 241.226562 282.546875 L 236.519531 282.921875 L 236.894531 287.628906 L 237.269531 292.328125 L 232.554688 292.707031 L 232.929688 297.410156 L 228.222656 297.789062 L 228.597656 302.488281 L 223.886719 302.863281 L 219.179688 303.238281 L 219.554688 307.941406 L 214.847656 308.316406 L 215.222656 313.023438 L 210.507812 313.398438 L 205.800781 313.773438 L 205.425781 309.066406 L 200.714844 309.441406 L 200.339844 304.742188 L 195.632812 305.117188 L 195.257812 300.414062 L 190.550781 300.789062 L 190.175781 296.082031 L 185.460938 296.457031 L 185.089844 291.757812 L 180.378906 292.132812 L 180.003906 287.425781 L 175.292969 287.800781 L 174.917969 283.097656 L 170.210938 283.472656 L 169.835938 278.769531 L 165.128906 279.144531 L 164.753906 274.441406 L 160.042969 274.816406 L 159.667969 270.113281 L 154.960938 270.488281 L 154.585938 265.78125 L 149.871094 266.15625 L 149.5 261.457031 L 149.125 256.753906 L 153.835938 256.378906 L 154.210938 261.078125 L 158.917969 260.703125 L 159.292969 265.40625 L 164.003906 265.03125 L 164.378906 269.738281 L 169.085938 269.363281 L 169.460938 274.066406 L 174.167969 273.691406 L 174.542969 278.394531 L 179.257812 278.019531 L 179.632812 282.722656 L 184.339844 282.347656 L 184.714844 287.050781 L 189.425781 286.675781 L 189.800781 291.378906 L 194.507812 291.003906 L 194.882812 295.707031 L 199.589844 295.332031 L 199.964844 300.039062 L 204.675781 299.664062 L 204.300781 294.957031 L 209.007812 294.582031 L 208.636719 289.878906 L 213.347656 289.503906 L 212.972656 284.796875 L 222.386719 284.046875 L 222.011719 279.34375 L 226.722656 278.96875 L 226.351562 274.269531 L 231.058594 273.894531 L 230.683594 269.1875 L 235.394531 268.8125 L 235.019531 264.109375 L 234.644531 259.402344 L 239.351562 259.027344 L 238.976562 254.324219 L 243.683594 253.949219 L 243.308594 249.25 L 248.023438 248.875 L 247.648438 244.167969 L 247.273438 239.464844 L 251.980469 239.089844 L 251.605469 234.382812 L 256.316406 234.007812 L 255.941406 229.304688 L 255.570312 224.605469 L 260.277344 224.230469 L 259.902344 219.523438 L 259.527344 214.820312 Z M 254.820312 215.195312 L 259.527344 214.820312 L 259.152344 210.113281 L 258.777344 205.410156 L 254.070312 205.785156 L 254.445312 210.488281 Z M 225.433594 203.335938 L 230.148438 202.960938 L 239.5625 202.210938 L 244.273438 201.835938 L 244.648438 206.539062 L 249.355469 206.164062 L 254.070312 205.785156 L 253.695312 201.085938 L 248.980469 201.460938 L 248.605469 196.753906 L 243.898438 197.128906 L 239.1875 197.503906 L 229.773438 198.253906 L 225.058594 198.628906 L 220.351562 199.003906 L 215.640625 199.378906 L 216.015625 204.085938 L 220.726562 203.710938 Z M 159.882812 213.292969 L 169.296875 212.542969 L 174.007812 212.167969 L 174.382812 216.867188 L 179.089844 216.492188 L 179.464844 221.199219 L 184.179688 220.824219 L 188.886719 220.449219 L 189.261719 225.152344 L 193.96875 224.777344 L 194.34375 229.480469 L 199.054688 229.105469 L 199.429688 233.808594 L 204.136719 233.433594 L 203.761719 228.730469 L 203.386719 224.023438 L 208.101562 223.648438 L 207.726562 218.949219 L 212.433594 218.574219 L 212.058594 213.867188 L 216.765625 213.492188 L 216.015625 204.085938 L 211.308594 204.460938 L 211.683594 209.164062 L 206.976562 209.539062 L 207.351562 214.242188 L 202.636719 214.617188 L 203.011719 219.324219 L 198.304688 219.699219 L 193.59375 220.074219 L 193.21875 215.367188 L 183.804688 216.117188 L 183.429688 211.414062 L 178.714844 211.792969 L 178.34375 207.089844 L 168.921875 207.839844 L 159.507812 208.589844 L 150.085938 209.339844 L 150.460938 214.042969 L 155.167969 213.667969 Z M 148.375 247.34375 L 148 242.636719 L 147.625 237.9375 L 147.25 233.234375 L 146.875 228.527344 L 151.585938 228.152344 L 150.460938 214.042969 L 145.75 214.417969 L 146.125 219.121094 L 146.5 223.828125 L 141.792969 224.203125 L 142.167969 228.902344 L 142.542969 233.609375 L 142.917969 238.3125 L 143.292969 243.011719 L 143.667969 247.71875 L 144.039062 252.421875 L 144.417969 257.128906 L 149.125 256.753906 L 148.75 252.046875 Z M 148.375 247.34375 "/></g></g></g></g></g></svg>