<svg xmlns="http://www.w3.org/2000/svg" xmlns:xlink="http://www.w3.org/1999/xlink" width="500" zoomAndPan="magnify" viewBox="0 0 375 374.999991" height="500" preserveAspectRatio="xMidYMid meet" version="1.2"><defs><clipPath id="639a6459da"><path d="M 88.359375 2.640625 L 297.328125 2.640625 L 297.328125 372.390625 L 88.359375 372.390625 Z M 88.359375 2.640625 "/></clipPath><clipPath id="e34752896a"><path d="M 176.980469 217.941406 L 211.933594 217.941406 L 211.933594 230.347656 L 176.980469 230.347656 Z M 176.980469 217.941406 "/></clipPath><clipPath id="584a70c14f"><path d="M 209.773438 230.324219 C 184.574219 229.425781 182.925781 228.148438 182.925781 227.175781 C 182.925781 226.273438 184.425781 225.300781 185.773438 224.476562 C 188.175781 222.976562 193.800781 221.324219 196.875 220.273438 C 199.125 219.601562 201.300781 218.699219 202.648438 218.699219 C 203.398438 218.699219 204 218.773438 204.449219 219.148438 C 204.824219 219.449219 205.125 220.273438 205.125 220.800781 C 205.050781 221.324219 204.75 221.925781 204.074219 222.300781 C 202.726562 223.125 199.050781 222.898438 196.050781 223.125 C 192.226562 223.351562 185.175781 224.550781 183.074219 223.5 C 182.175781 223.050781 181.648438 222.148438 181.574219 221.550781 C 181.574219 221.023438 182.023438 220.5 182.550781 220.050781 C 183.375 219.449219 185.023438 219.226562 186.75 219 C 189.375 218.550781 195.148438 217.425781 196.949219 218.25 C 197.925781 218.699219 198.601562 219.675781 198.523438 220.273438 C 198.523438 220.949219 197.773438 221.625 196.726562 222.074219 C 193.949219 223.351562 181.351562 224.175781 178.726562 223.574219 C 177.898438 223.425781 177.449219 223.125 177.226562 222.675781 C 176.925781 222.226562 176.925781 221.398438 177.148438 220.949219 C 177.375 220.5 177.976562 219.976562 178.5 219.898438 C 179.101562 219.898438 180.226562 220.425781 180.523438 220.949219 C 180.75 221.398438 180.675781 222.300781 180.375 222.675781 C 180.148438 223.125 179.398438 223.574219 178.875 223.574219 C 178.273438 223.574219 177.148438 222.898438 177.074219 222.300781 C 176.925781 221.699219 177.375 220.574219 178.351562 219.976562 C 180.523438 218.476562 189.976562 218.25 193.5 218.175781 C 195.375 218.175781 197.023438 218.101562 197.851562 218.625 C 198.300781 219 198.601562 219.75 198.523438 220.273438 C 198.523438 220.800781 198.300781 221.398438 197.625 221.773438 C 195.675781 223.050781 185.324219 224.476562 183.074219 223.5 C 182.101562 223.125 181.574219 222.148438 181.574219 221.550781 C 181.648438 220.949219 182.324219 220.273438 183.375 219.824219 C 186.375 218.550781 200.101562 217.800781 203.101562 218.625 C 204.148438 218.925781 204.75 219.375 204.976562 219.898438 C 205.199219 220.425781 205.273438 221.101562 204.75 221.699219 C 203.175781 223.800781 187.875 229.800781 186.375 228.75 C 185.851562 228.375 185.851562 226.949219 186.449219 226.351562 C 188.398438 224.476562 206.773438 225.675781 209.773438 226.199219 C 210.523438 226.351562 210.824219 226.351562 211.125 226.726562 C 211.574219 227.101562 211.949219 227.925781 211.875 228.523438 C 211.648438 229.199219 209.773438 230.324219 209.773438 230.324219 "/></clipPath><clipPath id="416d969a27"><path d="M 137.59375 179.417969 L 278.640625 179.417969 L 278.640625 316.5625 L 137.59375 316.5625 Z M 137.59375 179.417969 "/></clipPath><clipPath id="4b68cafb62"><path d="M 137.863281 279.558594 C 141.152344 249.96875 149.710938 245.144531 149.863281 241.980469 C 149.941406 240.316406 147.878906 240 147.496094 238.179688 C 146.730469 234.382812 147.722656 225.046875 150.324219 219.667969 C 153 214.050781 162.859375 207.800781 163.773438 205.351562 C 164.082031 204.71875 163.773438 204.402344 163.773438 203.847656 C 163.773438 203.292969 163.773438 202.183594 163.773438 202.183594 C 163.773438 202.105469 164.003906 201 164.15625 200.445312 C 164.308594 199.890625 164.539062 198.785156 164.539062 198.785156 C 164.539062 198.785156 165.074219 197.753906 165.304688 197.203125 C 165.609375 196.726562 166.066406 195.699219 166.066406 195.699219 C 166.144531 195.699219 166.832031 194.828125 167.214844 194.351562 C 167.597656 193.957031 168.285156 193.085938 168.285156 193.085938 C 168.359375 193.007812 169.203125 192.375 169.660156 192.058594 C 170.117188 191.742188 171.035156 191.109375 171.035156 191.109375 C 171.113281 191.03125 181.046875 187.074219 183.648438 185.414062 C 184.945312 184.621094 186.398438 183.121094 186.398438 183.121094 C 186.398438 183.121094 187.316406 182.488281 187.851562 182.171875 C 188.308594 181.855469 189.226562 181.300781 189.304688 181.300781 C 189.304688 181.222656 190.375 180.90625 190.910156 180.746094 C 191.445312 180.507812 192.511719 180.191406 192.511719 180.191406 C 192.511719 180.191406 193.660156 180.113281 194.195312 180.035156 C 194.730469 180.035156 195.875 179.953125 195.875 179.953125 C 195.875 179.953125 197.023438 180.113281 197.558594 180.191406 C 198.09375 180.351562 199.238281 180.507812 199.238281 180.507812 C 199.238281 180.507812 200.308594 180.984375 200.769531 181.222656 C 201.304688 181.457031 201.683594 181.933594 202.21875 181.855469 C 203.0625 181.773438 204.054688 179.953125 205.277344 179.796875 C 206.730469 179.636719 208.257812 181.300781 210.320312 181.773438 C 213.378906 182.488281 219.265625 181.0625 222.246094 182.722656 C 224.84375 184.148438 225.53125 188.972656 227.671875 190.082031 C 229.429688 190.953125 230.957031 189.605469 233.480469 189.921875 C 238.527344 190.554688 250.527344 192.691406 255.648438 196.332031 C 259.46875 198.941406 262.144531 203.054688 263.367188 206.695312 C 264.4375 209.9375 262.679688 214.367188 263.441406 216.742188 C 263.902344 218.324219 265.660156 219.273438 265.8125 220.300781 C 265.964844 220.933594 265.199219 221.25 265.199219 222.121094 C 265.277344 224.652344 270.550781 232.800781 270.855469 236.519531 C 271.007812 238.894531 269.097656 240.078125 269.480469 242.375 C 270.09375 246.328125 277.351562 251.710938 278.269531 257.167969 C 279.265625 263.101562 276.28125 271.804688 274.296875 276.707031 C 272.921875 280.109375 270.398438 281.851562 269.25 284.621094 C 268.105469 287.390625 269.023438 290.472656 267.492188 293.242188 C 265.351562 297.121094 260.003906 301.074219 255.339844 304.398438 C 250.296875 308.035156 243.648438 313.019531 238.066406 313.890625 C 233.25 314.601562 228.742188 310.570312 224.003906 310.804688 C 218.960938 311.121094 211.46875 316.34375 208.488281 316.183594 C 207.1875 316.105469 207.113281 315.078125 205.890625 314.839844 C 203.136719 314.285156 196.640625 316.898438 192.207031 315.550781 C 187.011719 313.96875 181.125 306.296875 177.226562 304.476562 C 175.011719 303.449219 173.710938 303.6875 171.570312 303.210938 C 168.820312 302.578125 165.457031 302.339844 162.015625 301.074219 C 157.660156 299.492188 151.621094 297.039062 147.570312 293.480469 C 143.519531 289.839844 137.863281 279.558594 137.863281 279.558594 M 203.75 275.207031 C 204.359375 277.023438 205.582031 277.339844 205.660156 277.261719 C 205.738281 277.183594 205.582031 277.023438 205.507812 276.867188 C 205.277344 276.472656 203.75 275.207031 203.75 275.207031 "/></clipPath><clipPath id="5a2f445c93"><path d="M 133.558594 284.15625 L 170.691406 284.15625 L 170.691406 316.367188 L 133.558594 316.367188 Z M 133.558594 284.15625 "/></clipPath><clipPath id="fdcafa541e"><path d="M 155.101562 287.851562 C 159.449219 291.675781 157.800781 289.199219 158.101562 288.75 C 158.476562 288.375 160.050781 288.898438 161.175781 289.273438 C 162.75 289.875 165.226562 291.300781 166.5 292.351562 C 167.398438 293.101562 167.925781 293.699219 168.449219 294.75 C 169.273438 296.25 170.25 298.648438 170.398438 300.601562 C 170.550781 302.550781 170.023438 305.101562 169.425781 306.675781 C 169.050781 307.800781 168.675781 308.476562 167.851562 309.375 C 166.800781 310.648438 164.925781 312.375 163.125 313.273438 C 161.324219 314.101562 159.148438 315.300781 157.125 314.476562 C 153.375 312.898438 145.726562 300.75 145.574219 297.074219 C 145.574219 295.425781 146.773438 294.523438 147.675781 293.476562 C 148.5 292.425781 149.625 291.449219 150.824219 290.699219 C 151.949219 290.023438 153.300781 289.425781 154.648438 289.125 C 155.925781 288.824219 157.425781 288.675781 158.773438 288.824219 C 160.125 288.976562 161.550781 289.351562 162.824219 289.875 C 164.023438 290.398438 165.300781 291.226562 166.273438 292.125 C 167.324219 293.101562 168.226562 294.226562 168.824219 295.425781 C 169.5 296.625 170.023438 297.976562 170.25 299.324219 C 170.476562 300.675781 170.550781 302.101562 170.324219 303.523438 C 170.101562 304.875 169.726562 306.226562 169.050781 307.425781 C 168.449219 308.699219 167.550781 309.824219 166.574219 310.800781 C 165.601562 311.773438 164.476562 312.601562 163.199219 313.199219 C 162 313.800781 160.574219 314.175781 159.226562 314.398438 C 157.875 314.550781 156.375 314.476562 155.023438 314.25 C 153.75 313.949219 152.324219 313.425781 151.199219 312.75 C 150 312.074219 148.875 311.175781 147.976562 310.125 C 147.074219 309.074219 146.25 307.875 145.726562 306.601562 C 145.199219 305.324219 144.898438 303.898438 144.75 302.550781 C 144.675781 301.199219 144.824219 299.699219 145.199219 298.425781 C 145.5 297.074219 146.101562 295.726562 146.851562 294.601562 C 147.601562 293.476562 148.574219 292.351562 149.625 291.523438 C 150.75 290.699219 152.023438 289.949219 153.300781 289.5 C 154.574219 289.050781 156 288.824219 157.425781 288.75 C 158.773438 288.75 160.199219 288.976562 161.476562 289.351562 C 162.824219 289.800781 164.101562 290.476562 165.226562 291.300781 C 166.351562 292.050781 167.324219 293.101562 168.148438 294.226562 C 168.898438 295.351562 169.574219 296.699219 169.949219 297.976562 C 170.324219 299.324219 171 301.875 170.476562 302.101562 C 169.351562 302.625 157.5 289.800781 158.101562 288.75 C 158.476562 288.226562 162.300781 289.5 164.023438 290.476562 C 165.75 291.523438 167.398438 293.101562 168.449219 294.75 C 169.5 296.476562 170.25 298.574219 170.398438 300.601562 C 170.550781 302.550781 170.023438 305.101562 169.425781 306.675781 C 169.050781 307.800781 168.675781 308.476562 167.851562 309.375 C 166.800781 310.648438 164.925781 312.375 163.125 313.273438 C 161.324219 314.101562 158.773438 313.875 157.125 314.476562 C 155.773438 315 155.324219 316.351562 153.898438 316.351562 C 151.050781 316.425781 144.601562 312.300781 141.300781 309.75 C 138.824219 307.800781 136.648438 305.023438 135.449219 303.226562 C 134.773438 302.175781 134.476562 301.574219 134.25 300.449219 C 133.800781 298.875 133.5 296.398438 133.875 294.449219 C 134.175781 292.574219 135.148438 290.550781 136.351562 288.976562 C 137.550781 287.476562 139.273438 286.125 141.074219 285.300781 C 142.800781 284.476562 145.351562 284.175781 146.925781 284.175781 C 148.125 284.175781 148.875 284.324219 149.925781 284.773438 C 151.425781 285.300781 155.101562 287.851562 155.101562 287.851562 "/></clipPath><clipPath id="1935c20887"><path d="M 126.539062 181.0625 L 136.214844 181.0625 L 136.214844 207.699219 L 126.539062 207.699219 Z M 126.539062 181.0625 "/></clipPath><clipPath id="4465f121f6"><path d="M 136.199219 186.226562 C 135.300781 197.101562 136.199219 201 135.976562 203.101562 C 135.824219 204.300781 135.675781 205.050781 135.148438 205.800781 C 134.625 206.550781 133.726562 207.226562 132.898438 207.523438 C 132 207.75 130.875 207.75 130.050781 207.449219 C 129.148438 207.148438 128.25 206.476562 127.800781 205.726562 C 127.273438 204.976562 126.976562 203.851562 127.050781 202.949219 C 127.125 202.050781 127.574219 201 128.175781 200.324219 C 128.773438 199.648438 129.675781 198.976562 130.648438 198.898438 C 131.773438 198.75 133.726562 199.199219 134.625 200.101562 C 135.523438 200.925781 136.050781 202.875 135.898438 204.074219 C 135.824219 204.976562 135.226562 205.949219 134.550781 206.550781 C 133.875 207.148438 132.824219 207.601562 131.925781 207.675781 C 131.023438 207.75 129.898438 207.523438 129.148438 207.074219 C 128.398438 206.550781 127.800781 205.875 127.351562 204.824219 C 126.675781 203.101562 126.601562 199.949219 126.601562 197.25 C 126.523438 194.101562 126.75 189.898438 127.273438 187.199219 C 127.648438 185.324219 127.949219 183.601562 128.851562 182.550781 C 129.449219 181.800781 130.5 181.199219 131.476562 181.125 C 132.601562 181.050781 134.398438 181.574219 135.148438 182.398438 C 135.976562 183.300781 136.199219 186.226562 136.199219 186.226562 "/></clipPath><clipPath id="d82332403f"><path d="M 125.273438 203.339844 L 135.8125 203.339844 L 135.8125 231.886719 L 125.273438 231.886719 Z M 125.273438 203.339844 "/></clipPath><clipPath id="5fc02de8fe"><path d="M 135.75 207.976562 C 134.25 228.75 134.175781 229.273438 133.574219 229.949219 C 132.976562 230.699219 131.851562 231.523438 130.875 231.675781 C 129.976562 231.898438 128.625 231.675781 127.800781 231.226562 C 126.898438 230.699219 126.148438 229.726562 125.773438 228.75 C 125.324219 227.699219 125.175781 226.273438 125.398438 225.074219 C 125.699219 223.800781 126.449219 222.074219 127.351562 221.324219 C 128.023438 220.726562 129.148438 220.5 130.050781 220.5 C 130.949219 220.574219 132.074219 220.875 132.75 221.550781 C 133.574219 222.375 134.476562 224.175781 134.324219 225.449219 C 134.25 226.648438 133.125 228.300781 132.074219 228.898438 C 130.949219 229.5 128.925781 229.574219 127.875 228.976562 C 126.75 228.449219 125.699219 226.726562 125.476562 225.523438 C 125.25 224.625 125.550781 223.5 126 222.75 C 126.449219 222 127.273438 221.175781 128.175781 220.875 C 129.300781 220.5 131.324219 220.574219 132.375 221.25 C 133.351562 221.925781 134.101562 223.574219 134.324219 224.925781 C 134.625 226.425781 134.398438 228.824219 133.574219 229.949219 C 132.824219 231 131.101562 231.824219 129.824219 231.824219 C 128.625 231.75 126.898438 230.550781 126.226562 229.726562 C 125.699219 229.125 125.699219 228.675781 125.550781 227.699219 C 125.25 225.449219 125.925781 219.976562 126.226562 216.375 C 126.523438 213.226562 126.675781 209.398438 127.273438 207.226562 C 127.648438 206.023438 127.875 205.199219 128.625 204.523438 C 129.300781 203.925781 130.5 203.476562 131.324219 203.398438 C 132.074219 203.324219 132.75 203.476562 133.351562 203.773438 C 133.949219 204.074219 134.550781 204.449219 134.925781 205.050781 C 135.375 205.800781 135.75 207.976562 135.75 207.976562 "/></clipPath><clipPath id="49a241c8be"><path d="M 128.867188 179.761719 L 151.132812 179.761719 L 151.132812 191.453125 L 128.867188 191.453125 Z M 128.867188 179.761719 "/></clipPath><clipPath id="9a7d0c3bfe"><path d="M 131.773438 181.273438 C 141.601562 179.324219 143.25 179.625 144.898438 180.300781 C 146.625 180.976562 148.574219 182.476562 149.625 183.601562 C 150.375 184.351562 150.898438 185.023438 151.050781 186 C 151.199219 187.125 150.824219 189.148438 149.925781 189.976562 C 149.101562 190.875 147.226562 191.550781 146.023438 191.324219 C 144.824219 191.101562 143.25 189.898438 142.726562 188.851562 C 142.199219 187.726562 142.273438 185.699219 142.949219 184.648438 C 143.550781 183.601562 145.273438 182.625 146.476562 182.550781 C 147.75 182.476562 149.550781 183.300781 150.300781 184.273438 C 150.976562 185.25 151.351562 187.199219 150.976562 188.398438 C 150.523438 189.523438 149.023438 190.800781 147.898438 191.25 C 147 191.550781 146.023438 191.398438 145.125 191.101562 C 144.074219 190.648438 143.324219 189.074219 142.199219 188.625 C 140.851562 188.101562 138.824219 188.25 137.324219 188.398438 C 135.976562 188.625 134.699219 189.523438 133.5 189.523438 C 132.449219 189.601562 131.324219 189.375 130.574219 188.699219 C 129.75 188.023438 128.925781 186.300781 128.925781 185.175781 C 128.851562 184.199219 129.523438 183.074219 130.125 182.398438 C 130.574219 181.875 131.773438 181.273438 131.773438 181.273438 "/></clipPath><clipPath id="503fe70eaa"><path d="M 133.9375 187.652344 L 162.839844 187.652344 L 162.839844 221 L 133.9375 221 Z M 133.9375 187.652344 "/></clipPath><clipPath id="97ffe1de96"><path d="M 153.601562 192.75 C 152.324219 197.101562 151.351562 198.898438 149.773438 200.324219 C 147.675781 202.199219 142.949219 204.523438 140.550781 205.125 C 139.050781 205.5 137.851562 205.648438 136.800781 205.199219 C 135.675781 204.675781 134.398438 203.175781 134.101562 202.050781 C 133.800781 201.074219 134.023438 199.800781 134.476562 198.898438 C 134.925781 198 135.898438 197.175781 136.875 196.800781 C 138.074219 196.425781 139.5 196.648438 141.226562 197.101562 C 144.148438 197.773438 149.625 199.949219 152.398438 201.675781 C 154.199219 202.875 155.175781 203.851562 156.523438 205.5 C 158.476562 207.75 161.625 211.726562 162.300781 214.273438 C 162.75 215.851562 162.675781 217.5 162.148438 218.625 C 161.773438 219.523438 160.875 220.273438 159.976562 220.574219 C 158.851562 220.949219 156.675781 220.800781 155.625 220.199219 C 154.800781 219.75 154.125 218.773438 153.824219 217.875 C 153.449219 216.976562 153.375 215.851562 153.75 214.949219 C 154.199219 213.824219 155.625 212.25 156.824219 211.875 C 158.023438 211.5 160.050781 212.023438 161.101562 212.699219 C 161.925781 213.300781 162.449219 214.273438 162.675781 215.175781 C 162.898438 216.148438 162.75 217.273438 162.375 218.175781 C 162 219 161.324219 219.898438 160.425781 220.351562 C 159.300781 220.875 157.5 221.175781 156.074219 220.425781 C 153.675781 219.300781 150.824219 212.851562 148.800781 210.75 C 147.523438 209.476562 146.699219 208.949219 145.425781 208.050781 C 143.925781 207.074219 141.601562 205.648438 140.023438 205.199219 C 138.824219 204.898438 137.699219 205.5 136.800781 205.199219 C 136.125 204.976562 135.523438 204.601562 135.074219 204 C 134.476562 203.101562 133.875 201.074219 134.101562 199.949219 C 134.324219 198.898438 134.925781 198.148438 135.898438 197.324219 C 137.699219 195.898438 143.25 195.375 144.675781 193.648438 C 145.648438 192.601562 145.050781 190.949219 145.648438 189.976562 C 146.175781 189.074219 146.925781 188.25 147.898438 187.949219 C 148.949219 187.574219 150.824219 187.726562 151.800781 188.324219 C 152.625 188.773438 153.300781 189.898438 153.523438 190.726562 C 153.75 191.398438 153.601562 192.75 153.601562 192.75 "/></clipPath><clipPath id="c9ef6d157a"><path d="M 126.769531 213.695312 L 162.929688 213.695312 L 162.929688 235.070312 L 126.769531 235.070312 Z M 126.769531 213.695312 "/></clipPath><clipPath id="0384e2b8ff"><path d="M 162.898438 218.398438 C 160.648438 226.574219 159.523438 227.550781 158.324219 228.300781 C 157.125 229.050781 155.699219 229.425781 154.199219 229.726562 C 152.625 230.023438 151.199219 229.648438 149.175781 230.023438 C 145.949219 230.550781 140.550781 233.023438 137.101562 233.851562 C 134.550781 234.449219 131.925781 235.273438 130.351562 234.898438 C 129.226562 234.675781 128.398438 234 127.875 233.25 C 127.273438 232.5 126.898438 231.375 126.898438 230.476562 C 126.898438 229.5 127.273438 228.375 127.800781 227.625 C 128.324219 226.875 129.300781 226.125 130.273438 225.976562 C 131.398438 225.75 133.5 226.050781 134.476562 226.875 C 135.449219 227.699219 136.199219 229.726562 136.125 230.925781 C 136.125 231.898438 135.675781 232.949219 134.925781 233.625 C 134.023438 234.449219 132.074219 235.199219 130.800781 235.050781 C 129.523438 234.824219 127.949219 233.476562 127.351562 232.425781 C 126.824219 231.523438 126.675781 230.398438 126.976562 229.5 C 127.351562 228.300781 128.476562 226.875 129.75 226.125 C 131.324219 225.226562 133.949219 225.75 136.199219 225.074219 C 138.898438 224.324219 141.976562 222.300781 144.976562 221.476562 C 147.898438 220.648438 152.625 221.699219 154.125 220.273438 C 155.25 219.226562 154.425781 216.675781 155.175781 215.550781 C 155.773438 214.726562 156.675781 214.050781 157.648438 213.824219 C 158.699219 213.601562 160.574219 213.976562 161.476562 214.726562 C 162.375 215.476562 162.898438 218.398438 162.898438 218.398438 "/></clipPath><clipPath id="439e28a49b"><path d="M 168.507812 193.46875 L 197.222656 193.46875 L 197.222656 230.5 L 168.507812 230.5 Z M 168.507812 193.46875 "/></clipPath><clipPath id="ad814abcf2"><path d="M 179.101562 205.574219 C 177.300781 214.875 177.601562 216.300781 178.425781 217.5 C 179.398438 218.851562 181.875 221.175781 183.226562 220.800781 C 184.949219 220.351562 186.523438 214.574219 187.199219 212.023438 C 187.726562 210.300781 188.175781 208.726562 187.726562 207.449219 C 187.199219 206.101562 186 204.898438 184.425781 204 C 181.800781 202.726562 174.675781 203.476562 172.648438 202.199219 C 171.601562 201.523438 171.148438 200.550781 170.925781 199.648438 C 170.625 198.675781 170.625 197.476562 171.074219 196.574219 C 171.675781 195.449219 173.324219 194.023438 174.523438 193.648438 C 175.5 193.351562 176.699219 193.574219 177.601562 194.023438 C 178.425781 194.398438 179.324219 195.300781 179.773438 196.125 C 180.226562 196.949219 180.449219 198.226562 180.300781 199.125 C 180.148438 200.101562 179.625 201.226562 178.800781 201.824219 C 177.898438 202.648438 175.726562 203.25 174.523438 203.023438 C 173.476562 202.949219 172.5 202.199219 171.898438 201.449219 C 171.226562 200.699219 170.773438 199.574219 170.773438 198.601562 C 170.699219 197.625 171 196.5 171.601562 195.675781 C 172.125 194.851562 172.875 194.175781 174 193.800781 C 175.875 193.273438 179.699219 193.875 182.25 194.324219 C 184.425781 194.773438 186.601562 195.300781 188.398438 196.125 C 189.898438 196.875 191.324219 197.773438 192.449219 198.824219 C 193.648438 199.875 194.625 201.074219 195.375 202.5 C 196.199219 203.851562 196.800781 205.574219 197.101562 207.226562 C 197.324219 208.726562 197.175781 210.226562 196.875 211.800781 C 196.574219 213.601562 196.050781 215.324219 195.226562 217.351562 C 194.175781 220.273438 192.375 225.148438 190.574219 227.324219 C 189.375 228.75 188.25 229.726562 186.75 230.175781 C 185.175781 230.625 183.148438 230.324219 181.273438 229.726562 C 178.800781 229.050781 175.425781 227.25 173.550781 225.601562 C 172.125 224.398438 171.226562 223.050781 170.476562 221.625 C 169.726562 220.199219 169.125 218.699219 168.824219 216.976562 C 168.523438 215.023438 168.523438 212.699219 168.824219 210.449219 C 169.125 208.050781 170.023438 204.824219 170.925781 203.101562 C 171.449219 202.050781 171.976562 201.226562 172.726562 200.699219 C 173.550781 200.25 174.824219 200.023438 175.726562 200.175781 C 176.398438 200.25 177.074219 200.550781 177.601562 201 C 178.125 201.375 178.574219 201.898438 178.875 202.574219 C 179.175781 203.398438 179.101562 205.574219 179.101562 205.574219 "/></clipPath><clipPath id="85f3b2df7f"><path d="M 202.269531 190 L 245.910156 190 L 245.910156 230.152344 L 202.269531 230.152344 Z M 202.269531 190 "/></clipPath><clipPath id="275a6e5e4c"><path d="M 211.800781 195.898438 C 212.398438 217.5 212.324219 220.351562 211.5 222.300781 C 210.824219 223.726562 209.925781 225 208.726562 225.449219 C 207.601562 225.898438 205.648438 225.601562 204.601562 225 C 203.699219 224.476562 203.175781 223.648438 202.800781 222.449219 C 202.125 220.425781 202.351562 217.050781 202.574219 213.824219 C 202.800781 209.476562 203.101562 201.898438 204.675781 198.824219 C 205.5 197.023438 206.699219 195.824219 208.125 195.226562 C 209.476562 194.699219 211.425781 194.851562 212.925781 195.300781 C 214.425781 195.75 215.773438 196.5 217.125 197.773438 C 218.925781 199.648438 222.824219 204.449219 222.148438 206.175781 C 221.550781 207.601562 216.226562 208.949219 215.550781 208.050781 C 214.351562 206.625 221.101562 194.773438 223.726562 192.074219 C 225 190.800781 226.273438 190.125 227.476562 190.050781 C 228.523438 189.898438 229.875 190.574219 230.625 191.101562 C 231.226562 191.550781 231.675781 192.148438 231.898438 192.898438 C 232.199219 193.800781 231.601562 194.625 231.976562 196.199219 C 232.949219 200.550781 240.375 215.550781 242.925781 220.199219 C 244.050781 222.226562 245.324219 223.050781 245.625 224.398438 C 245.851562 225.523438 245.699219 226.648438 245.25 227.550781 C 244.875 228.449219 243.898438 229.351562 242.925781 229.726562 C 242.023438 230.023438 240.675781 230.101562 239.773438 229.726562 C 238.875 229.425781 237.824219 228.601562 237.375 227.699219 C 236.925781 226.648438 236.699219 224.773438 237.226562 223.726562 C 237.75 222.601562 239.398438 221.398438 240.523438 221.175781 C 241.5 220.875 242.550781 221.101562 243.375 221.625 C 244.351562 222.226562 245.625 223.800781 245.699219 225 C 245.851562 226.273438 245.175781 228.148438 244.199219 228.898438 C 243.300781 229.726562 241.351562 230.175781 240.148438 229.875 C 238.949219 229.5 237.449219 228.148438 237.074219 227.023438 C 236.699219 225.824219 237.148438 223.875 237.75 222.898438 C 238.273438 222.074219 239.25 221.476562 240.074219 221.25 C 240.976562 221.023438 242.101562 221.023438 242.925781 221.398438 C 243.75 221.699219 244.648438 222.449219 245.101562 223.199219 C 245.550781 224.023438 245.699219 225.976562 245.773438 225.976562 C 245.773438 225.976562 245.324219 223.425781 245.25 223.425781 C 245.101562 223.425781 245.773438 226.5 245.25 227.550781 C 244.875 228.523438 243.75 229.273438 242.925781 229.726562 C 242.25 230.023438 241.574219 230.101562 240.824219 229.949219 C 239.925781 229.800781 238.875 229.351562 237.976562 228.523438 C 236.851562 227.476562 236.023438 226.125 234.75 223.800781 C 231.976562 218.625 224.625 203.25 223.574219 197.699219 C 223.050781 195.226562 222.976562 193.425781 223.726562 192.074219 C 224.398438 190.949219 226.199219 190.050781 227.476562 190.050781 C 228.75 189.976562 230.550781 191.023438 231.375 191.925781 C 232.050781 192.75 232.351562 193.648438 232.199219 195.074219 C 231.898438 198.300781 226.800781 207 224.851562 210.375 C 223.726562 212.175781 223.425781 213.976562 222 214.351562 C 220.125 214.949219 215.324219 212.550781 213.75 210.976562 C 212.625 209.925781 212.851562 208.351562 212.101562 207.148438 C 211.351562 205.949219 209.101562 204.75 209.25 203.851562 C 209.398438 202.875 212.550781 201 213.226562 201.449219 C 214.199219 202.125 211.875 208.050781 211.574219 211.5 C 211.273438 215.023438 212.398438 219.898438 211.5 222.300781 C 210.898438 223.800781 209.925781 225 208.726562 225.449219 C 207.601562 225.898438 205.648438 225.675781 204.601562 225 C 203.625 224.324219 202.800781 222.675781 202.648438 221.324219 C 202.425781 219.898438 203.550781 218.699219 203.773438 216.523438 C 204.226562 212.023438 202.5 199.050781 203.476562 195.449219 C 203.773438 194.101562 204.226562 193.425781 204.976562 192.898438 C 205.726562 192.300781 206.925781 191.925781 207.824219 192 C 208.800781 192 209.925781 192.523438 210.601562 193.199219 C 211.273438 193.875 211.800781 195.898438 211.800781 195.898438 "/></clipPath><clipPath id="0d83ca7355"><path d="M 241.339844 168 L 279.386719 168 L 279.386719 231.914062 L 241.339844 231.914062 Z M 241.339844 168 "/></clipPath><clipPath id="86166dfb13"><path d="M 249.75 171.226562 C 257.699219 198.824219 259.726562 215.324219 259.5 219.523438 C 259.425781 220.648438 259.351562 221.023438 258.976562 221.625 C 258.523438 222.449219 257.476562 223.5 256.574219 223.875 C 255.601562 224.175781 254.25 224.25 253.273438 223.875 C 252.300781 223.5 251.398438 222.898438 250.800781 221.699219 C 249.601562 219.375 249.675781 212.398438 249.75 209.324219 C 249.75 207.375 249.898438 206.25 250.351562 204.75 C 250.726562 203.175781 251.175781 201.300781 252.300781 200.023438 C 253.425781 198.675781 255.675781 197.625 257.324219 197.023438 C 258.824219 196.5 260.175781 196.273438 261.675781 196.351562 C 263.398438 196.351562 265.351562 196.800781 266.925781 197.476562 C 268.425781 198.074219 269.550781 198.75 270.824219 200.023438 C 272.625 201.898438 274.5 205.425781 275.925781 208.351562 C 277.273438 211.273438 278.925781 214.726562 279.226562 217.5 C 279.523438 219.601562 279.226562 221.398438 278.625 223.199219 C 278.023438 225 276.898438 226.875 275.625 228.226562 C 274.574219 229.425781 273.449219 230.398438 271.726562 231 C 269.398438 231.824219 265.5 232.199219 262.425781 231.449219 C 259.050781 230.699219 253.875 228.226562 252.449219 226.050781 C 251.550781 224.699219 251.476562 222.75 252 221.476562 C 252.523438 220.273438 254.25 218.851562 255.523438 218.550781 C 256.875 218.324219 258.976562 219.074219 259.949219 219.824219 C 260.773438 220.5 261.226562 221.699219 261.375 222.675781 C 261.523438 223.648438 261.375 224.851562 260.851562 225.75 C 260.101562 226.800781 258.300781 228.148438 256.949219 228.226562 C 255.601562 228.375 253.574219 227.550781 252.75 226.5 C 251.851562 225.449219 251.476562 223.273438 251.851562 222 C 252.226562 220.726562 253.875 219.226562 255 218.699219 C 255.976562 218.324219 256.875 218.476562 258.148438 218.773438 C 260.175781 219.148438 263.773438 221.925781 265.949219 221.773438 C 267.601562 221.625 269.550781 220.875 270.074219 219.523438 C 270.898438 217.125 266.851562 208.648438 264.523438 206.625 C 263.175781 205.425781 260.925781 204.675781 259.875 205.425781 C 257.925781 206.851562 260.023438 219.074219 258.976562 221.625 C 258.601562 222.601562 258.226562 222.898438 257.550781 223.351562 C 256.726562 223.800781 255.375 224.324219 254.324219 224.101562 C 253.199219 223.875 251.773438 223.273438 250.800781 221.699219 C 248.324219 217.574219 249.523438 202.199219 247.726562 193.574219 C 246.226562 185.925781 241.273438 176.101562 241.425781 172.273438 C 241.5 170.925781 241.875 170.175781 242.476562 169.5 C 243.074219 168.75 244.199219 168.226562 245.101562 168.074219 C 246.074219 167.925781 247.273438 168.226562 248.023438 168.824219 C 248.851562 169.351562 249.75 171.226562 249.75 171.226562 "/></clipPath><clipPath id="69c925fcea"><path d="M 196.34375 244.707031 L 214.507812 244.707031 L 214.507812 324.992188 L 196.34375 324.992188 Z M 196.34375 244.707031 "/></clipPath><clipPath id="c441b4e022"><path d="M 204.675781 248.925781 C 207.148438 271.425781 209.023438 274.648438 210.074219 278.851562 C 211.273438 283.351562 212.324219 287.550781 213 293.101562 C 213.898438 300.75 215.101562 315.824219 214.050781 320.625 C 213.675781 322.425781 213.074219 323.476562 212.25 324.148438 C 211.5 324.75 210.449219 324.976562 209.625 324.898438 C 208.726562 324.898438 207.75 324.523438 207.074219 323.925781 C 206.398438 323.398438 205.800781 322.5 205.574219 321.601562 C 205.425781 320.773438 205.425781 319.726562 205.875 318.898438 C 206.398438 317.925781 207.898438 316.648438 209.023438 316.425781 C 210.226562 316.199219 212.023438 316.949219 212.851562 317.625 C 213.523438 318.300781 213.898438 319.273438 214.050781 320.101562 C 214.125 321 213.976562 322.050781 213.449219 322.800781 C 212.851562 323.699219 211.199219 324.75 210.074219 324.898438 C 209.175781 325.050781 208.125 324.675781 207.449219 324.226562 C 206.699219 323.773438 206.175781 323.324219 205.726562 322.050781 C 204.300781 318.148438 205.574219 301.949219 204.675781 294.449219 C 204.074219 289.199219 203.324219 285.523438 202.199219 281.175781 C 201.074219 276.898438 198.976562 272.476562 198.074219 268.648438 C 197.324219 265.648438 197.023438 263.476562 196.800781 260.324219 C 196.574219 256.425781 196.050781 249.148438 196.875 246.976562 C 197.175781 246.148438 197.625 245.851562 198.226562 245.476562 C 198.898438 245.101562 200.101562 244.726562 201.074219 244.800781 C 201.976562 244.949219 203.023438 245.476562 203.625 246.148438 C 204.226562 246.824219 204.675781 248.925781 204.675781 248.925781 "/></clipPath><clipPath id="15d885de83"><path d="M 184.867188 298 L 240.902344 298 L 240.902344 327 L 184.867188 327 Z M 184.867188 298 "/></clipPath><clipPath id="dc579f1d8e"><path d="M 192.375 299.476562 C 202.273438 309.824219 204.601562 311.625 207.375 313.199219 C 210.375 314.925781 214.5 317.023438 217.125 317.625 C 218.851562 318 220.199219 318.300781 221.398438 317.773438 C 222.675781 317.175781 223.273438 315.898438 224.476562 314.25 C 226.648438 311.101562 230.25 302.023438 232.949219 299.699219 C 234.375 298.574219 235.726562 298.050781 237 298.199219 C 238.199219 298.351562 239.925781 299.550781 240.449219 300.675781 C 241.050781 301.726562 241.050781 303.824219 240.449219 304.875 C 239.773438 306 238.125 307.125 236.851562 307.273438 C 235.574219 307.351562 233.699219 306.601562 232.875 305.625 C 232.125 304.648438 231.675781 302.625 232.050781 301.425781 C 232.425781 300.226562 233.925781 298.800781 235.050781 298.351562 C 235.949219 297.976562 237.074219 298.125 237.898438 298.425781 C 238.800781 298.726562 239.773438 299.324219 240.226562 300.226562 C 240.824219 301.273438 241.050781 302.699219 240.601562 304.5 C 239.851562 308.023438 234.449219 315.898438 231.824219 319.574219 C 230.175781 321.824219 229.125 323.476562 227.324219 324.75 C 225.601562 325.875 223.273438 326.550781 221.398438 326.851562 C 219.824219 327.074219 218.25 326.925781 216.75 326.625 C 215.175781 326.398438 213.898438 325.949219 212.175781 325.273438 C 209.699219 324.300781 206.101562 322.574219 203.175781 320.773438 C 200.023438 318.824219 196.726562 316.125 194.175781 313.800781 C 192 311.925781 190.273438 310.125 188.699219 308.25 C 187.273438 306.523438 185.398438 304.574219 185.023438 303 C 184.726562 301.949219 185.023438 300.898438 185.476562 300.074219 C 185.925781 299.25 186.898438 298.5 187.800781 298.199219 C 188.699219 297.898438 189.976562 297.976562 190.800781 298.273438 C 191.476562 298.5 192.375 299.476562 192.375 299.476562 "/></clipPath></defs><g id="50c0738968"><path style=" stroke:none;fill-rule:evenodd;fill:#c9c9c9;fill-opacity:1;" d="M 191.816406 17.671875 C 197.707031 38.632812 202.652344 65.515625 199.996094 91.824219 C 204.957031 91.867188 206.148438 88.625 210.730469 90.804688 C 220.421875 86.8125 228.410156 78.773438 237.820312 70.347656 C 241.578125 66.980469 244.796875 62.800781 249.578125 58.585938 C 253.109375 55.464844 261.0625 51.4375 262.355469 47.84375 C 263.382812 44.984375 262.117188 36.402344 260.820312 28.921875 C 259.324219 20.285156 258.691406 13.210938 255.710938 8.464844 C 234.382812 11.722656 209.882812 17.292969 191.816406 17.671875 M 229.128906 39.148438 C 228.058594 37.445312 229.464844 34.582031 231.6875 34.550781 C 233.414062 35.855469 231.871094 39.304688 229.128906 39.148438 M 222.996094 49.890625 C 220.949219 50.0625 220.710938 48.425781 220.953125 46.308594 C 223.097656 46 223.660156 48.972656 222.996094 49.890625 "/><path style=" stroke:none;fill-rule:evenodd;fill:#dddddd;fill-opacity:1;" d="M 168.816406 14.09375 C 172.0625 42.320312 178.007812 68.722656 182.105469 94.382812 C 185.761719 94.519531 185.777344 93.941406 188.75 93.871094 C 185.476562 67.296875 181.457031 43.109375 176.484375 19.207031 C 177.453125 17.277344 179.109375 16.035156 181.085938 15.113281 C 180.871094 7.816406 171.402344 11.144531 168.816406 14.09375 "/><path style=" stroke:none;fill-rule:evenodd;fill:#dddddd;fill-opacity:1;" d="M 160.636719 17.667969 C 161.195312 20.316406 163.375 18.683594 165.746094 18.691406 C 164.808594 17.585938 162.738281 17.617188 160.636719 17.667969 "/><path style=" stroke:none;fill-rule:evenodd;fill:#c9c9c9;fill-opacity:1;" d="M 181.59375 18.183594 C 180.5625 30.90625 184.113281 44.128906 186.195312 57.5625 C 187.757812 67.660156 189.855469 81.378906 192.328125 92.851562 C 198.117188 93.148438 197.820312 85.875 197.953125 80.0625 C 198.277344 65.71875 195.9375 52.796875 194.375 41.199219 C 192.933594 30.523438 193.179688 18.113281 181.59375 18.183594 "/><path style=" stroke:none;fill-rule:evenodd;fill:#000000;fill-opacity:1;" d="M 231.6875 34.550781 C 229.464844 34.585938 228.058594 37.445312 229.128906 39.148438 C 231.871094 39.304688 233.414062 35.855469 231.6875 34.550781 "/><path style=" stroke:none;fill-rule:evenodd;fill:#000000;fill-opacity:1;" d="M 220.953125 46.308594 C 220.710938 48.425781 220.949219 50.0625 222.996094 49.890625 C 223.660156 48.96875 223.097656 46 220.953125 46.308594 "/><path style=" stroke:none;fill-rule:evenodd;fill:#000000;fill-opacity:1;" d="M 146.839844 58.074219 L 143.769531 58.074219 C 143.703125 59.335938 143.695312 60.539062 144.28125 61.140625 C 146.609375 61.238281 147.71875 59.8125 146.839844 58.074219 "/><path style=" stroke:none;fill-rule:evenodd;fill:#000000;fill-opacity:1;" d="M 143.769531 66.253906 C 142.105469 66.121094 141.308594 66.863281 141.214844 68.300781 C 142.1875 68.519531 142.136719 69.761719 143.769531 69.324219 C 143.925781 68.128906 144.769531 67.210938 143.769531 66.253906 "/><path style=" stroke:none;fill-rule:evenodd;fill:#dddddd;fill-opacity:1;" d="M 162.171875 100.007812 C 177.125 99.71875 195.261719 98.808594 210.21875 96.429688 C 207.4375 92.796875 200.777344 95.265625 197.441406 96.941406 C 187.605469 96.296875 173.15625 97.710938 162.171875 100.007812 "/><path style=" stroke:none;fill-rule:evenodd;fill:#c9c9c9;fill-opacity:1;" d="M 158.59375 105.125 C 147.222656 123.410156 131.875 137.71875 121.28125 156.777344 C 136.679688 161.882812 155.992188 158.332031 171.882812 158.308594 C 202.859375 158.269531 231.671875 148.320312 260.308594 142.96875 C 262.289062 141.199219 265.863281 141.023438 267.976562 139.390625 C 250.625 125.894531 232.652344 113.019531 215.328125 99.496094 C 195.058594 101.558594 178.550781 101.949219 158.59375 105.125 M 196.929688 129.160156 C 196.101562 129.929688 193.160156 129.929688 192.328125 129.160156 C 191.726562 125.890625 197.65625 125.660156 196.929688 129.160156 M 191.816406 134.785156 C 191.722656 136.222656 190.929688 136.964844 189.261719 136.832031 C 189.632812 135.4375 188.246094 135.800781 188.238281 134.785156 C 188.863281 134.726562 189.449219 134.632812 189.261719 133.761719 C 190.53125 133.683594 190.847656 134.566406 191.816406 134.785156 "/><path style=" stroke:none;fill-rule:evenodd;fill:#000000;fill-opacity:1;" d="M 192.328125 129.160156 C 193.15625 129.929688 196.101562 129.929688 196.929688 129.160156 C 197.65625 125.65625 191.726562 125.890625 192.328125 129.160156 "/><path style=" stroke:none;fill-rule:evenodd;fill:#000000;fill-opacity:1;" d="M 189.261719 133.761719 C 189.449219 134.632812 188.863281 134.730469 188.238281 134.785156 C 188.246094 135.800781 189.632812 135.4375 189.261719 136.832031 C 190.929688 136.964844 191.722656 136.222656 191.816406 134.785156 C 190.847656 134.566406 190.53125 133.683594 189.261719 133.761719 "/><path style=" stroke:none;fill-rule:evenodd;fill:#dddddd;fill-opacity:1;" d="M 111.058594 157.800781 C 111.457031 191.324219 116.5 229.527344 121.28125 265.199219 C 122.488281 274.203125 125.105469 284.480469 127.925781 293.328125 C 134.136719 312.808594 139.707031 327.0625 152.96875 341.910156 C 159.164062 348.839844 167.363281 356.429688 174.949219 359.808594 C 189.273438 366.195312 209.917969 368.867188 226.574219 366.96875 C 258.832031 363.296875 280.671875 343.042969 286.890625 312.757812 C 289.640625 299.367188 287.640625 285.863281 287.402344 270.824219 C 287.167969 255.941406 287.4375 240.476562 285.867188 226.332031 C 282.476562 195.820312 280 172.417969 275.644531 141.945312 C 275.378906 141.75 274.886719 139.460938 274.621094 140.921875 C 259.492188 147.777344 241.359375 148.679688 224.53125 152.6875 C 220.5625 153.628906 217.253906 155.441406 213.285156 156.265625 C 201.949219 158.617188 190.335938 161.140625 177.503906 161.378906 C 154.925781 161.796875 129.589844 164.34375 111.058594 157.800781 M 264.398438 242.695312 C 267.765625 259.035156 263.804688 277.132812 255.199219 289.746094 C 250.777344 296.226562 238.859375 304.609375 231.175781 307.132812 C 199.304688 317.613281 161.855469 294.84375 155.015625 265.199219 C 150.613281 246.117188 155.964844 220.128906 166.261719 209.964844 C 169.417969 206.847656 174.996094 203.972656 180.574219 200.757812 C 185.140625 198.125 189.660156 194.640625 193.351562 193.089844 C 206.832031 187.417969 229.667969 190 242.421875 197.691406 C 252.1875 209.351562 260.835938 225.390625 264.398438 242.695312 "/><path style=" stroke:none;fill-rule:evenodd;fill:#000000;fill-opacity:1;" d="M 242.421875 197.691406 C 229.667969 190.003906 206.832031 187.417969 193.351562 193.089844 C 189.660156 194.636719 185.140625 198.125 180.574219 200.757812 C 174.996094 203.972656 169.417969 206.847656 166.261719 209.964844 C 155.964844 220.128906 150.609375 246.117188 155.015625 265.199219 C 161.855469 294.84375 199.304688 317.613281 231.175781 307.132812 C 238.859375 304.609375 250.777344 296.226562 255.199219 289.746094 C 263.804688 277.132812 267.765625 259.035156 264.398438 242.695312 C 260.835938 225.390625 252.1875 209.351562 242.421875 197.691406 M 253.664062 218.660156 C 256.1875 224.570312 261.230469 236.84375 262.355469 242.695312 C 268.441406 274.445312 248.414062 301.539062 222.996094 306.113281 C 200.832031 310.097656 177.65625 296.667969 168.816406 286.675781 C 153.457031 269.324219 151.511719 226.851562 169.328125 210.988281 C 174.445312 206.429688 185.054688 201.171875 191.304688 197.691406 C 198.535156 193.667969 209.355469 192.480469 219.929688 193.089844 C 237.984375 194.128906 248.109375 205.632812 253.664062 218.660156 "/><path style=" stroke:none;fill-rule:evenodd;fill:#ffe000;fill-opacity:1;" d="M 219.929688 193.089844 C 209.355469 192.476562 198.535156 193.667969 191.304688 197.691406 C 185.054688 201.167969 174.445312 206.429688 169.328125 210.988281 C 151.511719 226.851562 153.457031 269.324219 168.816406 286.675781 C 177.65625 296.667969 200.832031 310.097656 222.996094 306.113281 C 248.414062 301.539062 268.441406 274.445312 262.355469 242.695312 C 261.230469 236.84375 256.1875 224.566406 253.664062 218.660156 C 248.109375 205.632812 237.984375 194.128906 219.929688 193.089844 M 218.90625 206.894531 C 216.777344 214.527344 218.996094 226.410156 216.863281 236.042969 C 212.867188 236.992188 208.425781 237.492188 204.085938 238.089844 C 200.910156 229.945312 196.070312 220.609375 191.816406 212.011719 C 199.9375 208.355469 210.496094 203.292969 218.90625 206.894531 M 218.90625 252.414062 C 219.96875 254.589844 221.324219 256.46875 220.953125 260.082031 C 217.324219 265.457031 205.75 264.199219 208.683594 255.480469 C 209.667969 254.25 212.496094 254.863281 211.75 251.902344 C 214.269531 251.035156 216.476562 251.855469 218.90625 252.414062 M 231.175781 259.570312 C 239.183594 261.59375 248.851562 263.953125 257.242188 265.199219 C 253.503906 271 249.863281 276.90625 247.53125 284.121094 C 240.332031 283.292969 236.332031 276.265625 228.617188 274.402344 C 228.890625 268.878906 230.648438 264.839844 231.175781 259.570312 M 194.371094 277.984375 C 196.011719 275.535156 197.855469 270.414062 200.507812 269.800781 C 203.578125 269.089844 212.957031 273.472656 213.796875 275.425781 C 210.515625 282.808594 210.179688 290.261719 207.664062 296.394531 C 199.601562 295.59375 197.242188 289.09375 189.773438 287.699219 C 189.023438 284.453125 192.085938 281.40625 194.371094 277.984375 "/><path style=" stroke:none;fill-rule:evenodd;fill:#000000;fill-opacity:1;" d="M 191.816406 212.011719 C 196.070312 220.609375 200.910156 229.945312 204.085938 238.09375 C 208.425781 237.492188 212.867188 236.992188 216.863281 236.046875 C 218.996094 226.410156 216.777344 214.527344 218.910156 206.894531 C 210.5 203.292969 199.9375 208.355469 191.816406 212.011719 M 214.820312 232.980469 C 211.125 233.820312 208.523438 235.375 205.617188 234.511719 C 203.167969 227.230469 198.007812 219.988281 196.417969 213.546875 C 200.710938 209.828125 208.582031 209.695312 215.328125 208.429688 C 215.039062 215.675781 215.648438 224.054688 214.820312 232.980469 "/><path style=" stroke:none;fill-rule:evenodd;fill:#ff3600;fill-opacity:1;" d="M 215.328125 208.429688 C 208.582031 209.695312 200.710938 209.828125 196.417969 213.546875 C 198.007812 219.988281 203.167969 227.230469 205.617188 234.511719 C 208.523438 235.375 211.125 233.820312 214.820312 232.980469 C 215.648438 224.054688 215.039062 215.675781 215.328125 208.429688 "/><path style=" stroke:none;fill-rule:evenodd;fill:#000000;fill-opacity:1;" d="M 211.75 251.898438 C 212.5 254.863281 209.667969 254.25 208.683594 255.480469 C 205.75 264.199219 217.324219 265.457031 220.953125 260.082031 C 221.324219 256.472656 219.96875 254.589844 218.910156 252.414062 C 216.476562 251.855469 214.269531 251.035156 211.75 251.898438 M 217.886719 259.0625 C 216.191406 259.921875 213.800781 261.0625 211.75 260.082031 C 211.566406 256.660156 214.355469 256.207031 216.351562 254.96875 C 217.878906 255.320312 218.066406 257.007812 217.886719 259.0625 "/><path style=" stroke:none;fill-rule:evenodd;fill:#ff3600;fill-opacity:1;" d="M 216.351562 254.96875 C 214.355469 256.207031 211.566406 256.660156 211.75 260.082031 C 213.800781 261.0625 216.191406 259.921875 217.886719 259.0625 C 218.066406 257.007812 217.878906 255.320312 216.351562 254.96875 "/><path style=" stroke:none;fill-rule:evenodd;fill:#000000;fill-opacity:1;" d="M 228.617188 274.402344 C 236.332031 276.265625 240.332031 283.292969 247.53125 284.121094 C 249.863281 276.910156 253.503906 271 257.242188 265.199219 C 248.851562 263.953125 239.183594 261.597656 231.175781 259.570312 C 230.648438 264.84375 228.890625 268.878906 228.617188 274.402344 M 252.128906 266.734375 C 250.148438 271.394531 247.753906 275.648438 245.996094 280.542969 C 240.347656 279.035156 237.734375 274.488281 232.199219 272.867188 C 232.128906 268.878906 233.453125 266.28125 234.753906 263.660156 C 242.375 263.800781 245.402344 266.574219 252.128906 266.734375 "/><path style=" stroke:none;fill-rule:evenodd;fill:#ff3600;fill-opacity:1;" d="M 234.753906 263.660156 C 233.453125 266.28125 232.128906 268.878906 232.199219 272.867188 C 237.734375 274.488281 240.347656 279.035156 245.996094 280.542969 C 247.753906 275.648438 250.148438 271.394531 252.128906 266.734375 C 245.402344 266.574219 242.375 263.800781 234.753906 263.660156 "/><path style=" stroke:none;fill-rule:evenodd;fill:#000000;fill-opacity:1;" d="M 189.773438 287.699219 C 197.242188 289.09375 199.601562 295.59375 207.664062 296.394531 C 210.179688 290.261719 210.515625 282.808594 213.796875 275.425781 C 212.957031 273.472656 203.578125 269.089844 200.507812 269.800781 C 197.855469 270.414062 196.011719 275.535156 194.375 277.984375 C 192.085938 281.40625 189.023438 284.453125 189.773438 287.699219 M 201.527344 273.382812 C 205.003906 272.457031 206.789062 275.535156 210.21875 275.9375 C 208.417969 282.125 207.414062 286.917969 206.128906 292.816406 C 200.957031 291.003906 196.535156 288.433594 193.351562 284.632812 C 196.722656 282.171875 197.316406 274.5 201.527344 273.382812 "/><path style=" stroke:none;fill-rule:evenodd;fill:#ff3600;fill-opacity:1;" d="M 193.351562 284.632812 C 196.535156 288.433594 200.957031 291.003906 206.128906 292.816406 C 207.414062 286.917969 208.417969 282.125 210.21875 275.9375 C 206.789062 275.535156 205.003906 272.457031 201.527344 273.382812 C 197.316406 274.5 196.722656 282.171875 193.351562 284.632812 "/><g clip-rule="nonzero" clip-path="url(#639a6459da)"><path style=" stroke:none;fill-rule:evenodd;fill:#000000;fill-opacity:1;" d="M 190.285156 11.023438 C 187.609375 9.945312 187.921875 5.882812 185.171875 4.886719 C 178.59375 6.292969 172.609375 4.3125 168.816406 6.417969 C 165.550781 8.234375 164.433594 14.019531 158.59375 12.554688 C 156.734375 14.105469 156.253906 17.039062 155.527344 19.71875 C 131.238281 19.6875 112.675781 23.085938 89.589844 22.277344 C 86.835938 32.171875 89.394531 42.40625 90.613281 51.9375 C 91.414062 58.234375 91.191406 64.71875 92.65625 70.347656 C 93 71.667969 95.351562 78.667969 96.742188 80.574219 C 99.074219 83.753906 105.492188 84.753906 110.035156 86.710938 C 123.515625 92.523438 136.828125 99.425781 151.945312 102.054688 C 141.140625 124.992188 124.585938 142.183594 105.433594 156.777344 C 106.925781 165.101562 107.105469 174.925781 107.480469 186.4375 C 107.992188 202.195312 109.074219 218.8125 110.546875 235.535156 C 111.835938 250.1875 115.78125 265.347656 119.234375 280.027344 C 128.304688 318.570312 142.957031 347.285156 172.394531 364.925781 C 201.261719 375.324219 241.8125 376.085938 262.863281 359.300781 C 287.390625 339.746094 300.671875 304.640625 296.601562 260.59375 C 293.855469 230.882812 294.863281 196.492188 290.464844 165.980469 C 288.519531 152.472656 288.019531 142.347656 280.242188 135.296875 C 277.980469 134.257812 276.511719 135.945312 273.089844 134.785156 C 268.601562 133.265625 263.335938 127.699219 258.777344 124.558594 C 246.402344 116.03125 230.972656 104.96875 219.929688 95.40625 C 228.390625 89.449219 235.230469 81.363281 242.929688 72.902344 C 246.195312 69.316406 250.082031 65.140625 254.175781 61.652344 C 259.332031 57.261719 264.8125 54.140625 267.976562 48.867188 C 268.730469 36.972656 265.605469 25.609375 262.863281 12.554688 C 262.03125 8.585938 262.464844 3.609375 258.777344 2.839844 C 254.296875 1.90625 246.453125 4.5 240.886719 5.398438 C 228.121094 7.453125 205.210938 7.675781 190.285156 11.023438 M 255.710938 8.464844 C 258.691406 13.210938 259.324219 20.285156 260.820312 28.921875 C 262.117188 36.402344 263.382812 44.984375 262.355469 47.84375 C 261.0625 51.4375 253.109375 55.464844 249.578125 58.585938 C 244.796875 62.800781 241.578125 66.980469 237.820312 70.347656 C 228.410156 78.773438 220.421875 86.8125 210.730469 90.804688 C 206.148438 88.625 204.957031 91.867188 199.996094 91.828125 C 202.652344 65.511719 197.707031 38.632812 191.816406 17.671875 C 209.882812 17.292969 234.382812 11.726562 255.710938 8.464844 M 181.085938 15.113281 C 179.109375 16.039062 177.449219 17.277344 176.484375 19.203125 C 181.457031 43.109375 185.476562 67.296875 188.75 93.871094 C 185.777344 93.941406 185.761719 94.523438 182.105469 94.382812 C 178.007812 68.722656 172.0625 42.320312 168.816406 14.089844 C 171.402344 11.140625 180.871094 7.816406 181.085938 15.113281 M 165.746094 18.695312 C 163.378906 18.683594 161.195312 20.316406 160.636719 17.671875 C 162.738281 17.617188 164.8125 17.585938 165.746094 18.695312 M 194.375 41.195312 C 195.9375 52.796875 198.277344 65.71875 197.953125 80.0625 C 197.820312 85.875 198.117188 93.148438 192.328125 92.851562 C 189.855469 81.378906 187.757812 67.660156 186.195312 57.5625 C 184.113281 44.128906 180.5625 30.90625 181.59375 18.183594 C 193.179688 18.113281 192.929688 30.523438 194.375 41.195312 M 167.285156 24.832031 C 171.351562 47.980469 176.015625 71.695312 178.527344 94.894531 C 169.769531 95.957031 165.128906 93.566406 159.105469 97.449219 C 159.378906 95.644531 158.671875 94.816406 157.570312 94.382812 C 150.328125 98.042969 144.871094 93.835938 137.636719 91.828125 C 133.15625 90.582031 128.25 89.308594 124.347656 87.734375 C 118.203125 85.257812 101.351562 79.527344 99.300781 73.925781 C 94.960938 62.074219 95.140625 43.71875 93.167969 28.921875 C 117.953125 26.140625 138.964844 26.359375 167.285156 24.832031 M 197.441406 96.941406 C 200.777344 95.265625 207.4375 92.796875 210.21875 96.429688 C 195.261719 98.8125 177.125 99.714844 162.171875 100.007812 C 173.15625 97.710938 187.605469 96.296875 197.441406 96.941406 M 215.328125 99.5 C 232.652344 113.019531 250.625 125.894531 267.976562 139.390625 C 265.863281 141.023438 262.289062 141.199219 260.308594 142.96875 C 231.671875 148.324219 202.859375 158.269531 171.882812 158.308594 C 155.992188 158.335938 136.679688 161.882812 121.28125 156.777344 C 131.875 137.71875 147.222656 123.410156 158.59375 105.121094 C 178.550781 101.949219 195.058594 101.5625 215.328125 99.5 M 177.503906 161.378906 C 190.335938 161.140625 201.949219 158.617188 213.285156 156.265625 C 217.253906 155.441406 220.5625 153.628906 224.53125 152.683594 C 241.359375 148.679688 259.492188 147.777344 274.621094 140.921875 C 274.886719 139.460938 275.378906 141.746094 275.644531 141.945312 C 280 172.417969 282.476562 195.820312 285.867188 226.332031 C 287.4375 240.476562 287.167969 255.941406 287.402344 270.824219 C 287.640625 285.863281 289.640625 299.367188 286.890625 312.757812 C 280.671875 343.042969 258.832031 363.296875 226.574219 366.96875 C 209.917969 368.867188 189.273438 366.195312 174.949219 359.808594 C 167.363281 356.429688 159.164062 348.839844 152.96875 341.910156 C 139.707031 327.0625 134.140625 312.808594 127.925781 293.328125 C 125.105469 284.480469 122.488281 274.203125 121.28125 265.199219 C 116.5 229.527344 111.457031 191.324219 111.058594 157.800781 C 129.589844 164.34375 154.925781 161.796875 177.503906 161.378906 "/></g><path style=" stroke:none;fill-rule:evenodd;fill:#c9c9c9;fill-opacity:1;" d="M 93.167969 28.921875 C 95.140625 43.71875 94.960938 62.070312 99.300781 73.925781 C 101.351562 79.527344 118.203125 85.257812 124.347656 87.734375 C 128.25 89.304688 133.15625 90.585938 137.636719 91.828125 C 144.871094 93.835938 150.328125 98.046875 157.570312 94.382812 C 158.671875 94.816406 159.378906 95.644531 159.105469 97.449219 C 165.128906 93.566406 169.769531 95.957031 178.527344 94.894531 C 176.015625 71.695312 171.351562 47.980469 167.285156 24.832031 C 138.964844 26.359375 117.953125 26.140625 93.167969 28.921875 M 144.28125 61.140625 C 143.695312 60.539062 143.703125 59.335938 143.769531 58.074219 L 146.839844 58.074219 C 147.71875 59.8125 146.609375 61.238281 144.28125 61.140625 M 143.769531 69.324219 C 142.136719 69.761719 142.1875 68.519531 141.214844 68.300781 C 141.308594 66.863281 142.105469 66.125 143.769531 66.253906 C 144.769531 67.210938 143.925781 68.128906 143.769531 69.324219 "/><g clip-rule="nonzero" clip-path="url(#e34752896a)"><g clip-rule="nonzero" clip-path="url(#584a70c14f)"><path style=" stroke:none;fill-rule:nonzero;fill:#dddddd;fill-opacity:1;" d="M 174.074219 215.175781 L 214.839844 215.175781 L 214.839844 233.324219 L 174.074219 233.324219 Z M 174.074219 215.175781 "/></g></g><g clip-rule="nonzero" clip-path="url(#416d969a27)"><g clip-rule="nonzero" clip-path="url(#4b68cafb62)"><path style=" stroke:none;fill-rule:nonzero;fill:#dddddd;fill-opacity:1;" d="M 134.808594 176.632812 L 281.425781 176.632812 L 281.425781 319.351562 L 134.808594 319.351562 Z M 134.808594 176.632812 "/></g></g><g clip-rule="nonzero" clip-path="url(#5a2f445c93)"><g clip-rule="nonzero" clip-path="url(#fdcafa541e)"><path style=" stroke:none;fill-rule:nonzero;fill:#dddddd;fill-opacity:1;" d="M 130.875 281.175781 L 173.523438 281.175781 L 173.523438 319.351562 L 130.875 319.351562 Z M 130.875 281.175781 "/></g></g><g clip-rule="nonzero" clip-path="url(#1935c20887)"><g clip-rule="nonzero" clip-path="url(#4465f121f6)"><path style=" stroke:none;fill-rule:nonzero;fill:#000000;fill-opacity:1;" d="M 123.601562 178.125 L 139.273438 178.125 L 139.273438 210.761719 L 123.601562 210.761719 Z M 123.601562 178.125 "/></g></g><g clip-rule="nonzero" clip-path="url(#d82332403f)"><g clip-rule="nonzero" clip-path="url(#5fc02de8fe)"><path style=" stroke:none;fill-rule:nonzero;fill:#000000;fill-opacity:1;" d="M 122.398438 200.398438 L 138.75 200.398438 L 138.75 234.824219 L 122.398438 234.824219 Z M 122.398438 200.398438 "/></g></g><g clip-rule="nonzero" clip-path="url(#49a241c8be)"><g clip-rule="nonzero" clip-path="url(#9a7d0c3bfe)"><path style=" stroke:none;fill-rule:nonzero;fill:#000000;fill-opacity:1;" d="M 125.925781 176.398438 L 154.144531 176.398438 L 154.144531 194.324219 L 125.925781 194.324219 Z M 125.925781 176.398438 "/></g></g><g clip-rule="nonzero" clip-path="url(#503fe70eaa)"><g clip-rule="nonzero" clip-path="url(#97ffe1de96)"><path style=" stroke:none;fill-rule:nonzero;fill:#000000;fill-opacity:1;" d="M 131.101562 184.949219 L 165.675781 184.949219 L 165.675781 223.710938 L 131.101562 223.710938 Z M 131.101562 184.949219 "/></g></g><g clip-rule="nonzero" clip-path="url(#c9ef6d157a)"><g clip-rule="nonzero" clip-path="url(#0384e2b8ff)"><path style=" stroke:none;fill-rule:nonzero;fill:#000000;fill-opacity:1;" d="M 123.898438 210.824219 L 166.011719 210.824219 L 166.011719 238.050781 L 123.898438 238.050781 Z M 123.898438 210.824219 "/></g></g><g clip-rule="nonzero" clip-path="url(#439e28a49b)"><g clip-rule="nonzero" clip-path="url(#ad814abcf2)"><path style=" stroke:none;fill-rule:nonzero;fill:#000000;fill-opacity:1;" d="M 165.824219 190.648438 L 200.175781 190.648438 L 200.175781 233.183594 L 165.824219 233.183594 Z M 165.824219 190.648438 "/></g></g><g clip-rule="nonzero" clip-path="url(#85f3b2df7f)"><g clip-rule="nonzero" clip-path="url(#275a6e5e4c)"><path style=" stroke:none;fill-rule:nonzero;fill:#000000;fill-opacity:1;" d="M 199.574219 187.050781 L 248.78125 187.050781 L 248.78125 233.023438 L 199.574219 233.023438 Z M 199.574219 187.050781 "/></g></g><g clip-rule="nonzero" clip-path="url(#0d83ca7355)"><g clip-rule="nonzero" clip-path="url(#86166dfb13)"><path style=" stroke:none;fill-rule:nonzero;fill:#000000;fill-opacity:1;" d="M 238.425781 165.074219 L 282.300781 165.074219 L 282.300781 234.488281 L 238.425781 234.488281 Z M 238.425781 165.074219 "/></g></g><g clip-rule="nonzero" clip-path="url(#69c925fcea)"><g clip-rule="nonzero" clip-path="url(#c441b4e022)"><path style=" stroke:none;fill-rule:nonzero;fill:#000000;fill-opacity:1;" d="M 193.800781 241.800781 L 217.050781 241.800781 L 217.050781 327.988281 L 193.800781 327.988281 Z M 193.800781 241.800781 "/></g></g><g clip-rule="nonzero" clip-path="url(#15d885de83)"><g clip-rule="nonzero" clip-path="url(#dc579f1d8e)"><path style=" stroke:none;fill-rule:nonzero;fill:#000000;fill-opacity:1;" d="M 182.023438 295.199219 L 243.609375 295.199219 L 243.609375 329.851562 L 182.023438 329.851562 Z M 182.023438 295.199219 "/></g></g></g></svg>