<svg xmlns="http://www.w3.org/2000/svg" xmlns:xlink="http://www.w3.org/1999/xlink" width="500" zoomAndPan="magnify" viewBox="0 0 375 374.999991" height="500" preserveAspectRatio="xMidYMid meet" version="1.2"><defs><clipPath id="8b127f2a20"><path d="M 88.261719 2.640625 L 297.230469 2.640625 L 297.230469 372.390625 L 88.261719 372.390625 Z M 88.261719 2.640625 "/></clipPath><clipPath id="fe4c65967d"><path d="M 176.980469 217.941406 L 211.933594 217.941406 L 211.933594 230.347656 L 176.980469 230.347656 Z M 176.980469 217.941406 "/></clipPath><clipPath id="9fb6232a3b"><path d="M 209.773438 230.324219 C 184.574219 229.425781 182.925781 228.148438 182.925781 227.175781 C 182.925781 226.273438 184.425781 225.300781 185.773438 224.476562 C 188.175781 222.976562 193.800781 221.324219 196.875 220.273438 C 199.125 219.601562 201.300781 218.699219 202.648438 218.699219 C 203.398438 218.699219 204 218.773438 204.449219 219.148438 C 204.824219 219.449219 205.125 220.273438 205.125 220.800781 C 205.050781 221.324219 204.75 221.925781 204.074219 222.300781 C 202.726562 223.125 199.050781 222.898438 196.050781 223.125 C 192.226562 223.351562 185.175781 224.550781 183.074219 223.5 C 182.175781 223.050781 181.648438 222.148438 181.574219 221.550781 C 181.574219 221.023438 182.023438 220.5 182.550781 220.050781 C 183.375 219.449219 185.023438 219.226562 186.75 219 C 189.375 218.550781 195.148438 217.425781 196.949219 218.25 C 197.925781 218.699219 198.601562 219.675781 198.523438 220.273438 C 198.523438 220.949219 197.773438 221.625 196.726562 222.074219 C 193.949219 223.351562 181.351562 224.175781 178.726562 223.574219 C 177.898438 223.425781 177.449219 223.125 177.226562 222.675781 C 176.925781 222.226562 176.925781 221.398438 177.148438 220.949219 C 177.375 220.5 177.976562 219.976562 178.5 219.898438 C 179.101562 219.898438 180.226562 220.425781 180.523438 220.949219 C 180.75 221.398438 180.675781 222.300781 180.375 222.675781 C 180.148438 223.125 179.398438 223.574219 178.875 223.574219 C 178.273438 223.574219 177.148438 222.898438 177.074219 222.300781 C 176.925781 221.699219 177.375 220.574219 178.351562 219.976562 C 180.523438 218.476562 189.976562 218.25 193.5 218.175781 C 195.375 218.175781 197.023438 218.101562 197.851562 218.625 C 198.300781 219 198.601562 219.75 198.523438 220.273438 C 198.523438 220.800781 198.300781 221.398438 197.625 221.773438 C 195.675781 223.050781 185.324219 224.476562 183.074219 223.5 C 182.101562 223.125 181.574219 222.148438 181.574219 221.550781 C 181.648438 220.949219 182.324219 220.273438 183.375 219.824219 C 186.375 218.550781 200.101562 217.800781 203.101562 218.625 C 204.148438 218.925781 204.75 219.375 204.976562 219.898438 C 205.199219 220.425781 205.273438 221.101562 204.75 221.699219 C 203.175781 223.800781 187.875 229.800781 186.375 228.75 C 185.851562 228.375 185.851562 226.949219 186.449219 226.351562 C 188.398438 224.476562 206.773438 225.675781 209.773438 226.199219 C 210.523438 226.351562 210.824219 226.351562 211.125 226.726562 C 211.574219 227.101562 211.949219 227.925781 211.875 228.523438 C 211.648438 229.199219 209.773438 230.324219 209.773438 230.324219 "/></clipPath><clipPath id="517aef3698"><path d="M 105 179 L 243.253906 179 L 243.253906 316.550781 L 105 316.550781 Z M 105 179 "/></clipPath><clipPath id="d3c6395d02"><path d="M 105.1875 279.394531 C 108.414062 249.683594 116.8125 244.839844 116.960938 241.660156 C 117.039062 239.992188 115.011719 239.675781 114.636719 237.847656 C 113.886719 234.035156 114.863281 224.660156 117.414062 219.257812 C 120.039062 213.621094 129.710938 207.34375 130.613281 204.882812 C 130.914062 204.246094 130.613281 203.929688 130.613281 203.371094 C 130.613281 202.816406 130.613281 201.703125 130.613281 201.703125 C 130.613281 201.625 130.835938 200.511719 130.988281 199.957031 C 131.136719 199.398438 131.363281 198.289062 131.363281 198.289062 C 131.363281 198.289062 131.886719 197.253906 132.113281 196.699219 C 132.414062 196.222656 132.863281 195.191406 132.863281 195.191406 C 132.9375 195.191406 133.613281 194.316406 133.988281 193.839844 C 134.363281 193.441406 135.039062 192.570312 135.039062 192.570312 C 135.113281 192.488281 135.9375 191.855469 136.386719 191.535156 C 136.835938 191.21875 137.738281 190.582031 137.738281 190.582031 C 137.8125 190.503906 147.5625 186.53125 150.113281 184.863281 C 151.386719 184.070312 152.8125 182.558594 152.8125 182.558594 C 152.8125 182.558594 153.710938 181.925781 154.238281 181.605469 C 154.6875 181.289062 155.585938 180.734375 155.664062 180.734375 C 155.664062 180.652344 156.710938 180.335938 157.238281 180.175781 C 157.761719 179.9375 158.8125 179.621094 158.8125 179.621094 C 158.8125 179.621094 159.9375 179.539062 160.460938 179.460938 C 160.988281 179.460938 162.113281 179.382812 162.113281 179.382812 C 162.113281 179.382812 163.238281 179.539062 163.761719 179.621094 C 164.289062 179.777344 165.414062 179.9375 165.414062 179.9375 C 165.414062 179.9375 166.460938 180.414062 166.914062 180.652344 C 167.4375 180.890625 167.8125 181.367188 168.335938 181.289062 C 169.164062 181.210938 170.136719 179.382812 171.335938 179.222656 C 172.761719 179.0625 174.261719 180.734375 176.289062 181.210938 C 179.289062 181.925781 185.0625 180.492188 187.988281 182.164062 C 190.539062 183.59375 191.210938 188.4375 193.3125 189.550781 C 195.039062 190.421875 196.539062 189.074219 199.011719 189.390625 C 203.960938 190.027344 215.738281 192.171875 220.761719 195.824219 C 224.511719 198.445312 227.136719 202.578125 228.335938 206.230469 C 229.386719 209.488281 227.664062 213.9375 228.414062 216.320312 C 228.863281 217.910156 230.585938 218.863281 230.738281 219.894531 C 230.886719 220.53125 230.136719 220.847656 230.136719 221.722656 C 230.210938 224.265625 235.386719 232.445312 235.6875 236.179688 C 235.835938 238.5625 233.960938 239.753906 234.335938 242.058594 C 234.9375 246.03125 242.0625 251.429688 242.960938 256.914062 C 243.9375 262.871094 241.011719 271.609375 239.0625 276.535156 C 237.710938 279.949219 235.238281 281.695312 234.113281 284.476562 C 232.988281 287.257812 233.886719 290.355469 232.386719 293.136719 C 230.289062 297.027344 225.039062 301 220.460938 304.335938 C 215.511719 307.992188 208.988281 312.996094 203.511719 313.867188 C 198.789062 314.582031 194.363281 310.53125 189.710938 310.769531 C 184.761719 311.089844 177.414062 316.332031 174.488281 316.171875 C 173.210938 316.09375 173.136719 315.058594 171.9375 314.820312 C 169.238281 314.265625 162.863281 316.886719 158.511719 315.535156 C 153.414062 313.949219 147.636719 306.242188 143.8125 304.414062 C 141.636719 303.382812 140.363281 303.621094 138.261719 303.144531 C 135.5625 302.507812 132.261719 302.269531 128.886719 301 C 124.613281 299.410156 118.6875 296.949219 114.710938 293.375 C 110.738281 289.71875 105.1875 279.394531 105.1875 279.394531 M 169.835938 275.023438 C 170.4375 276.851562 171.636719 277.167969 171.710938 277.089844 C 171.789062 277.011719 171.636719 276.851562 171.5625 276.691406 C 171.335938 276.296875 169.835938 275.023438 169.835938 275.023438 "/></clipPath><clipPath id="42d8fc8ff9"><path d="M 133.558594 284.15625 L 170.691406 284.15625 L 170.691406 316.367188 L 133.558594 316.367188 Z M 133.558594 284.15625 "/></clipPath><clipPath id="8d594e8642"><path d="M 155.101562 287.851562 C 159.449219 291.675781 157.800781 289.199219 158.101562 288.75 C 158.476562 288.375 160.050781 288.898438 161.175781 289.273438 C 162.75 289.875 165.226562 291.300781 166.5 292.351562 C 167.398438 293.101562 167.925781 293.699219 168.449219 294.75 C 169.273438 296.25 170.25 298.648438 170.398438 300.601562 C 170.550781 302.550781 170.023438 305.101562 169.425781 306.675781 C 169.050781 307.800781 168.675781 308.476562 167.851562 309.375 C 166.800781 310.648438 164.925781 312.375 163.125 313.273438 C 161.324219 314.101562 159.148438 315.300781 157.125 314.476562 C 153.375 312.898438 145.726562 300.75 145.574219 297.074219 C 145.574219 295.425781 146.773438 294.523438 147.675781 293.476562 C 148.5 292.425781 149.625 291.449219 150.824219 290.699219 C 151.949219 290.023438 153.300781 289.425781 154.648438 289.125 C 155.925781 288.824219 157.425781 288.675781 158.773438 288.824219 C 160.125 288.976562 161.550781 289.351562 162.824219 289.875 C 164.023438 290.398438 165.300781 291.226562 166.273438 292.125 C 167.324219 293.101562 168.226562 294.226562 168.824219 295.425781 C 169.5 296.625 170.023438 297.976562 170.25 299.324219 C 170.476562 300.675781 170.550781 302.101562 170.324219 303.523438 C 170.101562 304.875 169.726562 306.226562 169.050781 307.425781 C 168.449219 308.699219 167.550781 309.824219 166.574219 310.800781 C 165.601562 311.773438 164.476562 312.601562 163.199219 313.199219 C 162 313.800781 160.574219 314.175781 159.226562 314.398438 C 157.875 314.550781 156.375 314.476562 155.023438 314.25 C 153.75 313.949219 152.324219 313.425781 151.199219 312.75 C 150 312.074219 148.875 311.175781 147.976562 310.125 C 147.074219 309.074219 146.25 307.875 145.726562 306.601562 C 145.199219 305.324219 144.898438 303.898438 144.75 302.550781 C 144.675781 301.199219 144.824219 299.699219 145.199219 298.425781 C 145.5 297.074219 146.101562 295.726562 146.851562 294.601562 C 147.601562 293.476562 148.574219 292.351562 149.625 291.523438 C 150.75 290.699219 152.023438 289.949219 153.300781 289.5 C 154.574219 289.050781 156 288.824219 157.425781 288.75 C 158.773438 288.75 160.199219 288.976562 161.476562 289.351562 C 162.824219 289.800781 164.101562 290.476562 165.226562 291.300781 C 166.351562 292.050781 167.324219 293.101562 168.148438 294.226562 C 168.898438 295.351562 169.574219 296.699219 169.949219 297.976562 C 170.324219 299.324219 171 301.875 170.476562 302.101562 C 169.351562 302.625 157.5 289.800781 158.101562 288.75 C 158.476562 288.226562 162.300781 289.5 164.023438 290.476562 C 165.75 291.523438 167.398438 293.101562 168.449219 294.75 C 169.5 296.476562 170.25 298.574219 170.398438 300.601562 C 170.550781 302.550781 170.023438 305.101562 169.425781 306.675781 C 169.050781 307.800781 168.675781 308.476562 167.851562 309.375 C 166.800781 310.648438 164.925781 312.375 163.125 313.273438 C 161.324219 314.101562 158.773438 313.875 157.125 314.476562 C 155.773438 315 155.324219 316.351562 153.898438 316.351562 C 151.050781 316.425781 144.601562 312.300781 141.300781 309.75 C 138.824219 307.800781 136.648438 305.023438 135.449219 303.226562 C 134.773438 302.175781 134.476562 301.574219 134.25 300.449219 C 133.800781 298.875 133.5 296.398438 133.875 294.449219 C 134.175781 292.574219 135.148438 290.550781 136.351562 288.976562 C 137.550781 287.476562 139.273438 286.125 141.074219 285.300781 C 142.800781 284.476562 145.351562 284.175781 146.925781 284.175781 C 148.125 284.175781 148.875 284.324219 149.925781 284.773438 C 151.425781 285.300781 155.101562 287.851562 155.101562 287.851562 "/></clipPath><clipPath id="142440819c"><path d="M 120 172 L 232 172 L 232 319 L 120 319 Z M 120 172 "/></clipPath><clipPath id="7703525edd"><path d="M 136.59375 165.925781 L 246.585938 180.828125 L 226.453125 329.46875 L 116.457031 314.570312 Z M 136.59375 165.925781 "/></clipPath><clipPath id="0c8f069ae0"><path d="M 136.59375 165.925781 L 246.585938 180.828125 L 226.453125 329.46875 L 116.457031 314.570312 Z M 136.59375 165.925781 "/></clipPath></defs><g id="b73e8280ca"><path style=" stroke:none;fill-rule:evenodd;fill:#c9c9c9;fill-opacity:1;" d="M 193.769531 17.671875 C 187.878906 38.632812 182.9375 65.515625 185.59375 91.824219 C 180.632812 91.867188 179.441406 88.625 174.859375 90.804688 C 165.167969 86.8125 157.179688 78.773438 147.769531 70.347656 C 144.007812 66.980469 140.792969 62.800781 136.011719 58.585938 C 132.476562 55.464844 124.523438 51.4375 123.234375 47.84375 C 122.203125 44.984375 123.472656 36.402344 124.765625 28.921875 C 126.261719 20.285156 126.898438 13.210938 129.878906 8.464844 C 151.203125 11.722656 175.707031 17.292969 193.769531 17.671875 M 156.457031 39.148438 C 157.527344 37.445312 156.125 34.582031 153.902344 34.550781 C 152.175781 35.855469 153.71875 39.304688 156.457031 39.148438 M 162.59375 49.890625 C 164.636719 50.0625 164.878906 48.425781 164.636719 46.308594 C 162.492188 46 161.925781 48.972656 162.59375 49.890625 "/><path style=" stroke:none;fill-rule:evenodd;fill:#dddddd;fill-opacity:1;" d="M 216.773438 14.09375 C 213.527344 42.320312 207.582031 68.722656 203.484375 94.382812 C 199.828125 94.519531 199.8125 93.941406 196.839844 93.871094 C 200.113281 67.296875 204.132812 43.109375 209.105469 19.207031 C 208.136719 17.277344 206.480469 16.035156 204.503906 15.113281 C 204.71875 7.816406 214.1875 11.144531 216.773438 14.09375 "/><path style=" stroke:none;fill-rule:evenodd;fill:#dddddd;fill-opacity:1;" d="M 224.953125 17.667969 C 224.394531 20.316406 222.210938 18.683594 219.839844 18.691406 C 220.777344 17.585938 222.851562 17.617188 224.953125 17.667969 "/><path style=" stroke:none;fill-rule:evenodd;fill:#c9c9c9;fill-opacity:1;" d="M 203.992188 18.183594 C 205.027344 30.90625 201.476562 44.128906 199.394531 57.5625 C 197.828125 67.660156 195.734375 81.378906 193.261719 92.851562 C 187.472656 93.148438 187.769531 85.875 187.636719 80.0625 C 187.3125 65.71875 189.648438 52.796875 191.214844 41.199219 C 192.65625 30.523438 192.410156 18.113281 203.992188 18.183594 "/><path style=" stroke:none;fill-rule:evenodd;fill:#000000;fill-opacity:1;" d="M 153.902344 34.550781 C 156.125 34.585938 157.527344 37.445312 156.457031 39.148438 C 153.71875 39.304688 152.175781 35.855469 153.902344 34.550781 "/><path style=" stroke:none;fill-rule:evenodd;fill:#000000;fill-opacity:1;" d="M 164.636719 46.308594 C 164.878906 48.425781 164.640625 50.0625 162.59375 49.890625 C 161.925781 48.96875 162.492188 46 164.636719 46.308594 "/><path style=" stroke:none;fill-rule:evenodd;fill:#000000;fill-opacity:1;" d="M 238.75 58.074219 L 241.820312 58.074219 C 241.886719 59.335938 241.894531 60.539062 241.308594 61.140625 C 238.980469 61.238281 237.871094 59.8125 238.75 58.074219 "/><path style=" stroke:none;fill-rule:evenodd;fill:#000000;fill-opacity:1;" d="M 241.820312 66.253906 C 243.484375 66.121094 244.277344 66.863281 244.375 68.300781 C 243.402344 68.519531 243.449219 69.761719 241.820312 69.324219 C 241.664062 68.128906 240.816406 67.210938 241.820312 66.253906 "/><path style=" stroke:none;fill-rule:evenodd;fill:#dddddd;fill-opacity:1;" d="M 223.417969 100.007812 C 208.464844 99.71875 190.328125 98.808594 175.371094 96.429688 C 178.152344 92.796875 184.8125 95.265625 188.148438 96.941406 C 197.984375 96.296875 212.433594 97.710938 223.417969 100.007812 "/><path style=" stroke:none;fill-rule:evenodd;fill:#c9c9c9;fill-opacity:1;" d="M 226.996094 105.125 C 238.367188 123.410156 253.710938 137.71875 264.308594 156.777344 C 248.910156 161.882812 229.59375 158.332031 213.703125 158.308594 C 182.730469 158.269531 153.917969 148.320312 125.277344 142.96875 C 123.296875 141.199219 119.722656 141.023438 117.613281 139.390625 C 134.964844 125.894531 152.9375 113.019531 170.257812 99.496094 C 190.53125 101.558594 207.039062 101.949219 226.996094 105.125 M 188.660156 129.160156 C 189.488281 129.929688 192.429688 129.929688 193.261719 129.160156 C 193.863281 125.890625 187.933594 125.660156 188.660156 129.160156 M 193.769531 134.785156 C 193.867188 136.222656 194.660156 136.964844 196.328125 136.832031 C 195.957031 135.4375 197.34375 135.800781 197.351562 134.785156 C 196.726562 134.726562 196.140625 134.632812 196.328125 133.761719 C 195.054688 133.683594 194.742188 134.566406 193.769531 134.785156 "/><path style=" stroke:none;fill-rule:evenodd;fill:#000000;fill-opacity:1;" d="M 193.261719 129.160156 C 192.429688 129.929688 189.488281 129.929688 188.660156 129.160156 C 187.933594 125.65625 193.863281 125.890625 193.261719 129.160156 "/><path style=" stroke:none;fill-rule:evenodd;fill:#000000;fill-opacity:1;" d="M 196.328125 133.761719 C 196.140625 134.632812 196.726562 134.730469 197.351562 134.785156 C 197.34375 135.800781 195.953125 135.4375 196.328125 136.832031 C 194.660156 136.964844 193.867188 136.222656 193.769531 134.785156 C 194.742188 134.566406 195.054688 133.683594 196.328125 133.761719 "/><path style=" stroke:none;fill-rule:evenodd;fill:#dddddd;fill-opacity:1;" d="M 274.53125 157.800781 C 274.132812 191.324219 269.089844 229.527344 264.308594 265.199219 C 263.101562 274.203125 260.484375 284.480469 257.664062 293.328125 C 251.449219 312.808594 245.882812 327.0625 232.617188 341.910156 C 226.425781 348.839844 218.222656 356.429688 210.640625 359.808594 C 196.316406 366.195312 175.671875 368.867188 159.015625 366.96875 C 126.753906 363.296875 104.917969 343.042969 98.699219 312.757812 C 95.949219 299.367188 97.949219 285.863281 98.1875 270.824219 C 98.421875 255.941406 98.148438 240.476562 99.722656 226.332031 C 103.113281 195.820312 105.589844 172.417969 109.945312 141.945312 C 110.210938 141.75 110.703125 139.460938 110.964844 140.921875 C 126.097656 147.777344 144.230469 148.679688 161.058594 152.6875 C 165.027344 153.628906 168.335938 155.441406 172.300781 156.265625 C 183.636719 158.617188 195.253906 161.140625 208.085938 161.378906 C 230.664062 161.796875 256 164.34375 274.53125 157.800781 M 121.1875 242.695312 C 117.824219 259.035156 121.78125 277.132812 130.390625 289.746094 C 134.808594 296.226562 146.726562 304.609375 154.414062 307.132812 C 186.285156 317.613281 223.734375 294.84375 230.570312 265.199219 C 234.976562 246.117188 229.625 220.128906 219.328125 209.964844 C 216.171875 206.847656 210.59375 203.972656 205.015625 200.757812 C 200.449219 198.125 195.925781 194.640625 192.238281 193.089844 C 178.757812 187.417969 155.921875 190 143.167969 197.691406 C 133.398438 209.351562 124.75 225.390625 121.1875 242.695312 "/><path style=" stroke:none;fill-rule:evenodd;fill:#000000;fill-opacity:1;" d="M 143.167969 197.691406 C 155.921875 190.003906 178.757812 187.417969 192.238281 193.089844 C 195.925781 194.636719 200.449219 198.125 205.015625 200.757812 C 210.59375 203.972656 216.171875 206.847656 219.328125 209.964844 C 229.625 220.128906 234.976562 246.117188 230.570312 265.199219 C 223.734375 294.84375 186.285156 317.613281 154.414062 307.132812 C 146.726562 304.609375 134.808594 296.226562 130.390625 289.746094 C 121.78125 277.132812 117.824219 259.035156 121.1875 242.695312 C 124.75 225.390625 133.398438 209.351562 143.167969 197.691406 M 131.921875 218.660156 C 129.402344 224.570312 124.355469 236.84375 123.234375 242.695312 C 117.148438 274.445312 137.175781 301.539062 162.59375 306.113281 C 184.757812 310.097656 207.929688 296.667969 216.773438 286.675781 C 232.132812 269.324219 234.074219 226.851562 216.261719 210.988281 C 211.144531 206.429688 200.535156 201.171875 194.28125 197.691406 C 187.054688 193.667969 176.234375 192.480469 165.660156 193.089844 C 147.601562 194.128906 137.480469 205.632812 131.921875 218.660156 "/><path style=" stroke:none;fill-rule:evenodd;fill:#ffe000;fill-opacity:1;" d="M 165.660156 193.089844 C 176.234375 192.476562 187.054688 193.667969 194.28125 197.691406 C 200.535156 201.167969 211.144531 206.429688 216.261719 210.988281 C 234.074219 226.851562 232.132812 269.324219 216.773438 286.675781 C 207.929688 296.667969 184.757812 310.097656 162.59375 306.113281 C 137.175781 301.539062 117.148438 274.445312 123.234375 242.695312 C 124.355469 236.84375 129.402344 224.566406 131.921875 218.660156 C 137.480469 205.632812 147.601562 194.128906 165.660156 193.089844 M 166.679688 206.894531 C 168.8125 214.527344 166.589844 226.410156 168.726562 236.042969 C 172.722656 236.992188 177.164062 237.492188 181.503906 238.089844 C 184.679688 229.945312 189.519531 220.609375 193.769531 212.011719 C 185.652344 208.355469 175.089844 203.292969 166.679688 206.894531 M 166.679688 252.414062 C 165.621094 254.589844 164.261719 256.46875 164.636719 260.082031 C 168.265625 265.457031 179.839844 264.199219 176.902344 255.480469 C 175.917969 254.25 173.089844 254.863281 173.839844 251.902344 C 171.316406 251.035156 169.113281 251.855469 166.679688 252.414062 M 154.414062 259.570312 C 146.402344 261.59375 136.738281 263.953125 128.34375 265.199219 C 132.085938 271 135.726562 276.90625 138.058594 284.121094 C 145.257812 283.292969 149.257812 276.265625 156.972656 274.402344 C 156.699219 268.878906 154.941406 264.839844 154.414062 259.570312 M 191.214844 277.984375 C 189.578125 275.535156 187.734375 270.414062 185.082031 269.800781 C 182.011719 269.089844 172.632812 273.472656 171.792969 275.425781 C 175.074219 282.808594 175.410156 290.261719 177.925781 296.394531 C 185.988281 295.59375 188.347656 289.09375 195.816406 287.699219 C 196.566406 284.453125 193.503906 281.40625 191.214844 277.984375 "/><path style=" stroke:none;fill-rule:evenodd;fill:#000000;fill-opacity:1;" d="M 193.769531 212.011719 C 189.515625 220.609375 184.679688 229.945312 181.503906 238.09375 C 177.164062 237.492188 172.722656 236.992188 168.726562 236.046875 C 166.589844 226.410156 168.8125 214.527344 166.679688 206.894531 C 175.089844 203.292969 185.652344 208.355469 193.769531 212.011719 M 170.769531 232.980469 C 174.460938 233.820312 177.0625 235.375 179.972656 234.511719 C 182.421875 227.230469 187.582031 219.988281 189.171875 213.546875 C 184.878906 209.828125 177.003906 209.695312 170.257812 208.429688 C 170.550781 215.675781 169.941406 224.054688 170.769531 232.980469 "/><path style=" stroke:none;fill-rule:evenodd;fill:#ff3600;fill-opacity:1;" d="M 170.257812 208.429688 C 177.003906 209.695312 184.878906 209.828125 189.171875 213.546875 C 187.582031 219.988281 182.421875 227.230469 179.972656 234.511719 C 177.0625 235.375 174.460938 233.820312 170.769531 232.980469 C 169.941406 224.054688 170.550781 215.675781 170.257812 208.429688 "/><path style=" stroke:none;fill-rule:evenodd;fill:#000000;fill-opacity:1;" d="M 173.835938 251.898438 C 173.089844 254.863281 175.917969 254.25 176.902344 255.480469 C 179.839844 264.199219 168.265625 265.457031 164.636719 260.082031 C 164.261719 256.472656 165.621094 254.589844 166.679688 252.414062 C 169.113281 251.855469 171.316406 251.035156 173.835938 251.898438 M 167.703125 259.0625 C 169.394531 259.921875 171.785156 261.0625 173.835938 260.082031 C 174.023438 256.660156 171.234375 256.207031 169.238281 254.96875 C 167.710938 255.320312 167.523438 257.007812 167.703125 259.0625 "/><path style=" stroke:none;fill-rule:evenodd;fill:#ff3600;fill-opacity:1;" d="M 169.238281 254.96875 C 171.234375 256.207031 174.023438 256.660156 173.835938 260.082031 C 171.785156 261.0625 169.394531 259.921875 167.703125 259.0625 C 167.523438 257.007812 167.710938 255.320312 169.238281 254.96875 "/><path style=" stroke:none;fill-rule:evenodd;fill:#000000;fill-opacity:1;" d="M 156.96875 274.402344 C 149.257812 276.265625 145.257812 283.292969 138.058594 284.121094 C 135.726562 276.910156 132.085938 271 128.34375 265.199219 C 136.738281 263.953125 146.402344 261.597656 154.414062 259.570312 C 154.941406 264.84375 156.699219 268.878906 156.96875 274.402344 M 133.457031 266.734375 C 135.441406 271.394531 137.835938 275.648438 139.589844 280.542969 C 145.242188 279.035156 147.855469 274.488281 153.390625 272.867188 C 153.457031 268.878906 152.136719 266.28125 150.835938 263.660156 C 143.210938 263.800781 140.1875 266.574219 133.457031 266.734375 "/><path style=" stroke:none;fill-rule:evenodd;fill:#ff3600;fill-opacity:1;" d="M 150.835938 263.660156 C 152.136719 266.28125 153.457031 268.878906 153.390625 272.867188 C 147.855469 274.488281 145.242188 279.035156 139.589844 280.542969 C 137.835938 275.648438 135.441406 271.394531 133.457031 266.734375 C 140.1875 266.574219 143.210938 263.800781 150.835938 263.660156 "/><path style=" stroke:none;fill-rule:evenodd;fill:#000000;fill-opacity:1;" d="M 195.816406 287.699219 C 188.347656 289.09375 185.988281 295.59375 177.925781 296.394531 C 175.410156 290.261719 175.074219 282.808594 171.792969 275.425781 C 172.632812 273.472656 182.011719 269.089844 185.082031 269.800781 C 187.734375 270.414062 189.578125 275.535156 191.214844 277.984375 C 193.503906 281.40625 196.566406 284.453125 195.816406 287.699219 M 184.058594 273.382812 C 180.585938 272.457031 178.800781 275.535156 175.371094 275.9375 C 177.171875 282.125 178.171875 286.917969 179.460938 292.816406 C 184.632812 291.003906 189.050781 288.433594 192.238281 284.632812 C 188.867188 282.171875 188.273438 274.5 184.058594 273.382812 "/><path style=" stroke:none;fill-rule:evenodd;fill:#ff3600;fill-opacity:1;" d="M 192.238281 284.632812 C 189.050781 288.433594 184.632812 291.003906 179.460938 292.816406 C 178.171875 286.917969 177.171875 282.125 175.371094 275.9375 C 178.800781 275.535156 180.585938 272.457031 184.058594 273.382812 C 188.273438 274.5 188.867188 282.171875 192.238281 284.632812 "/><g clip-rule="nonzero" clip-path="url(#8b127f2a20)"><path style=" stroke:none;fill-rule:evenodd;fill:#000000;fill-opacity:1;" d="M 195.304688 11.023438 C 197.976562 9.945312 197.664062 5.882812 200.414062 4.886719 C 206.992188 6.292969 212.980469 4.3125 216.773438 6.417969 C 220.039062 8.234375 221.15625 14.019531 226.996094 12.554688 C 228.855469 14.105469 229.332031 17.039062 230.0625 19.71875 C 254.347656 19.6875 272.914062 23.085938 296 22.277344 C 298.753906 32.171875 296.195312 42.40625 294.976562 51.9375 C 294.171875 58.234375 294.398438 64.71875 292.933594 70.347656 C 292.589844 71.667969 290.238281 78.667969 288.84375 80.574219 C 286.515625 83.753906 280.09375 84.753906 275.554688 86.710938 C 262.074219 92.523438 248.761719 99.425781 233.640625 102.054688 C 244.449219 124.992188 261.003906 142.183594 280.15625 156.777344 C 278.664062 165.101562 278.484375 174.925781 278.109375 186.4375 C 277.597656 202.195312 276.515625 218.8125 275.042969 235.535156 C 273.753906 250.1875 269.804688 265.347656 266.355469 280.027344 C 257.285156 318.570312 242.632812 347.285156 213.195312 364.925781 C 184.328125 375.324219 143.777344 376.085938 122.722656 359.300781 C 98.199219 339.746094 84.917969 304.640625 88.988281 260.59375 C 91.730469 230.882812 90.722656 196.492188 95.121094 165.980469 C 97.070312 152.472656 97.570312 142.347656 105.34375 135.296875 C 107.609375 134.257812 109.074219 135.945312 112.5 134.785156 C 116.988281 133.265625 122.253906 127.699219 126.8125 124.558594 C 139.1875 116.03125 154.613281 104.96875 165.660156 95.40625 C 157.199219 89.449219 150.359375 81.363281 142.65625 72.902344 C 139.394531 69.316406 135.507812 65.140625 131.414062 61.652344 C 126.257812 57.261719 120.773438 54.140625 117.613281 48.867188 C 116.859375 36.972656 119.984375 25.609375 122.722656 12.554688 C 123.558594 8.585938 123.121094 3.609375 126.8125 2.839844 C 131.289062 1.90625 139.136719 4.5 144.703125 5.398438 C 157.46875 7.453125 180.378906 7.675781 195.304688 11.023438 M 129.878906 8.464844 C 126.898438 13.210938 126.261719 20.285156 124.765625 28.921875 C 123.472656 36.402344 122.203125 44.984375 123.234375 47.84375 C 124.523438 51.4375 132.476562 55.464844 136.011719 58.585938 C 140.792969 62.800781 144.007812 66.980469 147.769531 70.347656 C 157.179688 78.773438 165.167969 86.8125 174.859375 90.804688 C 179.441406 88.625 180.632812 91.867188 185.59375 91.828125 C 182.9375 65.511719 187.878906 38.632812 193.769531 17.671875 C 175.707031 17.292969 151.203125 11.726562 129.878906 8.464844 M 204.503906 15.113281 C 206.480469 16.039062 208.136719 17.277344 209.105469 19.203125 C 204.132812 43.109375 200.113281 67.296875 196.839844 93.871094 C 199.8125 93.941406 199.828125 94.523438 203.484375 94.382812 C 207.582031 68.722656 213.527344 42.320312 216.773438 14.089844 C 214.1875 11.140625 204.71875 7.816406 204.503906 15.113281 M 219.839844 18.695312 C 222.210938 18.683594 224.394531 20.316406 224.953125 17.671875 C 222.851562 17.617188 220.777344 17.585938 219.839844 18.695312 M 191.214844 41.195312 C 189.648438 52.796875 187.3125 65.71875 187.636719 80.0625 C 187.769531 85.875 187.472656 93.148438 193.261719 92.851562 C 195.734375 81.378906 197.828125 67.660156 199.394531 57.5625 C 201.476562 44.128906 205.027344 30.90625 203.996094 18.183594 C 192.410156 18.113281 192.65625 30.523438 191.214844 41.195312 M 218.304688 24.832031 C 214.238281 47.980469 209.574219 71.695312 207.0625 94.894531 C 215.820312 95.957031 220.460938 93.566406 226.484375 97.449219 C 226.207031 95.644531 226.914062 94.816406 228.019531 94.382812 C 235.261719 98.042969 240.71875 93.835938 247.953125 91.828125 C 252.429688 90.582031 257.339844 89.308594 261.242188 87.734375 C 267.386719 85.257812 284.234375 79.527344 286.285156 73.925781 C 290.628906 62.074219 290.445312 43.71875 292.421875 28.921875 C 267.636719 26.140625 246.625 26.359375 218.304688 24.832031 M 188.148438 96.941406 C 184.8125 95.265625 178.152344 92.796875 175.371094 96.429688 C 190.328125 98.8125 208.464844 99.714844 223.417969 100.007812 C 212.433594 97.710938 197.984375 96.296875 188.148438 96.941406 M 170.257812 99.5 C 152.9375 113.019531 134.964844 125.894531 117.613281 139.390625 C 119.722656 141.023438 123.296875 141.199219 125.277344 142.96875 C 153.917969 148.324219 182.730469 158.269531 213.703125 158.308594 C 229.59375 158.335938 248.910156 161.882812 264.308594 156.777344 C 253.710938 137.71875 238.367188 123.410156 226.996094 105.121094 C 207.039062 101.949219 190.53125 101.5625 170.257812 99.5 M 208.085938 161.378906 C 195.253906 161.140625 183.636719 158.617188 172.300781 156.265625 C 168.335938 155.441406 165.027344 153.628906 161.058594 152.683594 C 144.230469 148.679688 126.097656 147.777344 110.964844 140.921875 C 110.703125 139.460938 110.210938 141.746094 109.945312 141.945312 C 105.589844 172.417969 103.113281 195.820312 99.722656 226.332031 C 98.148438 240.476562 98.421875 255.941406 98.1875 270.824219 C 97.949219 285.863281 95.949219 299.367188 98.699219 312.757812 C 104.917969 343.042969 126.753906 363.296875 159.015625 366.96875 C 175.671875 368.867188 196.316406 366.195312 210.640625 359.808594 C 218.222656 356.429688 226.425781 348.839844 232.617188 341.910156 C 245.882812 327.0625 251.449219 312.808594 257.664062 293.328125 C 260.484375 284.480469 263.101562 274.203125 264.308594 265.199219 C 269.089844 229.527344 274.132812 191.324219 274.53125 157.800781 C 256 164.34375 230.664062 161.796875 208.085938 161.378906 "/></g><path style=" stroke:none;fill-rule:evenodd;fill:#c9c9c9;fill-opacity:1;" d="M 292.421875 28.921875 C 290.445312 43.71875 290.628906 62.070312 286.285156 73.925781 C 284.234375 79.527344 267.382812 85.257812 261.242188 87.734375 C 257.339844 89.304688 252.429688 90.585938 247.953125 91.828125 C 240.71875 93.835938 235.257812 98.046875 228.019531 94.382812 C 226.914062 94.816406 226.207031 95.644531 226.484375 97.449219 C 220.460938 93.566406 215.820312 95.957031 207.0625 94.894531 C 209.574219 71.695312 214.238281 47.980469 218.304688 24.832031 C 246.625 26.359375 267.632812 26.140625 292.421875 28.921875 M 241.308594 61.140625 C 241.894531 60.539062 241.886719 59.335938 241.820312 58.074219 L 238.75 58.074219 C 237.871094 59.8125 238.980469 61.238281 241.308594 61.140625 M 241.820312 69.324219 C 243.449219 69.761719 243.398438 68.519531 244.375 68.300781 C 244.277344 66.863281 243.484375 66.125 241.820312 66.253906 C 240.816406 67.210938 241.664062 68.128906 241.820312 69.324219 "/><g clip-rule="nonzero" clip-path="url(#fe4c65967d)"><g clip-rule="nonzero" clip-path="url(#9fb6232a3b)"><path style=" stroke:none;fill-rule:nonzero;fill:#dddddd;fill-opacity:1;" d="M 174.074219 215.175781 L 214.839844 215.175781 L 214.839844 233.324219 L 174.074219 233.324219 Z M 174.074219 215.175781 "/></g></g><g clip-rule="nonzero" clip-path="url(#517aef3698)"><g clip-rule="nonzero" clip-path="url(#d3c6395d02)"><path style=" stroke:none;fill-rule:nonzero;fill:#dddddd;fill-opacity:1;" d="M 102.1875 176.046875 L 246.050781 176.046875 L 246.050781 319.351562 L 102.1875 319.351562 Z M 102.1875 176.046875 "/></g></g><g clip-rule="nonzero" clip-path="url(#42d8fc8ff9)"><g clip-rule="nonzero" clip-path="url(#8d594e8642)"><path style=" stroke:none;fill-rule:nonzero;fill:#dddddd;fill-opacity:1;" d="M 130.875 281.175781 L 173.523438 281.175781 L 173.523438 319.351562 L 130.875 319.351562 Z M 130.875 281.175781 "/></g></g><g clip-rule="nonzero" clip-path="url(#142440819c)"><g clip-rule="nonzero" clip-path="url(#7703525edd)"><g clip-rule="nonzero" clip-path="url(#0c8f069ae0)"><path style=" stroke:none;fill-rule:nonzero;fill:#ffb309;fill-opacity:1;" d="M 169.160156 196.925781 C 167.027344 209.253906 165.753906 221.105469 164.199219 232.917969 C 164.09375 233.71875 164.269531 234.554688 164.328125 235.644531 C 166.023438 235.773438 167.527344 236.035156 169.015625 235.984375 C 191.875 235.210938 198.828125 240.175781 214.738281 231.933594 C 224.449219 226.894531 224.527344 210.933594 206.683594 205.261719 C 202.183594 203.832031 197.792969 201.75 192.863281 202.238281 C 192.378906 202.285156 191.761719 202.285156 191.394531 202.035156 C 186.234375 198.496094 180.101562 198.53125 174.3125 197.332031 C 172.847656 197.035156 171.3125 197.082031 169.160156 196.925781 Z M 157.019531 286.421875 C 162.902344 286.929688 166.828125 286.105469 173.546875 286.421875 C 184.699219 286.949219 195.746094 285.644531 206.824219 284.921875 C 213.183594 284.507812 218.644531 281.726562 223.476562 277.667969 C 225.796875 275.722656 226.746094 273.324219 225.652344 270.363281 C 220.484375 256.371094 210.140625 248.050781 197.160156 245.890625 C 186.367188 244.09375 175.457031 243.0625 164.484375 243.253906 C 164.003906 243.257812 163.527344 243.550781 163.101562 243.691406 C 161.78125 247.894531 156.886719 277.929688 157.019531 286.421875 Z M 182.125 293.449219 C 180.25 300.363281 181.699219 307.65625 178.605469 314.148438 C 178.480469 314.410156 178.058594 314.527344 177.773438 314.714844 C 174.769531 314.359375 175.101562 311.328125 175.824219 293.5625 C 169.066406 292.546875 162.71875 293.5 156.164062 293.953125 C 152.867188 306.214844 153.921875 319.09375 149.316406 318.832031 C 146.59375 318.679688 146.953125 314.980469 147.234375 312.300781 C 148.933594 296.003906 149.304688 296.664062 148.566406 294.671875 C 135.722656 292.933594 124.578125 293.601562 121.050781 289.511719 C 119.964844 288.253906 120.859375 286.125 122.46875 286.023438 C 125.148438 285.855469 143.335938 287.457031 149.722656 287.015625 C 150.933594 283.898438 149.6875 291.1875 156.636719 244.546875 C 156.6875 244.210938 156.636719 243.863281 156.632812 243.222656 C 155.796875 242.460938 154.734375 241.636719 153.859375 240.644531 C 152.890625 239.558594 153.128906 237.878906 154.269531 237.011719 C 155.222656 236.28125 157.203125 235.488281 158.132812 235.082031 C 159.96875 222.28125 161.449219 209.449219 163.199219 196.488281 C 153.261719 194.984375 142.683594 197.648438 136.601562 196.417969 C 137.433594 195.433594 137.816406 194.515625 138.425781 194.332031 C 144.195312 192.59375 143.507812 192.929688 163.617188 191.449219 C 164.882812 190.511719 164.78125 188.667969 165.226562 187.074219 C 168.082031 176.808594 168.207031 173.671875 171.792969 172.25 C 171.957031 172.992188 172.257812 173.582031 172.1875 174.128906 C 170.601562 186.632812 170.515625 184.949219 170.09375 191.476562 C 172.171875 192.851562 174.480469 192.566406 176.597656 192.976562 C 178.609375 193.367188 180.640625 193.691406 182.671875 193.984375 C 184.851562 194.296875 186.953125 195.214844 189.511719 194.785156 C 191.144531 189.671875 189.703125 194.792969 192.453125 179.417969 C 192.8125 177.417969 193.40625 175.460938 195.554688 173.941406 C 195.996094 174.863281 196.503906 175.515625 196.625 176.234375 C 197.433594 181.050781 196.882812 184.53125 195.777344 195.882812 C 213.710938 201.058594 216.429688 200.570312 223.816406 206.667969 C 226.960938 209.261719 229.0625 212.539062 229.773438 216.574219 C 232.140625 230.015625 229.390625 235.984375 211.0625 243.34375 C 211.46875 245.136719 212.988281 245.390625 214.097656 246.03125 C 221.242188 250.132812 226.757812 256.960938 229.609375 263.34375 C 234.058594 273.304688 230.917969 278.386719 224.429688 282.871094 C 213.25 290.601562 206.308594 289.761719 182.125 293.449219 "/></g></g></g></g></svg>