<svg xmlns="http://www.w3.org/2000/svg" xmlns:xlink="http://www.w3.org/1999/xlink" width="500" zoomAndPan="magnify" viewBox="0 0 375 374.999991" height="500" preserveAspectRatio="xMidYMid meet" version="1.2"><defs><clipPath id="5473ebd149"><path d="M 88.359375 2.640625 L 297.328125 2.640625 L 297.328125 372.390625 L 88.359375 372.390625 Z M 88.359375 2.640625 "/></clipPath><clipPath id="8f4847c12f"><path d="M 176.980469 217.941406 L 211.933594 217.941406 L 211.933594 230.347656 L 176.980469 230.347656 Z M 176.980469 217.941406 "/></clipPath><clipPath id="46aac4351d"><path d="M 209.773438 230.324219 C 184.574219 229.425781 182.925781 228.148438 182.925781 227.175781 C 182.925781 226.273438 184.425781 225.300781 185.773438 224.476562 C 188.175781 222.976562 193.800781 221.324219 196.875 220.273438 C 199.125 219.601562 201.300781 218.699219 202.648438 218.699219 C 203.398438 218.699219 204 218.773438 204.449219 219.148438 C 204.824219 219.449219 205.125 220.273438 205.125 220.800781 C 205.050781 221.324219 204.75 221.925781 204.074219 222.300781 C 202.726562 223.125 199.050781 222.898438 196.050781 223.125 C 192.226562 223.351562 185.175781 224.550781 183.074219 223.5 C 182.175781 223.050781 181.648438 222.148438 181.574219 221.550781 C 181.574219 221.023438 182.023438 220.5 182.550781 220.050781 C 183.375 219.449219 185.023438 219.226562 186.75 219 C 189.375 218.550781 195.148438 217.425781 196.949219 218.25 C 197.925781 218.699219 198.601562 219.675781 198.523438 220.273438 C 198.523438 220.949219 197.773438 221.625 196.726562 222.074219 C 193.949219 223.351562 181.351562 224.175781 178.726562 223.574219 C 177.898438 223.425781 177.449219 223.125 177.226562 222.675781 C 176.925781 222.226562 176.925781 221.398438 177.148438 220.949219 C 177.375 220.5 177.976562 219.976562 178.5 219.898438 C 179.101562 219.898438 180.226562 220.425781 180.523438 220.949219 C 180.75 221.398438 180.675781 222.300781 180.375 222.675781 C 180.148438 223.125 179.398438 223.574219 178.875 223.574219 C 178.273438 223.574219 177.148438 222.898438 177.074219 222.300781 C 176.925781 221.699219 177.375 220.574219 178.351562 219.976562 C 180.523438 218.476562 189.976562 218.25 193.5 218.175781 C 195.375 218.175781 197.023438 218.101562 197.851562 218.625 C 198.300781 219 198.601562 219.75 198.523438 220.273438 C 198.523438 220.800781 198.300781 221.398438 197.625 221.773438 C 195.675781 223.050781 185.324219 224.476562 183.074219 223.5 C 182.101562 223.125 181.574219 222.148438 181.574219 221.550781 C 181.648438 220.949219 182.324219 220.273438 183.375 219.824219 C 186.375 218.550781 200.101562 217.800781 203.101562 218.625 C 204.148438 218.925781 204.75 219.375 204.976562 219.898438 C 205.199219 220.425781 205.273438 221.101562 204.75 221.699219 C 203.175781 223.800781 187.875 229.800781 186.375 228.75 C 185.851562 228.375 185.851562 226.949219 186.449219 226.351562 C 188.398438 224.476562 206.773438 225.675781 209.773438 226.199219 C 210.523438 226.351562 210.824219 226.351562 211.125 226.726562 C 211.574219 227.101562 211.949219 227.925781 211.875 228.523438 C 211.648438 229.199219 209.773438 230.324219 209.773438 230.324219 "/></clipPath><clipPath id="7bdf51df7e"><path d="M 137.59375 179.417969 L 278.640625 179.417969 L 278.640625 316.5625 L 137.59375 316.5625 Z M 137.59375 179.417969 "/></clipPath><clipPath id="79f5a47b3b"><path d="M 137.863281 279.558594 C 141.152344 249.96875 149.710938 245.144531 149.863281 241.980469 C 149.941406 240.316406 147.878906 240 147.496094 238.179688 C 146.730469 234.382812 147.722656 225.046875 150.324219 219.667969 C 153 214.050781 162.859375 207.800781 163.773438 205.351562 C 164.082031 204.71875 163.773438 204.402344 163.773438 203.847656 C 163.773438 203.292969 163.773438 202.183594 163.773438 202.183594 C 163.773438 202.105469 164.003906 201 164.15625 200.445312 C 164.308594 199.890625 164.539062 198.785156 164.539062 198.785156 C 164.539062 198.785156 165.074219 197.753906 165.304688 197.203125 C 165.609375 196.726562 166.066406 195.699219 166.066406 195.699219 C 166.144531 195.699219 166.832031 194.828125 167.214844 194.351562 C 167.597656 193.957031 168.285156 193.085938 168.285156 193.085938 C 168.359375 193.007812 169.203125 192.375 169.660156 192.058594 C 170.117188 191.742188 171.035156 191.109375 171.035156 191.109375 C 171.113281 191.03125 181.046875 187.074219 183.648438 185.414062 C 184.945312 184.621094 186.398438 183.121094 186.398438 183.121094 C 186.398438 183.121094 187.316406 182.488281 187.851562 182.171875 C 188.308594 181.855469 189.226562 181.300781 189.304688 181.300781 C 189.304688 181.222656 190.375 180.90625 190.910156 180.746094 C 191.445312 180.507812 192.511719 180.191406 192.511719 180.191406 C 192.511719 180.191406 193.660156 180.113281 194.195312 180.035156 C 194.730469 180.035156 195.875 179.953125 195.875 179.953125 C 195.875 179.953125 197.023438 180.113281 197.558594 180.191406 C 198.09375 180.351562 199.238281 180.507812 199.238281 180.507812 C 199.238281 180.507812 200.308594 180.984375 200.769531 181.222656 C 201.304688 181.457031 201.683594 181.933594 202.21875 181.855469 C 203.0625 181.773438 204.054688 179.953125 205.277344 179.796875 C 206.730469 179.636719 208.257812 181.300781 210.320312 181.773438 C 213.378906 182.488281 219.265625 181.0625 222.246094 182.722656 C 224.84375 184.148438 225.53125 188.972656 227.671875 190.082031 C 229.429688 190.953125 230.957031 189.605469 233.480469 189.921875 C 238.527344 190.554688 250.527344 192.691406 255.648438 196.332031 C 259.46875 198.941406 262.144531 203.054688 263.367188 206.695312 C 264.4375 209.9375 262.679688 214.367188 263.441406 216.742188 C 263.902344 218.324219 265.660156 219.273438 265.8125 220.300781 C 265.964844 220.933594 265.199219 221.25 265.199219 222.121094 C 265.277344 224.652344 270.550781 232.800781 270.855469 236.519531 C 271.007812 238.894531 269.097656 240.078125 269.480469 242.375 C 270.09375 246.328125 277.351562 251.710938 278.269531 257.167969 C 279.265625 263.101562 276.28125 271.804688 274.296875 276.707031 C 272.921875 280.109375 270.398438 281.851562 269.25 284.621094 C 268.105469 287.390625 269.023438 290.472656 267.492188 293.242188 C 265.351562 297.121094 260.003906 301.074219 255.339844 304.398438 C 250.296875 308.035156 243.648438 313.019531 238.066406 313.890625 C 233.25 314.601562 228.742188 310.570312 224.003906 310.804688 C 218.960938 311.121094 211.46875 316.34375 208.488281 316.183594 C 207.1875 316.105469 207.113281 315.078125 205.890625 314.839844 C 203.136719 314.285156 196.640625 316.898438 192.207031 315.550781 C 187.011719 313.96875 181.125 306.296875 177.226562 304.476562 C 175.011719 303.449219 173.710938 303.6875 171.570312 303.210938 C 168.820312 302.578125 165.457031 302.339844 162.015625 301.074219 C 157.660156 299.492188 151.621094 297.039062 147.570312 293.480469 C 143.519531 289.839844 137.863281 279.558594 137.863281 279.558594 M 203.75 275.207031 C 204.359375 277.023438 205.582031 277.339844 205.660156 277.261719 C 205.738281 277.183594 205.582031 277.023438 205.507812 276.867188 C 205.277344 276.472656 203.75 275.207031 203.75 275.207031 "/></clipPath><clipPath id="bee46f6212"><path d="M 133.558594 284.15625 L 170.691406 284.15625 L 170.691406 316.367188 L 133.558594 316.367188 Z M 133.558594 284.15625 "/></clipPath><clipPath id="61a35620e7"><path d="M 155.101562 287.851562 C 159.449219 291.675781 157.800781 289.199219 158.101562 288.75 C 158.476562 288.375 160.050781 288.898438 161.175781 289.273438 C 162.75 289.875 165.226562 291.300781 166.5 292.351562 C 167.398438 293.101562 167.925781 293.699219 168.449219 294.75 C 169.273438 296.25 170.25 298.648438 170.398438 300.601562 C 170.550781 302.550781 170.023438 305.101562 169.425781 306.675781 C 169.050781 307.800781 168.675781 308.476562 167.851562 309.375 C 166.800781 310.648438 164.925781 312.375 163.125 313.273438 C 161.324219 314.101562 159.148438 315.300781 157.125 314.476562 C 153.375 312.898438 145.726562 300.75 145.574219 297.074219 C 145.574219 295.425781 146.773438 294.523438 147.675781 293.476562 C 148.5 292.425781 149.625 291.449219 150.824219 290.699219 C 151.949219 290.023438 153.300781 289.425781 154.648438 289.125 C 155.925781 288.824219 157.425781 288.675781 158.773438 288.824219 C 160.125 288.976562 161.550781 289.351562 162.824219 289.875 C 164.023438 290.398438 165.300781 291.226562 166.273438 292.125 C 167.324219 293.101562 168.226562 294.226562 168.824219 295.425781 C 169.5 296.625 170.023438 297.976562 170.25 299.324219 C 170.476562 300.675781 170.550781 302.101562 170.324219 303.523438 C 170.101562 304.875 169.726562 306.226562 169.050781 307.425781 C 168.449219 308.699219 167.550781 309.824219 166.574219 310.800781 C 165.601562 311.773438 164.476562 312.601562 163.199219 313.199219 C 162 313.800781 160.574219 314.175781 159.226562 314.398438 C 157.875 314.550781 156.375 314.476562 155.023438 314.25 C 153.75 313.949219 152.324219 313.425781 151.199219 312.75 C 150 312.074219 148.875 311.175781 147.976562 310.125 C 147.074219 309.074219 146.25 307.875 145.726562 306.601562 C 145.199219 305.324219 144.898438 303.898438 144.75 302.550781 C 144.675781 301.199219 144.824219 299.699219 145.199219 298.425781 C 145.5 297.074219 146.101562 295.726562 146.851562 294.601562 C 147.601562 293.476562 148.574219 292.351562 149.625 291.523438 C 150.75 290.699219 152.023438 289.949219 153.300781 289.5 C 154.574219 289.050781 156 288.824219 157.425781 288.75 C 158.773438 288.75 160.199219 288.976562 161.476562 289.351562 C 162.824219 289.800781 164.101562 290.476562 165.226562 291.300781 C 166.351562 292.050781 167.324219 293.101562 168.148438 294.226562 C 168.898438 295.351562 169.574219 296.699219 169.949219 297.976562 C 170.324219 299.324219 171 301.875 170.476562 302.101562 C 169.351562 302.625 157.5 289.800781 158.101562 288.75 C 158.476562 288.226562 162.300781 289.5 164.023438 290.476562 C 165.75 291.523438 167.398438 293.101562 168.449219 294.75 C 169.5 296.476562 170.25 298.574219 170.398438 300.601562 C 170.550781 302.550781 170.023438 305.101562 169.425781 306.675781 C 169.050781 307.800781 168.675781 308.476562 167.851562 309.375 C 166.800781 310.648438 164.925781 312.375 163.125 313.273438 C 161.324219 314.101562 158.773438 313.875 157.125 314.476562 C 155.773438 315 155.324219 316.351562 153.898438 316.351562 C 151.050781 316.425781 144.601562 312.300781 141.300781 309.75 C 138.824219 307.800781 136.648438 305.023438 135.449219 303.226562 C 134.773438 302.175781 134.476562 301.574219 134.25 300.449219 C 133.800781 298.875 133.5 296.398438 133.875 294.449219 C 134.175781 292.574219 135.148438 290.550781 136.351562 288.976562 C 137.550781 287.476562 139.273438 286.125 141.074219 285.300781 C 142.800781 284.476562 145.351562 284.175781 146.925781 284.175781 C 148.125 284.175781 148.875 284.324219 149.925781 284.773438 C 151.425781 285.300781 155.101562 287.851562 155.101562 287.851562 "/></clipPath><clipPath id="c9269eb7c8"><path d="M 126.933594 174.667969 L 149.441406 174.667969 L 149.441406 210.726562 L 126.933594 210.726562 Z M 126.933594 174.667969 "/></clipPath><clipPath id="1bdf7ca72f"><path d="M 142.425781 180 C 134.25 180.300781 133.648438 181.050781 133.125 181.726562 C 132.75 182.398438 132.226562 183.226562 132.449219 183.898438 C 132.601562 184.648438 133.425781 185.398438 134.476562 185.925781 C 136.199219 186.75 140.25 186.148438 142.574219 187.050781 C 144.601562 187.726562 146.699219 189.148438 147.824219 190.273438 C 148.5 191.101562 148.949219 191.625 149.175781 192.675781 C 149.550781 194.175781 149.476562 197.101562 148.800781 198.976562 C 148.050781 200.773438 146.175781 202.648438 144.976562 203.851562 C 144 204.675781 143.476562 204.976562 142.199219 205.648438 C 139.574219 207.074219 131.773438 210.824219 129.300781 210.675781 C 128.324219 210.601562 127.574219 210.148438 127.199219 209.550781 C 126.824219 208.875 126.976562 207.148438 127.425781 206.476562 C 127.875 205.949219 129 205.574219 129.675781 205.648438 C 130.199219 205.648438 130.726562 205.949219 131.101562 206.324219 C 131.476562 206.699219 131.851562 207.226562 131.851562 207.75 C 131.925781 208.425781 131.625 209.550781 131.101562 210 C 130.574219 210.449219 129.449219 210.75 128.773438 210.601562 C 128.25 210.523438 127.648438 210.226562 127.425781 209.773438 C 127.050781 209.101562 126.675781 207.75 127.273438 206.699219 C 128.699219 204.300781 140.101562 201.976562 142.800781 199.199219 C 144.300781 197.699219 145.351562 195.449219 144.976562 194.324219 C 144.75 193.351562 143.625 192.898438 142.351562 192.375 C 140.101562 191.398438 134.175781 191.175781 131.925781 190.351562 C 130.800781 189.976562 130.199219 189.675781 129.523438 189.148438 C 128.851562 188.625 128.324219 188.101562 128.023438 187.273438 C 127.5 186.074219 127.125 183.976562 127.5 182.324219 C 127.949219 180.601562 129.449219 178.425781 130.875 177.148438 C 132.148438 175.949219 133.800781 175.125 135.675781 174.824219 C 138 174.449219 142.726562 174.898438 143.925781 175.949219 C 144.601562 176.625 144.824219 177.898438 144.523438 178.574219 C 144.300781 179.25 142.425781 180 142.425781 180 "/></clipPath><clipPath id="3a8589fad5"><path d="M 151.777344 183.632812 L 173.863281 183.632812 L 173.863281 204.183594 L 151.777344 204.183594 Z M 151.777344 183.632812 "/></clipPath><clipPath id="bbff73fec6"><path d="M 156.675781 189.148438 C 157.875 196.199219 158.25 196.800781 159 197.398438 C 160.125 198.226562 162.824219 199.574219 164.101562 199.125 C 165.226562 198.675781 165.75 196.5 166.425781 194.773438 C 167.25 192.449219 167.476562 188.175781 168.300781 186.300781 C 168.75 185.175781 169.199219 184.351562 169.875 183.976562 C 170.550781 183.601562 171.601562 183.601562 172.273438 183.976562 C 172.875 184.273438 173.550781 185.175781 173.625 185.851562 C 173.699219 186.523438 172.800781 188.101562 172.800781 188.101562 C 172.800781 188.101562 173.324219 185.925781 173.476562 185.925781 C 173.699219 186 172.425781 193.648438 172.648438 196.351562 C 172.800781 198.074219 173.925781 199.425781 173.699219 200.476562 C 173.550781 201.300781 172.800781 202.050781 172.199219 202.351562 C 171.675781 202.648438 171.074219 202.726562 170.550781 202.5 C 169.875 202.199219 168.75 200.851562 168.601562 200.023438 C 168.601562 199.351562 169.199219 198.300781 169.726562 197.925781 C 170.175781 197.550781 170.773438 197.398438 171.300781 197.476562 C 171.976562 197.550781 172.949219 198.074219 173.398438 198.675781 C 173.699219 199.050781 173.851562 199.726562 173.773438 200.25 C 173.625 200.925781 173.101562 201.976562 172.425781 202.273438 C 171.675781 202.574219 170.101562 202.5 169.351562 201.824219 C 168.226562 200.773438 167.773438 197.25 167.550781 195.148438 C 167.398438 193.273438 167.625 191.476562 167.925781 189.675781 C 168.226562 187.875 168.449219 185.175781 169.425781 184.273438 C 170.101562 183.675781 171.523438 183.601562 172.273438 183.976562 C 172.949219 184.273438 173.476562 185.324219 173.625 186.449219 C 173.851562 188.925781 171.675781 195.074219 170.398438 198 C 169.574219 199.875 168.824219 201.449219 167.625 202.425781 C 166.574219 203.324219 165.148438 203.925781 163.949219 204.074219 C 162.824219 204.226562 161.773438 203.925781 160.574219 203.476562 C 159 202.949219 156.75 201.898438 155.398438 200.625 C 154.125 199.5 153 198.148438 152.398438 196.425781 C 151.648438 194.175781 151.648438 189.449219 152.324219 188.023438 C 152.550781 187.425781 153.074219 187.125 153.523438 186.976562 C 153.976562 186.75 154.726562 186.675781 155.175781 186.976562 C 155.773438 187.273438 156.675781 189.148438 156.675781 189.148438 "/></clipPath><clipPath id="8b0d955ea4"><path d="M 176 180.84375 L 195.503906 180.84375 L 195.503906 203.222656 L 176 203.222656 Z M 176 180.84375 "/></clipPath><clipPath id="25721c09c3"><path d="M 186.074219 185.324219 C 180.523438 188.324219 180.148438 193.050781 181.273438 194.925781 C 182.398438 196.726562 185.851562 197.625 188.101562 197.925781 C 190.125 198.226562 192.976562 196.574219 194.101562 197.25 C 195 197.699219 195.523438 199.199219 195.449219 200.023438 C 195.300781 200.699219 194.476562 201.523438 193.875 201.824219 C 193.351562 202.050781 192.75 202.125 192.226562 201.898438 C 191.625 201.675781 190.726562 200.925781 190.5 200.25 C 190.273438 199.574219 190.5 198.449219 190.949219 197.925781 C 191.324219 197.324219 192.449219 196.949219 193.050781 196.949219 C 193.648438 196.875 194.175781 197.175781 194.625 197.550781 C 195 197.851562 195.375 198.375 195.449219 198.898438 C 195.523438 199.574219 195.300781 200.550781 194.773438 201.226562 C 194.023438 202.125 192.074219 202.800781 190.5 203.101562 C 188.851562 203.324219 186.601562 202.949219 185.023438 202.5 C 183.824219 202.199219 182.851562 201.675781 181.875 201.148438 C 180.898438 200.625 179.925781 200.25 179.101562 199.425781 C 178.050781 198.375 176.773438 196.726562 176.324219 195.074219 C 175.875 193.425781 176.101562 191.175781 176.398438 189.375 C 176.699219 187.648438 177.148438 185.625 177.976562 184.425781 C 178.574219 183.601562 179.175781 183.148438 180.148438 182.625 C 181.5 181.875 184.5 180.75 185.699219 180.898438 C 186.375 180.976562 186.824219 181.273438 187.125 181.726562 C 187.425781 182.101562 187.726562 182.699219 187.648438 183.226562 C 187.5 183.898438 186.074219 185.324219 186.074219 185.324219 "/></clipPath><clipPath id="00679e63ef"><path d="M 195.558594 178.503906 L 215.148438 178.503906 L 215.148438 201.539062 L 195.558594 201.539062 Z M 195.558594 178.503906 "/></clipPath><clipPath id="6e32b11322"><path d="M 205.425781 183.300781 C 202.949219 183.898438 201.148438 187.050781 200.699219 188.925781 C 200.324219 190.648438 200.25 192.824219 201.226562 194.101562 C 202.574219 195.601562 206.773438 196.050781 209.101562 196.351562 C 210.824219 196.5 212.773438 195.601562 213.75 196.125 C 214.5 196.5 214.949219 197.550781 215.023438 198.148438 C 215.175781 198.75 215.023438 199.351562 214.648438 199.726562 C 214.125 200.324219 212.550781 201.074219 211.726562 200.851562 C 210.976562 200.550781 210 199.125 209.925781 198.300781 C 209.925781 197.550781 210.523438 196.574219 211.125 196.199219 C 211.726562 195.824219 212.851562 195.75 213.523438 196.050781 C 214.199219 196.273438 214.875 197.175781 215.023438 197.925781 C 215.175781 198.601562 214.949219 199.648438 214.273438 200.175781 C 213.375 201.074219 211.050781 201.375 209.101562 201.449219 C 206.398438 201.449219 201.976562 200.925781 199.726562 199.5 C 197.925781 198.300781 196.574219 196.125 195.976562 194.324219 C 195.449219 192.675781 195.523438 190.949219 195.898438 189.148438 C 196.351562 186.898438 197.550781 183.675781 199.050781 181.875 C 200.324219 180.375 202.425781 179.101562 203.773438 178.648438 C 204.601562 178.425781 205.351562 178.5 205.949219 178.726562 C 206.550781 178.875 207.074219 179.25 207.300781 179.699219 C 207.601562 180.074219 207.824219 180.75 207.75 181.273438 C 207.675781 181.800781 207.375 182.398438 207 182.699219 C 206.550781 183.074219 205.425781 183.300781 205.425781 183.300781 "/></clipPath><clipPath id="7e93bc091a"><path d="M 214.21875 175.757812 L 231.339844 175.757812 L 231.339844 199.785156 L 214.21875 199.785156 Z M 214.21875 175.757812 "/></clipPath><clipPath id="0f859a50f5"><path d="M 221.101562 184.425781 C 225.074219 181.648438 225.148438 180.300781 224.773438 180 C 224.324219 179.625 222.601562 180.300781 221.851562 180.75 C 221.101562 181.199219 220.648438 182.023438 220.199219 182.773438 C 219.824219 183.449219 219.523438 184.199219 219.523438 185.023438 C 219.449219 186 219.675781 187.199219 220.199219 188.25 C 220.800781 189.601562 222 191.101562 223.5 192.226562 C 225.300781 193.648438 229.648438 194.324219 230.699219 195.675781 C 231.300781 196.351562 231.375 197.324219 231.226562 197.925781 C 231.074219 198.523438 230.699219 199.050781 230.175781 199.351562 C 229.574219 199.726562 228.523438 199.875 227.851562 199.574219 C 227.175781 199.351562 226.425781 198.375 226.351562 197.699219 C 226.199219 197.023438 226.574219 195.898438 227.101562 195.449219 C 227.625 195 228.675781 194.699219 229.351562 194.851562 C 230.023438 195 230.925781 195.675781 231.148438 196.351562 C 231.375 197.101562 230.925781 198.824219 230.324219 199.273438 C 229.648438 199.800781 227.925781 199.726562 227.25 199.273438 C 226.726562 198.898438 226.273438 197.851562 226.273438 197.101562 C 226.351562 196.425781 226.875 195.449219 227.550781 195.148438 C 228.226562 194.773438 229.648438 194.773438 230.25 195.226562 C 230.925781 195.75 231.375 197.175781 231.226562 197.925781 C 231.074219 198.601562 230.476562 199.425781 229.648438 199.648438 C 228.074219 200.101562 224.175781 198.675781 221.925781 197.398438 C 219.75 196.199219 217.648438 194.101562 216.375 192.226562 C 215.324219 190.726562 214.574219 189.148438 214.351562 187.425781 C 214.125 185.699219 214.425781 183.675781 215.101562 182.023438 C 215.773438 180.226562 216.976562 178.050781 218.476562 177 C 219.898438 176.023438 222.148438 175.726562 223.875 175.800781 C 225.523438 175.800781 227.699219 176.023438 228.675781 177.148438 C 229.800781 178.273438 230.175781 181.351562 229.800781 182.925781 C 229.574219 184.125 228.675781 185.023438 227.625 185.851562 C 226.199219 186.976562 223.199219 188.925781 221.851562 188.699219 C 221.023438 188.550781 220.125 187.5 219.976562 186.824219 C 219.898438 186.148438 221.101562 184.425781 221.101562 184.425781 "/></clipPath><clipPath id="b093874ea6"><path d="M 231.691406 173.191406 L 244.183594 173.191406 L 244.183594 199.320312 L 231.691406 199.320312 Z M 231.691406 173.191406 "/></clipPath><clipPath id="79538ff23e"><path d="M 242.699219 177.675781 C 240.601562 178.800781 239.773438 179.773438 239.851562 180.449219 C 240 181.273438 242.101562 181.800781 242.773438 182.699219 C 243.300781 183.523438 243.523438 184.273438 243.601562 185.324219 C 243.824219 187.199219 243.824219 190.574219 242.925781 192.601562 C 242.023438 194.625 239.851562 196.425781 238.199219 197.550781 C 237 198.449219 235.574219 199.351562 234.449219 199.273438 C 233.476562 199.199219 232.125 198.375 231.898438 197.625 C 231.601562 196.800781 232.199219 195.226562 232.800781 194.699219 C 233.324219 194.25 234.523438 194.175781 235.125 194.398438 C 235.648438 194.550781 236.101562 194.925781 236.398438 195.375 C 236.699219 195.976562 236.773438 197.101562 236.550781 197.773438 C 236.398438 198.226562 235.949219 198.675781 235.5 198.898438 C 234.898438 199.199219 233.699219 199.273438 233.101562 198.976562 C 232.5 198.675781 231.824219 197.773438 231.75 197.101562 C 231.675781 196.351562 231.976562 195.449219 232.574219 194.851562 C 233.324219 194.023438 235.351562 194.101562 236.324219 193.199219 C 237.449219 192.074219 238.5 189.824219 238.800781 188.476562 C 239.023438 187.648438 239.023438 187.125 238.726562 186.226562 C 238.273438 184.726562 235.5 182.25 235.125 180.675781 C 234.898438 179.699219 235.125 178.875 235.425781 178.050781 C 235.726562 177.226562 236.25 176.550781 237 175.875 C 238.050781 174.976562 240.375 173.398438 241.5 173.25 C 242.175781 173.175781 242.699219 173.324219 243.148438 173.625 C 243.523438 173.925781 243.976562 174.449219 244.050781 174.976562 C 244.199219 175.425781 244.125 176.101562 243.898438 176.550781 C 243.675781 177.074219 242.699219 177.675781 242.699219 177.675781 "/></clipPath><clipPath id="2809080454"><path d="M 245.285156 171.5625 L 259.621094 171.5625 L 259.621094 199.851562 L 245.285156 199.851562 Z M 245.285156 171.5625 "/></clipPath><clipPath id="c0e6df39b9"><path d="M 258 175.726562 C 254.550781 179.476562 256.273438 178.726562 257.101562 179.101562 C 258 179.550781 258.898438 180.75 259.273438 181.949219 C 259.875 183.601562 259.574219 186.523438 259.125 188.476562 C 258.75 190.273438 257.699219 192.375 256.875 193.5 C 256.273438 194.25 255.75 194.398438 254.925781 195.074219 C 253.351562 196.199219 249.601562 199.800781 247.875 199.800781 C 246.824219 199.800781 245.625 198.75 245.398438 198 C 245.175781 197.25 245.851562 195.601562 246.449219 195.148438 C 247.050781 194.699219 248.175781 194.699219 248.851562 195 C 249.449219 195.226562 250.125 196.199219 250.273438 196.800781 C 250.425781 197.324219 250.351562 197.925781 250.050781 198.449219 C 249.75 198.976562 248.851562 199.726562 248.175781 199.800781 C 247.425781 199.875 246.375 199.5 245.925781 198.976562 C 245.476562 198.449219 245.101562 197.550781 245.398438 196.648438 C 245.925781 194.851562 251.699219 191.851562 253.050781 189.976562 C 253.875 188.925781 254.101562 188.023438 254.324219 187.125 C 254.550781 186.300781 254.699219 185.398438 254.550781 184.648438 C 254.398438 183.898438 254.023438 183.074219 253.5 182.476562 C 252.898438 181.875 251.550781 181.800781 251.023438 181.050781 C 250.351562 180.226562 249.976562 178.726562 249.976562 177.75 C 250.050781 176.925781 250.273438 176.324219 250.875 175.648438 C 251.925781 174.375 255.226562 171.601562 256.648438 171.601562 C 257.550781 171.601562 258.523438 172.5 258.75 173.175781 C 258.976562 173.925781 258 175.726562 258 175.726562 "/></clipPath><clipPath id="949109cdf2"><path d="M 264.582031 155.851562 L 272.65625 155.851562 L 272.65625 181.164062 L 264.582031 181.164062 Z M 264.582031 155.851562 "/></clipPath><clipPath id="1a6393fbf0"><path d="M 269.101562 157.949219 C 272.550781 175.351562 273 177.675781 272.398438 179.101562 C 272.023438 180.074219 271.125 180.976562 270.449219 181.125 C 269.699219 181.199219 268.351562 180.375 267.976562 179.699219 C 267.675781 179.175781 267.824219 178.125 268.199219 177.523438 C 268.5 177 269.398438 176.476562 270.074219 176.476562 C 270.75 176.550781 272.023438 177.523438 272.324219 178.125 C 272.550781 178.574219 272.476562 179.175781 272.25 179.625 C 272.023438 180.148438 271.273438 180.976562 270.675781 181.050781 C 269.925781 181.125 268.648438 180.75 268.125 179.925781 C 267.148438 178.574219 268.125 175.125 267.675781 172.199219 C 267.148438 168.226562 264.523438 160.726562 264.601562 158.398438 C 264.601562 157.574219 264.75 157.199219 264.976562 156.824219 C 265.273438 156.449219 265.875 156.074219 266.324219 155.925781 C 266.851562 155.851562 267.523438 155.925781 267.976562 156.148438 C 268.425781 156.523438 269.101562 157.949219 269.101562 157.949219 "/></clipPath><clipPath id="54e8cfb395"><path d="M 271.265625 192.066406 L 275.5625 192.066406 L 275.5625 195.671875 L 271.265625 195.671875 Z M 271.265625 192.066406 "/></clipPath><clipPath id="764c0ec1bb"><path d="M 275.550781 193.351562 C 273.601562 196.351562 271.800781 195.824219 271.425781 195.148438 C 271.050781 194.550781 271.425781 192.675781 271.949219 192.226562 C 272.550781 191.773438 274.949219 192.449219 274.949219 192.449219 "/></clipPath><clipPath id="c6bb2f0bcb"><path d="M 271.265625 191.539062 L 275.5625 191.539062 L 275.5625 195.148438 L 271.265625 195.148438 Z M 271.265625 191.539062 "/></clipPath><clipPath id="91fe03bda9"><path d="M 275.550781 192.824219 C 273.601562 195.824219 271.800781 195.300781 271.425781 194.625 C 271.050781 194.023438 271.425781 192.148438 271.949219 191.699219 C 272.550781 191.25 274.949219 191.925781 274.949219 191.925781 "/></clipPath><clipPath id="22164c1ae4"><path d="M 151.59375 229.625 L 188.769531 229.625 L 188.769531 267.132812 L 151.59375 267.132812 Z M 151.59375 229.625 "/></clipPath><clipPath id="8972501be5"><path d="M 156.675781 232.574219 C 157.199219 248.851562 158.175781 251.25 159.375 253.574219 C 160.5 255.675781 162.148438 258 163.425781 259.351562 C 164.324219 260.324219 164.851562 260.851562 165.976562 261.375 C 167.476562 261.976562 170.023438 262.574219 171.824219 262.273438 C 173.625 261.976562 175.351562 261.148438 176.925781 259.574219 C 179.324219 257.175781 182.175781 251.476562 183.226562 247.351562 C 184.199219 243.675781 184.050781 238.726562 183.523438 236.175781 C 183.226562 234.75 182.175781 234 182.023438 232.949219 C 181.875 232.199219 181.875 231.300781 182.25 230.699219 C 182.625 230.175781 183.523438 229.648438 184.199219 229.648438 C 184.875 229.648438 185.851562 230.175781 186.226562 230.699219 C 186.601562 231.226562 186.75 232.351562 186.449219 232.949219 C 186.226562 233.550781 185.398438 234.300781 184.800781 234.449219 C 184.125 234.601562 183.074219 234.300781 182.625 233.851562 C 182.101562 233.398438 181.726562 232.351562 181.875 231.675781 C 181.949219 231 182.625 230.175781 183.226562 229.875 C 183.824219 229.574219 184.800781 229.574219 185.476562 230.023438 C 186.523438 230.625 187.726562 232.648438 188.25 234.75 C 189.074219 237.75 188.476562 243.375 187.949219 246.75 C 187.574219 249.226562 186.898438 251.023438 186 253.199219 C 185.101562 255.375 184.050781 257.773438 182.625 259.726562 C 181.199219 261.601562 179.476562 263.476562 177.675781 264.675781 C 175.875 265.800781 173.324219 266.699219 171.824219 266.925781 C 170.851562 267.074219 170.398438 267 169.5 266.851562 C 168.375 266.699219 166.800781 266.476562 165.523438 266.023438 C 164.175781 265.574219 162.824219 264.976562 161.550781 263.925781 C 159.675781 262.425781 157.425781 259.5 156 257.25 C 154.800781 255.300781 153.976562 253.351562 153.300781 251.398438 C 152.625 249.523438 152.25 248.175781 151.949219 245.851562 C 151.574219 242.324219 151.425781 234.226562 152.101562 232.050781 C 152.324219 231.300781 152.625 231 153 230.699219 C 153.449219 230.398438 154.125 230.25 154.648438 230.324219 C 155.101562 230.398438 155.773438 230.699219 156.074219 231.074219 C 156.449219 231.449219 156.675781 232.574219 156.675781 232.574219 "/></clipPath><clipPath id="afcdbdf6ee"><path d="M 219.953125 225 L 227.496094 225 L 227.496094 259.1875 L 219.953125 259.1875 Z M 219.953125 225 "/></clipPath><clipPath id="fc682a3898"><path d="M 224.398438 227.175781 C 224.925781 240.976562 228.226562 253.574219 227.175781 256.949219 C 226.800781 258.226562 225.976562 258.976562 225.300781 259.125 C 224.699219 259.273438 223.800781 258.824219 223.351562 258.449219 C 222.976562 258.074219 222.898438 257.625 222.824219 256.949219 C 222.675781 255.976562 222.601562 253.949219 222.898438 253.125 C 223.125 252.601562 223.351562 252.226562 223.726562 252 C 224.25 251.699219 225.226562 251.550781 225.824219 251.773438 C 226.351562 252 227.101562 252.75 227.175781 253.351562 C 227.25 254.023438 226.648438 255.375 226.050781 255.75 C 225.523438 256.125 224.476562 256.050781 223.949219 255.75 C 223.425781 255.449219 222.898438 254.625 222.824219 254.023438 C 222.75 253.425781 223.125 252.523438 223.574219 252.148438 C 224.023438 251.699219 225 251.476562 225.601562 251.699219 C 226.273438 251.925781 226.949219 252.898438 227.25 253.800781 C 227.550781 254.925781 227.550781 257.101562 226.949219 258 C 226.5 258.675781 225.449219 259.199219 224.699219 259.125 C 224.023438 259.050781 223.273438 258.375 222.898438 257.476562 C 222.074219 255.824219 222.976562 252.523438 222.75 249.074219 C 222.375 243.449219 219.074219 230.550781 220.199219 227.175781 C 220.574219 225.976562 221.398438 225.300781 222 225.074219 C 222.523438 224.925781 223.125 225.148438 223.5 225.449219 C 223.949219 225.75 224.398438 227.175781 224.398438 227.175781 "/></clipPath><clipPath id="a5a16f01ee"><path d="M 222.085938 221.246094 L 251.101562 221.246094 L 251.101562 253.261719 L 222.085938 253.261719 Z M 222.085938 221.246094 "/></clipPath><clipPath id="604aadfdf4"><path d="M 224.25 221.699219 C 234.824219 221.324219 236.023438 221.25 236.925781 221.625 C 237.675781 221.925781 238.199219 222.449219 238.726562 223.050781 C 239.324219 223.726562 239.925781 224.476562 240.226562 225.375 C 240.523438 226.425781 240.675781 228.074219 240.449219 229.125 C 240.226562 230.023438 239.851562 230.550781 239.023438 231.375 C 237.449219 232.875 230.925781 234.148438 230.851562 236.25 C 230.773438 239.550781 248.550781 246.898438 250.5 249.601562 C 251.023438 250.425781 251.175781 251.023438 251.023438 251.550781 C 250.800781 252.226562 249.675781 253.125 249 253.199219 C 248.398438 253.273438 247.574219 252.824219 247.199219 252.375 C 246.824219 251.925781 246.675781 250.949219 246.898438 250.351562 C 247.050781 249.824219 247.800781 249.148438 248.324219 249 C 248.925781 248.851562 249.898438 249 250.351562 249.449219 C 250.800781 249.976562 251.023438 251.398438 250.875 252 C 250.726562 252.449219 250.351562 252.824219 249.898438 252.976562 C 249.375 253.199219 248.851562 253.273438 247.875 252.976562 C 244.5 251.851562 229.050781 242.175781 226.800781 238.199219 C 225.898438 236.550781 225.824219 235.125 226.5 233.773438 C 227.476562 231.824219 233.101562 230.398438 234.523438 228.898438 C 235.273438 228.148438 235.875 227.25 235.726562 226.648438 C 235.574219 226.125 234.523438 225.824219 233.476562 225.601562 C 231.375 225.148438 225.300781 226.875 223.574219 225.976562 C 222.75 225.523438 222.226562 224.476562 222.226562 223.875 C 222.148438 223.351562 222.449219 222.75 222.824219 222.375 C 223.125 222 224.25 221.699219 224.25 221.699219 "/></clipPath><clipPath id="f08c3f15f1"><path d="M 177.320312 280.851562 L 183.367188 280.851562 L 183.367188 298.582031 L 177.320312 298.582031 Z M 177.320312 280.851562 "/></clipPath><clipPath id="db3651712a"><path d="M 182.175781 282.898438 C 182.773438 297.75 181.800781 298.351562 181.125 298.5 C 180.601562 298.648438 180.074219 298.425781 179.625 298.125 C 179.175781 297.75 178.648438 296.851562 178.648438 296.175781 C 178.648438 295.574219 179.175781 294.601562 179.699219 294.226562 C 180.226562 293.925781 181.273438 293.773438 181.875 294 C 182.476562 294.300781 183.074219 295.125 183.226562 295.726562 C 183.375 296.175781 183.375 296.773438 183.074219 297.148438 C 182.773438 297.75 181.949219 298.425781 181.351562 298.5 C 180.675781 298.574219 179.773438 298.351562 179.25 297.824219 C 178.425781 296.851562 178.351562 294.449219 178.125 292.351562 C 177.75 289.574219 176.851562 284.101562 177.75 282.300781 C 178.199219 281.398438 179.25 280.949219 179.925781 280.875 C 180.449219 280.800781 181.050781 281.101562 181.425781 281.476562 C 181.800781 281.773438 182.175781 282.898438 182.175781 282.898438 "/></clipPath><clipPath id="e97bc6e297"><path d="M 178.707031 281.042969 L 196.59375 281.042969 L 196.59375 311.324219 L 178.707031 311.324219 Z M 178.707031 281.042969 "/></clipPath><clipPath id="804b845237"><path d="M 183.300781 299.625 C 183.75 310.800781 182.550781 311.25 181.800781 311.25 C 181.273438 311.25 180.675781 310.875 180.300781 310.5 C 179.925781 310.050781 179.773438 309.675781 179.625 308.851562 C 179.175781 306.449219 179.324219 298.5 179.699219 294.226562 C 180 290.773438 180.375 287.175781 181.351562 285.074219 C 181.949219 283.726562 182.925781 282.898438 183.824219 282.300781 C 184.574219 281.773438 185.101562 281.476562 186.226562 281.25 C 188.175781 280.949219 193.351562 281.101562 195 281.925781 C 195.824219 282.375 196.351562 283.050781 196.5 283.726562 C 196.648438 284.398438 196.351562 285.523438 195.824219 285.976562 C 195.226562 286.5 193.574219 286.800781 192.824219 286.425781 C 192.148438 286.199219 191.550781 285.226562 191.476562 284.476562 C 191.476562 283.648438 192.449219 282.300781 193.125 281.851562 C 193.574219 281.625 194.25 281.625 194.699219 281.851562 C 195.300781 282.074219 196.273438 282.75 196.425781 283.425781 C 196.574219 284.25 196.273438 285.675781 195.449219 286.351562 C 193.949219 287.476562 188.023438 285.300781 186.226562 286.800781 C 184.574219 288.148438 184.800781 291.226562 184.425781 294.226562 C 183.824219 298.574219 185.324219 308.398438 183.898438 310.425781 C 183.375 311.175781 182.476562 311.324219 181.800781 311.25 C 181.125 311.175781 180.449219 310.800781 179.925781 309.976562 C 178.949219 308.398438 178.648438 302.25 178.726562 300.375 C 178.726562 299.625 178.726562 299.175781 179.023438 298.800781 C 179.398438 298.273438 180.300781 297.75 180.898438 297.675781 C 181.425781 297.601562 182.023438 297.898438 182.398438 298.199219 C 182.851562 298.5 183.300781 299.625 183.300781 299.625 "/></clipPath><clipPath id="df60233398"><path d="M 204.820312 283.078125 L 210.363281 283.078125 L 210.363281 294.65625 L 204.820312 294.65625 Z M 204.820312 283.078125 "/></clipPath><clipPath id="65869128bd"><path d="M 209.324219 285.074219 C 210.148438 293.550781 209.324219 294.523438 208.574219 294.601562 C 207.898438 294.75 206.476562 294 206.101562 293.398438 C 205.800781 292.875 205.875 291.824219 206.175781 291.300781 C 206.476562 290.699219 207.300781 290.101562 207.976562 290.101562 C 208.726562 290.101562 210.074219 290.925781 210.300781 291.601562 C 210.523438 292.273438 210.074219 293.851562 209.476562 294.226562 C 208.875 294.675781 207.449219 294.75 206.699219 294.148438 C 205.425781 293.101562 204.824219 287.324219 204.824219 285.601562 C 204.824219 284.851562 204.898438 284.476562 205.199219 284.023438 C 205.5 283.648438 206.023438 283.199219 206.550781 283.125 C 207.074219 283.050781 208.125 283.273438 208.574219 283.648438 C 208.949219 283.949219 209.324219 285.074219 209.324219 285.074219 "/></clipPath><clipPath id="a312fbea82"><path d="M 205.902344 291.234375 L 211.53125 291.234375 L 211.53125 300.679688 L 205.902344 300.679688 Z M 205.902344 291.234375 "/></clipPath><clipPath id="e40c126498"><path d="M 210.375 292.949219 C 210.75 300.375 209.476562 300.75 208.800781 300.601562 C 208.125 300.449219 207.226562 299.550781 207 298.875 C 206.851562 298.273438 207.148438 297.300781 207.523438 296.851562 C 207.976562 296.398438 208.949219 296.023438 209.550781 296.101562 C 210.148438 296.175781 211.050781 296.773438 211.273438 297.375 C 211.574219 297.898438 211.574219 298.949219 211.199219 299.476562 C 210.898438 300.074219 210.074219 300.601562 209.398438 300.675781 C 208.800781 300.675781 207.824219 300.300781 207.449219 299.773438 C 207.074219 299.324219 206.851562 298.273438 207.074219 297.675781 C 207.226562 297.074219 207.976562 296.324219 208.574219 296.175781 C 209.175781 296.023438 210.226562 296.25 210.675781 296.625 C 211.125 296.925781 211.5 297.449219 211.5 298.050781 C 211.5 298.726562 210.976562 300 210.375 300.375 C 209.773438 300.675781 208.5 300.675781 207.75 300.148438 C 206.699219 299.25 206.023438 295.425781 205.949219 294 C 205.875 293.324219 205.875 292.875 206.101562 292.425781 C 206.324219 291.976562 206.851562 291.523438 207.300781 291.375 C 207.898438 291.148438 208.949219 291.300781 209.476562 291.601562 C 209.925781 291.898438 210.375 292.949219 210.375 292.949219 "/></clipPath><clipPath id="6a4f6e1cfb"><path d="M 203.316406 271.9375 L 207.613281 271.9375 L 207.613281 275.621094 L 203.316406 275.621094 Z M 203.316406 271.9375 "/></clipPath><clipPath id="090080e010"><path d="M 207.601562 273.226562 C 205.648438 276.300781 203.925781 275.699219 203.476562 275.101562 C 203.101562 274.425781 203.476562 272.625 204.074219 272.175781 C 204.601562 271.648438 207 272.324219 207 272.324219 "/></clipPath><clipPath id="d572c03083"><path d="M 216.359375 280.773438 L 237.242188 280.773438 L 237.242188 299.628906 L 216.359375 299.628906 Z M 216.359375 280.773438 "/></clipPath><clipPath id="e40ef995bb"><path d="M 225.300781 285.300781 C 220.949219 288.226562 220.949219 291 221.476562 292.199219 C 221.851562 293.175781 222.824219 293.773438 223.726562 294.148438 C 224.773438 294.675781 226.351562 294.675781 227.550781 294.675781 C 228.601562 294.75 229.5 294.898438 230.398438 294.523438 C 231.601562 294.074219 232.875 292.199219 233.773438 291.75 C 234.375 291.523438 234.898438 291.449219 235.351562 291.675781 C 236.023438 291.898438 237.074219 293.25 237.226562 293.925781 C 237.300781 294.449219 237.074219 295.050781 236.773438 295.425781 C 236.398438 295.949219 235.425781 296.476562 234.75 296.476562 C 234.074219 296.476562 233.101562 295.875 232.726562 295.351562 C 232.425781 294.898438 232.273438 294.375 232.351562 293.851562 C 232.425781 293.175781 232.949219 292.199219 233.550781 291.898438 C 234.148438 291.601562 235.273438 291.449219 235.875 291.824219 C 236.550781 292.199219 237.300781 293.550781 237.148438 294.449219 C 237.074219 295.648438 235.648438 297.449219 234.300781 298.273438 C 232.574219 299.324219 229.125 299.550781 227.023438 299.550781 C 225.449219 299.550781 224.023438 299.25 222.675781 298.800781 C 221.476562 298.273438 220.273438 297.523438 219.300781 296.699219 C 218.398438 295.949219 217.5 295.273438 217.050781 294.148438 C 216.375 292.5 216.226562 289.5 216.75 287.476562 C 217.273438 285.675781 218.550781 283.648438 219.898438 282.523438 C 221.101562 281.550781 223.050781 280.949219 224.101562 280.875 C 224.773438 280.800781 225.300781 280.875 225.75 281.25 C 226.273438 281.699219 226.800781 282.976562 226.726562 283.648438 C 226.574219 284.324219 225.300781 285.300781 225.300781 285.300781 "/></clipPath><clipPath id="4571b94b85"><path d="M 238.746094 260.824219 L 244 260.824219 L 244 284.117188 L 238.746094 284.117188 Z M 238.746094 260.824219 "/></clipPath><clipPath id="de5dc87b2d"><path d="M 243.976562 263.324219 C 242.773438 275.625 244.125 280.648438 243.300781 282.449219 C 242.925781 283.425781 242.101562 284.023438 241.425781 284.101562 C 240.898438 284.175781 240.074219 283.726562 239.699219 283.351562 C 239.398438 282.976562 239.25 282.523438 239.25 282.074219 C 239.25 281.699219 239.324219 281.175781 239.625 280.800781 C 240 280.425781 240.824219 279.976562 241.425781 279.976562 C 241.949219 280.050781 242.773438 280.574219 243.074219 280.949219 C 243.300781 281.324219 243.375 281.851562 243.375 282.300781 C 243.300781 282.675781 243.148438 283.199219 242.851562 283.5 C 242.398438 283.800781 241.574219 284.175781 240.976562 284.101562 C 240.449219 284.023438 239.851562 283.574219 239.476562 282.976562 C 238.800781 281.925781 238.875 279.976562 238.800781 277.800781 C 238.648438 274.125 238.875 265.199219 239.699219 262.800781 C 240 261.898438 240.375 261.449219 240.824219 261.148438 C 241.273438 260.925781 241.875 260.773438 242.324219 260.925781 C 243 261.226562 243.976562 263.324219 243.976562 263.324219 "/></clipPath><clipPath id="c562a55018"><path d="M 239 273.214844 L 258.03125 273.214844 L 258.03125 291.367188 L 239 291.367188 Z M 239 273.214844 "/></clipPath><clipPath id="2cf6bfbb1c"><path d="M 243.449219 284.175781 C 243.976562 290.851562 243.148438 291.300781 242.550781 291.300781 C 241.800781 291.375 240.675781 290.851562 240.226562 290.023438 C 239.476562 288.601562 240.449219 284.175781 241.199219 281.851562 C 241.800781 279.824219 242.851562 278.023438 243.824219 276.601562 C 244.648438 275.550781 245.476562 274.574219 246.523438 274.050781 C 247.425781 273.523438 248.476562 273.375 249.523438 273.300781 C 250.726562 273.226562 252.300781 273.226562 253.273438 273.75 C 254.101562 274.125 254.625 274.800781 255.226562 275.699219 C 256.125 277.125 257.023438 279.601562 257.398438 281.550781 C 257.851562 283.425781 258.300781 285.976562 257.773438 287.175781 C 257.476562 288 256.800781 288.601562 256.125 288.824219 C 255.449219 288.976562 254.324219 288.824219 253.875 288.300781 C 253.273438 287.773438 252.824219 286.125 253.199219 285.375 C 253.5 284.625 255.074219 283.875 255.824219 283.949219 C 256.5 284.023438 257.324219 284.773438 257.699219 285.375 C 257.925781 285.824219 258 286.425781 257.851562 286.949219 C 257.699219 287.550781 257.023438 288.523438 256.351562 288.675781 C 255.601562 288.976562 254.25 288.75 253.5 287.925781 C 252 286.425781 252.300781 278.925781 250.949219 277.949219 C 250.273438 277.425781 249.226562 277.800781 248.550781 278.101562 C 247.949219 278.398438 247.574219 279.148438 247.125 279.824219 C 246.523438 280.726562 245.925781 281.699219 245.476562 283.050781 C 244.800781 285 244.875 289.5 243.976562 290.625 C 243.601562 291.148438 243.074219 291.300781 242.550781 291.300781 C 241.875 291.375 241.050781 291.148438 240.523438 290.550781 C 239.699219 289.5 239.023438 286.125 239.023438 284.851562 C 239.101562 284.175781 239.25 283.726562 239.550781 283.351562 C 239.851562 282.976562 240.449219 282.601562 240.976562 282.523438 C 241.425781 282.449219 242.101562 282.601562 242.550781 282.898438 C 242.925781 283.125 243.449219 284.175781 243.449219 284.175781 "/></clipPath><clipPath id="22b279ca77"><path d="M 180.011719 323.726562 L 206.253906 323.726562 L 206.253906 348.648438 L 180.011719 348.648438 Z M 180.011719 323.726562 "/></clipPath><clipPath id="8a578fd46c"><path d="M 184.875 333.148438 C 184.949219 347.851562 184.351562 348.226562 183.824219 348.449219 C 183.300781 348.675781 182.699219 348.675781 182.175781 348.375 C 181.648438 348.148438 181.125 347.550781 180.824219 346.726562 C 180.375 345.375 180.601562 342.898438 180.824219 340.574219 C 181.199219 337.351562 182.023438 332.101562 183.375 329.324219 C 184.273438 327.449219 185.550781 325.949219 186.824219 325.050781 C 187.800781 324.300781 189 324 190.125 323.851562 C 191.25 323.625 192.523438 323.773438 193.574219 324.074219 C 194.398438 324.375 195 324.601562 195.898438 325.351562 C 197.625 326.625 200.476562 329.550781 202.199219 332.101562 C 203.925781 334.648438 206.398438 338.851562 206.175781 340.648438 C 206.101562 341.476562 205.425781 342.148438 204.824219 342.375 C 204.074219 342.675781 202.5 342.300781 201.976562 341.773438 C 201.449219 341.25 201.300781 340.199219 201.449219 339.523438 C 201.675781 338.925781 202.425781 338.101562 203.023438 337.949219 C 203.699219 337.726562 204.75 337.875 205.273438 338.324219 C 205.800781 338.699219 206.25 339.675781 206.175781 340.351562 C 206.175781 341.023438 205.574219 341.925781 205.050781 342.300781 C 204.449219 342.601562 203.550781 342.824219 202.800781 342.375 C 201.300781 341.625 199.800781 336.898438 198.148438 334.726562 C 196.800781 332.925781 195.074219 331.125 193.875 330 C 193.125 329.324219 192.675781 328.726562 192 328.574219 C 191.175781 328.425781 190.050781 328.800781 189.300781 329.324219 C 188.550781 329.851562 188.023438 330.75 187.5 331.726562 C 186.824219 333.074219 186.300781 334.949219 185.925781 336.976562 C 185.398438 339.75 185.925781 345.226562 185.324219 346.949219 C 185.023438 347.625 184.800781 348 184.351562 348.226562 C 183.824219 348.523438 182.773438 348.601562 182.175781 348.375 C 181.726562 348.226562 181.351562 347.851562 181.050781 347.25 C 180.523438 346.351562 180.523438 344.625 180.375 342.898438 C 180.148438 340.199219 179.851562 334.351562 180.375 332.625 C 180.601562 331.875 180.898438 331.574219 181.351562 331.273438 C 181.726562 330.976562 182.398438 330.824219 182.851562 330.898438 C 183.375 330.976562 183.976562 331.273438 184.273438 331.648438 C 184.648438 332.023438 184.875 333.148438 184.875 333.148438 "/></clipPath><clipPath id="c863507dde"><path d="M 201.484375 338.433594 L 207.042969 338.433594 L 207.042969 349.550781 L 201.484375 349.550781 Z M 201.484375 338.433594 "/></clipPath><clipPath id="1adfc90e12"><path d="M 206.101562 340.5 C 206.699219 348.824219 206.25 349.125 205.800781 349.351562 C 205.351562 349.5 204.75 349.648438 204.226562 349.425781 C 203.625 349.199219 202.726562 348.148438 202.648438 347.398438 C 202.574219 346.726562 203.25 345.601562 203.851562 345.300781 C 204.449219 345 206.023438 345.226562 206.550781 345.75 C 207 346.273438 207.148438 347.773438 206.851562 348.449219 C 206.550781 348.976562 205.648438 349.5 205.050781 349.5 C 204.375 349.574219 203.476562 349.199219 203.101562 348.675781 C 202.726562 348.074219 202.726562 346.5 203.101562 345.898438 C 203.398438 345.375 204.375 345 204.976562 345.074219 C 205.648438 345.074219 206.550781 345.523438 206.773438 346.125 C 207.148438 346.800781 206.773438 348.523438 206.324219 349.050781 C 205.949219 349.425781 205.273438 349.574219 204.75 349.5 C 204.300781 349.5 203.699219 349.425781 203.324219 348.898438 C 202.351562 347.773438 201.375 342.75 201.523438 340.949219 C 201.601562 340.125 201.898438 339.449219 202.351562 339 C 202.726562 338.699219 203.324219 338.476562 203.851562 338.476562 C 204.375 338.476562 204.976562 338.773438 205.351562 339.074219 C 205.726562 339.449219 206.101562 340.5 206.101562 340.5 "/></clipPath><clipPath id="c1fb35dd17"><path d="M 212.828125 318.320312 L 237.207031 318.320312 L 237.207031 345.40625 L 212.828125 345.40625 Z M 212.828125 318.320312 "/></clipPath><clipPath id="91ce56aecd"><path d="M 221.550781 329.550781 C 217.726562 335.101562 217.273438 337.425781 217.648438 338.625 C 217.875 339.449219 218.476562 339.976562 219.300781 340.351562 C 220.648438 340.875 223.199219 340.800781 225.148438 340.351562 C 227.25 339.824219 230.324219 338.625 231.449219 337.050781 C 232.425781 335.773438 232.5 333.675781 232.351562 332.324219 C 232.273438 331.199219 231.824219 330.375 231.074219 329.398438 C 230.023438 327.976562 227.699219 326.175781 225.898438 325.050781 C 224.324219 324.074219 221.925781 322.726562 221.023438 323.023438 C 220.5 323.175781 220.574219 324.226562 220.125 324.449219 C 219.601562 324.75 218.398438 324.75 217.875 324.375 C 217.273438 324.074219 216.675781 323.101562 216.601562 322.5 C 216.523438 321.976562 216.675781 321.375 216.976562 321 C 217.199219 320.550781 217.648438 320.175781 218.175781 320.023438 C 218.773438 319.875 219.898438 319.949219 220.425781 320.324219 C 220.949219 320.699219 221.476562 321.675781 221.476562 322.351562 C 221.398438 323.023438 220.875 323.925781 220.351562 324.300781 C 219.75 324.675781 218.699219 324.824219 218.101562 324.523438 C 217.425781 324.148438 216.449219 322.800781 216.601562 321.976562 C 216.898438 320.773438 219.824219 318.601562 221.699219 318.375 C 223.800781 318.148438 226.574219 320.023438 228.601562 321.148438 C 230.550781 322.273438 232.425781 323.773438 233.773438 325.199219 C 234.898438 326.476562 235.726562 327.824219 236.324219 329.175781 C 236.773438 330.300781 237 331.425781 237.074219 332.476562 C 237.148438 333.601562 237.148438 334.574219 236.773438 335.699219 C 236.324219 337.273438 235.5 339.523438 234 340.949219 C 232.125 342.75 228.300781 344.175781 225.523438 344.851562 C 223.125 345.449219 220.5 345.523438 218.476562 345.074219 C 216.898438 344.773438 215.324219 344.023438 214.5 343.050781 C 213.75 342.300781 213.449219 341.324219 213.226562 340.351562 C 212.925781 339.226562 212.851562 338.023438 213 336.675781 C 213.226562 334.726562 214.050781 331.648438 214.875 330 C 215.476562 328.726562 216.226562 327.898438 217.125 327.148438 C 217.949219 326.398438 219.300781 325.351562 220.199219 325.425781 C 221.023438 325.5 222.074219 326.324219 222.300781 327 C 222.523438 327.675781 221.550781 329.550781 221.550781 329.550781 "/></clipPath><clipPath id="cd02244bce"><path d="M 240.039062 303.039062 L 266.9375 303.039062 L 266.9375 336 L 240.039062 336 Z M 240.039062 303.039062 "/></clipPath><clipPath id="986db32451"><path d="M 244.574219 319.949219 C 250.199219 332.023438 248.476562 332.699219 248.175781 332.398438 C 247.574219 331.875 249.675781 325.875 250.5 324.449219 C 250.875 323.773438 251.25 323.476562 251.773438 323.25 C 252.375 323.023438 253.425781 323.101562 253.949219 323.476562 C 254.550781 323.925781 254.925781 326.023438 255 326.023438 C 255.074219 325.949219 254.324219 323.851562 254.550781 323.773438 C 254.851562 323.625 257.550781 328.726562 258.675781 328.5 C 259.949219 328.273438 260.773438 323.699219 261.375 320.550781 C 262.125 316.199219 260.625 307.125 261.976562 304.726562 C 262.574219 303.675781 263.550781 303.226562 264.226562 303.148438 C 264.898438 303.148438 265.726562 303.75 266.023438 304.273438 C 266.398438 304.800781 266.398438 305.851562 266.175781 306.375 C 265.875 306.976562 265.125 307.574219 264.523438 307.648438 C 263.851562 307.726562 262.875 307.5 262.5 306.976562 C 262.050781 306.449219 261.898438 304.875 262.199219 304.273438 C 262.5 303.675781 263.398438 303.148438 264 303.148438 C 264.75 303.226562 265.726562 303.675781 266.25 304.726562 C 267.601562 307.273438 266.625 316.800781 265.875 321.675781 C 265.351562 325.351562 264.074219 329.398438 263.101562 331.273438 C 262.648438 332.175781 262.351562 332.625 261.675781 333.074219 C 260.851562 333.675781 259.050781 334.351562 258 334.199219 C 257.101562 334.050781 256.5 333.449219 255.601562 332.625 C 254.023438 331.050781 250.125 326.625 250.351562 324.976562 C 250.425781 324.074219 251.550781 323.25 252.300781 323.101562 C 252.976562 322.949219 253.949219 323.398438 254.398438 323.851562 C 254.773438 324.226562 255 324.675781 255.074219 325.425781 C 255.148438 326.925781 253.726562 330.824219 252.976562 332.625 C 252.523438 333.75 252.226562 334.800781 251.476562 335.324219 C 250.800781 335.851562 249.75 336.074219 249 335.925781 C 248.324219 335.773438 247.800781 335.398438 247.125 334.648438 C 245.773438 333.226562 243.523438 329.101562 242.324219 326.550781 C 241.351562 324.523438 240.148438 322.125 240.148438 320.851562 C 240.074219 320.175781 240.300781 319.726562 240.601562 319.273438 C 240.898438 318.898438 241.425781 318.523438 241.949219 318.449219 C 242.398438 318.300781 243.074219 318.449219 243.523438 318.675781 C 243.976562 318.898438 244.574219 319.949219 244.574219 319.949219 "/></clipPath></defs><g id="d2ce1acd8f"><path style=" stroke:none;fill-rule:evenodd;fill:#c9c9c9;fill-opacity:1;" d="M 191.816406 17.671875 C 197.707031 38.632812 202.652344 65.515625 199.996094 91.824219 C 204.957031 91.867188 206.148438 88.625 210.730469 90.804688 C 220.421875 86.8125 228.410156 78.773438 237.820312 70.347656 C 241.578125 66.980469 244.796875 62.800781 249.578125 58.585938 C 253.109375 55.464844 261.0625 51.4375 262.355469 47.84375 C 263.382812 44.984375 262.117188 36.402344 260.820312 28.921875 C 259.324219 20.285156 258.691406 13.210938 255.710938 8.464844 C 234.382812 11.722656 209.882812 17.292969 191.816406 17.671875 M 229.128906 39.148438 C 228.058594 37.445312 229.464844 34.582031 231.6875 34.550781 C 233.414062 35.855469 231.871094 39.304688 229.128906 39.148438 M 222.996094 49.890625 C 220.949219 50.0625 220.710938 48.425781 220.953125 46.308594 C 223.097656 46 223.660156 48.972656 222.996094 49.890625 "/><path style=" stroke:none;fill-rule:evenodd;fill:#dddddd;fill-opacity:1;" d="M 168.816406 14.09375 C 172.0625 42.320312 178.007812 68.722656 182.105469 94.382812 C 185.761719 94.519531 185.777344 93.941406 188.75 93.871094 C 185.476562 67.296875 181.457031 43.109375 176.484375 19.207031 C 177.453125 17.277344 179.109375 16.035156 181.085938 15.113281 C 180.871094 7.816406 171.402344 11.144531 168.816406 14.09375 "/><path style=" stroke:none;fill-rule:evenodd;fill:#dddddd;fill-opacity:1;" d="M 160.636719 17.667969 C 161.195312 20.316406 163.375 18.683594 165.746094 18.691406 C 164.808594 17.585938 162.738281 17.617188 160.636719 17.667969 "/><path style=" stroke:none;fill-rule:evenodd;fill:#c9c9c9;fill-opacity:1;" d="M 181.59375 18.183594 C 180.5625 30.90625 184.113281 44.128906 186.195312 57.5625 C 187.757812 67.660156 189.855469 81.378906 192.328125 92.851562 C 198.117188 93.148438 197.820312 85.875 197.953125 80.0625 C 198.277344 65.71875 195.9375 52.796875 194.375 41.199219 C 192.933594 30.523438 193.179688 18.113281 181.59375 18.183594 "/><path style=" stroke:none;fill-rule:evenodd;fill:#000000;fill-opacity:1;" d="M 231.6875 34.550781 C 229.464844 34.585938 228.058594 37.445312 229.128906 39.148438 C 231.871094 39.304688 233.414062 35.855469 231.6875 34.550781 "/><path style=" stroke:none;fill-rule:evenodd;fill:#000000;fill-opacity:1;" d="M 220.953125 46.308594 C 220.710938 48.425781 220.949219 50.0625 222.996094 49.890625 C 223.660156 48.96875 223.097656 46 220.953125 46.308594 "/><path style=" stroke:none;fill-rule:evenodd;fill:#000000;fill-opacity:1;" d="M 146.839844 58.074219 L 143.769531 58.074219 C 143.703125 59.335938 143.695312 60.539062 144.28125 61.140625 C 146.609375 61.238281 147.71875 59.8125 146.839844 58.074219 "/><path style=" stroke:none;fill-rule:evenodd;fill:#000000;fill-opacity:1;" d="M 143.769531 66.253906 C 142.105469 66.121094 141.308594 66.863281 141.214844 68.300781 C 142.1875 68.519531 142.136719 69.761719 143.769531 69.324219 C 143.925781 68.128906 144.769531 67.210938 143.769531 66.253906 "/><path style=" stroke:none;fill-rule:evenodd;fill:#dddddd;fill-opacity:1;" d="M 162.171875 100.007812 C 177.125 99.71875 195.261719 98.808594 210.21875 96.429688 C 207.4375 92.796875 200.777344 95.265625 197.441406 96.941406 C 187.605469 96.296875 173.15625 97.710938 162.171875 100.007812 "/><path style=" stroke:none;fill-rule:evenodd;fill:#c9c9c9;fill-opacity:1;" d="M 158.59375 105.125 C 147.222656 123.410156 131.875 137.71875 121.28125 156.777344 C 136.679688 161.882812 155.992188 158.332031 171.882812 158.308594 C 202.859375 158.269531 231.671875 148.320312 260.308594 142.96875 C 262.289062 141.199219 265.863281 141.023438 267.976562 139.390625 C 250.625 125.894531 232.652344 113.019531 215.328125 99.496094 C 195.058594 101.558594 178.550781 101.949219 158.59375 105.125 M 196.929688 129.160156 C 196.101562 129.929688 193.160156 129.929688 192.328125 129.160156 C 191.726562 125.890625 197.65625 125.660156 196.929688 129.160156 M 191.816406 134.785156 C 191.722656 136.222656 190.929688 136.964844 189.261719 136.832031 C 189.632812 135.4375 188.246094 135.800781 188.238281 134.785156 C 188.863281 134.726562 189.449219 134.632812 189.261719 133.761719 C 190.53125 133.683594 190.847656 134.566406 191.816406 134.785156 "/><path style=" stroke:none;fill-rule:evenodd;fill:#000000;fill-opacity:1;" d="M 192.328125 129.160156 C 193.15625 129.929688 196.101562 129.929688 196.929688 129.160156 C 197.65625 125.65625 191.726562 125.890625 192.328125 129.160156 "/><path style=" stroke:none;fill-rule:evenodd;fill:#000000;fill-opacity:1;" d="M 189.261719 133.761719 C 189.449219 134.632812 188.863281 134.730469 188.238281 134.785156 C 188.246094 135.800781 189.632812 135.4375 189.261719 136.832031 C 190.929688 136.964844 191.722656 136.222656 191.816406 134.785156 C 190.847656 134.566406 190.53125 133.683594 189.261719 133.761719 "/><path style=" stroke:none;fill-rule:evenodd;fill:#dddddd;fill-opacity:1;" d="M 111.058594 157.800781 C 111.457031 191.324219 116.5 229.527344 121.28125 265.199219 C 122.488281 274.203125 125.105469 284.480469 127.925781 293.328125 C 134.136719 312.808594 139.707031 327.0625 152.96875 341.910156 C 159.164062 348.839844 167.363281 356.429688 174.949219 359.808594 C 189.273438 366.195312 209.917969 368.867188 226.574219 366.96875 C 258.832031 363.296875 280.671875 343.042969 286.890625 312.757812 C 289.640625 299.367188 287.640625 285.863281 287.402344 270.824219 C 287.167969 255.941406 287.4375 240.476562 285.867188 226.332031 C 282.476562 195.820312 280 172.417969 275.644531 141.945312 C 275.378906 141.75 274.886719 139.460938 274.621094 140.921875 C 259.492188 147.777344 241.359375 148.679688 224.53125 152.6875 C 220.5625 153.628906 217.253906 155.441406 213.285156 156.265625 C 201.949219 158.617188 190.335938 161.140625 177.503906 161.378906 C 154.925781 161.796875 129.589844 164.34375 111.058594 157.800781 M 264.398438 242.695312 C 267.765625 259.035156 263.804688 277.132812 255.199219 289.746094 C 250.777344 296.226562 238.859375 304.609375 231.175781 307.132812 C 199.304688 317.613281 161.855469 294.84375 155.015625 265.199219 C 150.613281 246.117188 155.964844 220.128906 166.261719 209.964844 C 169.417969 206.847656 174.996094 203.972656 180.574219 200.757812 C 185.140625 198.125 189.660156 194.640625 193.351562 193.089844 C 206.832031 187.417969 229.667969 190 242.421875 197.691406 C 252.1875 209.351562 260.835938 225.390625 264.398438 242.695312 "/><path style=" stroke:none;fill-rule:evenodd;fill:#000000;fill-opacity:1;" d="M 242.421875 197.691406 C 229.667969 190.003906 206.832031 187.417969 193.351562 193.089844 C 189.660156 194.636719 185.140625 198.125 180.574219 200.757812 C 174.996094 203.972656 169.417969 206.847656 166.261719 209.964844 C 155.964844 220.128906 150.609375 246.117188 155.015625 265.199219 C 161.855469 294.84375 199.304688 317.613281 231.175781 307.132812 C 238.859375 304.609375 250.777344 296.226562 255.199219 289.746094 C 263.804688 277.132812 267.765625 259.035156 264.398438 242.695312 C 260.835938 225.390625 252.1875 209.351562 242.421875 197.691406 M 253.664062 218.660156 C 256.1875 224.570312 261.230469 236.84375 262.355469 242.695312 C 268.441406 274.445312 248.414062 301.539062 222.996094 306.113281 C 200.832031 310.097656 177.65625 296.667969 168.816406 286.675781 C 153.457031 269.324219 151.511719 226.851562 169.328125 210.988281 C 174.445312 206.429688 185.054688 201.171875 191.304688 197.691406 C 198.535156 193.667969 209.355469 192.480469 219.929688 193.089844 C 237.984375 194.128906 248.109375 205.632812 253.664062 218.660156 "/><path style=" stroke:none;fill-rule:evenodd;fill:#ffe000;fill-opacity:1;" d="M 219.929688 193.089844 C 209.355469 192.476562 198.535156 193.667969 191.304688 197.691406 C 185.054688 201.167969 174.445312 206.429688 169.328125 210.988281 C 151.511719 226.851562 153.457031 269.324219 168.816406 286.675781 C 177.65625 296.667969 200.832031 310.097656 222.996094 306.113281 C 248.414062 301.539062 268.441406 274.445312 262.355469 242.695312 C 261.230469 236.84375 256.1875 224.566406 253.664062 218.660156 C 248.109375 205.632812 237.984375 194.128906 219.929688 193.089844 M 218.90625 206.894531 C 216.777344 214.527344 218.996094 226.410156 216.863281 236.042969 C 212.867188 236.992188 208.425781 237.492188 204.085938 238.089844 C 200.910156 229.945312 196.070312 220.609375 191.816406 212.011719 C 199.9375 208.355469 210.496094 203.292969 218.90625 206.894531 M 218.90625 252.414062 C 219.96875 254.589844 221.324219 256.46875 220.953125 260.082031 C 217.324219 265.457031 205.75 264.199219 208.683594 255.480469 C 209.667969 254.25 212.496094 254.863281 211.75 251.902344 C 214.269531 251.035156 216.476562 251.855469 218.90625 252.414062 M 231.175781 259.570312 C 239.183594 261.59375 248.851562 263.953125 257.242188 265.199219 C 253.503906 271 249.863281 276.90625 247.53125 284.121094 C 240.332031 283.292969 236.332031 276.265625 228.617188 274.402344 C 228.890625 268.878906 230.648438 264.839844 231.175781 259.570312 M 194.371094 277.984375 C 196.011719 275.535156 197.855469 270.414062 200.507812 269.800781 C 203.578125 269.089844 212.957031 273.472656 213.796875 275.425781 C 210.515625 282.808594 210.179688 290.261719 207.664062 296.394531 C 199.601562 295.59375 197.242188 289.09375 189.773438 287.699219 C 189.023438 284.453125 192.085938 281.40625 194.371094 277.984375 "/><path style=" stroke:none;fill-rule:evenodd;fill:#000000;fill-opacity:1;" d="M 191.816406 212.011719 C 196.070312 220.609375 200.910156 229.945312 204.085938 238.09375 C 208.425781 237.492188 212.867188 236.992188 216.863281 236.046875 C 218.996094 226.410156 216.777344 214.527344 218.910156 206.894531 C 210.5 203.292969 199.9375 208.355469 191.816406 212.011719 M 214.820312 232.980469 C 211.125 233.820312 208.523438 235.375 205.617188 234.511719 C 203.167969 227.230469 198.007812 219.988281 196.417969 213.546875 C 200.710938 209.828125 208.582031 209.695312 215.328125 208.429688 C 215.039062 215.675781 215.648438 224.054688 214.820312 232.980469 "/><path style=" stroke:none;fill-rule:evenodd;fill:#ff3600;fill-opacity:1;" d="M 215.328125 208.429688 C 208.582031 209.695312 200.710938 209.828125 196.417969 213.546875 C 198.007812 219.988281 203.167969 227.230469 205.617188 234.511719 C 208.523438 235.375 211.125 233.820312 214.820312 232.980469 C 215.648438 224.054688 215.039062 215.675781 215.328125 208.429688 "/><path style=" stroke:none;fill-rule:evenodd;fill:#000000;fill-opacity:1;" d="M 211.75 251.898438 C 212.5 254.863281 209.667969 254.25 208.683594 255.480469 C 205.75 264.199219 217.324219 265.457031 220.953125 260.082031 C 221.324219 256.472656 219.96875 254.589844 218.910156 252.414062 C 216.476562 251.855469 214.269531 251.035156 211.75 251.898438 M 217.886719 259.0625 C 216.191406 259.921875 213.800781 261.0625 211.75 260.082031 C 211.566406 256.660156 214.355469 256.207031 216.351562 254.96875 C 217.878906 255.320312 218.066406 257.007812 217.886719 259.0625 "/><path style=" stroke:none;fill-rule:evenodd;fill:#ff3600;fill-opacity:1;" d="M 216.351562 254.96875 C 214.355469 256.207031 211.566406 256.660156 211.75 260.082031 C 213.800781 261.0625 216.191406 259.921875 217.886719 259.0625 C 218.066406 257.007812 217.878906 255.320312 216.351562 254.96875 "/><path style=" stroke:none;fill-rule:evenodd;fill:#000000;fill-opacity:1;" d="M 228.617188 274.402344 C 236.332031 276.265625 240.332031 283.292969 247.53125 284.121094 C 249.863281 276.910156 253.503906 271 257.242188 265.199219 C 248.851562 263.953125 239.183594 261.597656 231.175781 259.570312 C 230.648438 264.84375 228.890625 268.878906 228.617188 274.402344 M 252.128906 266.734375 C 250.148438 271.394531 247.753906 275.648438 245.996094 280.542969 C 240.347656 279.035156 237.734375 274.488281 232.199219 272.867188 C 232.128906 268.878906 233.453125 266.28125 234.753906 263.660156 C 242.375 263.800781 245.402344 266.574219 252.128906 266.734375 "/><path style=" stroke:none;fill-rule:evenodd;fill:#ff3600;fill-opacity:1;" d="M 234.753906 263.660156 C 233.453125 266.28125 232.128906 268.878906 232.199219 272.867188 C 237.734375 274.488281 240.347656 279.035156 245.996094 280.542969 C 247.753906 275.648438 250.148438 271.394531 252.128906 266.734375 C 245.402344 266.574219 242.375 263.800781 234.753906 263.660156 "/><path style=" stroke:none;fill-rule:evenodd;fill:#000000;fill-opacity:1;" d="M 189.773438 287.699219 C 197.242188 289.09375 199.601562 295.59375 207.664062 296.394531 C 210.179688 290.261719 210.515625 282.808594 213.796875 275.425781 C 212.957031 273.472656 203.578125 269.089844 200.507812 269.800781 C 197.855469 270.414062 196.011719 275.535156 194.375 277.984375 C 192.085938 281.40625 189.023438 284.453125 189.773438 287.699219 M 201.527344 273.382812 C 205.003906 272.457031 206.789062 275.535156 210.21875 275.9375 C 208.417969 282.125 207.414062 286.917969 206.128906 292.816406 C 200.957031 291.003906 196.535156 288.433594 193.351562 284.632812 C 196.722656 282.171875 197.316406 274.5 201.527344 273.382812 "/><path style=" stroke:none;fill-rule:evenodd;fill:#ff3600;fill-opacity:1;" d="M 193.351562 284.632812 C 196.535156 288.433594 200.957031 291.003906 206.128906 292.816406 C 207.414062 286.917969 208.417969 282.125 210.21875 275.9375 C 206.789062 275.535156 205.003906 272.457031 201.527344 273.382812 C 197.316406 274.5 196.722656 282.171875 193.351562 284.632812 "/><g clip-rule="nonzero" clip-path="url(#5473ebd149)"><path style=" stroke:none;fill-rule:evenodd;fill:#000000;fill-opacity:1;" d="M 190.285156 11.023438 C 187.609375 9.945312 187.921875 5.882812 185.171875 4.886719 C 178.59375 6.292969 172.609375 4.3125 168.816406 6.417969 C 165.550781 8.234375 164.433594 14.019531 158.59375 12.554688 C 156.734375 14.105469 156.253906 17.039062 155.527344 19.71875 C 131.238281 19.6875 112.675781 23.085938 89.589844 22.277344 C 86.835938 32.171875 89.394531 42.40625 90.613281 51.9375 C 91.414062 58.234375 91.191406 64.71875 92.65625 70.347656 C 93 71.667969 95.351562 78.667969 96.742188 80.574219 C 99.074219 83.753906 105.492188 84.753906 110.035156 86.710938 C 123.515625 92.523438 136.828125 99.425781 151.945312 102.054688 C 141.140625 124.992188 124.585938 142.183594 105.433594 156.777344 C 106.925781 165.101562 107.105469 174.925781 107.480469 186.4375 C 107.992188 202.195312 109.074219 218.8125 110.546875 235.535156 C 111.835938 250.1875 115.78125 265.347656 119.234375 280.027344 C 128.304688 318.570312 142.957031 347.285156 172.394531 364.925781 C 201.261719 375.324219 241.8125 376.085938 262.863281 359.300781 C 287.390625 339.746094 300.671875 304.640625 296.601562 260.59375 C 293.855469 230.882812 294.863281 196.492188 290.464844 165.980469 C 288.519531 152.472656 288.019531 142.347656 280.242188 135.296875 C 277.980469 134.257812 276.511719 135.945312 273.089844 134.785156 C 268.601562 133.265625 263.335938 127.699219 258.777344 124.558594 C 246.402344 116.03125 230.972656 104.96875 219.929688 95.40625 C 228.390625 89.449219 235.230469 81.363281 242.929688 72.902344 C 246.195312 69.316406 250.082031 65.140625 254.175781 61.652344 C 259.332031 57.261719 264.8125 54.140625 267.976562 48.867188 C 268.730469 36.972656 265.605469 25.609375 262.863281 12.554688 C 262.03125 8.585938 262.464844 3.609375 258.777344 2.839844 C 254.296875 1.90625 246.453125 4.5 240.886719 5.398438 C 228.121094 7.453125 205.210938 7.675781 190.285156 11.023438 M 255.710938 8.464844 C 258.691406 13.210938 259.324219 20.285156 260.820312 28.921875 C 262.117188 36.402344 263.382812 44.984375 262.355469 47.84375 C 261.0625 51.4375 253.109375 55.464844 249.578125 58.585938 C 244.796875 62.800781 241.578125 66.980469 237.820312 70.347656 C 228.410156 78.773438 220.421875 86.8125 210.730469 90.804688 C 206.148438 88.625 204.957031 91.867188 199.996094 91.828125 C 202.652344 65.511719 197.707031 38.632812 191.816406 17.671875 C 209.882812 17.292969 234.382812 11.726562 255.710938 8.464844 M 181.085938 15.113281 C 179.109375 16.039062 177.449219 17.277344 176.484375 19.203125 C 181.457031 43.109375 185.476562 67.296875 188.75 93.871094 C 185.777344 93.941406 185.761719 94.523438 182.105469 94.382812 C 178.007812 68.722656 172.0625 42.320312 168.816406 14.089844 C 171.402344 11.140625 180.871094 7.816406 181.085938 15.113281 M 165.746094 18.695312 C 163.378906 18.683594 161.195312 20.316406 160.636719 17.671875 C 162.738281 17.617188 164.8125 17.585938 165.746094 18.695312 M 194.375 41.195312 C 195.9375 52.796875 198.277344 65.71875 197.953125 80.0625 C 197.820312 85.875 198.117188 93.148438 192.328125 92.851562 C 189.855469 81.378906 187.757812 67.660156 186.195312 57.5625 C 184.113281 44.128906 180.5625 30.90625 181.59375 18.183594 C 193.179688 18.113281 192.929688 30.523438 194.375 41.195312 M 167.285156 24.832031 C 171.351562 47.980469 176.015625 71.695312 178.527344 94.894531 C 169.769531 95.957031 165.128906 93.566406 159.105469 97.449219 C 159.378906 95.644531 158.671875 94.816406 157.570312 94.382812 C 150.328125 98.042969 144.871094 93.835938 137.636719 91.828125 C 133.15625 90.582031 128.25 89.308594 124.347656 87.734375 C 118.203125 85.257812 101.351562 79.527344 99.300781 73.925781 C 94.960938 62.074219 95.140625 43.71875 93.167969 28.921875 C 117.953125 26.140625 138.964844 26.359375 167.285156 24.832031 M 197.441406 96.941406 C 200.777344 95.265625 207.4375 92.796875 210.21875 96.429688 C 195.261719 98.8125 177.125 99.714844 162.171875 100.007812 C 173.15625 97.710938 187.605469 96.296875 197.441406 96.941406 M 215.328125 99.5 C 232.652344 113.019531 250.625 125.894531 267.976562 139.390625 C 265.863281 141.023438 262.289062 141.199219 260.308594 142.96875 C 231.671875 148.324219 202.859375 158.269531 171.882812 158.308594 C 155.992188 158.335938 136.679688 161.882812 121.28125 156.777344 C 131.875 137.71875 147.222656 123.410156 158.59375 105.121094 C 178.550781 101.949219 195.058594 101.5625 215.328125 99.5 M 177.503906 161.378906 C 190.335938 161.140625 201.949219 158.617188 213.285156 156.265625 C 217.253906 155.441406 220.5625 153.628906 224.53125 152.683594 C 241.359375 148.679688 259.492188 147.777344 274.621094 140.921875 C 274.886719 139.460938 275.378906 141.746094 275.644531 141.945312 C 280 172.417969 282.476562 195.820312 285.867188 226.332031 C 287.4375 240.476562 287.167969 255.941406 287.402344 270.824219 C 287.640625 285.863281 289.640625 299.367188 286.890625 312.757812 C 280.671875 343.042969 258.832031 363.296875 226.574219 366.96875 C 209.917969 368.867188 189.273438 366.195312 174.949219 359.808594 C 167.363281 356.429688 159.164062 348.839844 152.96875 341.910156 C 139.707031 327.0625 134.140625 312.808594 127.925781 293.328125 C 125.105469 284.480469 122.488281 274.203125 121.28125 265.199219 C 116.5 229.527344 111.457031 191.324219 111.058594 157.800781 C 129.589844 164.34375 154.925781 161.796875 177.503906 161.378906 "/></g><path style=" stroke:none;fill-rule:evenodd;fill:#c9c9c9;fill-opacity:1;" d="M 93.167969 28.921875 C 95.140625 43.71875 94.960938 62.070312 99.300781 73.925781 C 101.351562 79.527344 118.203125 85.257812 124.347656 87.734375 C 128.25 89.304688 133.15625 90.585938 137.636719 91.828125 C 144.871094 93.835938 150.328125 98.046875 157.570312 94.382812 C 158.671875 94.816406 159.378906 95.644531 159.105469 97.449219 C 165.128906 93.566406 169.769531 95.957031 178.527344 94.894531 C 176.015625 71.695312 171.351562 47.980469 167.285156 24.832031 C 138.964844 26.359375 117.953125 26.140625 93.167969 28.921875 M 144.28125 61.140625 C 143.695312 60.539062 143.703125 59.335938 143.769531 58.074219 L 146.839844 58.074219 C 147.71875 59.8125 146.609375 61.238281 144.28125 61.140625 M 143.769531 69.324219 C 142.136719 69.761719 142.1875 68.519531 141.214844 68.300781 C 141.308594 66.863281 142.105469 66.125 143.769531 66.253906 C 144.769531 67.210938 143.925781 68.128906 143.769531 69.324219 "/><g clip-rule="nonzero" clip-path="url(#8f4847c12f)"><g clip-rule="nonzero" clip-path="url(#46aac4351d)"><path style=" stroke:none;fill-rule:nonzero;fill:#dddddd;fill-opacity:1;" d="M 174.074219 215.175781 L 214.839844 215.175781 L 214.839844 233.324219 L 174.074219 233.324219 Z M 174.074219 215.175781 "/></g></g><g clip-rule="nonzero" clip-path="url(#7bdf51df7e)"><g clip-rule="nonzero" clip-path="url(#79f5a47b3b)"><path style=" stroke:none;fill-rule:nonzero;fill:#dddddd;fill-opacity:1;" d="M 134.808594 176.632812 L 281.425781 176.632812 L 281.425781 319.351562 L 134.808594 319.351562 Z M 134.808594 176.632812 "/></g></g><g clip-rule="nonzero" clip-path="url(#bee46f6212)"><g clip-rule="nonzero" clip-path="url(#61a35620e7)"><path style=" stroke:none;fill-rule:nonzero;fill:#dddddd;fill-opacity:1;" d="M 130.875 281.175781 L 173.523438 281.175781 L 173.523438 319.351562 L 130.875 319.351562 Z M 130.875 281.175781 "/></g></g><g clip-rule="nonzero" clip-path="url(#c9269eb7c8)"><g clip-rule="nonzero" clip-path="url(#1bdf7ca72f)"><path style=" stroke:none;fill-rule:nonzero;fill:#000000;fill-opacity:1;" d="M 124.199219 171.824219 L 152.175781 171.824219 L 152.175781 213.789062 L 124.199219 213.789062 Z M 124.199219 171.824219 "/></g></g><g clip-rule="nonzero" clip-path="url(#3a8589fad5)"><g clip-rule="nonzero" clip-path="url(#bbff73fec6)"><path style=" stroke:none;fill-rule:nonzero;fill:#000000;fill-opacity:1;" d="M 149.324219 180.976562 L 176.726562 180.976562 L 176.726562 207.148438 L 149.324219 207.148438 Z M 149.324219 180.976562 "/></g></g><g clip-rule="nonzero" clip-path="url(#8b0d955ea4)"><g clip-rule="nonzero" clip-path="url(#25721c09c3)"><path style=" stroke:none;fill-rule:nonzero;fill:#000000;fill-opacity:1;" d="M 173.324219 177.898438 L 198.449219 177.898438 L 198.449219 206.164062 L 173.324219 206.164062 Z M 173.324219 177.898438 "/></g></g><g clip-rule="nonzero" clip-path="url(#00679e63ef)"><g clip-rule="nonzero" clip-path="url(#6e32b11322)"><path style=" stroke:none;fill-rule:nonzero;fill:#000000;fill-opacity:1;" d="M 192.898438 175.648438 L 218.101562 175.648438 L 218.101562 204.492188 L 192.898438 204.492188 Z M 192.898438 175.648438 "/></g></g><g clip-rule="nonzero" clip-path="url(#7e93bc091a)"><g clip-rule="nonzero" clip-path="url(#0f859a50f5)"><path style=" stroke:none;fill-rule:nonzero;fill:#000000;fill-opacity:1;" d="M 211.351562 172.800781 L 234.300781 172.800781 L 234.300781 202.742188 L 211.351562 202.742188 Z M 211.351562 172.800781 "/></g></g><g clip-rule="nonzero" clip-path="url(#b093874ea6)"><g clip-rule="nonzero" clip-path="url(#79538ff23e)"><path style=" stroke:none;fill-rule:nonzero;fill:#000000;fill-opacity:1;" d="M 228.75 170.25 L 247.125 170.25 L 247.125 202.261719 L 228.75 202.261719 Z M 228.75 170.25 "/></g></g><g clip-rule="nonzero" clip-path="url(#2809080454)"><g clip-rule="nonzero" clip-path="url(#c0e6df39b9)"><path style=" stroke:none;fill-rule:nonzero;fill:#000000;fill-opacity:1;" d="M 242.398438 168.601562 L 262.351562 168.601562 L 262.351562 202.8125 L 242.398438 202.8125 Z M 242.398438 168.601562 "/></g></g><g clip-rule="nonzero" clip-path="url(#949109cdf2)"><g clip-rule="nonzero" clip-path="url(#1a6393fbf0)"><path style=" stroke:none;fill-rule:nonzero;fill:#000000;fill-opacity:1;" d="M 261.601562 152.925781 L 275.476562 152.925781 L 275.476562 184.144531 L 261.601562 184.144531 Z M 261.601562 152.925781 "/></g></g><g clip-rule="nonzero" clip-path="url(#54e8cfb395)"><g clip-rule="nonzero" clip-path="url(#764c0ec1bb)"><path style=" stroke:none;fill-rule:nonzero;fill:#000000;fill-opacity:1;" d="M 268.425781 189.226562 L 278.558594 189.226562 L 278.558594 199.050781 L 268.425781 199.050781 Z M 268.425781 189.226562 "/></g></g><g clip-rule="nonzero" clip-path="url(#c6bb2f0bcb)"><g clip-rule="nonzero" clip-path="url(#91fe03bda9)"><path style=" stroke:none;fill-rule:nonzero;fill:#000000;fill-opacity:1;" d="M 268.425781 188.699219 L 278.558594 188.699219 L 278.558594 198.523438 L 268.425781 198.523438 Z M 268.425781 188.699219 "/><path style=" stroke:none;fill-rule:nonzero;fill:#000000;fill-opacity:1;" d="M 268.425781 188.699219 L 278.558594 188.699219 L 278.558594 198.523438 L 268.425781 198.523438 Z M 268.425781 188.699219 "/><path style=" stroke:none;fill-rule:nonzero;fill:#000000;fill-opacity:1;" d="M 268.425781 188.699219 L 278.558594 188.699219 L 278.558594 198.523438 L 268.425781 198.523438 Z M 268.425781 188.699219 "/><path style=" stroke:none;fill-rule:nonzero;fill:#000000;fill-opacity:1;" d="M 268.425781 188.699219 L 278.558594 188.699219 L 278.558594 198.523438 L 268.425781 198.523438 Z M 268.425781 188.699219 "/></g></g><g clip-rule="nonzero" clip-path="url(#22164c1ae4)"><g clip-rule="nonzero" clip-path="url(#8972501be5)"><path style=" stroke:none;fill-rule:nonzero;fill:#000000;fill-opacity:1;" d="M 148.949219 226.648438 L 191.25 226.648438 L 191.25 269.941406 L 148.949219 269.941406 Z M 148.949219 226.648438 "/></g></g><g clip-rule="nonzero" clip-path="url(#afcdbdf6ee)"><g clip-rule="nonzero" clip-path="url(#fc682a3898)"><path style=" stroke:none;fill-rule:nonzero;fill:#000000;fill-opacity:1;" d="M 217.199219 222.074219 L 230.25 222.074219 L 230.25 262.195312 L 217.199219 262.195312 Z M 217.199219 222.074219 "/></g></g><g clip-rule="nonzero" clip-path="url(#a5a16f01ee)"><g clip-rule="nonzero" clip-path="url(#604aadfdf4)"><path style=" stroke:none;fill-rule:nonzero;fill:#000000;fill-opacity:1;" d="M 219.226562 218.25 L 254.101562 218.25 L 254.101562 256.257812 L 219.226562 256.257812 Z M 219.226562 218.25 "/></g></g><g clip-rule="nonzero" clip-path="url(#f08c3f15f1)"><g clip-rule="nonzero" clip-path="url(#db3651712a)"><path style=" stroke:none;fill-rule:nonzero;fill:#000000;fill-opacity:1;" d="M 174.75 277.875 L 186.300781 277.875 L 186.300781 301.5625 L 174.75 301.5625 Z M 174.75 277.875 "/></g></g><g clip-rule="nonzero" clip-path="url(#e97bc6e297)"><g clip-rule="nonzero" clip-path="url(#804b845237)"><path style=" stroke:none;fill-rule:nonzero;fill:#000000;fill-opacity:1;" d="M 175.726562 278.25 L 199.574219 278.25 L 199.574219 314.210938 L 175.726562 314.210938 Z M 175.726562 278.25 "/></g></g><g clip-rule="nonzero" clip-path="url(#df60233398)"><g clip-rule="nonzero" clip-path="url(#65869128bd)"><path style=" stroke:none;fill-rule:nonzero;fill:#000000;fill-opacity:1;" d="M 201.824219 280.125 L 213.449219 280.125 L 213.449219 297.652344 L 201.824219 297.652344 Z M 201.824219 280.125 "/></g></g><g clip-rule="nonzero" clip-path="url(#a312fbea82)"><g clip-rule="nonzero" clip-path="url(#e40c126498)"><path style=" stroke:none;fill-rule:nonzero;fill:#000000;fill-opacity:1;" d="M 202.949219 288.375 L 214.574219 288.375 L 214.574219 303.769531 L 202.949219 303.769531 Z M 202.949219 288.375 "/></g></g><g clip-rule="nonzero" clip-path="url(#6a4f6e1cfb)"><g clip-rule="nonzero" clip-path="url(#090080e010)"><path style=" stroke:none;fill-rule:nonzero;fill:#000000;fill-opacity:1;" d="M 200.476562 269.175781 L 210.605469 269.175781 L 210.605469 279 L 200.476562 279 Z M 200.476562 269.175781 "/></g></g><g clip-rule="nonzero" clip-path="url(#d572c03083)"><g clip-rule="nonzero" clip-path="url(#e40ef995bb)"><path style=" stroke:none;fill-rule:nonzero;fill:#000000;fill-opacity:1;" d="M 213.75 277.875 L 240.238281 277.875 L 240.238281 302.625 L 213.75 302.625 Z M 213.75 277.875 "/></g></g><g clip-rule="nonzero" clip-path="url(#4571b94b85)"><g clip-rule="nonzero" clip-path="url(#de5dc87b2d)"><path style=" stroke:none;fill-rule:nonzero;fill:#000000;fill-opacity:1;" d="M 235.800781 257.925781 L 247.050781 257.925781 L 247.050781 287.105469 L 235.800781 287.105469 Z M 235.800781 257.925781 "/></g></g><g clip-rule="nonzero" clip-path="url(#c562a55018)"><g clip-rule="nonzero" clip-path="url(#2cf6bfbb1c)"><path style=" stroke:none;fill-rule:nonzero;fill:#000000;fill-opacity:1;" d="M 236.023438 270.300781 L 260.851562 270.300781 L 260.851562 294.375 L 236.023438 294.375 Z M 236.023438 270.300781 "/></g></g><g clip-rule="nonzero" clip-path="url(#22b279ca77)"><g clip-rule="nonzero" clip-path="url(#8a578fd46c)"><path style=" stroke:none;fill-rule:nonzero;fill:#000000;fill-opacity:1;" d="M 177.375 320.851562 L 209.25 320.851562 L 209.25 351.523438 L 177.375 351.523438 Z M 177.375 320.851562 "/></g></g><g clip-rule="nonzero" clip-path="url(#c863507dde)"><g clip-rule="nonzero" clip-path="url(#1adfc90e12)"><path style=" stroke:none;fill-rule:nonzero;fill:#000000;fill-opacity:1;" d="M 198.523438 335.476562 L 210 335.476562 L 210 352.554688 L 198.523438 352.554688 Z M 198.523438 335.476562 "/></g></g><g clip-rule="nonzero" clip-path="url(#c1fb35dd17)"><g clip-rule="nonzero" clip-path="url(#91ce56aecd)"><path style=" stroke:none;fill-rule:nonzero;fill:#000000;fill-opacity:1;" d="M 210 315.375 L 240.148438 315.375 L 240.148438 348.117188 L 210 348.117188 Z M 210 315.375 "/></g></g><g clip-rule="nonzero" clip-path="url(#cd02244bce)"><g clip-rule="nonzero" clip-path="url(#986db32451)"><path style=" stroke:none;fill-rule:nonzero;fill:#000000;fill-opacity:1;" d="M 237.148438 300.148438 L 269.324219 300.148438 L 269.324219 338.984375 L 237.148438 338.984375 Z M 237.148438 300.148438 "/></g></g></g></svg>