<svg xmlns="http://www.w3.org/2000/svg" xmlns:xlink="http://www.w3.org/1999/xlink" width="500" zoomAndPan="magnify" viewBox="0 0 375 374.999991" height="500" preserveAspectRatio="xMidYMid meet" version="1.2"><defs><clipPath id="9f79086ad8"><path d="M 88.359375 2.640625 L 297.328125 2.640625 L 297.328125 372.390625 L 88.359375 372.390625 Z M 88.359375 2.640625 "/></clipPath><clipPath id="23f2c4fe0d"><path d="M 176.980469 217.941406 L 211.933594 217.941406 L 211.933594 230.347656 L 176.980469 230.347656 Z M 176.980469 217.941406 "/></clipPath><clipPath id="f3a5d8658c"><path d="M 209.773438 230.324219 C 184.574219 229.425781 182.925781 228.148438 182.925781 227.175781 C 182.925781 226.273438 184.425781 225.300781 185.773438 224.476562 C 188.175781 222.976562 193.800781 221.324219 196.875 220.273438 C 199.125 219.601562 201.300781 218.699219 202.648438 218.699219 C 203.398438 218.699219 204 218.773438 204.449219 219.148438 C 204.824219 219.449219 205.125 220.273438 205.125 220.800781 C 205.050781 221.324219 204.75 221.925781 204.074219 222.300781 C 202.726562 223.125 199.050781 222.898438 196.050781 223.125 C 192.226562 223.351562 185.175781 224.550781 183.074219 223.5 C 182.175781 223.050781 181.648438 222.148438 181.574219 221.550781 C 181.574219 221.023438 182.023438 220.5 182.550781 220.050781 C 183.375 219.449219 185.023438 219.226562 186.75 219 C 189.375 218.550781 195.148438 217.425781 196.949219 218.25 C 197.925781 218.699219 198.601562 219.675781 198.523438 220.273438 C 198.523438 220.949219 197.773438 221.625 196.726562 222.074219 C 193.949219 223.351562 181.351562 224.175781 178.726562 223.574219 C 177.898438 223.425781 177.449219 223.125 177.226562 222.675781 C 176.925781 222.226562 176.925781 221.398438 177.148438 220.949219 C 177.375 220.5 177.976562 219.976562 178.5 219.898438 C 179.101562 219.898438 180.226562 220.425781 180.523438 220.949219 C 180.75 221.398438 180.675781 222.300781 180.375 222.675781 C 180.148438 223.125 179.398438 223.574219 178.875 223.574219 C 178.273438 223.574219 177.148438 222.898438 177.074219 222.300781 C 176.925781 221.699219 177.375 220.574219 178.351562 219.976562 C 180.523438 218.476562 189.976562 218.25 193.5 218.175781 C 195.375 218.175781 197.023438 218.101562 197.851562 218.625 C 198.300781 219 198.601562 219.75 198.523438 220.273438 C 198.523438 220.800781 198.300781 221.398438 197.625 221.773438 C 195.675781 223.050781 185.324219 224.476562 183.074219 223.5 C 182.101562 223.125 181.574219 222.148438 181.574219 221.550781 C 181.648438 220.949219 182.324219 220.273438 183.375 219.824219 C 186.375 218.550781 200.101562 217.800781 203.101562 218.625 C 204.148438 218.925781 204.75 219.375 204.976562 219.898438 C 205.199219 220.425781 205.273438 221.101562 204.75 221.699219 C 203.175781 223.800781 187.875 229.800781 186.375 228.75 C 185.851562 228.375 185.851562 226.949219 186.449219 226.351562 C 188.398438 224.476562 206.773438 225.675781 209.773438 226.199219 C 210.523438 226.351562 210.824219 226.351562 211.125 226.726562 C 211.574219 227.101562 211.949219 227.925781 211.875 228.523438 C 211.648438 229.199219 209.773438 230.324219 209.773438 230.324219 "/></clipPath><clipPath id="d88c7bee19"><path d="M 133.664062 179.417969 L 274.707031 179.417969 L 274.707031 316.5625 L 133.664062 316.5625 Z M 133.664062 179.417969 "/></clipPath><clipPath id="f57d4b7f69"><path d="M 133.933594 279.558594 C 137.21875 249.96875 145.777344 245.144531 145.933594 241.980469 C 146.007812 240.316406 143.945312 240 143.5625 238.179688 C 142.796875 234.382812 143.792969 225.046875 146.390625 219.667969 C 149.066406 214.050781 158.925781 207.800781 159.84375 205.351562 C 160.148438 204.71875 159.84375 204.402344 159.84375 203.847656 C 159.84375 203.292969 159.84375 202.183594 159.84375 202.183594 C 159.84375 202.105469 160.070312 201 160.226562 200.445312 C 160.378906 199.890625 160.605469 198.785156 160.605469 198.785156 C 160.605469 198.785156 161.140625 197.753906 161.371094 197.203125 C 161.675781 196.726562 162.136719 195.699219 162.136719 195.699219 C 162.210938 195.699219 162.898438 194.828125 163.28125 194.351562 C 163.664062 193.957031 164.351562 193.085938 164.351562 193.085938 C 164.429688 193.007812 165.269531 192.375 165.726562 192.058594 C 166.1875 191.742188 167.105469 191.109375 167.105469 191.109375 C 167.179688 191.03125 177.117188 187.074219 179.714844 185.414062 C 181.015625 184.621094 182.464844 183.121094 182.464844 183.121094 C 182.464844 183.121094 183.382812 182.488281 183.917969 182.171875 C 184.378906 181.855469 185.292969 181.300781 185.371094 181.300781 C 185.371094 181.222656 186.441406 180.90625 186.976562 180.746094 C 187.511719 180.507812 188.582031 180.191406 188.582031 180.191406 C 188.582031 180.191406 189.726562 180.113281 190.261719 180.035156 C 190.796875 180.035156 191.945312 179.953125 191.945312 179.953125 C 191.945312 179.953125 193.089844 180.113281 193.625 180.191406 C 194.160156 180.351562 195.308594 180.507812 195.308594 180.507812 C 195.308594 180.507812 196.378906 180.984375 196.835938 181.222656 C 197.371094 181.457031 197.753906 181.933594 198.289062 181.855469 C 199.128906 181.773438 200.121094 179.953125 201.34375 179.796875 C 202.796875 179.636719 204.328125 181.300781 206.390625 181.773438 C 209.445312 182.488281 215.332031 181.0625 218.3125 182.722656 C 220.910156 184.148438 221.601562 188.972656 223.738281 190.082031 C 225.496094 190.953125 227.027344 189.605469 229.550781 189.921875 C 234.59375 190.554688 246.59375 192.691406 251.714844 196.332031 C 255.535156 198.941406 258.210938 203.054688 259.433594 206.695312 C 260.503906 209.9375 258.746094 214.367188 259.511719 216.742188 C 259.96875 218.324219 261.726562 219.273438 261.878906 220.300781 C 262.03125 220.933594 261.269531 221.25 261.269531 222.121094 C 261.34375 224.652344 266.617188 232.800781 266.925781 236.519531 C 267.078125 238.894531 265.167969 240.078125 265.546875 242.375 C 266.160156 246.328125 273.421875 251.710938 274.339844 257.167969 C 275.332031 263.101562 272.351562 271.804688 270.363281 276.707031 C 268.988281 280.109375 266.464844 281.851562 265.320312 284.621094 C 264.171875 287.390625 265.089844 290.472656 263.5625 293.242188 C 261.421875 297.121094 256.070312 301.074219 251.410156 304.398438 C 246.363281 308.035156 239.714844 313.019531 234.136719 313.890625 C 229.320312 314.601562 224.808594 310.570312 220.070312 310.804688 C 215.027344 311.121094 207.535156 316.34375 204.554688 316.183594 C 203.257812 316.105469 203.179688 315.078125 201.957031 314.839844 C 199.207031 314.285156 192.707031 316.898438 188.277344 315.550781 C 183.078125 313.96875 177.191406 306.296875 173.292969 304.476562 C 171.078125 303.449219 169.777344 303.6875 167.640625 303.210938 C 164.886719 302.578125 161.523438 302.339844 158.085938 301.074219 C 153.726562 299.492188 147.691406 297.039062 143.640625 293.480469 C 139.589844 289.839844 133.933594 279.558594 133.933594 279.558594 M 199.816406 275.207031 C 200.429688 277.023438 201.652344 277.339844 201.726562 277.261719 C 201.804688 277.183594 201.652344 277.023438 201.574219 276.867188 C 201.34375 276.472656 199.816406 275.207031 199.816406 275.207031 "/></clipPath><clipPath id="9addbb7c91"><path d="M 133.558594 284.15625 L 170.691406 284.15625 L 170.691406 316.367188 L 133.558594 316.367188 Z M 133.558594 284.15625 "/></clipPath><clipPath id="145c282ebd"><path d="M 155.101562 287.851562 C 159.449219 291.675781 157.800781 289.199219 158.101562 288.75 C 158.476562 288.375 160.050781 288.898438 161.175781 289.273438 C 162.75 289.875 165.226562 291.300781 166.5 292.351562 C 167.398438 293.101562 167.925781 293.699219 168.449219 294.75 C 169.273438 296.25 170.25 298.648438 170.398438 300.601562 C 170.550781 302.550781 170.023438 305.101562 169.425781 306.675781 C 169.050781 307.800781 168.675781 308.476562 167.851562 309.375 C 166.800781 310.648438 164.925781 312.375 163.125 313.273438 C 161.324219 314.101562 159.148438 315.300781 157.125 314.476562 C 153.375 312.898438 145.726562 300.75 145.574219 297.074219 C 145.574219 295.425781 146.773438 294.523438 147.675781 293.476562 C 148.5 292.425781 149.625 291.449219 150.824219 290.699219 C 151.949219 290.023438 153.300781 289.425781 154.648438 289.125 C 155.925781 288.824219 157.425781 288.675781 158.773438 288.824219 C 160.125 288.976562 161.550781 289.351562 162.824219 289.875 C 164.023438 290.398438 165.300781 291.226562 166.273438 292.125 C 167.324219 293.101562 168.226562 294.226562 168.824219 295.425781 C 169.5 296.625 170.023438 297.976562 170.25 299.324219 C 170.476562 300.675781 170.550781 302.101562 170.324219 303.523438 C 170.101562 304.875 169.726562 306.226562 169.050781 307.425781 C 168.449219 308.699219 167.550781 309.824219 166.574219 310.800781 C 165.601562 311.773438 164.476562 312.601562 163.199219 313.199219 C 162 313.800781 160.574219 314.175781 159.226562 314.398438 C 157.875 314.550781 156.375 314.476562 155.023438 314.25 C 153.75 313.949219 152.324219 313.425781 151.199219 312.75 C 150 312.074219 148.875 311.175781 147.976562 310.125 C 147.074219 309.074219 146.25 307.875 145.726562 306.601562 C 145.199219 305.324219 144.898438 303.898438 144.75 302.550781 C 144.675781 301.199219 144.824219 299.699219 145.199219 298.425781 C 145.5 297.074219 146.101562 295.726562 146.851562 294.601562 C 147.601562 293.476562 148.574219 292.351562 149.625 291.523438 C 150.75 290.699219 152.023438 289.949219 153.300781 289.5 C 154.574219 289.050781 156 288.824219 157.425781 288.75 C 158.773438 288.75 160.199219 288.976562 161.476562 289.351562 C 162.824219 289.800781 164.101562 290.476562 165.226562 291.300781 C 166.351562 292.050781 167.324219 293.101562 168.148438 294.226562 C 168.898438 295.351562 169.574219 296.699219 169.949219 297.976562 C 170.324219 299.324219 171 301.875 170.476562 302.101562 C 169.351562 302.625 157.5 289.800781 158.101562 288.75 C 158.476562 288.226562 162.300781 289.5 164.023438 290.476562 C 165.75 291.523438 167.398438 293.101562 168.449219 294.75 C 169.5 296.476562 170.25 298.574219 170.398438 300.601562 C 170.550781 302.550781 170.023438 305.101562 169.425781 306.675781 C 169.050781 307.800781 168.675781 308.476562 167.851562 309.375 C 166.800781 310.648438 164.925781 312.375 163.125 313.273438 C 161.324219 314.101562 158.773438 313.875 157.125 314.476562 C 155.773438 315 155.324219 316.351562 153.898438 316.351562 C 151.050781 316.425781 144.601562 312.300781 141.300781 309.75 C 138.824219 307.800781 136.648438 305.023438 135.449219 303.226562 C 134.773438 302.175781 134.476562 301.574219 134.25 300.449219 C 133.800781 298.875 133.5 296.398438 133.875 294.449219 C 134.175781 292.574219 135.148438 290.550781 136.351562 288.976562 C 137.550781 287.476562 139.273438 286.125 141.074219 285.300781 C 142.800781 284.476562 145.351562 284.175781 146.925781 284.175781 C 148.125 284.175781 148.875 284.324219 149.925781 284.773438 C 151.425781 285.300781 155.101562 287.851562 155.101562 287.851562 "/></clipPath><clipPath id="cbc2d946a6"><path d="M 149.355469 184.605469 L 154.554688 184.605469 L 154.554688 189.261719 L 149.355469 189.261719 Z M 149.355469 184.605469 "/></clipPath><clipPath id="55cf0e508d"><path d="M 151.648438 189.226562 C 149.476562 187.875 149.324219 187.351562 149.398438 186.824219 C 149.476562 186.226562 149.925781 185.324219 150.449219 185.023438 C 150.976562 184.648438 152.023438 184.648438 152.550781 184.875 C 153.148438 185.175781 153.75 186 153.898438 186.601562 C 153.976562 187.199219 153.675781 188.175781 153.226562 188.625 C 152.699219 189 151.726562 189.300781 151.125 189.148438 C 150.523438 189.074219 149.773438 188.398438 149.550781 187.800781 C 149.324219 187.199219 149.398438 186.226562 149.773438 185.699219 C 150.148438 185.101562 151.5 184.648438 152.175781 184.648438 C 152.773438 184.574219 153.375 184.875 153.75 185.25 C 154.125 185.550781 154.425781 186.148438 154.5 186.675781 C 154.574219 187.199219 154.351562 187.875 154.050781 188.324219 C 153.824219 188.699219 152.699219 189.226562 152.699219 189.226562 "/></clipPath><clipPath id="7dde0df453"><path d="M 142.34375 182.167969 L 173.855469 182.167969 L 173.855469 219.519531 L 142.34375 219.519531 Z M 142.34375 182.167969 "/></clipPath><clipPath id="3343badee1"><path d="M 153.824219 187.949219 C 146.101562 215.699219 145.574219 216 144.898438 216.074219 C 144.226562 216.148438 143.25 215.773438 142.875 215.25 C 142.351562 214.425781 142.425781 213.148438 142.648438 211.351562 C 143.25 206.476562 148.351562 188.699219 150.976562 185.625 C 151.800781 184.648438 152.699219 184.273438 153.523438 184.425781 C 154.273438 184.5 155.101562 185.324219 155.550781 186.300781 C 156.300781 187.949219 155.324219 192 155.699219 194.324219 C 156 196.199219 157.726562 198.300781 157.273438 199.199219 C 156.976562 199.800781 155.398438 200.398438 155.101562 200.101562 C 154.425781 199.5 156.226562 195.074219 157.050781 192.523438 C 158.023438 189.675781 159.375 185.550781 160.648438 183.824219 C 161.398438 182.925781 162.148438 182.324219 162.898438 182.25 C 163.574219 182.175781 164.398438 182.625 164.925781 183.226562 C 165.824219 184.199219 166.199219 185.851562 166.875 188.175781 C 168.449219 193.273438 172.875 209.773438 172.726562 213.449219 C 172.726562 214.5 171.976562 214.949219 172.125 215.398438 C 172.273438 215.773438 172.949219 215.699219 173.25 216.074219 C 173.550781 216.449219 173.851562 217.351562 173.699219 217.875 C 173.476562 218.476562 172.425781 219.375 171.824219 219.375 C 171.148438 219.375 170.101562 218.550781 169.800781 217.949219 C 169.648438 217.574219 169.648438 217.125 169.875 216.675781 C 170.101562 216.226562 170.699219 215.550781 171.226562 215.476562 C 171.824219 215.324219 172.648438 215.550781 173.101562 215.925781 C 173.398438 216.148438 173.625 216.601562 173.699219 217.050781 C 173.773438 217.5 173.550781 218.398438 173.175781 218.773438 C 172.800781 219.226562 171.898438 219.601562 171.375 219.375 C 170.398438 218.925781 169.574219 216.449219 168.824219 214.273438 C 167.699219 211.050781 167.25 205.949219 166.050781 201.300781 C 164.625 195.898438 159.824219 186.523438 160.648438 183.824219 C 161.023438 182.851562 162.148438 182.324219 162.898438 182.25 C 163.574219 182.175781 164.550781 182.699219 164.925781 183.226562 C 165.375 183.75 165.375 184.425781 165.300781 185.476562 C 164.925781 188.550781 160.875 199.351562 158.925781 202.351562 C 158.175781 203.625 157.5 204.523438 156.675781 204.75 C 155.851562 204.898438 154.800781 204.449219 154.050781 203.699219 C 153 202.726562 152.25 200.023438 151.648438 198.300781 C 151.199219 196.949219 150.976562 195.976562 150.824219 194.398438 C 150.601562 192.074219 150.300781 187.125 150.976562 185.625 C 151.273438 185.023438 151.800781 184.726562 152.324219 184.5 C 152.851562 184.351562 153.523438 184.351562 154.050781 184.574219 C 154.574219 184.726562 155.101562 185.25 155.324219 185.773438 C 155.625 186.226562 155.625 186.601562 155.550781 187.5 C 155.175781 190.800781 149.925781 206.398438 148.125 210 C 147.449219 211.273438 146.699219 211.574219 146.476562 212.398438 C 146.25 213.148438 147 214.199219 146.773438 214.875 C 146.476562 215.398438 145.574219 216 144.898438 216.074219 C 144.226562 216.148438 143.25 215.699219 142.875 215.25 C 142.425781 214.726562 142.351562 214.050781 142.425781 213.074219 C 142.5 210.675781 145.125 205.351562 146.324219 201.148438 C 147.523438 196.574219 148.425781 188.625 149.625 186.523438 C 150 185.851562 150.300781 185.625 150.75 185.398438 C 151.199219 185.25 151.875 185.175781 152.324219 185.324219 C 152.773438 185.550781 153.300781 185.925781 153.601562 186.375 C 153.824219 186.824219 153.824219 187.949219 153.824219 187.949219 "/></clipPath><clipPath id="6bfccf2f20"><path d="M 178.425781 195.039062 L 184.3125 195.039062 L 184.3125 211.980469 L 178.425781 211.980469 Z M 178.425781 195.039062 "/></clipPath><clipPath id="3a2b1ebb61"><path d="M 183.226562 197.101562 C 183.75 211.351562 182.925781 211.875 182.25 211.949219 C 181.574219 212.023438 180.375 211.351562 180.074219 210.675781 C 179.773438 210.148438 179.925781 208.949219 180.375 208.425781 C 180.675781 207.976562 181.574219 207.523438 182.175781 207.601562 C 182.925781 207.675781 183.976562 208.648438 184.199219 209.324219 C 184.351562 209.925781 184.050781 210.898438 183.601562 211.273438 C 183.226562 211.726562 182.324219 212.023438 181.726562 211.949219 C 181.125 211.800781 180.300781 211.199219 180.074219 210.675781 C 179.851562 210.148438 179.851562 209.101562 180.226562 208.648438 C 180.601562 208.050781 182.023438 207.523438 182.699219 207.675781 C 183.375 207.898438 184.273438 209.101562 184.273438 209.773438 C 184.273438 210.523438 183.375 211.574219 182.773438 211.875 C 182.175781 212.101562 181.273438 211.875 180.75 211.5 C 180.148438 211.050781 179.699219 210.300781 179.324219 209.175781 C 178.648438 206.625 177.898438 198.449219 178.949219 196.425781 C 179.398438 195.523438 180.375 195 181.050781 195.074219 C 181.800781 195.148438 183.226562 197.101562 183.226562 197.101562 "/></clipPath><clipPath id="c34f4986d4"><path d="M 181.039062 185.015625 L 185.339844 185.015625 L 185.339844 188.621094 L 181.039062 188.621094 Z M 181.039062 185.015625 "/></clipPath><clipPath id="5ed12297a7"><path d="M 185.324219 186.300781 C 183.375 189.300781 181.574219 188.773438 181.199219 188.101562 C 180.824219 187.5 181.199219 185.625 181.800781 185.175781 C 182.324219 184.726562 184.726562 185.398438 184.726562 185.398438 "/></clipPath><clipPath id="9ba7e57cbf"><path d="M 189.402344 196.132812 L 194.046875 196.132812 L 194.046875 204.316406 L 189.402344 204.316406 Z M 189.402344 196.132812 "/></clipPath><clipPath id="e3b6aadc80"><path d="M 194.023438 198.375 C 193.648438 203.398438 193.425781 203.773438 193.050781 203.925781 C 192.449219 204.226562 191.023438 204.226562 190.5 203.773438 C 189.976562 203.324219 189.601562 201.898438 189.898438 201.300781 C 190.199219 200.625 191.550781 200.023438 192.226562 200.101562 C 192.75 200.101562 193.5 200.773438 193.800781 201.300781 C 194.023438 201.824219 193.949219 202.800781 193.648438 203.25 C 193.351562 203.773438 192.523438 204.300781 191.925781 204.300781 C 191.25 204.300781 190.273438 203.625 189.824219 202.875 C 189.300781 201.824219 189.375 199.5 189.675781 198.375 C 189.824219 197.625 190.125 196.949219 190.574219 196.574219 C 191.023438 196.273438 191.625 196.050781 192.148438 196.199219 C 192.75 196.425781 194.023438 198.375 194.023438 198.375 "/></clipPath><clipPath id="8eba983f0c"><path d="M 189.527344 194.242188 L 205.636719 194.242188 L 205.636719 214.484375 L 189.527344 214.484375 Z M 189.527344 194.242188 "/></clipPath><clipPath id="7ced38e9b4"><path d="M 189.601562 210.375 C 193.050781 196.726562 194.25 195.375 195.375 194.699219 C 196.273438 194.25 197.101562 194.101562 198.074219 194.398438 C 199.5 194.851562 201.449219 196.5 202.574219 198.449219 C 204.226562 201 205.648438 206.476562 205.574219 209.324219 C 205.574219 211.199219 205.050781 213.226562 204.226562 213.976562 C 203.625 214.425781 202.574219 214.574219 201.898438 214.351562 C 201.300781 214.125 200.476562 213.300781 200.324219 212.625 C 200.101562 211.949219 200.324219 210.898438 200.773438 210.375 C 201.226562 209.851562 202.273438 209.398438 202.949219 209.476562 C 203.625 209.550781 204.601562 210.226562 204.898438 210.75 C 205.199219 211.199219 205.351562 211.800781 205.199219 212.324219 C 204.976562 213.074219 203.773438 214.351562 203.023438 214.425781 C 202.199219 214.5 200.699219 213.675781 200.398438 212.925781 C 200.101562 212.175781 201.226562 211.273438 201.226562 210 C 201.148438 207.449219 198.601562 198.898438 197.476562 198.824219 C 196.800781 198.75 196.050781 201.449219 195.449219 203.25 C 194.625 205.726562 194.851562 211.050781 193.574219 212.324219 C 192.976562 213.074219 191.773438 213.148438 191.101562 213 C 190.574219 212.925781 190.050781 212.398438 189.824219 211.949219 C 189.601562 211.574219 189.601562 210.375 189.601562 210.375 "/></clipPath><clipPath id="d60154e20e"><path d="M 207.289062 179.257812 L 211.972656 179.257812 L 211.972656 187.441406 L 207.289062 187.441406 Z M 207.289062 179.257812 "/></clipPath><clipPath id="44cb3e6a48"><path d="M 211.949219 181.5 C 211.574219 186.523438 211.425781 186.898438 210.976562 187.050781 C 210.375 187.351562 208.949219 187.351562 208.425781 186.976562 C 207.898438 186.523438 207.601562 185.101562 207.824219 184.425781 C 208.050781 183.898438 208.875 183.300781 209.476562 183.226562 C 210 183.148438 210.976562 183.375 211.351562 183.898438 C 211.726562 184.425781 211.875 185.851562 211.574219 186.449219 C 211.351562 186.976562 210.523438 187.5 209.925781 187.425781 C 209.25 187.425781 208.199219 186.75 207.75 186 C 207.226562 185.023438 207.148438 182.699219 207.601562 181.5 C 207.898438 180.601562 208.875 179.550781 209.550781 179.324219 C 210 179.175781 210.601562 179.398438 211.050781 179.699219 C 211.5 180.074219 211.949219 181.5 211.949219 181.5 "/></clipPath><clipPath id="acbc3b4883"><path d="M 207.171875 183.097656 L 215.429688 183.097656 L 215.429688 216.5 L 207.171875 216.5 Z M 207.171875 183.097656 "/></clipPath><clipPath id="e1383f14e1"><path d="M 211.949219 185.101562 C 213.375 205.800781 215.925781 211.949219 215.324219 214.351562 C 215.023438 215.398438 214.351562 216.148438 213.675781 216.375 C 212.925781 216.601562 211.726562 216.148438 211.125 215.550781 C 210.449219 214.800781 210.148438 212.851562 210.226562 211.726562 C 210.226562 210.976562 210.449219 210.074219 210.898438 209.699219 C 211.5 209.25 213.074219 209.023438 213.75 209.476562 C 214.351562 209.851562 214.875 211.351562 214.726562 212.101562 C 214.574219 212.699219 213.824219 213.449219 213.226562 213.601562 C 212.625 213.824219 211.574219 213.601562 211.050781 213.226562 C 210.601562 212.851562 210.074219 211.875 210.226562 211.273438 C 210.300781 210.523438 211.273438 209.324219 212.023438 209.175781 C 212.773438 209.023438 213.976562 209.625 214.574219 210.375 C 215.25 211.199219 215.550781 213.300781 215.324219 214.351562 C 215.101562 215.175781 214.273438 216.074219 213.675781 216.375 C 213.148438 216.601562 212.476562 216.449219 212.023438 216.226562 C 211.574219 216 211.199219 215.773438 210.898438 215.023438 C 209.851562 213.074219 209.25 206.175781 208.648438 201.449219 C 208.125 196.199219 206.476562 187.648438 207.601562 185.023438 C 208.125 183.898438 209.101562 183.074219 209.851562 183.148438 C 210.601562 183.148438 211.949219 185.101562 211.949219 185.101562 "/></clipPath><clipPath id="3d90f13cf3"><path d="M 202 190 L 219.292969 190 L 219.292969 198.507812 L 202 198.507812 Z M 202 190 "/></clipPath><clipPath id="55684c7d55"><path d="M 203.699219 193.949219 C 217.5 189.976562 217.875 190.125 218.25 190.425781 C 218.699219 190.875 219.300781 191.773438 219.226562 192.449219 C 219.148438 193.199219 218.101562 194.476562 217.425781 194.699219 C 216.75 194.925781 215.699219 194.550781 215.25 194.175781 C 214.800781 193.875 214.574219 193.351562 214.5 192.824219 C 214.425781 192.226562 214.726562 191.175781 215.175781 190.726562 C 215.625 190.199219 216.675781 189.898438 217.351562 190.050781 C 217.949219 190.199219 218.773438 190.949219 219.074219 191.476562 C 219.300781 191.925781 219.375 192.449219 219.148438 192.976562 C 218.699219 193.949219 216.75 195.148438 214.949219 195.976562 C 212.175781 197.175781 205.800781 198.824219 203.851562 198.449219 C 203.175781 198.300781 202.800781 198 202.5 197.550781 C 202.199219 197.175781 201.898438 196.5 202.050781 195.976562 C 202.199219 195.300781 203.699219 193.949219 203.699219 193.949219 "/></clipPath><clipPath id="91d8c4de03"><path d="M 221.921875 187.796875 L 237.367188 187.796875 L 237.367188 211 L 221.921875 211 Z M 221.921875 187.796875 "/></clipPath><clipPath id="918d052a97"><path d="M 223.273438 199.648438 C 228.824219 195.601562 228.976562 194.175781 228.601562 193.574219 C 228.226562 192.976562 226.425781 192.449219 226.125 192.75 C 225.898438 192.976562 226.800781 193.949219 226.949219 194.851562 C 227.25 196.273438 226.648438 198.675781 226.949219 200.476562 C 227.175781 202.351562 227.25 205.050781 228.523438 205.800781 C 229.949219 206.699219 234 204.074219 235.425781 204.675781 C 236.398438 205.050781 237.226562 206.25 237.300781 207.074219 C 237.375 207.75 236.773438 208.726562 236.175781 209.175781 C 235.648438 209.550781 234.523438 209.625 233.851562 209.398438 C 233.175781 209.175781 232.5 208.273438 232.351562 207.601562 C 232.199219 206.925781 232.5 205.875 232.949219 205.351562 C 233.398438 204.824219 234.523438 204.449219 235.199219 204.601562 C 235.875 204.675781 236.773438 205.351562 237.074219 206.023438 C 237.375 206.625 237.449219 207.675781 236.925781 208.351562 C 236.023438 209.550781 231.675781 210.898438 229.800781 210.976562 C 228.601562 211.050781 227.699219 210.75 226.726562 210.226562 C 225.75 209.699219 224.625 208.726562 224.023438 207.824219 C 223.425781 207 223.273438 206.25 222.976562 205.199219 C 222.523438 203.550781 222.074219 201.226562 222 198.976562 C 221.925781 196.273438 221.699219 191.699219 222.824219 189.898438 C 223.574219 188.699219 224.773438 188.023438 226.050781 187.875 C 227.550781 187.574219 230.023438 188.324219 231.226562 189.148438 C 232.125 189.75 232.726562 190.726562 233.101562 191.625 C 233.398438 192.601562 233.324219 193.800781 233.25 194.773438 C 233.25 195.675781 233.25 196.351562 232.949219 197.175781 C 232.5 198.226562 231.824219 199.425781 230.699219 200.324219 C 229.199219 201.75 225.449219 204.148438 223.949219 203.925781 C 223.125 203.773438 222.300781 202.726562 222.148438 201.976562 C 222.074219 201.300781 223.273438 199.648438 223.273438 199.648438 "/></clipPath><clipPath id="cde0e80006"><path d="M 238.773438 184.398438 L 256.449219 184.398438 L 256.449219 207.359375 L 238.773438 207.359375 Z M 238.773438 184.398438 "/></clipPath><clipPath id="e21d740026"><path d="M 245.023438 190.050781 C 243.449219 196.648438 243 199.875 243.675781 201.074219 C 244.050781 201.898438 244.949219 202.351562 245.699219 202.425781 C 246.449219 202.425781 247.425781 201.75 248.175781 201.074219 C 249.148438 200.175781 250.199219 198.523438 250.726562 197.023438 C 251.25 195.449219 252 193.199219 251.324219 191.925781 C 250.648438 190.648438 248.25 189.675781 246.75 189.375 C 245.550781 189.074219 243.898438 190.050781 243.148438 189.675781 C 242.476562 189.300781 241.949219 188.25 241.949219 187.5 C 242.023438 186.675781 243.074219 185.324219 243.898438 185.023438 C 244.574219 184.726562 245.699219 185.101562 246.226562 185.550781 C 246.75 186 247.199219 187.050781 247.125 187.800781 C 247.050781 188.476562 246.375 189.449219 245.773438 189.75 C 245.175781 190.125 243.976562 190.125 243.375 189.75 C 242.699219 189.449219 242.101562 188.476562 242.023438 187.800781 C 241.949219 187.050781 242.25 186.074219 242.925781 185.550781 C 243.898438 184.726562 246.601562 184.199219 248.398438 184.574219 C 250.648438 185.101562 253.726562 187.574219 255 189.074219 C 255.75 189.898438 256.125 190.5 256.273438 191.625 C 256.574219 193.351562 256.125 196.5 255.449219 198.601562 C 254.773438 200.550781 253.574219 202.425781 252.300781 203.851562 C 251.101562 205.273438 249.523438 206.773438 247.875 207.148438 C 246.148438 207.601562 243.449219 207.074219 242.101562 206.398438 C 241.050781 205.949219 240.449219 205.125 240 204.300781 C 239.398438 203.398438 239.175781 202.425781 238.949219 201.074219 C 238.726562 199.273438 238.726562 196.5 239.101562 194.25 C 239.550781 191.925781 240.300781 188.25 241.5 187.351562 C 242.175781 186.75 243.449219 186.898438 244.125 187.125 C 244.574219 187.351562 244.949219 187.949219 245.101562 188.398438 C 245.25 188.925781 245.023438 190.050781 245.023438 190.050781 "/></clipPath><clipPath id="0dfe49ee13"><path d="M 252.457031 170.503906 L 259.417969 170.503906 L 259.417969 196.957031 L 252.457031 196.957031 Z M 252.457031 170.503906 "/></clipPath><clipPath id="6e66ddada9"><path d="M 257.175781 172.574219 C 259.351562 195.226562 259.351562 195.523438 258.976562 195.898438 C 258.601562 196.351562 257.699219 196.949219 257.023438 196.949219 C 256.273438 196.875 255.074219 195.898438 254.773438 195.148438 C 254.550781 194.550781 254.925781 193.5 255.300781 193.050781 C 255.601562 192.601562 256.050781 192.300781 256.574219 192.226562 C 257.175781 192.148438 258.226562 192.449219 258.675781 192.898438 C 259.199219 193.351562 259.574219 194.324219 259.351562 195 C 259.199219 195.675781 258 196.726562 257.324219 196.875 C 256.800781 197.023438 256.273438 196.875 255.824219 196.574219 C 255.375 196.199219 255.074219 195.675781 254.699219 194.699219 C 253.648438 191.398438 252.074219 175.5 252.601562 172.574219 C 252.75 171.75 252.976562 171.449219 253.351562 171.148438 C 253.726562 170.773438 254.398438 170.550781 254.851562 170.550781 C 255.375 170.550781 256.050781 170.773438 256.425781 171.148438 C 256.800781 171.449219 257.175781 172.574219 257.175781 172.574219 "/></clipPath><clipPath id="5782dec4b1"><path d="M 172.675781 243.199219 L 178.664062 243.199219 L 178.664062 248.460938 L 172.675781 248.460938 Z M 172.675781 243.199219 "/></clipPath><clipPath id="cd090ddb95"><path d="M 176.023438 248.25 C 173.324219 247.875 172.800781 247.050781 172.726562 246.375 C 172.648438 245.773438 173.101562 244.800781 173.550781 244.425781 C 174.074219 244.050781 175.050781 243.75 175.648438 244.050781 C 176.324219 244.273438 177.226562 245.550781 177.300781 246.226562 C 177.300781 246.898438 176.773438 247.800781 176.25 248.101562 C 175.726562 248.476562 174.675781 248.550781 174.074219 248.324219 C 173.550781 248.023438 172.949219 247.199219 172.800781 246.601562 C 172.648438 246.148438 172.726562 245.625 172.949219 245.175781 C 173.25 244.574219 174.148438 243.601562 174.898438 243.375 C 175.726562 243.074219 177.226562 243.300781 177.824219 243.75 C 178.351562 244.125 178.574219 244.800781 178.648438 245.398438 C 178.726562 245.925781 178.199219 247.125 178.199219 247.125 "/></clipPath><clipPath id="6d4a2ea2e5"><path d="M 167.664062 237.394531 L 199.246094 237.394531 L 199.246094 276.585938 L 167.664062 276.585938 Z M 167.664062 237.394531 "/></clipPath><clipPath id="10a513da93"><path d="M 176.175781 248.699219 C 171.898438 256.800781 172.050781 261.300781 172.273438 263.773438 C 172.5 265.425781 172.648438 266.550781 173.25 267.75 C 173.925781 268.949219 175.125 270.226562 176.175781 270.976562 C 177.074219 271.574219 177.824219 271.726562 178.949219 271.949219 C 180.449219 272.25 182.699219 272.398438 184.5 272.25 C 186.449219 272.101562 188.851562 271.726562 190.199219 270.976562 C 191.25 270.375 191.851562 269.550781 192.523438 268.648438 C 193.199219 267.675781 193.800781 266.398438 194.175781 265.199219 C 194.476562 264.074219 194.398438 263.25 194.476562 261.75 C 194.476562 259.050781 194.699219 253.273438 193.800781 250.273438 C 193.125 248.023438 192.300781 246.148438 190.800781 244.875 C 189.148438 243.449219 186.523438 242.851562 184.125 242.324219 C 181.425781 241.800781 176.476562 240.675781 175.273438 241.875 C 174.375 242.773438 176.101562 245.851562 175.574219 246.976562 C 175.125 247.800781 173.925781 248.476562 173.25 248.476562 C 172.574219 248.476562 171.675781 247.875 171.375 247.351562 C 171.074219 246.824219 171 245.773438 171.300781 245.175781 C 171.601562 244.648438 172.351562 243.976562 173.023438 243.898438 C 173.773438 243.898438 175.199219 244.574219 175.5 245.25 C 175.800781 245.925781 175.425781 247.5 174.824219 247.949219 C 174.300781 248.476562 172.875 248.550781 172.050781 248.101562 C 170.773438 247.351562 169.125 243.675781 168.976562 242.101562 C 168.976562 241.050781 169.425781 240.074219 169.949219 239.398438 C 170.398438 238.800781 171 238.273438 171.824219 237.976562 C 172.726562 237.523438 173.773438 237.601562 175.351562 237.523438 C 178.351562 237.523438 185.25 237.523438 188.625 238.648438 C 191.101562 239.398438 192.976562 240.675781 194.476562 242.175781 C 195.898438 243.601562 196.875 245.476562 197.625 247.351562 C 198.449219 249.300781 198.75 251.324219 198.976562 253.726562 C 199.273438 256.800781 199.273438 261.226562 198.601562 264.375 C 198.074219 267.074219 197.023438 269.773438 195.675781 271.574219 C 194.550781 273.074219 193.199219 274.125 191.550781 274.875 C 189.601562 275.851562 186.976562 276.375 184.425781 276.523438 C 181.574219 276.675781 177.675781 276.523438 175.273438 275.476562 C 173.398438 274.726562 172.125 273.375 171 271.949219 C 169.800781 270.375 168.75 268.800781 168.226562 266.476562 C 167.476562 262.949219 167.773438 255.898438 168.601562 252.601562 C 169.125 250.574219 170.023438 249.300781 170.925781 248.023438 C 171.675781 246.898438 172.648438 245.476562 173.625 245.25 C 174.449219 245.023438 175.648438 245.25 176.101562 245.773438 C 176.550781 246.375 176.175781 248.699219 176.175781 248.699219 "/></clipPath><clipPath id="07bcda52a6"><path d="M 203.570312 248.824219 L 224 248.824219 L 224 272.203125 L 203.570312 272.203125 Z M 203.570312 248.824219 "/></clipPath><clipPath id="4be2bff69b"><path d="M 208.199219 250.875 C 210.226562 263.25 211.949219 262.273438 212.773438 261.601562 C 213.449219 261 213.75 260.25 214.125 259.125 C 214.875 257.175781 214.574219 251.773438 215.625 250.5 C 216.226562 249.898438 217.125 249.75 217.726562 249.824219 C 218.25 249.824219 218.773438 249.976562 219.226562 250.648438 C 220.351562 252.300781 220.125 259.949219 220.800781 263.550781 C 221.324219 266.101562 223.050781 268.648438 222.675781 270.148438 C 222.523438 271.050781 221.699219 271.949219 221.023438 272.023438 C 220.273438 272.175781 218.699219 271.5 218.398438 270.75 C 217.949219 269.550781 219.523438 265.726562 220.574219 264.976562 C 221.175781 264.523438 222.074219 264.523438 222.675781 264.75 C 223.199219 265.050781 223.875 265.800781 223.949219 266.476562 C 224.101562 267.074219 223.800781 268.050781 223.351562 268.425781 C 222.75 268.949219 221.25 269.101562 220.574219 268.800781 C 220.050781 268.5 219.523438 267.601562 219.523438 267 C 219.449219 266.398438 219.824219 265.425781 220.351562 265.050781 C 220.949219 264.675781 222.449219 264.601562 223.050781 265.050781 C 223.648438 265.425781 223.949219 266.699219 223.875 267.675781 C 223.726562 268.875 222.449219 271.273438 221.550781 271.875 C 220.949219 272.25 220.050781 272.101562 219.449219 271.875 C 218.925781 271.648438 218.625 271.199219 218.25 270.449219 C 217.5 269.175781 216.976562 266.625 216.523438 264.148438 C 215.851562 260.773438 214.574219 254.324219 215.023438 252.074219 C 215.175781 251.101562 215.550781 250.5 216.074219 250.125 C 216.523438 249.824219 217.199219 249.675781 217.726562 249.824219 C 218.324219 249.898438 219.226562 250.574219 219.523438 251.101562 C 219.824219 251.625 219.75 252.074219 219.75 252.898438 C 219.75 254.398438 219.523438 257.476562 219 259.273438 C 218.625 260.773438 218.023438 261.824219 217.125 263.101562 C 216 264.675781 213.898438 266.925781 212.476562 267.675781 C 211.574219 268.125 210.898438 268.351562 210.074219 268.199219 C 208.875 267.976562 207.074219 266.925781 206.175781 265.875 C 205.273438 264.75 204.976562 263.476562 204.601562 261.675781 C 204 258.976562 203.324219 252.675781 203.699219 250.800781 C 203.925781 250.050781 204.148438 249.675781 204.523438 249.375 C 204.898438 249 205.5 248.773438 206.023438 248.851562 C 206.550781 248.851562 207.148438 249.074219 207.523438 249.449219 C 207.898438 249.75 208.199219 250.875 208.199219 250.875 "/></clipPath><clipPath id="41478edcc7"><path d="M 227.445312 228.886719 L 238 228.886719 L 238 271.164062 L 227.445312 271.164062 Z M 227.445312 228.886719 "/></clipPath><clipPath id="fc776c4348"><path d="M 231.976562 230.550781 C 236.550781 264.976562 236.773438 269.023438 237.375 269.324219 C 237.601562 269.398438 237.976562 268.875 237.976562 268.949219 C 238.125 269.023438 237.300781 270.75 236.699219 270.976562 C 236.101562 271.273438 234.824219 270.976562 234.375 270.523438 C 233.851562 270.074219 233.699219 268.875 233.851562 268.273438 C 234.074219 267.75 234.75 267.074219 235.351562 266.925781 C 235.949219 266.773438 236.851562 267 237.300781 267.449219 C 237.75 267.898438 238.050781 269.324219 237.75 270 C 237.523438 270.523438 236.773438 271.050781 236.175781 271.125 C 235.574219 271.199219 234.675781 270.898438 234.300781 270.449219 C 233.851562 269.925781 233.773438 268.5 234.074219 267.898438 C 234.375 267.375 235.199219 266.851562 235.800781 266.851562 C 236.476562 266.925781 237.675781 267.75 237.898438 268.425781 C 238.125 269.023438 237.675781 270.300781 237.148438 270.75 C 236.699219 271.125 235.800781 271.199219 235.199219 271.050781 C 234.523438 270.898438 233.851562 270.523438 233.25 269.398438 C 230.851562 265.050781 226.273438 235.648438 227.773438 230.925781 C 228.148438 229.648438 228.976562 228.976562 229.648438 228.898438 C 230.398438 228.824219 231.976562 230.550781 231.976562 230.550781 "/></clipPath><clipPath id="d5bd274dd3"><path d="M 223.207031 247.207031 L 239.257812 247.207031 L 239.257812 255.097656 L 223.207031 255.097656 Z M 223.207031 247.207031 "/></clipPath><clipPath id="1e85a308a8"><path d="M 225.074219 250.5 C 238.5 247.574219 239.175781 248.699219 239.25 249.375 C 239.25 250.125 238.273438 251.398438 237.601562 251.625 C 237 251.851562 236.023438 251.625 235.5 251.25 C 235.050781 250.800781 234.675781 249.898438 234.675781 249.226562 C 234.75 248.625 235.273438 247.800781 235.875 247.5 C 236.398438 247.199219 237.449219 247.125 237.976562 247.425781 C 238.5 247.726562 239.101562 248.550781 239.175781 249.148438 C 239.324219 249.601562 239.25 250.125 238.949219 250.574219 C 238.199219 251.550781 235.425781 252.898438 233.324219 253.574219 C 230.851562 254.398438 226.5 255.523438 224.925781 254.925781 C 224.023438 254.550781 223.425781 253.574219 223.273438 252.898438 C 223.199219 252.375 223.425781 251.773438 223.726562 251.324219 C 224.023438 250.949219 225.074219 250.5 225.074219 250.5 "/></clipPath><clipPath id="b0831d62f3"><path d="M 250.882812 221.898438 L 260.636719 221.898438 L 260.636719 256.15625 L 250.882812 256.15625 Z M 250.882812 221.898438 "/></clipPath><clipPath id="3be9cfefaf"><path d="M 255.300781 223.949219 C 257.550781 244.726562 261.074219 252 260.550781 254.398438 C 260.324219 255.375 259.726562 255.976562 259.125 256.125 C 258.523438 256.273438 257.324219 255.75 257.101562 255.226562 C 256.800781 254.699219 257.324219 252.976562 257.925781 252.675781 C 258.449219 252.449219 260.175781 253.050781 260.398438 253.648438 C 260.625 254.175781 259.875 255.898438 259.351562 256.050781 C 258.75 256.273438 257.699219 255.824219 256.949219 254.851562 C 254.925781 252.375 253.050781 241.199219 252.148438 235.5 C 251.398438 231 250.351562 225.449219 251.324219 223.425781 C 251.773438 222.523438 252.824219 221.851562 253.5 221.925781 C 254.175781 222 255.300781 223.949219 255.300781 223.949219 "/></clipPath><clipPath id="c4f457cee1"><path d="M 256.5625 298.039062 L 260.863281 298.039062 L 260.863281 301.6875 L 256.5625 301.6875 Z M 256.5625 298.039062 "/></clipPath><clipPath id="a7b010507d"><path d="M 260.851562 299.324219 C 258.976562 302.324219 257.175781 301.800781 256.800781 301.199219 C 256.351562 300.523438 256.726562 298.726562 257.324219 298.199219 C 257.925781 297.75 260.25 298.425781 260.25 298.425781 "/></clipPath></defs><g id="fb7262af2f"><path style=" stroke:none;fill-rule:evenodd;fill:#c9c9c9;fill-opacity:1;" d="M 191.816406 17.671875 C 197.707031 38.632812 202.652344 65.515625 199.996094 91.824219 C 204.957031 91.867188 206.148438 88.625 210.730469 90.804688 C 220.421875 86.8125 228.410156 78.773438 237.820312 70.347656 C 241.578125 66.980469 244.796875 62.800781 249.578125 58.585938 C 253.109375 55.464844 261.0625 51.4375 262.355469 47.84375 C 263.382812 44.984375 262.117188 36.402344 260.820312 28.921875 C 259.324219 20.285156 258.691406 13.210938 255.710938 8.464844 C 234.382812 11.722656 209.882812 17.292969 191.816406 17.671875 M 229.128906 39.148438 C 228.058594 37.445312 229.464844 34.582031 231.6875 34.550781 C 233.414062 35.855469 231.871094 39.304688 229.128906 39.148438 M 222.996094 49.890625 C 220.949219 50.0625 220.710938 48.425781 220.953125 46.308594 C 223.097656 46 223.660156 48.972656 222.996094 49.890625 "/><path style=" stroke:none;fill-rule:evenodd;fill:#dddddd;fill-opacity:1;" d="M 168.816406 14.09375 C 172.0625 42.320312 178.007812 68.722656 182.105469 94.382812 C 185.761719 94.519531 185.777344 93.941406 188.75 93.871094 C 185.476562 67.296875 181.457031 43.109375 176.484375 19.207031 C 177.453125 17.277344 179.109375 16.035156 181.085938 15.113281 C 180.871094 7.816406 171.402344 11.144531 168.816406 14.09375 "/><path style=" stroke:none;fill-rule:evenodd;fill:#dddddd;fill-opacity:1;" d="M 160.636719 17.667969 C 161.195312 20.316406 163.375 18.683594 165.746094 18.691406 C 164.808594 17.585938 162.738281 17.617188 160.636719 17.667969 "/><path style=" stroke:none;fill-rule:evenodd;fill:#c9c9c9;fill-opacity:1;" d="M 181.59375 18.183594 C 180.5625 30.90625 184.113281 44.128906 186.195312 57.5625 C 187.757812 67.660156 189.855469 81.378906 192.328125 92.851562 C 198.117188 93.148438 197.820312 85.875 197.953125 80.0625 C 198.277344 65.71875 195.9375 52.796875 194.375 41.199219 C 192.933594 30.523438 193.179688 18.113281 181.59375 18.183594 "/><path style=" stroke:none;fill-rule:evenodd;fill:#000000;fill-opacity:1;" d="M 231.6875 34.550781 C 229.464844 34.585938 228.058594 37.445312 229.128906 39.148438 C 231.871094 39.304688 233.414062 35.855469 231.6875 34.550781 "/><path style=" stroke:none;fill-rule:evenodd;fill:#000000;fill-opacity:1;" d="M 220.953125 46.308594 C 220.710938 48.425781 220.949219 50.0625 222.996094 49.890625 C 223.660156 48.96875 223.097656 46 220.953125 46.308594 "/><path style=" stroke:none;fill-rule:evenodd;fill:#000000;fill-opacity:1;" d="M 146.839844 58.074219 L 143.769531 58.074219 C 143.703125 59.335938 143.695312 60.539062 144.28125 61.140625 C 146.609375 61.238281 147.71875 59.8125 146.839844 58.074219 "/><path style=" stroke:none;fill-rule:evenodd;fill:#000000;fill-opacity:1;" d="M 143.769531 66.253906 C 142.105469 66.121094 141.308594 66.863281 141.214844 68.300781 C 142.1875 68.519531 142.136719 69.761719 143.769531 69.324219 C 143.925781 68.128906 144.769531 67.210938 143.769531 66.253906 "/><path style=" stroke:none;fill-rule:evenodd;fill:#dddddd;fill-opacity:1;" d="M 162.171875 100.007812 C 177.125 99.71875 195.261719 98.808594 210.21875 96.429688 C 207.4375 92.796875 200.777344 95.265625 197.441406 96.941406 C 187.605469 96.296875 173.15625 97.710938 162.171875 100.007812 "/><path style=" stroke:none;fill-rule:evenodd;fill:#c9c9c9;fill-opacity:1;" d="M 158.59375 105.125 C 147.222656 123.410156 131.875 137.71875 121.28125 156.777344 C 136.679688 161.882812 155.992188 158.332031 171.882812 158.308594 C 202.859375 158.269531 231.671875 148.320312 260.308594 142.96875 C 262.289062 141.199219 265.863281 141.023438 267.976562 139.390625 C 250.625 125.894531 232.652344 113.019531 215.328125 99.496094 C 195.058594 101.558594 178.550781 101.949219 158.59375 105.125 M 196.929688 129.160156 C 196.101562 129.929688 193.160156 129.929688 192.328125 129.160156 C 191.726562 125.890625 197.65625 125.660156 196.929688 129.160156 M 191.816406 134.785156 C 191.722656 136.222656 190.929688 136.964844 189.261719 136.832031 C 189.632812 135.4375 188.246094 135.800781 188.238281 134.785156 C 188.863281 134.726562 189.449219 134.632812 189.261719 133.761719 C 190.53125 133.683594 190.847656 134.566406 191.816406 134.785156 "/><path style=" stroke:none;fill-rule:evenodd;fill:#000000;fill-opacity:1;" d="M 192.328125 129.160156 C 193.15625 129.929688 196.101562 129.929688 196.929688 129.160156 C 197.65625 125.65625 191.726562 125.890625 192.328125 129.160156 "/><path style=" stroke:none;fill-rule:evenodd;fill:#000000;fill-opacity:1;" d="M 189.261719 133.761719 C 189.449219 134.632812 188.863281 134.730469 188.238281 134.785156 C 188.246094 135.800781 189.632812 135.4375 189.261719 136.832031 C 190.929688 136.964844 191.722656 136.222656 191.816406 134.785156 C 190.847656 134.566406 190.53125 133.683594 189.261719 133.761719 "/><path style=" stroke:none;fill-rule:evenodd;fill:#dddddd;fill-opacity:1;" d="M 111.058594 157.800781 C 111.457031 191.324219 116.5 229.527344 121.28125 265.199219 C 122.488281 274.203125 125.105469 284.480469 127.925781 293.328125 C 134.136719 312.808594 139.707031 327.0625 152.96875 341.910156 C 159.164062 348.839844 167.363281 356.429688 174.949219 359.808594 C 189.273438 366.195312 209.917969 368.867188 226.574219 366.96875 C 258.832031 363.296875 280.671875 343.042969 286.890625 312.757812 C 289.640625 299.367188 287.640625 285.863281 287.402344 270.824219 C 287.167969 255.941406 287.4375 240.476562 285.867188 226.332031 C 282.476562 195.820312 280 172.417969 275.644531 141.945312 C 275.378906 141.75 274.886719 139.460938 274.621094 140.921875 C 259.492188 147.777344 241.359375 148.679688 224.53125 152.6875 C 220.5625 153.628906 217.253906 155.441406 213.285156 156.265625 C 201.949219 158.617188 190.335938 161.140625 177.503906 161.378906 C 154.925781 161.796875 129.589844 164.34375 111.058594 157.800781 M 264.398438 242.695312 C 267.765625 259.035156 263.804688 277.132812 255.199219 289.746094 C 250.777344 296.226562 238.859375 304.609375 231.175781 307.132812 C 199.304688 317.613281 161.855469 294.84375 155.015625 265.199219 C 150.613281 246.117188 155.964844 220.128906 166.261719 209.964844 C 169.417969 206.847656 174.996094 203.972656 180.574219 200.757812 C 185.140625 198.125 189.660156 194.640625 193.351562 193.089844 C 206.832031 187.417969 229.667969 190 242.421875 197.691406 C 252.1875 209.351562 260.835938 225.390625 264.398438 242.695312 "/><path style=" stroke:none;fill-rule:evenodd;fill:#000000;fill-opacity:1;" d="M 242.421875 197.691406 C 229.667969 190.003906 206.832031 187.417969 193.351562 193.089844 C 189.660156 194.636719 185.140625 198.125 180.574219 200.757812 C 174.996094 203.972656 169.417969 206.847656 166.261719 209.964844 C 155.964844 220.128906 150.609375 246.117188 155.015625 265.199219 C 161.855469 294.84375 199.304688 317.613281 231.175781 307.132812 C 238.859375 304.609375 250.777344 296.226562 255.199219 289.746094 C 263.804688 277.132812 267.765625 259.035156 264.398438 242.695312 C 260.835938 225.390625 252.1875 209.351562 242.421875 197.691406 M 253.664062 218.660156 C 256.1875 224.570312 261.230469 236.84375 262.355469 242.695312 C 268.441406 274.445312 248.414062 301.539062 222.996094 306.113281 C 200.832031 310.097656 177.65625 296.667969 168.816406 286.675781 C 153.457031 269.324219 151.511719 226.851562 169.328125 210.988281 C 174.445312 206.429688 185.054688 201.171875 191.304688 197.691406 C 198.535156 193.667969 209.355469 192.480469 219.929688 193.089844 C 237.984375 194.128906 248.109375 205.632812 253.664062 218.660156 "/><path style=" stroke:none;fill-rule:evenodd;fill:#ffe000;fill-opacity:1;" d="M 219.929688 193.089844 C 209.355469 192.476562 198.535156 193.667969 191.304688 197.691406 C 185.054688 201.167969 174.445312 206.429688 169.328125 210.988281 C 151.511719 226.851562 153.457031 269.324219 168.816406 286.675781 C 177.65625 296.667969 200.832031 310.097656 222.996094 306.113281 C 248.414062 301.539062 268.441406 274.445312 262.355469 242.695312 C 261.230469 236.84375 256.1875 224.566406 253.664062 218.660156 C 248.109375 205.632812 237.984375 194.128906 219.929688 193.089844 M 218.90625 206.894531 C 216.777344 214.527344 218.996094 226.410156 216.863281 236.042969 C 212.867188 236.992188 208.425781 237.492188 204.085938 238.089844 C 200.910156 229.945312 196.070312 220.609375 191.816406 212.011719 C 199.9375 208.355469 210.496094 203.292969 218.90625 206.894531 M 218.90625 252.414062 C 219.96875 254.589844 221.324219 256.46875 220.953125 260.082031 C 217.324219 265.457031 205.75 264.199219 208.683594 255.480469 C 209.667969 254.25 212.496094 254.863281 211.75 251.902344 C 214.269531 251.035156 216.476562 251.855469 218.90625 252.414062 M 231.175781 259.570312 C 239.183594 261.59375 248.851562 263.953125 257.242188 265.199219 C 253.503906 271 249.863281 276.90625 247.53125 284.121094 C 240.332031 283.292969 236.332031 276.265625 228.617188 274.402344 C 228.890625 268.878906 230.648438 264.839844 231.175781 259.570312 M 194.371094 277.984375 C 196.011719 275.535156 197.855469 270.414062 200.507812 269.800781 C 203.578125 269.089844 212.957031 273.472656 213.796875 275.425781 C 210.515625 282.808594 210.179688 290.261719 207.664062 296.394531 C 199.601562 295.59375 197.242188 289.09375 189.773438 287.699219 C 189.023438 284.453125 192.085938 281.40625 194.371094 277.984375 "/><path style=" stroke:none;fill-rule:evenodd;fill:#000000;fill-opacity:1;" d="M 191.816406 212.011719 C 196.070312 220.609375 200.910156 229.945312 204.085938 238.09375 C 208.425781 237.492188 212.867188 236.992188 216.863281 236.046875 C 218.996094 226.410156 216.777344 214.527344 218.910156 206.894531 C 210.5 203.292969 199.9375 208.355469 191.816406 212.011719 M 214.820312 232.980469 C 211.125 233.820312 208.523438 235.375 205.617188 234.511719 C 203.167969 227.230469 198.007812 219.988281 196.417969 213.546875 C 200.710938 209.828125 208.582031 209.695312 215.328125 208.429688 C 215.039062 215.675781 215.648438 224.054688 214.820312 232.980469 "/><path style=" stroke:none;fill-rule:evenodd;fill:#ff3600;fill-opacity:1;" d="M 215.328125 208.429688 C 208.582031 209.695312 200.710938 209.828125 196.417969 213.546875 C 198.007812 219.988281 203.167969 227.230469 205.617188 234.511719 C 208.523438 235.375 211.125 233.820312 214.820312 232.980469 C 215.648438 224.054688 215.039062 215.675781 215.328125 208.429688 "/><path style=" stroke:none;fill-rule:evenodd;fill:#000000;fill-opacity:1;" d="M 211.75 251.898438 C 212.5 254.863281 209.667969 254.25 208.683594 255.480469 C 205.75 264.199219 217.324219 265.457031 220.953125 260.082031 C 221.324219 256.472656 219.96875 254.589844 218.910156 252.414062 C 216.476562 251.855469 214.269531 251.035156 211.75 251.898438 M 217.886719 259.0625 C 216.191406 259.921875 213.800781 261.0625 211.75 260.082031 C 211.566406 256.660156 214.355469 256.207031 216.351562 254.96875 C 217.878906 255.320312 218.066406 257.007812 217.886719 259.0625 "/><path style=" stroke:none;fill-rule:evenodd;fill:#ff3600;fill-opacity:1;" d="M 216.351562 254.96875 C 214.355469 256.207031 211.566406 256.660156 211.75 260.082031 C 213.800781 261.0625 216.191406 259.921875 217.886719 259.0625 C 218.066406 257.007812 217.878906 255.320312 216.351562 254.96875 "/><path style=" stroke:none;fill-rule:evenodd;fill:#000000;fill-opacity:1;" d="M 228.617188 274.402344 C 236.332031 276.265625 240.332031 283.292969 247.53125 284.121094 C 249.863281 276.910156 253.503906 271 257.242188 265.199219 C 248.851562 263.953125 239.183594 261.597656 231.175781 259.570312 C 230.648438 264.84375 228.890625 268.878906 228.617188 274.402344 M 252.128906 266.734375 C 250.148438 271.394531 247.753906 275.648438 245.996094 280.542969 C 240.347656 279.035156 237.734375 274.488281 232.199219 272.867188 C 232.128906 268.878906 233.453125 266.28125 234.753906 263.660156 C 242.375 263.800781 245.402344 266.574219 252.128906 266.734375 "/><path style=" stroke:none;fill-rule:evenodd;fill:#ff3600;fill-opacity:1;" d="M 234.753906 263.660156 C 233.453125 266.28125 232.128906 268.878906 232.199219 272.867188 C 237.734375 274.488281 240.347656 279.035156 245.996094 280.542969 C 247.753906 275.648438 250.148438 271.394531 252.128906 266.734375 C 245.402344 266.574219 242.375 263.800781 234.753906 263.660156 "/><path style=" stroke:none;fill-rule:evenodd;fill:#000000;fill-opacity:1;" d="M 189.773438 287.699219 C 197.242188 289.09375 199.601562 295.59375 207.664062 296.394531 C 210.179688 290.261719 210.515625 282.808594 213.796875 275.425781 C 212.957031 273.472656 203.578125 269.089844 200.507812 269.800781 C 197.855469 270.414062 196.011719 275.535156 194.375 277.984375 C 192.085938 281.40625 189.023438 284.453125 189.773438 287.699219 M 201.527344 273.382812 C 205.003906 272.457031 206.789062 275.535156 210.21875 275.9375 C 208.417969 282.125 207.414062 286.917969 206.128906 292.816406 C 200.957031 291.003906 196.535156 288.433594 193.351562 284.632812 C 196.722656 282.171875 197.316406 274.5 201.527344 273.382812 "/><path style=" stroke:none;fill-rule:evenodd;fill:#ff3600;fill-opacity:1;" d="M 193.351562 284.632812 C 196.535156 288.433594 200.957031 291.003906 206.128906 292.816406 C 207.414062 286.917969 208.417969 282.125 210.21875 275.9375 C 206.789062 275.535156 205.003906 272.457031 201.527344 273.382812 C 197.316406 274.5 196.722656 282.171875 193.351562 284.632812 "/><g clip-rule="nonzero" clip-path="url(#9f79086ad8)"><path style=" stroke:none;fill-rule:evenodd;fill:#000000;fill-opacity:1;" d="M 190.285156 11.023438 C 187.609375 9.945312 187.921875 5.882812 185.171875 4.886719 C 178.59375 6.292969 172.609375 4.3125 168.816406 6.417969 C 165.550781 8.234375 164.433594 14.019531 158.59375 12.554688 C 156.734375 14.105469 156.253906 17.039062 155.527344 19.71875 C 131.238281 19.6875 112.675781 23.085938 89.589844 22.277344 C 86.835938 32.171875 89.394531 42.40625 90.613281 51.9375 C 91.414062 58.234375 91.191406 64.71875 92.65625 70.347656 C 93 71.667969 95.351562 78.667969 96.742188 80.574219 C 99.074219 83.753906 105.492188 84.753906 110.035156 86.710938 C 123.515625 92.523438 136.828125 99.425781 151.945312 102.054688 C 141.140625 124.992188 124.585938 142.183594 105.433594 156.777344 C 106.925781 165.101562 107.105469 174.925781 107.480469 186.4375 C 107.992188 202.195312 109.074219 218.8125 110.546875 235.535156 C 111.835938 250.1875 115.78125 265.347656 119.234375 280.027344 C 128.304688 318.570312 142.957031 347.285156 172.394531 364.925781 C 201.261719 375.324219 241.8125 376.085938 262.863281 359.300781 C 287.390625 339.746094 300.671875 304.640625 296.601562 260.59375 C 293.855469 230.882812 294.863281 196.492188 290.464844 165.980469 C 288.519531 152.472656 288.019531 142.347656 280.242188 135.296875 C 277.980469 134.257812 276.511719 135.945312 273.089844 134.785156 C 268.601562 133.265625 263.335938 127.699219 258.777344 124.558594 C 246.402344 116.03125 230.972656 104.96875 219.929688 95.40625 C 228.390625 89.449219 235.230469 81.363281 242.929688 72.902344 C 246.195312 69.316406 250.082031 65.140625 254.175781 61.652344 C 259.332031 57.261719 264.8125 54.140625 267.976562 48.867188 C 268.730469 36.972656 265.605469 25.609375 262.863281 12.554688 C 262.03125 8.585938 262.464844 3.609375 258.777344 2.839844 C 254.296875 1.90625 246.453125 4.5 240.886719 5.398438 C 228.121094 7.453125 205.210938 7.675781 190.285156 11.023438 M 255.710938 8.464844 C 258.691406 13.210938 259.324219 20.285156 260.820312 28.921875 C 262.117188 36.402344 263.382812 44.984375 262.355469 47.84375 C 261.0625 51.4375 253.109375 55.464844 249.578125 58.585938 C 244.796875 62.800781 241.578125 66.980469 237.820312 70.347656 C 228.410156 78.773438 220.421875 86.8125 210.730469 90.804688 C 206.148438 88.625 204.957031 91.867188 199.996094 91.828125 C 202.652344 65.511719 197.707031 38.632812 191.816406 17.671875 C 209.882812 17.292969 234.382812 11.726562 255.710938 8.464844 M 181.085938 15.113281 C 179.109375 16.039062 177.449219 17.277344 176.484375 19.203125 C 181.457031 43.109375 185.476562 67.296875 188.75 93.871094 C 185.777344 93.941406 185.761719 94.523438 182.105469 94.382812 C 178.007812 68.722656 172.0625 42.320312 168.816406 14.089844 C 171.402344 11.140625 180.871094 7.816406 181.085938 15.113281 M 165.746094 18.695312 C 163.378906 18.683594 161.195312 20.316406 160.636719 17.671875 C 162.738281 17.617188 164.8125 17.585938 165.746094 18.695312 M 194.375 41.195312 C 195.9375 52.796875 198.277344 65.71875 197.953125 80.0625 C 197.820312 85.875 198.117188 93.148438 192.328125 92.851562 C 189.855469 81.378906 187.757812 67.660156 186.195312 57.5625 C 184.113281 44.128906 180.5625 30.90625 181.59375 18.183594 C 193.179688 18.113281 192.929688 30.523438 194.375 41.195312 M 167.285156 24.832031 C 171.351562 47.980469 176.015625 71.695312 178.527344 94.894531 C 169.769531 95.957031 165.128906 93.566406 159.105469 97.449219 C 159.378906 95.644531 158.671875 94.816406 157.570312 94.382812 C 150.328125 98.042969 144.871094 93.835938 137.636719 91.828125 C 133.15625 90.582031 128.25 89.308594 124.347656 87.734375 C 118.203125 85.257812 101.351562 79.527344 99.300781 73.925781 C 94.960938 62.074219 95.140625 43.71875 93.167969 28.921875 C 117.953125 26.140625 138.964844 26.359375 167.285156 24.832031 M 197.441406 96.941406 C 200.777344 95.265625 207.4375 92.796875 210.21875 96.429688 C 195.261719 98.8125 177.125 99.714844 162.171875 100.007812 C 173.15625 97.710938 187.605469 96.296875 197.441406 96.941406 M 215.328125 99.5 C 232.652344 113.019531 250.625 125.894531 267.976562 139.390625 C 265.863281 141.023438 262.289062 141.199219 260.308594 142.96875 C 231.671875 148.324219 202.859375 158.269531 171.882812 158.308594 C 155.992188 158.335938 136.679688 161.882812 121.28125 156.777344 C 131.875 137.71875 147.222656 123.410156 158.59375 105.121094 C 178.550781 101.949219 195.058594 101.5625 215.328125 99.5 M 177.503906 161.378906 C 190.335938 161.140625 201.949219 158.617188 213.285156 156.265625 C 217.253906 155.441406 220.5625 153.628906 224.53125 152.683594 C 241.359375 148.679688 259.492188 147.777344 274.621094 140.921875 C 274.886719 139.460938 275.378906 141.746094 275.644531 141.945312 C 280 172.417969 282.476562 195.820312 285.867188 226.332031 C 287.4375 240.476562 287.167969 255.941406 287.402344 270.824219 C 287.640625 285.863281 289.640625 299.367188 286.890625 312.757812 C 280.671875 343.042969 258.832031 363.296875 226.574219 366.96875 C 209.917969 368.867188 189.273438 366.195312 174.949219 359.808594 C 167.363281 356.429688 159.164062 348.839844 152.96875 341.910156 C 139.707031 327.0625 134.140625 312.808594 127.925781 293.328125 C 125.105469 284.480469 122.488281 274.203125 121.28125 265.199219 C 116.5 229.527344 111.457031 191.324219 111.058594 157.800781 C 129.589844 164.34375 154.925781 161.796875 177.503906 161.378906 "/></g><path style=" stroke:none;fill-rule:evenodd;fill:#c9c9c9;fill-opacity:1;" d="M 93.167969 28.921875 C 95.140625 43.71875 94.960938 62.070312 99.300781 73.925781 C 101.351562 79.527344 118.203125 85.257812 124.347656 87.734375 C 128.25 89.304688 133.15625 90.585938 137.636719 91.828125 C 144.871094 93.835938 150.328125 98.046875 157.570312 94.382812 C 158.671875 94.816406 159.378906 95.644531 159.105469 97.449219 C 165.128906 93.566406 169.769531 95.957031 178.527344 94.894531 C 176.015625 71.695312 171.351562 47.980469 167.285156 24.832031 C 138.964844 26.359375 117.953125 26.140625 93.167969 28.921875 M 144.28125 61.140625 C 143.695312 60.539062 143.703125 59.335938 143.769531 58.074219 L 146.839844 58.074219 C 147.71875 59.8125 146.609375 61.238281 144.28125 61.140625 M 143.769531 69.324219 C 142.136719 69.761719 142.1875 68.519531 141.214844 68.300781 C 141.308594 66.863281 142.105469 66.125 143.769531 66.253906 C 144.769531 67.210938 143.925781 68.128906 143.769531 69.324219 "/><g clip-rule="nonzero" clip-path="url(#23f2c4fe0d)"><g clip-rule="nonzero" clip-path="url(#f3a5d8658c)"><path style=" stroke:none;fill-rule:nonzero;fill:#dddddd;fill-opacity:1;" d="M 174.074219 215.175781 L 214.839844 215.175781 L 214.839844 233.324219 L 174.074219 233.324219 Z M 174.074219 215.175781 "/></g></g><g clip-rule="nonzero" clip-path="url(#d88c7bee19)"><g clip-rule="nonzero" clip-path="url(#f57d4b7f69)"><path style=" stroke:none;fill-rule:nonzero;fill:#dddddd;fill-opacity:1;" d="M 130.875 176.632812 L 277.496094 176.632812 L 277.496094 319.351562 L 130.875 319.351562 Z M 130.875 176.632812 "/></g></g><g clip-rule="nonzero" clip-path="url(#9addbb7c91)"><g clip-rule="nonzero" clip-path="url(#145c282ebd)"><path style=" stroke:none;fill-rule:nonzero;fill:#dddddd;fill-opacity:1;" d="M 130.875 281.175781 L 173.523438 281.175781 L 173.523438 319.351562 L 130.875 319.351562 Z M 130.875 281.175781 "/></g></g><g clip-rule="nonzero" clip-path="url(#cbc2d946a6)"><g clip-rule="nonzero" clip-path="url(#55cf0e508d)"><path style=" stroke:none;fill-rule:nonzero;fill:#e7191f;fill-opacity:1;" d="M 146.398438 181.648438 L 157.589844 181.648438 L 157.589844 192.300781 L 146.398438 192.300781 Z M 146.398438 181.648438 "/></g></g><g clip-rule="nonzero" clip-path="url(#7dde0df453)"><g clip-rule="nonzero" clip-path="url(#3343badee1)"><path style=" stroke:none;fill-rule:nonzero;fill:#e7191f;fill-opacity:1;" d="M 139.425781 179.25 L 176.773438 179.25 L 176.773438 222.4375 L 139.425781 222.4375 Z M 139.425781 179.25 "/></g></g><g clip-rule="nonzero" clip-path="url(#6bfccf2f20)"><g clip-rule="nonzero" clip-path="url(#3a2b1ebb61)"><path style=" stroke:none;fill-rule:nonzero;fill:#e7191f;fill-opacity:1;" d="M 175.949219 192.074219 L 187.273438 192.074219 L 187.273438 215.035156 L 175.949219 215.035156 Z M 175.949219 192.074219 "/></g></g><g clip-rule="nonzero" clip-path="url(#c34f4986d4)"><g clip-rule="nonzero" clip-path="url(#5ed12297a7)"><path style=" stroke:none;fill-rule:nonzero;fill:#e7191f;fill-opacity:1;" d="M 178.199219 182.175781 L 188.332031 182.175781 L 188.332031 192 L 178.199219 192 Z M 178.199219 182.175781 "/></g></g><g clip-rule="nonzero" clip-path="url(#9ba7e57cbf)"><g clip-rule="nonzero" clip-path="url(#e3b6aadc80)"><path style=" stroke:none;fill-rule:nonzero;fill:#e7191f;fill-opacity:1;" d="M 186.675781 193.199219 L 197.101562 193.199219 L 197.101562 207.371094 L 186.675781 207.371094 Z M 186.675781 193.199219 "/></g></g><g clip-rule="nonzero" clip-path="url(#8eba983f0c)"><g clip-rule="nonzero" clip-path="url(#7ced38e9b4)"><path style=" stroke:none;fill-rule:nonzero;fill:#e7191f;fill-opacity:1;" d="M 186.601562 191.398438 L 208.648438 191.398438 L 208.648438 217.5 L 186.601562 217.5 Z M 186.601562 191.398438 "/></g></g><g clip-rule="nonzero" clip-path="url(#d60154e20e)"><g clip-rule="nonzero" clip-path="url(#44cb3e6a48)"><path style=" stroke:none;fill-rule:nonzero;fill:#e7191f;fill-opacity:1;" d="M 204.601562 176.324219 L 215.023438 176.324219 L 215.023438 190.496094 L 204.601562 190.496094 Z M 204.601562 176.324219 "/></g></g><g clip-rule="nonzero" clip-path="url(#acbc3b4883)"><g clip-rule="nonzero" clip-path="url(#e1383f14e1)"><path style=" stroke:none;fill-rule:nonzero;fill:#e7191f;fill-opacity:1;" d="M 204.601562 180.148438 L 218.324219 180.148438 L 218.324219 219.449219 L 204.601562 219.449219 Z M 204.601562 180.148438 "/></g></g><g clip-rule="nonzero" clip-path="url(#3d90f13cf3)"><g clip-rule="nonzero" clip-path="url(#55684c7d55)"><path style=" stroke:none;fill-rule:nonzero;fill:#e7191f;fill-opacity:1;" d="M 199.050781 186.976562 L 222.289062 186.976562 L 222.289062 201.449219 L 199.050781 201.449219 Z M 199.050781 186.976562 "/></g></g><g clip-rule="nonzero" clip-path="url(#91d8c4de03)"><g clip-rule="nonzero" clip-path="url(#918d052a97)"><path style=" stroke:none;fill-rule:nonzero;fill:#e7191f;fill-opacity:1;" d="M 219 184.875 L 240.375 184.875 L 240.375 214.015625 L 219 214.015625 Z M 219 184.875 "/></g></g><g clip-rule="nonzero" clip-path="url(#cde0e80006)"><g clip-rule="nonzero" clip-path="url(#e21d740026)"><path style=" stroke:none;fill-rule:nonzero;fill:#e7191f;fill-opacity:1;" d="M 235.949219 181.574219 L 259.273438 181.574219 L 259.273438 210.183594 L 235.949219 210.183594 Z M 235.949219 181.574219 "/></g></g><g clip-rule="nonzero" clip-path="url(#0dfe49ee13)"><g clip-rule="nonzero" clip-path="url(#6e66ddada9)"><path style=" stroke:none;fill-rule:nonzero;fill:#e7191f;fill-opacity:1;" d="M 249.601562 167.550781 L 262.425781 167.550781 L 262.425781 199.964844 L 249.601562 199.964844 Z M 249.601562 167.550781 "/></g></g><g clip-rule="nonzero" clip-path="url(#5782dec4b1)"><g clip-rule="nonzero" clip-path="url(#cd090ddb95)"><path style=" stroke:none;fill-rule:nonzero;fill:#e7191f;fill-opacity:1;" d="M 169.726562 240.375 L 181.660156 240.375 L 181.660156 251.324219 L 169.726562 251.324219 Z M 169.726562 240.375 "/></g></g><g clip-rule="nonzero" clip-path="url(#6d4a2ea2e5)"><g clip-rule="nonzero" clip-path="url(#10a513da93)"><path style=" stroke:none;fill-rule:nonzero;fill:#e7191f;fill-opacity:1;" d="M 165.226562 234.523438 L 201.976562 234.523438 L 201.976562 279.457031 L 165.226562 279.457031 Z M 165.226562 234.523438 "/></g></g><g clip-rule="nonzero" clip-path="url(#07bcda52a6)"><g clip-rule="nonzero" clip-path="url(#4be2bff69b)"><path style=" stroke:none;fill-rule:nonzero;fill:#e7191f;fill-opacity:1;" d="M 200.699219 245.851562 L 226.949219 245.851562 L 226.949219 275.074219 L 200.699219 275.074219 Z M 200.699219 245.851562 "/></g></g><g clip-rule="nonzero" clip-path="url(#41478edcc7)"><g clip-rule="nonzero" clip-path="url(#fc776c4348)"><path style=" stroke:none;fill-rule:nonzero;fill:#e7191f;fill-opacity:1;" d="M 224.773438 225.898438 L 241.050781 225.898438 L 241.050781 274.214844 L 224.773438 274.214844 Z M 224.773438 225.898438 "/></g></g><g clip-rule="nonzero" clip-path="url(#d5bd274dd3)"><g clip-rule="nonzero" clip-path="url(#1e85a308a8)"><path style=" stroke:none;fill-rule:nonzero;fill:#e7191f;fill-opacity:1;" d="M 220.273438 244.273438 L 242.242188 244.273438 L 242.242188 257.925781 L 220.273438 257.925781 Z M 220.273438 244.273438 "/></g></g><g clip-rule="nonzero" clip-path="url(#b0831d62f3)"><g clip-rule="nonzero" clip-path="url(#3be9cfefaf)"><path style=" stroke:none;fill-rule:nonzero;fill:#e7191f;fill-opacity:1;" d="M 248.324219 218.925781 L 263.550781 218.925781 L 263.550781 259.1875 L 248.324219 259.1875 Z M 248.324219 218.925781 "/></g></g><g clip-rule="nonzero" clip-path="url(#c4f457cee1)"><g clip-rule="nonzero" clip-path="url(#a7b010507d)"><path style=" stroke:none;fill-rule:nonzero;fill:#e7191f;fill-opacity:1;" d="M 253.800781 295.199219 L 263.933594 295.199219 L 263.933594 305.023438 L 253.800781 305.023438 Z M 253.800781 295.199219 "/></g></g></g></svg>