<svg xmlns="http://www.w3.org/2000/svg" xmlns:xlink="http://www.w3.org/1999/xlink" width="1080" zoomAndPan="magnify" viewBox="0 0 810 809.999993" height="1080" preserveAspectRatio="xMidYMid meet" version="1.2"><defs><clipPath id="0b6e63e338"><path d="M 176.007812 0.0507812 L 634.25 0.0507812 L 634.25 809.949219 L 176.007812 809.949219 Z M 176.007812 0.0507812 "/></clipPath><clipPath id="594a260448"><path d="M 417 436.753906 L 478.171875 436.753906 L 478.171875 505.558594 L 417 505.558594 Z M 417 436.753906 "/></clipPath><clipPath id="f99bfdca22"><path d="M 425.175781 497.773438 C 456.449219 478.800781 463.726562 474.449219 467.550781 471.074219 C 469.726562 469.050781 470.550781 466.5 472.050781 465.675781 C 473.023438 465.148438 474 465.074219 474.824219 465.148438 C 475.5 465.226562 476.023438 465.449219 476.550781 465.976562 C 477.226562 466.648438 478.050781 468.226562 478.050781 469.273438 C 478.050781 470.175781 477.898438 471.226562 476.925781 471.824219 C 473.851562 473.699219 459.449219 470.476562 450.449219 470.101562 C 440.851562 469.648438 425.324219 470.625 420.898438 469.5 C 419.476562 469.125 418.949219 468.824219 418.351562 468.148438 C 417.75 467.550781 417.148438 466.648438 417.074219 465.824219 C 417.074219 464.851562 417.675781 463.273438 418.351562 462.601562 C 418.949219 462 419.851562 462.226562 420.824219 461.625 C 422.550781 460.726562 424.425781 458.324219 427.125 456.675781 C 431.398438 454.050781 441 450.074219 444.601562 448.648438 C 446.25 448.050781 447.074219 447.523438 448.125 447.449219 C 449.101562 447.375 450.226562 447.523438 450.976562 447.976562 C 451.726562 448.5 452.398438 449.398438 452.699219 450.300781 C 452.925781 451.125 452.851562 452.324219 452.476562 453.074219 C 452.101562 453.898438 451.351562 454.648438 450.449219 455.101562 C 449.25 455.699219 447.300781 455.773438 445.726562 455.925781 C 444.300781 456.074219 442.648438 456.226562 441.523438 456 C 440.851562 455.851562 440.25 455.625 439.800781 455.175781 C 439.125 454.574219 438.449219 453.449219 438.300781 452.550781 C 438.148438 451.648438 438.300781 450.601562 438.898438 449.699219 C 439.875 448.351562 442.949219 446.324219 444.75 446.023438 C 446.101562 445.875 447.675781 446.25 448.574219 447.074219 C 449.398438 447.898438 450 449.699219 449.925781 450.824219 C 449.851562 451.800781 449.101562 452.851562 448.425781 453.449219 C 447.898438 453.898438 447.226562 454.574219 446.625 454.351562 C 445.351562 453.898438 442.273438 446.550781 442.949219 445.726562 C 443.324219 445.199219 445.125 445.648438 445.949219 446.101562 C 446.773438 446.550781 447.675781 447.449219 447.898438 448.425781 C 448.199219 449.476562 447.976562 451.425781 447.375 452.324219 C 446.851562 453.148438 445.574219 454.273438 444.824219 454.050781 C 443.625 453.601562 441.074219 447.601562 441.976562 446.023438 C 442.875 444.375 448.125 444.074219 449.925781 444.226562 C 450.75 444.300781 451.273438 444.523438 451.875 444.976562 C 452.550781 445.5 453.449219 446.550781 453.601562 447.523438 C 453.824219 448.648438 453.300781 450.523438 452.625 451.425781 C 451.949219 452.25 450.898438 453 449.851562 452.851562 C 448.5 452.773438 447.148438 450.300781 445.199219 449.175781 C 442.574219 447.75 437.398438 446.773438 435.300781 445.648438 C 434.175781 445.050781 433.5 444.675781 432.976562 443.925781 C 432.449219 443.175781 432.074219 442.125 432.226562 441.148438 C 432.375 440.023438 433.273438 438.226562 434.324219 437.550781 C 435.375 436.875 437.398438 436.800781 438.523438 437.324219 C 439.648438 437.773438 440.925781 439.425781 441.148438 440.625 C 441.375 441.824219 440.550781 443.773438 439.800781 444.601562 C 439.199219 445.351562 438.148438 445.726562 437.175781 445.875 C 436.273438 445.949219 435.148438 445.726562 434.398438 445.273438 C 433.648438 444.824219 432.898438 443.925781 432.523438 443.101562 C 432.148438 442.273438 432.148438 441.074219 432.375 440.25 C 432.601562 439.351562 433.199219 438.375 433.949219 437.851562 C 434.699219 437.25 435.523438 436.875 436.648438 436.875 C 438.675781 436.949219 442.800781 438.601562 444.976562 440.023438 C 446.625 441.148438 447.523438 443.398438 448.875 444.226562 C 449.851562 444.824219 451.050781 444.449219 451.875 444.976562 C 452.625 445.5 453.375 446.550781 453.601562 447.523438 C 453.824219 448.648438 453.300781 450.523438 452.625 451.425781 C 451.949219 452.25 450.824219 452.773438 449.851562 452.851562 C 448.949219 453 447.898438 452.773438 447 452.101562 C 445.5 450.976562 442.5 446.398438 442.949219 445.726562 C 443.25 445.273438 445.125 445.574219 445.949219 446.101562 C 446.925781 446.699219 447.976562 448.351562 448.125 449.398438 C 448.273438 450.375 447.898438 451.574219 447.375 452.324219 C 446.773438 453.148438 445.351562 454.273438 444.824219 454.050781 C 444 453.601562 443.773438 446.925781 444.75 446.023438 C 445.351562 445.5 446.925781 446.101562 447.75 446.476562 C 448.351562 446.773438 448.875 447.226562 449.25 447.824219 C 449.699219 448.800781 450 450.75 449.625 451.800781 C 449.324219 452.699219 448.5 453.375 447.601562 453.976562 C 446.324219 454.875 444 456.074219 442.574219 456.074219 C 441.523438 456.148438 440.476562 455.625 439.800781 455.175781 C 439.199219 454.726562 438.824219 454.199219 438.601562 453.523438 C 438.300781 452.773438 438.148438 451.5 438.449219 450.601562 C 438.898438 449.550781 439.949219 448.5 441.300781 447.898438 C 443.324219 447.074219 448.125 446.773438 450.074219 447.601562 C 451.351562 448.125 452.324219 449.25 452.699219 450.300781 C 453 451.125 452.851562 452.324219 452.476562 453.074219 C 452.101562 453.898438 451.574219 454.351562 450.449219 455.101562 C 447.300781 457.199219 436.125 460.800781 430.726562 463.425781 C 426.75 465.375 423 468.976562 420.75 469.125 C 419.699219 469.199219 418.949219 468.675781 418.351562 468.148438 C 417.675781 467.625 417.226562 466.574219 417.074219 465.824219 C 417 465.226562 417.148438 464.550781 417.300781 464.023438 C 417.523438 463.5 417.898438 462.976562 418.351562 462.601562 C 418.949219 462.074219 419.851562 461.773438 420.824219 461.625 C 422.324219 461.476562 423.824219 462.300781 426.523438 462.523438 C 433.425781 463.125 455.773438 461.550781 463.425781 463.050781 C 467.101562 463.800781 469.726562 466.351562 471.300781 466.273438 C 472.050781 466.199219 472.273438 465.449219 472.949219 465.300781 C 473.699219 465.074219 474.976562 465.148438 475.726562 465.449219 C 476.324219 465.675781 476.851562 466.050781 477.226562 466.648438 C 477.675781 467.25 478.199219 468.300781 478.050781 469.273438 C 477.898438 470.699219 476.175781 472.875 475.050781 474.226562 C 474 475.5 473.550781 475.875 471.675781 477.300781 C 465.601562 482.023438 435.375 502.351562 429.449219 504.75 C 428.023438 505.351562 427.5 505.5 426.601562 505.351562 C 425.699219 505.199219 424.648438 504.523438 424.050781 503.851562 C 423.523438 503.101562 423.074219 501.976562 423.148438 501.074219 C 423.300781 499.949219 425.175781 497.773438 425.175781 497.773438 "/></clipPath><clipPath id="5e80aaadc9"><path d="M 217.007812 364.152344 L 564.359375 364.152344 L 564.359375 715.835938 L 217.007812 715.835938 Z M 217.007812 364.152344 "/></clipPath><clipPath id="7341dee9c0"><path d="M 217.011719 564.679688 C 234.277344 504.808594 242.347656 502.378906 246.253906 496.390625 C 249.898438 490.839844 251.808594 480.6875 253.367188 478.171875 C 253.800781 477.476562 253.976562 477.738281 254.496094 476.957031 C 256.320312 473.746094 260.136719 454.394531 264.128906 449.277344 C 266.210938 446.585938 270.027344 447.453125 270.894531 444.675781 C 272.976562 438.605469 256.320312 419.601562 258.660156 408.839844 C 261.089844 397.648438 276.796875 385.847656 286.773438 379.253906 C 294.84375 373.785156 302.914062 371.703125 312.023438 369.363281 C 322.003906 366.757812 333.457031 365.457031 344.390625 365.023438 C 355.757812 364.675781 367.902344 365.628906 379.097656 367.191406 C 389.769531 368.667969 404.347656 371.792969 410.074219 373.875 C 412.417969 374.742188 412.765625 376.128906 414.757812 376.304688 C 417.882812 376.5625 421.613281 373.007812 426.90625 372.746094 C 436.191406 372.3125 457.363281 374.222656 466.386719 380.46875 C 473.761719 385.585938 473.761719 397.300781 480.269531 403.203125 C 487.210938 409.449219 501.441406 415.089844 507.515625 416.304688 C 510.292969 416.910156 510.988281 415.695312 514.023438 416.128906 C 521.660156 417.171875 545 419.425781 553.070312 428.539062 C 561.746094 438.429688 564.785156 464.289062 561.660156 475.914062 C 559.402344 484.15625 547.601562 488.0625 546.042969 494.394531 C 544.738281 499.429688 546.648438 506.023438 549.339844 509.929688 C 552.027344 513.746094 559.316406 513.050781 561.746094 517.824219 C 565.910156 525.71875 563.828125 549.929688 560.097656 559.386719 C 557.753906 565.460938 549.597656 569.710938 549.164062 572.226562 C 548.992188 573.269531 549.945312 573.269531 550.03125 574.398438 C 550.554688 579.082031 546.128906 603.726562 543.089844 610.148438 C 541.789062 612.835938 538.839844 613.703125 538.753906 615.351562 C 538.753906 616.742188 541.269531 617.175781 541.703125 619.34375 C 542.917969 625.070312 539.273438 643.988281 533.285156 654.050781 C 527.039062 664.550781 513.761719 675.832031 503.957031 680.515625 C 496.582031 684.074219 485.042969 682.859375 481.832031 684.074219 C 480.878906 684.421875 481.136719 684.679688 480.097656 685.117188 C 475.324219 687.285156 435.929688 698.128906 435.757812 698.21875 C 435.585938 698.390625 404.433594 713.75 392.808594 714.703125 C 385.34375 715.3125 380.660156 710.886719 373.804688 710.710938 C 365.820312 710.539062 356.972656 716.527344 347.945312 714.964844 C 336.40625 712.882812 315.84375 695.441406 311.15625 694.3125 C 310.117188 694.050781 310.117188 694.660156 309.160156 694.398438 C 304.824219 693.183594 282.175781 683.8125 277.925781 675.050781 C 274.191406 667.242188 284.691406 650.667969 281.394531 646.15625 C 279.226562 643.292969 273.585938 646.15625 269.246094 644.074219 C 262.480469 640.863281 251.113281 632.621094 247.035156 624.550781 C 242.957031 616.65625 248.164062 602.25 244.257812 596.351562 C 241.308594 591.925781 234.453125 592.964844 230.375 588.976562 C 224.996094 583.59375 217.011719 564.679688 217.011719 564.679688 M 355.929688 610.753906 C 360.441406 611.1875 359.921875 610.925781 359.660156 610.582031 C 359.140625 609.972656 357.492188 608.0625 357.492188 608.0625 C 357.492188 607.976562 356.710938 605.894531 356.449219 605.894531 C 356.101562 605.980469 355.929688 610.753906 355.929688 610.753906 M 369.8125 618.042969 C 370.421875 618.824219 371.113281 618.648438 371.113281 618.5625 C 371.113281 618.5625 370.59375 618.390625 370.332031 618.304688 C 370.160156 618.214844 369.8125 618.042969 369.8125 618.042969 "/></clipPath><clipPath id="c5d0fecc33"><path d="M 356.5 359.277344 L 438.273438 359.277344 L 438.273438 444.117188 L 356.5 444.117188 Z M 356.5 359.277344 "/></clipPath><clipPath id="c0fa306325"><path d="M 370.726562 365.175781 C 366.074219 385.125 366.074219 388.125 366.375 391.726562 C 366.675781 395.625 367.5 400.125 368.550781 403.800781 C 369.523438 407.101562 370.351562 409.273438 372.226562 412.800781 C 375.300781 418.648438 382.574219 433.273438 386.851562 434.773438 C 388.800781 435.449219 390 434.101562 392.398438 432.976562 C 397.574219 430.574219 410.550781 423.523438 415.574219 418.425781 C 418.949219 414.898438 420 411.300781 421.875 407.625 C 423.675781 403.949219 425.550781 400.726562 426.601562 396.449219 C 427.875 391.351562 428.851562 382.800781 428.175781 378.675781 C 427.800781 376.351562 425.925781 375.074219 425.925781 373.425781 C 426 371.925781 426.898438 370.125 428.023438 369.300781 C 429.074219 368.550781 431.324219 368.398438 432.523438 368.699219 C 433.574219 369 434.398438 369.824219 434.925781 370.726562 C 435.449219 371.550781 435.898438 372.675781 435.675781 373.726562 C 435.449219 375 434.398438 376.949219 433.199219 377.550781 C 432 378.226562 429.824219 378.148438 428.625 377.699219 C 427.648438 377.25 426.898438 376.351562 426.449219 375.449219 C 426 374.550781 425.851562 373.351562 426 372.375 C 426.226562 371.398438 426.824219 370.273438 427.574219 369.675781 C 428.324219 369 429.375 368.398438 430.425781 368.398438 C 431.699219 368.476562 433.5 369.148438 434.625 370.273438 C 436.125 371.625 437.324219 373.726562 437.925781 376.5 C 438.824219 381 437.175781 390.449219 436.351562 395.324219 C 435.824219 398.550781 435.601562 400.050781 434.398438 403.125 C 432.601562 408 428.324219 417 425.324219 421.125 C 423.449219 423.824219 422.476562 424.726562 419.773438 426.898438 C 414.75 431.101562 401.773438 439.875 395.851562 442.351562 C 392.773438 443.625 390.675781 444 388.273438 444.074219 C 386.023438 444.074219 383.625 443.851562 381.824219 442.949219 C 380.101562 442.125 379.273438 441 377.550781 438.976562 C 373.800781 434.324219 364.800781 419.851562 362.101562 414.375 C 360.824219 411.75 360.601562 410.851562 359.851562 408.375 C 358.726562 404.550781 357.074219 398.398438 356.773438 393.375 C 356.398438 388.351562 356.925781 383.324219 357.75 378.226562 C 358.648438 372.75 360.449219 364.425781 362.25 361.648438 C 363 360.375 363.824219 359.851562 364.800781 359.550781 C 365.773438 359.175781 367.125 359.25 368.023438 359.625 C 369 360.074219 369.976562 360.976562 370.425781 361.949219 C 370.875 362.851562 370.726562 365.175781 370.726562 365.175781 "/></clipPath><clipPath id="7f9982312d"><path d="M 246.5 459.875 L 307.808594 459.875 L 307.808594 507.101562 L 246.5 507.101562 Z M 246.5 459.875 "/></clipPath><clipPath id="e3e95b4d0d"><path d="M 264.75 473.851562 C 260.476562 472.800781 258.300781 474.976562 257.324219 476.550781 C 256.425781 478.199219 255.75 480.449219 256.050781 482.175781 C 256.425781 483.976562 257.699219 485.476562 259.5 487.125 C 262.5 489.898438 270.449219 493.800781 274.125 495.523438 C 276.148438 496.425781 277.351562 496.949219 279.074219 497.324219 C 280.800781 497.699219 282.75 497.925781 284.476562 497.625 C 286.273438 497.324219 288.074219 496.726562 289.726562 495.300781 C 292.125 493.273438 294.898438 488.101562 296.25 485.101562 C 297.226562 482.851562 298.199219 480.976562 297.898438 479.101562 C 297.523438 477.226562 295.574219 475.125 294 473.851562 C 292.574219 472.726562 290.925781 472.125 289.199219 471.523438 C 287.398438 470.851562 285.601562 470.476562 283.5 470.175781 C 280.726562 469.800781 275.699219 471.148438 274.050781 469.800781 C 272.851562 468.75 272.851562 465.675781 273.074219 464.625 C 273.148438 464.101562 273.375 463.648438 273.675781 463.574219 C 274.351562 463.5 276.601562 465.523438 277.050781 466.800781 C 277.5 468.148438 276.976562 470.324219 276.300781 471.375 C 275.699219 472.273438 274.648438 472.949219 273.675781 473.175781 C 272.699219 473.476562 271.425781 473.476562 270.523438 473.023438 C 269.324219 472.425781 267.75 470.773438 267.523438 469.425781 C 267.226562 468.074219 267.824219 465.976562 268.726562 465 C 269.699219 463.949219 271.800781 463.273438 273.148438 463.5 C 274.5 463.726562 276.226562 465.226562 276.898438 466.351562 C 277.351562 467.25 277.425781 468.523438 277.199219 469.5 C 276.976562 470.476562 276.449219 471.601562 275.550781 472.199219 C 274.5 472.949219 272.476562 473.398438 270.976562 473.175781 C 269.398438 472.949219 267.300781 471.898438 266.324219 470.625 C 265.351562 469.5 264.675781 467.550781 264.898438 466.050781 C 265.273438 464.398438 267.300781 462.074219 268.949219 461.101562 C 270.449219 460.199219 272.476562 460.199219 274.199219 459.976562 C 275.925781 459.824219 277.199219 459.898438 279.375 460.125 C 282.824219 460.5 289.273438 461.324219 292.949219 462.523438 C 295.574219 463.425781 297.449219 464.550781 299.476562 465.824219 C 301.574219 467.023438 303.898438 468.226562 305.25 470.101562 C 306.675781 472.050781 307.351562 475.125 307.648438 477.375 C 307.875 479.398438 307.574219 481.125 307.125 483 C 306.675781 485.101562 306.074219 486.898438 304.875 489.226562 C 303.148438 492.75 299.773438 498.976562 296.925781 501.675781 C 294.898438 503.625 292.726562 504.375 290.550781 505.273438 C 288.523438 506.101562 286.726562 506.851562 284.25 507 C 280.949219 507.226562 276.75 506.699219 272.625 505.351562 C 267.300781 503.550781 259.5 499.273438 255.523438 496.273438 C 252.824219 494.25 251.101562 492.226562 249.675781 490.273438 C 248.550781 488.699219 247.800781 487.351562 247.273438 485.625 C 246.75 483.675781 246.449219 481.273438 246.601562 479.25 C 246.75 477.375 247.273438 475.5 248.101562 473.773438 C 248.925781 471.898438 250.050781 469.875 251.699219 468.375 C 253.5 466.726562 256.351562 465.148438 258.601562 464.476562 C 260.550781 463.800781 262.648438 463.648438 264.375 463.875 C 265.800781 464.023438 267.148438 464.625 268.199219 465.226562 C 269.175781 465.824219 270.148438 466.574219 270.601562 467.476562 C 271.050781 468.375 271.199219 469.800781 270.976562 470.773438 C 270.675781 471.75 270 472.875 269.023438 473.398438 C 267.976562 474.074219 264.75 473.851562 264.75 473.851562 "/></clipPath><clipPath id="5e1d6a3eae"><path d="M 266.292969 481.449219 L 313.324219 481.449219 L 313.324219 548.605469 L 266.292969 548.605469 Z M 266.292969 481.449219 "/></clipPath><clipPath id="384c3982d3"><path d="M 312.824219 487.800781 C 310.050781 495 309.601562 497.925781 309.148438 501.675781 C 308.476562 507.375 308.398438 519.074219 307.800781 523.726562 C 307.5 525.824219 307.351562 526.648438 306.75 528.300781 C 306 530.550781 305.175781 533.398438 303.226562 535.875 C 300.675781 539.175781 295.351562 543.675781 291.449219 545.625 C 288.523438 547.125 285.976562 547.425781 282.75 547.800781 C 278.851562 548.324219 272.398438 549.148438 269.699219 548.023438 C 268.125 547.351562 267.074219 546 266.625 544.800781 C 266.324219 543.898438 266.324219 542.699219 266.773438 541.800781 C 267.300781 540.75 268.875 539.25 270.148438 538.949219 C 271.351562 538.648438 273.449219 539.175781 274.351562 540.074219 C 275.324219 540.976562 276 542.925781 275.851562 544.273438 C 275.625 545.550781 274.351562 547.199219 273.226562 547.800781 C 272.023438 548.324219 269.851562 548.101562 268.800781 547.574219 C 267.898438 547.125 267.148438 546.148438 266.851562 545.324219 C 266.476562 544.425781 266.398438 543.226562 266.625 542.324219 C 266.851562 541.425781 267.523438 540.375 268.273438 539.773438 C 269.023438 539.25 269.773438 539.101562 271.125 538.800781 C 274.125 538.199219 282 539.625 286.273438 538.050781 C 290.023438 536.625 293.773438 533.101562 295.800781 530.773438 C 297 529.273438 297.449219 528.074219 298.050781 526.425781 C 298.800781 524.25 299.25 521.851562 299.625 518.925781 C 300.074219 514.949219 299.476562 509.476562 299.925781 504.675781 C 300.449219 499.574219 301.425781 492.898438 302.625 489 C 303.375 486.601562 304.050781 484.574219 305.175781 483.300781 C 305.925781 482.398438 306.824219 481.726562 307.875 481.574219 C 309 481.425781 310.949219 482.023438 311.851562 482.773438 C 312.601562 483.449219 313.050781 484.726562 313.199219 485.625 C 313.273438 486.375 312.824219 487.800781 312.824219 487.800781 "/></clipPath><clipPath id="b555496fa9"><path d="M 333.457031 471.613281 L 385 471.613281 L 385 522.367188 L 333.457031 522.367188 Z M 333.457031 471.613281 "/></clipPath><clipPath id="eae3df004a"><path d="M 349.050781 494.476562 C 359.550781 492.601562 362.476562 491.398438 363.75 489.824219 C 364.800781 488.550781 365.476562 486.523438 365.175781 485.101562 C 364.875 483.675781 363.675781 482.023438 362.023438 481.351562 C 359.101562 480.074219 350.773438 480.75 347.773438 482.25 C 345.898438 483.226562 345 484.800781 344.175781 486.375 C 343.425781 488.101562 343.050781 490.425781 343.199219 492.375 C 343.351562 494.398438 344.175781 496.574219 345.226562 498.375 C 346.125 500.023438 347.476562 501.375 348.976562 502.800781 C 350.625 504.375 352.574219 505.949219 354.824219 507.300781 C 357.449219 508.949219 361.125 510.824219 364.050781 511.726562 C 366.449219 512.476562 368.699219 512.625 370.949219 512.851562 C 373.050781 513 375.449219 513.300781 377.175781 513 C 378.375 512.851562 379.199219 511.949219 380.175781 511.875 C 381.148438 511.875 382.273438 512.101562 383.023438 512.773438 C 383.925781 513.523438 384.898438 515.398438 384.976562 516.601562 C 385.050781 517.574219 384.523438 518.699219 384 519.375 C 383.398438 520.125 382.5 520.875 381.523438 521.023438 C 380.324219 521.25 378.226562 520.875 377.25 519.976562 C 376.351562 519.148438 375.601562 517.199219 375.75 515.925781 C 375.898438 514.648438 377.25 513 378.300781 512.398438 C 379.125 511.875 380.25 511.726562 381.226562 511.949219 C 382.351562 512.25 384 513.601562 384.601562 514.648438 C 385.050781 515.550781 385.050781 516.675781 384.824219 517.648438 C 384.601562 518.550781 384.226562 519.449219 383.25 520.125 C 381.523438 521.324219 376.949219 521.925781 373.875 522.148438 C 371.023438 522.300781 368.476562 522 365.550781 521.398438 C 362.175781 520.648438 357.75 519 354.75 517.726562 C 352.574219 516.824219 351.148438 516.226562 349.199219 514.949219 C 346.875 513.523438 343.726562 510.976562 341.851562 509.175781 C 340.5 507.898438 339.601562 507 338.625 505.574219 C 337.425781 503.851562 336 501.523438 335.175781 499.199219 C 334.273438 496.800781 333.601562 493.800781 333.601562 491.175781 C 333.675781 488.773438 334.425781 486.148438 335.175781 484.050781 C 335.925781 482.25 336.75 480.75 337.949219 479.175781 C 339.300781 477.375 340.875 475.125 343.125 473.925781 C 345.898438 472.5 350.699219 472.199219 354 471.976562 C 356.773438 471.75 359.175781 471.75 361.574219 472.199219 C 363.976562 472.726562 366.675781 473.476562 368.476562 474.75 C 370.050781 475.875 371.175781 477.375 372.148438 479.101562 C 373.125 480.976562 374.023438 483.449219 374.175781 485.550781 C 374.324219 487.648438 374.023438 489.75 373.199219 491.625 C 372.226562 493.648438 370.5 495.523438 368.476562 497.101562 C 365.925781 499.050781 361.949219 500.699219 358.648438 501.75 C 355.574219 502.726562 351.675781 503.699219 349.5 503.398438 C 348.226562 503.25 347.25 502.800781 346.574219 502.050781 C 345.898438 501.375 345.375 500.101562 345.300781 499.125 C 345.300781 498.148438 345.675781 496.875 346.351562 496.050781 C 346.949219 495.300781 349.050781 494.476562 349.050781 494.476562 "/></clipPath><clipPath id="fe89a2c708"><path d="M 401.691406 461.695312 L 416.703125 461.695312 L 416.703125 523.695312 L 401.691406 523.695312 Z M 401.691406 461.695312 "/></clipPath><clipPath id="e9d2401d25"><path d="M 410.476562 466.050781 C 413.851562 503.625 416.851562 515.175781 416.625 519.226562 C 416.550781 520.648438 416.324219 521.324219 415.875 522 C 415.5 522.601562 414.976562 522.976562 414.375 523.273438 C 413.851562 523.574219 413.175781 523.726562 412.5 523.648438 C 411.675781 523.648438 410.476562 523.125 409.875 522.601562 C 409.351562 522.148438 409.050781 521.699219 408.824219 520.949219 C 408.300781 519.675781 407.773438 516.675781 408 515.175781 C 408.074219 514.199219 408.300781 513.375 408.898438 512.773438 C 409.648438 512.023438 411.300781 511.199219 412.425781 511.273438 C 413.550781 511.425781 415.050781 512.398438 415.648438 513.375 C 416.175781 514.425781 416.101562 516.226562 415.648438 517.199219 C 415.351562 518.023438 414.523438 518.699219 413.773438 519 C 413.023438 519.375 412.050781 519.601562 411.226562 519.300781 C 410.175781 519 408.675781 517.949219 408.300781 516.898438 C 407.851562 515.851562 408 514.050781 408.675781 513.074219 C 409.273438 512.175781 410.925781 511.351562 411.976562 511.273438 C 412.875 511.199219 413.851562 511.574219 414.449219 512.101562 C 415.125 512.550781 415.648438 513.226562 415.949219 514.199219 C 416.476562 515.851562 416.773438 519.75 416.324219 521.175781 C 416.101562 521.925781 415.726562 522.300781 415.199219 522.75 C 414.523438 523.199219 413.398438 523.726562 412.5 523.648438 C 411.601562 523.648438 410.550781 523.199219 409.875 522.601562 C 409.199219 522 409.050781 521.398438 408.601562 520.050781 C 407.324219 516.148438 405.976562 504.074219 404.851562 496.050781 C 403.800781 488.101562 402.226562 477.449219 401.925781 472.125 C 401.773438 469.425781 401.550781 467.699219 401.851562 466.050781 C 402.074219 464.925781 402.226562 463.875 402.976562 463.199219 C 403.726562 462.375 405.523438 461.699219 406.726562 461.773438 C 407.699219 461.851562 408.75 462.449219 409.425781 463.199219 C 410.023438 463.875 410.476562 466.050781 410.476562 466.050781 "/></clipPath><clipPath id="d64954bad5"><path d="M 387.917969 491.554688 L 449.984375 491.554688 L 449.984375 500.796875 L 387.917969 500.796875 Z M 387.917969 491.554688 "/></clipPath><clipPath id="c3ae37ba7e"><path d="M 391.726562 492.523438 C 447.375 491.699219 447.824219 491.773438 448.425781 492.300781 C 449.175781 492.976562 450 494.550781 449.925781 495.601562 C 449.851562 496.648438 448.875 498.074219 448.050781 498.675781 C 447.375 499.199219 446.476562 499.273438 445.648438 499.199219 C 444.898438 499.125 444 498.824219 443.476562 498.226562 C 442.800781 497.476562 442.199219 495.75 442.273438 494.773438 C 442.351562 493.949219 442.800781 493.125 443.398438 492.601562 C 444.226562 492 445.949219 491.476562 446.925781 491.625 C 447.75 491.699219 448.5 492.300781 449.023438 492.898438 C 449.550781 493.5 449.925781 494.398438 449.925781 495.148438 C 450 495.976562 449.773438 496.875 449.25 497.550781 C 448.648438 498.300781 447.824219 498.824219 446.101562 499.273438 C 440.476562 500.699219 418.273438 499.125 408.226562 499.5 C 401.476562 499.726562 394.574219 501.300781 391.5 500.625 C 390.226562 500.324219 389.550781 499.875 388.949219 499.199219 C 388.351562 498.449219 387.976562 497.324219 387.976562 496.425781 C 388.050781 495.523438 388.5 494.398438 389.101562 493.800781 C 389.699219 493.125 391.726562 492.523438 391.726562 492.523438 "/></clipPath><clipPath id="0a30636b8a"><path d="M 305.132812 556.605469 L 320.277344 556.605469 L 320.277344 618.679688 L 305.132812 618.679688 Z M 305.132812 556.605469 "/></clipPath><clipPath id="b28c200e35"><path d="M 320.25 561.523438 C 317.398438 583.351562 317.25 602.023438 315.75 609.449219 C 315 613.125 314.101562 616.125 313.125 617.398438 C 312.75 617.925781 312.449219 618.074219 311.851562 618.226562 C 310.875 618.523438 308.625 618.675781 307.5 618 C 306.375 617.324219 305.398438 615.375 305.25 614.175781 C 305.101562 613.199219 305.398438 612.074219 306 611.324219 C 306.824219 610.351562 308.625 609.300781 309.898438 609.300781 C 311.25 609.300781 313.050781 610.273438 313.800781 611.324219 C 314.550781 612.375 314.625 614.550781 314.25 615.675781 C 313.949219 616.648438 313.125 617.476562 312.300781 618 C 311.476562 618.449219 310.351562 618.75 309.375 618.601562 C 308.476562 618.523438 307.351562 618.074219 306.675781 617.324219 C 305.851562 616.425781 305.175781 614.398438 305.25 613.199219 C 305.398438 612.148438 306.226562 612.074219 306.675781 610.574219 C 308.550781 604.273438 309.074219 565.648438 311.550781 559.648438 C 312.148438 558.148438 312.75 557.699219 313.574219 557.25 C 314.476562 556.726562 315.75 556.5 316.726562 556.726562 C 317.699219 556.949219 318.824219 557.699219 319.425781 558.449219 C 319.949219 559.273438 320.25 561.523438 320.25 561.523438 "/></clipPath><clipPath id="e56cf03814"><path d="M 299.476562 560 L 319.265625 560 L 319.265625 575.105469 L 299.476562 575.105469 Z M 299.476562 560 "/></clipPath><clipPath id="01a5f9eb40"><path d="M 301.5 566.699219 C 311.398438 560.851562 313.125 560.023438 314.550781 560.023438 C 315.601562 560.023438 316.574219 560.398438 317.324219 560.925781 C 318.074219 561.449219 318.824219 562.425781 319.050781 563.324219 C 319.351562 564.226562 319.273438 565.425781 318.898438 566.324219 C 318.601562 567.148438 317.925781 568.125 317.023438 568.574219 C 315.976562 569.101562 313.875 569.398438 312.75 568.875 C 311.550781 568.351562 310.273438 566.699219 310.050781 565.5 C 309.824219 564.226562 310.425781 562.199219 311.398438 561.375 C 312.300781 560.476562 314.25 559.875 315.523438 560.101562 C 316.800781 560.398438 318.375 561.675781 318.898438 562.875 C 319.351562 564.074219 319.351562 565.800781 318.449219 567.226562 C 316.800781 569.851562 308.550781 574.050781 305.625 574.800781 C 304.199219 575.175781 303.300781 575.101562 302.324219 574.726562 C 301.425781 574.351562 300.449219 573.449219 300 572.550781 C 299.550781 571.648438 299.398438 570.300781 299.625 569.324219 C 299.925781 568.351562 301.5 566.699219 301.5 566.699219 "/></clipPath><clipPath id="585af3f51b"><path d="M 288.921875 607 L 319.292969 607 L 319.292969 618.652344 L 288.921875 618.652344 Z M 288.921875 607 "/></clipPath><clipPath id="b3755e58d3"><path d="M 293.476562 607.050781 C 309.074219 607.273438 310.425781 607.425781 312.148438 607.949219 C 313.949219 608.476562 316.125 609.226562 317.324219 610.199219 C 318.148438 610.875 318.75 611.699219 319.050781 612.601562 C 319.273438 613.5 319.273438 614.699219 318.976562 615.523438 C 318.601562 616.425781 317.925781 617.324219 317.101562 617.851562 C 316.351562 618.375 315.226562 618.75 314.25 618.601562 C 313.050781 618.375 311.25 617.324219 310.574219 616.199219 C 309.976562 615.148438 310.050781 613.050781 310.5 611.925781 C 310.800781 611.023438 311.625 610.199219 312.523438 609.824219 C 313.648438 609.375 315.824219 609.449219 316.875 609.898438 C 317.773438 610.351562 318.449219 611.25 318.824219 612.148438 C 319.199219 612.976562 319.351562 614.175781 319.125 615.074219 C 318.898438 615.976562 318.226562 616.949219 317.476562 617.550781 C 316.800781 618.148438 315.898438 618.523438 314.773438 618.601562 C 312.824219 618.601562 309.976562 616.648438 306.898438 616.125 C 302.625 615.375 293.851562 616.648438 291.375 615.675781 C 290.398438 615.300781 290.101562 614.851562 289.726562 614.175781 C 289.273438 613.425781 288.824219 612.074219 288.976562 611.023438 C 289.050781 610.050781 289.726562 608.851562 290.476562 608.175781 C 291.226562 607.5 293.476562 607.050781 293.476562 607.050781 "/></clipPath><clipPath id="c8f1c02619"><path d="M 331 563.078125 L 373.59375 563.078125 L 373.59375 614 L 331 614 Z M 331 563.078125 "/></clipPath><clipPath id="62996201c5"><path d="M 351.898438 573.898438 C 346.199219 576.449219 341.925781 585.898438 340.875 590.925781 C 340.050781 594.601562 339.898438 599.023438 341.101562 601.273438 C 341.925781 602.773438 343.5 603.523438 345.148438 604.125 C 347.023438 604.726562 349.875 604.800781 351.824219 604.425781 C 353.550781 604.125 355.050781 603.675781 356.324219 602.476562 C 358.273438 600.675781 359.851562 596.699219 361.050781 593.699219 C 362.25 590.699219 363.074219 587.175781 363.523438 584.398438 C 363.824219 582.148438 364.648438 579.449219 363.75 578.175781 C 362.773438 576.976562 359.699219 577.726562 357.898438 577.050781 C 356.175781 576.375 354.898438 575.101562 353.023438 574.273438 C 350.773438 573.300781 346.648438 572.925781 345.148438 571.726562 C 344.25 570.898438 343.800781 569.925781 343.726562 568.875 C 343.648438 567.601562 344.476562 565.425781 345.300781 564.523438 C 346.050781 563.699219 347.25 563.324219 348.226562 563.25 C 349.199219 563.175781 350.476562 563.324219 351.300781 564 C 352.351562 564.75 353.550781 566.625 353.625 568.050781 C 353.625 569.398438 352.5 571.351562 351.523438 572.175781 C 350.773438 572.851562 349.574219 573.148438 348.523438 573.148438 C 347.550781 573.074219 346.351562 572.773438 345.601562 572.023438 C 344.625 571.199219 343.648438 569.175781 343.726562 567.824219 C 343.800781 566.398438 345.148438 564.601562 346.199219 563.851562 C 347.101562 563.25 348.074219 563.25 349.273438 563.25 C 351.148438 563.25 353.550781 563.851562 356.101562 564.75 C 359.625 565.949219 365.324219 568.949219 368.175781 570.824219 C 369.898438 572.023438 371.175781 572.699219 372.074219 574.125 C 373.050781 575.851562 373.273438 578.550781 373.425781 580.648438 C 373.574219 582.523438 373.425781 583.949219 373.050781 586.125 C 372.523438 589.351562 370.875 594.824219 369.75 597.898438 C 368.925781 599.925781 368.25 601.125 367.273438 602.699219 C 366.300781 604.5 365.324219 606.449219 363.75 608.023438 C 362.101562 609.75 359.925781 611.398438 357.449219 612.375 C 354.675781 613.5 350.398438 613.726562 347.773438 613.800781 C 345.976562 613.875 344.851562 613.949219 343.125 613.5 C 340.949219 612.898438 337.574219 611.773438 335.699219 610.050781 C 333.824219 608.324219 332.550781 605.550781 331.800781 603.148438 C 331.050781 600.824219 331.125 598.425781 331.125 595.949219 C 331.125 593.476562 331.050781 591.074219 331.875 588.226562 C 332.925781 584.25 336.300781 578.324219 338.324219 574.648438 C 339.824219 571.949219 341.023438 569.550781 342.675781 568.050781 C 343.875 566.851562 345.074219 566.101562 346.5 565.574219 C 347.925781 565.050781 349.949219 564.675781 351.226562 564.75 C 352.050781 564.824219 352.726562 564.976562 353.324219 565.351562 C 353.925781 565.726562 354.523438 566.25 354.898438 566.925781 C 355.351562 567.75 355.648438 569.175781 355.574219 570.074219 C 355.425781 570.898438 355.199219 571.574219 354.675781 572.101562 C 354.074219 572.851562 351.898438 573.898438 351.898438 573.898438 "/></clipPath><clipPath id="3b67ddd91e"><path d="M 380.285156 565.460938 L 431.09375 565.460938 L 431.09375 615.1875 L 380.285156 615.1875 Z M 380.285156 565.460938 "/></clipPath><clipPath id="01a0e91864"><path d="M 398.023438 577.273438 C 392.101562 579.375 390.601562 580.800781 389.925781 582.675781 C 389.023438 585.300781 389.550781 590.398438 390.375 593.25 C 390.976562 595.351562 391.800781 596.773438 393.375 598.351562 C 395.550781 600.523438 400.648438 602.699219 403.351562 603.898438 C 405 604.648438 406.199219 605.476562 407.699219 605.398438 C 409.273438 605.25 411.148438 604.050781 412.648438 602.699219 C 414.449219 601.125 416.101562 598.050781 417.449219 596.175781 C 418.5 594.675781 419.550781 593.773438 420.148438 592.199219 C 420.898438 590.476562 421.425781 588 421.125 586.125 C 420.898438 584.398438 419.925781 582.675781 418.800781 581.398438 C 417.675781 580.125 416.023438 579.226562 414.375 578.324219 C 412.351562 577.351562 410.101562 576.601562 407.398438 576 C 403.800781 575.25 396.824219 576.074219 394.351562 574.800781 C 393.148438 574.125 392.476562 573.226562 392.101562 572.175781 C 391.800781 570.976562 392.023438 568.800781 392.773438 567.675781 C 393.523438 566.625 395.25 565.726562 396.824219 565.648438 C 398.851562 565.574219 402.523438 567.074219 403.875 568.351562 C 404.699219 569.175781 405.074219 570.226562 405.148438 571.199219 C 405.300781 572.175781 405 573.375 404.476562 574.199219 C 403.949219 575.101562 403.050781 575.925781 402.074219 576.226562 C 401.175781 576.601562 399.976562 576.75 399 576.449219 C 397.800781 576 396.148438 574.425781 395.625 573.226562 C 395.25 572.25 395.25 571.050781 395.699219 570.148438 C 396.148438 568.949219 397.726562 567.300781 399 567 C 400.273438 566.625 402.449219 567.074219 403.5 567.976562 C 404.550781 568.875 405.226562 570.976562 405.148438 572.25 C 405.148438 573.300781 404.550781 574.351562 403.875 575.101562 C 403.199219 575.773438 402.300781 576.449219 401.101562 576.523438 C 399.226562 576.675781 394.875 575.550781 393.449219 574.125 C 392.324219 573.074219 391.726562 571.199219 391.875 569.851562 C 392.101562 568.5 393.300781 566.851562 394.574219 566.175781 C 396 565.351562 398.398438 565.726562 400.425781 565.726562 C 402.523438 565.726562 404.398438 565.726562 406.875 566.175781 C 410.25 566.773438 415.574219 568.125 418.800781 569.625 C 421.199219 570.75 422.851562 572.101562 424.648438 573.523438 C 426.300781 574.875 428.101562 576.074219 429.148438 578.023438 C 430.351562 580.273438 430.800781 584.023438 430.949219 586.574219 C 431.101562 588.601562 430.949219 590.25 430.5 592.050781 C 429.976562 594.074219 429.148438 595.949219 427.800781 598.273438 C 425.699219 601.726562 421.800781 607.726562 418.351562 610.5 C 415.5 612.824219 411.976562 614.550781 409.050781 614.925781 C 406.648438 615.300781 404.773438 614.699219 402.226562 613.800781 C 398.550781 612.523438 392.851562 609.523438 389.476562 606.824219 C 386.773438 604.648438 384.601562 601.875 383.175781 599.699219 C 382.125 598.199219 381.601562 597.148438 381.148438 595.5 C 380.550781 593.398438 380.398438 590.625 380.476562 588.226562 C 380.476562 585.824219 380.625 583.199219 381.148438 581.175781 C 381.601562 579.449219 381.976562 578.101562 383.101562 576.523438 C 384.675781 574.351562 388.050781 571.273438 390.601562 569.925781 C 392.550781 568.875 394.949219 568.199219 396.601562 568.273438 C 397.800781 568.273438 398.925781 568.648438 399.75 569.324219 C 400.5 569.925781 401.175781 571.125 401.324219 572.175781 C 401.476562 573.148438 401.25 574.5 400.648438 575.324219 C 400.125 576.226562 398.023438 577.273438 398.023438 577.273438 "/></clipPath><clipPath id="0607dd62f5"><path d="M 434 566.816406 L 483.933594 566.816406 L 483.933594 626.570312 L 434 626.570312 Z M 434 566.816406 "/></clipPath><clipPath id="338f881db4"><path d="M 451.648438 575.773438 C 445.800781 580.050781 444.898438 585.675781 444.226562 590.175781 C 443.398438 595.425781 442.351562 604.050781 443.773438 607.574219 C 444.523438 609.523438 446.023438 610.125 447.523438 611.324219 C 449.25 612.675781 451.648438 614.25 453.75 615.226562 C 455.625 616.125 457.726562 617.101562 459.601562 617.023438 C 461.324219 616.949219 462.824219 616.050781 464.476562 615.226562 C 466.425781 614.25 468.976562 613.125 470.398438 611.550781 C 471.601562 610.199219 472.050781 608.476562 472.648438 606.675781 C 473.324219 604.726562 474.226562 602.324219 474 600.300781 C 473.773438 598.273438 472.574219 596.476562 471.449219 594.601562 C 470.25 592.574219 468.601562 590.550781 466.574219 588.601562 C 464.023438 586.125 460.5 583.273438 457.125 581.25 C 453.75 579.375 449.925781 577.800781 446.476562 576.824219 C 443.398438 575.925781 439.050781 576.75 437.324219 575.398438 C 436.125 574.5 435.449219 572.699219 435.523438 571.351562 C 435.601562 570.074219 436.800781 568.351562 437.851562 567.601562 C 438.675781 567.074219 439.875 566.925781 440.773438 567 C 441.75 567.148438 442.875 567.523438 443.476562 568.351562 C 444.300781 569.25 445.125 571.273438 444.898438 572.550781 C 444.601562 573.824219 443.324219 575.476562 442.125 576 C 440.925781 576.523438 438.824219 576.375 437.699219 575.699219 C 436.648438 575.023438 435.675781 573.074219 435.523438 571.875 C 435.375 570.898438 435.824219 569.773438 436.351562 569.023438 C 436.875 568.199219 437.699219 567.523438 438.75 567.226562 C 440.398438 566.699219 443.476562 567 445.5 567.226562 C 447.148438 567.449219 448.125 567.675781 449.925781 568.273438 C 453.074219 569.324219 458.550781 571.351562 462.523438 573.675781 C 466.5 576 470.398438 579.074219 473.699219 582.300781 C 476.925781 585.300781 480.375 589.351562 482.023438 592.273438 C 483.074219 594.148438 483.449219 595.648438 483.675781 597.449219 C 483.976562 599.550781 483.898438 601.574219 483.375 604.050781 C 482.625 607.574219 480.824219 613.351562 478.574219 616.425781 C 476.851562 618.898438 474.300781 620.25 472.050781 621.75 C 469.949219 623.175781 468 624.375 465.675781 625.125 C 463.273438 625.949219 460.5 626.550781 457.800781 626.324219 C 454.949219 626.023438 451.800781 624.75 449.023438 623.476562 C 446.324219 622.199219 443.625 620.550781 441.449219 618.675781 C 439.351562 616.949219 437.324219 614.699219 436.050781 612.675781 C 435.148438 611.101562 434.699219 610.050781 434.324219 607.949219 C 433.726562 604.199219 434.101562 596.773438 434.699219 591.824219 C 435.148438 587.476562 436.125 583.125 437.101562 579.675781 C 437.925781 576.976562 438.375 574.648438 439.949219 572.699219 C 441.675781 570.523438 445.5 568.351562 447.523438 567.601562 C 448.800781 567.148438 449.851562 567 450.824219 567.226562 C 451.800781 567.523438 452.851562 568.425781 453.449219 569.175781 C 453.898438 569.773438 454.125 570.449219 454.199219 571.199219 C 454.199219 572.175781 453.824219 573.601562 453.375 574.351562 C 452.925781 575.023438 451.648438 575.773438 451.648438 575.773438 "/></clipPath><clipPath id="96978631e6"><path d="M 226.132812 646.71875 L 259.792969 646.71875 L 259.792969 706 L 226.132812 706 Z M 226.132812 646.71875 "/></clipPath><clipPath id="7fb22594cd"><path d="M 251.175781 659.023438 C 246.226562 656.773438 243.601562 657.148438 242.324219 658.125 C 241.199219 659.023438 239.925781 661.050781 240.375 662.324219 C 241.050781 664.351562 248.324219 665.773438 250.726562 667.5 C 252.300781 668.550781 253.125 669.449219 254.101562 670.726562 C 255.148438 672.148438 255.976562 673.800781 256.800781 675.824219 C 257.925781 678.675781 259.5 683.25 259.648438 686.324219 C 259.800781 688.800781 259.351562 691.125 258.523438 693 C 257.851562 694.574219 256.800781 695.851562 255.449219 696.898438 C 253.875 698.175781 251.925781 698.773438 249.300781 699.824219 C 244.949219 701.625 234.824219 705.824219 231.375 705.898438 C 229.875 705.898438 229.125 705.523438 228.300781 704.925781 C 227.476562 704.324219 226.726562 703.273438 226.425781 702.300781 C 226.125 701.25 226.050781 700.050781 226.5 699 C 227.101562 697.875 228.75 696.226562 230.101562 695.925781 C 231.449219 695.550781 233.625 696.148438 234.675781 697.125 C 235.726562 698.023438 236.476562 700.199219 236.25 701.550781 C 236.101562 702.976562 234.75 704.773438 233.476562 705.375 C 232.199219 705.976562 229.949219 705.898438 228.75 705.226562 C 227.550781 704.476562 226.273438 702.601562 226.199219 701.175781 C 226.125 699.824219 226.726562 698.175781 228.148438 696.824219 C 230.851562 694.273438 241.425781 693.074219 245.023438 690.675781 C 247.273438 689.25 249 687.75 249.523438 686.101562 C 249.976562 684.675781 249.226562 683.023438 248.699219 681.523438 C 248.175781 679.726562 247.574219 677.773438 246 676.125 C 243.824219 673.875 238.273438 672.300781 235.800781 670.125 C 233.851562 668.398438 232.351562 666.675781 231.601562 664.648438 C 230.851562 662.625 230.925781 659.925781 231.375 657.898438 C 231.75 656.101562 232.273438 654.601562 233.625 653.023438 C 235.351562 650.925781 239.398438 648.074219 242.023438 647.25 C 243.976562 646.648438 245.550781 646.800781 247.574219 647.25 C 250.125 647.773438 254.175781 649.648438 255.976562 651.074219 C 257.023438 651.898438 257.625 652.800781 258 653.625 C 258.300781 654.375 258.300781 655.125 258.148438 655.875 C 257.925781 656.773438 257.25 658.050781 256.425781 658.726562 C 255.601562 659.324219 254.25 659.699219 253.273438 659.699219 C 252.523438 659.699219 251.175781 659.023438 251.175781 659.023438 "/></clipPath><clipPath id="8d5ba59504"><path d="M 237.585938 640.242188 L 249.566406 640.242188 L 249.566406 712.050781 L 237.585938 712.050781 Z M 237.585938 640.242188 "/></clipPath><clipPath id="a95bd4ad06"><path d="M 247.199219 644.925781 C 245.773438 665.25 245.25 678 245.773438 686.101562 C 246.148438 692.175781 247.125 698.023438 247.875 702.074219 C 248.398438 704.550781 249.601562 706.5 249.523438 708.074219 C 249.449219 709.050781 249.074219 709.875 248.550781 710.550781 C 248.023438 711.148438 247.125 711.75 246.300781 711.898438 C 245.476562 712.125 244.425781 711.976562 243.601562 711.675781 C 242.851562 711.300781 242.023438 710.625 241.648438 709.875 C 241.273438 708.824219 241.125 706.949219 241.648438 705.976562 C 242.175781 704.925781 243.75 703.875 244.875 703.726562 C 246 703.574219 247.726562 704.398438 248.476562 705.148438 C 249.148438 705.75 249.449219 706.800781 249.523438 707.625 C 249.523438 708.449219 249.300781 709.5 248.773438 710.175781 C 248.324219 710.851562 247.5 711.523438 246.675781 711.824219 C 245.925781 712.050781 244.875 712.050781 244.050781 711.824219 C 243.226562 711.523438 242.550781 711 241.949219 710.25 C 241.050781 709.125 240.601562 707.625 240.074219 705.523438 C 239.023438 701.25 238.273438 693.226562 237.898438 686.101562 C 237.449219 677.476562 237.601562 665.175781 237.898438 657.300781 C 238.125 651.75 237.976562 645.675781 239.023438 643.050781 C 239.550781 641.851562 240.148438 641.25 240.976562 640.800781 C 241.800781 640.351562 243 640.199219 243.898438 640.351562 C 244.800781 640.574219 245.851562 641.25 246.375 642 C 246.976562 642.75 247.199219 644.925781 247.199219 644.925781 "/></clipPath><clipPath id="24264a8c7f"><path d="M 274.554688 642.378906 L 290.921875 642.378906 L 290.921875 713.78125 L 274.554688 713.78125 Z M 274.554688 642.378906 "/></clipPath><clipPath id="dbf9d228e5"><path d="M 290.851562 646.800781 C 287.476562 683.398438 284.773438 692.101562 284.101562 698.625 C 283.574219 703.125 284.851562 707.773438 283.800781 710.324219 C 283.199219 711.898438 282.148438 713.023438 280.949219 713.476562 C 279.824219 713.925781 277.800781 713.550781 276.75 712.949219 C 275.851562 712.351562 275.324219 711.375 274.949219 710.25 C 274.5 708.75 274.425781 706.050781 274.800781 704.324219 C 275.175781 702.898438 275.925781 701.324219 276.824219 700.574219 C 277.574219 699.976562 278.699219 699.75 279.601562 699.75 C 280.574219 699.824219 281.625 700.199219 282.375 700.875 C 283.199219 701.699219 284.101562 703.574219 283.949219 704.851562 C 283.800781 706.125 282.675781 707.773438 281.550781 708.375 C 280.425781 708.976562 278.398438 708.976562 277.273438 708.375 C 276.148438 707.773438 274.949219 706.125 274.875 704.851562 C 274.726562 703.574219 275.625 701.699219 276.449219 700.875 C 277.125 700.199219 278.25 699.824219 279.148438 699.75 C 280.050781 699.75 281.175781 700.050781 281.925781 700.574219 C 282.75 701.101562 283.351562 701.851562 283.726562 702.898438 C 284.324219 704.625 284.398438 708.523438 283.800781 710.324219 C 283.425781 711.523438 282.675781 712.425781 281.925781 712.949219 C 281.324219 713.476562 280.648438 713.699219 279.898438 713.699219 C 279 713.773438 277.574219 713.398438 276.75 712.949219 C 276.148438 712.5 275.699219 712.199219 275.324219 711.300781 C 274.5 708.976562 274.875 702.601562 275.398438 697.5 C 276.148438 690.824219 279 682.875 280.050781 674.773438 C 281.324219 665.699219 280.648438 650.101562 282.148438 645.75 C 282.675781 644.324219 283.125 643.800781 283.949219 643.199219 C 284.773438 642.675781 285.976562 642.375 286.949219 642.449219 C 287.925781 642.601562 289.050781 643.199219 289.726562 643.949219 C 290.324219 644.625 290.851562 646.800781 290.851562 646.800781 "/></clipPath><clipPath id="a8da186313"><path d="M 271.59375 672 L 312.578125 672 L 312.578125 717.792969 L 271.59375 717.792969 Z M 271.59375 672 "/></clipPath><clipPath id="7a30d798bf"><path d="M 286.726562 674.398438 C 293.023438 671.851562 296.925781 671.550781 299.25 672.601562 C 301.5 673.574219 302.925781 675.824219 304.648438 678.148438 C 306.824219 681.226562 309.375 686.773438 310.726562 689.851562 C 311.476562 691.726562 312 692.625 312.300781 694.5 C 312.75 697.125 312.523438 701.550781 312.074219 704.476562 C 311.625 706.875 310.949219 708.976562 310.050781 710.773438 C 309.300781 712.351562 308.625 713.773438 307.351562 714.898438 C 306.074219 716.023438 304.5 717 302.324219 717.449219 C 298.949219 718.125 292.351562 717.675781 288.976562 716.773438 C 286.574219 716.175781 285.148438 714.601562 283.351562 713.925781 C 281.851562 713.398438 280.425781 713.851562 278.925781 713.101562 C 276.75 711.976562 272.773438 708.226562 272.023438 706.648438 C 271.648438 706.050781 271.726562 705.675781 271.875 705 C 272.175781 703.875 273.300781 701.625 274.574219 700.949219 C 275.851562 700.273438 278.175781 700.273438 279.449219 700.949219 C 280.726562 701.625 282 703.5 282.148438 704.925781 C 282.375 706.351562 281.476562 708.523438 280.425781 709.425781 C 279.375 710.398438 277.050781 710.925781 275.699219 710.550781 C 274.351562 710.175781 272.625 708.601562 272.175781 707.25 C 271.726562 705.898438 272.023438 703.574219 272.925781 702.449219 C 273.75 701.25 275.925781 700.425781 277.273438 700.351562 C 278.398438 700.351562 279.523438 700.875 280.351562 701.550781 C 281.175781 702.226562 282.148438 704.324219 282.074219 704.398438 C 282.074219 704.398438 280.875 703.050781 281.023438 702.824219 C 281.398438 702.375 289.050781 706.351562 291.976562 707.023438 C 293.851562 707.398438 295.125 707.476562 296.625 707.398438 C 298.273438 707.324219 300.375 707.699219 301.5 706.5 C 303.074219 704.773438 303.601562 699.523438 302.925781 695.773438 C 302.023438 690.976562 297.976562 681.75 294.898438 680.625 C 292.949219 679.949219 290.476562 683.25 288.675781 683.175781 C 287.25 683.101562 285.601562 682.125 284.925781 681.074219 C 284.25 680.023438 284.101562 677.925781 284.476562 676.800781 C 284.851562 675.75 286.726562 674.398438 286.726562 674.398438 "/></clipPath><clipPath id="b00beb827e"><path d="M 318.058594 669.613281 L 362 669.613281 L 362 715.773438 L 318.058594 715.773438 Z M 318.058594 669.613281 "/></clipPath><clipPath id="1f497bf5c4"><path d="M 334.648438 684.976562 C 328.199219 695.101562 327.375 697.351562 327.75 699.148438 C 328.050781 700.949219 329.175781 702.824219 330.898438 703.949219 C 333.375 705.601562 339.375 706.425781 342.523438 706.351562 C 344.550781 706.273438 345.976562 705.601562 347.699219 705 C 349.5 704.25 352.199219 703.949219 353.023438 702.226562 C 354.226562 699.976562 352.199219 694.351562 351.300781 691.351562 C 350.625 688.949219 350.175781 687.074219 348.675781 685.425781 C 346.949219 683.324219 343.5 681.148438 340.949219 680.324219 C 338.851562 679.726562 336.824219 679.949219 334.726562 680.101562 C 332.625 680.25 330.148438 681.148438 328.425781 681.226562 C 327.148438 681.226562 326.101562 681.148438 325.199219 680.699219 C 324.300781 680.25 323.324219 679.273438 322.875 678.375 C 322.5 677.476562 322.199219 676.199219 322.5 675.148438 C 322.875 673.875 324.375 672.074219 325.574219 671.476562 C 326.550781 670.949219 327.824219 670.949219 328.800781 671.25 C 329.851562 671.476562 330.898438 672.226562 331.574219 673.050781 C 332.175781 673.875 332.625 675.074219 332.625 676.125 C 332.625 677.175781 332.324219 678.375 331.648438 679.199219 C 330.75 680.25 328.648438 681.226562 327.300781 681.300781 C 326.175781 681.300781 325.050781 680.773438 324.226562 680.101562 C 323.476562 679.425781 322.800781 678.300781 322.574219 677.324219 C 322.351562 676.351562 322.351562 675 322.875 674.101562 C 323.476562 672.898438 325.125 671.851562 326.625 671.175781 C 328.351562 670.351562 330.300781 670.050781 332.550781 669.898438 C 335.550781 669.675781 339.75 669.601562 343.125 670.5 C 346.574219 671.476562 350.699219 673.949219 353.101562 675.824219 C 354.898438 677.25 355.875 678.523438 357 680.324219 C 358.574219 682.648438 360.226562 685.648438 361.050781 688.949219 C 362.023438 692.699219 362.101562 698.476562 361.800781 701.925781 C 361.648438 704.175781 361.875 705.898438 360.675781 707.625 C 358.949219 710.175781 353.699219 713.023438 350.773438 714.300781 C 348.824219 715.050781 347.398438 715.199219 345.523438 715.351562 C 343.273438 715.648438 340.875 715.875 338.175781 715.574219 C 334.5 715.125 328.875 713.851562 325.726562 712.125 C 323.324219 710.851562 321.449219 709.199219 320.175781 707.324219 C 319.050781 705.601562 318.300781 703.800781 318.148438 701.398438 C 318 697.949219 319.648438 691.875 321 688.5 C 322.050781 686.023438 323.476562 684.300781 324.75 682.5 C 325.875 681 326.851562 679.199219 328.199219 678.375 C 329.476562 677.625 331.273438 677.25 332.476562 677.625 C 333.675781 678 335.101562 679.5 335.476562 680.699219 C 335.851562 681.898438 334.648438 684.976562 334.648438 684.976562 "/></clipPath><clipPath id="17b5b53b16"><path d="M 366.042969 670.433594 L 377.921875 670.433594 L 377.921875 714.875 L 366.042969 714.875 Z M 366.042969 670.433594 "/></clipPath><clipPath id="f61ac98bf4"><path d="M 375.449219 675 C 375.601562 704.699219 377.101562 708.75 376.574219 711.074219 C 376.273438 712.425781 375.75 713.25 374.925781 713.851562 C 374.101562 714.523438 372.824219 714.898438 371.851562 714.824219 C 370.800781 714.824219 369.601562 714.226562 368.851562 713.550781 C 368.175781 712.800781 367.574219 711.75 367.5 710.550781 C 367.425781 708.824219 368.625 705.300781 369.675781 703.949219 C 370.351562 703.050781 371.101562 702.449219 372.074219 702.300781 C 373.273438 702.074219 375.300781 702.375 376.273438 703.199219 C 377.25 704.023438 378 705.898438 377.851562 707.175781 C 377.699219 708.449219 376.425781 710.101562 375.449219 710.699219 C 374.625 711.226562 373.5 711.449219 372.601562 711.226562 C 371.398438 710.925781 369.675781 709.800781 369.148438 708.601562 C 368.625 707.476562 368.699219 705.449219 369.375 704.324219 C 370.050781 703.273438 371.851562 702.300781 373.050781 702.148438 C 374.023438 702 375.074219 702.375 375.898438 702.898438 C 376.648438 703.425781 377.324219 704.324219 377.625 705.226562 C 377.925781 706.125 377.851562 707.101562 377.625 708.148438 C 377.398438 709.574219 376.800781 711.976562 375.675781 713.101562 C 374.773438 714.074219 373.050781 714.824219 371.851562 714.824219 C 370.800781 714.824219 369.601562 714.226562 368.851562 713.550781 C 368.175781 712.800781 367.875 711.898438 367.5 710.550781 C 366.898438 708.226562 366.75 704.550781 366.523438 700.351562 C 366.226562 693.824219 365.699219 679.273438 366.449219 675 C 366.75 673.5 366.898438 672.75 367.574219 672 C 368.25 671.25 369.375 670.574219 370.425781 670.5 C 371.625 670.425781 373.5 671.175781 374.324219 672 C 375.074219 672.75 375.449219 675 375.449219 675 "/></clipPath><clipPath id="3648f2253b"><path d="M 369.863281 671.511719 L 413.363281 671.511719 L 413.363281 720.789062 L 369.863281 720.789062 Z M 369.863281 671.511719 "/></clipPath><clipPath id="b314f768b1"><path d="M 378.074219 673.273438 C 391.351562 696 387.074219 696.523438 386.550781 695.699219 C 385.351562 693.898438 397.425781 676.425781 400.875 674.023438 C 402.148438 673.125 403.199219 673.125 404.25 673.273438 C 405.300781 673.425781 406.574219 674.023438 407.175781 674.925781 C 407.925781 675.976562 408.449219 678.074219 408.148438 679.273438 C 407.925781 680.398438 406.199219 680.925781 406.199219 682.050781 C 406.050781 683.625 408.675781 685.273438 409.425781 687.898438 C 410.699219 692.25 410.25 701.925781 410.699219 706.648438 C 411 709.425781 411.074219 713.101562 411.601562 713.398438 C 411.824219 713.550781 412.050781 713.101562 412.199219 713.175781 C 412.574219 713.398438 413.25 715.050781 413.175781 716.023438 C 413.101562 717.226562 412.125 719.175781 411.226562 719.925781 C 410.398438 720.523438 409.273438 720.824219 408.300781 720.75 C 407.398438 720.75 406.273438 720.300781 405.523438 719.699219 C 404.773438 719.101562 404.101562 718.125 403.949219 717.148438 C 403.800781 715.949219 404.324219 713.851562 405.074219 712.949219 C 405.675781 712.125 406.800781 711.675781 407.699219 711.449219 C 408.601562 711.300781 409.800781 711.375 410.625 711.898438 C 411.675781 712.574219 413.023438 714.226562 413.175781 715.5 C 413.324219 716.773438 412.574219 718.800781 411.601562 719.625 C 410.625 720.449219 408.523438 720.824219 407.324219 720.601562 C 406.351562 720.449219 405.523438 719.851562 404.851562 718.949219 C 403.800781 717.675781 403.125 715.949219 402.375 713.101562 C 400.726562 706.648438 398.25 686.324219 399 679.800781 C 399.300781 677.023438 400.125 674.851562 400.875 674.023438 C 401.25 673.648438 401.476562 673.648438 401.925781 673.5 C 402.75 673.351562 404.398438 673.199219 405.375 673.574219 C 406.351562 674.023438 407.398438 674.925781 407.851562 675.898438 C 408.300781 677.101562 408.375 678.449219 407.699219 680.398438 C 406.199219 684.824219 398.023438 698.175781 393.226562 700.574219 C 390.523438 702 387.824219 702.074219 385.125 700.574219 C 380.101562 697.875 370.875 681.375 369.976562 677.023438 C 369.675781 675.601562 370.125 674.699219 370.5 673.875 C 370.875 673.125 371.398438 672.601562 372.074219 672.300781 C 372.898438 671.851562 374.25 671.476562 375.226562 671.625 C 376.273438 671.851562 378.074219 673.273438 378.074219 673.273438 "/></clipPath><clipPath id="dc73c74d7e"><path d="M 423.808594 642.433594 L 467.640625 642.433594 L 467.640625 720.011719 L 423.808594 720.011719 Z M 423.808594 642.433594 "/></clipPath><clipPath id="8c558086b7"><path d="M 437.550781 646.800781 C 435.75 681.824219 434.773438 686.023438 434.398438 691.5 C 434.023438 697.425781 435.148438 706.949219 434.101562 710.25 C 433.648438 711.675781 432.976562 712.351562 432.226562 712.949219 C 431.625 713.398438 430.949219 713.625 430.199219 713.699219 C 429.300781 713.773438 427.875 713.398438 427.050781 712.949219 C 426.375 712.5 426.074219 712.125 425.625 711.300781 C 424.800781 709.726562 424.050781 706.199219 423.898438 703.726562 C 423.75 701.25 424.125 698.925781 424.574219 696.449219 C 425.023438 693.898438 425.550781 691.425781 426.601562 688.648438 C 427.875 685.351562 429.824219 680.476562 432 678.074219 C 433.648438 676.273438 435.601562 675.226562 437.398438 674.476562 C 438.976562 673.875 440.476562 673.800781 442.273438 673.800781 C 444.523438 673.726562 447.449219 673.726562 449.773438 674.476562 C 452.175781 675.226562 454.273438 676.648438 456.449219 678.449219 C 459.148438 680.699219 462.675781 684.601562 464.476562 687.226562 C 465.675781 689.023438 466.273438 690.226562 466.800781 692.25 C 467.550781 695.101562 467.699219 699.824219 467.476562 702.824219 C 467.398438 705.074219 467.175781 706.648438 466.425781 708.601562 C 465.601562 710.851562 464.101562 713.550781 462.300781 715.273438 C 460.5 716.925781 458.398438 717.976562 455.851562 718.726562 C 452.625 719.699219 447.601562 720.226562 444.300781 719.925781 C 441.824219 719.699219 439.726562 718.800781 437.699219 717.898438 C 435.898438 717.148438 434.324219 716.324219 432.75 715.199219 C 431.101562 714.074219 429 712.800781 428.023438 711.074219 C 427.050781 709.273438 426.824219 706.273438 426.898438 704.550781 C 426.976562 703.273438 427.273438 702.226562 427.875 701.398438 C 428.476562 700.574219 429.375 699.75 430.5 699.523438 C 431.773438 699.226562 434.023438 699.523438 435.148438 700.351562 C 436.273438 701.25 437.175781 703.351562 437.101562 704.699219 C 436.949219 706.125 435.601562 708 434.550781 708.75 C 433.648438 709.351562 432.375 709.5 431.324219 709.425781 C 430.351562 709.273438 429.148438 708.824219 428.476562 708 C 427.574219 706.949219 426.898438 704.773438 426.976562 703.425781 C 427.125 702.375 427.800781 701.25 428.550781 700.574219 C 429.300781 699.898438 430.425781 699.300781 431.550781 699.300781 C 432.898438 699.300781 435 700.050781 435.898438 701.101562 C 436.949219 702.226562 436.425781 704.699219 437.324219 705.976562 C 438.300781 707.25 440.023438 708 441.523438 708.601562 C 443.023438 709.273438 444.75 709.648438 446.476562 709.800781 C 448.273438 709.949219 450.226562 709.949219 451.949219 709.425781 C 453.601562 708.976562 455.699219 708.449219 456.675781 706.875 C 458.175781 704.625 458.023438 698.101562 457.425781 695.25 C 457.050781 693.449219 456.226562 692.324219 455.324219 691.050781 C 454.5 689.699219 453.601562 688.5 452.324219 687.375 C 450.675781 685.949219 447.976562 684 445.875 683.398438 C 444.074219 682.875 441.898438 682.726562 440.476562 683.398438 C 439.125 684 438.449219 685.425781 437.550781 687.148438 C 436.125 689.773438 434.398438 695.25 433.726562 698.324219 C 433.273438 700.351562 433.050781 701.699219 433.125 703.5 C 433.199219 705.375 434.25 707.773438 434.175781 709.199219 C 434.175781 710.101562 434.101562 710.625 433.648438 711.300781 C 433.050781 712.199219 431.25 713.476562 430.199219 713.699219 C 429.449219 713.851562 428.699219 713.773438 428.023438 713.398438 C 427.199219 713.023438 426.148438 712.425781 425.625 711.300781 C 424.648438 709.273438 425.175781 705.226562 425.324219 701.023438 C 425.550781 694.5 427.351562 684.449219 427.949219 675.601562 C 428.550781 666.074219 427.5 650.175781 428.925781 645.75 C 429.375 644.324219 429.898438 643.800781 430.726562 643.199219 C 431.476562 642.675781 432.75 642.375 433.726562 642.523438 C 434.625 642.601562 435.824219 643.199219 436.425781 643.949219 C 437.101562 644.625 437.550781 646.800781 437.550781 646.800781 "/></clipPath></defs><g id="140de9405f"><path style=" stroke:none;fill-rule:evenodd;fill:#c9c9c9;fill-opacity:1;" d="M 407.375 32.976562 C 394.457031 78.890625 383.617188 137.773438 389.441406 195.402344 C 378.5625 195.488281 375.953125 188.394531 365.902344 193.167969 C 344.652344 184.417969 327.132812 166.8125 306.5 148.355469 C 298.253906 140.980469 291.199219 131.824219 280.71875 122.59375 C 272.96875 115.753906 255.527344 106.933594 252.695312 99.066406 C 250.441406 92.800781 253.21875 74 256.058594 57.617188 C 259.339844 38.695312 260.730469 23.203125 267.265625 12.804688 C 314.035156 19.945312 367.765625 32.148438 407.375 32.976562 M 325.554688 80.019531 C 327.898438 76.285156 324.820312 70.015625 319.945312 69.941406 C 316.160156 72.800781 319.542969 80.359375 325.554688 80.019531 M 339.003906 103.546875 C 343.492188 103.925781 344.019531 100.339844 343.488281 95.703125 C 338.78125 95.023438 337.546875 101.535156 339.003906 103.546875 "/><path style=" stroke:none;fill-rule:evenodd;fill:#dddddd;fill-opacity:1;" d="M 457.816406 25.136719 C 450.695312 86.96875 437.660156 144.792969 428.675781 201.003906 C 420.660156 201.304688 420.621094 200.035156 414.101562 199.882812 C 421.28125 141.675781 430.097656 88.691406 441 36.335938 C 438.878906 32.109375 435.242188 29.390625 430.910156 27.375 C 431.382812 11.386719 452.144531 18.671875 457.816406 25.136719 "/><path style=" stroke:none;fill-rule:evenodd;fill:#dddddd;fill-opacity:1;" d="M 475.75 32.96875 C 474.53125 38.761719 469.742188 35.1875 464.542969 35.210938 C 466.601562 32.789062 471.144531 32.851562 475.75 32.96875 "/><path style=" stroke:none;fill-rule:evenodd;fill:#c9c9c9;fill-opacity:1;" d="M 429.792969 34.09375 C 432.0625 61.960938 424.269531 90.921875 419.707031 120.347656 C 416.273438 142.472656 411.679688 172.523438 406.253906 197.644531 C 393.5625 198.296875 394.214844 182.367188 393.925781 169.636719 C 393.210938 138.214844 398.335938 109.914062 401.769531 84.503906 C 404.933594 61.125 404.390625 33.941406 429.792969 34.09375 "/><path style=" stroke:none;fill-rule:evenodd;fill:#000000;fill-opacity:1;" d="M 319.945312 69.941406 C 324.820312 70.019531 327.898438 76.285156 325.554688 80.019531 C 319.542969 80.359375 316.160156 72.800781 319.945312 69.941406 "/><path style=" stroke:none;fill-rule:evenodd;fill:#000000;fill-opacity:1;" d="M 343.488281 95.699219 C 344.019531 100.339844 343.492188 103.925781 339.003906 103.546875 C 337.546875 101.527344 338.78125 95.023438 343.488281 95.699219 "/><path style=" stroke:none;fill-rule:evenodd;fill:#000000;fill-opacity:1;" d="M 506.007812 121.46875 L 512.742188 121.46875 C 512.886719 124.234375 512.90625 126.867188 511.621094 128.191406 C 506.511719 128.402344 504.082031 125.277344 506.007812 121.46875 "/><path style=" stroke:none;fill-rule:evenodd;fill:#000000;fill-opacity:1;" d="M 512.742188 139.386719 C 516.390625 139.097656 518.132812 140.722656 518.34375 143.871094 C 516.207031 144.351562 516.316406 147.070312 512.742188 146.117188 C 512.398438 143.496094 510.542969 141.480469 512.742188 139.386719 "/><path style=" stroke:none;fill-rule:evenodd;fill:#dddddd;fill-opacity:1;" d="M 472.386719 213.328125 C 439.597656 212.6875 399.824219 210.699219 367.027344 205.484375 C 373.128906 197.53125 387.730469 202.9375 395.046875 206.605469 C 416.613281 205.195312 448.300781 208.296875 472.386719 213.328125 "/><path style=" stroke:none;fill-rule:evenodd;fill:#c9c9c9;fill-opacity:1;" d="M 480.230469 224.527344 C 505.167969 264.582031 538.820312 295.921875 562.054688 337.671875 C 528.285156 348.859375 485.933594 341.082031 451.089844 341.03125 C 383.164062 340.9375 319.980469 319.152344 257.179688 307.425781 C 252.835938 303.546875 245 303.167969 240.367188 299.582031 C 278.417969 270.023438 317.832031 241.824219 355.816406 212.207031 C 400.269531 216.722656 436.46875 217.578125 480.230469 224.527344 M 396.167969 277.179688 C 397.984375 278.859375 404.4375 278.859375 406.257812 277.179688 C 407.574219 270.015625 394.574219 269.507812 396.167969 277.179688 M 407.375 289.503906 C 407.585938 292.648438 409.324219 294.277344 412.980469 293.980469 C 412.164062 290.925781 415.207031 291.726562 415.226562 289.503906 C 413.855469 289.375 412.570312 289.164062 412.980469 287.257812 C 410.195312 287.089844 409.507812 289.023438 407.375 289.503906 "/><path style=" stroke:none;fill-rule:evenodd;fill:#000000;fill-opacity:1;" d="M 406.257812 277.179688 C 404.4375 278.859375 397.984375 278.859375 396.167969 277.179688 C 394.574219 269.507812 407.574219 270.015625 406.257812 277.179688 "/><path style=" stroke:none;fill-rule:evenodd;fill:#000000;fill-opacity:1;" d="M 412.980469 287.257812 C 412.570312 289.167969 413.855469 289.375 415.222656 289.503906 C 415.207031 291.726562 412.164062 290.925781 412.980469 293.980469 C 409.324219 294.277344 407.585938 292.652344 407.375 289.503906 C 409.503906 289.023438 410.195312 287.089844 412.980469 287.257812 "/><path style=" stroke:none;fill-rule:evenodd;fill:#dddddd;fill-opacity:1;" d="M 584.472656 339.910156 C 583.597656 413.34375 572.542969 497.023438 562.050781 575.160156 C 559.410156 594.882812 553.671875 617.394531 547.488281 636.773438 C 533.859375 679.445312 521.652344 710.664062 492.5625 743.191406 C 478.984375 758.371094 461 774.992188 444.363281 782.394531 C 412.957031 796.382812 367.683594 802.234375 331.15625 798.078125 C 260.417969 790.03125 212.53125 745.671875 198.894531 679.335938 C 192.863281 650.003906 197.25 620.425781 197.769531 587.476562 C 198.289062 554.878906 197.6875 521.011719 201.136719 490.023438 C 208.570312 423.1875 214 371.925781 223.554688 305.1875 C 224.136719 304.753906 225.214844 299.746094 225.792969 302.941406 C 258.972656 317.957031 298.742188 319.9375 335.640625 328.710938 C 344.34375 330.777344 351.597656 334.746094 360.296875 336.550781 C 385.15625 341.699219 410.625 347.230469 438.761719 347.75 C 488.277344 348.664062 543.835938 354.246094 584.472656 339.910156 M 248.210938 525.867188 C 240.832031 561.65625 249.515625 601.296875 268.390625 628.925781 C 278.078125 643.117188 304.214844 661.480469 321.066406 667.011719 C 390.960938 689.964844 473.082031 640.089844 488.074219 575.160156 C 497.734375 533.363281 485.996094 476.433594 463.421875 454.175781 C 456.496094 447.347656 444.265625 441.054688 432.03125 434.011719 C 422.019531 428.238281 412.105469 420.605469 404.015625 417.207031 C 374.453125 404.789062 324.378906 410.445312 296.410156 427.285156 C 274.988281 452.835938 256.023438 487.964844 248.210938 525.867188 "/><path style=" stroke:none;fill-rule:evenodd;fill:#000000;fill-opacity:1;" d="M 296.410156 427.285156 C 324.378906 410.449219 374.453125 404.785156 404.015625 417.210938 C 412.105469 420.601562 422.019531 428.238281 432.03125 434.011719 C 444.265625 441.050781 456.5 447.34375 463.421875 454.171875 C 486 476.433594 497.738281 533.363281 488.074219 575.160156 C 473.082031 640.089844 390.960938 689.964844 321.066406 667.011719 C 304.214844 661.480469 278.078125 643.117188 268.390625 628.925781 C 249.515625 601.296875 240.832031 561.65625 248.210938 525.867188 C 256.023438 487.964844 274.988281 452.832031 296.410156 427.285156 M 271.75 473.21875 C 266.222656 486.160156 255.15625 513.050781 252.695312 525.867188 C 239.351562 595.414062 283.265625 654.757812 339.003906 664.777344 C 387.609375 673.507812 438.425781 644.085938 457.8125 622.203125 C 491.496094 584.195312 495.757812 491.164062 456.695312 456.414062 C 445.46875 446.429688 422.203125 434.910156 408.496094 427.285156 C 392.644531 418.480469 368.917969 415.871094 345.726562 417.210938 C 306.132812 419.484375 283.933594 444.6875 271.75 473.21875 "/><path style=" stroke:none;fill-rule:evenodd;fill:#ffe000;fill-opacity:1;" d="M 345.730469 417.207031 C 368.917969 415.871094 392.644531 418.480469 408.496094 427.285156 C 422.207031 434.910156 445.46875 446.429688 456.695312 456.410156 C 495.757812 491.164062 491.496094 584.191406 457.816406 622.203125 C 438.429688 644.085938 387.609375 673.507812 339.003906 664.773438 C 283.265625 654.757812 239.351562 595.414062 252.695312 525.867188 C 255.15625 513.046875 266.222656 486.160156 271.75 473.21875 C 283.933594 444.6875 306.136719 419.484375 345.730469 417.207031 M 347.96875 447.449219 C 352.640625 464.167969 347.773438 490.199219 352.453125 511.300781 C 361.214844 513.375 370.957031 514.472656 380.476562 515.78125 C 387.4375 497.9375 398.050781 477.488281 407.375 458.65625 C 389.574219 450.648438 366.414062 439.554688 347.96875 447.449219 M 347.96875 547.152344 C 345.644531 551.917969 342.667969 556.039062 343.488281 563.953125 C 351.445312 575.726562 376.828125 572.96875 370.386719 553.867188 C 368.230469 551.175781 362.027344 552.523438 363.664062 546.03125 C 358.140625 544.132812 353.300781 545.933594 347.96875 547.152344 M 321.066406 562.832031 C 303.503906 567.265625 282.304688 572.425781 263.90625 575.15625 C 272.105469 587.867188 280.085938 600.804688 285.199219 616.605469 C 300.988281 614.792969 309.765625 599.402344 326.675781 595.320312 C 326.082031 583.214844 322.226562 574.375 321.066406 562.832031 M 401.773438 603.160156 C 398.179688 597.796875 394.136719 586.582031 388.324219 585.242188 C 381.589844 583.683594 361.019531 593.277344 359.179688 597.558594 C 366.375 613.730469 367.109375 630.058594 372.628906 643.488281 C 390.308594 641.738281 395.484375 627.496094 411.859375 624.445312 C 413.503906 617.332031 406.789062 610.65625 401.773438 603.160156 "/><path style=" stroke:none;fill-rule:evenodd;fill:#000000;fill-opacity:1;" d="M 407.375 458.65625 C 398.046875 477.488281 387.4375 497.9375 380.476562 515.785156 C 370.957031 514.472656 361.214844 513.378906 352.453125 511.300781 C 347.773438 490.199219 352.640625 464.171875 347.96875 447.453125 C 366.410156 439.558594 389.574219 450.648438 407.375 458.65625 M 356.9375 504.585938 C 365.035156 506.429688 370.738281 509.835938 377.113281 507.941406 C 382.484375 491.992188 393.800781 476.125 397.289062 462.015625 C 387.875 453.871094 370.609375 453.578125 355.816406 450.808594 C 356.457031 466.683594 355.121094 485.039062 356.9375 504.585938 "/><path style=" stroke:none;fill-rule:evenodd;fill:#ff3600;fill-opacity:1;" d="M 355.816406 450.808594 C 370.609375 453.578125 387.875 453.871094 397.289062 462.015625 C 393.800781 476.125 382.484375 491.992188 377.113281 507.941406 C 370.738281 509.835938 365.035156 506.429688 356.9375 504.585938 C 355.121094 485.039062 356.457031 466.683594 355.816406 450.808594 "/><path style=" stroke:none;fill-rule:evenodd;fill:#000000;fill-opacity:1;" d="M 363.664062 546.027344 C 362.023438 552.523438 368.226562 551.179688 370.386719 553.871094 C 376.824219 572.972656 351.445312 575.726562 343.488281 563.953125 C 342.667969 556.042969 345.644531 551.921875 347.96875 547.152344 C 353.300781 545.933594 358.136719 544.136719 363.664062 546.027344 M 350.210938 561.714844 C 353.921875 563.601562 359.167969 566.101562 363.664062 563.953125 C 364.070312 556.453125 357.957031 555.464844 353.578125 552.753906 C 350.230469 553.519531 349.816406 557.214844 350.210938 561.714844 "/><path style=" stroke:none;fill-rule:evenodd;fill:#ff3600;fill-opacity:1;" d="M 353.578125 552.753906 C 357.957031 555.464844 364.070312 556.453125 363.664062 563.953125 C 359.167969 566.101562 353.921875 563.601562 350.210938 561.714844 C 349.816406 557.214844 350.230469 553.519531 353.578125 552.753906 "/><path style=" stroke:none;fill-rule:evenodd;fill:#000000;fill-opacity:1;" d="M 326.675781 595.320312 C 309.761719 599.402344 300.988281 614.792969 285.199219 616.605469 C 280.085938 600.808594 272.105469 587.867188 263.90625 575.160156 C 282.304688 572.429688 303.503906 567.269531 321.066406 562.832031 C 322.222656 574.378906 326.082031 583.21875 326.675781 595.320312 M 275.117188 578.519531 C 279.464844 588.734375 284.714844 598.050781 288.566406 608.765625 C 300.957031 605.464844 306.683594 595.511719 318.828125 591.957031 C 318.976562 583.222656 316.074219 577.53125 313.222656 571.792969 C 296.507812 572.097656 289.871094 578.171875 275.117188 578.519531 "/><path style=" stroke:none;fill-rule:evenodd;fill:#ff3600;fill-opacity:1;" d="M 313.222656 571.792969 C 316.074219 577.53125 318.976562 583.222656 318.828125 591.957031 C 306.683594 595.511719 300.957031 605.464844 288.566406 608.765625 C 284.714844 598.050781 279.464844 588.734375 275.117188 578.519531 C 289.871094 578.171875 296.507812 572.097656 313.222656 571.792969 "/><path style=" stroke:none;fill-rule:evenodd;fill:#000000;fill-opacity:1;" d="M 411.859375 624.445312 C 395.480469 627.496094 390.308594 641.738281 372.628906 643.488281 C 367.109375 630.058594 366.375 613.734375 359.179688 597.5625 C 361.019531 593.277344 381.585938 583.6875 388.320312 585.242188 C 394.136719 586.582031 398.179688 597.796875 401.773438 603.160156 C 406.789062 610.65625 413.503906 617.332031 411.859375 624.445312 M 386.078125 593.082031 C 378.460938 591.054688 374.546875 597.796875 367.027344 598.683594 C 370.972656 612.230469 373.171875 622.730469 375.992188 635.648438 C 387.339844 631.679688 397.027344 626.050781 404.015625 617.726562 C 396.621094 612.335938 395.316406 595.53125 386.078125 593.082031 "/><path style=" stroke:none;fill-rule:evenodd;fill:#ff3600;fill-opacity:1;" d="M 404.015625 617.726562 C 397.027344 626.050781 387.339844 631.679688 375.992188 635.648438 C 373.171875 622.730469 370.972656 612.230469 367.027344 598.683594 C 374.546875 597.796875 378.460938 591.054688 386.078125 593.082031 C 395.316406 595.53125 396.621094 612.335938 404.015625 617.726562 "/><g clip-rule="nonzero" clip-path="url(#0b6e63e338)"><path style=" stroke:none;fill-rule:evenodd;fill:#000000;fill-opacity:1;" d="M 410.742188 18.410156 C 416.601562 16.054688 415.917969 7.152344 421.945312 4.96875 C 436.371094 8.046875 449.5 3.710938 457.816406 8.328125 C 464.980469 12.304688 467.425781 24.976562 480.230469 21.765625 C 484.308594 25.164062 485.359375 31.585938 486.953125 37.457031 C 540.21875 37.390625 580.925781 44.832031 631.550781 43.058594 C 637.589844 64.738281 631.980469 87.152344 629.308594 108.027344 C 627.546875 121.824219 628.035156 136.023438 624.828125 148.355469 C 624.070312 151.246094 618.917969 166.582031 615.863281 170.753906 C 610.753906 177.71875 596.675781 179.910156 586.71875 184.199219 C 557.15625 196.929688 527.964844 212.042969 494.808594 217.804688 C 518.507812 268.046875 554.808594 305.703125 596.808594 337.671875 C 593.539062 355.902344 593.140625 377.425781 592.316406 402.644531 C 591.195312 437.15625 588.824219 473.554688 585.597656 510.183594 C 582.765625 542.277344 574.113281 575.488281 566.542969 607.644531 C 546.652344 692.066406 514.519531 754.964844 449.96875 793.601562 C 386.667969 816.378906 297.746094 818.050781 251.578125 781.277344 C 197.792969 738.445312 168.675781 661.554688 177.597656 565.074219 C 183.617188 499.988281 181.40625 424.664062 191.050781 357.832031 C 195.316406 328.242188 196.414062 306.0625 213.46875 290.621094 C 218.433594 288.347656 221.648438 292.039062 229.160156 289.503906 C 239 286.171875 250.546875 273.976562 260.542969 267.097656 C 287.679688 248.421875 321.511719 224.1875 345.726562 203.246094 C 327.179688 190.191406 312.175781 172.488281 295.289062 153.957031 C 288.132812 146.09375 279.609375 136.945312 270.632812 129.308594 C 259.328125 119.695312 247.304688 112.859375 240.367188 101.300781 C 238.714844 75.253906 245.570312 50.355469 251.578125 21.765625 C 253.402344 13.070312 252.453125 2.175781 260.542969 0.484375 C 270.363281 -1.5625 287.566406 4.117188 299.773438 6.089844 C 327.769531 10.59375 378.007812 11.078125 410.742188 18.410156 M 267.265625 12.804688 C 260.730469 23.203125 259.339844 38.695312 256.058594 57.617188 C 253.21875 73.996094 250.441406 92.800781 252.695312 99.066406 C 255.527344 106.929688 272.96875 115.753906 280.71875 122.59375 C 291.199219 131.824219 298.253906 140.980469 306.5 148.355469 C 327.132812 166.808594 344.652344 184.417969 365.902344 193.164062 C 375.953125 188.394531 378.5625 195.488281 389.441406 195.402344 C 383.617188 137.765625 394.457031 78.886719 407.375 32.972656 C 367.765625 32.148438 314.035156 19.949219 267.265625 12.804688 M 430.910156 27.371094 C 435.242188 29.394531 438.878906 32.105469 441 36.332031 C 430.097656 88.691406 421.28125 141.675781 414.101562 199.882812 C 420.621094 200.035156 420.660156 201.308594 428.675781 201.003906 C 437.660156 144.792969 450.695312 86.964844 457.816406 25.128906 C 452.148438 18.671875 431.382812 11.386719 430.910156 27.371094 M 464.542969 35.210938 C 469.742188 35.1875 474.53125 38.765625 475.75 32.972656 C 471.144531 32.851562 466.597656 32.789062 464.542969 35.210938 M 401.773438 84.503906 C 398.339844 109.914062 393.214844 138.214844 393.925781 169.636719 C 394.214844 182.367188 393.5625 198.296875 406.257812 197.644531 C 411.679688 172.519531 416.273438 142.46875 419.707031 120.347656 C 424.269531 90.921875 432.0625 61.960938 429.792969 34.09375 C 404.394531 33.941406 404.933594 61.125 401.773438 84.503906 M 461.175781 48.65625 C 452.257812 99.359375 442.03125 151.3125 436.519531 202.121094 C 455.726562 204.453125 465.902344 199.214844 479.109375 207.722656 C 478.507812 203.765625 480.058594 201.953125 482.476562 201.003906 C 498.355469 209.023438 510.324219 199.804688 526.1875 195.402344 C 536.011719 192.679688 546.773438 189.882812 555.332031 186.441406 C 568.804688 181.015625 605.753906 168.464844 610.25 156.195312 C 619.777344 130.230469 619.375 90.027344 623.707031 57.617188 C 569.351562 51.523438 523.277344 52.007812 461.175781 48.65625 M 395.046875 206.601562 C 387.730469 202.9375 373.128906 197.53125 367.027344 205.484375 C 399.824219 210.703125 439.597656 212.683594 472.386719 213.324219 C 448.300781 208.292969 416.613281 205.199219 395.046875 206.601562 M 355.816406 212.207031 C 317.832031 241.828125 278.417969 270.023438 240.367188 299.582031 C 245 303.167969 252.835938 303.546875 257.179688 307.425781 C 319.980469 319.152344 383.164062 340.9375 451.089844 341.03125 C 485.933594 341.082031 528.285156 348.859375 562.054688 337.671875 C 538.820312 295.925781 505.167969 264.582031 480.230469 224.527344 C 436.46875 217.578125 400.269531 216.726562 355.816406 212.207031 M 438.761719 347.75 C 410.625 347.230469 385.15625 341.699219 360.296875 336.550781 C 351.597656 334.742188 344.34375 330.773438 335.640625 328.707031 C 298.742188 319.9375 258.972656 317.957031 225.792969 302.941406 C 225.214844 299.742188 224.136719 304.75 223.554688 305.1875 C 214 371.929688 208.570312 423.1875 201.136719 490.023438 C 197.6875 521.011719 198.289062 554.878906 197.769531 587.476562 C 197.25 620.421875 192.863281 650.003906 198.894531 679.335938 C 212.53125 745.671875 260.417969 790.03125 331.15625 798.078125 C 367.683594 802.234375 412.957031 796.382812 444.363281 782.394531 C 461 774.992188 478.984375 758.371094 492.5625 743.191406 C 521.652344 710.664062 533.859375 679.445312 547.488281 636.769531 C 553.671875 617.394531 559.40625 594.882812 562.054688 575.15625 C 572.542969 497.023438 583.597656 413.34375 584.472656 339.910156 C 543.835938 354.246094 488.277344 348.664062 438.761719 347.75 "/></g><path style=" stroke:none;fill-rule:evenodd;fill:#c9c9c9;fill-opacity:1;" d="M 623.707031 57.617188 C 619.375 90.023438 619.773438 130.230469 610.25 156.195312 C 605.753906 168.460938 568.800781 181.015625 555.328125 186.441406 C 546.773438 189.878906 536.011719 192.683594 526.1875 195.40625 C 510.324219 199.804688 498.355469 209.023438 482.476562 201.003906 C 480.058594 201.953125 478.507812 203.765625 479.109375 207.722656 C 465.902344 199.214844 455.726562 204.453125 436.519531 202.121094 C 442.03125 151.3125 452.257812 99.359375 461.175781 48.660156 C 523.277344 52.007812 569.351562 51.527344 623.707031 57.617188 M 511.621094 128.191406 C 512.90625 126.871094 512.886719 124.230469 512.742188 121.472656 L 506.007812 121.472656 C 504.082031 125.277344 506.511719 128.402344 511.621094 128.191406 M 512.742188 146.117188 C 516.316406 147.074219 516.207031 144.351562 518.34375 143.871094 C 518.132812 140.722656 516.390625 139.101562 512.742188 139.390625 C 510.542969 141.484375 512.394531 143.496094 512.742188 146.117188 "/><g clip-rule="nonzero" clip-path="url(#594a260448)"><g clip-rule="nonzero" clip-path="url(#f99bfdca22)"><path style=" stroke:none;fill-rule:nonzero;fill:#dcdddc;fill-opacity:1;" d="M 414.074219 433.875 L 481.050781 433.875 L 481.050781 508.4375 L 414.074219 508.4375 Z M 414.074219 433.875 "/></g></g><g clip-rule="nonzero" clip-path="url(#5e80aaadc9)"><g clip-rule="nonzero" clip-path="url(#7341dee9c0)"><path style=" stroke:none;fill-rule:nonzero;fill:#dcdddc;fill-opacity:1;" d="M 213.542969 361.550781 L 565.226562 361.550781 L 565.226562 718.433594 L 213.542969 718.433594 Z M 213.542969 361.550781 "/></g></g><g clip-rule="nonzero" clip-path="url(#c5d0fecc33)"><g clip-rule="nonzero" clip-path="url(#c0fa306325)"><path style=" stroke:none;fill-rule:nonzero;fill:#ffb6c1;fill-opacity:1;" d="M 353.773438 356.550781 L 441 356.550781 L 441 447.183594 L 353.773438 447.183594 Z M 353.773438 356.550781 "/></g></g><g clip-rule="nonzero" clip-path="url(#7f9982312d)"><g clip-rule="nonzero" clip-path="url(#e3e95b4d0d)"><path style=" stroke:none;fill-rule:nonzero;fill:#ffb6c1;fill-opacity:1;" d="M 243.601562 456.976562 L 310.710938 456.976562 L 310.710938 510 L 243.601562 510 Z M 243.601562 456.976562 "/></g></g><g clip-rule="nonzero" clip-path="url(#5e1d6a3eae)"><g clip-rule="nonzero" clip-path="url(#384c3982d3)"><path style=" stroke:none;fill-rule:nonzero;fill:#ffb6c1;fill-opacity:1;" d="M 263.625 478.574219 L 316.199219 478.574219 L 316.199219 551.070312 L 263.625 551.070312 Z M 263.625 478.574219 "/></g></g><g clip-rule="nonzero" clip-path="url(#b555496fa9)"><g clip-rule="nonzero" clip-path="url(#eae3df004a)"><path style=" stroke:none;fill-rule:nonzero;fill:#ffb6c1;fill-opacity:1;" d="M 330.601562 468.976562 L 387.949219 468.976562 L 387.949219 525.226562 L 330.601562 525.226562 Z M 330.601562 468.976562 "/></g></g><g clip-rule="nonzero" clip-path="url(#fe89a2c708)"><g clip-rule="nonzero" clip-path="url(#e9d2401d25)"><path style=" stroke:none;fill-rule:nonzero;fill:#ffb6c1;fill-opacity:1;" d="M 398.851562 458.773438 L 419.625 458.773438 L 419.625 526.699219 L 398.851562 526.699219 Z M 398.851562 458.773438 "/></g></g><g clip-rule="nonzero" clip-path="url(#d64954bad5)"><g clip-rule="nonzero" clip-path="url(#c3ae37ba7e)"><path style=" stroke:none;fill-rule:nonzero;fill:#ffb6c1;fill-opacity:1;" d="M 384.976562 488.550781 L 452.929688 488.550781 L 452.929688 503.625 L 384.976562 503.625 Z M 384.976562 488.550781 "/></g></g><g clip-rule="nonzero" clip-path="url(#0a30636b8a)"><g clip-rule="nonzero" clip-path="url(#b28c200e35)"><path style=" stroke:none;fill-rule:nonzero;fill:#ffb6c1;fill-opacity:1;" d="M 302.25 553.726562 L 323.324219 553.726562 L 323.324219 621.558594 L 302.25 621.558594 Z M 302.25 553.726562 "/></g></g><g clip-rule="nonzero" clip-path="url(#e56cf03814)"><g clip-rule="nonzero" clip-path="url(#01a5f9eb40)"><path style=" stroke:none;fill-rule:nonzero;fill:#ffb6c1;fill-opacity:1;" d="M 296.625 557.023438 L 322.035156 557.023438 L 322.035156 577.875 L 296.625 577.875 Z M 296.625 557.023438 "/></g></g><g clip-rule="nonzero" clip-path="url(#585af3f51b)"><g clip-rule="nonzero" clip-path="url(#b3755e58d3)"><path style=" stroke:none;fill-rule:nonzero;fill:#ffb6c1;fill-opacity:1;" d="M 285.976562 604.050781 L 322.101562 604.050781 L 322.101562 621.601562 L 285.976562 621.601562 Z M 285.976562 604.050781 "/></g></g><g clip-rule="nonzero" clip-path="url(#c8f1c02619)"><g clip-rule="nonzero" clip-path="url(#62996201c5)"><path style=" stroke:none;fill-rule:nonzero;fill:#ffb6c1;fill-opacity:1;" d="M 328.125 560.25 L 376.425781 560.25 L 376.425781 616.851562 L 328.125 616.851562 Z M 328.125 560.25 "/></g></g><g clip-rule="nonzero" clip-path="url(#3b67ddd91e)"><g clip-rule="nonzero" clip-path="url(#01a0e91864)"><path style=" stroke:none;fill-rule:nonzero;fill:#ffb6c1;fill-opacity:1;" d="M 377.476562 562.648438 L 434.121094 562.648438 L 434.121094 618 L 377.476562 618 Z M 377.476562 562.648438 "/></g></g><g clip-rule="nonzero" clip-path="url(#0607dd62f5)"><g clip-rule="nonzero" clip-path="url(#338f881db4)"><path style=" stroke:none;fill-rule:nonzero;fill:#ffb6c1;fill-opacity:1;" d="M 431.324219 564 L 486.75 564 L 486.75 629.382812 L 431.324219 629.382812 Z M 431.324219 564 "/></g></g><g clip-rule="nonzero" clip-path="url(#96978631e6)"><g clip-rule="nonzero" clip-path="url(#7fb22594cd)"><path style=" stroke:none;fill-rule:nonzero;fill:#ffb6c1;fill-opacity:1;" d="M 223.199219 644.25 L 262.726562 644.25 L 262.726562 708.941406 L 223.199219 708.941406 Z M 223.199219 644.25 "/></g></g><g clip-rule="nonzero" clip-path="url(#8d5ba59504)"><g clip-rule="nonzero" clip-path="url(#a95bd4ad06)"><path style=" stroke:none;fill-rule:nonzero;fill:#ffb6c1;fill-opacity:1;" d="M 234.898438 637.351562 L 252.523438 637.351562 L 252.523438 714.871094 L 234.898438 714.871094 Z M 234.898438 637.351562 "/></g></g><g clip-rule="nonzero" clip-path="url(#24264a8c7f)"><g clip-rule="nonzero" clip-path="url(#dbf9d228e5)"><path style=" stroke:none;fill-rule:nonzero;fill:#ffb6c1;fill-opacity:1;" d="M 271.800781 639.449219 L 293.851562 639.449219 L 293.851562 716.796875 L 271.800781 716.796875 Z M 271.800781 639.449219 "/></g></g><g clip-rule="nonzero" clip-path="url(#a8da186313)"><g clip-rule="nonzero" clip-path="url(#7a30d798bf)"><path style=" stroke:none;fill-rule:nonzero;fill:#ffb6c1;fill-opacity:1;" d="M 268.875 669.375 L 315.300781 669.375 L 315.300781 720.515625 L 268.875 720.515625 Z M 268.875 669.375 "/></g></g><g clip-rule="nonzero" clip-path="url(#b00beb827e)"><g clip-rule="nonzero" clip-path="url(#1f497bf5c4)"><path style=" stroke:none;fill-rule:nonzero;fill:#ffb6c1;fill-opacity:1;" d="M 315.148438 666.898438 L 364.800781 666.898438 L 364.800781 718.488281 L 315.148438 718.488281 Z M 315.148438 666.898438 "/></g></g><g clip-rule="nonzero" clip-path="url(#17b5b53b16)"><g clip-rule="nonzero" clip-path="url(#f61ac98bf4)"><path style=" stroke:none;fill-rule:nonzero;fill:#ffb6c1;fill-opacity:1;" d="M 363.449219 667.5 L 380.925781 667.5 L 380.925781 717.878906 L 363.449219 717.878906 Z M 363.449219 667.5 "/></g></g><g clip-rule="nonzero" clip-path="url(#3648f2253b)"><g clip-rule="nonzero" clip-path="url(#b314f768b1)"><path style=" stroke:none;fill-rule:nonzero;fill:#ffb6c1;fill-opacity:1;" d="M 366.976562 668.625 L 416.25 668.625 L 416.25 723.675781 L 366.976562 723.675781 Z M 366.976562 668.625 "/></g></g><g clip-rule="nonzero" clip-path="url(#dc73c74d7e)"><g clip-rule="nonzero" clip-path="url(#8c558086b7)"><path style=" stroke:none;fill-rule:nonzero;fill:#ffb6c1;fill-opacity:1;" d="M 420.898438 639.523438 L 470.550781 639.523438 L 470.550781 722.921875 L 420.898438 722.921875 Z M 420.898438 639.523438 "/></g></g></g></svg>