<svg xmlns="http://www.w3.org/2000/svg" xmlns:xlink="http://www.w3.org/1999/xlink" width="1080" zoomAndPan="magnify" viewBox="0 0 810 809.999993" height="1080" preserveAspectRatio="xMidYMid meet" version="1.2"><defs><clipPath id="f6d582b6ba"><path d="M 176.007812 0.0507812 L 634.25 0.0507812 L 634.25 809.949219 L 176.007812 809.949219 Z M 176.007812 0.0507812 "/></clipPath><clipPath id="f39f891d55"><path d="M 417 436.753906 L 478.171875 436.753906 L 478.171875 505.558594 L 417 505.558594 Z M 417 436.753906 "/></clipPath><clipPath id="2afd0ce28b"><path d="M 425.175781 497.773438 C 456.449219 478.800781 463.726562 474.449219 467.550781 471.074219 C 469.726562 469.050781 470.550781 466.5 472.050781 465.675781 C 473.023438 465.148438 474 465.074219 474.824219 465.148438 C 475.5 465.226562 476.023438 465.449219 476.550781 465.976562 C 477.226562 466.648438 478.050781 468.226562 478.050781 469.273438 C 478.050781 470.175781 477.898438 471.226562 476.925781 471.824219 C 473.851562 473.699219 459.449219 470.476562 450.449219 470.101562 C 440.851562 469.648438 425.324219 470.625 420.898438 469.5 C 419.476562 469.125 418.949219 468.824219 418.351562 468.148438 C 417.75 467.550781 417.148438 466.648438 417.074219 465.824219 C 417.074219 464.851562 417.675781 463.273438 418.351562 462.601562 C 418.949219 462 419.851562 462.226562 420.824219 461.625 C 422.550781 460.726562 424.425781 458.324219 427.125 456.675781 C 431.398438 454.050781 441 450.074219 444.601562 448.648438 C 446.25 448.050781 447.074219 447.523438 448.125 447.449219 C 449.101562 447.375 450.226562 447.523438 450.976562 447.976562 C 451.726562 448.5 452.398438 449.398438 452.699219 450.300781 C 452.925781 451.125 452.851562 452.324219 452.476562 453.074219 C 452.101562 453.898438 451.351562 454.648438 450.449219 455.101562 C 449.25 455.699219 447.300781 455.773438 445.726562 455.925781 C 444.300781 456.074219 442.648438 456.226562 441.523438 456 C 440.851562 455.851562 440.25 455.625 439.800781 455.175781 C 439.125 454.574219 438.449219 453.449219 438.300781 452.550781 C 438.148438 451.648438 438.300781 450.601562 438.898438 449.699219 C 439.875 448.351562 442.949219 446.324219 444.75 446.023438 C 446.101562 445.875 447.675781 446.25 448.574219 447.074219 C 449.398438 447.898438 450 449.699219 449.925781 450.824219 C 449.851562 451.800781 449.101562 452.851562 448.425781 453.449219 C 447.898438 453.898438 447.226562 454.574219 446.625 454.351562 C 445.351562 453.898438 442.273438 446.550781 442.949219 445.726562 C 443.324219 445.199219 445.125 445.648438 445.949219 446.101562 C 446.773438 446.550781 447.675781 447.449219 447.898438 448.425781 C 448.199219 449.476562 447.976562 451.425781 447.375 452.324219 C 446.851562 453.148438 445.574219 454.273438 444.824219 454.050781 C 443.625 453.601562 441.074219 447.601562 441.976562 446.023438 C 442.875 444.375 448.125 444.074219 449.925781 444.226562 C 450.75 444.300781 451.273438 444.523438 451.875 444.976562 C 452.550781 445.5 453.449219 446.550781 453.601562 447.523438 C 453.824219 448.648438 453.300781 450.523438 452.625 451.425781 C 451.949219 452.25 450.898438 453 449.851562 452.851562 C 448.5 452.773438 447.148438 450.300781 445.199219 449.175781 C 442.574219 447.75 437.398438 446.773438 435.300781 445.648438 C 434.175781 445.050781 433.5 444.675781 432.976562 443.925781 C 432.449219 443.175781 432.074219 442.125 432.226562 441.148438 C 432.375 440.023438 433.273438 438.226562 434.324219 437.550781 C 435.375 436.875 437.398438 436.800781 438.523438 437.324219 C 439.648438 437.773438 440.925781 439.425781 441.148438 440.625 C 441.375 441.824219 440.550781 443.773438 439.800781 444.601562 C 439.199219 445.351562 438.148438 445.726562 437.175781 445.875 C 436.273438 445.949219 435.148438 445.726562 434.398438 445.273438 C 433.648438 444.824219 432.898438 443.925781 432.523438 443.101562 C 432.148438 442.273438 432.148438 441.074219 432.375 440.25 C 432.601562 439.351562 433.199219 438.375 433.949219 437.851562 C 434.699219 437.25 435.523438 436.875 436.648438 436.875 C 438.675781 436.949219 442.800781 438.601562 444.976562 440.023438 C 446.625 441.148438 447.523438 443.398438 448.875 444.226562 C 449.851562 444.824219 451.050781 444.449219 451.875 444.976562 C 452.625 445.5 453.375 446.550781 453.601562 447.523438 C 453.824219 448.648438 453.300781 450.523438 452.625 451.425781 C 451.949219 452.25 450.824219 452.773438 449.851562 452.851562 C 448.949219 453 447.898438 452.773438 447 452.101562 C 445.5 450.976562 442.5 446.398438 442.949219 445.726562 C 443.25 445.273438 445.125 445.574219 445.949219 446.101562 C 446.925781 446.699219 447.976562 448.351562 448.125 449.398438 C 448.273438 450.375 447.898438 451.574219 447.375 452.324219 C 446.773438 453.148438 445.351562 454.273438 444.824219 454.050781 C 444 453.601562 443.773438 446.925781 444.75 446.023438 C 445.351562 445.5 446.925781 446.101562 447.75 446.476562 C 448.351562 446.773438 448.875 447.226562 449.25 447.824219 C 449.699219 448.800781 450 450.75 449.625 451.800781 C 449.324219 452.699219 448.5 453.375 447.601562 453.976562 C 446.324219 454.875 444 456.074219 442.574219 456.074219 C 441.523438 456.148438 440.476562 455.625 439.800781 455.175781 C 439.199219 454.726562 438.824219 454.199219 438.601562 453.523438 C 438.300781 452.773438 438.148438 451.5 438.449219 450.601562 C 438.898438 449.550781 439.949219 448.5 441.300781 447.898438 C 443.324219 447.074219 448.125 446.773438 450.074219 447.601562 C 451.351562 448.125 452.324219 449.25 452.699219 450.300781 C 453 451.125 452.851562 452.324219 452.476562 453.074219 C 452.101562 453.898438 451.574219 454.351562 450.449219 455.101562 C 447.300781 457.199219 436.125 460.800781 430.726562 463.425781 C 426.75 465.375 423 468.976562 420.75 469.125 C 419.699219 469.199219 418.949219 468.675781 418.351562 468.148438 C 417.675781 467.625 417.226562 466.574219 417.074219 465.824219 C 417 465.226562 417.148438 464.550781 417.300781 464.023438 C 417.523438 463.5 417.898438 462.976562 418.351562 462.601562 C 418.949219 462.074219 419.851562 461.773438 420.824219 461.625 C 422.324219 461.476562 423.824219 462.300781 426.523438 462.523438 C 433.425781 463.125 455.773438 461.550781 463.425781 463.050781 C 467.101562 463.800781 469.726562 466.351562 471.300781 466.273438 C 472.050781 466.199219 472.273438 465.449219 472.949219 465.300781 C 473.699219 465.074219 474.976562 465.148438 475.726562 465.449219 C 476.324219 465.675781 476.851562 466.050781 477.226562 466.648438 C 477.675781 467.25 478.199219 468.300781 478.050781 469.273438 C 477.898438 470.699219 476.175781 472.875 475.050781 474.226562 C 474 475.5 473.550781 475.875 471.675781 477.300781 C 465.601562 482.023438 435.375 502.351562 429.449219 504.75 C 428.023438 505.351562 427.5 505.5 426.601562 505.351562 C 425.699219 505.199219 424.648438 504.523438 424.050781 503.851562 C 423.523438 503.101562 423.074219 501.976562 423.148438 501.074219 C 423.300781 499.949219 425.175781 497.773438 425.175781 497.773438 "/></clipPath><clipPath id="38a759ce59"><path d="M 217.007812 364.152344 L 564.359375 364.152344 L 564.359375 715.835938 L 217.007812 715.835938 Z M 217.007812 364.152344 "/></clipPath><clipPath id="4b76c6c97e"><path d="M 217.011719 564.679688 C 234.277344 504.808594 242.347656 502.378906 246.253906 496.390625 C 249.898438 490.839844 251.808594 480.6875 253.367188 478.171875 C 253.800781 477.476562 253.976562 477.738281 254.496094 476.957031 C 256.320312 473.746094 260.136719 454.394531 264.128906 449.277344 C 266.210938 446.585938 270.027344 447.453125 270.894531 444.675781 C 272.976562 438.605469 256.320312 419.601562 258.660156 408.839844 C 261.089844 397.648438 276.796875 385.847656 286.773438 379.253906 C 294.84375 373.785156 302.914062 371.703125 312.023438 369.363281 C 322.003906 366.757812 333.457031 365.457031 344.390625 365.023438 C 355.757812 364.675781 367.902344 365.628906 379.097656 367.191406 C 389.769531 368.667969 404.347656 371.792969 410.074219 373.875 C 412.417969 374.742188 412.765625 376.128906 414.757812 376.304688 C 417.882812 376.5625 421.613281 373.007812 426.90625 372.746094 C 436.191406 372.3125 457.363281 374.222656 466.386719 380.46875 C 473.761719 385.585938 473.761719 397.300781 480.269531 403.203125 C 487.210938 409.449219 501.441406 415.089844 507.515625 416.304688 C 510.292969 416.910156 510.988281 415.695312 514.023438 416.128906 C 521.660156 417.171875 545 419.425781 553.070312 428.539062 C 561.746094 438.429688 564.785156 464.289062 561.660156 475.914062 C 559.402344 484.15625 547.601562 488.0625 546.042969 494.394531 C 544.738281 499.429688 546.648438 506.023438 549.339844 509.929688 C 552.027344 513.746094 559.316406 513.050781 561.746094 517.824219 C 565.910156 525.71875 563.828125 549.929688 560.097656 559.386719 C 557.753906 565.460938 549.597656 569.710938 549.164062 572.226562 C 548.992188 573.269531 549.945312 573.269531 550.03125 574.398438 C 550.554688 579.082031 546.128906 603.726562 543.089844 610.148438 C 541.789062 612.835938 538.839844 613.703125 538.753906 615.351562 C 538.753906 616.742188 541.269531 617.175781 541.703125 619.34375 C 542.917969 625.070312 539.273438 643.988281 533.285156 654.050781 C 527.039062 664.550781 513.761719 675.832031 503.957031 680.515625 C 496.582031 684.074219 485.042969 682.859375 481.832031 684.074219 C 480.878906 684.421875 481.136719 684.679688 480.097656 685.117188 C 475.324219 687.285156 435.929688 698.128906 435.757812 698.21875 C 435.585938 698.390625 404.433594 713.75 392.808594 714.703125 C 385.34375 715.3125 380.660156 710.886719 373.804688 710.710938 C 365.820312 710.539062 356.972656 716.527344 347.945312 714.964844 C 336.40625 712.882812 315.84375 695.441406 311.15625 694.3125 C 310.117188 694.050781 310.117188 694.660156 309.160156 694.398438 C 304.824219 693.183594 282.175781 683.8125 277.925781 675.050781 C 274.191406 667.242188 284.691406 650.667969 281.394531 646.15625 C 279.226562 643.292969 273.585938 646.15625 269.246094 644.074219 C 262.480469 640.863281 251.113281 632.621094 247.035156 624.550781 C 242.957031 616.65625 248.164062 602.25 244.257812 596.351562 C 241.308594 591.925781 234.453125 592.964844 230.375 588.976562 C 224.996094 583.59375 217.011719 564.679688 217.011719 564.679688 M 355.929688 610.753906 C 360.441406 611.1875 359.921875 610.925781 359.660156 610.582031 C 359.140625 609.972656 357.492188 608.0625 357.492188 608.0625 C 357.492188 607.976562 356.710938 605.894531 356.449219 605.894531 C 356.101562 605.980469 355.929688 610.753906 355.929688 610.753906 M 369.8125 618.042969 C 370.421875 618.824219 371.113281 618.648438 371.113281 618.5625 C 371.113281 618.5625 370.59375 618.390625 370.332031 618.304688 C 370.160156 618.214844 369.8125 618.042969 369.8125 618.042969 "/></clipPath><clipPath id="6789705513"><path d="M 236.199219 350.335938 L 253.085938 350.335938 L 253.085938 388.398438 L 236.199219 388.398438 Z M 236.199219 350.335938 "/></clipPath><clipPath id="ef7f974977"><path d="M 253.050781 356.398438 C 246.449219 386.175781 246.300781 386.324219 245.773438 386.773438 C 245.023438 387.375 243.675781 388.199219 242.476562 388.273438 C 241.351562 388.425781 239.925781 388.125 238.949219 387.601562 C 237.976562 387 237.074219 385.875 236.625 384.824219 C 236.175781 383.773438 236.101562 382.351562 236.324219 381.226562 C 236.625 380.175781 237.601562 378.898438 238.351562 378.226562 C 238.875 377.773438 239.398438 377.550781 239.925781 377.324219 C 240.523438 377.175781 241.050781 377.023438 241.726562 377.023438 C 242.699219 377.101562 244.273438 377.476562 245.175781 378.148438 C 246.074219 378.824219 246.898438 380.175781 247.273438 381.074219 C 247.5 381.75 247.574219 382.273438 247.5 382.949219 C 247.351562 383.925781 246.898438 385.425781 246.148438 386.324219 C 245.476562 387.148438 244.199219 387.976562 243.148438 388.199219 C 242.023438 388.425781 240.523438 388.351562 239.550781 387.824219 C 238.5 387.375 237.449219 386.398438 236.851562 385.425781 C 236.324219 384.375 236.175781 383.625 236.25 381.824219 C 236.398438 376.800781 241.050781 356.324219 243.226562 352.574219 C 243.898438 351.523438 244.351562 351.300781 245.175781 350.925781 C 246.226562 350.476562 247.875 350.175781 249 350.476562 C 250.199219 350.773438 251.476562 351.675781 252.148438 352.648438 C 252.824219 353.625 253.050781 356.398438 253.050781 356.398438 "/></clipPath><clipPath id="5793394c0a"><path d="M 236.453125 380.910156 L 248.347656 380.910156 L 248.347656 399.785156 L 236.453125 399.785156 Z M 236.453125 380.910156 "/></clipPath><clipPath id="6225a8b2df"><path d="M 247.050781 385.5 C 247.949219 396.75 247.351562 397.648438 246.601562 398.398438 C 245.773438 399.074219 244.5 399.675781 243.449219 399.75 C 242.398438 399.824219 241.050781 399.601562 240.148438 398.925781 C 239.023438 398.101562 237.75 396.074219 237.675781 394.648438 C 237.601562 393.148438 238.648438 390.976562 239.851562 390.148438 C 241.050781 389.25 243.449219 388.949219 244.800781 389.398438 C 246.148438 389.925781 247.800781 391.726562 248.175781 393.148438 C 248.550781 394.574219 247.949219 396.898438 246.976562 397.949219 C 246 399.074219 243.675781 399.75 242.324219 399.75 C 241.199219 399.675781 240 399 239.25 398.25 C 238.5 397.5 238.125 396.523438 237.75 395.175781 C 237.074219 392.925781 236.175781 387.976562 236.550781 385.726562 C 236.851562 384.226562 237.523438 383.101562 238.273438 382.351562 C 238.875 381.675781 239.699219 381.300781 240.449219 381.148438 C 241.273438 380.925781 242.101562 380.851562 243 381.074219 C 244.050781 381.375 245.398438 382.273438 246.074219 383.101562 C 246.675781 383.773438 247.050781 385.5 247.050781 385.5 "/></clipPath><clipPath id="63ee66299b"><path d="M 241.074219 403.03125 L 278.101562 403.03125 L 278.101562 427.953125 L 241.074219 427.953125 Z M 241.074219 403.03125 "/></clipPath><clipPath id="cbea27ea3d"><path d="M 250.875 405.375 C 259.425781 415.726562 261.226562 417.148438 263.175781 417.074219 C 265.5 417 268.425781 413.101562 270.523438 412.5 C 271.875 412.125 273.074219 412.125 274.199219 412.5 C 275.25 412.875 276.449219 413.773438 277.050781 414.75 C 277.726562 415.648438 278.023438 417.226562 278.023438 418.273438 C 278.101562 418.949219 277.949219 419.398438 277.648438 420.074219 C 277.199219 420.898438 276.300781 422.25 275.25 422.851562 C 274.273438 423.375 272.851562 423.75 271.726562 423.601562 C 270.601562 423.449219 269.175781 422.625 268.425781 422.023438 C 267.898438 421.574219 267.601562 421.199219 267.300781 420.601562 C 266.925781 419.699219 266.625 417.976562 266.699219 417 C 266.773438 416.25 267 415.726562 267.300781 415.199219 C 267.601562 414.675781 267.898438 414.226562 268.425781 413.773438 C 269.175781 413.175781 270.601562 412.351562 271.726562 412.199219 C 272.925781 412.125 274.351562 412.425781 275.324219 413.023438 C 276.300781 413.625 277.199219 414.976562 277.648438 415.800781 C 277.949219 416.476562 278.101562 416.925781 278.023438 417.601562 C 278.023438 418.574219 277.875 420 277.050781 421.125 C 275.699219 422.851562 271.875 424.726562 269.175781 425.851562 C 266.773438 426.898438 264.300781 427.875 261.898438 427.875 C 259.648438 427.875 257.25 427.125 255.148438 426.074219 C 253.050781 424.949219 251.398438 423.300781 249.449219 421.273438 C 247.050781 418.726562 243.375 413.851562 242.101562 411.675781 C 241.574219 410.625 241.273438 410.101562 241.199219 409.273438 C 241.050781 408.449219 241.125 407.550781 241.425781 406.726562 C 241.875 405.675781 242.925781 404.324219 243.976562 403.800781 C 244.949219 403.199219 246.601562 402.976562 247.726562 403.273438 C 248.925781 403.5 250.875 405.375 250.875 405.375 "/></clipPath><clipPath id="05d2fb0fde"><path d="M 278.734375 353.886719 L 292.761719 353.886719 L 292.761719 378.746094 L 278.734375 378.746094 Z M 278.734375 353.886719 "/></clipPath><clipPath id="d4fc79752f"><path d="M 292.726562 360.523438 C 288.523438 376.273438 288.074219 377.101562 287.175781 377.699219 C 286.273438 378.300781 285 378.675781 283.875 378.675781 C 282.824219 378.601562 281.550781 378.148438 280.726562 377.476562 C 279.824219 376.800781 279.148438 375.601562 278.851562 374.550781 C 278.625 373.5 278.773438 372.148438 279.148438 371.175781 C 279.601562 370.125 280.425781 369.074219 281.476562 368.625 C 282.75 368.023438 285.226562 367.875 286.5 368.550781 C 287.851562 369.226562 289.199219 371.175781 289.425781 372.601562 C 289.574219 374.101562 288.601562 376.351562 287.625 377.324219 C 286.800781 378.148438 285.523438 378.601562 284.476562 378.675781 C 283.425781 378.75 282.074219 378.375 281.175781 377.773438 C 280.273438 377.175781 279.375 376.125 279.074219 375.074219 C 278.699219 374.101562 278.773438 373.199219 279 371.699219 C 279.300781 368.625 281.175781 360.824219 282.449219 357.898438 C 283.125 356.476562 283.648438 355.5 284.625 354.824219 C 285.601562 354.148438 287.175781 353.851562 288.300781 353.925781 C 289.125 354 289.949219 354.375 290.625 354.824219 C 291.300781 355.351562 291.976562 355.949219 292.351562 356.773438 C 292.726562 357.75 292.726562 360.523438 292.726562 360.523438 "/></clipPath><clipPath id="2d4bf4fe8d"><path d="M 234.441406 374.773438 L 289.515625 374.773438 L 289.515625 425.257812 L 234.441406 425.257812 Z M 234.441406 374.773438 "/></clipPath><clipPath id="b4786cebf2"><path d="M 289.425781 381.226562 C 288 401.398438 287.699219 405.300781 286.273438 409.273438 C 284.773438 413.398438 282.074219 418.726562 279.601562 421.351562 C 277.875 423.148438 276.074219 424.199219 274.199219 424.800781 C 272.398438 425.324219 270.449219 425.25 268.574219 425.101562 C 266.476562 424.875 264.449219 424.5 262.050781 423.675781 C 258.75 422.398438 254.101562 420.523438 250.648438 417.449219 C 246.375 413.699219 242.324219 404.25 239.398438 401.625 C 238.125 400.425781 236.773438 400.351562 236.023438 399.675781 C 235.5 399.148438 235.199219 398.699219 234.976562 397.949219 C 234.675781 396.976562 234.375 395.25 234.75 394.050781 C 235.050781 392.851562 235.875 391.574219 236.851562 390.75 C 237.824219 390 239.324219 389.476562 240.601562 389.476562 C 241.800781 389.476562 243.300781 389.925781 244.273438 390.675781 C 245.324219 391.425781 246.226562 392.699219 246.523438 393.898438 C 246.898438 395.101562 246.675781 396.824219 246.375 397.800781 C 246.148438 398.550781 245.925781 399 245.398438 399.523438 C 244.648438 400.273438 243.074219 401.25 242.023438 401.550781 C 241.351562 401.773438 240.824219 401.851562 240.074219 401.699219 C 239.023438 401.550781 237.375 400.949219 236.476562 400.125 C 235.574219 399.300781 234.898438 397.726562 234.601562 396.675781 C 234.449219 395.925781 234.449219 395.398438 234.601562 394.726562 C 234.824219 393.675781 235.5 392.101562 236.398438 391.199219 C 237.226562 390.375 238.875 389.699219 239.925781 389.550781 C 240.675781 389.398438 241.050781 389.324219 241.875 389.625 C 243.675781 390.300781 247.5 393.824219 249.523438 396 C 251.175781 397.726562 252.226562 399.300781 253.273438 401.175781 C 254.398438 403.050781 254.398438 405.449219 256.050781 407.25 C 258.300781 409.648438 263.476562 412.351562 266.550781 413.175781 C 268.648438 413.773438 270.898438 414.226562 272.324219 413.398438 C 273.675781 412.574219 274.351562 410.175781 274.875 408.375 C 275.398438 406.574219 274.949219 404.476562 275.324219 402.449219 C 275.773438 400.351562 276.75 398.625 277.273438 395.851562 C 278.175781 391.425781 277.648438 381.449219 279.148438 378.226562 C 279.824219 376.726562 280.726562 375.976562 281.773438 375.449219 C 282.898438 374.925781 284.476562 374.851562 285.601562 375.148438 C 286.726562 375.523438 288 376.5 288.675781 377.476562 C 289.273438 378.523438 289.425781 381.226562 289.425781 381.226562 "/></clipPath><clipPath id="5105a7bc01"><path d="M 348.550781 397.246094 L 366.984375 397.246094 L 366.984375 447.558594 L 348.550781 447.558594 Z M 348.550781 397.246094 "/></clipPath><clipPath id="c593d3ecfc"><path d="M 366.898438 403.425781 C 358.648438 446.175781 357.523438 446.699219 356.476562 447.148438 C 355.574219 447.523438 354.675781 447.601562 353.699219 447.449219 C 352.574219 447.148438 350.925781 446.25 350.101562 445.425781 C 349.425781 444.75 349.125 444 348.898438 442.949219 C 348.523438 441.449219 348.523438 438.75 349.050781 437.175781 C 349.425781 435.976562 350.324219 434.925781 351.300781 434.25 C 352.199219 433.574219 353.625 433.199219 354.824219 433.273438 C 356.023438 433.351562 357.375 433.875 358.273438 434.625 C 359.175781 435.375 359.925781 436.648438 360.148438 437.773438 C 360.449219 438.898438 360.300781 440.398438 359.773438 441.449219 C 359.324219 442.5 358.050781 443.625 357.226562 444.148438 C 356.625 444.523438 356.101562 444.675781 355.5 444.75 C 354.824219 444.898438 354.300781 444.898438 353.625 444.75 C 352.648438 444.523438 351.074219 443.699219 350.324219 443.023438 C 349.800781 442.574219 349.5 442.125 349.273438 441.449219 C 348.898438 440.550781 348.601562 438.976562 348.824219 437.773438 C 349.125 436.648438 350.023438 435.300781 350.773438 434.625 C 351.300781 434.101562 351.675781 433.875 352.351562 433.648438 C 353.324219 433.351562 355.125 433.273438 356.101562 433.425781 C 356.773438 433.574219 357.226562 433.800781 357.75 434.25 C 358.574219 434.851562 359.550781 436.050781 360 437.175781 C 360.523438 438.523438 360.449219 440.476562 360.300781 441.824219 C 360.226562 442.800781 360.074219 443.699219 359.625 444.449219 C 359.175781 445.273438 358.5 446.023438 357.75 446.476562 C 357 447 356.101562 447.375 355.125 447.449219 C 353.925781 447.523438 352.199219 447.148438 351.148438 446.398438 C 350.101562 445.648438 349.273438 444.300781 348.898438 442.949219 C 348.375 441.375 348.601562 440.023438 348.898438 437.398438 C 349.648438 430.5 353.851562 405.824219 356.550781 400.648438 C 357.375 399 358.050781 398.324219 359.175781 397.800781 C 360.226562 397.273438 361.800781 397.125 363 397.425781 C 364.125 397.726562 365.398438 398.699219 366.074219 399.675781 C 366.75 400.648438 366.898438 403.425781 366.898438 403.425781 "/></clipPath><clipPath id="ec0aa5edcd"><path d="M 357.21875 393.050781 L 397.410156 393.050781 L 397.410156 453.335938 L 357.21875 453.335938 Z M 357.21875 393.050781 "/></clipPath><clipPath id="d003ed3f2f"><path d="M 360.300781 396.601562 C 371.925781 392.550781 373.949219 392.925781 375.898438 393.375 C 377.699219 393.898438 379.425781 394.648438 381.074219 395.625 C 382.800781 396.675781 384.523438 397.949219 386.101562 399.449219 C 387.824219 401.101562 389.550781 402.898438 390.976562 405.226562 C 392.699219 407.925781 394.351562 412.050781 395.324219 414.976562 C 396.074219 417.148438 396.375 418.199219 396.675781 420.824219 C 397.273438 426.074219 397.648438 439.199219 396.824219 444.449219 C 396.375 447.148438 395.851562 449.023438 394.800781 450.449219 C 394.050781 451.574219 393 452.476562 391.875 452.925781 C 390.675781 453.300781 389.023438 453.226562 387.976562 453 C 387.300781 452.851562 386.773438 452.550781 386.25 452.175781 C 385.726562 451.800781 385.273438 451.425781 384.898438 450.824219 C 384.375 449.925781 383.699219 448.351562 383.699219 447.148438 C 383.773438 445.949219 384.449219 444.375 385.050781 443.550781 C 385.425781 442.875 385.800781 442.574219 386.476562 442.199219 C 387.375 441.75 389.175781 441.300781 390.226562 441.300781 C 390.898438 441.300781 391.425781 441.375 392.101562 441.75 C 393 442.199219 394.351562 443.398438 394.949219 444.300781 C 395.398438 444.898438 395.550781 445.351562 395.625 446.101562 C 395.773438 447.148438 395.699219 448.800781 395.101562 449.925781 C 394.574219 450.976562 393.300781 452.101562 392.398438 452.625 C 391.800781 453 391.273438 453.148438 390.601562 453.226562 C 389.550781 453.300781 387.898438 453.074219 386.773438 452.476562 C 385.726562 451.875 384.824219 451.273438 384.226562 449.625 C 382.648438 445.199219 386.550781 428.324219 385.351562 421.125 C 384.601562 416.625 383.023438 413.023438 381.226562 410.324219 C 379.800781 408.300781 378.226562 406.726562 376.273438 405.75 C 374.25 404.699219 371.324219 404.023438 369.226562 404.324219 C 367.273438 404.550781 365.550781 406.5 363.898438 406.726562 C 362.625 406.949219 361.125 406.726562 360.148438 406.199219 C 359.324219 405.824219 358.726562 405.148438 358.199219 404.476562 C 357.75 403.800781 357.375 402.898438 357.375 402 C 357.300781 400.949219 357.75 399.226562 358.351562 398.324219 C 358.800781 397.574219 360.300781 396.601562 360.300781 396.601562 "/></clipPath><clipPath id="e7e228744b"><path d="M 397.398438 400.261719 L 441.878906 400.261719 L 441.878906 467.277344 L 397.398438 467.277344 Z M 397.398438 400.261719 "/></clipPath><clipPath id="bb0abdbafc"><path d="M 409.726562 421.875 C 420.898438 420.675781 420 417.523438 419.25 415.800781 C 418.5 414.148438 417.074219 412.273438 415.5 411.675781 C 413.925781 411 411.074219 410.625 409.800781 411.976562 C 407.023438 414.824219 408.449219 432.074219 409.800781 437.324219 C 410.398438 439.875 411.226562 441 412.574219 442.648438 C 414.148438 444.601562 416.101562 446.023438 418.949219 447.824219 C 423.824219 450.824219 437.550781 455.023438 440.25 457.574219 C 441.226562 458.476562 441.300781 459.148438 441.523438 460.050781 C 441.75 460.875 441.75 461.925781 441.523438 462.75 C 441.300781 463.648438 440.925781 464.550781 440.175781 465.226562 C 439.351562 466.050781 437.773438 466.875 436.574219 467.023438 C 435.675781 467.25 434.851562 467.101562 433.875 466.726562 C 432.300781 466.050781 429.523438 463.875 428.476562 462.300781 C 427.726562 461.175781 427.425781 459.976562 427.425781 458.773438 C 427.5 457.648438 428.175781 456.148438 428.773438 455.398438 C 429.148438 454.800781 429.601562 454.5 430.125 454.125 C 430.648438 453.824219 431.175781 453.523438 431.851562 453.449219 C 432.824219 453.300781 434.398438 453.300781 435.449219 453.75 C 436.5 454.199219 437.625 455.25 438.148438 456.226562 C 438.75 457.273438 438.976562 458.699219 438.824219 459.824219 C 438.675781 460.949219 437.851562 462.375 437.175781 463.050781 C 436.726562 463.574219 436.199219 463.875 435.675781 464.175781 C 435.148438 464.398438 434.625 464.625 433.875 464.699219 C 432.898438 464.699219 431.324219 464.550781 430.351562 463.949219 C 429.300781 463.351562 428.324219 462.074219 427.875 461.175781 C 427.574219 460.574219 427.5 460.050781 427.5 459.375 C 427.425781 458.773438 427.425781 458.25 427.648438 457.574219 C 427.949219 456.675781 428.699219 455.25 429.601562 454.5 C 430.574219 453.824219 431.925781 453.300781 433.050781 453.300781 C 434.25 453.226562 435.449219 453.75 436.574219 454.351562 C 437.851562 455.101562 439.425781 456.523438 440.25 457.574219 C 440.925781 458.398438 441.300781 459.148438 441.523438 460.050781 C 441.75 460.875 441.824219 461.851562 441.523438 462.75 C 441.148438 463.875 440.101562 465.375 439.199219 466.125 C 438.375 466.648438 437.550781 466.949219 436.574219 467.023438 C 435.523438 467.175781 434.476562 467.101562 433.050781 466.726562 C 430.800781 466.199219 427.800781 464.773438 424.574219 463.273438 C 420 461.175781 412.5 457.726562 408.601562 454.949219 C 406.050781 453.074219 404.25 451.351562 402.75 449.398438 C 401.476562 447.75 400.726562 446.175781 399.976562 444.300781 C 399.074219 442.199219 398.324219 440.324219 397.875 437.398438 C 397.199219 432.898438 397.273438 424.949219 397.949219 419.476562 C 398.550781 414.75 399.523438 409.574219 401.175781 406.425781 C 402.226562 404.324219 403.425781 402.75 405.300781 401.699219 C 407.324219 400.574219 410.773438 400.425781 413.175781 400.351562 C 415.050781 400.273438 416.699219 400.425781 418.425781 400.875 C 420.226562 401.398438 422.023438 402.375 423.601562 403.351562 C 425.101562 404.398438 426.675781 405.523438 427.800781 406.949219 C 429 408.601562 430.125 410.398438 430.574219 412.726562 C 431.25 415.726562 431.101562 420.75 430.125 423.976562 C 429.300781 426.75 427.574219 429.75 425.625 431.25 C 424.050781 432.449219 422.175781 432.523438 419.851562 432.75 C 416.476562 433.125 409.648438 433.273438 407.175781 432.074219 C 405.824219 431.398438 405.074219 430.351562 404.625 429.226562 C 404.25 428.101562 404.25 426.523438 404.625 425.398438 C 405.074219 424.273438 406.273438 423.074219 407.175781 422.550781 C 407.925781 422.023438 409.726562 421.875 409.726562 421.875 "/></clipPath><clipPath id="9e68d5a6ec"><path d="M 431.113281 403.664062 L 485 403.664062 L 485 475.21875 L 431.113281 475.21875 Z M 431.113281 403.664062 "/></clipPath><clipPath id="eafc01e1e3"><path d="M 436.726562 431.25 C 443.398438 430.726562 448.425781 428.476562 451.199219 427.125 C 453.148438 426.226562 454.800781 425.699219 455.925781 424.425781 C 457.125 423.074219 458.625 420.75 458.25 419.25 C 457.726562 417.601562 453.601562 414.75 452.101562 415.351562 C 450.148438 416.023438 449.25 423.300781 448.726562 426.601562 C 448.351562 429.074219 448.425781 431.101562 448.574219 433.199219 C 448.800781 435.074219 449.101562 436.648438 449.773438 438.523438 C 450.601562 440.851562 452.175781 443.851562 453.523438 446.023438 C 454.726562 447.898438 455.25 449.175781 457.273438 451.050781 C 461.699219 455.023438 481.726562 464.023438 481.273438 465.898438 C 481.050781 466.875 475.5 466.800781 474.226562 466.425781 C 473.625 466.273438 473.25 466.050781 473.101562 465.675781 C 472.949219 465.226562 473.175781 464.476562 473.550781 463.800781 C 474 462.898438 474.976562 461.550781 475.949219 460.949219 C 477 460.351562 478.5 460.050781 479.625 460.199219 C 480.824219 460.351562 482.175781 461.023438 483 461.851562 C 483.898438 462.675781 484.574219 463.949219 484.726562 465.148438 C 484.949219 466.351562 484.648438 467.773438 484.125 468.824219 C 483.523438 469.875 482.25 470.925781 481.351562 471.375 C 480.75 471.75 480.226562 471.898438 479.550781 471.898438 C 478.5 471.898438 476.773438 471.523438 475.875 471 C 475.273438 470.699219 474.824219 470.398438 474.449219 469.800781 C 473.851562 468.976562 473.25 467.324219 473.101562 466.273438 C 473.023438 465.601562 473.101562 465.074219 473.324219 464.398438 C 473.699219 463.5 474.675781 462 475.425781 461.324219 C 476.023438 460.875 476.476562 460.648438 477.148438 460.5 C 478.125 460.199219 479.773438 460.125 480.898438 460.5 C 482.023438 460.875 483.226562 462 483.824219 462.824219 C 484.273438 463.351562 484.5 463.800781 484.648438 464.550781 C 484.875 465.675781 485.175781 467.625 484.574219 469.125 C 483.898438 471.074219 481.875 474.300781 479.773438 474.976562 C 477.300781 475.726562 473.625 473.550781 470.550781 472.273438 C 467.101562 470.851562 463.726562 468.976562 460.050781 466.726562 C 455.699219 464.023438 449.851562 460.800781 446.25 456.824219 C 442.875 452.925781 440.324219 447.074219 438.675781 443.324219 C 437.550781 440.851562 436.875 439.351562 436.574219 436.800781 C 436.050781 433.5 436.425781 428.175781 436.875 424.800781 C 437.175781 422.398438 437.398438 420.976562 438.300781 418.648438 C 439.5 415.351562 441.75 409.351562 444.148438 406.875 C 445.949219 405.148438 448.199219 404.25 450.148438 403.875 C 452.023438 403.5 453.824219 403.800781 455.699219 404.25 C 457.800781 404.773438 460.199219 405.675781 462.226562 407.023438 C 464.398438 408.449219 467.023438 410.398438 468.226562 412.648438 C 469.425781 414.898438 469.574219 418.199219 469.351562 420.601562 C 469.199219 422.699219 468.523438 424.574219 467.699219 426.449219 C 466.800781 428.476562 465.675781 430.800781 464.023438 432.449219 C 462.375 434.023438 460.273438 434.851562 457.875 436.050781 C 454.648438 437.699219 450.074219 440.25 446.175781 441.148438 C 442.574219 442.050781 437.851562 442.648438 435.375 441.976562 C 433.949219 441.523438 432.898438 440.773438 432.226562 439.800781 C 431.550781 438.824219 431.175781 437.25 431.324219 436.050781 C 431.476562 434.851562 432.226562 433.425781 433.125 432.675781 C 434.023438 431.851562 436.726562 431.25 436.726562 431.25 "/></clipPath><clipPath id="6f09aa7e2a"><path d="M 492.101562 416.457031 L 536.597656 416.457031 L 536.597656 471.777344 L 492.101562 471.777344 Z M 492.101562 416.457031 "/></clipPath><clipPath id="1b7c902800"><path d="M 508.125 427.949219 C 502.875 439.050781 503.023438 440.773438 503.324219 442.648438 C 503.699219 444.75 504.449219 447.074219 505.425781 448.875 C 506.398438 450.601562 507.449219 451.726562 509.101562 453.226562 C 511.5 455.476562 516.675781 460.351562 519.226562 460.199219 C 520.949219 460.125 522.375 458.25 523.273438 456.75 C 524.25 455.175781 524.398438 452.925781 524.625 450.898438 C 524.851562 448.726562 525.226562 446.25 524.625 444 C 524.023438 441.675781 522.226562 439.050781 520.5 437.101562 C 518.851562 435.300781 516.675781 433.949219 514.726562 432.824219 C 513 431.851562 510.976562 432.074219 509.476562 430.648438 C 507.449219 428.699219 504.601562 422.925781 504.898438 420.523438 C 505.050781 419.175781 506.476562 418.125 507.300781 417.523438 C 507.898438 417.074219 508.425781 416.851562 509.101562 416.699219 C 510.148438 416.550781 512.023438 416.699219 513 417 C 513.75 417.226562 514.125 417.523438 514.648438 418.050781 C 515.398438 418.800781 516.375 420.226562 516.601562 421.425781 C 516.898438 422.625 516.523438 424.273438 516.148438 425.25 C 515.851562 425.925781 515.476562 426.449219 515.023438 426.898438 C 514.574219 427.351562 514.125 427.726562 513.375 428.023438 C 512.476562 428.398438 510.75 428.851562 509.550781 428.625 C 508.351562 428.398438 507 427.648438 506.175781 426.75 C 505.351562 425.773438 504.675781 424.351562 504.601562 423.148438 C 504.449219 421.949219 504.824219 420.449219 505.5 419.398438 C 506.175781 418.351562 507.375 417.375 508.5 416.925781 C 509.625 416.476562 511.199219 416.398438 512.398438 416.773438 C 513.601562 417.148438 514.875 418.199219 515.550781 419.023438 C 516.074219 419.550781 516.300781 420.074219 516.449219 420.75 C 516.675781 421.800781 516.449219 424.648438 516.375 424.648438 C 516.300781 424.648438 515.324219 421.050781 515.925781 420.675781 C 516.675781 420.148438 520.574219 423.449219 522.523438 424.800781 C 524.175781 425.925781 525.300781 426.601562 526.949219 428.101562 C 529.5 430.5 534 434.773438 535.574219 438.601562 C 537 442.050781 536.476562 446.550781 536.550781 449.699219 C 536.550781 452.023438 536.476562 453.824219 536.175781 455.773438 C 535.800781 457.648438 535.273438 459.523438 534.375 461.101562 C 533.625 462.75 532.5 464.101562 531.226562 465.449219 C 529.726562 466.949219 527.925781 468.449219 525.976562 469.5 C 523.949219 470.625 521.324219 471.601562 519.148438 471.675781 C 517.125 471.675781 515.398438 471.074219 513.226562 470.101562 C 510 468.601562 505.050781 464.851562 502.050781 462.375 C 499.800781 460.351562 498.074219 458.625 496.5 456.523438 C 495.148438 454.648438 493.949219 452.851562 493.199219 450.601562 C 492.375 448.199219 492.148438 445.425781 492.148438 442.574219 C 492.148438 439.125 492.523438 434.851562 493.648438 431.398438 C 494.851562 427.949219 497.324219 423.898438 499.125 421.949219 C 500.175781 420.824219 501.148438 420.074219 502.199219 419.699219 C 503.101562 419.476562 503.925781 419.398438 504.824219 419.699219 C 505.875 420 507.300781 420.976562 507.976562 421.800781 C 508.574219 422.550781 508.875 423.300781 508.949219 424.199219 C 509.023438 425.324219 508.125 427.949219 508.125 427.949219 "/></clipPath><clipPath id="0f6a93f767"><path d="M 528.234375 387.875 L 550.082031 387.875 L 550.082031 462.546875 L 528.234375 462.546875 Z M 528.234375 387.875 "/></clipPath><clipPath id="953b488bff"><path d="M 550.050781 394.050781 C 546.824219 420.75 545.398438 429.675781 543.675781 437.773438 C 541.949219 445.726562 540.449219 458.25 537.75 461.25 C 536.699219 462.449219 535.425781 462.523438 534.226562 462.523438 C 533.023438 462.523438 531.523438 461.925781 530.699219 461.398438 C 530.023438 461.023438 529.726562 460.648438 529.351562 460.050781 C 528.824219 459.148438 528.226562 457.648438 528.300781 456.449219 C 528.300781 455.25 528.824219 453.824219 529.574219 452.925781 C 530.324219 452.023438 531.824219 451.273438 532.800781 450.976562 C 533.476562 450.75 533.925781 450.675781 534.675781 450.824219 C 535.648438 450.976562 537.300781 451.726562 538.050781 452.324219 C 538.648438 452.773438 538.949219 453.300781 539.25 453.824219 C 539.550781 454.351562 539.851562 454.875 539.925781 455.625 C 540 456.601562 539.925781 458.25 539.324219 459.300781 C 538.800781 460.351562 537.75 461.398438 536.699219 461.925781 C 535.648438 462.449219 534 462.523438 532.949219 462.375 C 532.273438 462.300781 531.824219 462.148438 531.226562 461.699219 C 530.398438 461.175781 529.199219 460.050781 528.75 458.925781 C 528.300781 457.800781 528.148438 456.300781 528.449219 455.175781 C 528.75 454.050781 530.398438 452.023438 530.476562 452.023438 C 530.550781 452.101562 529.648438 454.425781 529.425781 454.425781 C 529.199219 454.351562 529.273438 451.425781 529.574219 448.800781 C 530.324219 442.800781 534.148438 428.773438 535.800781 419.023438 C 537.449219 409.574219 537.601562 395.625 539.699219 391.199219 C 540.449219 389.625 541.199219 388.949219 542.25 388.425781 C 543.375 387.898438 544.949219 387.75 546.074219 388.050781 C 547.273438 388.351562 548.550781 389.25 549.226562 390.300781 C 549.898438 391.273438 550.050781 394.050781 550.050781 394.050781 "/></clipPath><clipPath id="98bd2c4495"><path d="M 235.453125 392.652344 L 248.371094 392.652344 L 248.371094 409.265625 L 235.453125 409.265625 Z M 235.453125 392.652344 "/></clipPath><clipPath id="c95c73fa7a"><path d="M 245.398438 395.550781 C 248.324219 403.949219 248.175781 405.976562 247.199219 407.175781 C 246.300781 408.300781 244.050781 409.273438 242.625 409.199219 C 241.125 409.050781 239.101562 407.773438 238.351562 406.5 C 237.601562 405.226562 237.523438 402.824219 238.199219 401.476562 C 238.800781 400.125 240.75 398.699219 242.25 398.476562 C 243.675781 398.324219 245.925781 399.226562 246.976562 400.199219 C 247.800781 401.023438 248.25 402.300781 248.324219 403.351562 C 248.476562 404.398438 248.101562 405.75 247.574219 406.726562 C 246.976562 407.625 246 408.523438 244.875 408.898438 C 243.523438 409.273438 241.125 408.898438 239.925781 408.226562 C 238.875 407.625 238.5 406.574219 237.898438 405.449219 C 237 403.800781 235.648438 400.949219 235.5 399.148438 C 235.351562 397.726562 235.574219 396.375 236.023438 395.398438 C 236.398438 394.574219 237 393.976562 237.75 393.523438 C 238.425781 393.074219 239.324219 392.773438 240.148438 392.699219 C 240.898438 392.625 241.800781 392.625 242.625 393 C 243.601562 393.523438 245.398438 395.550781 245.398438 395.550781 "/></clipPath><clipPath id="55ea3a3d08"><path d="M 287 491.496094 L 350.15625 491.496094 L 350.15625 563.792969 L 287 563.792969 Z M 287 491.496094 "/></clipPath><clipPath id="62ecfa3c51"><path d="M 315.074219 507.074219 C 303.523438 513.449219 301.648438 514.351562 300.601562 516.074219 C 299.476562 517.800781 299.476562 519.898438 299.175781 522.601562 C 298.800781 526.949219 299.023438 535.425781 299.398438 539.550781 C 299.625 542.023438 299.625 543.523438 300.375 545.324219 C 301.199219 547.125 302.550781 549.300781 304.125 550.273438 C 305.550781 551.25 307.199219 551.25 309.300781 551.476562 C 312.523438 551.925781 318.449219 552.375 321.601562 551.625 C 323.851562 551.023438 325.574219 550.050781 327 548.699219 C 328.425781 547.273438 329.101562 545.398438 330.148438 543.226562 C 331.574219 540.375 333 536.699219 334.273438 533.023438 C 335.625 528.898438 337.726562 523.425781 337.800781 519.601562 C 337.800781 516.75 337.125 514.199219 336 512.175781 C 334.875 510.375 333.601562 509.101562 331.351562 507.824219 C 327.601562 505.800781 317.023438 504.601562 314.398438 503.398438 C 313.5 502.949219 313.199219 502.726562 312.675781 502.273438 C 312.226562 501.824219 311.773438 501.375 311.476562 500.625 C 311.101562 499.648438 310.648438 498 310.875 496.726562 C 311.023438 495.523438 311.773438 494.101562 312.675781 493.273438 C 313.574219 492.375 315 491.699219 316.273438 491.550781 C 317.550781 491.476562 319.050781 491.773438 320.175781 492.449219 C 321.226562 493.050781 322.199219 494.476562 322.726562 495.449219 C 323.023438 496.125 323.101562 496.726562 323.175781 497.398438 C 323.175781 498.074219 323.175781 498.675781 322.949219 499.425781 C 322.574219 500.398438 321.675781 501.898438 320.699219 502.648438 C 319.726562 503.398438 318 503.851562 316.949219 503.925781 C 316.199219 504 315.675781 503.925781 315 503.625 C 314.023438 503.175781 312.523438 502.050781 311.851562 501.226562 C 311.324219 500.625 311.101562 500.175781 311.023438 499.425781 C 310.800781 498.375 310.726562 496.648438 311.175781 495.449219 C 311.625 494.324219 312.675781 493.050781 313.726562 492.449219 C 314.851562 491.773438 315.976562 491.550781 317.625 491.550781 C 320.550781 491.550781 326.023438 492.75 330 494.25 C 334.199219 495.898438 339.226562 498.976562 342 501.226562 C 343.875 502.726562 344.925781 503.925781 346.050781 505.574219 C 347.324219 507.375 348.449219 509.699219 349.125 511.875 C 349.800781 514.050781 350.023438 516.375 350.101562 518.625 C 350.175781 520.726562 350.175781 522.375 349.648438 524.851562 C 348.976562 528.449219 347.023438 533.699219 345.449219 537.976562 C 343.800781 542.175781 341.773438 546.75 339.898438 550.125 C 338.398438 552.824219 337.5 554.925781 335.398438 556.875 C 333 559.199219 328.5 561.601562 325.648438 562.648438 C 323.625 563.398438 322.5 563.476562 320.25 563.625 C 316.648438 563.925781 309.601562 563.773438 306.074219 563.25 C 303.898438 562.875 302.625 562.425781 300.976562 561.675781 C 299.023438 560.851562 296.773438 559.726562 295.199219 558.300781 C 293.625 556.875 292.574219 555.300781 291.449219 553.050781 C 289.875 549.976562 288.226562 545.550781 287.550781 541.125 C 286.800781 536.023438 287.175781 529.050781 287.773438 523.949219 C 288.300781 519.675781 288.601562 515.851562 290.476562 512.398438 C 292.425781 508.726562 296.25 505.273438 299.699219 502.726562 C 303 500.25 307.875 497.851562 310.648438 497.25 C 312.226562 496.949219 313.425781 497.023438 314.476562 497.550781 C 315.601562 498 316.726562 499.125 317.175781 500.25 C 317.699219 501.300781 317.773438 502.949219 317.398438 504.074219 C 317.023438 505.199219 315.074219 507.074219 315.074219 507.074219 "/></clipPath><clipPath id="d9939ec6e4"><path d="M 364.410156 506.460938 L 393.164062 506.460938 L 393.164062 568.3125 L 364.410156 568.3125 Z M 364.410156 506.460938 "/></clipPath><clipPath id="e4cad187a6"><path d="M 375.148438 511.125 C 376.273438 518.699219 376.949219 520.648438 378.074219 523.199219 C 379.726562 526.800781 383.023438 530.851562 385.199219 535.949219 C 388.125 542.773438 392.25 556.351562 392.699219 561.148438 C 392.851562 563.023438 392.773438 564.074219 392.175781 565.199219 C 391.648438 566.25 390.375 567.375 389.175781 567.824219 C 387.976562 568.273438 386.324219 568.273438 385.125 567.824219 C 384 567.449219 382.800781 566.550781 382.125 565.199219 C 381.148438 563.25 381.300781 558.601562 381.675781 556.351562 C 381.898438 554.925781 382.351562 553.726562 382.875 552.898438 C 383.25 552.300781 383.773438 552 384.226562 551.625 C 384.75 551.324219 385.273438 551.023438 385.949219 550.875 C 386.925781 550.726562 388.5 550.726562 389.625 551.175781 C 390.675781 551.625 391.800781 552.75 392.324219 553.574219 C 392.773438 554.101562 392.851562 554.699219 393 555.300781 C 393.148438 555.898438 393.226562 556.425781 393.074219 557.175781 C 392.851562 558.074219 392.101562 559.648438 391.5 560.476562 C 391.050781 561 390.675781 561.300781 390 561.523438 C 389.101562 561.898438 387.523438 562.273438 386.398438 562.050781 C 385.199219 561.898438 383.925781 561.148438 383.175781 560.324219 C 382.351562 559.425781 381.824219 558.074219 381.675781 556.949219 C 381.601562 555.824219 382.050781 554.25 382.5 553.425781 C 382.875 552.75 383.25 552.375 383.773438 552 C 384.226562 551.625 384.675781 551.25 385.351562 551.101562 C 386.324219 550.800781 387.898438 550.574219 389.023438 550.949219 C 390.148438 551.25 391.351562 552.074219 392.023438 553.050781 C 392.699219 553.949219 393.074219 555.375 393.148438 556.5 C 393.148438 557.625 392.25 558.675781 392.175781 559.875 C 392.101562 561.148438 392.925781 562.726562 392.699219 563.851562 C 392.550781 564.824219 392.101562 565.648438 391.425781 566.324219 C 390.601562 567.148438 389.023438 567.976562 387.824219 568.199219 C 386.925781 568.351562 386.023438 568.273438 385.125 567.824219 C 384.074219 567.375 383.101562 566.773438 382.125 565.199219 C 379.574219 561.148438 377.550781 546.148438 374.699219 539.324219 C 372.75 534.523438 369.898438 531.449219 368.25 527.625 C 366.824219 524.324219 365.773438 520.726562 365.175781 517.875 C 364.648438 515.851562 364.425781 513.976562 364.425781 512.476562 C 364.425781 511.5 364.425781 510.75 364.726562 509.925781 C 365.023438 509.175781 365.476562 508.351562 366.226562 507.824219 C 367.050781 507.148438 368.550781 506.476562 369.75 506.476562 C 370.949219 506.476562 372.449219 507 373.351562 507.75 C 374.25 508.574219 375.148438 511.125 375.148438 511.125 "/></clipPath><clipPath id="588402ce5a"><path d="M 360.480469 515.804688 L 416.144531 515.804688 L 416.144531 598.585938 L 360.480469 598.585938 Z M 360.480469 515.804688 "/></clipPath><clipPath id="39a00f18b9"><path d="M 415.800781 523.351562 C 407.101562 540.148438 401.699219 545.550781 399.226562 549.601562 C 397.574219 552.375 397.574219 553.726562 395.851562 557.023438 C 391.875 564.375 379.5 584.550781 374.550781 591.375 C 372.300781 594.523438 370.875 596.773438 369.074219 597.824219 C 367.875 598.5 366.601562 598.648438 365.476562 598.5 C 364.273438 598.351562 362.925781 597.523438 362.175781 596.851562 C 361.648438 596.398438 361.351562 595.875 361.125 595.351562 C 360.824219 594.75 360.601562 594.226562 360.601562 593.550781 C 360.523438 592.574219 360.898438 590.851562 361.273438 589.949219 C 361.574219 589.351562 361.875 588.976562 362.476562 588.523438 C 363.226562 587.925781 364.648438 587.175781 365.851562 587.101562 C 366.976562 587.023438 368.398438 587.398438 369.375 588 C 370.351562 588.675781 371.25 590.023438 371.625 590.925781 C 371.925781 591.523438 372 592.050781 372 592.726562 C 371.925781 593.699219 371.398438 595.351562 370.875 596.175781 C 370.5 596.773438 370.199219 597.148438 369.601562 597.523438 C 368.699219 597.976562 367.199219 598.574219 366.074219 598.574219 C 364.875 598.5 363.523438 597.976562 362.625 597.226562 C 361.726562 596.550781 360.976562 595.273438 360.675781 594.148438 C 360.449219 593.023438 360.523438 591.601562 361.050781 590.550781 C 361.5 589.5 363.148438 587.699219 363.449219 587.851562 C 363.601562 587.851562 363.449219 588.675781 363.523438 588.675781 C 363.824219 588.75 364.574219 585.824219 365.699219 583.800781 C 367.875 579.75 373.050781 573 376.949219 566.773438 C 381.449219 559.5 386.476562 549.300781 390.898438 542.625 C 394.273438 537.601562 397.949219 534.300781 400.648438 530.023438 C 403.125 526.125 404.550781 520.199219 406.574219 517.949219 C 407.625 516.824219 408.675781 516.226562 409.800781 515.925781 C 411 515.699219 412.574219 516 413.550781 516.601562 C 414.601562 517.199219 415.574219 518.398438 415.949219 519.523438 C 416.324219 520.648438 415.800781 523.351562 415.800781 523.351562 "/></clipPath><clipPath id="3dc665fd45"><path d="M 432.3125 504.226562 L 444.308594 504.226562 L 444.308594 566.5625 L 432.3125 566.5625 Z M 432.3125 504.226562 "/></clipPath><clipPath id="91ca5d1a17"><path d="M 444.300781 509.476562 C 443.925781 551.476562 444.601562 559.351562 442.949219 562.875 C 442.050781 564.75 440.550781 565.875 439.273438 566.324219 C 438.148438 566.699219 436.800781 566.476562 435.824219 566.101562 C 434.851562 565.648438 433.800781 564.75 433.273438 563.851562 C 432.675781 562.875 432.300781 561.601562 432.523438 560.476562 C 432.824219 559.125 434.25 557.101562 435.449219 556.351562 C 436.425781 555.75 437.773438 555.675781 438.824219 555.824219 C 439.875 556.050781 441.074219 556.574219 441.824219 557.476562 C 442.648438 558.601562 443.324219 561 443.101562 562.351562 C 442.949219 563.476562 442.125 564.601562 441.300781 565.273438 C 440.476562 565.949219 439.199219 566.476562 438.074219 566.476562 C 437.023438 566.550781 435.675781 566.25 434.773438 565.5 C 433.726562 564.675781 432.898438 563.101562 432.523438 561.074219 C 431.773438 557.324219 433.574219 550.949219 433.875 544.273438 C 434.324219 534.523438 432.300781 513.523438 433.949219 508.199219 C 434.476562 506.476562 435.074219 505.800781 436.050781 505.125 C 437.023438 504.523438 438.523438 504.148438 439.648438 504.300781 C 440.851562 504.375 442.199219 505.125 442.949219 506.023438 C 443.773438 506.851562 444.300781 509.476562 444.300781 509.476562 "/></clipPath><clipPath id="3e357bc412"><path d="M 219 594.410156 L 283.839844 594.410156 L 283.839844 665.554688 L 219 665.554688 Z M 219 594.410156 "/></clipPath><clipPath id="97e4917f9a"><path d="M 234.226562 600.75 C 230.773438 629.023438 233.851562 642.824219 231.226562 645.601562 C 229.949219 646.949219 225.976562 646.574219 225.675781 645.976562 C 225.300781 645.300781 228.074219 643.425781 229.425781 641.476562 C 231.601562 638.398438 234.523438 630.675781 236.625 628.800781 C 237.523438 627.976562 238.199219 627.75 239.25 627.601562 C 240.449219 627.449219 242.324219 627.824219 243.375 628.351562 C 244.273438 628.800781 244.949219 629.550781 245.476562 630.375 C 245.925781 631.199219 246.226562 632.175781 246.300781 633.148438 C 246.375 634.050781 246.148438 635.101562 245.773438 635.925781 C 245.398438 636.75 244.351562 638.324219 244.050781 638.175781 C 243.601562 638.023438 244.199219 630.226562 245.25 630.074219 C 246.976562 629.773438 252.148438 644.851562 255.449219 649.726562 C 257.699219 652.949219 261.148438 655.125 262.050781 657.148438 C 262.574219 658.273438 262.648438 659.023438 262.425781 660 C 262.273438 661.199219 261.375 662.925781 260.550781 663.824219 C 259.800781 664.574219 258.898438 664.949219 258 665.25 C 257.023438 665.476562 255.976562 665.476562 255.074219 665.25 C 254.175781 665.023438 253.199219 664.574219 252.523438 663.976562 C 251.773438 663.300781 251.101562 662.625 250.800781 661.574219 C 250.425781 659.925781 251.023438 657.375 251.925781 654.523438 C 253.425781 649.800781 257.625 643.050781 260.550781 636.375 C 264 628.5 268.125 616.351562 270.976562 610.273438 C 272.625 606.824219 273.976562 603.523438 275.25 602.398438 C 275.851562 601.875 276.148438 601.726562 276.898438 601.648438 C 278.023438 601.574219 280.648438 601.875 281.773438 602.851562 C 282.898438 603.824219 283.648438 606.226562 283.574219 607.574219 C 283.5 608.773438 282.976562 609.976562 282.074219 610.726562 C 281.023438 611.625 278.699219 612.523438 277.273438 612.226562 C 275.773438 612 273.898438 610.425781 273.300781 609.074219 C 272.699219 607.726562 273 605.324219 273.601562 604.050781 C 274.199219 603 275.324219 602.25 276.300781 601.875 C 277.351562 601.5 278.699219 601.425781 279.75 601.726562 C 280.800781 602.023438 282 602.699219 282.601562 603.75 C 283.351562 604.949219 283.648438 607.351562 283.273438 608.699219 C 282.976562 609.824219 281.550781 610.5 281.175781 611.476562 C 280.875 612.226562 281.324219 612.675781 281.023438 613.949219 C 280.050781 618.75 272.25 639.824219 268.351562 647.550781 C 266.101562 651.824219 262.875 654.449219 262.050781 657.148438 C 261.601562 658.800781 262.574219 660.148438 262.125 661.425781 C 261.675781 662.699219 260.476562 664.050781 259.351562 664.648438 C 258.148438 665.324219 256.351562 665.550781 255.074219 665.25 C 253.800781 664.949219 252.824219 664.125 251.476562 662.851562 C 249.148438 660.601562 245.699219 655.574219 243.148438 651.449219 C 240.449219 647.101562 236.625 641.625 235.800781 637.425781 C 235.199219 634.273438 235.351562 630.300781 236.625 628.800781 C 237.523438 627.675781 239.476562 627.523438 240.675781 627.523438 C 241.648438 627.523438 242.550781 627.824219 243.375 628.351562 C 244.425781 629.023438 245.625 630.449219 246.074219 631.726562 C 246.449219 632.925781 246.300781 634.273438 245.773438 635.925781 C 245.023438 638.773438 241.949219 643.949219 240.074219 646.800781 C 238.726562 648.75 237.75 650.023438 236.175781 651.449219 C 234.300781 653.175781 231.824219 655.648438 229.5 656.101562 C 227.324219 656.550781 224.324219 656.101562 222.675781 654.75 C 220.875 653.25 220.199219 650.398438 219.523438 646.949219 C 218.476562 641.101562 219.300781 630.226562 219.976562 621.976562 C 220.726562 613.800781 221.925781 601.648438 223.949219 597.75 C 224.699219 596.175781 225.523438 595.5 226.574219 594.976562 C 227.699219 594.449219 229.273438 594.300781 230.476562 594.675781 C 231.601562 594.976562 232.875 595.949219 233.476562 597 C 234.148438 597.976562 234.226562 600.75 234.226562 600.75 "/></clipPath><clipPath id="b68df2df4f"><path d="M 292.527344 628.230469 L 327.878906 628.230469 L 327.878906 671.578125 L 292.527344 671.578125 Z M 292.527344 628.230469 "/></clipPath><clipPath id="9a745ae7d4"><path d="M 305.851562 639.375 C 303.523438 652.351562 302.925781 654.675781 303.75 656.324219 C 304.648438 657.898438 307.199219 659.023438 309.074219 659.625 C 310.875 660.148438 313.574219 661.050781 314.851562 659.851562 C 317.101562 657.824219 318.375 645.226562 315.824219 642.226562 C 313.726562 639.75 306.226562 641.925781 303.449219 640.800781 C 301.875 640.199219 300.824219 639.226562 300.074219 638.25 C 299.550781 637.425781 299.324219 636.449219 299.25 635.476562 C 299.175781 634.574219 299.25 633.523438 299.699219 632.625 C 300.300781 631.574219 301.648438 630.226562 302.699219 629.625 C 303.601562 629.175781 304.574219 628.726562 305.550781 629.101562 C 307.273438 629.699219 310.875 633.675781 311.175781 635.550781 C 311.398438 636.824219 310.5 638.175781 309.675781 639.074219 C 308.851562 639.976562 307.351562 640.726562 306.375 640.949219 C 305.625 641.175781 305.101562 641.175781 304.425781 641.023438 C 303.375 640.800781 301.800781 640.199219 300.976562 639.300781 C 300.148438 638.476562 299.476562 636.898438 299.25 635.925781 C 299.101562 635.175781 299.101562 634.648438 299.324219 633.976562 C 299.625 632.925781 300.300781 631.425781 301.199219 630.601562 C 302.101562 629.773438 303.75 629.25 304.726562 629.101562 C 305.476562 628.949219 306 629.023438 306.675781 629.25 C 307.648438 629.625 309.226562 630.601562 309.898438 631.351562 C 310.425781 631.875 310.648438 632.324219 310.875 633 C 311.101562 634.050781 311.324219 635.699219 310.949219 636.824219 C 310.574219 638.023438 309.675781 639.226562 308.699219 639.976562 C 307.726562 640.648438 306.074219 641.023438 305.023438 641.101562 C 304.351562 641.101562 303.75 640.949219 303.148438 640.726562 C 302.550781 640.5 301.949219 640.273438 301.425781 639.75 C 300.675781 639.074219 299.25 636.675781 299.398438 636.523438 C 299.625 636.300781 305.101562 640.726562 304.875 641.101562 C 304.800781 641.25 303 640.800781 302.175781 640.273438 C 301.125 639.523438 299.925781 638.023438 299.476562 636.898438 C 299.101562 636 299.175781 634.949219 299.324219 634.050781 C 299.476562 633.148438 299.925781 632.175781 300.449219 631.425781 C 301.050781 630.675781 301.648438 630.074219 302.699219 629.625 C 304.425781 628.875 307.726562 628.199219 310.125 628.351562 C 312.375 628.574219 314.324219 629.398438 316.574219 630.601562 C 319.574219 632.25 324.449219 635.25 326.175781 637.726562 C 327.300781 639.449219 327.300781 640.949219 327.523438 643.125 C 327.976562 646.425781 327.675781 652.351562 327.300781 655.726562 C 327 658.050781 326.773438 659.625 325.949219 661.574219 C 325.050781 663.75 323.699219 666.601562 321.75 668.175781 C 319.949219 669.824219 317.175781 670.800781 314.773438 671.25 C 312.449219 671.699219 310.050781 671.25 307.648438 670.949219 C 305.101562 670.574219 302.324219 670.050781 300 668.925781 C 297.675781 667.726562 294.976562 666.148438 293.699219 663.898438 C 292.351562 661.5 292.648438 657.523438 292.648438 654.675781 C 292.574219 652.273438 292.726562 650.550781 293.101562 648 C 293.550781 644.699219 294.523438 638.851562 295.5 636.601562 C 295.949219 635.550781 296.324219 635.023438 297 634.5 C 297.898438 633.824219 299.550781 633.226562 300.601562 633.226562 C 301.574219 633.148438 302.398438 633.449219 303.148438 633.898438 C 303.898438 634.273438 304.574219 634.875 305.023438 635.625 C 305.550781 636.601562 305.851562 639.375 305.851562 639.375 "/></clipPath><clipPath id="ecf39a4073"><path d="M 324.460938 647.386719 L 343.640625 647.386719 L 343.640625 668.816406 L 324.460938 668.816406 Z M 324.460938 647.386719 "/></clipPath><clipPath id="fe71233667"><path d="M 333.675781 648.898438 C 339 654.75 342.976562 660.300781 343.5 662.625 C 343.726562 663.75 343.574219 664.425781 343.199219 665.25 C 342.75 666.226562 341.699219 667.574219 340.574219 668.101562 C 339.523438 668.699219 337.875 668.773438 336.75 668.550781 C 335.851562 668.398438 335.101562 667.875 334.425781 667.351562 C 333.824219 666.75 333.148438 666.148438 333 665.175781 C 332.699219 663.675781 333.75 660.226562 334.5 659.101562 C 334.949219 658.574219 335.398438 658.425781 336 658.199219 C 336.898438 657.898438 338.476562 657.675781 339.523438 657.976562 C 340.574219 658.273438 341.773438 659.023438 342.449219 659.925781 C 343.125 660.824219 343.574219 662.101562 343.574219 663.226562 C 343.574219 664.351562 343.125 665.699219 342.449219 666.523438 C 341.773438 667.425781 340.648438 668.25 339.601562 668.550781 C 338.550781 668.851562 337.125 668.773438 336.074219 668.324219 C 335.101562 667.949219 333.976562 666.824219 333.449219 666.074219 C 333 665.550781 332.851562 665.101562 332.773438 664.5 C 332.625 663.523438 332.625 662.023438 333.148438 660.976562 C 333.601562 660 334.726562 658.949219 335.476562 658.425781 C 336.074219 658.050781 336.523438 657.898438 337.199219 657.898438 C 338.101562 657.824219 339.75 658.050781 340.648438 658.425781 C 341.25 658.648438 341.625 658.949219 342 659.476562 C 342.601562 660.226562 343.425781 661.574219 343.5 662.625 C 343.648438 663.75 342.824219 666.074219 342.75 666.074219 C 342.675781 666.074219 343.050781 661.351562 343.199219 661.351562 C 343.273438 661.351562 343.648438 663.074219 343.5 663.976562 C 343.425781 664.800781 343.125 665.699219 342.601562 666.375 C 341.851562 667.273438 340.425781 668.25 339.375 668.550781 C 338.476562 668.851562 337.726562 668.925781 336.75 668.550781 C 335.25 668.023438 333 666.074219 331.800781 664.574219 C 330.601562 663.148438 330.449219 661.273438 329.398438 659.773438 C 328.351562 658.199219 326.101562 656.773438 325.273438 655.5 C 324.75 654.601562 324.601562 653.851562 324.523438 653.023438 C 324.449219 652.199219 324.601562 651.300781 324.976562 650.476562 C 325.5 649.5 326.625 648.300781 327.675781 647.851562 C 328.726562 647.324219 330.375 647.324219 331.5 647.550781 C 332.324219 647.773438 333.675781 648.898438 333.675781 648.898438 "/></clipPath><clipPath id="3c394f8099"><path d="M 354.011719 614.578125 L 374.988281 614.578125 L 374.988281 670.792969 L 354.011719 670.792969 Z M 354.011719 614.578125 "/></clipPath><clipPath id="d68bd5a4a8"><path d="M 374.925781 620.699219 C 367.949219 655.351562 365.925781 664.574219 363.824219 667.875 C 362.925781 669.300781 362.175781 669.976562 361.125 670.351562 C 360.074219 670.800781 358.574219 670.875 357.523438 670.5 C 356.398438 670.050781 355.273438 669.074219 354.75 668.101562 C 354.148438 667.199219 354 665.773438 354.148438 664.800781 C 354.300781 663.75 354.824219 662.550781 355.648438 661.875 C 356.699219 661.050781 358.949219 660.300781 360.300781 660.601562 C 361.726562 660.898438 363.449219 662.398438 363.976562 663.75 C 364.5 665.023438 364.273438 667.351562 363.449219 668.476562 C 362.699219 669.675781 360.601562 670.726562 359.175781 670.726562 C 357.75 670.726562 355.726562 669.675781 354.976562 668.476562 C 354.148438 667.273438 353.925781 665.023438 354.449219 663.675781 C 354.976562 662.398438 356.699219 660.898438 358.125 660.601562 C 359.476562 660.300781 361.726562 661.050781 362.773438 661.875 C 363.601562 662.550781 364.125 663.898438 364.273438 664.800781 C 364.425781 665.476562 364.425781 666.074219 364.273438 666.75 C 363.976562 667.648438 363.148438 669.074219 362.25 669.75 C 361.351562 670.425781 359.851562 670.875 358.726562 670.726562 C 357.601562 670.648438 356.25 669.976562 355.425781 669.074219 C 354.675781 668.25 354.148438 667.351562 354.074219 665.699219 C 353.925781 661.949219 358.199219 653.324219 359.925781 646.199219 C 361.949219 637.648438 362.851562 622.050781 365.023438 617.773438 C 365.851562 616.273438 366.523438 615.601562 367.574219 615.148438 C 368.625 614.625 370.125 614.550781 371.25 614.851562 C 372.375 615.148438 373.574219 616.125 374.175781 617.101562 C 374.773438 618.074219 374.925781 620.699219 374.925781 620.699219 "/></clipPath><clipPath id="35ae177ecf"><path d="M 384.515625 622.804688 L 400.710938 622.804688 L 400.710938 681.289062 L 384.515625 681.289062 Z M 384.515625 622.804688 "/></clipPath><clipPath id="88f9b5813f"><path d="M 400.648438 628.949219 C 395.925781 662.023438 396.898438 669.074219 396 673.425781 C 395.398438 676.050781 394.5 678.375 393.523438 679.574219 C 392.925781 680.324219 392.25 680.699219 391.5 680.925781 C 390.75 681.226562 389.851562 681.300781 389.101562 681.226562 C 388.273438 681.148438 387.449219 680.851562 386.773438 680.324219 C 386.023438 679.726562 385.125 678.300781 384.75 677.324219 C 384.523438 676.648438 384.523438 676.050781 384.675781 675.375 C 384.898438 674.476562 385.351562 673.199219 386.25 672.523438 C 387.226562 671.625 389.398438 670.875 390.824219 671.175781 C 392.175781 671.476562 393.898438 673.050781 394.425781 674.25 C 394.949219 675.226562 394.949219 676.5 394.648438 677.476562 C 394.351562 678.523438 393.75 679.648438 392.851562 680.25 C 391.726562 680.925781 389.476562 681.449219 388.125 681 C 386.773438 680.550781 385.273438 678.824219 384.824219 677.550781 C 384.449219 676.5 384.601562 675.300781 384.976562 674.324219 C 385.351562 673.351562 386.101562 672.300781 387.074219 671.851562 C 388.273438 671.25 390.601562 671.101562 391.875 671.550781 C 392.851562 671.925781 393.75 672.898438 394.199219 673.800781 C 394.648438 674.476562 394.875 675.375 394.800781 676.199219 C 394.800781 677.25 394.273438 678.75 393.523438 679.574219 C 392.773438 680.398438 391.351562 681.074219 390.300781 681.226562 C 389.476562 681.375 388.648438 681.226562 387.898438 680.925781 C 387.148438 680.625 386.398438 680.175781 385.875 679.5 C 385.273438 678.675781 384.601562 677.175781 384.675781 676.125 C 384.675781 675.148438 385.648438 674.699219 385.949219 673.273438 C 386.773438 669.824219 386.023438 661.050781 386.625 654.148438 C 387.375 645.898438 388.949219 631.648438 390.523438 627.148438 C 391.125 625.5 391.5 624.675781 392.398438 624 C 393.300781 623.324219 394.800781 622.800781 395.925781 622.875 C 397.050781 622.949219 398.476562 623.699219 399.226562 624.375 C 399.898438 624.976562 400.273438 625.726562 400.5 626.476562 C 400.800781 627.300781 400.648438 628.949219 400.648438 628.949219 "/></clipPath><clipPath id="56485c2cf3"><path d="M 405.226562 634.054688 L 440.097656 634.054688 L 440.097656 693.648438 L 405.226562 693.648438 Z M 405.226562 634.054688 "/></clipPath><clipPath id="3da6d332bc"><path d="M 414.375 656.699219 C 420.824219 656.324219 423.148438 655.875 424.351562 654.601562 C 425.625 653.324219 426.75 649.050781 426.300781 648.75 C 425.851562 648.449219 423.226562 650.773438 421.875 652.574219 C 420 654.976562 417.976562 659.550781 417 662.476562 C 416.324219 664.5 415.574219 666.148438 415.800781 667.875 C 416.175781 669.75 417.675781 671.625 419.023438 673.199219 C 420.449219 674.773438 422.324219 676.199219 424.273438 677.398438 C 426.449219 678.75 431.101562 679.425781 431.476562 680.851562 C 431.851562 682.050781 428.851562 685.125 428.773438 685.050781 C 428.625 684.976562 429.449219 682.574219 430.199219 681.75 C 430.949219 680.925781 432.226562 680.25 433.351562 680.023438 C 434.476562 679.800781 435.898438 680.023438 436.875 680.550781 C 437.925781 681.074219 438.898438 682.125 439.425781 683.101562 C 439.949219 684.148438 440.101562 685.574219 439.875 686.699219 C 439.648438 687.824219 438.898438 689.023438 438.074219 689.773438 C 437.175781 690.523438 435.898438 691.125 434.699219 691.199219 C 433.574219 691.273438 432.226562 690.898438 431.25 690.300781 C 430.273438 689.625 429.449219 688.5 429.074219 687.449219 C 428.625 686.398438 428.773438 684.824219 429 683.851562 C 429.148438 683.175781 429.449219 682.726562 429.824219 682.199219 C 430.199219 681.75 430.5 681.300781 431.101562 680.925781 C 431.925781 680.476562 433.574219 679.949219 434.550781 679.949219 C 435.226562 679.875 435.75 680.023438 436.351562 680.324219 C 437.25 680.699219 438.523438 681.601562 439.125 682.574219 C 439.726562 683.550781 440.25 684.75 439.949219 686.101562 C 439.5 688.199219 436.648438 692.699219 434.324219 693.449219 C 432.148438 694.125 429.300781 692.023438 426.449219 690.75 C 422.851562 689.023438 418.050781 686.023438 414.824219 683.550781 C 412.199219 681.523438 409.875 679.5 408.375 677.398438 C 407.25 675.824219 406.726562 674.324219 406.199219 672.601562 C 405.675781 670.574219 405.300781 668.25 405.375 666.074219 C 405.449219 663.824219 405.976562 661.875 406.726562 659.324219 C 407.773438 655.574219 410.398438 649.5 412.050781 646.199219 C 413.101562 644.023438 413.925781 642.523438 415.199219 640.949219 C 416.476562 639.375 417.898438 637.875 419.699219 636.75 C 421.726562 635.550781 424.648438 634.199219 426.898438 634.199219 C 428.773438 634.273438 430.5 635.25 432 636.226562 C 433.648438 637.273438 435.300781 638.625 436.273438 640.273438 C 437.25 641.851562 437.476562 643.949219 437.699219 645.898438 C 437.925781 647.851562 437.851562 650.023438 437.476562 652.050781 C 437.101562 654.148438 436.425781 656.476562 435.449219 658.273438 C 434.550781 660 433.351562 661.351562 431.925781 662.625 C 430.574219 663.824219 428.925781 664.800781 427.050781 665.625 C 424.800781 666.523438 421.648438 667.199219 419.101562 667.5 C 417 667.726562 414.75 667.875 413.101562 667.351562 C 411.824219 666.898438 410.625 666.148438 409.949219 665.175781 C 409.273438 664.199219 408.898438 662.625 409.050781 661.425781 C 409.199219 660.226562 409.949219 658.800781 410.773438 658.050781 C 411.675781 657.226562 414.375 656.699219 414.375 656.699219 "/></clipPath><clipPath id="c934919ff2"><path d="M 459.855469 616.277344 L 470.914062 616.277344 L 470.914062 704.210938 L 459.855469 704.210938 Z M 459.855469 616.277344 "/></clipPath><clipPath id="629f023b49"><path d="M 470.773438 621 C 469.351562 689.101562 471.675781 696.601562 470.550781 700.351562 C 470.023438 702.074219 469.050781 703.199219 467.851562 703.726562 C 466.726562 704.25 464.699219 704.023438 463.574219 703.425781 C 462.675781 702.976562 462.148438 701.925781 461.550781 700.875 C 460.875 699.375 459.976562 696.75 460.125 695.023438 C 460.351562 693.523438 461.101562 691.800781 462.148438 691.050781 C 463.199219 690.300781 465.300781 690.074219 466.574219 690.523438 C 467.773438 690.976562 469.199219 692.625 469.5 693.898438 C 469.800781 695.175781 469.199219 697.199219 468.375 698.175781 C 467.476562 699.148438 465.449219 699.824219 464.175781 699.601562 C 462.898438 699.449219 461.25 698.023438 460.574219 696.976562 C 460.125 696.148438 460.050781 694.949219 460.273438 693.976562 C 460.425781 693.074219 460.949219 692.023438 461.773438 691.425781 C 462.75 690.675781 464.773438 690.074219 466.050781 690.375 C 467.324219 690.75 468.601562 692.023438 469.351562 693.375 C 470.25 695.101562 470.773438 698.773438 470.550781 700.351562 C 470.398438 701.25 470.175781 701.773438 469.648438 702.375 C 468.976562 703.050781 467.699219 703.800781 466.800781 704.023438 C 466.050781 704.25 465.300781 704.175781 464.625 703.875 C 463.726562 703.574219 462.675781 703.050781 462.074219 701.851562 C 460.648438 699.375 460.875 694.050781 460.574219 687.523438 C 459.976562 673.351562 459.074219 627.375 461.476562 619.875 C 462 618.226562 462.523438 617.699219 463.351562 617.101562 C 464.25 616.574219 465.601562 616.199219 466.574219 616.351562 C 467.625 616.425781 468.898438 617.101562 469.574219 617.851562 C 470.25 618.675781 470.773438 621 470.773438 621 "/></clipPath><clipPath id="d316cb0027"><path d="M 445.625 637.210938 L 493.234375 637.210938 L 493.234375 664.917969 L 445.625 664.917969 Z M 445.625 637.210938 "/></clipPath><clipPath id="262a505261"><path d="M 448.351562 655.273438 C 488.851562 637.125 489.523438 637.273438 490.425781 637.726562 C 491.324219 638.101562 492.300781 638.851562 492.675781 639.824219 C 493.199219 641.023438 493.199219 643.273438 492.675781 644.398438 C 492.226562 645.375 491.324219 646.199219 490.425781 646.574219 C 489.523438 647.023438 488.25 647.25 487.273438 646.875 C 486.074219 646.5 484.273438 645.148438 483.824219 643.949219 C 483.300781 642.675781 483.675781 640.5 484.273438 639.375 C 484.800781 638.476562 485.851562 637.800781 486.824219 637.5 C 487.726562 637.199219 489 637.199219 489.898438 637.5 C 490.875 637.800781 491.851562 638.550781 492.375 639.375 C 492.976562 640.199219 493.351562 641.398438 493.199219 642.375 C 493.050781 643.648438 492.523438 644.851562 490.875 646.351562 C 485.851562 650.851562 458.25 663.601562 452.101562 664.648438 C 450.375 664.949219 449.550781 664.800781 448.5 664.273438 C 447.523438 663.824219 446.476562 662.699219 446.101562 661.648438 C 445.648438 660.601562 445.648438 659.101562 446.023438 658.050781 C 446.398438 657 448.351562 655.273438 448.351562 655.273438 "/></clipPath></defs><g id="791a81e6ba"><path style=" stroke:none;fill-rule:evenodd;fill:#c9c9c9;fill-opacity:1;" d="M 407.375 32.976562 C 394.457031 78.890625 383.617188 137.773438 389.441406 195.402344 C 378.5625 195.488281 375.953125 188.394531 365.902344 193.167969 C 344.652344 184.417969 327.132812 166.8125 306.5 148.355469 C 298.253906 140.980469 291.199219 131.824219 280.71875 122.59375 C 272.96875 115.753906 255.527344 106.933594 252.695312 99.066406 C 250.441406 92.800781 253.21875 74 256.058594 57.617188 C 259.339844 38.695312 260.730469 23.203125 267.265625 12.804688 C 314.035156 19.945312 367.765625 32.148438 407.375 32.976562 M 325.554688 80.019531 C 327.898438 76.285156 324.820312 70.015625 319.945312 69.941406 C 316.160156 72.800781 319.542969 80.359375 325.554688 80.019531 M 339.003906 103.546875 C 343.492188 103.925781 344.019531 100.339844 343.488281 95.703125 C 338.78125 95.023438 337.546875 101.535156 339.003906 103.546875 "/><path style=" stroke:none;fill-rule:evenodd;fill:#dddddd;fill-opacity:1;" d="M 457.816406 25.136719 C 450.695312 86.96875 437.660156 144.792969 428.675781 201.003906 C 420.660156 201.304688 420.621094 200.035156 414.101562 199.882812 C 421.28125 141.675781 430.097656 88.691406 441 36.335938 C 438.878906 32.109375 435.242188 29.390625 430.910156 27.375 C 431.382812 11.386719 452.144531 18.671875 457.816406 25.136719 "/><path style=" stroke:none;fill-rule:evenodd;fill:#dddddd;fill-opacity:1;" d="M 475.75 32.96875 C 474.53125 38.761719 469.742188 35.1875 464.542969 35.210938 C 466.601562 32.789062 471.144531 32.851562 475.75 32.96875 "/><path style=" stroke:none;fill-rule:evenodd;fill:#c9c9c9;fill-opacity:1;" d="M 429.792969 34.09375 C 432.0625 61.960938 424.269531 90.921875 419.707031 120.347656 C 416.273438 142.472656 411.679688 172.523438 406.253906 197.644531 C 393.5625 198.296875 394.214844 182.367188 393.925781 169.636719 C 393.210938 138.214844 398.335938 109.914062 401.769531 84.503906 C 404.933594 61.125 404.390625 33.941406 429.792969 34.09375 "/><path style=" stroke:none;fill-rule:evenodd;fill:#000000;fill-opacity:1;" d="M 319.945312 69.941406 C 324.820312 70.019531 327.898438 76.285156 325.554688 80.019531 C 319.542969 80.359375 316.160156 72.800781 319.945312 69.941406 "/><path style=" stroke:none;fill-rule:evenodd;fill:#000000;fill-opacity:1;" d="M 343.488281 95.699219 C 344.019531 100.339844 343.492188 103.925781 339.003906 103.546875 C 337.546875 101.527344 338.78125 95.023438 343.488281 95.699219 "/><path style=" stroke:none;fill-rule:evenodd;fill:#000000;fill-opacity:1;" d="M 506.007812 121.46875 L 512.742188 121.46875 C 512.886719 124.234375 512.90625 126.867188 511.621094 128.191406 C 506.511719 128.402344 504.082031 125.277344 506.007812 121.46875 "/><path style=" stroke:none;fill-rule:evenodd;fill:#000000;fill-opacity:1;" d="M 512.742188 139.386719 C 516.390625 139.097656 518.132812 140.722656 518.34375 143.871094 C 516.207031 144.351562 516.316406 147.070312 512.742188 146.117188 C 512.398438 143.496094 510.542969 141.480469 512.742188 139.386719 "/><path style=" stroke:none;fill-rule:evenodd;fill:#dddddd;fill-opacity:1;" d="M 472.386719 213.328125 C 439.597656 212.6875 399.824219 210.699219 367.027344 205.484375 C 373.128906 197.53125 387.730469 202.9375 395.046875 206.605469 C 416.613281 205.195312 448.300781 208.296875 472.386719 213.328125 "/><path style=" stroke:none;fill-rule:evenodd;fill:#c9c9c9;fill-opacity:1;" d="M 480.230469 224.527344 C 505.167969 264.582031 538.820312 295.921875 562.054688 337.671875 C 528.285156 348.859375 485.933594 341.082031 451.089844 341.03125 C 383.164062 340.9375 319.980469 319.152344 257.179688 307.425781 C 252.835938 303.546875 245 303.167969 240.367188 299.582031 C 278.417969 270.023438 317.832031 241.824219 355.816406 212.207031 C 400.269531 216.722656 436.46875 217.578125 480.230469 224.527344 M 396.167969 277.179688 C 397.984375 278.859375 404.4375 278.859375 406.257812 277.179688 C 407.574219 270.015625 394.574219 269.507812 396.167969 277.179688 M 407.375 289.503906 C 407.585938 292.648438 409.324219 294.277344 412.980469 293.980469 C 412.164062 290.925781 415.207031 291.726562 415.226562 289.503906 C 413.855469 289.375 412.570312 289.164062 412.980469 287.257812 C 410.195312 287.089844 409.507812 289.023438 407.375 289.503906 "/><path style=" stroke:none;fill-rule:evenodd;fill:#000000;fill-opacity:1;" d="M 406.257812 277.179688 C 404.4375 278.859375 397.984375 278.859375 396.167969 277.179688 C 394.574219 269.507812 407.574219 270.015625 406.257812 277.179688 "/><path style=" stroke:none;fill-rule:evenodd;fill:#000000;fill-opacity:1;" d="M 412.980469 287.257812 C 412.570312 289.167969 413.855469 289.375 415.222656 289.503906 C 415.207031 291.726562 412.164062 290.925781 412.980469 293.980469 C 409.324219 294.277344 407.585938 292.652344 407.375 289.503906 C 409.503906 289.023438 410.195312 287.089844 412.980469 287.257812 "/><path style=" stroke:none;fill-rule:evenodd;fill:#dddddd;fill-opacity:1;" d="M 584.472656 339.910156 C 583.597656 413.34375 572.542969 497.023438 562.050781 575.160156 C 559.410156 594.882812 553.671875 617.394531 547.488281 636.773438 C 533.859375 679.445312 521.652344 710.664062 492.5625 743.191406 C 478.984375 758.371094 461 774.992188 444.363281 782.394531 C 412.957031 796.382812 367.683594 802.234375 331.15625 798.078125 C 260.417969 790.03125 212.53125 745.671875 198.894531 679.335938 C 192.863281 650.003906 197.25 620.425781 197.769531 587.476562 C 198.289062 554.878906 197.6875 521.011719 201.136719 490.023438 C 208.570312 423.1875 214 371.925781 223.554688 305.1875 C 224.136719 304.753906 225.214844 299.746094 225.792969 302.941406 C 258.972656 317.957031 298.742188 319.9375 335.640625 328.710938 C 344.34375 330.777344 351.597656 334.746094 360.296875 336.550781 C 385.15625 341.699219 410.625 347.230469 438.761719 347.75 C 488.277344 348.664062 543.835938 354.246094 584.472656 339.910156 M 248.210938 525.867188 C 240.832031 561.65625 249.515625 601.296875 268.390625 628.925781 C 278.078125 643.117188 304.214844 661.480469 321.066406 667.011719 C 390.960938 689.964844 473.082031 640.089844 488.074219 575.160156 C 497.734375 533.363281 485.996094 476.433594 463.421875 454.175781 C 456.496094 447.347656 444.265625 441.054688 432.03125 434.011719 C 422.019531 428.238281 412.105469 420.605469 404.015625 417.207031 C 374.453125 404.789062 324.378906 410.445312 296.410156 427.285156 C 274.988281 452.835938 256.023438 487.964844 248.210938 525.867188 "/><path style=" stroke:none;fill-rule:evenodd;fill:#000000;fill-opacity:1;" d="M 296.410156 427.285156 C 324.378906 410.449219 374.453125 404.785156 404.015625 417.210938 C 412.105469 420.601562 422.019531 428.238281 432.03125 434.011719 C 444.265625 441.050781 456.5 447.34375 463.421875 454.171875 C 486 476.433594 497.738281 533.363281 488.074219 575.160156 C 473.082031 640.089844 390.960938 689.964844 321.066406 667.011719 C 304.214844 661.480469 278.078125 643.117188 268.390625 628.925781 C 249.515625 601.296875 240.832031 561.65625 248.210938 525.867188 C 256.023438 487.964844 274.988281 452.832031 296.410156 427.285156 M 271.75 473.21875 C 266.222656 486.160156 255.15625 513.050781 252.695312 525.867188 C 239.351562 595.414062 283.265625 654.757812 339.003906 664.777344 C 387.609375 673.507812 438.425781 644.085938 457.8125 622.203125 C 491.496094 584.195312 495.757812 491.164062 456.695312 456.414062 C 445.46875 446.429688 422.203125 434.910156 408.496094 427.285156 C 392.644531 418.480469 368.917969 415.871094 345.726562 417.210938 C 306.132812 419.484375 283.933594 444.6875 271.75 473.21875 "/><path style=" stroke:none;fill-rule:evenodd;fill:#ffe000;fill-opacity:1;" d="M 345.730469 417.207031 C 368.917969 415.871094 392.644531 418.480469 408.496094 427.285156 C 422.207031 434.910156 445.46875 446.429688 456.695312 456.410156 C 495.757812 491.164062 491.496094 584.191406 457.816406 622.203125 C 438.429688 644.085938 387.609375 673.507812 339.003906 664.773438 C 283.265625 654.757812 239.351562 595.414062 252.695312 525.867188 C 255.15625 513.046875 266.222656 486.160156 271.75 473.21875 C 283.933594 444.6875 306.136719 419.484375 345.730469 417.207031 M 347.96875 447.449219 C 352.640625 464.167969 347.773438 490.199219 352.453125 511.300781 C 361.214844 513.375 370.957031 514.472656 380.476562 515.78125 C 387.4375 497.9375 398.050781 477.488281 407.375 458.65625 C 389.574219 450.648438 366.414062 439.554688 347.96875 447.449219 M 347.96875 547.152344 C 345.644531 551.917969 342.667969 556.039062 343.488281 563.953125 C 351.445312 575.726562 376.828125 572.96875 370.386719 553.867188 C 368.230469 551.175781 362.027344 552.523438 363.664062 546.03125 C 358.140625 544.132812 353.300781 545.933594 347.96875 547.152344 M 321.066406 562.832031 C 303.503906 567.265625 282.304688 572.425781 263.90625 575.15625 C 272.105469 587.867188 280.085938 600.804688 285.199219 616.605469 C 300.988281 614.792969 309.765625 599.402344 326.675781 595.320312 C 326.082031 583.214844 322.226562 574.375 321.066406 562.832031 M 401.773438 603.160156 C 398.179688 597.796875 394.136719 586.582031 388.324219 585.242188 C 381.589844 583.683594 361.019531 593.277344 359.179688 597.558594 C 366.375 613.730469 367.109375 630.058594 372.628906 643.488281 C 390.308594 641.738281 395.484375 627.496094 411.859375 624.445312 C 413.503906 617.332031 406.789062 610.65625 401.773438 603.160156 "/><path style=" stroke:none;fill-rule:evenodd;fill:#000000;fill-opacity:1;" d="M 407.375 458.65625 C 398.046875 477.488281 387.4375 497.9375 380.476562 515.785156 C 370.957031 514.472656 361.214844 513.378906 352.453125 511.300781 C 347.773438 490.199219 352.640625 464.171875 347.96875 447.453125 C 366.410156 439.558594 389.574219 450.648438 407.375 458.65625 M 356.9375 504.585938 C 365.035156 506.429688 370.738281 509.835938 377.113281 507.941406 C 382.484375 491.992188 393.800781 476.125 397.289062 462.015625 C 387.875 453.871094 370.609375 453.578125 355.816406 450.808594 C 356.457031 466.683594 355.121094 485.039062 356.9375 504.585938 "/><path style=" stroke:none;fill-rule:evenodd;fill:#ff3600;fill-opacity:1;" d="M 355.816406 450.808594 C 370.609375 453.578125 387.875 453.871094 397.289062 462.015625 C 393.800781 476.125 382.484375 491.992188 377.113281 507.941406 C 370.738281 509.835938 365.035156 506.429688 356.9375 504.585938 C 355.121094 485.039062 356.457031 466.683594 355.816406 450.808594 "/><path style=" stroke:none;fill-rule:evenodd;fill:#000000;fill-opacity:1;" d="M 363.664062 546.027344 C 362.023438 552.523438 368.226562 551.179688 370.386719 553.871094 C 376.824219 572.972656 351.445312 575.726562 343.488281 563.953125 C 342.667969 556.042969 345.644531 551.921875 347.96875 547.152344 C 353.300781 545.933594 358.136719 544.136719 363.664062 546.027344 M 350.210938 561.714844 C 353.921875 563.601562 359.167969 566.101562 363.664062 563.953125 C 364.070312 556.453125 357.957031 555.464844 353.578125 552.753906 C 350.230469 553.519531 349.816406 557.214844 350.210938 561.714844 "/><path style=" stroke:none;fill-rule:evenodd;fill:#ff3600;fill-opacity:1;" d="M 353.578125 552.753906 C 357.957031 555.464844 364.070312 556.453125 363.664062 563.953125 C 359.167969 566.101562 353.921875 563.601562 350.210938 561.714844 C 349.816406 557.214844 350.230469 553.519531 353.578125 552.753906 "/><path style=" stroke:none;fill-rule:evenodd;fill:#000000;fill-opacity:1;" d="M 326.675781 595.320312 C 309.761719 599.402344 300.988281 614.792969 285.199219 616.605469 C 280.085938 600.808594 272.105469 587.867188 263.90625 575.160156 C 282.304688 572.429688 303.503906 567.269531 321.066406 562.832031 C 322.222656 574.378906 326.082031 583.21875 326.675781 595.320312 M 275.117188 578.519531 C 279.464844 588.734375 284.714844 598.050781 288.566406 608.765625 C 300.957031 605.464844 306.683594 595.511719 318.828125 591.957031 C 318.976562 583.222656 316.074219 577.53125 313.222656 571.792969 C 296.507812 572.097656 289.871094 578.171875 275.117188 578.519531 "/><path style=" stroke:none;fill-rule:evenodd;fill:#ff3600;fill-opacity:1;" d="M 313.222656 571.792969 C 316.074219 577.53125 318.976562 583.222656 318.828125 591.957031 C 306.683594 595.511719 300.957031 605.464844 288.566406 608.765625 C 284.714844 598.050781 279.464844 588.734375 275.117188 578.519531 C 289.871094 578.171875 296.507812 572.097656 313.222656 571.792969 "/><path style=" stroke:none;fill-rule:evenodd;fill:#000000;fill-opacity:1;" d="M 411.859375 624.445312 C 395.480469 627.496094 390.308594 641.738281 372.628906 643.488281 C 367.109375 630.058594 366.375 613.734375 359.179688 597.5625 C 361.019531 593.277344 381.585938 583.6875 388.320312 585.242188 C 394.136719 586.582031 398.179688 597.796875 401.773438 603.160156 C 406.789062 610.65625 413.503906 617.332031 411.859375 624.445312 M 386.078125 593.082031 C 378.460938 591.054688 374.546875 597.796875 367.027344 598.683594 C 370.972656 612.230469 373.171875 622.730469 375.992188 635.648438 C 387.339844 631.679688 397.027344 626.050781 404.015625 617.726562 C 396.621094 612.335938 395.316406 595.53125 386.078125 593.082031 "/><path style=" stroke:none;fill-rule:evenodd;fill:#ff3600;fill-opacity:1;" d="M 404.015625 617.726562 C 397.027344 626.050781 387.339844 631.679688 375.992188 635.648438 C 373.171875 622.730469 370.972656 612.230469 367.027344 598.683594 C 374.546875 597.796875 378.460938 591.054688 386.078125 593.082031 C 395.316406 595.53125 396.621094 612.335938 404.015625 617.726562 "/><g clip-rule="nonzero" clip-path="url(#f6d582b6ba)"><path style=" stroke:none;fill-rule:evenodd;fill:#000000;fill-opacity:1;" d="M 410.742188 18.410156 C 416.601562 16.054688 415.917969 7.152344 421.945312 4.96875 C 436.371094 8.046875 449.5 3.710938 457.816406 8.328125 C 464.980469 12.304688 467.425781 24.976562 480.230469 21.765625 C 484.308594 25.164062 485.359375 31.585938 486.953125 37.457031 C 540.21875 37.390625 580.925781 44.832031 631.550781 43.058594 C 637.589844 64.738281 631.980469 87.152344 629.308594 108.027344 C 627.546875 121.824219 628.035156 136.023438 624.828125 148.355469 C 624.070312 151.246094 618.917969 166.582031 615.863281 170.753906 C 610.753906 177.71875 596.675781 179.910156 586.71875 184.199219 C 557.15625 196.929688 527.964844 212.042969 494.808594 217.804688 C 518.507812 268.046875 554.808594 305.703125 596.808594 337.671875 C 593.539062 355.902344 593.140625 377.425781 592.316406 402.644531 C 591.195312 437.15625 588.824219 473.554688 585.597656 510.183594 C 582.765625 542.277344 574.113281 575.488281 566.542969 607.644531 C 546.652344 692.066406 514.519531 754.964844 449.96875 793.601562 C 386.667969 816.378906 297.746094 818.050781 251.578125 781.277344 C 197.792969 738.445312 168.675781 661.554688 177.597656 565.074219 C 183.617188 499.988281 181.40625 424.664062 191.050781 357.832031 C 195.316406 328.242188 196.414062 306.0625 213.46875 290.621094 C 218.433594 288.347656 221.648438 292.039062 229.160156 289.503906 C 239 286.171875 250.546875 273.976562 260.542969 267.097656 C 287.679688 248.421875 321.511719 224.1875 345.726562 203.246094 C 327.179688 190.191406 312.175781 172.488281 295.289062 153.957031 C 288.132812 146.09375 279.609375 136.945312 270.632812 129.308594 C 259.328125 119.695312 247.304688 112.859375 240.367188 101.300781 C 238.714844 75.253906 245.570312 50.355469 251.578125 21.765625 C 253.402344 13.070312 252.453125 2.175781 260.542969 0.484375 C 270.363281 -1.5625 287.566406 4.117188 299.773438 6.089844 C 327.769531 10.59375 378.007812 11.078125 410.742188 18.410156 M 267.265625 12.804688 C 260.730469 23.203125 259.339844 38.695312 256.058594 57.617188 C 253.21875 73.996094 250.441406 92.800781 252.695312 99.066406 C 255.527344 106.929688 272.96875 115.753906 280.71875 122.59375 C 291.199219 131.824219 298.253906 140.980469 306.5 148.355469 C 327.132812 166.808594 344.652344 184.417969 365.902344 193.164062 C 375.953125 188.394531 378.5625 195.488281 389.441406 195.402344 C 383.617188 137.765625 394.457031 78.886719 407.375 32.972656 C 367.765625 32.148438 314.035156 19.949219 267.265625 12.804688 M 430.910156 27.371094 C 435.242188 29.394531 438.878906 32.105469 441 36.332031 C 430.097656 88.691406 421.28125 141.675781 414.101562 199.882812 C 420.621094 200.035156 420.660156 201.308594 428.675781 201.003906 C 437.660156 144.792969 450.695312 86.964844 457.816406 25.128906 C 452.148438 18.671875 431.382812 11.386719 430.910156 27.371094 M 464.542969 35.210938 C 469.742188 35.1875 474.53125 38.765625 475.75 32.972656 C 471.144531 32.851562 466.597656 32.789062 464.542969 35.210938 M 401.773438 84.503906 C 398.339844 109.914062 393.214844 138.214844 393.925781 169.636719 C 394.214844 182.367188 393.5625 198.296875 406.257812 197.644531 C 411.679688 172.519531 416.273438 142.46875 419.707031 120.347656 C 424.269531 90.921875 432.0625 61.960938 429.792969 34.09375 C 404.394531 33.941406 404.933594 61.125 401.773438 84.503906 M 461.175781 48.65625 C 452.257812 99.359375 442.03125 151.3125 436.519531 202.121094 C 455.726562 204.453125 465.902344 199.214844 479.109375 207.722656 C 478.507812 203.765625 480.058594 201.953125 482.476562 201.003906 C 498.355469 209.023438 510.324219 199.804688 526.1875 195.402344 C 536.011719 192.679688 546.773438 189.882812 555.332031 186.441406 C 568.804688 181.015625 605.753906 168.464844 610.25 156.195312 C 619.777344 130.230469 619.375 90.027344 623.707031 57.617188 C 569.351562 51.523438 523.277344 52.007812 461.175781 48.65625 M 395.046875 206.601562 C 387.730469 202.9375 373.128906 197.53125 367.027344 205.484375 C 399.824219 210.703125 439.597656 212.683594 472.386719 213.324219 C 448.300781 208.292969 416.613281 205.199219 395.046875 206.601562 M 355.816406 212.207031 C 317.832031 241.828125 278.417969 270.023438 240.367188 299.582031 C 245 303.167969 252.835938 303.546875 257.179688 307.425781 C 319.980469 319.152344 383.164062 340.9375 451.089844 341.03125 C 485.933594 341.082031 528.285156 348.859375 562.054688 337.671875 C 538.820312 295.925781 505.167969 264.582031 480.230469 224.527344 C 436.46875 217.578125 400.269531 216.726562 355.816406 212.207031 M 438.761719 347.75 C 410.625 347.230469 385.15625 341.699219 360.296875 336.550781 C 351.597656 334.742188 344.34375 330.773438 335.640625 328.707031 C 298.742188 319.9375 258.972656 317.957031 225.792969 302.941406 C 225.214844 299.742188 224.136719 304.75 223.554688 305.1875 C 214 371.929688 208.570312 423.1875 201.136719 490.023438 C 197.6875 521.011719 198.289062 554.878906 197.769531 587.476562 C 197.25 620.421875 192.863281 650.003906 198.894531 679.335938 C 212.53125 745.671875 260.417969 790.03125 331.15625 798.078125 C 367.683594 802.234375 412.957031 796.382812 444.363281 782.394531 C 461 774.992188 478.984375 758.371094 492.5625 743.191406 C 521.652344 710.664062 533.859375 679.445312 547.488281 636.769531 C 553.671875 617.394531 559.40625 594.882812 562.054688 575.15625 C 572.542969 497.023438 583.597656 413.34375 584.472656 339.910156 C 543.835938 354.246094 488.277344 348.664062 438.761719 347.75 "/></g><path style=" stroke:none;fill-rule:evenodd;fill:#c9c9c9;fill-opacity:1;" d="M 623.707031 57.617188 C 619.375 90.023438 619.773438 130.230469 610.25 156.195312 C 605.753906 168.460938 568.800781 181.015625 555.328125 186.441406 C 546.773438 189.878906 536.011719 192.683594 526.1875 195.40625 C 510.324219 199.804688 498.355469 209.023438 482.476562 201.003906 C 480.058594 201.953125 478.507812 203.765625 479.109375 207.722656 C 465.902344 199.214844 455.726562 204.453125 436.519531 202.121094 C 442.03125 151.3125 452.257812 99.359375 461.175781 48.660156 C 523.277344 52.007812 569.351562 51.527344 623.707031 57.617188 M 511.621094 128.191406 C 512.90625 126.871094 512.886719 124.230469 512.742188 121.472656 L 506.007812 121.472656 C 504.082031 125.277344 506.511719 128.402344 511.621094 128.191406 M 512.742188 146.117188 C 516.316406 147.074219 516.207031 144.351562 518.34375 143.871094 C 518.132812 140.722656 516.390625 139.101562 512.742188 139.390625 C 510.542969 141.484375 512.394531 143.496094 512.742188 146.117188 "/><g clip-rule="nonzero" clip-path="url(#f39f891d55)"><g clip-rule="nonzero" clip-path="url(#2afd0ce28b)"><path style=" stroke:none;fill-rule:nonzero;fill:#dcdddc;fill-opacity:1;" d="M 414.074219 433.875 L 481.050781 433.875 L 481.050781 508.4375 L 414.074219 508.4375 Z M 414.074219 433.875 "/></g></g><g clip-rule="nonzero" clip-path="url(#38a759ce59)"><g clip-rule="nonzero" clip-path="url(#4b76c6c97e)"><path style=" stroke:none;fill-rule:nonzero;fill:#dcdddc;fill-opacity:1;" d="M 213.542969 361.550781 L 565.226562 361.550781 L 565.226562 718.433594 L 213.542969 718.433594 Z M 213.542969 361.550781 "/></g></g><g clip-rule="nonzero" clip-path="url(#6789705513)"><g clip-rule="nonzero" clip-path="url(#ef7f974977)"><path style=" stroke:none;fill-rule:nonzero;fill:#000000;fill-opacity:1;" d="M 233.25 347.476562 L 256.125 347.476562 L 256.125 391.347656 L 233.25 391.347656 Z M 233.25 347.476562 "/></g></g><g clip-rule="nonzero" clip-path="url(#5793394c0a)"><g clip-rule="nonzero" clip-path="url(#6225a8b2df)"><path style=" stroke:none;fill-rule:nonzero;fill:#000000;fill-opacity:1;" d="M 233.550781 378.074219 L 251.25 378.074219 L 251.25 402.757812 L 233.550781 402.757812 Z M 233.550781 378.074219 "/></g></g><g clip-rule="nonzero" clip-path="url(#63ee66299b)"><g clip-rule="nonzero" clip-path="url(#cbea27ea3d)"><path style=" stroke:none;fill-rule:nonzero;fill:#000000;fill-opacity:1;" d="M 238.199219 400.273438 L 281.097656 400.273438 L 281.097656 430.949219 L 238.199219 430.949219 Z M 238.199219 400.273438 "/></g></g><g clip-rule="nonzero" clip-path="url(#05d2fb0fde)"><g clip-rule="nonzero" clip-path="url(#d4fc79752f)"><path style=" stroke:none;fill-rule:nonzero;fill:#000000;fill-opacity:1;" d="M 275.851562 350.925781 L 295.800781 350.925781 L 295.800781 381.707031 L 275.851562 381.707031 Z M 275.851562 350.925781 "/></g></g><g clip-rule="nonzero" clip-path="url(#2d4bf4fe8d)"><g clip-rule="nonzero" clip-path="url(#b4786cebf2)"><path style=" stroke:none;fill-rule:nonzero;fill:#000000;fill-opacity:1;" d="M 231.601562 372.148438 L 292.578125 372.148438 L 292.578125 428.101562 L 231.601562 428.101562 Z M 231.601562 372.148438 "/></g></g><g clip-rule="nonzero" clip-path="url(#5105a7bc01)"><g clip-rule="nonzero" clip-path="url(#c593d3ecfc)"><path style=" stroke:none;fill-rule:nonzero;fill:#000000;fill-opacity:1;" d="M 345.824219 394.425781 L 369.898438 394.425781 L 369.898438 450.476562 L 345.824219 450.476562 Z M 345.824219 394.425781 "/></g></g><g clip-rule="nonzero" clip-path="url(#ec0aa5edcd)"><g clip-rule="nonzero" clip-path="url(#d003ed3f2f)"><path style=" stroke:none;fill-rule:nonzero;fill:#000000;fill-opacity:1;" d="M 354.375 389.851562 L 399.898438 389.851562 L 399.898438 456.179688 L 354.375 456.179688 Z M 354.375 389.851562 "/></g></g><g clip-rule="nonzero" clip-path="url(#e7e228744b)"><g clip-rule="nonzero" clip-path="url(#bb0abdbafc)"><path style=" stroke:none;fill-rule:nonzero;fill:#000000;fill-opacity:1;" d="M 394.875 397.351562 L 444.601562 397.351562 L 444.601562 470.1875 L 394.875 470.1875 Z M 394.875 397.351562 "/></g></g><g clip-rule="nonzero" clip-path="url(#9e68d5a6ec)"><g clip-rule="nonzero" clip-path="url(#eafc01e1e3)"><path style=" stroke:none;fill-rule:nonzero;fill:#000000;fill-opacity:1;" d="M 428.324219 400.875 L 487.800781 400.875 L 487.800781 478.007812 L 428.324219 478.007812 Z M 428.324219 400.875 "/></g></g><g clip-rule="nonzero" clip-path="url(#6f09aa7e2a)"><g clip-rule="nonzero" clip-path="url(#1b7c902800)"><path style=" stroke:none;fill-rule:nonzero;fill:#000000;fill-opacity:1;" d="M 489.148438 413.699219 L 539.550781 413.699219 L 539.550781 474.730469 L 489.148438 474.730469 Z M 489.148438 413.699219 "/></g></g><g clip-rule="nonzero" clip-path="url(#0f6a93f767)"><g clip-rule="nonzero" clip-path="url(#953b488bff)"><path style=" stroke:none;fill-rule:nonzero;fill:#000000;fill-opacity:1;" d="M 525.300781 385.050781 L 553.125 385.050781 L 553.125 465.480469 L 525.300781 465.480469 Z M 525.300781 385.050781 "/></g></g><g clip-rule="nonzero" clip-path="url(#98bd2c4495)"><g clip-rule="nonzero" clip-path="url(#c95c73fa7a)"><path style=" stroke:none;fill-rule:nonzero;fill:#000000;fill-opacity:1;" d="M 232.5 389.699219 L 251.398438 389.699219 L 251.398438 412.292969 L 232.5 412.292969 Z M 232.5 389.699219 "/></g></g><g clip-rule="nonzero" clip-path="url(#55ea3a3d08)"><g clip-rule="nonzero" clip-path="url(#62ecfa3c51)"><path style=" stroke:none;fill-rule:nonzero;fill:#000000;fill-opacity:1;" d="M 284.550781 488.550781 L 353.101562 488.550781 L 353.101562 566.738281 L 284.550781 566.738281 Z M 284.550781 488.550781 "/></g></g><g clip-rule="nonzero" clip-path="url(#d9939ec6e4)"><g clip-rule="nonzero" clip-path="url(#e4cad187a6)"><path style=" stroke:none;fill-rule:nonzero;fill:#000000;fill-opacity:1;" d="M 361.425781 503.476562 L 396.148438 503.476562 L 396.148438 571.296875 L 361.425781 571.296875 Z M 361.425781 503.476562 "/></g></g><g clip-rule="nonzero" clip-path="url(#588402ce5a)"><g clip-rule="nonzero" clip-path="url(#39a00f18b9)"><path style=" stroke:none;fill-rule:nonzero;fill:#000000;fill-opacity:1;" d="M 357.601562 512.925781 L 419.023438 512.925781 L 419.023438 601.464844 L 357.601562 601.464844 Z M 357.601562 512.925781 "/></g></g><g clip-rule="nonzero" clip-path="url(#3dc665fd45)"><g clip-rule="nonzero" clip-path="url(#91ca5d1a17)"><path style=" stroke:none;fill-rule:nonzero;fill:#000000;fill-opacity:1;" d="M 429.523438 501.300781 L 447.375 501.300781 L 447.375 569.5625 L 429.523438 569.5625 Z M 429.523438 501.300781 "/></g></g><g clip-rule="nonzero" clip-path="url(#3e357bc412)"><g clip-rule="nonzero" clip-path="url(#97e4917f9a)"><path style=" stroke:none;fill-rule:nonzero;fill:#000000;fill-opacity:1;" d="M 216.523438 591.675781 L 286.574219 591.675781 L 286.574219 668.292969 L 216.523438 668.292969 Z M 216.523438 591.675781 "/></g></g><g clip-rule="nonzero" clip-path="url(#b68df2df4f)"><g clip-rule="nonzero" clip-path="url(#9a745ae7d4)"><path style=" stroke:none;fill-rule:nonzero;fill:#000000;fill-opacity:1;" d="M 289.648438 625.351562 L 330.601562 625.351562 L 330.601562 674.296875 L 289.648438 674.296875 Z M 289.648438 625.351562 "/></g></g><g clip-rule="nonzero" clip-path="url(#ecf39a4073)"><g clip-rule="nonzero" clip-path="url(#fe71233667)"><path style=" stroke:none;fill-rule:nonzero;fill:#000000;fill-opacity:1;" d="M 321.523438 644.550781 L 346.574219 644.550781 L 346.574219 671.558594 L 321.523438 671.558594 Z M 321.523438 644.550781 "/></g></g><g clip-rule="nonzero" clip-path="url(#3c394f8099)"><g clip-rule="nonzero" clip-path="url(#d68bd5a4a8)"><path style=" stroke:none;fill-rule:nonzero;fill:#000000;fill-opacity:1;" d="M 351.074219 611.851562 L 377.925781 611.851562 L 377.925781 673.835938 L 351.074219 673.835938 Z M 351.074219 611.851562 "/></g></g><g clip-rule="nonzero" clip-path="url(#35ae177ecf)"><g clip-rule="nonzero" clip-path="url(#88f9b5813f)"><path style=" stroke:none;fill-rule:nonzero;fill:#000000;fill-opacity:1;" d="M 381.675781 619.875 L 403.726562 619.875 L 403.726562 684.214844 L 381.675781 684.214844 Z M 381.675781 619.875 "/></g></g><g clip-rule="nonzero" clip-path="url(#56485c2cf3)"><g clip-rule="nonzero" clip-path="url(#3da6d332bc)"><path style=" stroke:none;fill-rule:nonzero;fill:#000000;fill-opacity:1;" d="M 402.375 631.199219 L 442.949219 631.199219 L 442.949219 696.5 L 402.375 696.5 Z M 402.375 631.199219 "/></g></g><g clip-rule="nonzero" clip-path="url(#c934919ff2)"><g clip-rule="nonzero" clip-path="url(#629f023b49)"><path style=" stroke:none;fill-rule:nonzero;fill:#000000;fill-opacity:1;" d="M 457.125 613.351562 L 473.773438 613.351562 L 473.773438 707.070312 L 457.125 707.070312 Z M 457.125 613.351562 "/></g></g><g clip-rule="nonzero" clip-path="url(#d316cb0027)"><g clip-rule="nonzero" clip-path="url(#262a505261)"><path style=" stroke:none;fill-rule:nonzero;fill:#000000;fill-opacity:1;" d="M 443.023438 634.351562 L 496.226562 634.351562 L 496.226562 667.648438 L 443.023438 667.648438 Z M 443.023438 634.351562 "/></g></g></g></svg>