<svg xmlns="http://www.w3.org/2000/svg" xmlns:xlink="http://www.w3.org/1999/xlink" width="500" zoomAndPan="magnify" viewBox="0 0 375 374.999991" height="500" preserveAspectRatio="xMidYMid meet" version="1.2"><defs/><g id="6a2df97561"><path style=" stroke:none;fill-rule:nonzero;fill:#ffffff;fill-opacity:1;" d="M 276.933594 270.589844 C 203.195312 276.296875 142.351562 277.601562 68.457031 276.820312 C 47.445312 276.597656 23.21875 274.238281 11.058594 254.242188 C 4.597656 243.617188 3.046875 230.039062 2.351562 217.035156 C 0.378906 180.304688 3.679688 143.195312 12.070312 107.714844 C 16.113281 90.601562 22.050781 72.742188 34.585938 62.6875 C 46.6875 52.972656 62.378906 52.558594 77.070312 52.488281 C 156.601562 52.121094 236.921875 51.851562 314.542969 72.0625 C 332.527344 76.746094 352.050781 84 361.472656 102.480469 C 367.042969 113.417969 368.105469 126.597656 368.921875 139.285156 C 371.304688 176.382812 372.707031 213.566406 373.136719 250.761719 C 373.226562 258.308594 373.089844 266.511719 369.070312 272.425781 C 362.789062 281.660156 350.8125 280.648438 341.121094 283.984375 C 329.164062 288.097656 319.601562 300.5 317.351562 314.8125 C 320.144531 302.300781 316.742188 288.171875 308.777344 279.1875 C 300.808594 270.203125 292.496094 270.589844 277.976562 270.410156 C 277.726562 270.40625 277.484375 270.542969 277.230469 270.558594 "/><path style=" stroke:none;fill-rule:nonzero;fill:#100f0d;fill-opacity:1;" d="M 276.933594 269.441406 C 240.878906 272.222656 204.761719 274.160156 168.601562 275.105469 C 133.253906 276.023438 97.628906 276.835938 62.28125 275.535156 C 48.867188 275.042969 34.53125 273.273438 23.199219 265.476562 C 8.9375 255.65625 5.074219 238.527344 3.832031 222.257812 C 1.007812 185.34375 4.191406 147.648438 12.351562 111.574219 C 15.804688 96.3125 20.035156 79.570312 30.902344 67.722656 C 42.246094 55.355469 58.855469 53.800781 74.683594 53.652344 C 111.625 53.300781 148.640625 53.28125 185.550781 55.101562 C 222.992188 56.949219 260.417969 60.898438 297.050781 69.03125 C 311.976562 72.34375 327.730469 75.625 341.109375 83.355469 C 355.546875 91.703125 363.316406 104.921875 365.984375 121.179688 C 368.964844 139.355469 368.988281 158.292969 369.839844 176.660156 C 370.742188 196.003906 371.378906 215.355469 371.746094 234.710938 C 371.917969 243.703125 372.785156 253.109375 371.5 262.042969 C 370.210938 270.988281 365.246094 276.765625 356.566406 279.175781 C 350.617188 280.828125 344.335938 281.265625 338.625 283.734375 C 332.871094 286.21875 328 290.441406 324.273438 295.4375 C 320.078125 301.058594 317.429688 307.617188 316.246094 314.511719 C 316 315.941406 318.15625 316.578125 318.457031 315.117188 C 321.167969 302.007812 318.132812 287.003906 308.53125 277.246094 C 304.878906 273.539062 300.378906 271.171875 295.265625 270.21875 C 292.632812 269.722656 289.949219 269.53125 287.273438 269.425781 C 283.957031 269.292969 280.179688 268.800781 276.925781 269.453125 C 275.480469 269.746094 276.089844 271.957031 277.535156 271.667969 C 280.53125 271.0625 284.21875 271.59375 287.273438 271.71875 C 289.746094 271.820312 292.222656 271.972656 294.660156 272.429688 C 299.402344 273.3125 303.511719 275.410156 306.90625 278.867188 C 315.914062 288.03125 318.792969 302.199219 316.246094 314.511719 C 316.980469 314.710938 317.71875 314.914062 318.457031 315.117188 C 319.839844 307.0625 323.273438 299.453125 328.898438 293.460938 C 334.300781 287.703125 340.871094 284.847656 348.480469 283.277344 C 354.632812 282.011719 361.226562 281.085938 366.300781 277.066406 C 371.992188 272.554688 373.734375 265.347656 374.164062 258.417969 C 374.757812 248.789062 374.140625 238.996094 373.933594 229.363281 C 373.714844 219.429688 373.429688 209.496094 373.074219 199.566406 C 372.359375 179.464844 371.367188 159.363281 370.066406 139.285156 C 369.046875 123.539062 367.617188 106.835938 357.363281 94.042969 C 348.535156 83.019531 335.25 76.976562 322.027344 72.96875 C 286.503906 62.203125 248.769531 57.382812 211.863281 54.480469 C 172.875 51.414062 133.738281 51.15625 94.648438 51.273438 C 78.382812 51.324219 60.277344 49.546875 44.789062 55.566406 C 31.015625 60.921875 22.671875 72.859375 17.382812 86.15625 C 10.726562 102.882812 7.535156 121.273438 4.898438 139 C 2.070312 158.007812 0.644531 177.222656 0.648438 196.4375 C 0.660156 213.632812 0.261719 232.878906 7.113281 249.003906 C 12.335938 261.300781 22.574219 269.667969 35.148438 273.742188 C 49.242188 278.308594 64.367188 277.949219 78.996094 278.066406 C 98.207031 278.21875 117.421875 278.21875 136.628906 277.996094 C 173.789062 277.554688 210.933594 276.1875 248.015625 273.789062 C 257.660156 273.167969 267.300781 272.476562 276.933594 271.734375 C 278.398438 271.621094 278.410156 269.332031 276.933594 269.441406 "/><path style=" stroke:none;fill-rule:nonzero;fill:#100f0d;fill-opacity:1;" d="M 108.308594 58.550781 C 97.597656 58.375 86.886719 58.542969 76.1875 59.105469 C 66.992188 59.589844 57.027344 59.554688 48.164062 62.351562 C 40.28125 64.839844 35.085938 70.535156 30.773438 77.335938 C 25.519531 85.621094 21.441406 94.566406 18.425781 103.882812 C 18.113281 104.859375 19.648438 105.277344 19.964844 104.304688 C 22.792969 95.550781 26.578125 87.15625 31.410156 79.316406 C 36.492188 71.070312 42.464844 65.019531 52.21875 62.941406 C 60.964844 61.082031 70.269531 60.960938 79.175781 60.550781 C 88.878906 60.105469 98.59375 59.984375 108.308594 60.140625 C 109.332031 60.15625 109.332031 58.566406 108.308594 58.550781 "/><path style=" stroke:none;fill-rule:nonzero;fill:#100f0d;fill-opacity:1;" d="M 363.679688 237.480469 C 364.511719 249.90625 363.746094 264.515625 352.960938 272.773438 C 347.648438 276.835938 341.070312 277.003906 335.023438 279.285156 C 330.402344 281.03125 326.5 283.941406 323.355469 287.726562 C 322.707031 288.507812 323.824219 289.636719 324.480469 288.851562 C 329.183594 283.191406 335.003906 280.695312 342 278.988281 C 347.75 277.582031 352.859375 275.714844 356.96875 271.277344 C 365.425781 262.148438 366.054688 249.242188 365.269531 237.480469 C 365.203125 236.464844 363.613281 236.457031 363.679688 237.480469 "/><path style=" stroke:none;fill-rule:nonzero;fill:#100f0d;fill-opacity:1;" d="M 336.585938 89.214844 C 342.960938 92.941406 347.867188 98.472656 350.726562 105.289062 C 351.121094 106.214844 352.660156 105.808594 352.265625 104.867188 C 349.238281 97.652344 344.152344 91.792969 337.390625 87.839844 C 336.503906 87.324219 335.703125 88.695312 336.585938 89.214844 "/><path style=" stroke:none;fill-rule:nonzero;fill:#100f0d;fill-opacity:1;" d="M 30.601562 119.929688 C 26.832031 122.15625 23.90625 125.167969 21.800781 129.011719 C 22.292969 129.144531 22.789062 129.277344 23.28125 129.414062 C 23.261719 124.410156 19.625 120.496094 14.675781 119.96875 C 14.746094 120.492188 14.816406 121.011719 14.890625 121.53125 C 19.089844 120.160156 22.554688 117.78125 25.289062 114.304688 C 24.835938 114.117188 24.382812 113.929688 23.929688 113.742188 C 24.007812 118.234375 27.703125 121.660156 32.210938 121.257812 C 33.222656 121.164062 33.234375 119.574219 32.210938 119.664062 C 28.601562 119.988281 25.585938 117.398438 25.523438 113.742188 C 25.511719 113.117188 24.613281 112.609375 24.164062 113.179688 C 21.609375 116.433594 18.410156 118.710938 14.464844 119.996094 C 13.574219 120.289062 13.800781 121.464844 14.675781 121.558594 C 18.777344 121.996094 21.671875 125.328125 21.6875 129.414062 C 21.691406 130.183594 22.789062 130.515625 23.171875 129.8125 C 25.152344 126.203125 27.859375 123.398438 31.40625 121.300781 C 32.289062 120.78125 31.488281 119.40625 30.601562 119.929688 "/><g style="fill:#000000;fill-opacity:1;"><g transform="translate(127.187399, 121.440702)"><path style="stroke:none" d="M 17.25 1.3125 C 13.207031 1.3125 9.78125 0.0976562 6.96875 -2.328125 C 3.988281 -4.898438 2.5 -8.222656 2.5 -12.296875 C 2.5 -17.253906 3.96875 -21.765625 6.90625 -25.828125 C 10.1875 -30.328125 14.273438 -32.578125 19.171875 -32.578125 C 23.890625 -32.578125 27.394531 -31.515625 29.6875 -29.390625 C 32.082031 -27.179688 33.28125 -23.695312 33.28125 -18.9375 C 33.28125 -13.976562 31.929688 -9.507812 29.234375 -5.53125 C 26.140625 -0.96875 22.144531 1.3125 17.25 1.3125 Z M 19.171875 -28.171875 C 15.660156 -28.171875 12.6875 -26.421875 10.25 -22.921875 C 8 -19.710938 6.875 -16.171875 6.875 -12.296875 C 6.875 -9.523438 7.898438 -7.273438 9.953125 -5.546875 C 11.921875 -3.910156 14.351562 -3.09375 17.25 -3.09375 C 20.726562 -3.09375 23.597656 -4.847656 25.859375 -8.359375 C 27.878906 -11.503906 28.890625 -15.03125 28.890625 -18.9375 C 28.890625 -22.363281 28.125 -24.773438 26.59375 -26.171875 C 25.132812 -27.503906 22.660156 -28.171875 19.171875 -28.171875 Z M 19.171875 -28.171875 "/></g></g><g style="fill:#000000;fill-opacity:1;"><g transform="translate(162.333947, 121.440702)"><path style="stroke:none" d="M 20.984375 1.328125 C 19.960938 1.328125 19.296875 0.785156 18.984375 -0.296875 C 18.648438 -1.472656 18.347656 -3.144531 18.078125 -5.3125 C 17.816406 -7.382812 17.6875 -9.085938 17.6875 -10.421875 C 17.6875 -10.796875 17.703125 -11.363281 17.734375 -12.125 C 17.773438 -12.882812 17.796875 -13.453125 17.796875 -13.828125 C 17.796875 -16.515625 17.125 -17.859375 15.78125 -17.859375 C 13.957031 -17.859375 12.332031 -17.035156 10.90625 -15.390625 C 10.164062 -14.546875 9.160156 -12.9375 7.890625 -10.5625 C 7.890625 -5.09375 7.660156 -1.859375 7.203125 -0.859375 C 6.796875 0.0234375 6.171875 0.46875 5.328125 0.46875 C 4.742188 0.46875 4.226562 0.269531 3.78125 -0.125 C 3.34375 -0.53125 3.125 -1.019531 3.125 -1.59375 C 3.125 -1.789062 3.1875 -2.101562 3.3125 -2.53125 C 3.425781 -2.894531 3.503906 -3.941406 3.546875 -5.671875 L 3.609375 -8.859375 L 3.671875 -24.65625 C 3.773438 -26.4375 3.828125 -27.632812 3.828125 -28.25 C 3.828125 -28.976562 3.757812 -29.664062 3.625 -30.3125 C 3.488281 -30.96875 3.421875 -31.648438 3.421875 -32.359375 C 3.421875 -32.960938 3.628906 -33.457031 4.046875 -33.84375 C 4.460938 -34.238281 4.96875 -34.4375 5.5625 -34.4375 C 6.738281 -34.4375 7.425781 -33.804688 7.625 -32.546875 C 7.851562 -31.160156 7.96875 -29.90625 7.96875 -28.78125 C 7.96875 -27.28125 7.921875 -25.710938 7.828125 -24.078125 C 7.742188 -22.515625 7.707031 -20.945312 7.71875 -19.375 L 7.734375 -17.484375 C 8.910156 -19.054688 10.164062 -20.234375 11.5 -21.015625 C 12.84375 -21.796875 14.269531 -22.1875 15.78125 -22.1875 C 18.15625 -22.1875 19.789062 -21.410156 20.6875 -19.859375 C 21.3125 -18.773438 21.664062 -16.941406 21.75 -14.359375 L 21.921875 -10.25 L 22.359375 -5.78125 C 22.554688 -4.101562 22.800781 -2.628906 23.09375 -1.359375 C 23.144531 -1.109375 23.171875 -0.898438 23.171875 -0.734375 C 23.171875 -0.140625 22.957031 0.347656 22.53125 0.734375 C 22.101562 1.128906 21.585938 1.328125 20.984375 1.328125 Z M 20.984375 1.328125 "/></g></g><g style="fill:#000000;fill-opacity:1;"><g transform="translate(187.764142, 121.440702)"><path style="stroke:none" d=""/></g></g><g style="fill:#000000;fill-opacity:1;"><g transform="translate(200.919912, 121.440702)"><path style="stroke:none" d="M 19.484375 1.53125 C 18.242188 1.53125 17.546875 0.851562 17.390625 -0.5 L 16.796875 -5.203125 C 16.585938 -6.878906 16.484375 -8.445312 16.484375 -9.90625 C 16.484375 -10.3125 16.507812 -10.992188 16.5625 -11.953125 C 16.613281 -12.910156 16.640625 -13.59375 16.640625 -14 C 16.640625 -17.09375 16.066406 -18.640625 14.921875 -18.640625 C 13.316406 -18.640625 11.78125 -17.6875 10.3125 -15.78125 C 9 -14.039062 7.96875 -11.847656 7.21875 -9.203125 C 7.195312 -8.640625 7.132812 -7.9375 7.03125 -7.09375 C 6.945312 -6.375 6.90625 -5.679688 6.90625 -5.015625 C 6.90625 -4.578125 6.945312 -3.925781 7.03125 -3.0625 C 7.113281 -2.207031 7.15625 -1.566406 7.15625 -1.140625 C 7.15625 -0.492188 6.957031 0.0234375 6.5625 0.421875 C 6.175781 0.828125 5.671875 1.03125 5.046875 1.03125 C 4.421875 1.03125 3.914062 0.828125 3.53125 0.421875 C 3.144531 0.0234375 2.953125 -0.492188 2.953125 -1.140625 C 2.953125 -1.566406 2.90625 -2.207031 2.8125 -3.0625 C 2.71875 -3.925781 2.671875 -4.578125 2.671875 -5.015625 C 2.671875 -6.484375 2.773438 -8.523438 2.984375 -11.140625 C 3.191406 -13.765625 3.296875 -15.8125 3.296875 -17.28125 C 3.296875 -17.738281 3.269531 -18.421875 3.21875 -19.328125 C 3.164062 -20.234375 3.140625 -20.914062 3.140625 -21.375 C 3.140625 -21.988281 3.34375 -22.492188 3.75 -22.890625 C 4.15625 -23.285156 4.660156 -23.484375 5.265625 -23.484375 C 6.585938 -23.484375 7.3125 -22.550781 7.4375 -20.6875 L 7.5 -18.171875 C 9.90625 -21.378906 12.378906 -22.984375 14.921875 -22.984375 C 17.210938 -22.984375 18.8125 -21.972656 19.71875 -19.953125 C 20.332031 -18.609375 20.664062 -16.613281 20.71875 -13.96875 L 20.71875 -11.796875 L 20.703125 -9.796875 C 20.703125 -8.609375 20.851562 -7.070312 21.15625 -5.1875 C 21.46875 -3.300781 21.625 -1.773438 21.625 -0.609375 C 21.625 0.0234375 21.421875 0.539062 21.015625 0.9375 C 20.609375 1.332031 20.097656 1.53125 19.484375 1.53125 Z M 19.484375 1.53125 "/></g></g><g style="fill:#000000;fill-opacity:1;"><g transform="translate(223.964006, 121.440702)"><path style="stroke:none" d="M 11.046875 1.265625 C 8.640625 1.265625 6.570312 0.378906 4.84375 -1.390625 C 2.90625 -3.367188 1.882812 -6.03125 1.78125 -9.375 C 1.695312 -12.613281 2.515625 -15.46875 4.234375 -17.9375 C 6.242188 -20.84375 9.039062 -22.296875 12.625 -22.296875 C 15.488281 -22.296875 17.660156 -20.984375 19.140625 -18.359375 C 20.304688 -16.234375 20.867188 -13.679688 20.828125 -10.703125 C 20.785156 -7.523438 19.957031 -4.8125 18.34375 -2.5625 C 16.507812 -0.0078125 14.078125 1.265625 11.046875 1.265625 Z M 12.34375 -17.9375 C 10.238281 -17.945312 8.597656 -16.941406 7.421875 -14.921875 C 6.484375 -13.296875 6.015625 -11.445312 6.015625 -9.375 C 6.015625 -7.289062 6.582031 -5.671875 7.71875 -4.515625 C 8.664062 -3.554688 9.773438 -3.078125 11.046875 -3.078125 C 12.535156 -3.078125 13.820312 -3.617188 14.90625 -4.703125 C 16.125 -5.910156 16.765625 -7.539062 16.828125 -9.59375 C 17.035156 -15.132812 15.539062 -17.914062 12.34375 -17.9375 Z M 12.34375 -17.9375 "/></g></g><g style="fill:#000000;fill-opacity:1;"><g transform="translate(247.115587, 121.440702)"><path style="stroke:none" d="M 7.109375 -32.59375 L 7.109375 -8.671875 C 7.109375 -7.390625 6.472656 -6.75 5.203125 -6.75 C 3.929688 -6.75 3.296875 -7.390625 3.296875 -8.671875 C 3.296875 -9.253906 3.273438 -10.128906 3.234375 -11.296875 C 3.203125 -12.460938 3.1875 -13.332031 3.1875 -13.90625 C 3.1875 -15.988281 3.203125 -19.101562 3.234375 -23.25 C 3.273438 -27.394531 3.296875 -30.507812 3.296875 -32.59375 C 3.296875 -33.863281 3.929688 -34.5 5.203125 -34.5 C 6.472656 -34.5 7.109375 -33.863281 7.109375 -32.59375 Z M 7.140625 -0.5 C 7.140625 0.0195312 6.929688 0.46875 6.515625 0.84375 C 6.109375 1.226562 5.648438 1.421875 5.140625 1.421875 C 4.566406 1.421875 3.992188 1.046875 3.421875 0.296875 C 2.859375 -0.398438 2.578125 -1.046875 2.578125 -1.640625 C 2.578125 -2.148438 2.78125 -2.59375 3.1875 -2.96875 C 3.601562 -3.34375 4.070312 -3.53125 4.59375 -3.53125 C 5.15625 -3.53125 5.734375 -3.15625 6.328125 -2.40625 C 6.867188 -1.707031 7.140625 -1.070312 7.140625 -0.5 Z M 7.140625 -0.5 "/></g></g><g style="fill:#000000;fill-opacity:1;"><g transform="translate(67.608153, 182.444488)"><path style="stroke:none" d="M 30.59375 2.0625 C 29.9375 2.0625 29.359375 1.875 28.859375 1.5 C 28.285156 1.070312 28 0.539062 28 -0.09375 C 27.332031 -1.820312 26.910156 -3.226562 26.734375 -4.3125 C 26.566406 -5.40625 26.003906 -8.5 25.046875 -13.59375 C 24.316406 -17.445312 23.828125 -20.539062 23.578125 -22.875 C 22.304688 -18.144531 20.941406 -14.140625 19.484375 -10.859375 C 17.785156 -7.054688 16.6875 -4.082031 16.1875 -1.9375 C 16.363281 -1.601562 16.453125 -1.28125 16.453125 -0.96875 C 16.453125 -0.320312 16.164062 0.207031 15.59375 0.625 C 15.070312 1.007812 14.484375 1.203125 13.828125 1.203125 C 11.890625 1.203125 10.921875 0.335938 10.921875 -1.390625 L 10.25 -4.125 L 7.90625 -14.65625 C 6.976562 -18.21875 5.390625 -23.316406 3.140625 -29.953125 C 3.035156 -30.265625 2.984375 -30.550781 2.984375 -30.8125 C 2.984375 -32.144531 3.738281 -32.8125 5.25 -32.8125 C 6.175781 -32.8125 6.890625 -32.300781 7.390625 -31.28125 C 7.648438 -30.769531 8.175781 -29.285156 8.96875 -26.828125 C 9.8125 -24.234375 10.65625 -21.109375 11.5 -17.453125 L 13.59375 -7.953125 C 15.125 -11.503906 16.648438 -15.832031 18.171875 -20.9375 C 19.097656 -24.050781 19.804688 -26.207031 20.296875 -27.40625 C 21.585938 -30.570312 22.84375 -32.15625 24.0625 -32.15625 C 25.0625 -32.15625 25.769531 -31.648438 26.1875 -30.640625 C 26.695312 -29.398438 27.21875 -26.460938 27.75 -21.828125 C 28.039062 -19.472656 28.53125 -16.644531 29.21875 -13.34375 L 31.0625 -4.90625 C 32.988281 -9.519531 35.390625 -15.757812 38.265625 -23.625 C 38.421875 -24.050781 38.78125 -25.40625 39.34375 -27.6875 C 39.757812 -29.363281 40.269531 -30.671875 40.875 -31.609375 C 41.382812 -32.390625 42.054688 -32.78125 42.890625 -32.78125 C 44.335938 -32.78125 45.0625 -32.066406 45.0625 -30.640625 C 45.0625 -30.390625 44.832031 -29.671875 44.375 -28.484375 L 43.515625 -26.171875 L 42.328125 -22.34375 L 35.953125 -6.8125 C 35.359375 -5.101562 34.347656 -2.625 32.921875 0.625 C 32.398438 1.582031 31.625 2.0625 30.59375 2.0625 Z M 30.59375 2.0625 "/></g></g><g style="fill:#000000;fill-opacity:1;"><g transform="translate(113.373901, 182.444488)"><path style="stroke:none" d="M 19.71875 -15.890625 C 19.613281 -14.097656 18.894531 -13.203125 17.5625 -13.203125 C 16.332031 -13.203125 15.71875 -13.910156 15.71875 -15.328125 C 15.71875 -15.597656 15.695312 -16.097656 15.65625 -16.828125 L 15.59375 -18.640625 C 13.320312 -18.367188 11.503906 -17.734375 10.140625 -16.734375 C 8.867188 -15.796875 7.8125 -14.390625 6.96875 -12.515625 L 7.015625 -0.734375 C 7.015625 0.710938 6.300781 1.4375 4.875 1.4375 C 3.613281 1.4375 2.984375 0.710938 2.984375 -0.734375 L 2.984375 -15.828125 C 2.984375 -16.296875 3 -17.003906 3.03125 -17.953125 C 3.070312 -18.898438 3.09375 -19.609375 3.09375 -20.078125 C 3.09375 -21.523438 3.722656 -22.25 4.984375 -22.25 C 6.390625 -22.25 7.097656 -21.0625 7.109375 -18.6875 C 9.867188 -21.332031 12.925781 -22.65625 16.28125 -22.65625 C 17.4375 -22.65625 18.300781 -22.21875 18.875 -21.34375 C 19.445312 -20.46875 19.734375 -19.148438 19.734375 -17.390625 C 19.734375 -16.648438 19.726562 -16.148438 19.71875 -15.890625 Z M 19.71875 -15.890625 "/></g></g><g style="fill:#000000;fill-opacity:1;"><g transform="translate(134.526316, 182.444488)"><path style="stroke:none" d="M 11.046875 1.265625 C 8.640625 1.265625 6.570312 0.378906 4.84375 -1.390625 C 2.90625 -3.367188 1.882812 -6.03125 1.78125 -9.375 C 1.695312 -12.613281 2.515625 -15.46875 4.234375 -17.9375 C 6.242188 -20.84375 9.039062 -22.296875 12.625 -22.296875 C 15.488281 -22.296875 17.660156 -20.984375 19.140625 -18.359375 C 20.304688 -16.234375 20.867188 -13.679688 20.828125 -10.703125 C 20.785156 -7.523438 19.957031 -4.8125 18.34375 -2.5625 C 16.507812 -0.0078125 14.078125 1.265625 11.046875 1.265625 Z M 12.34375 -17.9375 C 10.238281 -17.945312 8.597656 -16.941406 7.421875 -14.921875 C 6.484375 -13.296875 6.015625 -11.445312 6.015625 -9.375 C 6.015625 -7.289062 6.582031 -5.671875 7.71875 -4.515625 C 8.664062 -3.554688 9.773438 -3.078125 11.046875 -3.078125 C 12.535156 -3.078125 13.820312 -3.617188 14.90625 -4.703125 C 16.125 -5.910156 16.765625 -7.539062 16.828125 -9.59375 C 17.035156 -15.132812 15.539062 -17.914062 12.34375 -17.9375 Z M 12.34375 -17.9375 "/></g></g><g style="fill:#000000;fill-opacity:1;"><g transform="translate(157.677897, 182.444488)"><path style="stroke:none" d="M 19.484375 1.53125 C 18.242188 1.53125 17.546875 0.851562 17.390625 -0.5 L 16.796875 -5.203125 C 16.585938 -6.878906 16.484375 -8.445312 16.484375 -9.90625 C 16.484375 -10.3125 16.507812 -10.992188 16.5625 -11.953125 C 16.613281 -12.910156 16.640625 -13.59375 16.640625 -14 C 16.640625 -17.09375 16.066406 -18.640625 14.921875 -18.640625 C 13.316406 -18.640625 11.78125 -17.6875 10.3125 -15.78125 C 9 -14.039062 7.96875 -11.847656 7.21875 -9.203125 C 7.195312 -8.640625 7.132812 -7.9375 7.03125 -7.09375 C 6.945312 -6.375 6.90625 -5.679688 6.90625 -5.015625 C 6.90625 -4.578125 6.945312 -3.925781 7.03125 -3.0625 C 7.113281 -2.207031 7.15625 -1.566406 7.15625 -1.140625 C 7.15625 -0.492188 6.957031 0.0234375 6.5625 0.421875 C 6.175781 0.828125 5.671875 1.03125 5.046875 1.03125 C 4.421875 1.03125 3.914062 0.828125 3.53125 0.421875 C 3.144531 0.0234375 2.953125 -0.492188 2.953125 -1.140625 C 2.953125 -1.566406 2.90625 -2.207031 2.8125 -3.0625 C 2.71875 -3.925781 2.671875 -4.578125 2.671875 -5.015625 C 2.671875 -6.484375 2.773438 -8.523438 2.984375 -11.140625 C 3.191406 -13.765625 3.296875 -15.8125 3.296875 -17.28125 C 3.296875 -17.738281 3.269531 -18.421875 3.21875 -19.328125 C 3.164062 -20.234375 3.140625 -20.914062 3.140625 -21.375 C 3.140625 -21.988281 3.34375 -22.492188 3.75 -22.890625 C 4.15625 -23.285156 4.660156 -23.484375 5.265625 -23.484375 C 6.585938 -23.484375 7.3125 -22.550781 7.4375 -20.6875 L 7.5 -18.171875 C 9.90625 -21.378906 12.378906 -22.984375 14.921875 -22.984375 C 17.210938 -22.984375 18.8125 -21.972656 19.71875 -19.953125 C 20.332031 -18.609375 20.664062 -16.613281 20.71875 -13.96875 L 20.71875 -11.796875 L 20.703125 -9.796875 C 20.703125 -8.609375 20.851562 -7.070312 21.15625 -5.1875 C 21.46875 -3.300781 21.625 -1.773438 21.625 -0.609375 C 21.625 0.0234375 21.421875 0.539062 21.015625 0.9375 C 20.609375 1.332031 20.097656 1.53125 19.484375 1.53125 Z M 19.484375 1.53125 "/></g></g><g style="fill:#000000;fill-opacity:1;"><g transform="translate(180.721991, 182.444488)"><path style="stroke:none" d="M 20.6875 -9.265625 L 20.1875 -2.046875 C 20.101562 0.816406 19.8125 3.160156 19.3125 4.984375 C 18.664062 7.304688 17.628906 9.019531 16.203125 10.125 C 14.484375 11.457031 12 12.125 8.75 12.125 C 6.84375 12.125 5.242188 11.992188 3.953125 11.734375 C 2.148438 11.378906 1.25 10.632812 1.25 9.5 C 1.25 8.226562 1.875 7.59375 3.125 7.59375 C 3.632812 7.59375 4.488281 7.71875 5.6875 7.96875 C 6.894531 8.21875 8.234375 8.328125 9.703125 8.296875 C 12.453125 8.253906 14.347656 6.921875 15.390625 4.296875 C 16.078125 2.546875 16.441406 -0.140625 16.484375 -3.765625 C 15.710938 -2.328125 14.789062 -1.25 13.71875 -0.53125 C 12.65625 0.175781 11.4375 0.53125 10.0625 0.53125 C 7.46875 0.53125 5.359375 -0.347656 3.734375 -2.109375 C 2.109375 -3.878906 1.296875 -6.179688 1.296875 -9.015625 C 1.296875 -12.878906 2.40625 -15.992188 4.625 -18.359375 C 6.914062 -20.796875 10.039062 -22.015625 14 -22.015625 C 15.332031 -22.015625 16.445312 -21.84375 17.34375 -21.5 C 18.25 -21.15625 18.941406 -20.640625 19.421875 -19.953125 C 20.953125 -19.910156 21.71875 -19.054688 21.71875 -17.390625 C 21.71875 -16.367188 21.566406 -15.007812 21.265625 -13.3125 C 20.929688 -11.332031 20.738281 -9.984375 20.6875 -9.265625 Z M 13.78125 -18.578125 C 11.0625 -18.578125 8.953125 -17.640625 7.453125 -15.765625 C 6.117188 -14.066406 5.453125 -11.914062 5.453125 -9.3125 C 5.453125 -7.226562 5.847656 -5.660156 6.640625 -4.609375 C 7.429688 -3.566406 8.613281 -3.046875 10.1875 -3.046875 C 11.632812 -3.046875 13.039062 -3.863281 14.40625 -5.5 C 15.632812 -7.007812 16.335938 -8.5 16.515625 -9.96875 C 16.816406 -11.519531 17.140625 -13.953125 17.484375 -17.265625 C 16.910156 -17.710938 16.3125 -18.039062 15.6875 -18.25 C 15.070312 -18.46875 14.4375 -18.578125 13.78125 -18.578125 Z M 13.78125 -18.578125 "/></g></g><g style="fill:#000000;fill-opacity:1;"><g transform="translate(204.088536, 182.444488)"><path style="stroke:none" d=""/></g></g><g style="fill:#000000;fill-opacity:1;"><g transform="translate(217.244306, 182.444488)"><path style="stroke:none" d="M 28.71875 -19.234375 C 27.601562 -14.566406 26.144531 -9.285156 24.34375 -3.390625 C 23.9375 -2.085938 23.269531 -0.75 22.34375 0.625 C 21.832031 1.382812 21.148438 1.753906 20.296875 1.734375 C 18.734375 1.710938 17.515625 -0.222656 16.640625 -4.078125 C 16.347656 -5.316406 16.054688 -6.992188 15.765625 -9.109375 L 15.046875 -13.90625 L 13.28125 -9.796875 L 10.015625 -0.921875 C 9.828125 -0.378906 9.554688 0.0351562 9.203125 0.328125 C 8.773438 1.148438 8.085938 1.578125 7.140625 1.609375 C 6.046875 1.648438 4.992188 -0.484375 3.984375 -4.796875 C 3.460938 -7.015625 2.941406 -10.023438 2.421875 -13.828125 L 1.90625 -17.046875 C 1.726562 -18.335938 1.640625 -19.421875 1.640625 -20.296875 C 1.640625 -20.898438 1.847656 -21.394531 2.265625 -21.78125 C 2.691406 -22.175781 3.207031 -22.375 3.8125 -22.375 C 4.894531 -22.375 5.566406 -21.78125 5.828125 -20.59375 C 6.015625 -19.75 6.164062 -18.703125 6.28125 -17.453125 L 6.59375 -14.296875 L 7.875 -4.640625 C 9.457031 -9.054688 11.101562 -14.144531 12.8125 -19.90625 C 13.28125 -21.5 14.101562 -22.296875 15.28125 -22.296875 C 16.414062 -22.296875 17.1875 -21.40625 17.59375 -19.625 C 17.957031 -17.945312 18.421875 -15.367188 18.984375 -11.890625 C 19.554688 -8.273438 20.066406 -5.457031 20.515625 -3.4375 L 22.078125 -9.28125 L 24.859375 -21 C 25.066406 -21.875 25.679688 -22.3125 26.703125 -22.3125 C 27.304688 -22.3125 27.828125 -22.109375 28.265625 -21.703125 C 28.710938 -21.296875 28.9375 -20.804688 28.9375 -20.234375 C 28.9375 -20.160156 28.863281 -19.828125 28.71875 -19.234375 Z M 28.71875 -19.234375 "/></g></g><g style="fill:#000000;fill-opacity:1;"><g transform="translate(247.360696, 182.444488)"><path style="stroke:none" d="M 7.09375 -27.21875 C 6.40625 -27.21875 5.8125 -27.460938 5.3125 -27.953125 C 4.8125 -28.441406 4.5625 -29.03125 4.5625 -29.71875 C 4.5625 -30.40625 4.8125 -30.988281 5.3125 -31.46875 C 5.8125 -31.957031 6.40625 -32.203125 7.09375 -32.203125 C 7.78125 -32.203125 8.367188 -31.957031 8.859375 -31.46875 C 9.359375 -30.988281 9.609375 -30.40625 9.609375 -29.71875 C 9.609375 -29.03125 9.359375 -28.441406 8.859375 -27.953125 C 8.367188 -27.460938 7.78125 -27.21875 7.09375 -27.21875 Z M 8.0625 -9.765625 C 8.0625 -8.898438 8.085938 -7.609375 8.140625 -5.890625 C 8.191406 -4.179688 8.21875 -2.898438 8.21875 -2.046875 C 8.21875 -1.410156 8.019531 -0.890625 7.625 -0.484375 C 7.238281 -0.0859375 6.734375 0.109375 6.109375 0.109375 C 5.492188 0.109375 4.988281 -0.0859375 4.59375 -0.484375 C 4.195312 -0.890625 4 -1.410156 4 -2.046875 C 4 -2.898438 3.972656 -4.179688 3.921875 -5.890625 C 3.867188 -7.609375 3.84375 -8.898438 3.84375 -9.765625 C 3.84375 -11.109375 3.914062 -12.785156 4.0625 -14.796875 C 4.207031 -16.816406 4.28125 -18.5 4.28125 -19.84375 C 4.28125 -20.488281 4.472656 -21.007812 4.859375 -21.40625 C 5.253906 -21.8125 5.765625 -22.015625 6.390625 -22.015625 C 7.003906 -22.015625 7.507812 -21.8125 7.90625 -21.40625 C 8.300781 -21.007812 8.5 -20.488281 8.5 -19.84375 C 8.5 -18.5 8.425781 -16.816406 8.28125 -14.796875 C 8.132812 -12.785156 8.0625 -11.109375 8.0625 -9.765625 Z M 8.0625 -9.765625 "/></g></g><g style="fill:#000000;fill-opacity:1;"><g transform="translate(259.699615, 182.444488)"><path style="stroke:none" d="M 19.71875 -15.890625 C 19.613281 -14.097656 18.894531 -13.203125 17.5625 -13.203125 C 16.332031 -13.203125 15.71875 -13.910156 15.71875 -15.328125 C 15.71875 -15.597656 15.695312 -16.097656 15.65625 -16.828125 L 15.59375 -18.640625 C 13.320312 -18.367188 11.503906 -17.734375 10.140625 -16.734375 C 8.867188 -15.796875 7.8125 -14.390625 6.96875 -12.515625 L 7.015625 -0.734375 C 7.015625 0.710938 6.300781 1.4375 4.875 1.4375 C 3.613281 1.4375 2.984375 0.710938 2.984375 -0.734375 L 2.984375 -15.828125 C 2.984375 -16.296875 3 -17.003906 3.03125 -17.953125 C 3.070312 -18.898438 3.09375 -19.609375 3.09375 -20.078125 C 3.09375 -21.523438 3.722656 -22.25 4.984375 -22.25 C 6.390625 -22.25 7.097656 -21.0625 7.109375 -18.6875 C 9.867188 -21.332031 12.925781 -22.65625 16.28125 -22.65625 C 17.4375 -22.65625 18.300781 -22.21875 18.875 -21.34375 C 19.445312 -20.46875 19.734375 -19.148438 19.734375 -17.390625 C 19.734375 -16.648438 19.726562 -16.148438 19.71875 -15.890625 Z M 19.71875 -15.890625 "/></g></g><g style="fill:#000000;fill-opacity:1;"><g transform="translate(280.85203, 182.444488)"><path style="stroke:none" d="M 13.03125 0.984375 C 9.789062 0.984375 7.164062 0.175781 5.15625 -1.4375 C 2.96875 -3.226562 1.875 -5.738281 1.875 -8.96875 C 1.875 -12.695312 2.773438 -15.820312 4.578125 -18.34375 C 6.546875 -21.09375 9.171875 -22.46875 12.453125 -22.46875 C 14.828125 -22.46875 16.769531 -22.066406 18.28125 -21.265625 C 20.125 -20.273438 21.046875 -18.753906 21.046875 -16.703125 C 21.046875 -15.273438 20.238281 -13.972656 18.625 -12.796875 C 17.90625 -12.273438 16.382812 -11.472656 14.0625 -10.390625 L 5.84375 -6.5 C 6.644531 -5.300781 7.644531 -4.398438 8.84375 -3.796875 C 10.039062 -3.203125 11.4375 -2.90625 13.03125 -2.90625 C 14.019531 -2.90625 15.179688 -3.09375 16.515625 -3.46875 C 18.203125 -3.9375 19.289062 -4.550781 19.78125 -5.3125 C 20.269531 -6.082031 20.789062 -6.46875 21.34375 -6.46875 C 21.851562 -6.46875 22.300781 -6.273438 22.6875 -5.890625 C 23.082031 -5.515625 23.28125 -5.078125 23.28125 -4.578125 C 23.28125 -2.984375 22 -1.613281 19.4375 -0.46875 C 17.238281 0.5 15.101562 0.984375 13.03125 0.984375 Z M 12.453125 -18.59375 C 10.703125 -18.59375 9.242188 -17.914062 8.078125 -16.5625 C 6.921875 -15.207031 6.054688 -13.171875 5.484375 -10.453125 L 12.078125 -13.59375 C 14.671875 -14.851562 16.519531 -15.945312 17.625 -16.875 C 16.394531 -18.019531 14.671875 -18.59375 12.453125 -18.59375 Z M 12.453125 -18.59375 "/></g></g><g style="fill:#000000;fill-opacity:1;"><g transform="translate(304.970932, 182.444488)"><path style="stroke:none" d="M 6.125 7.390625 C 5.625 7.390625 5.1875 7.195312 4.8125 6.8125 C 4.4375 6.425781 4.25 5.984375 4.25 5.484375 C 4.25 5.066406 4.695312 3.832031 5.59375 1.78125 C 6.363281 0.0078125 6.957031 -1.253906 7.375 -2.015625 C 7.75 -2.703125 8.242188 -3.046875 8.859375 -3.046875 C 9.367188 -3.046875 9.804688 -2.847656 10.171875 -2.453125 C 10.546875 -2.066406 10.734375 -1.625 10.734375 -1.125 C 10.734375 -0.78125 9.710938 1.671875 7.671875 6.234375 C 7.347656 7.003906 6.832031 7.390625 6.125 7.390625 Z M 6.125 7.390625 "/></g></g><g style="fill:#000000;fill-opacity:1;"><g transform="translate(119.614299, 243.448273)"><path style="stroke:none" d="M 34.9375 1.78125 C 34.164062 1.78125 33.53125 1.378906 33.03125 0.578125 C 32.59375 -0.109375 32.203125 -1.253906 31.859375 -2.859375 L 31.09375 -6.5625 C 30.5 -8.851562 29.566406 -13.910156 28.296875 -21.734375 L 24 -8.765625 L 22.71875 -4.6875 C 22.207031 -3.0625 21.671875 -1.734375 21.109375 -0.703125 C 20.503906 0.378906 19.695312 0.921875 18.6875 0.921875 C 17.84375 0.921875 17.175781 0.460938 16.6875 -0.453125 C 16.363281 -1.054688 16.078125 -1.820312 15.828125 -2.75 L 15.203125 -5.140625 C 13.753906 -10.203125 12.476562 -15.617188 11.375 -21.390625 L 10.59375 -17.546875 L 7.828125 -6.1875 C 7.710938 -4.851562 7.351562 -2.882812 6.75 -0.28125 C 6.320312 0.832031 5.613281 1.390625 4.625 1.390625 C 3.914062 1.390625 3.359375 1.140625 2.953125 0.640625 C 2.585938 0.210938 2.40625 -0.316406 2.40625 -0.953125 C 2.40625 -3.335938 2.898438 -6.273438 3.890625 -9.765625 L 6.25 -18.421875 L 7.5 -25.203125 C 8.132812 -28.367188 8.800781 -30.4375 9.5 -31.40625 C 10.070312 -32.238281 10.78125 -32.65625 11.625 -32.65625 C 12.5625 -32.65625 13.257812 -32.125 13.71875 -31.0625 C 14.28125 -29.789062 14.878906 -27.191406 15.515625 -23.265625 C 16.273438 -18.546875 17.457031 -13.441406 19.0625 -7.953125 C 21.1875 -13.472656 23.023438 -19.222656 24.578125 -25.203125 L 25.21875 -28.34375 C 25.476562 -29.601562 25.816406 -30.617188 26.234375 -31.390625 C 26.785156 -32.453125 27.550781 -32.984375 28.53125 -32.984375 C 29.757812 -32.984375 30.695312 -31.789062 31.34375 -29.40625 C 31.570312 -28.59375 31.851562 -26.90625 32.1875 -24.34375 C 33.03125 -17.863281 34.082031 -12.328125 35.34375 -7.734375 L 36.40625 -4.046875 C 36.945312 -2.066406 37.21875 -0.847656 37.21875 -0.390625 C 37.21875 0.222656 36.984375 0.738281 36.515625 1.15625 C 36.046875 1.570312 35.519531 1.78125 34.9375 1.78125 Z M 34.9375 1.78125 "/></g></g><g style="fill:#000000;fill-opacity:1;"><g transform="translate(158.479711, 243.448273)"><path style="stroke:none" d="M 7.09375 -27.21875 C 6.40625 -27.21875 5.8125 -27.460938 5.3125 -27.953125 C 4.8125 -28.441406 4.5625 -29.03125 4.5625 -29.71875 C 4.5625 -30.40625 4.8125 -30.988281 5.3125 -31.46875 C 5.8125 -31.957031 6.40625 -32.203125 7.09375 -32.203125 C 7.78125 -32.203125 8.367188 -31.957031 8.859375 -31.46875 C 9.359375 -30.988281 9.609375 -30.40625 9.609375 -29.71875 C 9.609375 -29.03125 9.359375 -28.441406 8.859375 -27.953125 C 8.367188 -27.460938 7.78125 -27.21875 7.09375 -27.21875 Z M 8.0625 -9.765625 C 8.0625 -8.898438 8.085938 -7.609375 8.140625 -5.890625 C 8.191406 -4.179688 8.21875 -2.898438 8.21875 -2.046875 C 8.21875 -1.410156 8.019531 -0.890625 7.625 -0.484375 C 7.238281 -0.0859375 6.734375 0.109375 6.109375 0.109375 C 5.492188 0.109375 4.988281 -0.0859375 4.59375 -0.484375 C 4.195312 -0.890625 4 -1.410156 4 -2.046875 C 4 -2.898438 3.972656 -4.179688 3.921875 -5.890625 C 3.867188 -7.609375 3.84375 -8.898438 3.84375 -9.765625 C 3.84375 -11.109375 3.914062 -12.785156 4.0625 -14.796875 C 4.207031 -16.816406 4.28125 -18.5 4.28125 -19.84375 C 4.28125 -20.488281 4.472656 -21.007812 4.859375 -21.40625 C 5.253906 -21.8125 5.765625 -22.015625 6.390625 -22.015625 C 7.003906 -22.015625 7.507812 -21.8125 7.90625 -21.40625 C 8.300781 -21.007812 8.5 -20.488281 8.5 -19.84375 C 8.5 -18.5 8.425781 -16.816406 8.28125 -14.796875 C 8.132812 -12.785156 8.0625 -11.109375 8.0625 -9.765625 Z M 8.0625 -9.765625 "/></g></g><g style="fill:#000000;fill-opacity:1;"><g transform="translate(170.81862, 243.448273)"><path style="stroke:none" d="M 8.453125 -16.90625 L 8.125 -6.21875 C 8.125 -5.082031 8.066406 -3.414062 7.953125 -1.21875 C 7.804688 0.207031 7.101562 0.921875 5.84375 0.921875 C 4.4375 0.921875 3.734375 0.191406 3.734375 -1.265625 C 3.734375 -3.003906 3.8125 -5.609375 3.96875 -9.078125 C 4.132812 -12.554688 4.21875 -15.164062 4.21875 -16.90625 C 4.21875 -19.164062 4.25 -21.753906 4.3125 -24.671875 C 4.382812 -27.585938 4.421875 -30.175781 4.421875 -32.4375 C 4.421875 -33.875 5.125 -34.59375 6.53125 -34.59375 C 7.957031 -34.59375 8.671875 -33.875 8.671875 -32.4375 C 8.671875 -30.175781 8.632812 -27.585938 8.5625 -24.671875 C 8.488281 -21.753906 8.453125 -19.164062 8.453125 -16.90625 Z M 8.453125 -16.90625 "/></g></g><g style="fill:#000000;fill-opacity:1;"><g transform="translate(182.878081, 243.448273)"><path style="stroke:none" d="M 19.78125 1.421875 C 19.507812 1.421875 19.015625 1.101562 18.296875 0.46875 C 17.648438 -0.113281 17.171875 -0.632812 16.859375 -1.09375 C 15.484375 -0.351562 14.269531 0.203125 13.21875 0.578125 C 12.175781 0.960938 11.300781 1.15625 10.59375 1.15625 C 7.238281 1.15625 4.796875 0.210938 3.265625 -1.671875 C 1.816406 -3.453125 1.09375 -6.175781 1.09375 -9.84375 C 1.09375 -13.3125 2.285156 -16.28125 4.671875 -18.75 C 7.054688 -21.21875 9.90625 -22.453125 13.21875 -22.453125 C 14.46875 -22.453125 15.867188 -22.128906 17.421875 -21.484375 C 19.367188 -20.679688 20.34375 -19.710938 20.34375 -18.578125 C 20.34375 -18.191406 20.195312 -17.847656 19.90625 -17.546875 C 19.757812 -17.003906 19.644531 -16.109375 19.5625 -14.859375 C 19.488281 -13.609375 19.445312 -12.007812 19.4375 -10.0625 C 19.425781 -8.28125 19.546875 -6.875 19.796875 -5.84375 C 19.941406 -5.21875 20.394531 -3.957031 21.15625 -2.0625 C 21.257812 -1.800781 21.425781 -1.421875 21.65625 -0.921875 L 21.78125 -0.5625 C 21.78125 0.0078125 21.578125 0.484375 21.171875 0.859375 C 20.773438 1.234375 20.3125 1.421875 19.78125 1.421875 Z M 15.3125 -13.515625 C 15.3125 -14.140625 15.347656 -14.8125 15.421875 -15.53125 C 15.503906 -16.257812 15.625 -17.03125 15.78125 -17.84375 C 15.25 -18.113281 14.789062 -18.3125 14.40625 -18.4375 C 14.03125 -18.570312 13.726562 -18.640625 13.5 -18.640625 C 11.28125 -18.640625 9.363281 -17.734375 7.75 -15.921875 C 6.132812 -14.109375 5.328125 -12.019531 5.328125 -9.65625 C 5.328125 -7.300781 5.742188 -5.535156 6.578125 -4.359375 C 7.410156 -3.179688 8.65625 -2.59375 10.3125 -2.59375 C 11.695312 -2.59375 12.867188 -2.847656 13.828125 -3.359375 C 14.335938 -3.628906 15.0625 -4.171875 16 -4.984375 C 15.539062 -8.785156 15.3125 -11.628906 15.3125 -13.515625 Z M 15.3125 -13.515625 "/></g></g><g style="fill:#000000;fill-opacity:1;"><g transform="translate(205.406263, 243.448273)"><path style="stroke:none" d="M 22.796875 -18.984375 C 22.617188 -16.878906 22.53125 -14.769531 22.53125 -12.65625 C 22.53125 -7.882812 22.753906 -4.28125 23.203125 -1.84375 C 23.222656 -1.644531 23.234375 -1.484375 23.234375 -1.359375 C 23.234375 -0.785156 23.03125 -0.3125 22.625 0.0625 C 22.226562 0.4375 21.765625 0.625 21.234375 0.625 C 20.347656 0.625 19.695312 -0.0195312 19.28125 -1.3125 C 18.25 -0.550781 17.175781 0.0195312 16.0625 0.40625 C 14.957031 0.789062 13.800781 0.984375 12.59375 0.984375 C 9.625 0.984375 7.164062 -0.00390625 5.21875 -1.984375 C 3.21875 -4.003906 2.21875 -6.597656 2.21875 -9.765625 C 2.21875 -13.585938 3.226562 -16.648438 5.25 -18.953125 C 7.28125 -21.265625 9.914062 -22.421875 13.15625 -22.421875 C 14.820312 -22.421875 16.101562 -22.164062 17 -21.65625 L 19.03125 -20.171875 C 19.226562 -26.203125 19.460938 -30.265625 19.734375 -32.359375 C 19.921875 -33.628906 20.570312 -34.265625 21.6875 -34.265625 C 23 -34.265625 23.65625 -33.570312 23.65625 -32.1875 C 23.65625 -30.195312 23.367188 -25.796875 22.796875 -18.984375 Z M 13.25 -18.421875 C 10.832031 -18.421875 9.019531 -17.707031 7.8125 -16.28125 C 6.613281 -14.851562 6.015625 -12.707031 6.015625 -9.84375 C 6.015625 -8 6.671875 -6.410156 7.984375 -5.078125 C 9.296875 -3.742188 10.832031 -3.078125 12.59375 -3.078125 C 13.800781 -3.078125 14.820312 -3.296875 15.65625 -3.734375 C 16.132812 -3.992188 16.925781 -4.59375 18.03125 -5.53125 C 18.25 -5.71875 18.457031 -5.9375 18.65625 -6.1875 L 18.59375 -9.90625 L 18.625 -12.40625 L 18.65625 -14.9375 C 18.113281 -16.101562 17.390625 -16.972656 16.484375 -17.546875 C 15.585938 -18.128906 14.507812 -18.421875 13.25 -18.421875 Z M 13.25 -18.421875 "/></g></g><g style="fill:#000000;fill-opacity:1;"><g transform="translate(231.266385, 243.448273)"><path style="stroke:none" d="M 21.734375 -19.171875 L 14.296875 -3.09375 C 12.460938 0.820312 11.054688 4.097656 10.078125 6.734375 L 8.671875 10.90625 C 8.296875 11.9375 7.648438 12.453125 6.734375 12.453125 C 6.128906 12.453125 5.609375 12.253906 5.171875 11.859375 C 4.734375 11.460938 4.515625 10.972656 4.515625 10.390625 C 4.515625 8.953125 6.0625 4.800781 9.15625 -2.0625 L 1.46875 -16.875 L 0.5 -18.453125 C 0.101562 -19.109375 -0.09375 -19.660156 -0.09375 -20.109375 C -0.09375 -20.691406 0.128906 -21.203125 0.578125 -21.640625 C 1.035156 -22.085938 1.546875 -22.3125 2.109375 -22.3125 C 2.765625 -22.3125 3.273438 -22.0625 3.640625 -21.5625 C 6.066406 -18.175781 8.679688 -13.359375 11.484375 -7.109375 L 14.65625 -14.53125 C 15.800781 -17.09375 16.90625 -19.300781 17.96875 -21.15625 C 18.425781 -21.957031 19.03125 -22.359375 19.78125 -22.359375 C 20.363281 -22.359375 20.878906 -22.148438 21.328125 -21.734375 C 21.785156 -21.316406 22.015625 -20.820312 22.015625 -20.25 C 22.015625 -19.9375 21.921875 -19.578125 21.734375 -19.171875 Z M 21.734375 -19.171875 "/></g></g><g style="fill:#000000;fill-opacity:1;"><g transform="translate(254.181501, 243.448273)"><path style="stroke:none" d="M 5.734375 2 C 4.992188 2 4.363281 1.738281 3.84375 1.21875 C 3.332031 0.707031 3.078125 0.078125 3.078125 -0.671875 C 3.078125 -1.398438 3.332031 -2.023438 3.84375 -2.546875 C 4.363281 -3.066406 4.992188 -3.328125 5.734375 -3.328125 C 6.472656 -3.328125 7.101562 -3.066406 7.625 -2.546875 C 8.144531 -2.023438 8.40625 -1.398438 8.40625 -0.671875 C 8.40625 0.078125 8.144531 0.707031 7.625 1.21875 C 7.101562 1.738281 6.472656 2 5.734375 2 Z M 5.734375 2 "/></g></g></g></svg>