<svg xmlns="http://www.w3.org/2000/svg" xmlns:xlink="http://www.w3.org/1999/xlink" width="500" zoomAndPan="magnify" viewBox="0 0 375 374.999991" height="500" preserveAspectRatio="xMidYMid meet" version="1.2"><defs/><g id="bb02a2280c"><path style=" stroke:none;fill-rule:nonzero;fill:#ffffff;fill-opacity:1;" d="M 98.066406 270.589844 C 171.804688 276.296875 232.648438 277.601562 306.542969 276.820312 C 327.554688 276.597656 351.78125 274.238281 363.941406 254.242188 C 370.402344 243.617188 371.953125 230.039062 372.648438 217.035156 C 374.621094 180.304688 371.320312 143.195312 362.929688 107.714844 C 358.886719 90.601562 352.949219 72.742188 340.414062 62.6875 C 328.3125 52.972656 312.621094 52.558594 297.929688 52.488281 C 218.398438 52.121094 138.078125 51.851562 60.457031 72.0625 C 42.472656 76.746094 22.949219 84 13.527344 102.480469 C 7.957031 113.417969 6.894531 126.597656 6.078125 139.285156 C 3.695312 176.382812 2.292969 213.566406 1.863281 250.761719 C 1.773438 258.308594 1.910156 266.511719 5.929688 272.425781 C 12.210938 281.660156 24.1875 280.648438 33.878906 283.984375 C 45.835938 288.097656 55.398438 300.5 57.648438 314.8125 C 54.855469 302.300781 58.257812 288.171875 66.222656 279.1875 C 74.191406 270.203125 82.503906 270.589844 97.023438 270.410156 C 97.273438 270.40625 97.515625 270.542969 97.769531 270.558594 "/><path style=" stroke:none;fill-rule:nonzero;fill:#100f0d;fill-opacity:1;" d="M 98.066406 269.441406 C 134.121094 272.222656 170.238281 274.160156 206.398438 275.105469 C 241.746094 276.023438 277.371094 276.835938 312.71875 275.535156 C 326.132812 275.042969 340.46875 273.273438 351.800781 265.476562 C 366.0625 255.65625 369.925781 238.527344 371.167969 222.257812 C 373.992188 185.34375 370.808594 147.648438 362.648438 111.574219 C 359.195312 96.3125 354.964844 79.570312 344.097656 67.722656 C 332.753906 55.355469 316.144531 53.800781 300.316406 53.652344 C 263.375 53.300781 226.355469 53.28125 189.449219 55.101562 C 152.007812 56.949219 114.582031 60.898438 77.949219 69.03125 C 63.023438 72.34375 47.269531 75.625 33.890625 83.355469 C 19.453125 91.703125 11.683594 104.921875 9.015625 121.179688 C 6.035156 139.355469 6.011719 158.292969 5.160156 176.660156 C 4.257812 196.003906 3.621094 215.355469 3.253906 234.710938 C 3.082031 243.703125 2.214844 253.109375 3.5 262.042969 C 4.789062 270.988281 9.753906 276.765625 18.433594 279.175781 C 24.382812 280.828125 30.664062 281.265625 36.375 283.734375 C 42.128906 286.21875 47 290.441406 50.726562 295.4375 C 54.921875 301.058594 57.570312 307.617188 58.753906 314.511719 C 59 315.941406 56.84375 316.578125 56.542969 315.117188 C 53.832031 302.007812 56.867188 287.003906 66.46875 277.246094 C 70.121094 273.539062 74.621094 271.171875 79.734375 270.21875 C 82.367188 269.722656 85.050781 269.53125 87.726562 269.425781 C 91.042969 269.292969 94.820312 268.800781 98.074219 269.453125 C 99.519531 269.746094 98.910156 271.957031 97.464844 271.667969 C 94.46875 271.0625 90.78125 271.59375 87.726562 271.71875 C 85.253906 271.820312 82.777344 271.972656 80.339844 272.429688 C 75.597656 273.3125 71.488281 275.410156 68.09375 278.867188 C 59.085938 288.03125 56.207031 302.199219 58.753906 314.511719 C 58.015625 314.710938 57.28125 314.914062 56.542969 315.117188 C 55.160156 307.0625 51.726562 299.453125 46.101562 293.460938 C 40.699219 287.703125 34.128906 284.847656 26.519531 283.277344 C 20.367188 282.011719 13.773438 281.085938 8.699219 277.066406 C 3.007812 272.554688 1.265625 265.347656 0.835938 258.417969 C 0.242188 248.789062 0.859375 238.996094 1.066406 229.363281 C 1.285156 219.429688 1.570312 209.496094 1.925781 199.566406 C 2.640625 179.464844 3.632812 159.363281 4.933594 139.285156 C 5.953125 123.539062 7.378906 106.835938 17.636719 94.042969 C 26.464844 83.019531 39.75 76.976562 52.972656 72.96875 C 88.496094 62.203125 126.230469 57.382812 163.136719 54.480469 C 202.125 51.414062 241.261719 51.15625 280.351562 51.273438 C 296.617188 51.324219 314.722656 49.546875 330.210938 55.566406 C 343.984375 60.921875 352.328125 72.859375 357.617188 86.15625 C 364.273438 102.882812 367.464844 121.273438 370.101562 139 C 372.929688 158.007812 374.355469 177.222656 374.351562 196.4375 C 374.339844 213.632812 374.738281 232.878906 367.886719 249.003906 C 362.664062 261.300781 352.425781 269.667969 339.851562 273.742188 C 325.757812 278.308594 310.632812 277.949219 296.003906 278.066406 C 276.792969 278.21875 257.578125 278.21875 238.371094 277.996094 C 201.210938 277.554688 164.066406 276.1875 126.984375 273.789062 C 117.339844 273.167969 107.699219 272.476562 98.066406 271.734375 C 96.601562 271.621094 96.589844 269.332031 98.066406 269.441406 "/><path style=" stroke:none;fill-rule:nonzero;fill:#100f0d;fill-opacity:1;" d="M 266.691406 58.550781 C 277.402344 58.375 288.113281 58.542969 298.8125 59.105469 C 308.007812 59.589844 317.972656 59.554688 326.835938 62.351562 C 334.71875 64.839844 339.914062 70.535156 344.226562 77.335938 C 349.480469 85.621094 353.558594 94.566406 356.574219 103.882812 C 356.886719 104.859375 355.351562 105.277344 355.035156 104.304688 C 352.207031 95.550781 348.421875 87.15625 343.589844 79.316406 C 338.507812 71.070312 332.535156 65.019531 322.78125 62.941406 C 314.035156 61.082031 304.730469 60.960938 295.824219 60.550781 C 286.121094 60.105469 276.40625 59.984375 266.691406 60.140625 C 265.667969 60.15625 265.667969 58.566406 266.691406 58.550781 "/><path style=" stroke:none;fill-rule:nonzero;fill:#100f0d;fill-opacity:1;" d="M 11.320312 237.480469 C 10.488281 249.90625 11.253906 264.515625 22.039062 272.773438 C 27.351562 276.835938 33.929688 277.003906 39.976562 279.285156 C 44.597656 281.03125 48.5 283.941406 51.644531 287.726562 C 52.292969 288.507812 51.175781 289.636719 50.519531 288.851562 C 45.816406 283.191406 39.996094 280.695312 33 278.988281 C 27.25 277.582031 22.140625 275.714844 18.03125 271.277344 C 9.574219 262.148438 8.945312 249.242188 9.730469 237.480469 C 9.796875 236.464844 11.386719 236.457031 11.320312 237.480469 "/><path style=" stroke:none;fill-rule:nonzero;fill:#100f0d;fill-opacity:1;" d="M 38.414062 89.214844 C 32.039062 92.941406 27.132812 98.472656 24.273438 105.289062 C 23.878906 106.214844 22.339844 105.808594 22.734375 104.867188 C 25.761719 97.652344 30.847656 91.792969 37.609375 87.839844 C 38.496094 87.324219 39.296875 88.695312 38.414062 89.214844 "/><path style=" stroke:none;fill-rule:nonzero;fill:#100f0d;fill-opacity:1;" d="M 344.398438 119.929688 C 348.167969 122.15625 351.09375 125.167969 353.199219 129.011719 C 352.707031 129.144531 352.210938 129.277344 351.71875 129.414062 C 351.734375 124.410156 355.375 120.496094 360.324219 119.96875 C 360.253906 120.492188 360.183594 121.011719 360.109375 121.53125 C 355.910156 120.160156 352.445312 117.78125 349.710938 114.304688 C 350.164062 114.117188 350.617188 113.929688 351.070312 113.742188 C 350.992188 118.234375 347.296875 121.660156 342.789062 121.257812 C 341.777344 121.164062 341.765625 119.574219 342.789062 119.664062 C 346.398438 119.988281 349.414062 117.398438 349.476562 113.742188 C 349.488281 113.117188 350.386719 112.609375 350.835938 113.179688 C 353.390625 116.433594 356.589844 118.710938 360.535156 119.996094 C 361.425781 120.289062 361.199219 121.464844 360.324219 121.558594 C 356.222656 121.996094 353.328125 125.328125 353.3125 129.414062 C 353.308594 130.183594 352.210938 130.515625 351.824219 129.8125 C 349.847656 126.203125 347.140625 123.398438 343.59375 121.300781 C 342.710938 120.78125 343.511719 119.40625 344.398438 119.929688 "/><g style="fill:#000000;fill-opacity:1;"><g transform="translate(36.052488, 158.973263)"><path style="stroke:none" d="M 28.640625 -31.25 C 28.242188 -30.632812 27.722656 -29.679688 27.078125 -28.390625 L 22.875 -18.015625 C 21.238281 -14.117188 19.707031 -10.710938 18.28125 -7.796875 L 15.21875 -2.34375 L 13.921875 0.296875 C 13.390625 1.234375 12.664062 1.703125 11.75 1.703125 C 11.113281 1.703125 10.535156 1.46875 10.015625 1 C 9.492188 0.53125 9.234375 -0.0507812 9.234375 -0.75 C 9.234375 -1.3125 10 -3.050781 11.53125 -5.96875 L 14.546875 -11.453125 C 11.628906 -15.222656 9.738281 -18.191406 8.875 -20.359375 C 8.132812 -22.203125 6.910156 -24.410156 5.203125 -26.984375 C 2.859375 -30.492188 1.484375 -32.617188 1.078125 -33.359375 C 0.828125 -33.796875 0.703125 -34.234375 0.703125 -34.671875 C 0.703125 -35.378906 0.957031 -35.972656 1.46875 -36.453125 C 1.988281 -36.929688 2.570312 -37.171875 3.21875 -37.171875 C 4.019531 -37.171875 4.691406 -36.785156 5.234375 -36.015625 L 7.1875 -32.984375 C 8.914062 -30.429688 10.054688 -28.691406 10.609375 -27.765625 C 11.828125 -25.753906 12.78125 -23.894531 13.46875 -22.1875 C 14 -20.832031 15.144531 -18.984375 16.90625 -16.640625 L 22.5 -30.28125 C 23.132812 -31.40625 24.015625 -33.140625 25.140625 -35.484375 C 25.597656 -36.585938 26.359375 -37.140625 27.421875 -37.140625 C 28.066406 -37.140625 28.644531 -36.910156 29.15625 -36.453125 C 29.675781 -36.003906 29.9375 -35.421875 29.9375 -34.703125 C 29.9375 -33.953125 29.503906 -32.800781 28.640625 -31.25 Z M 28.640625 -31.25 "/></g></g><g style="fill:#000000;fill-opacity:1;"><g transform="translate(67.840809, 158.973263)"><path style="stroke:none" d="M 14.8125 1.125 C 11.125 1.125 8.140625 0.203125 5.859375 -1.640625 C 3.367188 -3.671875 2.125 -6.519531 2.125 -10.1875 C 2.125 -14.425781 3.148438 -17.976562 5.203125 -20.84375 C 7.429688 -23.96875 10.414062 -25.53125 14.15625 -25.53125 C 16.851562 -25.53125 19.054688 -25.078125 20.765625 -24.171875 C 22.867188 -23.046875 23.921875 -21.316406 23.921875 -18.984375 C 23.921875 -17.359375 23 -15.878906 21.15625 -14.546875 C 20.34375 -13.953125 18.617188 -13.035156 15.984375 -11.796875 L 6.640625 -7.375 C 7.554688 -6.03125 8.691406 -5.015625 10.046875 -4.328125 C 11.410156 -3.640625 13 -3.296875 14.8125 -3.296875 C 15.9375 -3.296875 17.253906 -3.507812 18.765625 -3.9375 C 20.691406 -4.46875 21.929688 -5.171875 22.484375 -6.046875 C 23.035156 -6.921875 23.628906 -7.359375 24.265625 -7.359375 C 24.835938 -7.359375 25.347656 -7.140625 25.796875 -6.703125 C 26.242188 -6.273438 26.46875 -5.773438 26.46875 -5.203125 C 26.46875 -3.398438 25.007812 -1.84375 22.09375 -0.53125 C 19.601562 0.570312 17.175781 1.125 14.8125 1.125 Z M 14.15625 -21.140625 C 12.164062 -21.140625 10.507812 -20.367188 9.1875 -18.828125 C 7.863281 -17.285156 6.878906 -14.96875 6.234375 -11.875 L 13.734375 -15.4375 C 16.679688 -16.875 18.78125 -18.125 20.03125 -19.1875 C 18.632812 -20.488281 16.675781 -21.140625 14.15625 -21.140625 Z M 14.15625 -21.140625 "/></g></g><g style="fill:#000000;fill-opacity:1;"><g transform="translate(95.255481, 158.973263)"><path style="stroke:none" d="M 19.890625 -18.8125 C 18.992188 -18.8125 18.367188 -19.113281 18.015625 -19.71875 C 17.765625 -20.144531 17.550781 -21.023438 17.375 -22.359375 C 16.15625 -22.046875 14.273438 -21.476562 11.734375 -20.65625 C 9.109375 -19.601562 7.785156 -18.3125 7.765625 -16.78125 C 8.253906 -16.601562 8.738281 -16.472656 9.21875 -16.390625 C 12.957031 -15.722656 15.738281 -14.804688 17.5625 -13.640625 C 20.21875 -11.921875 21.546875 -9.441406 21.546875 -6.203125 C 21.546875 -3.546875 20.398438 -1.546875 18.109375 -0.203125 C 16.203125 0.910156 13.789062 1.46875 10.875 1.46875 C 8.738281 1.46875 6.703125 1.109375 4.765625 0.390625 C 2.253906 -0.523438 1 -1.796875 1 -3.421875 C 1 -4.078125 1.253906 -4.644531 1.765625 -5.125 C 2.285156 -5.613281 2.867188 -5.859375 3.515625 -5.859375 C 4.023438 -5.859375 4.675781 -5.46875 5.46875 -4.6875 C 5.863281 -4.3125 6.742188 -4.003906 8.109375 -3.765625 C 9.203125 -3.566406 10.125 -3.46875 10.875 -3.46875 C 12.238281 -3.46875 13.441406 -3.628906 14.484375 -3.953125 C 16.003906 -4.429688 16.765625 -5.179688 16.765625 -6.203125 C 16.765625 -8.421875 15.21875 -9.921875 12.125 -10.703125 L 9.578125 -11.265625 C 7.410156 -11.734375 5.867188 -12.285156 4.953125 -12.921875 C 3.640625 -13.835938 2.984375 -15.21875 2.984375 -17.0625 C 2.984375 -20.46875 4.585938 -22.894531 7.796875 -24.34375 C 8.773438 -24.78125 10.335938 -25.300781 12.484375 -25.90625 C 14.640625 -26.519531 16.179688 -27.039062 17.109375 -27.46875 C 17.773438 -27.757812 18.5 -27.90625 19.28125 -27.90625 C 19.976562 -27.90625 20.550781 -27.675781 21 -27.21875 C 21.445312 -26.757812 21.671875 -26.164062 21.671875 -25.4375 C 21.671875 -24.96875 21.769531 -24.273438 21.96875 -23.359375 C 22.175781 -22.453125 22.28125 -21.757812 22.28125 -21.28125 C 22.28125 -20.550781 22.054688 -19.957031 21.609375 -19.5 C 21.160156 -19.039062 20.585938 -18.8125 19.890625 -18.8125 Z M 19.890625 -18.8125 "/></g></g><g style="fill:#000000;fill-opacity:1;"><g transform="translate(119.615941, 158.973263)"><path style="stroke:none" d="M 8.09375 -37.046875 L 8.09375 -9.84375 C 8.09375 -8.394531 7.363281 -7.671875 5.90625 -7.671875 C 4.457031 -7.671875 3.734375 -8.394531 3.734375 -9.84375 C 3.734375 -10.507812 3.710938 -11.503906 3.671875 -12.828125 C 3.628906 -14.160156 3.609375 -15.15625 3.609375 -15.8125 C 3.609375 -18.175781 3.628906 -21.710938 3.671875 -26.421875 C 3.710938 -31.140625 3.734375 -34.679688 3.734375 -37.046875 C 3.734375 -38.492188 4.457031 -39.21875 5.90625 -39.21875 C 7.363281 -39.21875 8.09375 -38.492188 8.09375 -37.046875 Z M 8.109375 -0.5625 C 8.109375 0.0195312 7.875 0.523438 7.40625 0.953125 C 6.945312 1.390625 6.425781 1.609375 5.84375 1.609375 C 5.1875 1.609375 4.535156 1.1875 3.890625 0.34375 C 3.253906 -0.457031 2.9375 -1.191406 2.9375 -1.859375 C 2.9375 -2.441406 3.164062 -2.941406 3.625 -3.359375 C 4.09375 -3.785156 4.628906 -4 5.234375 -4 C 5.867188 -4 6.519531 -3.578125 7.1875 -2.734375 C 7.800781 -1.941406 8.109375 -1.21875 8.109375 -0.5625 Z M 8.109375 -0.5625 "/></g></g><g style="fill:#000000;fill-opacity:1;"><g transform="translate(131.515185, 158.973263)"><path style="stroke:none" d=""/></g></g><g style="fill:#000000;fill-opacity:1;"><g transform="translate(146.468643, 158.973263)"><path style="stroke:none" d="M 25.046875 -1 C 23.203125 -0.132812 20.3125 0.632812 16.375 1.3125 C 12.738281 1.945312 9.773438 2.265625 7.484375 2.265625 C 5.835938 2.265625 4.65625 2.015625 3.9375 1.515625 C 2.957031 0.828125 2.46875 -0.425781 2.46875 -2.25 L 2.953125 -10.34375 C 3.378906 -17.800781 3.59375 -26.078125 3.59375 -35.171875 C 3.59375 -35.867188 3.820312 -36.460938 4.28125 -36.953125 C 4.75 -37.441406 5.328125 -37.6875 6.015625 -37.6875 C 6.710938 -37.6875 7.289062 -37.441406 7.75 -36.953125 C 8.21875 -36.460938 8.453125 -35.867188 8.453125 -35.171875 C 8.453125 -25.960938 8.234375 -17.585938 7.796875 -10.046875 L 7.484375 -6.328125 C 7.347656 -4.972656 7.296875 -3.773438 7.328125 -2.734375 C 11.578125 -2.679688 16.953125 -3.6875 23.453125 -5.75 C 23.734375 -5.820312 23.992188 -5.859375 24.234375 -5.859375 C 24.941406 -5.859375 25.53125 -5.582031 26 -5.03125 C 26.40625 -4.53125 26.609375 -3.953125 26.609375 -3.296875 C 26.609375 -2.253906 26.085938 -1.488281 25.046875 -1 Z M 25.046875 -1 "/></g></g><g style="fill:#000000;fill-opacity:1;"><g transform="translate(174.029918, 158.973263)"><path style="stroke:none" d="M 8.0625 -30.9375 C 7.28125 -30.9375 6.601562 -31.210938 6.03125 -31.765625 C 5.46875 -32.316406 5.1875 -32.984375 5.1875 -33.765625 C 5.1875 -34.546875 5.46875 -35.210938 6.03125 -35.765625 C 6.601562 -36.328125 7.28125 -36.609375 8.0625 -36.609375 C 8.84375 -36.609375 9.515625 -36.328125 10.078125 -35.765625 C 10.640625 -35.210938 10.921875 -34.546875 10.921875 -33.765625 C 10.921875 -32.984375 10.640625 -32.316406 10.078125 -31.765625 C 9.515625 -31.210938 8.84375 -30.9375 8.0625 -30.9375 Z M 9.15625 -11.09375 C 9.15625 -10.113281 9.179688 -8.648438 9.234375 -6.703125 C 9.296875 -4.753906 9.328125 -3.296875 9.328125 -2.328125 C 9.328125 -1.609375 9.109375 -1.019531 8.671875 -0.5625 C 8.234375 -0.101562 7.65625 0.125 6.9375 0.125 C 6.238281 0.125 5.664062 -0.101562 5.21875 -0.5625 C 4.769531 -1.019531 4.546875 -1.609375 4.546875 -2.328125 C 4.546875 -3.296875 4.515625 -4.753906 4.453125 -6.703125 C 4.398438 -8.648438 4.375 -10.113281 4.375 -11.09375 C 4.375 -12.625 4.453125 -14.535156 4.609375 -16.828125 C 4.773438 -19.117188 4.859375 -21.03125 4.859375 -22.5625 C 4.859375 -23.289062 5.082031 -23.882812 5.53125 -24.34375 C 5.976562 -24.800781 6.550781 -25.03125 7.25 -25.03125 C 7.957031 -25.03125 8.535156 -24.800781 8.984375 -24.34375 C 9.429688 -23.882812 9.65625 -23.289062 9.65625 -22.5625 C 9.65625 -21.03125 9.570312 -19.117188 9.40625 -16.828125 C 9.238281 -14.535156 9.15625 -12.625 9.15625 -11.09375 Z M 9.15625 -11.09375 "/></g></g><g style="fill:#000000;fill-opacity:1;"><g transform="translate(188.054893, 158.973263)"><path style="stroke:none" d="M 19.75 -20.8125 C 19.40625 -20.8125 19 -20.828125 18.53125 -20.859375 C 18.070312 -20.898438 17.671875 -20.921875 17.328125 -20.921875 C 16.953125 -20.921875 15.84375 -20.796875 14 -20.546875 L 14.46875 -6.109375 L 14.484375 -5.03125 L 14.515625 -3.78125 C 14.578125 -0.21875 13.722656 1.5625 11.953125 1.5625 C 11.296875 1.5625 10.726562 1.347656 10.25 0.921875 C 9.769531 0.503906 9.53125 -0.0195312 9.53125 -0.65625 C 9.53125 -1.28125 9.550781 -2.207031 9.59375 -3.4375 C 9.644531 -4.675781 9.671875 -5.609375 9.671875 -6.234375 L 9.1875 -20.5 C 8 -20.550781 6.191406 -20.691406 3.765625 -20.921875 C 2.316406 -21.117188 1.59375 -21.925781 1.59375 -23.34375 C 1.59375 -24.050781 1.8125 -24.640625 2.25 -25.109375 C 2.6875 -25.585938 3.25 -25.828125 3.9375 -25.828125 L 9.0625 -25.421875 C 9.0625 -26.242188 9.023438 -27.351562 8.953125 -28.75 C 8.878906 -30.144531 8.84375 -31.148438 8.84375 -31.765625 C 8.84375 -32.453125 9.078125 -33.019531 9.546875 -33.46875 C 10.023438 -33.914062 10.609375 -34.140625 11.296875 -34.140625 C 12.753906 -34.140625 13.609375 -32.941406 13.859375 -30.546875 C 13.898438 -29.941406 13.921875 -29.21875 13.921875 -28.375 L 13.875 -26.953125 L 13.859375 -25.4375 C 15.878906 -25.695312 17.035156 -25.828125 17.328125 -25.828125 C 19.023438 -25.828125 20.132812 -25.742188 20.65625 -25.578125 C 21.644531 -25.253906 22.140625 -24.488281 22.140625 -23.28125 C 22.140625 -22.570312 21.914062 -21.984375 21.46875 -21.515625 C 21.019531 -21.046875 20.445312 -20.8125 19.75 -20.8125 Z M 19.75 -20.8125 "/></g></g><g style="fill:#000000;fill-opacity:1;"><g transform="translate(211.633472, 158.973263)"><path style="stroke:none" d="M 14.8125 1.125 C 11.125 1.125 8.140625 0.203125 5.859375 -1.640625 C 3.367188 -3.671875 2.125 -6.519531 2.125 -10.1875 C 2.125 -14.425781 3.148438 -17.976562 5.203125 -20.84375 C 7.429688 -23.96875 10.414062 -25.53125 14.15625 -25.53125 C 16.851562 -25.53125 19.054688 -25.078125 20.765625 -24.171875 C 22.867188 -23.046875 23.921875 -21.316406 23.921875 -18.984375 C 23.921875 -17.359375 23 -15.878906 21.15625 -14.546875 C 20.34375 -13.953125 18.617188 -13.035156 15.984375 -11.796875 L 6.640625 -7.375 C 7.554688 -6.03125 8.691406 -5.015625 10.046875 -4.328125 C 11.410156 -3.640625 13 -3.296875 14.8125 -3.296875 C 15.9375 -3.296875 17.253906 -3.507812 18.765625 -3.9375 C 20.691406 -4.46875 21.929688 -5.171875 22.484375 -6.046875 C 23.035156 -6.921875 23.628906 -7.359375 24.265625 -7.359375 C 24.835938 -7.359375 25.347656 -7.140625 25.796875 -6.703125 C 26.242188 -6.273438 26.46875 -5.773438 26.46875 -5.203125 C 26.46875 -3.398438 25.007812 -1.84375 22.09375 -0.53125 C 19.601562 0.570312 17.175781 1.125 14.8125 1.125 Z M 14.15625 -21.140625 C 12.164062 -21.140625 10.507812 -20.367188 9.1875 -18.828125 C 7.863281 -17.285156 6.878906 -14.96875 6.234375 -11.875 L 13.734375 -15.4375 C 16.679688 -16.875 18.78125 -18.125 20.03125 -19.1875 C 18.632812 -20.488281 16.675781 -21.140625 14.15625 -21.140625 Z M 14.15625 -21.140625 "/></g></g><g style="fill:#000000;fill-opacity:1;"><g transform="translate(239.048144, 158.973263)"><path style="stroke:none" d="M 22.40625 -18.0625 C 22.289062 -16.019531 21.476562 -15 19.96875 -15 C 18.5625 -15 17.859375 -15.804688 17.859375 -17.421875 C 17.859375 -17.734375 17.835938 -18.304688 17.796875 -19.140625 L 17.71875 -21.1875 C 15.144531 -20.875 13.082031 -20.148438 11.53125 -19.015625 C 10.082031 -17.953125 8.878906 -16.351562 7.921875 -14.21875 L 7.96875 -0.828125 C 7.96875 0.816406 7.160156 1.640625 5.546875 1.640625 C 4.109375 1.640625 3.390625 0.816406 3.390625 -0.828125 L 3.390625 -17.984375 C 3.390625 -18.523438 3.410156 -19.332031 3.453125 -20.40625 C 3.492188 -21.476562 3.515625 -22.285156 3.515625 -22.828125 C 3.515625 -24.472656 4.234375 -25.296875 5.671875 -25.296875 C 7.265625 -25.296875 8.070312 -23.941406 8.09375 -21.234375 C 11.21875 -24.242188 14.6875 -25.75 18.5 -25.75 C 19.820312 -25.75 20.804688 -25.253906 21.453125 -24.265625 C 22.109375 -23.273438 22.4375 -21.773438 22.4375 -19.765625 C 22.4375 -18.921875 22.425781 -18.351562 22.40625 -18.0625 Z M 22.40625 -18.0625 "/></g></g><g style="fill:#000000;fill-opacity:1;"><g transform="translate(263.090959, 158.973263)"><path style="stroke:none" d="M 22.484375 1.609375 C 22.171875 1.609375 21.609375 1.25 20.796875 0.53125 C 20.066406 -0.132812 19.519531 -0.726562 19.15625 -1.25 C 17.59375 -0.394531 16.21875 0.242188 15.03125 0.671875 C 13.84375 1.097656 12.847656 1.3125 12.046875 1.3125 C 8.234375 1.3125 5.457031 0.238281 3.71875 -1.90625 C 2.070312 -3.925781 1.25 -7.019531 1.25 -11.1875 C 1.25 -15.132812 2.601562 -18.507812 5.3125 -21.3125 C 8.03125 -24.113281 11.269531 -25.515625 15.03125 -25.515625 C 16.445312 -25.515625 18.035156 -25.144531 19.796875 -24.40625 C 22.015625 -23.5 23.125 -22.398438 23.125 -21.109375 C 23.125 -20.671875 22.957031 -20.28125 22.625 -19.9375 C 22.46875 -19.320312 22.34375 -18.304688 22.25 -16.890625 C 22.15625 -15.472656 22.101562 -13.65625 22.09375 -11.4375 C 22.070312 -9.414062 22.207031 -7.816406 22.5 -6.640625 C 22.664062 -5.929688 23.179688 -4.5 24.046875 -2.34375 C 24.160156 -2.050781 24.347656 -1.617188 24.609375 -1.046875 L 24.75 -0.640625 C 24.75 0.015625 24.519531 0.550781 24.0625 0.96875 C 23.613281 1.394531 23.085938 1.609375 22.484375 1.609375 Z M 17.40625 -15.375 C 17.40625 -16.070312 17.445312 -16.832031 17.53125 -17.65625 C 17.625 -18.476562 17.757812 -19.351562 17.9375 -20.28125 C 17.332031 -20.59375 16.8125 -20.820312 16.375 -20.96875 C 15.945312 -21.113281 15.601562 -21.1875 15.34375 -21.1875 C 12.820312 -21.1875 10.644531 -20.15625 8.8125 -18.09375 C 6.976562 -16.03125 6.0625 -13.65625 6.0625 -10.96875 C 6.0625 -8.300781 6.53125 -6.296875 7.46875 -4.953125 C 8.414062 -3.617188 9.835938 -2.953125 11.734375 -2.953125 C 13.296875 -2.953125 14.625 -3.238281 15.71875 -3.8125 C 16.300781 -4.125 17.125 -4.742188 18.1875 -5.671875 C 17.664062 -9.984375 17.40625 -13.21875 17.40625 -15.375 Z M 17.40625 -15.375 "/></g></g><g style="fill:#000000;fill-opacity:1;"><g transform="translate(288.697534, 158.973263)"><path style="stroke:none" d="M 9.609375 -19.203125 L 9.234375 -7.0625 C 9.234375 -5.769531 9.171875 -3.878906 9.046875 -1.390625 C 8.878906 0.234375 8.078125 1.046875 6.640625 1.046875 C 5.046875 1.046875 4.25 0.21875 4.25 -1.4375 C 4.25 -3.414062 4.335938 -6.378906 4.515625 -10.328125 C 4.703125 -14.273438 4.796875 -17.234375 4.796875 -19.203125 C 4.796875 -21.773438 4.832031 -24.71875 4.90625 -28.03125 C 4.988281 -31.351562 5.03125 -34.300781 5.03125 -36.875 C 5.03125 -38.5 5.828125 -39.3125 7.421875 -39.3125 C 9.035156 -39.3125 9.84375 -38.5 9.84375 -36.875 C 9.84375 -34.300781 9.800781 -31.351562 9.71875 -28.03125 C 9.644531 -24.71875 9.609375 -21.773438 9.609375 -19.203125 Z M 9.609375 -19.203125 "/></g></g><g style="fill:#000000;fill-opacity:1;"><g transform="translate(302.404876, 158.973263)"><path style="stroke:none" d="M 9.609375 -19.203125 L 9.234375 -7.0625 C 9.234375 -5.769531 9.171875 -3.878906 9.046875 -1.390625 C 8.878906 0.234375 8.078125 1.046875 6.640625 1.046875 C 5.046875 1.046875 4.25 0.21875 4.25 -1.4375 C 4.25 -3.414062 4.335938 -6.378906 4.515625 -10.328125 C 4.703125 -14.273438 4.796875 -17.234375 4.796875 -19.203125 C 4.796875 -21.773438 4.832031 -24.71875 4.90625 -28.03125 C 4.988281 -31.351562 5.03125 -34.300781 5.03125 -36.875 C 5.03125 -38.5 5.828125 -39.3125 7.421875 -39.3125 C 9.035156 -39.3125 9.84375 -38.5 9.84375 -36.875 C 9.84375 -34.300781 9.800781 -31.351562 9.71875 -28.03125 C 9.644531 -24.71875 9.609375 -21.773438 9.609375 -19.203125 Z M 9.609375 -19.203125 "/></g></g><g style="fill:#000000;fill-opacity:1;"><g transform="translate(316.112218, 158.973263)"><path style="stroke:none" d="M 24.703125 -21.796875 L 16.25 -3.515625 C 14.164062 0.929688 12.566406 4.65625 11.453125 7.65625 L 9.84375 12.390625 C 9.425781 13.566406 8.695312 14.15625 7.65625 14.15625 C 6.96875 14.15625 6.375 13.929688 5.875 13.484375 C 5.375 13.035156 5.125 12.472656 5.125 11.796875 C 5.125 10.171875 6.882812 5.457031 10.40625 -2.34375 L 1.65625 -19.1875 L 0.5625 -20.96875 C 0.125 -21.71875 -0.09375 -22.34375 -0.09375 -22.84375 C -0.09375 -23.507812 0.160156 -24.09375 0.671875 -24.59375 C 1.179688 -25.101562 1.753906 -25.359375 2.390625 -25.359375 C 3.140625 -25.359375 3.71875 -25.078125 4.125 -24.515625 C 6.894531 -20.671875 9.867188 -15.195312 13.046875 -8.09375 L 16.671875 -16.515625 C 17.972656 -19.429688 19.222656 -21.941406 20.421875 -24.046875 C 20.953125 -24.960938 21.640625 -25.421875 22.484375 -25.421875 C 23.148438 -25.421875 23.738281 -25.179688 24.25 -24.703125 C 24.769531 -24.234375 25.03125 -23.671875 25.03125 -23.015625 C 25.03125 -22.660156 24.921875 -22.253906 24.703125 -21.796875 Z M 24.703125 -21.796875 "/></g></g><g style="fill:#000000;fill-opacity:1;"><g transform="translate(88.926412, 228.312992)"><path style="stroke:none" d="M 12.5625 1.4375 C 9.820312 1.4375 7.46875 0.425781 5.5 -1.59375 C 3.300781 -3.832031 2.144531 -6.851562 2.03125 -10.65625 C 1.925781 -14.332031 2.851562 -17.570312 4.8125 -20.375 C 7.09375 -23.6875 10.269531 -25.34375 14.34375 -25.34375 C 17.601562 -25.34375 20.070312 -23.851562 21.75 -20.875 C 23.082031 -18.457031 23.722656 -15.554688 23.671875 -12.171875 C 23.628906 -8.554688 22.6875 -5.46875 20.84375 -2.90625 C 18.757812 -0.0078125 16 1.4375 12.5625 1.4375 Z M 14.03125 -20.375 C 11.632812 -20.394531 9.769531 -19.253906 8.4375 -16.953125 C 7.375 -15.117188 6.84375 -13.019531 6.84375 -10.65625 C 6.84375 -8.289062 7.484375 -6.445312 8.765625 -5.125 C 9.847656 -4.039062 11.113281 -3.5 12.5625 -3.5 C 14.257812 -3.5 15.71875 -4.117188 16.9375 -5.359375 C 18.320312 -6.722656 19.054688 -8.570312 19.140625 -10.90625 C 19.359375 -17.207031 17.65625 -20.363281 14.03125 -20.375 Z M 14.03125 -20.375 "/></g></g><g style="fill:#000000;fill-opacity:1;"><g transform="translate(115.241572, 228.312992)"><path style="stroke:none" d="M 22.140625 1.734375 C 20.734375 1.734375 19.941406 0.96875 19.765625 -0.5625 L 19.078125 -5.90625 C 18.859375 -7.8125 18.75 -9.597656 18.75 -11.265625 C 18.75 -11.722656 18.773438 -12.492188 18.828125 -13.578125 C 18.890625 -14.671875 18.921875 -15.445312 18.921875 -15.90625 C 18.921875 -19.425781 18.265625 -21.1875 16.953125 -21.1875 C 15.128906 -21.1875 13.390625 -20.101562 11.734375 -17.9375 C 10.234375 -15.96875 9.054688 -13.472656 8.203125 -10.453125 C 8.171875 -9.816406 8.097656 -9.019531 7.984375 -8.0625 C 7.890625 -7.25 7.84375 -6.457031 7.84375 -5.6875 C 7.84375 -5.195312 7.890625 -4.460938 7.984375 -3.484375 C 8.085938 -2.515625 8.140625 -1.785156 8.140625 -1.296875 C 8.140625 -0.566406 7.914062 0.0234375 7.46875 0.484375 C 7.019531 0.941406 6.445312 1.171875 5.75 1.171875 C 5.03125 1.171875 4.445312 0.941406 4 0.484375 C 3.5625 0.0234375 3.34375 -0.566406 3.34375 -1.296875 C 3.34375 -1.785156 3.289062 -2.515625 3.1875 -3.484375 C 3.082031 -4.460938 3.03125 -5.195312 3.03125 -5.6875 C 3.03125 -7.363281 3.144531 -9.6875 3.375 -12.65625 C 3.613281 -15.632812 3.734375 -17.960938 3.734375 -19.640625 C 3.734375 -20.160156 3.703125 -20.9375 3.640625 -21.96875 C 3.585938 -23 3.5625 -23.773438 3.5625 -24.296875 C 3.5625 -24.992188 3.789062 -25.566406 4.25 -26.015625 C 4.71875 -26.460938 5.296875 -26.6875 5.984375 -26.6875 C 7.484375 -26.6875 8.304688 -25.628906 8.453125 -23.515625 L 8.53125 -20.65625 C 11.269531 -24.300781 14.078125 -26.125 16.953125 -26.125 C 19.566406 -26.125 21.382812 -24.972656 22.40625 -22.671875 C 23.101562 -21.140625 23.488281 -18.878906 23.5625 -15.890625 L 23.5625 -13.421875 L 23.53125 -11.140625 C 23.53125 -9.785156 23.703125 -8.035156 24.046875 -5.890625 C 24.398438 -3.753906 24.578125 -2.019531 24.578125 -0.6875 C 24.578125 0.03125 24.34375 0.613281 23.875 1.0625 C 23.414062 1.507812 22.835938 1.734375 22.140625 1.734375 Z M 22.140625 1.734375 "/></g></g><g style="fill:#000000;fill-opacity:1;"><g transform="translate(141.434557, 228.312992)"><path style="stroke:none" d=""/></g></g><g style="fill:#000000;fill-opacity:1;"><g transform="translate(156.388014, 228.312992)"><path style="stroke:none" d="M 14.4375 1.546875 C 11.101562 1.546875 8.316406 0.535156 6.078125 -1.484375 C 3.734375 -3.609375 2.5625 -6.40625 2.5625 -9.875 C 2.5625 -13.175781 3.660156 -16.585938 5.859375 -20.109375 C 8.304688 -24.015625 11.0625 -25.96875 14.125 -25.96875 C 15.71875 -25.96875 17.5 -25.597656 19.46875 -24.859375 C 21.96875 -23.890625 23.21875 -22.710938 23.21875 -21.328125 C 23.21875 -20.710938 23.015625 -20.164062 22.609375 -19.6875 C 22.203125 -19.207031 21.695312 -18.96875 21.09375 -18.96875 C 20.613281 -18.96875 20.195312 -19.109375 19.84375 -19.390625 C 19.5 -19.671875 19.164062 -19.953125 18.84375 -20.234375 C 17.882812 -20.992188 16.3125 -21.375 14.125 -21.375 C 12.457031 -21.375 10.8125 -19.894531 9.1875 -16.9375 C 7.707031 -14.21875 6.96875 -11.863281 6.96875 -9.875 C 6.96875 -7.71875 7.695312 -6.023438 9.15625 -4.796875 C 10.53125 -3.628906 12.289062 -3.046875 14.4375 -3.046875 C 15.414062 -3.046875 16.457031 -3.3125 17.5625 -3.84375 L 20.40625 -5.359375 C 20.894531 -5.617188 21.242188 -5.75 21.453125 -5.75 C 22.054688 -5.75 22.578125 -5.503906 23.015625 -5.015625 C 23.453125 -4.535156 23.671875 -3.988281 23.671875 -3.375 C 23.671875 -2.1875 22.421875 -1.035156 19.921875 0.078125 C 17.710938 1.054688 15.882812 1.546875 14.4375 1.546875 Z M 14.4375 1.546875 "/></g></g><g style="fill:#000000;fill-opacity:1;"><g transform="translate(182.092324, 228.312992)"><path style="stroke:none" d="M 23.84375 1.515625 C 22.6875 1.515625 21.929688 0.894531 21.578125 -0.34375 C 21.203125 -1.675781 20.859375 -3.570312 20.546875 -6.03125 C 20.253906 -8.394531 20.109375 -10.335938 20.109375 -11.859375 C 20.109375 -12.273438 20.128906 -12.914062 20.171875 -13.78125 C 20.210938 -14.644531 20.234375 -15.289062 20.234375 -15.71875 C 20.234375 -18.78125 19.46875 -20.3125 17.9375 -20.3125 C 15.863281 -20.3125 14.015625 -19.375 12.390625 -17.5 C 11.554688 -16.539062 10.414062 -14.707031 8.96875 -12 C 8.96875 -5.789062 8.707031 -2.117188 8.1875 -0.984375 C 7.726562 0.0234375 7.019531 0.53125 6.0625 0.53125 C 5.394531 0.53125 4.804688 0.304688 4.296875 -0.140625 C 3.796875 -0.597656 3.546875 -1.15625 3.546875 -1.8125 C 3.546875 -2.039062 3.617188 -2.398438 3.765625 -2.890625 C 3.890625 -3.296875 3.976562 -4.484375 4.03125 -6.453125 L 4.109375 -10.0625 L 4.171875 -28.03125 C 4.285156 -30.050781 4.34375 -31.410156 4.34375 -32.109375 C 4.34375 -32.941406 4.265625 -33.726562 4.109375 -34.46875 C 3.960938 -35.207031 3.890625 -35.976562 3.890625 -36.78125 C 3.890625 -37.457031 4.125 -38.019531 4.59375 -38.46875 C 5.0625 -38.914062 5.640625 -39.140625 6.328125 -39.140625 C 7.660156 -39.140625 8.441406 -38.425781 8.671875 -37 C 8.929688 -35.414062 9.0625 -33.988281 9.0625 -32.71875 C 9.0625 -31.007812 9.003906 -29.226562 8.890625 -27.375 C 8.796875 -25.59375 8.753906 -23.804688 8.765625 -22.015625 L 8.796875 -19.875 C 10.128906 -21.664062 11.554688 -23.003906 13.078125 -23.890625 C 14.609375 -24.773438 16.226562 -25.21875 17.9375 -25.21875 C 20.644531 -25.21875 22.503906 -24.335938 23.515625 -22.578125 C 24.222656 -21.335938 24.628906 -19.253906 24.734375 -16.328125 L 24.921875 -11.65625 L 25.421875 -6.578125 C 25.640625 -4.671875 25.914062 -2.992188 26.25 -1.546875 C 26.3125 -1.265625 26.34375 -1.023438 26.34375 -0.828125 C 26.34375 -0.160156 26.097656 0.394531 25.609375 0.84375 C 25.117188 1.289062 24.53125 1.515625 23.84375 1.515625 Z M 23.84375 1.515625 "/></g></g><g style="fill:#000000;fill-opacity:1;"><g transform="translate(210.997461, 228.312992)"><path style="stroke:none" d="M 22.484375 1.609375 C 22.171875 1.609375 21.609375 1.25 20.796875 0.53125 C 20.066406 -0.132812 19.519531 -0.726562 19.15625 -1.25 C 17.59375 -0.394531 16.21875 0.242188 15.03125 0.671875 C 13.84375 1.097656 12.847656 1.3125 12.046875 1.3125 C 8.234375 1.3125 5.457031 0.238281 3.71875 -1.90625 C 2.070312 -3.925781 1.25 -7.019531 1.25 -11.1875 C 1.25 -15.132812 2.601562 -18.507812 5.3125 -21.3125 C 8.03125 -24.113281 11.269531 -25.515625 15.03125 -25.515625 C 16.445312 -25.515625 18.035156 -25.144531 19.796875 -24.40625 C 22.015625 -23.5 23.125 -22.398438 23.125 -21.109375 C 23.125 -20.671875 22.957031 -20.28125 22.625 -19.9375 C 22.46875 -19.320312 22.34375 -18.304688 22.25 -16.890625 C 22.15625 -15.472656 22.101562 -13.65625 22.09375 -11.4375 C 22.070312 -9.414062 22.207031 -7.816406 22.5 -6.640625 C 22.664062 -5.929688 23.179688 -4.5 24.046875 -2.34375 C 24.160156 -2.050781 24.347656 -1.617188 24.609375 -1.046875 L 24.75 -0.640625 C 24.75 0.015625 24.519531 0.550781 24.0625 0.96875 C 23.613281 1.394531 23.085938 1.609375 22.484375 1.609375 Z M 17.40625 -15.375 C 17.40625 -16.070312 17.445312 -16.832031 17.53125 -17.65625 C 17.625 -18.476562 17.757812 -19.351562 17.9375 -20.28125 C 17.332031 -20.59375 16.8125 -20.820312 16.375 -20.96875 C 15.945312 -21.113281 15.601562 -21.1875 15.34375 -21.1875 C 12.820312 -21.1875 10.644531 -20.15625 8.8125 -18.09375 C 6.976562 -16.03125 6.0625 -13.65625 6.0625 -10.96875 C 6.0625 -8.300781 6.53125 -6.296875 7.46875 -4.953125 C 8.414062 -3.617188 9.835938 -2.953125 11.734375 -2.953125 C 13.296875 -2.953125 14.625 -3.238281 15.71875 -3.8125 C 16.300781 -4.125 17.125 -4.742188 18.1875 -5.671875 C 17.664062 -9.984375 17.40625 -13.21875 17.40625 -15.375 Z M 17.40625 -15.375 "/></g></g><g style="fill:#000000;fill-opacity:1;"><g transform="translate(236.604036, 228.312992)"><path style="stroke:none" d="M 8.0625 -30.9375 C 7.28125 -30.9375 6.601562 -31.210938 6.03125 -31.765625 C 5.46875 -32.316406 5.1875 -32.984375 5.1875 -33.765625 C 5.1875 -34.546875 5.46875 -35.210938 6.03125 -35.765625 C 6.601562 -36.328125 7.28125 -36.609375 8.0625 -36.609375 C 8.84375 -36.609375 9.515625 -36.328125 10.078125 -35.765625 C 10.640625 -35.210938 10.921875 -34.546875 10.921875 -33.765625 C 10.921875 -32.984375 10.640625 -32.316406 10.078125 -31.765625 C 9.515625 -31.210938 8.84375 -30.9375 8.0625 -30.9375 Z M 9.15625 -11.09375 C 9.15625 -10.113281 9.179688 -8.648438 9.234375 -6.703125 C 9.296875 -4.753906 9.328125 -3.296875 9.328125 -2.328125 C 9.328125 -1.609375 9.109375 -1.019531 8.671875 -0.5625 C 8.234375 -0.101562 7.65625 0.125 6.9375 0.125 C 6.238281 0.125 5.664062 -0.101562 5.21875 -0.5625 C 4.769531 -1.019531 4.546875 -1.609375 4.546875 -2.328125 C 4.546875 -3.296875 4.515625 -4.753906 4.453125 -6.703125 C 4.398438 -8.648438 4.375 -10.113281 4.375 -11.09375 C 4.375 -12.625 4.453125 -14.535156 4.609375 -16.828125 C 4.773438 -19.117188 4.859375 -21.03125 4.859375 -22.5625 C 4.859375 -23.289062 5.082031 -23.882812 5.53125 -24.34375 C 5.976562 -24.800781 6.550781 -25.03125 7.25 -25.03125 C 7.957031 -25.03125 8.535156 -24.800781 8.984375 -24.34375 C 9.429688 -23.882812 9.65625 -23.289062 9.65625 -22.5625 C 9.65625 -21.03125 9.570312 -19.117188 9.40625 -16.828125 C 9.238281 -14.535156 9.15625 -12.625 9.15625 -11.09375 Z M 9.15625 -11.09375 "/></g></g><g style="fill:#000000;fill-opacity:1;"><g transform="translate(250.629011, 228.312992)"><path style="stroke:none" d="M 22.140625 1.734375 C 20.734375 1.734375 19.941406 0.96875 19.765625 -0.5625 L 19.078125 -5.90625 C 18.859375 -7.8125 18.75 -9.597656 18.75 -11.265625 C 18.75 -11.722656 18.773438 -12.492188 18.828125 -13.578125 C 18.890625 -14.671875 18.921875 -15.445312 18.921875 -15.90625 C 18.921875 -19.425781 18.265625 -21.1875 16.953125 -21.1875 C 15.128906 -21.1875 13.390625 -20.101562 11.734375 -17.9375 C 10.234375 -15.96875 9.054688 -13.472656 8.203125 -10.453125 C 8.171875 -9.816406 8.097656 -9.019531 7.984375 -8.0625 C 7.890625 -7.25 7.84375 -6.457031 7.84375 -5.6875 C 7.84375 -5.195312 7.890625 -4.460938 7.984375 -3.484375 C 8.085938 -2.515625 8.140625 -1.785156 8.140625 -1.296875 C 8.140625 -0.566406 7.914062 0.0234375 7.46875 0.484375 C 7.019531 0.941406 6.445312 1.171875 5.75 1.171875 C 5.03125 1.171875 4.445312 0.941406 4 0.484375 C 3.5625 0.0234375 3.34375 -0.566406 3.34375 -1.296875 C 3.34375 -1.785156 3.289062 -2.515625 3.1875 -3.484375 C 3.082031 -4.460938 3.03125 -5.195312 3.03125 -5.6875 C 3.03125 -7.363281 3.144531 -9.6875 3.375 -12.65625 C 3.613281 -15.632812 3.734375 -17.960938 3.734375 -19.640625 C 3.734375 -20.160156 3.703125 -20.9375 3.640625 -21.96875 C 3.585938 -23 3.5625 -23.773438 3.5625 -24.296875 C 3.5625 -24.992188 3.789062 -25.566406 4.25 -26.015625 C 4.71875 -26.460938 5.296875 -26.6875 5.984375 -26.6875 C 7.484375 -26.6875 8.304688 -25.628906 8.453125 -23.515625 L 8.53125 -20.65625 C 11.269531 -24.300781 14.078125 -26.125 16.953125 -26.125 C 19.566406 -26.125 21.382812 -24.972656 22.40625 -22.671875 C 23.101562 -21.140625 23.488281 -18.878906 23.5625 -15.890625 L 23.5625 -13.421875 L 23.53125 -11.140625 C 23.53125 -9.785156 23.703125 -8.035156 24.046875 -5.890625 C 24.398438 -3.753906 24.578125 -2.019531 24.578125 -0.6875 C 24.578125 0.03125 24.34375 0.613281 23.875 1.0625 C 23.414062 1.507812 22.835938 1.734375 22.140625 1.734375 Z M 22.140625 1.734375 "/></g></g><g style="fill:#000000;fill-opacity:1;"><g transform="translate(276.821996, 228.312992)"><path style="stroke:none" d="M 6.53125 2.265625 C 5.675781 2.265625 4.957031 1.972656 4.375 1.390625 C 3.789062 0.804688 3.5 0.09375 3.5 -0.75 C 3.5 -1.582031 3.789062 -2.296875 4.375 -2.890625 C 4.957031 -3.484375 5.675781 -3.78125 6.53125 -3.78125 C 7.351562 -3.78125 8.0625 -3.484375 8.65625 -2.890625 C 9.257812 -2.296875 9.5625 -1.582031 9.5625 -0.75 C 9.5625 0.09375 9.257812 0.804688 8.65625 1.390625 C 8.0625 1.972656 7.351562 2.265625 6.53125 2.265625 Z M 6.53125 2.265625 "/></g></g></g></svg>