<svg xmlns="http://www.w3.org/2000/svg" xmlns:xlink="http://www.w3.org/1999/xlink" width="500" zoomAndPan="magnify" viewBox="0 0 375 374.999991" height="500" preserveAspectRatio="xMidYMid meet" version="1.2"><defs/><g id="deaa0795e9"><path style=" stroke:none;fill-rule:nonzero;fill:#ffffff;fill-opacity:1;" d="M 276.933594 270.589844 C 203.195312 276.296875 142.351562 277.601562 68.457031 276.820312 C 47.445312 276.597656 23.21875 274.238281 11.058594 254.242188 C 4.597656 243.617188 3.046875 230.039062 2.351562 217.035156 C 0.378906 180.304688 3.679688 143.195312 12.070312 107.714844 C 16.113281 90.601562 22.050781 72.742188 34.585938 62.6875 C 46.6875 52.972656 62.378906 52.558594 77.070312 52.488281 C 156.601562 52.121094 236.921875 51.851562 314.542969 72.0625 C 332.527344 76.746094 352.050781 84 361.472656 102.480469 C 367.042969 113.417969 368.105469 126.597656 368.921875 139.285156 C 371.304688 176.382812 372.707031 213.566406 373.136719 250.761719 C 373.226562 258.308594 373.089844 266.511719 369.070312 272.425781 C 362.789062 281.660156 350.8125 280.648438 341.121094 283.984375 C 329.164062 288.097656 319.601562 300.5 317.351562 314.8125 C 320.144531 302.300781 316.742188 288.171875 308.777344 279.1875 C 300.808594 270.203125 292.496094 270.589844 277.976562 270.410156 C 277.726562 270.40625 277.484375 270.542969 277.230469 270.558594 "/><path style=" stroke:none;fill-rule:nonzero;fill:#100f0d;fill-opacity:1;" d="M 276.933594 269.441406 C 240.878906 272.222656 204.761719 274.160156 168.601562 275.105469 C 133.253906 276.023438 97.628906 276.835938 62.28125 275.535156 C 48.867188 275.042969 34.53125 273.273438 23.199219 265.476562 C 8.9375 255.65625 5.074219 238.527344 3.832031 222.257812 C 1.007812 185.34375 4.191406 147.648438 12.351562 111.574219 C 15.804688 96.3125 20.035156 79.570312 30.902344 67.722656 C 42.246094 55.355469 58.855469 53.800781 74.683594 53.652344 C 111.625 53.300781 148.640625 53.28125 185.550781 55.101562 C 222.992188 56.949219 260.417969 60.898438 297.050781 69.03125 C 311.976562 72.34375 327.730469 75.625 341.109375 83.355469 C 355.546875 91.703125 363.316406 104.921875 365.984375 121.179688 C 368.964844 139.355469 368.988281 158.292969 369.839844 176.660156 C 370.742188 196.003906 371.378906 215.355469 371.746094 234.710938 C 371.917969 243.703125 372.785156 253.109375 371.5 262.042969 C 370.210938 270.988281 365.246094 276.765625 356.566406 279.175781 C 350.617188 280.828125 344.335938 281.265625 338.625 283.734375 C 332.871094 286.21875 328 290.441406 324.273438 295.4375 C 320.078125 301.058594 317.429688 307.617188 316.246094 314.511719 C 316 315.941406 318.15625 316.578125 318.457031 315.117188 C 321.167969 302.007812 318.132812 287.003906 308.53125 277.246094 C 304.878906 273.539062 300.378906 271.171875 295.265625 270.21875 C 292.632812 269.722656 289.949219 269.53125 287.273438 269.425781 C 283.957031 269.292969 280.179688 268.800781 276.925781 269.453125 C 275.480469 269.746094 276.089844 271.957031 277.535156 271.667969 C 280.53125 271.0625 284.21875 271.59375 287.273438 271.71875 C 289.746094 271.820312 292.222656 271.972656 294.660156 272.429688 C 299.402344 273.3125 303.511719 275.410156 306.90625 278.867188 C 315.914062 288.03125 318.792969 302.199219 316.246094 314.511719 C 316.980469 314.710938 317.71875 314.914062 318.457031 315.117188 C 319.839844 307.0625 323.273438 299.453125 328.898438 293.460938 C 334.300781 287.703125 340.871094 284.847656 348.480469 283.277344 C 354.632812 282.011719 361.226562 281.085938 366.300781 277.066406 C 371.992188 272.554688 373.734375 265.347656 374.164062 258.417969 C 374.757812 248.789062 374.140625 238.996094 373.933594 229.363281 C 373.714844 219.429688 373.429688 209.496094 373.074219 199.566406 C 372.359375 179.464844 371.367188 159.363281 370.066406 139.285156 C 369.046875 123.539062 367.617188 106.835938 357.363281 94.042969 C 348.535156 83.019531 335.25 76.976562 322.027344 72.96875 C 286.503906 62.203125 248.769531 57.382812 211.863281 54.480469 C 172.875 51.414062 133.738281 51.15625 94.648438 51.273438 C 78.382812 51.324219 60.277344 49.546875 44.789062 55.566406 C 31.015625 60.921875 22.671875 72.859375 17.382812 86.15625 C 10.726562 102.882812 7.535156 121.273438 4.898438 139 C 2.070312 158.007812 0.644531 177.222656 0.648438 196.4375 C 0.660156 213.632812 0.261719 232.878906 7.113281 249.003906 C 12.335938 261.300781 22.574219 269.667969 35.148438 273.742188 C 49.242188 278.308594 64.367188 277.949219 78.996094 278.066406 C 98.207031 278.21875 117.421875 278.21875 136.628906 277.996094 C 173.789062 277.554688 210.933594 276.1875 248.015625 273.789062 C 257.660156 273.167969 267.300781 272.476562 276.933594 271.734375 C 278.398438 271.621094 278.410156 269.332031 276.933594 269.441406 "/><path style=" stroke:none;fill-rule:nonzero;fill:#100f0d;fill-opacity:1;" d="M 108.308594 58.550781 C 97.597656 58.375 86.886719 58.542969 76.1875 59.105469 C 66.992188 59.589844 57.027344 59.554688 48.164062 62.351562 C 40.28125 64.839844 35.085938 70.535156 30.773438 77.335938 C 25.519531 85.621094 21.441406 94.566406 18.425781 103.882812 C 18.113281 104.859375 19.648438 105.277344 19.964844 104.304688 C 22.792969 95.550781 26.578125 87.15625 31.410156 79.316406 C 36.492188 71.070312 42.464844 65.019531 52.21875 62.941406 C 60.964844 61.082031 70.269531 60.960938 79.175781 60.550781 C 88.878906 60.105469 98.59375 59.984375 108.308594 60.140625 C 109.332031 60.15625 109.332031 58.566406 108.308594 58.550781 "/><path style=" stroke:none;fill-rule:nonzero;fill:#100f0d;fill-opacity:1;" d="M 363.679688 237.480469 C 364.511719 249.90625 363.746094 264.515625 352.960938 272.773438 C 347.648438 276.835938 341.070312 277.003906 335.023438 279.285156 C 330.402344 281.03125 326.5 283.941406 323.355469 287.726562 C 322.707031 288.507812 323.824219 289.636719 324.480469 288.851562 C 329.183594 283.191406 335.003906 280.695312 342 278.988281 C 347.75 277.582031 352.859375 275.714844 356.96875 271.277344 C 365.425781 262.148438 366.054688 249.242188 365.269531 237.480469 C 365.203125 236.464844 363.613281 236.457031 363.679688 237.480469 "/><path style=" stroke:none;fill-rule:nonzero;fill:#100f0d;fill-opacity:1;" d="M 336.585938 89.214844 C 342.960938 92.941406 347.867188 98.472656 350.726562 105.289062 C 351.121094 106.214844 352.660156 105.808594 352.265625 104.867188 C 349.238281 97.652344 344.152344 91.792969 337.390625 87.839844 C 336.503906 87.324219 335.703125 88.695312 336.585938 89.214844 "/><path style=" stroke:none;fill-rule:nonzero;fill:#100f0d;fill-opacity:1;" d="M 30.601562 119.929688 C 26.832031 122.15625 23.90625 125.167969 21.800781 129.011719 C 22.292969 129.144531 22.789062 129.277344 23.28125 129.414062 C 23.261719 124.410156 19.625 120.496094 14.675781 119.96875 C 14.746094 120.492188 14.816406 121.011719 14.890625 121.53125 C 19.089844 120.160156 22.554688 117.78125 25.289062 114.304688 C 24.835938 114.117188 24.382812 113.929688 23.929688 113.742188 C 24.007812 118.234375 27.703125 121.660156 32.210938 121.257812 C 33.222656 121.164062 33.234375 119.574219 32.210938 119.664062 C 28.601562 119.988281 25.585938 117.398438 25.523438 113.742188 C 25.511719 113.117188 24.613281 112.609375 24.164062 113.179688 C 21.609375 116.433594 18.410156 118.710938 14.464844 119.996094 C 13.574219 120.289062 13.800781 121.464844 14.675781 121.558594 C 18.777344 121.996094 21.671875 125.328125 21.6875 129.414062 C 21.691406 130.183594 22.789062 130.515625 23.171875 129.8125 C 25.152344 126.203125 27.859375 123.398438 31.40625 121.300781 C 32.289062 120.78125 31.488281 119.40625 30.601562 119.929688 "/><g style="fill:#000000;fill-opacity:1;"><g transform="translate(37.012301, 145.897219)"><path style="stroke:none" d="M 30.59375 2.0625 C 29.9375 2.0625 29.359375 1.875 28.859375 1.5 C 28.285156 1.070312 28 0.539062 28 -0.09375 C 27.332031 -1.820312 26.910156 -3.226562 26.734375 -4.3125 C 26.566406 -5.40625 26.003906 -8.5 25.046875 -13.59375 C 24.316406 -17.445312 23.828125 -20.539062 23.578125 -22.875 C 22.304688 -18.144531 20.941406 -14.140625 19.484375 -10.859375 C 17.785156 -7.054688 16.6875 -4.082031 16.1875 -1.9375 C 16.363281 -1.601562 16.453125 -1.28125 16.453125 -0.96875 C 16.453125 -0.320312 16.164062 0.207031 15.59375 0.625 C 15.070312 1.007812 14.484375 1.203125 13.828125 1.203125 C 11.890625 1.203125 10.921875 0.335938 10.921875 -1.390625 L 10.25 -4.125 L 7.90625 -14.65625 C 6.976562 -18.21875 5.390625 -23.316406 3.140625 -29.953125 C 3.035156 -30.265625 2.984375 -30.550781 2.984375 -30.8125 C 2.984375 -32.144531 3.738281 -32.8125 5.25 -32.8125 C 6.175781 -32.8125 6.890625 -32.300781 7.390625 -31.28125 C 7.648438 -30.769531 8.175781 -29.285156 8.96875 -26.828125 C 9.8125 -24.234375 10.65625 -21.109375 11.5 -17.453125 L 13.59375 -7.953125 C 15.125 -11.503906 16.648438 -15.832031 18.171875 -20.9375 C 19.097656 -24.050781 19.804688 -26.207031 20.296875 -27.40625 C 21.585938 -30.570312 22.84375 -32.15625 24.0625 -32.15625 C 25.0625 -32.15625 25.769531 -31.648438 26.1875 -30.640625 C 26.695312 -29.398438 27.21875 -26.460938 27.75 -21.828125 C 28.039062 -19.472656 28.53125 -16.644531 29.21875 -13.34375 L 31.0625 -4.90625 C 32.988281 -9.519531 35.390625 -15.757812 38.265625 -23.625 C 38.421875 -24.050781 38.78125 -25.40625 39.34375 -27.6875 C 39.757812 -29.363281 40.269531 -30.671875 40.875 -31.609375 C 41.382812 -32.390625 42.054688 -32.78125 42.890625 -32.78125 C 44.335938 -32.78125 45.0625 -32.066406 45.0625 -30.640625 C 45.0625 -30.390625 44.832031 -29.671875 44.375 -28.484375 L 43.515625 -26.171875 L 42.328125 -22.34375 L 35.953125 -6.8125 C 35.359375 -5.101562 34.347656 -2.625 32.921875 0.625 C 32.398438 1.582031 31.625 2.0625 30.59375 2.0625 Z M 30.59375 2.0625 "/></g></g><g style="fill:#000000;fill-opacity:1;"><g transform="translate(82.77805, 145.897219)"><path style="stroke:none" d="M 13.03125 0.984375 C 9.789062 0.984375 7.164062 0.175781 5.15625 -1.4375 C 2.96875 -3.226562 1.875 -5.738281 1.875 -8.96875 C 1.875 -12.695312 2.773438 -15.820312 4.578125 -18.34375 C 6.546875 -21.09375 9.171875 -22.46875 12.453125 -22.46875 C 14.828125 -22.46875 16.769531 -22.066406 18.28125 -21.265625 C 20.125 -20.273438 21.046875 -18.753906 21.046875 -16.703125 C 21.046875 -15.273438 20.238281 -13.972656 18.625 -12.796875 C 17.90625 -12.273438 16.382812 -11.472656 14.0625 -10.390625 L 5.84375 -6.5 C 6.644531 -5.300781 7.644531 -4.398438 8.84375 -3.796875 C 10.039062 -3.203125 11.4375 -2.90625 13.03125 -2.90625 C 14.019531 -2.90625 15.179688 -3.09375 16.515625 -3.46875 C 18.203125 -3.9375 19.289062 -4.550781 19.78125 -5.3125 C 20.269531 -6.082031 20.789062 -6.46875 21.34375 -6.46875 C 21.851562 -6.46875 22.300781 -6.273438 22.6875 -5.890625 C 23.082031 -5.515625 23.28125 -5.078125 23.28125 -4.578125 C 23.28125 -2.984375 22 -1.613281 19.4375 -0.46875 C 17.238281 0.5 15.101562 0.984375 13.03125 0.984375 Z M 12.453125 -18.59375 C 10.703125 -18.59375 9.242188 -17.914062 8.078125 -16.5625 C 6.921875 -15.207031 6.054688 -13.171875 5.484375 -10.453125 L 12.078125 -13.59375 C 14.671875 -14.851562 16.519531 -15.945312 17.625 -16.875 C 16.394531 -18.019531 14.671875 -18.59375 12.453125 -18.59375 Z M 12.453125 -18.59375 "/></g></g><g style="fill:#000000;fill-opacity:1;"><g transform="translate(106.896961, 145.897219)"><path style="stroke:none" d=""/></g></g><g style="fill:#000000;fill-opacity:1;"><g transform="translate(120.052731, 145.897219)"><path style="stroke:none" d="M 12.703125 1.359375 C 9.765625 1.359375 7.316406 0.46875 5.359375 -1.3125 C 3.285156 -3.175781 2.25 -5.632812 2.25 -8.6875 C 2.25 -11.59375 3.21875 -14.59375 5.15625 -17.6875 C 7.3125 -21.132812 9.734375 -22.859375 12.421875 -22.859375 C 13.828125 -22.859375 15.398438 -22.523438 17.140625 -21.859375 C 19.328125 -21.015625 20.421875 -19.984375 20.421875 -18.765625 C 20.421875 -18.222656 20.238281 -17.738281 19.875 -17.3125 C 19.519531 -16.894531 19.078125 -16.6875 18.546875 -16.6875 C 18.140625 -16.6875 17.78125 -16.8125 17.46875 -17.0625 C 17.15625 -17.3125 16.859375 -17.554688 16.578125 -17.796875 C 15.734375 -18.472656 14.347656 -18.8125 12.421875 -18.8125 C 10.960938 -18.8125 9.515625 -17.507812 8.078125 -14.90625 C 6.773438 -12.507812 6.125 -10.4375 6.125 -8.6875 C 6.125 -6.789062 6.769531 -5.300781 8.0625 -4.21875 C 9.269531 -3.195312 10.816406 -2.6875 12.703125 -2.6875 C 13.566406 -2.6875 14.484375 -2.914062 15.453125 -3.375 L 17.953125 -4.703125 C 18.378906 -4.929688 18.6875 -5.046875 18.875 -5.046875 C 19.40625 -5.046875 19.863281 -4.832031 20.25 -4.40625 C 20.632812 -3.988281 20.828125 -3.507812 20.828125 -2.96875 C 20.828125 -1.914062 19.722656 -0.90625 17.515625 0.0625 C 15.585938 0.925781 13.984375 1.359375 12.703125 1.359375 Z M 12.703125 1.359375 "/></g></g><g style="fill:#000000;fill-opacity:1;"><g transform="translate(142.666898, 145.897219)"><path style="stroke:none" d="M 19.78125 1.421875 C 19.507812 1.421875 19.015625 1.101562 18.296875 0.46875 C 17.648438 -0.113281 17.171875 -0.632812 16.859375 -1.09375 C 15.484375 -0.351562 14.269531 0.203125 13.21875 0.578125 C 12.175781 0.960938 11.300781 1.15625 10.59375 1.15625 C 7.238281 1.15625 4.796875 0.210938 3.265625 -1.671875 C 1.816406 -3.453125 1.09375 -6.175781 1.09375 -9.84375 C 1.09375 -13.3125 2.285156 -16.28125 4.671875 -18.75 C 7.054688 -21.21875 9.90625 -22.453125 13.21875 -22.453125 C 14.46875 -22.453125 15.867188 -22.128906 17.421875 -21.484375 C 19.367188 -20.679688 20.34375 -19.710938 20.34375 -18.578125 C 20.34375 -18.191406 20.195312 -17.847656 19.90625 -17.546875 C 19.757812 -17.003906 19.644531 -16.109375 19.5625 -14.859375 C 19.488281 -13.609375 19.445312 -12.007812 19.4375 -10.0625 C 19.425781 -8.28125 19.546875 -6.875 19.796875 -5.84375 C 19.941406 -5.21875 20.394531 -3.957031 21.15625 -2.0625 C 21.257812 -1.800781 21.425781 -1.421875 21.65625 -0.921875 L 21.78125 -0.5625 C 21.78125 0.0078125 21.578125 0.484375 21.171875 0.859375 C 20.773438 1.234375 20.3125 1.421875 19.78125 1.421875 Z M 15.3125 -13.515625 C 15.3125 -14.140625 15.347656 -14.8125 15.421875 -15.53125 C 15.503906 -16.257812 15.625 -17.03125 15.78125 -17.84375 C 15.25 -18.113281 14.789062 -18.3125 14.40625 -18.4375 C 14.03125 -18.570312 13.726562 -18.640625 13.5 -18.640625 C 11.28125 -18.640625 9.363281 -17.734375 7.75 -15.921875 C 6.132812 -14.109375 5.328125 -12.019531 5.328125 -9.65625 C 5.328125 -7.300781 5.742188 -5.535156 6.578125 -4.359375 C 7.410156 -3.179688 8.65625 -2.59375 10.3125 -2.59375 C 11.695312 -2.59375 12.867188 -2.847656 13.828125 -3.359375 C 14.335938 -3.628906 15.0625 -4.171875 16 -4.984375 C 15.539062 -8.785156 15.3125 -11.628906 15.3125 -13.515625 Z M 15.3125 -13.515625 "/></g></g><g style="fill:#000000;fill-opacity:1;"><g transform="translate(165.19508, 145.897219)"><path style="stroke:none" d="M 19.484375 1.53125 C 18.242188 1.53125 17.546875 0.851562 17.390625 -0.5 L 16.796875 -5.203125 C 16.585938 -6.878906 16.484375 -8.445312 16.484375 -9.90625 C 16.484375 -10.3125 16.507812 -10.992188 16.5625 -11.953125 C 16.613281 -12.910156 16.640625 -13.59375 16.640625 -14 C 16.640625 -17.09375 16.066406 -18.640625 14.921875 -18.640625 C 13.316406 -18.640625 11.78125 -17.6875 10.3125 -15.78125 C 9 -14.039062 7.96875 -11.847656 7.21875 -9.203125 C 7.195312 -8.640625 7.132812 -7.9375 7.03125 -7.09375 C 6.945312 -6.375 6.90625 -5.679688 6.90625 -5.015625 C 6.90625 -4.578125 6.945312 -3.925781 7.03125 -3.0625 C 7.113281 -2.207031 7.15625 -1.566406 7.15625 -1.140625 C 7.15625 -0.492188 6.957031 0.0234375 6.5625 0.421875 C 6.175781 0.828125 5.671875 1.03125 5.046875 1.03125 C 4.421875 1.03125 3.914062 0.828125 3.53125 0.421875 C 3.144531 0.0234375 2.953125 -0.492188 2.953125 -1.140625 C 2.953125 -1.566406 2.90625 -2.207031 2.8125 -3.0625 C 2.71875 -3.925781 2.671875 -4.578125 2.671875 -5.015625 C 2.671875 -6.484375 2.773438 -8.523438 2.984375 -11.140625 C 3.191406 -13.765625 3.296875 -15.8125 3.296875 -17.28125 C 3.296875 -17.738281 3.269531 -18.421875 3.21875 -19.328125 C 3.164062 -20.234375 3.140625 -20.914062 3.140625 -21.375 C 3.140625 -21.988281 3.34375 -22.492188 3.75 -22.890625 C 4.15625 -23.285156 4.660156 -23.484375 5.265625 -23.484375 C 6.585938 -23.484375 7.3125 -22.550781 7.4375 -20.6875 L 7.5 -18.171875 C 9.90625 -21.378906 12.378906 -22.984375 14.921875 -22.984375 C 17.210938 -22.984375 18.8125 -21.972656 19.71875 -19.953125 C 20.332031 -18.609375 20.664062 -16.613281 20.71875 -13.96875 L 20.71875 -11.796875 L 20.703125 -9.796875 C 20.703125 -8.609375 20.851562 -7.070312 21.15625 -5.1875 C 21.46875 -3.300781 21.625 -1.773438 21.625 -0.609375 C 21.625 0.0234375 21.421875 0.539062 21.015625 0.9375 C 20.609375 1.332031 20.097656 1.53125 19.484375 1.53125 Z M 19.484375 1.53125 "/></g></g><g style="fill:#000000;fill-opacity:1;"><g transform="translate(188.239174, 145.897219)"><path style="stroke:none" d=""/></g></g><g style="fill:#000000;fill-opacity:1;"><g transform="translate(201.394944, 145.897219)"><path style="stroke:none" d="M 30.296875 1.78125 C 29.117188 1.78125 28.429688 1.15625 28.234375 -0.09375 C 27.972656 -1.664062 27.710938 -3.882812 27.453125 -6.75 L 26.71875 -13.421875 C 26.582031 -14.410156 26.34375 -15.375 26 -16.3125 C 25.507812 -17.601562 24.976562 -18.25 24.40625 -18.25 C 23.875 -18.25 22.882812 -17.800781 21.4375 -16.90625 C 20.0625 -16.070312 19.15625 -15.40625 18.71875 -14.90625 C 18.707031 -13.550781 18.742188 -12.203125 18.828125 -10.859375 L 19.484375 -5.109375 C 19.753906 -2.847656 19.890625 -0.976562 19.890625 0.5 C 19.890625 1.125 19.691406 1.640625 19.296875 2.046875 C 18.898438 2.460938 18.394531 2.671875 17.78125 2.671875 C 17.164062 2.671875 16.660156 2.460938 16.265625 2.046875 C 15.867188 1.640625 15.671875 1.125 15.671875 0.5 C 15.671875 -1.238281 15.492188 -3.800781 15.140625 -7.1875 C 14.796875 -10.582031 14.625 -13.144531 14.625 -14.875 C 14.625 -16.394531 14.40625 -17.578125 13.96875 -18.421875 C 12.96875 -17.960938 11.953125 -17.21875 10.921875 -16.1875 L 8.390625 -13.34375 C 8.160156 -13 7.789062 -12.550781 7.28125 -12 C 7.28125 -11.132812 7.203125 -9.863281 7.046875 -8.1875 C 6.890625 -6.507812 6.8125 -5.269531 6.8125 -4.46875 C 6.8125 -4.039062 6.878906 -3.4375 7.015625 -2.65625 C 7.148438 -1.882812 7.21875 -1.328125 7.21875 -0.984375 C 7.21875 -0.398438 7 0.0859375 6.5625 0.484375 C 6.125 0.890625 5.613281 1.09375 5.03125 1.09375 C 3.40625 1.09375 2.59375 -0.742188 2.59375 -4.421875 C 2.59375 -5.285156 2.671875 -6.566406 2.828125 -8.265625 C 2.992188 -9.972656 3.078125 -11.257812 3.078125 -12.125 C 3.078125 -12.882812 3.007812 -14.023438 2.875 -15.546875 C 2.738281 -17.066406 2.671875 -18.210938 2.671875 -18.984375 C 2.671875 -22.234375 3.398438 -23.859375 4.859375 -23.859375 C 5.421875 -23.859375 5.929688 -23.613281 6.390625 -23.125 C 6.859375 -22.644531 7.09375 -22.117188 7.09375 -21.546875 C 7.09375 -21.273438 7.054688 -20.851562 6.984375 -20.28125 C 6.910156 -19.707031 6.875 -19.269531 6.875 -18.96875 L 6.921875 -16.703125 C 7.671875 -18.234375 8.769531 -19.617188 10.21875 -20.859375 C 11.664062 -22.097656 12.894531 -22.71875 13.90625 -22.71875 C 16.15625 -22.71875 17.703125 -21.601562 18.546875 -19.375 C 19.335938 -20.414062 20.273438 -21.195312 21.359375 -21.71875 C 22.453125 -22.25 23.703125 -22.515625 25.109375 -22.515625 C 27.503906 -22.515625 29.140625 -21.222656 30.015625 -18.640625 C 30.179688 -18.117188 30.472656 -16.101562 30.890625 -12.59375 C 31.296875 -10.132812 31.8125 -6.03125 32.4375 -0.28125 C 32.476562 0.289062 32.285156 0.773438 31.859375 1.171875 C 31.429688 1.578125 30.910156 1.78125 30.296875 1.78125 Z M 30.296875 1.78125 "/></g></g><g style="fill:#000000;fill-opacity:1;"><g transform="translate(235.595653, 145.897219)"><path style="stroke:none" d="M 7.09375 -27.21875 C 6.40625 -27.21875 5.8125 -27.460938 5.3125 -27.953125 C 4.8125 -28.441406 4.5625 -29.03125 4.5625 -29.71875 C 4.5625 -30.40625 4.8125 -30.988281 5.3125 -31.46875 C 5.8125 -31.957031 6.40625 -32.203125 7.09375 -32.203125 C 7.78125 -32.203125 8.367188 -31.957031 8.859375 -31.46875 C 9.359375 -30.988281 9.609375 -30.40625 9.609375 -29.71875 C 9.609375 -29.03125 9.359375 -28.441406 8.859375 -27.953125 C 8.367188 -27.460938 7.78125 -27.21875 7.09375 -27.21875 Z M 8.0625 -9.765625 C 8.0625 -8.898438 8.085938 -7.609375 8.140625 -5.890625 C 8.191406 -4.179688 8.21875 -2.898438 8.21875 -2.046875 C 8.21875 -1.410156 8.019531 -0.890625 7.625 -0.484375 C 7.238281 -0.0859375 6.734375 0.109375 6.109375 0.109375 C 5.492188 0.109375 4.988281 -0.0859375 4.59375 -0.484375 C 4.195312 -0.890625 4 -1.410156 4 -2.046875 C 4 -2.898438 3.972656 -4.179688 3.921875 -5.890625 C 3.867188 -7.609375 3.84375 -8.898438 3.84375 -9.765625 C 3.84375 -11.109375 3.914062 -12.785156 4.0625 -14.796875 C 4.207031 -16.816406 4.28125 -18.5 4.28125 -19.84375 C 4.28125 -20.488281 4.472656 -21.007812 4.859375 -21.40625 C 5.253906 -21.8125 5.765625 -22.015625 6.390625 -22.015625 C 7.003906 -22.015625 7.507812 -21.8125 7.90625 -21.40625 C 8.300781 -21.007812 8.5 -20.488281 8.5 -19.84375 C 8.5 -18.5 8.425781 -16.816406 8.28125 -14.796875 C 8.132812 -12.785156 8.0625 -11.109375 8.0625 -9.765625 Z M 8.0625 -9.765625 "/></g></g><g style="fill:#000000;fill-opacity:1;"><g transform="translate(247.934571, 145.897219)"><path style="stroke:none" d="M 19.484375 1.53125 C 18.242188 1.53125 17.546875 0.851562 17.390625 -0.5 L 16.796875 -5.203125 C 16.585938 -6.878906 16.484375 -8.445312 16.484375 -9.90625 C 16.484375 -10.3125 16.507812 -10.992188 16.5625 -11.953125 C 16.613281 -12.910156 16.640625 -13.59375 16.640625 -14 C 16.640625 -17.09375 16.066406 -18.640625 14.921875 -18.640625 C 13.316406 -18.640625 11.78125 -17.6875 10.3125 -15.78125 C 9 -14.039062 7.96875 -11.847656 7.21875 -9.203125 C 7.195312 -8.640625 7.132812 -7.9375 7.03125 -7.09375 C 6.945312 -6.375 6.90625 -5.679688 6.90625 -5.015625 C 6.90625 -4.578125 6.945312 -3.925781 7.03125 -3.0625 C 7.113281 -2.207031 7.15625 -1.566406 7.15625 -1.140625 C 7.15625 -0.492188 6.957031 0.0234375 6.5625 0.421875 C 6.175781 0.828125 5.671875 1.03125 5.046875 1.03125 C 4.421875 1.03125 3.914062 0.828125 3.53125 0.421875 C 3.144531 0.0234375 2.953125 -0.492188 2.953125 -1.140625 C 2.953125 -1.566406 2.90625 -2.207031 2.8125 -3.0625 C 2.71875 -3.925781 2.671875 -4.578125 2.671875 -5.015625 C 2.671875 -6.484375 2.773438 -8.523438 2.984375 -11.140625 C 3.191406 -13.765625 3.296875 -15.8125 3.296875 -17.28125 C 3.296875 -17.738281 3.269531 -18.421875 3.21875 -19.328125 C 3.164062 -20.234375 3.140625 -20.914062 3.140625 -21.375 C 3.140625 -21.988281 3.34375 -22.492188 3.75 -22.890625 C 4.15625 -23.285156 4.660156 -23.484375 5.265625 -23.484375 C 6.585938 -23.484375 7.3125 -22.550781 7.4375 -20.6875 L 7.5 -18.171875 C 9.90625 -21.378906 12.378906 -22.984375 14.921875 -22.984375 C 17.210938 -22.984375 18.8125 -21.972656 19.71875 -19.953125 C 20.332031 -18.609375 20.664062 -16.613281 20.71875 -13.96875 L 20.71875 -11.796875 L 20.703125 -9.796875 C 20.703125 -8.609375 20.851562 -7.070312 21.15625 -5.1875 C 21.46875 -3.300781 21.625 -1.773438 21.625 -0.609375 C 21.625 0.0234375 21.421875 0.539062 21.015625 0.9375 C 20.609375 1.332031 20.097656 1.53125 19.484375 1.53125 Z M 19.484375 1.53125 "/></g></g><g style="fill:#000000;fill-opacity:1;"><g transform="translate(270.978665, 145.897219)"><path style="stroke:none" d="M 17.375 -18.3125 C 17.070312 -18.3125 16.710938 -18.328125 16.296875 -18.359375 C 15.890625 -18.390625 15.539062 -18.40625 15.25 -18.40625 C 14.914062 -18.40625 13.9375 -18.296875 12.3125 -18.078125 L 12.734375 -5.375 L 12.75 -4.421875 L 12.765625 -3.328125 C 12.828125 -0.191406 12.078125 1.375 10.515625 1.375 C 9.941406 1.375 9.441406 1.1875 9.015625 0.8125 C 8.597656 0.445312 8.390625 -0.015625 8.390625 -0.578125 C 8.390625 -1.117188 8.410156 -1.9375 8.453125 -3.03125 C 8.492188 -4.125 8.515625 -4.941406 8.515625 -5.484375 L 8.078125 -18.03125 C 7.035156 -18.082031 5.445312 -18.207031 3.3125 -18.40625 C 2.03125 -18.570312 1.390625 -19.28125 1.390625 -20.53125 C 1.390625 -21.164062 1.582031 -21.6875 1.96875 -22.09375 C 2.363281 -22.507812 2.863281 -22.71875 3.46875 -22.71875 L 7.96875 -22.359375 C 7.96875 -23.085938 7.9375 -24.0625 7.875 -25.28125 C 7.8125 -26.507812 7.78125 -27.398438 7.78125 -27.953125 C 7.78125 -28.554688 7.988281 -29.050781 8.40625 -29.4375 C 8.820312 -29.832031 9.332031 -30.03125 9.9375 -30.03125 C 11.226562 -30.03125 11.976562 -28.976562 12.1875 -26.875 C 12.226562 -26.34375 12.25 -25.707031 12.25 -24.96875 L 12.21875 -23.71875 L 12.1875 -22.375 C 13.96875 -22.601562 14.988281 -22.71875 15.25 -22.71875 C 16.738281 -22.71875 17.710938 -22.648438 18.171875 -22.515625 C 19.046875 -22.222656 19.484375 -21.546875 19.484375 -20.484375 C 19.484375 -19.859375 19.285156 -19.335938 18.890625 -18.921875 C 18.492188 -18.515625 17.988281 -18.3125 17.375 -18.3125 Z M 17.375 -18.3125 "/></g></g><g style="fill:#000000;fill-opacity:1;"><g transform="translate(291.722655, 145.897219)"><path style="stroke:none" d=""/></g></g><g style="fill:#000000;fill-opacity:1;"><g transform="translate(304.878404, 145.897219)"><path style="stroke:none" d="M 7.09375 -27.21875 C 6.40625 -27.21875 5.8125 -27.460938 5.3125 -27.953125 C 4.8125 -28.441406 4.5625 -29.03125 4.5625 -29.71875 C 4.5625 -30.40625 4.8125 -30.988281 5.3125 -31.46875 C 5.8125 -31.957031 6.40625 -32.203125 7.09375 -32.203125 C 7.78125 -32.203125 8.367188 -31.957031 8.859375 -31.46875 C 9.359375 -30.988281 9.609375 -30.40625 9.609375 -29.71875 C 9.609375 -29.03125 9.359375 -28.441406 8.859375 -27.953125 C 8.367188 -27.460938 7.78125 -27.21875 7.09375 -27.21875 Z M 8.0625 -9.765625 C 8.0625 -8.898438 8.085938 -7.609375 8.140625 -5.890625 C 8.191406 -4.179688 8.21875 -2.898438 8.21875 -2.046875 C 8.21875 -1.410156 8.019531 -0.890625 7.625 -0.484375 C 7.238281 -0.0859375 6.734375 0.109375 6.109375 0.109375 C 5.492188 0.109375 4.988281 -0.0859375 4.59375 -0.484375 C 4.195312 -0.890625 4 -1.410156 4 -2.046875 C 4 -2.898438 3.972656 -4.179688 3.921875 -5.890625 C 3.867188 -7.609375 3.84375 -8.898438 3.84375 -9.765625 C 3.84375 -11.109375 3.914062 -12.785156 4.0625 -14.796875 C 4.207031 -16.816406 4.28125 -18.5 4.28125 -19.84375 C 4.28125 -20.488281 4.472656 -21.007812 4.859375 -21.40625 C 5.253906 -21.8125 5.765625 -22.015625 6.390625 -22.015625 C 7.003906 -22.015625 7.507812 -21.8125 7.90625 -21.40625 C 8.300781 -21.007812 8.5 -20.488281 8.5 -19.84375 C 8.5 -18.5 8.425781 -16.816406 8.28125 -14.796875 C 8.132812 -12.785156 8.0625 -11.109375 8.0625 -9.765625 Z M 8.0625 -9.765625 "/></g></g><g style="fill:#000000;fill-opacity:1;"><g transform="translate(317.217323, 145.897219)"><path style="stroke:none" d="M 17.375 -18.3125 C 17.070312 -18.3125 16.710938 -18.328125 16.296875 -18.359375 C 15.890625 -18.390625 15.539062 -18.40625 15.25 -18.40625 C 14.914062 -18.40625 13.9375 -18.296875 12.3125 -18.078125 L 12.734375 -5.375 L 12.75 -4.421875 L 12.765625 -3.328125 C 12.828125 -0.191406 12.078125 1.375 10.515625 1.375 C 9.941406 1.375 9.441406 1.1875 9.015625 0.8125 C 8.597656 0.445312 8.390625 -0.015625 8.390625 -0.578125 C 8.390625 -1.117188 8.410156 -1.9375 8.453125 -3.03125 C 8.492188 -4.125 8.515625 -4.941406 8.515625 -5.484375 L 8.078125 -18.03125 C 7.035156 -18.082031 5.445312 -18.207031 3.3125 -18.40625 C 2.03125 -18.570312 1.390625 -19.28125 1.390625 -20.53125 C 1.390625 -21.164062 1.582031 -21.6875 1.96875 -22.09375 C 2.363281 -22.507812 2.863281 -22.71875 3.46875 -22.71875 L 7.96875 -22.359375 C 7.96875 -23.085938 7.9375 -24.0625 7.875 -25.28125 C 7.8125 -26.507812 7.78125 -27.398438 7.78125 -27.953125 C 7.78125 -28.554688 7.988281 -29.050781 8.40625 -29.4375 C 8.820312 -29.832031 9.332031 -30.03125 9.9375 -30.03125 C 11.226562 -30.03125 11.976562 -28.976562 12.1875 -26.875 C 12.226562 -26.34375 12.25 -25.707031 12.25 -24.96875 L 12.21875 -23.71875 L 12.1875 -22.375 C 13.96875 -22.601562 14.988281 -22.71875 15.25 -22.71875 C 16.738281 -22.71875 17.710938 -22.648438 18.171875 -22.515625 C 19.046875 -22.222656 19.484375 -21.546875 19.484375 -20.484375 C 19.484375 -19.859375 19.285156 -19.335938 18.890625 -18.921875 C 18.492188 -18.515625 17.988281 -18.3125 17.375 -18.3125 Z M 17.375 -18.3125 "/></g></g><g style="fill:#000000;fill-opacity:1;"><g transform="translate(28.506966, 206.901005)"><path style="stroke:none" d="M 17.4375 -30.234375 C 13.96875 -30.234375 12.023438 -27.820312 11.609375 -23 L 11.546875 -21.671875 C 13.984375 -21.835938 15.5625 -21.921875 16.28125 -21.921875 C 18.550781 -21.921875 19.6875 -21.207031 19.6875 -19.78125 C 19.6875 -18.726562 19.128906 -18.101562 18.015625 -17.90625 C 17.523438 -17.820312 16.953125 -17.789062 16.296875 -17.8125 C 15.648438 -17.832031 14.003906 -17.734375 11.359375 -17.515625 L 11.1875 -12.625 C 11.1875 -11.726562 11.210938 -10.390625 11.265625 -8.609375 C 11.328125 -6.835938 11.359375 -5.515625 11.359375 -4.640625 C 11.359375 -1.921875 11.195312 0.195312 10.875 1.71875 C 10.632812 2.863281 9.96875 3.4375 8.875 3.4375 C 8.289062 3.4375 7.789062 3.242188 7.375 2.859375 C 6.957031 2.484375 6.75 2.007812 6.75 1.4375 C 6.75 1.320312 6.765625 1.179688 6.796875 1.015625 C 7.097656 -0.847656 7.25 -2.878906 7.25 -5.078125 L 7.1875 -10.9375 L 7.1875 -17.171875 C 5.394531 -17.035156 4.257812 -16.96875 3.78125 -16.96875 C 2.332031 -16.96875 1.609375 -17.660156 1.609375 -19.046875 C 1.609375 -20.460938 2.863281 -21.207031 5.375 -21.28125 L 7.4375 -21.34375 C 7.476562 -22.144531 7.585938 -23.234375 7.765625 -24.609375 C 8.140625 -27.796875 8.941406 -30.140625 10.171875 -31.640625 C 11.660156 -33.460938 13.988281 -34.375 17.15625 -34.375 C 19.207031 -34.375 20.234375 -33.679688 20.234375 -32.296875 C 20.234375 -30.921875 19.300781 -30.234375 17.4375 -30.234375 Z M 17.4375 -30.234375 "/></g></g><g style="fill:#000000;fill-opacity:1;"><g transform="translate(50.884678, 206.901005)"><path style="stroke:none" d="M 11.046875 1.265625 C 8.640625 1.265625 6.570312 0.378906 4.84375 -1.390625 C 2.90625 -3.367188 1.882812 -6.03125 1.78125 -9.375 C 1.695312 -12.613281 2.515625 -15.46875 4.234375 -17.9375 C 6.242188 -20.84375 9.039062 -22.296875 12.625 -22.296875 C 15.488281 -22.296875 17.660156 -20.984375 19.140625 -18.359375 C 20.304688 -16.234375 20.867188 -13.679688 20.828125 -10.703125 C 20.785156 -7.523438 19.957031 -4.8125 18.34375 -2.5625 C 16.507812 -0.0078125 14.078125 1.265625 11.046875 1.265625 Z M 12.34375 -17.9375 C 10.238281 -17.945312 8.597656 -16.941406 7.421875 -14.921875 C 6.484375 -13.296875 6.015625 -11.445312 6.015625 -9.375 C 6.015625 -7.289062 6.582031 -5.671875 7.71875 -4.515625 C 8.664062 -3.554688 9.773438 -3.078125 11.046875 -3.078125 C 12.535156 -3.078125 13.820312 -3.617188 14.90625 -4.703125 C 16.125 -5.910156 16.765625 -7.539062 16.828125 -9.59375 C 17.035156 -15.132812 15.539062 -17.914062 12.34375 -17.9375 Z M 12.34375 -17.9375 "/></g></g><g style="fill:#000000;fill-opacity:1;"><g transform="translate(74.036259, 206.901005)"><path style="stroke:none" d="M 19.71875 -15.890625 C 19.613281 -14.097656 18.894531 -13.203125 17.5625 -13.203125 C 16.332031 -13.203125 15.71875 -13.910156 15.71875 -15.328125 C 15.71875 -15.597656 15.695312 -16.097656 15.65625 -16.828125 L 15.59375 -18.640625 C 13.320312 -18.367188 11.503906 -17.734375 10.140625 -16.734375 C 8.867188 -15.796875 7.8125 -14.390625 6.96875 -12.515625 L 7.015625 -0.734375 C 7.015625 0.710938 6.300781 1.4375 4.875 1.4375 C 3.613281 1.4375 2.984375 0.710938 2.984375 -0.734375 L 2.984375 -15.828125 C 2.984375 -16.296875 3 -17.003906 3.03125 -17.953125 C 3.070312 -18.898438 3.09375 -19.609375 3.09375 -20.078125 C 3.09375 -21.523438 3.722656 -22.25 4.984375 -22.25 C 6.390625 -22.25 7.097656 -21.0625 7.109375 -18.6875 C 9.867188 -21.332031 12.925781 -22.65625 16.28125 -22.65625 C 17.4375 -22.65625 18.300781 -22.21875 18.875 -21.34375 C 19.445312 -20.46875 19.734375 -19.148438 19.734375 -17.390625 C 19.734375 -16.648438 19.726562 -16.148438 19.71875 -15.890625 Z M 19.71875 -15.890625 "/></g></g><g style="fill:#000000;fill-opacity:1;"><g transform="translate(95.188674, 206.901005)"><path style="stroke:none" d=""/></g></g><g style="fill:#000000;fill-opacity:1;"><g transform="translate(108.344444, 206.901005)"><path style="stroke:none" d="M 17.4375 -30.234375 C 13.96875 -30.234375 12.023438 -27.820312 11.609375 -23 L 11.546875 -21.671875 C 13.984375 -21.835938 15.5625 -21.921875 16.28125 -21.921875 C 18.550781 -21.921875 19.6875 -21.207031 19.6875 -19.78125 C 19.6875 -18.726562 19.128906 -18.101562 18.015625 -17.90625 C 17.523438 -17.820312 16.953125 -17.789062 16.296875 -17.8125 C 15.648438 -17.832031 14.003906 -17.734375 11.359375 -17.515625 L 11.1875 -12.625 C 11.1875 -11.726562 11.210938 -10.390625 11.265625 -8.609375 C 11.328125 -6.835938 11.359375 -5.515625 11.359375 -4.640625 C 11.359375 -1.921875 11.195312 0.195312 10.875 1.71875 C 10.632812 2.863281 9.96875 3.4375 8.875 3.4375 C 8.289062 3.4375 7.789062 3.242188 7.375 2.859375 C 6.957031 2.484375 6.75 2.007812 6.75 1.4375 C 6.75 1.320312 6.765625 1.179688 6.796875 1.015625 C 7.097656 -0.847656 7.25 -2.878906 7.25 -5.078125 L 7.1875 -10.9375 L 7.1875 -17.171875 C 5.394531 -17.035156 4.257812 -16.96875 3.78125 -16.96875 C 2.332031 -16.96875 1.609375 -17.660156 1.609375 -19.046875 C 1.609375 -20.460938 2.863281 -21.207031 5.375 -21.28125 L 7.4375 -21.34375 C 7.476562 -22.144531 7.585938 -23.234375 7.765625 -24.609375 C 8.140625 -27.796875 8.941406 -30.140625 10.171875 -31.640625 C 11.660156 -33.460938 13.988281 -34.375 17.15625 -34.375 C 19.207031 -34.375 20.234375 -33.679688 20.234375 -32.296875 C 20.234375 -30.921875 19.300781 -30.234375 17.4375 -30.234375 Z M 17.4375 -30.234375 "/></g></g><g style="fill:#000000;fill-opacity:1;"><g transform="translate(130.722156, 206.901005)"><path style="stroke:none" d="M 19.71875 -15.890625 C 19.613281 -14.097656 18.894531 -13.203125 17.5625 -13.203125 C 16.332031 -13.203125 15.71875 -13.910156 15.71875 -15.328125 C 15.71875 -15.597656 15.695312 -16.097656 15.65625 -16.828125 L 15.59375 -18.640625 C 13.320312 -18.367188 11.503906 -17.734375 10.140625 -16.734375 C 8.867188 -15.796875 7.8125 -14.390625 6.96875 -12.515625 L 7.015625 -0.734375 C 7.015625 0.710938 6.300781 1.4375 4.875 1.4375 C 3.613281 1.4375 2.984375 0.710938 2.984375 -0.734375 L 2.984375 -15.828125 C 2.984375 -16.296875 3 -17.003906 3.03125 -17.953125 C 3.070312 -18.898438 3.09375 -19.609375 3.09375 -20.078125 C 3.09375 -21.523438 3.722656 -22.25 4.984375 -22.25 C 6.390625 -22.25 7.097656 -21.0625 7.109375 -18.6875 C 9.867188 -21.332031 12.925781 -22.65625 16.28125 -22.65625 C 17.4375 -22.65625 18.300781 -22.21875 18.875 -21.34375 C 19.445312 -20.46875 19.734375 -19.148438 19.734375 -17.390625 C 19.734375 -16.648438 19.726562 -16.148438 19.71875 -15.890625 Z M 19.71875 -15.890625 "/></g></g><g style="fill:#000000;fill-opacity:1;"><g transform="translate(151.874571, 206.901005)"><path style="stroke:none" d="M 13.03125 0.984375 C 9.789062 0.984375 7.164062 0.175781 5.15625 -1.4375 C 2.96875 -3.226562 1.875 -5.738281 1.875 -8.96875 C 1.875 -12.695312 2.773438 -15.820312 4.578125 -18.34375 C 6.546875 -21.09375 9.171875 -22.46875 12.453125 -22.46875 C 14.828125 -22.46875 16.769531 -22.066406 18.28125 -21.265625 C 20.125 -20.273438 21.046875 -18.753906 21.046875 -16.703125 C 21.046875 -15.273438 20.238281 -13.972656 18.625 -12.796875 C 17.90625 -12.273438 16.382812 -11.472656 14.0625 -10.390625 L 5.84375 -6.5 C 6.644531 -5.300781 7.644531 -4.398438 8.84375 -3.796875 C 10.039062 -3.203125 11.4375 -2.90625 13.03125 -2.90625 C 14.019531 -2.90625 15.179688 -3.09375 16.515625 -3.46875 C 18.203125 -3.9375 19.289062 -4.550781 19.78125 -5.3125 C 20.269531 -6.082031 20.789062 -6.46875 21.34375 -6.46875 C 21.851562 -6.46875 22.300781 -6.273438 22.6875 -5.890625 C 23.082031 -5.515625 23.28125 -5.078125 23.28125 -4.578125 C 23.28125 -2.984375 22 -1.613281 19.4375 -0.46875 C 17.238281 0.5 15.101562 0.984375 13.03125 0.984375 Z M 12.453125 -18.59375 C 10.703125 -18.59375 9.242188 -17.914062 8.078125 -16.5625 C 6.921875 -15.207031 6.054688 -13.171875 5.484375 -10.453125 L 12.078125 -13.59375 C 14.671875 -14.851562 16.519531 -15.945312 17.625 -16.875 C 16.394531 -18.019531 14.671875 -18.59375 12.453125 -18.59375 Z M 12.453125 -18.59375 "/></g></g><g style="fill:#000000;fill-opacity:1;"><g transform="translate(175.993483, 206.901005)"><path style="stroke:none" d="M 13.03125 0.984375 C 9.789062 0.984375 7.164062 0.175781 5.15625 -1.4375 C 2.96875 -3.226562 1.875 -5.738281 1.875 -8.96875 C 1.875 -12.695312 2.773438 -15.820312 4.578125 -18.34375 C 6.546875 -21.09375 9.171875 -22.46875 12.453125 -22.46875 C 14.828125 -22.46875 16.769531 -22.066406 18.28125 -21.265625 C 20.125 -20.273438 21.046875 -18.753906 21.046875 -16.703125 C 21.046875 -15.273438 20.238281 -13.972656 18.625 -12.796875 C 17.90625 -12.273438 16.382812 -11.472656 14.0625 -10.390625 L 5.84375 -6.5 C 6.644531 -5.300781 7.644531 -4.398438 8.84375 -3.796875 C 10.039062 -3.203125 11.4375 -2.90625 13.03125 -2.90625 C 14.019531 -2.90625 15.179688 -3.09375 16.515625 -3.46875 C 18.203125 -3.9375 19.289062 -4.550781 19.78125 -5.3125 C 20.269531 -6.082031 20.789062 -6.46875 21.34375 -6.46875 C 21.851562 -6.46875 22.300781 -6.273438 22.6875 -5.890625 C 23.082031 -5.515625 23.28125 -5.078125 23.28125 -4.578125 C 23.28125 -2.984375 22 -1.613281 19.4375 -0.46875 C 17.238281 0.5 15.101562 0.984375 13.03125 0.984375 Z M 12.453125 -18.59375 C 10.703125 -18.59375 9.242188 -17.914062 8.078125 -16.5625 C 6.921875 -15.207031 6.054688 -13.171875 5.484375 -10.453125 L 12.078125 -13.59375 C 14.671875 -14.851562 16.519531 -15.945312 17.625 -16.875 C 16.394531 -18.019531 14.671875 -18.59375 12.453125 -18.59375 Z M 12.453125 -18.59375 "/></g></g><g style="fill:#000000;fill-opacity:1;"><g transform="translate(200.112395, 206.901005)"><path style="stroke:none" d="M 7.96875 -6.625 C 7.382812 -6.625 6.867188 -6.847656 6.421875 -7.296875 C 5.984375 -7.742188 5.765625 -8.257812 5.765625 -8.84375 C 5.765625 -9.820312 6.679688 -11.035156 8.515625 -12.484375 L 13.65625 -16.359375 C 15.5 -17.953125 16.421875 -19.40625 16.421875 -20.71875 C 16.421875 -22.382812 15.640625 -23.921875 14.078125 -25.328125 C 12.578125 -26.691406 10.976562 -27.375 9.28125 -27.375 C 8.382812 -27.375 7.238281 -26.910156 5.84375 -25.984375 C 4.457031 -25.054688 3.597656 -24.59375 3.265625 -24.59375 C 2.679688 -24.59375 2.175781 -24.828125 1.75 -25.296875 C 1.332031 -25.773438 1.125 -26.304688 1.125 -26.890625 C 1.125 -28.023438 2.21875 -29.148438 4.40625 -30.265625 C 6.375 -31.273438 8 -31.78125 9.28125 -31.78125 C 12.164062 -31.78125 14.78125 -30.65625 17.125 -28.40625 C 19.476562 -26.15625 20.65625 -23.59375 20.65625 -20.71875 C 20.65625 -18.632812 19.984375 -16.78125 18.640625 -15.15625 C 17.835938 -14.175781 16.347656 -12.914062 14.171875 -11.375 C 11.972656 -9.78125 10.445312 -8.488281 9.59375 -7.5 C 9.09375 -6.914062 8.550781 -6.625 7.96875 -6.625 Z M 6.796875 1.546875 C 6.160156 1.546875 5.585938 1.332031 5.078125 0.90625 C 4.578125 0.488281 4.328125 -0.0195312 4.328125 -0.625 C 4.328125 -1.507812 4.5625 -2.3125 5.03125 -3.03125 C 5.5625 -3.832031 6.242188 -4.234375 7.078125 -4.234375 C 8.453125 -4.234375 9.140625 -3.390625 9.140625 -1.703125 C 9.140625 -0.910156 8.953125 -0.195312 8.578125 0.4375 C 8.117188 1.175781 7.523438 1.546875 6.796875 1.546875 Z M 6.796875 1.546875 "/></g></g><g style="fill:#000000;fill-opacity:1;"><g transform="translate(223.17799, 206.901005)"><path style="stroke:none" d=""/></g></g><g style="fill:#000000;fill-opacity:1;"><g transform="translate(236.33376, 206.901005)"><path style="stroke:none" d="M 31.296875 -30.296875 C 31.085938 -29.691406 30.984375 -28.8125 30.984375 -27.65625 C 30.984375 -27.21875 30.992188 -26.578125 31.015625 -25.734375 C 31.046875 -24.890625 31.0625 -24.253906 31.0625 -23.828125 C 31.0625 -22.390625 30.9375 -20.25 30.6875 -17.40625 C 30.4375 -14.570312 30.3125 -12.441406 30.3125 -11.015625 C 30.3125 -9.921875 30.390625 -8.285156 30.546875 -6.109375 C 30.703125 -3.929688 30.78125 -2.289062 30.78125 -1.1875 C 30.78125 -0.59375 30.582031 -0.0976562 30.1875 0.296875 C 29.800781 0.703125 29.3125 0.90625 28.71875 0.90625 C 28.144531 0.90625 27.65625 0.703125 27.25 0.296875 C 26.851562 -0.0976562 26.65625 -0.59375 26.65625 -1.1875 C 26.65625 -2.289062 26.578125 -3.929688 26.421875 -6.109375 C 26.265625 -8.285156 26.1875 -9.921875 26.1875 -11.015625 C 26.1875 -12.054688 26.222656 -13.113281 26.296875 -14.1875 C 23.847656 -14.144531 20.816406 -13.78125 17.203125 -13.09375 L 8.171875 -11.328125 C 8.171875 -10.035156 8.039062 -8.203125 7.78125 -5.828125 C 7.519531 -3.460938 7.390625 -1.628906 7.390625 -0.328125 C 7.390625 0.265625 7.191406 0.765625 6.796875 1.171875 C 6.410156 1.578125 5.921875 1.78125 5.328125 1.78125 C 4.742188 1.78125 4.253906 1.578125 3.859375 1.171875 C 3.460938 0.765625 3.265625 0.265625 3.265625 -0.328125 C 3.265625 -1.835938 3.390625 -4.101562 3.640625 -7.125 C 3.890625 -10.144531 4.015625 -12.414062 4.015625 -13.9375 C 4.015625 -14.71875 3.984375 -15.90625 3.921875 -17.5 C 3.867188 -19.09375 3.84375 -20.289062 3.84375 -21.09375 C 3.84375 -22.226562 3.914062 -23.929688 4.0625 -26.203125 C 4.207031 -28.472656 4.28125 -30.171875 4.28125 -31.296875 C 4.28125 -31.898438 4.472656 -32.398438 4.859375 -32.796875 C 5.253906 -33.203125 5.75 -33.40625 6.34375 -33.40625 C 6.925781 -33.40625 7.414062 -33.203125 7.8125 -32.796875 C 8.207031 -32.398438 8.40625 -31.898438 8.40625 -31.296875 C 8.40625 -30.148438 8.328125 -28.429688 8.171875 -26.140625 C 8.023438 -23.859375 7.953125 -22.144531 7.953125 -21 L 8.078125 -15.5625 L 17.3125 -17.3125 C 20.988281 -18 24.085938 -18.351562 26.609375 -18.375 C 26.773438 -20.425781 26.859375 -23.519531 26.859375 -27.65625 C 26.859375 -28.738281 27.035156 -29.835938 27.390625 -30.953125 C 27.859375 -32.492188 28.523438 -33.265625 29.390625 -33.265625 C 29.929688 -33.265625 30.414062 -33.066406 30.84375 -32.671875 C 31.28125 -32.273438 31.5 -31.773438 31.5 -31.171875 C 31.5 -30.960938 31.429688 -30.671875 31.296875 -30.296875 Z M 31.296875 -30.296875 "/></g></g><g style="fill:#000000;fill-opacity:1;"><g transform="translate(270.147534, 206.901005)"><path style="stroke:none" d="M 11.046875 1.265625 C 8.640625 1.265625 6.570312 0.378906 4.84375 -1.390625 C 2.90625 -3.367188 1.882812 -6.03125 1.78125 -9.375 C 1.695312 -12.613281 2.515625 -15.46875 4.234375 -17.9375 C 6.242188 -20.84375 9.039062 -22.296875 12.625 -22.296875 C 15.488281 -22.296875 17.660156 -20.984375 19.140625 -18.359375 C 20.304688 -16.234375 20.867188 -13.679688 20.828125 -10.703125 C 20.785156 -7.523438 19.957031 -4.8125 18.34375 -2.5625 C 16.507812 -0.0078125 14.078125 1.265625 11.046875 1.265625 Z M 12.34375 -17.9375 C 10.238281 -17.945312 8.597656 -16.941406 7.421875 -14.921875 C 6.484375 -13.296875 6.015625 -11.445312 6.015625 -9.375 C 6.015625 -7.289062 6.582031 -5.671875 7.71875 -4.515625 C 8.664062 -3.554688 9.773438 -3.078125 11.046875 -3.078125 C 12.535156 -3.078125 13.820312 -3.617188 14.90625 -4.703125 C 16.125 -5.910156 16.765625 -7.539062 16.828125 -9.59375 C 17.035156 -15.132812 15.539062 -17.914062 12.34375 -17.9375 Z M 12.34375 -17.9375 "/></g></g><g style="fill:#000000;fill-opacity:1;"><g transform="translate(293.299115, 206.901005)"><path style="stroke:none" d="M 28.71875 -19.234375 C 27.601562 -14.566406 26.144531 -9.285156 24.34375 -3.390625 C 23.9375 -2.085938 23.269531 -0.75 22.34375 0.625 C 21.832031 1.382812 21.148438 1.753906 20.296875 1.734375 C 18.734375 1.710938 17.515625 -0.222656 16.640625 -4.078125 C 16.347656 -5.316406 16.054688 -6.992188 15.765625 -9.109375 L 15.046875 -13.90625 L 13.28125 -9.796875 L 10.015625 -0.921875 C 9.828125 -0.378906 9.554688 0.0351562 9.203125 0.328125 C 8.773438 1.148438 8.085938 1.578125 7.140625 1.609375 C 6.046875 1.648438 4.992188 -0.484375 3.984375 -4.796875 C 3.460938 -7.015625 2.941406 -10.023438 2.421875 -13.828125 L 1.90625 -17.046875 C 1.726562 -18.335938 1.640625 -19.421875 1.640625 -20.296875 C 1.640625 -20.898438 1.847656 -21.394531 2.265625 -21.78125 C 2.691406 -22.175781 3.207031 -22.375 3.8125 -22.375 C 4.894531 -22.375 5.566406 -21.78125 5.828125 -20.59375 C 6.015625 -19.75 6.164062 -18.703125 6.28125 -17.453125 L 6.59375 -14.296875 L 7.875 -4.640625 C 9.457031 -9.054688 11.101562 -14.144531 12.8125 -19.90625 C 13.28125 -21.5 14.101562 -22.296875 15.28125 -22.296875 C 16.414062 -22.296875 17.1875 -21.40625 17.59375 -19.625 C 17.957031 -17.945312 18.421875 -15.367188 18.984375 -11.890625 C 19.554688 -8.273438 20.066406 -5.457031 20.515625 -3.4375 L 22.078125 -9.28125 L 24.859375 -21 C 25.066406 -21.875 25.679688 -22.3125 26.703125 -22.3125 C 27.304688 -22.3125 27.828125 -22.109375 28.265625 -21.703125 C 28.710938 -21.296875 28.9375 -20.804688 28.9375 -20.234375 C 28.9375 -20.160156 28.863281 -19.828125 28.71875 -19.234375 Z M 28.71875 -19.234375 "/></g></g><g style="fill:#000000;fill-opacity:1;"><g transform="translate(323.415515, 206.901005)"><path style="stroke:none" d="M 7.96875 -6.625 C 7.382812 -6.625 6.867188 -6.847656 6.421875 -7.296875 C 5.984375 -7.742188 5.765625 -8.257812 5.765625 -8.84375 C 5.765625 -9.820312 6.679688 -11.035156 8.515625 -12.484375 L 13.65625 -16.359375 C 15.5 -17.953125 16.421875 -19.40625 16.421875 -20.71875 C 16.421875 -22.382812 15.640625 -23.921875 14.078125 -25.328125 C 12.578125 -26.691406 10.976562 -27.375 9.28125 -27.375 C 8.382812 -27.375 7.238281 -26.910156 5.84375 -25.984375 C 4.457031 -25.054688 3.597656 -24.59375 3.265625 -24.59375 C 2.679688 -24.59375 2.175781 -24.828125 1.75 -25.296875 C 1.332031 -25.773438 1.125 -26.304688 1.125 -26.890625 C 1.125 -28.023438 2.21875 -29.148438 4.40625 -30.265625 C 6.375 -31.273438 8 -31.78125 9.28125 -31.78125 C 12.164062 -31.78125 14.78125 -30.65625 17.125 -28.40625 C 19.476562 -26.15625 20.65625 -23.59375 20.65625 -20.71875 C 20.65625 -18.632812 19.984375 -16.78125 18.640625 -15.15625 C 17.835938 -14.175781 16.347656 -12.914062 14.171875 -11.375 C 11.972656 -9.78125 10.445312 -8.488281 9.59375 -7.5 C 9.09375 -6.914062 8.550781 -6.625 7.96875 -6.625 Z M 6.796875 1.546875 C 6.160156 1.546875 5.585938 1.332031 5.078125 0.90625 C 4.578125 0.488281 4.328125 -0.0195312 4.328125 -0.625 C 4.328125 -1.507812 4.5625 -2.3125 5.03125 -3.03125 C 5.5625 -3.832031 6.242188 -4.234375 7.078125 -4.234375 C 8.453125 -4.234375 9.140625 -3.390625 9.140625 -1.703125 C 9.140625 -0.910156 8.953125 -0.195312 8.578125 0.4375 C 8.117188 1.175781 7.523438 1.546875 6.796875 1.546875 Z M 6.796875 1.546875 "/></g></g></g></svg>