<svg xmlns="http://www.w3.org/2000/svg" xmlns:xlink="http://www.w3.org/1999/xlink" width="500" zoomAndPan="magnify" viewBox="0 0 375 374.999991" height="500" preserveAspectRatio="xMidYMid meet" version="1.2"><defs/><g id="53922bef3d"><path style=" stroke:none;fill-rule:nonzero;fill:#ffffff;fill-opacity:1;" d="M 276.933594 270.589844 C 203.195312 276.296875 142.351562 277.601562 68.457031 276.820312 C 47.445312 276.597656 23.21875 274.238281 11.058594 254.242188 C 4.597656 243.617188 3.046875 230.039062 2.351562 217.035156 C 0.378906 180.304688 3.679688 143.195312 12.070312 107.714844 C 16.113281 90.601562 22.050781 72.742188 34.585938 62.6875 C 46.6875 52.972656 62.378906 52.558594 77.070312 52.488281 C 156.601562 52.121094 236.921875 51.851562 314.542969 72.0625 C 332.527344 76.746094 352.050781 84 361.472656 102.480469 C 367.042969 113.417969 368.105469 126.597656 368.921875 139.285156 C 371.304688 176.382812 372.707031 213.566406 373.136719 250.761719 C 373.226562 258.308594 373.089844 266.511719 369.070312 272.425781 C 362.789062 281.660156 350.8125 280.648438 341.121094 283.984375 C 329.164062 288.097656 319.601562 300.5 317.351562 314.8125 C 320.144531 302.300781 316.742188 288.171875 308.777344 279.1875 C 300.808594 270.203125 292.496094 270.589844 277.976562 270.410156 C 277.726562 270.40625 277.484375 270.542969 277.230469 270.558594 "/><path style=" stroke:none;fill-rule:nonzero;fill:#100f0d;fill-opacity:1;" d="M 276.933594 269.441406 C 240.878906 272.222656 204.761719 274.160156 168.601562 275.105469 C 133.253906 276.023438 97.628906 276.835938 62.28125 275.535156 C 48.867188 275.042969 34.53125 273.273438 23.199219 265.476562 C 8.9375 255.65625 5.074219 238.527344 3.832031 222.257812 C 1.007812 185.34375 4.191406 147.648438 12.351562 111.574219 C 15.804688 96.3125 20.035156 79.570312 30.902344 67.722656 C 42.246094 55.355469 58.855469 53.800781 74.683594 53.652344 C 111.625 53.300781 148.640625 53.28125 185.550781 55.101562 C 222.992188 56.949219 260.417969 60.898438 297.050781 69.03125 C 311.976562 72.34375 327.730469 75.625 341.109375 83.355469 C 355.546875 91.703125 363.316406 104.921875 365.984375 121.179688 C 368.964844 139.355469 368.988281 158.292969 369.839844 176.660156 C 370.742188 196.003906 371.378906 215.355469 371.746094 234.710938 C 371.917969 243.703125 372.785156 253.109375 371.5 262.042969 C 370.210938 270.988281 365.246094 276.765625 356.566406 279.175781 C 350.617188 280.828125 344.335938 281.265625 338.625 283.734375 C 332.871094 286.21875 328 290.441406 324.273438 295.4375 C 320.078125 301.058594 317.429688 307.617188 316.246094 314.511719 C 316 315.941406 318.15625 316.578125 318.457031 315.117188 C 321.167969 302.007812 318.132812 287.003906 308.53125 277.246094 C 304.878906 273.539062 300.378906 271.171875 295.265625 270.21875 C 292.632812 269.722656 289.949219 269.53125 287.273438 269.425781 C 283.957031 269.292969 280.179688 268.800781 276.925781 269.453125 C 275.480469 269.746094 276.089844 271.957031 277.535156 271.667969 C 280.53125 271.0625 284.21875 271.59375 287.273438 271.71875 C 289.746094 271.820312 292.222656 271.972656 294.660156 272.429688 C 299.402344 273.3125 303.511719 275.410156 306.90625 278.867188 C 315.914062 288.03125 318.792969 302.199219 316.246094 314.511719 C 316.980469 314.710938 317.71875 314.914062 318.457031 315.117188 C 319.839844 307.0625 323.273438 299.453125 328.898438 293.460938 C 334.300781 287.703125 340.871094 284.847656 348.480469 283.277344 C 354.632812 282.011719 361.226562 281.085938 366.300781 277.066406 C 371.992188 272.554688 373.734375 265.347656 374.164062 258.417969 C 374.757812 248.789062 374.140625 238.996094 373.933594 229.363281 C 373.714844 219.429688 373.429688 209.496094 373.074219 199.566406 C 372.359375 179.464844 371.367188 159.363281 370.066406 139.285156 C 369.046875 123.539062 367.617188 106.835938 357.363281 94.042969 C 348.535156 83.019531 335.25 76.976562 322.027344 72.96875 C 286.503906 62.203125 248.769531 57.382812 211.863281 54.480469 C 172.875 51.414062 133.738281 51.15625 94.648438 51.273438 C 78.382812 51.324219 60.277344 49.546875 44.789062 55.566406 C 31.015625 60.921875 22.671875 72.859375 17.382812 86.15625 C 10.726562 102.882812 7.535156 121.273438 4.898438 139 C 2.070312 158.007812 0.644531 177.222656 0.648438 196.4375 C 0.660156 213.632812 0.261719 232.878906 7.113281 249.003906 C 12.335938 261.300781 22.574219 269.667969 35.148438 273.742188 C 49.242188 278.308594 64.367188 277.949219 78.996094 278.066406 C 98.207031 278.21875 117.421875 278.21875 136.628906 277.996094 C 173.789062 277.554688 210.933594 276.1875 248.015625 273.789062 C 257.660156 273.167969 267.300781 272.476562 276.933594 271.734375 C 278.398438 271.621094 278.410156 269.332031 276.933594 269.441406 "/><path style=" stroke:none;fill-rule:nonzero;fill:#100f0d;fill-opacity:1;" d="M 108.308594 58.550781 C 97.597656 58.375 86.886719 58.542969 76.1875 59.105469 C 66.992188 59.589844 57.027344 59.554688 48.164062 62.351562 C 40.28125 64.839844 35.085938 70.535156 30.773438 77.335938 C 25.519531 85.621094 21.441406 94.566406 18.425781 103.882812 C 18.113281 104.859375 19.648438 105.277344 19.964844 104.304688 C 22.792969 95.550781 26.578125 87.15625 31.410156 79.316406 C 36.492188 71.070312 42.464844 65.019531 52.21875 62.941406 C 60.964844 61.082031 70.269531 60.960938 79.175781 60.550781 C 88.878906 60.105469 98.59375 59.984375 108.308594 60.140625 C 109.332031 60.15625 109.332031 58.566406 108.308594 58.550781 "/><path style=" stroke:none;fill-rule:nonzero;fill:#100f0d;fill-opacity:1;" d="M 363.679688 237.480469 C 364.511719 249.90625 363.746094 264.515625 352.960938 272.773438 C 347.648438 276.835938 341.070312 277.003906 335.023438 279.285156 C 330.402344 281.03125 326.5 283.941406 323.355469 287.726562 C 322.707031 288.507812 323.824219 289.636719 324.480469 288.851562 C 329.183594 283.191406 335.003906 280.695312 342 278.988281 C 347.75 277.582031 352.859375 275.714844 356.96875 271.277344 C 365.425781 262.148438 366.054688 249.242188 365.269531 237.480469 C 365.203125 236.464844 363.613281 236.457031 363.679688 237.480469 "/><path style=" stroke:none;fill-rule:nonzero;fill:#100f0d;fill-opacity:1;" d="M 336.585938 89.214844 C 342.960938 92.941406 347.867188 98.472656 350.726562 105.289062 C 351.121094 106.214844 352.660156 105.808594 352.265625 104.867188 C 349.238281 97.652344 344.152344 91.792969 337.390625 87.839844 C 336.503906 87.324219 335.703125 88.695312 336.585938 89.214844 "/><path style=" stroke:none;fill-rule:nonzero;fill:#100f0d;fill-opacity:1;" d="M 30.601562 119.929688 C 26.832031 122.15625 23.90625 125.167969 21.800781 129.011719 C 22.292969 129.144531 22.789062 129.277344 23.28125 129.414062 C 23.261719 124.410156 19.625 120.496094 14.675781 119.96875 C 14.746094 120.492188 14.816406 121.011719 14.890625 121.53125 C 19.089844 120.160156 22.554688 117.78125 25.289062 114.304688 C 24.835938 114.117188 24.382812 113.929688 23.929688 113.742188 C 24.007812 118.234375 27.703125 121.660156 32.210938 121.257812 C 33.222656 121.164062 33.234375 119.574219 32.210938 119.664062 C 28.601562 119.988281 25.585938 117.398438 25.523438 113.742188 C 25.511719 113.117188 24.613281 112.609375 24.164062 113.179688 C 21.609375 116.433594 18.410156 118.710938 14.464844 119.996094 C 13.574219 120.289062 13.800781 121.464844 14.675781 121.558594 C 18.777344 121.996094 21.671875 125.328125 21.6875 129.414062 C 21.691406 130.183594 22.789062 130.515625 23.171875 129.8125 C 25.152344 126.203125 27.859375 123.398438 31.40625 121.300781 C 32.289062 120.78125 31.488281 119.40625 30.601562 119.929688 "/><g style="fill:#000000;fill-opacity:1;"><g transform="translate(19.781663, 160.223821)"><path style="stroke:none" d="M 30.0625 0.71875 C 28.59375 0.71875 27.3125 -1.171875 26.21875 -4.953125 C 25.800781 -6.398438 25.28125 -8.925781 24.65625 -12.53125 C 23.019531 -12.3125 20.878906 -11.910156 18.234375 -11.328125 L 11.828125 -10 C 11.023438 -7.90625 9.65625 -4.835938 7.71875 -0.796875 C 7.207031 0.0976562 6.507812 0.546875 5.625 0.546875 C 4.988281 0.546875 4.414062 0.316406 3.90625 -0.140625 C 3.40625 -0.609375 3.15625 -1.1875 3.15625 -1.875 C 3.15625 -2.644531 4.363281 -5.570312 6.78125 -10.65625 C 6.507812 -11.070312 6.375 -11.550781 6.375 -12.09375 C 6.375 -13.394531 7.160156 -14.234375 8.734375 -14.609375 C 10.554688 -18.035156 12.863281 -21.976562 15.65625 -26.4375 C 19.457031 -32.507812 21.820312 -35.546875 22.75 -35.546875 C 24.019531 -35.546875 24.890625 -34.664062 25.359375 -32.90625 L 26.875 -24.828125 L 30.453125 -8.109375 L 31.828125 -4.3125 C 32.285156 -3.007812 32.515625 -2.140625 32.515625 -1.703125 C 32.515625 -1.015625 32.265625 -0.441406 31.765625 0.015625 C 31.273438 0.484375 30.707031 0.71875 30.0625 0.71875 Z M 21.578125 -26.78125 L 14.703125 -15.6875 C 16.640625 -16.1875 19.582031 -16.785156 23.53125 -17.484375 Z M 21.578125 -26.78125 "/></g></g><g style="fill:#000000;fill-opacity:1;"><g transform="translate(55.8082, 160.223821)"><path style="stroke:none" d=""/></g></g><g style="fill:#000000;fill-opacity:1;"><g transform="translate(70.526651, 160.223821)"><path style="stroke:none" d="M 39.09375 2 C 38.226562 2 37.515625 1.550781 36.953125 0.65625 C 36.472656 -0.113281 36.039062 -1.398438 35.65625 -3.203125 L 34.78125 -7.34375 C 34.125 -9.90625 33.082031 -15.5625 31.65625 -24.3125 L 26.84375 -9.8125 L 25.421875 -5.25 C 24.847656 -3.4375 24.25 -1.953125 23.625 -0.796875 C 22.945312 0.421875 22.039062 1.03125 20.90625 1.03125 C 19.957031 1.03125 19.210938 0.519531 18.671875 -0.5 C 18.316406 -1.175781 17.992188 -2.035156 17.703125 -3.078125 L 17 -5.75 C 15.382812 -11.40625 13.957031 -17.46875 12.71875 -23.9375 L 11.859375 -19.625 L 8.75 -6.921875 C 8.625 -5.429688 8.222656 -3.226562 7.546875 -0.3125 C 7.066406 0.9375 6.273438 1.5625 5.171875 1.5625 C 4.390625 1.5625 3.765625 1.28125 3.296875 0.71875 C 2.890625 0.238281 2.6875 -0.351562 2.6875 -1.0625 C 2.6875 -3.738281 3.242188 -7.023438 4.359375 -10.921875 L 7 -20.609375 L 8.390625 -28.1875 C 9.097656 -31.738281 9.84375 -34.054688 10.625 -35.140625 C 11.269531 -36.078125 12.066406 -36.546875 13.015625 -36.546875 C 14.054688 -36.546875 14.832031 -35.953125 15.34375 -34.765625 C 15.96875 -33.335938 16.644531 -30.425781 17.375 -26.03125 C 18.21875 -20.75 19.539062 -15.039062 21.34375 -8.90625 C 23.707031 -15.070312 25.757812 -21.5 27.5 -28.1875 L 28.21875 -31.703125 C 28.507812 -33.117188 28.882812 -34.257812 29.34375 -35.125 C 29.96875 -36.3125 30.828125 -36.90625 31.921875 -36.90625 C 33.296875 -36.90625 34.347656 -35.570312 35.078125 -32.90625 C 35.328125 -31.988281 35.640625 -30.097656 36.015625 -27.234375 C 36.960938 -19.984375 38.140625 -13.789062 39.546875 -8.65625 L 40.71875 -4.515625 C 41.332031 -2.304688 41.640625 -0.945312 41.640625 -0.4375 C 41.640625 0.25 41.378906 0.828125 40.859375 1.296875 C 40.335938 1.765625 39.75 2 39.09375 2 Z M 39.09375 2 "/></g></g><g style="fill:#000000;fill-opacity:1;"><g transform="translate(114.008612, 160.223821)"><path style="stroke:none" d="M 7.9375 -30.453125 C 7.164062 -30.453125 6.5 -30.722656 5.9375 -31.265625 C 5.375 -31.816406 5.09375 -32.476562 5.09375 -33.25 C 5.09375 -34.019531 5.375 -34.675781 5.9375 -35.21875 C 6.5 -35.757812 7.164062 -36.03125 7.9375 -36.03125 C 8.707031 -36.03125 9.367188 -35.757812 9.921875 -35.21875 C 10.472656 -34.675781 10.75 -34.019531 10.75 -33.25 C 10.75 -32.476562 10.472656 -31.816406 9.921875 -31.265625 C 9.367188 -30.722656 8.707031 -30.453125 7.9375 -30.453125 Z M 9.015625 -10.921875 C 9.015625 -9.960938 9.039062 -8.523438 9.09375 -6.609375 C 9.15625 -4.691406 9.1875 -3.25 9.1875 -2.28125 C 9.1875 -1.582031 8.96875 -1.003906 8.53125 -0.546875 C 8.101562 -0.0976562 7.535156 0.125 6.828125 0.125 C 6.140625 0.125 5.570312 -0.0976562 5.125 -0.546875 C 4.6875 -1.003906 4.46875 -1.582031 4.46875 -2.28125 C 4.46875 -3.25 4.441406 -4.691406 4.390625 -6.609375 C 4.335938 -8.523438 4.3125 -9.960938 4.3125 -10.921875 C 4.3125 -12.429688 4.390625 -14.3125 4.546875 -16.5625 C 4.703125 -18.8125 4.78125 -20.691406 4.78125 -22.203125 C 4.78125 -22.921875 5 -23.503906 5.4375 -23.953125 C 5.882812 -24.410156 6.453125 -24.640625 7.140625 -24.640625 C 7.828125 -24.640625 8.390625 -24.410156 8.828125 -23.953125 C 9.273438 -23.503906 9.5 -22.921875 9.5 -22.203125 C 9.5 -20.691406 9.414062 -18.8125 9.25 -16.5625 C 9.09375 -14.3125 9.015625 -12.429688 9.015625 -10.921875 Z M 9.015625 -10.921875 "/></g></g><g style="fill:#000000;fill-opacity:1;"><g transform="translate(127.813173, 160.223821)"><path style="stroke:none" d="M 9.453125 -18.90625 L 9.09375 -6.953125 C 9.09375 -5.679688 9.03125 -3.820312 8.90625 -1.375 C 8.738281 0.226562 7.953125 1.03125 6.546875 1.03125 C 4.972656 1.03125 4.1875 0.210938 4.1875 -1.421875 C 4.1875 -3.359375 4.273438 -6.269531 4.453125 -10.15625 C 4.628906 -14.050781 4.71875 -16.96875 4.71875 -18.90625 C 4.71875 -21.4375 4.753906 -24.332031 4.828125 -27.59375 C 4.910156 -30.863281 4.953125 -33.765625 4.953125 -36.296875 C 4.953125 -37.898438 5.738281 -38.703125 7.3125 -38.703125 C 8.894531 -38.703125 9.6875 -37.898438 9.6875 -36.296875 C 9.6875 -33.765625 9.644531 -30.863281 9.5625 -27.59375 C 9.488281 -24.332031 9.453125 -21.4375 9.453125 -18.90625 Z M 9.453125 -18.90625 "/></g></g><g style="fill:#000000;fill-opacity:1;"><g transform="translate(141.305092, 160.223821)"><path style="stroke:none" d="M 22.125 1.59375 C 21.820312 1.59375 21.269531 1.238281 20.46875 0.53125 C 19.75 -0.125 19.210938 -0.710938 18.859375 -1.234375 C 17.316406 -0.390625 15.957031 0.238281 14.78125 0.65625 C 13.613281 1.082031 12.640625 1.296875 11.859375 1.296875 C 8.109375 1.296875 5.375 0.238281 3.65625 -1.875 C 2.039062 -3.863281 1.234375 -6.910156 1.234375 -11.015625 C 1.234375 -14.898438 2.566406 -18.21875 5.234375 -20.96875 C 7.898438 -23.726562 11.085938 -25.109375 14.796875 -25.109375 C 16.191406 -25.109375 17.753906 -24.75 19.484375 -24.03125 C 21.660156 -23.132812 22.75 -22.050781 22.75 -20.78125 C 22.75 -20.351562 22.59375 -19.96875 22.28125 -19.625 C 22.113281 -19.019531 21.984375 -18.019531 21.890625 -16.625 C 21.804688 -15.226562 21.757812 -13.441406 21.75 -11.265625 C 21.726562 -9.273438 21.863281 -7.703125 22.15625 -6.546875 C 22.3125 -5.835938 22.816406 -4.425781 23.671875 -2.3125 C 23.785156 -2.019531 23.96875 -1.59375 24.21875 -1.03125 L 24.375 -0.625 C 24.375 0.0195312 24.144531 0.550781 23.6875 0.96875 C 23.238281 1.382812 22.71875 1.59375 22.125 1.59375 Z M 17.125 -15.125 C 17.125 -15.820312 17.164062 -16.570312 17.25 -17.375 C 17.34375 -18.1875 17.476562 -19.050781 17.65625 -19.96875 C 17.0625 -20.269531 16.550781 -20.492188 16.125 -20.640625 C 15.695312 -20.785156 15.359375 -20.859375 15.109375 -20.859375 C 12.617188 -20.859375 10.472656 -19.84375 8.671875 -17.8125 C 6.867188 -15.78125 5.96875 -13.441406 5.96875 -10.796875 C 5.96875 -8.171875 6.429688 -6.195312 7.359375 -4.875 C 8.285156 -3.5625 9.679688 -2.90625 11.546875 -2.90625 C 13.085938 -2.90625 14.394531 -3.1875 15.46875 -3.75 C 16.039062 -4.050781 16.847656 -4.660156 17.890625 -5.578125 C 17.378906 -9.828125 17.125 -13.007812 17.125 -15.125 Z M 17.125 -15.125 "/></g></g><g style="fill:#000000;fill-opacity:1;"><g transform="translate(166.509238, 160.223821)"><path style="stroke:none" d="M 25.5 -21.234375 C 25.300781 -18.878906 25.203125 -16.523438 25.203125 -14.171875 C 25.203125 -8.828125 25.453125 -4.789062 25.953125 -2.0625 C 25.984375 -1.84375 26 -1.660156 26 -1.515625 C 26 -0.867188 25.773438 -0.335938 25.328125 0.078125 C 24.878906 0.492188 24.359375 0.703125 23.765625 0.703125 C 22.773438 0.703125 22.046875 -0.0195312 21.578125 -1.46875 C 20.421875 -0.613281 19.21875 0.0234375 17.96875 0.453125 C 16.726562 0.890625 15.4375 1.109375 14.09375 1.109375 C 10.769531 1.109375 8.019531 0 5.84375 -2.21875 C 3.601562 -4.476562 2.484375 -7.378906 2.484375 -10.921875 C 2.484375 -15.203125 3.613281 -18.632812 5.875 -21.21875 C 8.144531 -23.800781 11.09375 -25.09375 14.71875 -25.09375 C 16.582031 -25.09375 18.019531 -24.800781 19.03125 -24.21875 L 21.296875 -22.5625 C 21.515625 -29.3125 21.773438 -33.859375 22.078125 -36.203125 C 22.285156 -37.628906 23.015625 -38.34375 24.265625 -38.34375 C 25.734375 -38.34375 26.46875 -37.566406 26.46875 -36.015625 C 26.46875 -33.785156 26.144531 -28.859375 25.5 -21.234375 Z M 14.8125 -20.609375 C 12.125 -20.609375 10.101562 -19.8125 8.75 -18.21875 C 7.40625 -16.625 6.734375 -14.222656 6.734375 -11.015625 C 6.734375 -8.953125 7.46875 -7.171875 8.9375 -5.671875 C 10.40625 -4.179688 12.125 -3.4375 14.09375 -3.4375 C 15.4375 -3.4375 16.578125 -3.6875 17.515625 -4.1875 C 18.054688 -4.476562 18.945312 -5.144531 20.1875 -6.1875 C 20.425781 -6.394531 20.65625 -6.640625 20.875 -6.921875 L 20.8125 -11.09375 L 20.828125 -13.875 L 20.875 -16.71875 C 20.269531 -18.019531 19.460938 -18.992188 18.453125 -19.640625 C 17.441406 -20.285156 16.226562 -20.609375 14.8125 -20.609375 Z M 14.8125 -20.609375 "/></g></g><g style="fill:#000000;fill-opacity:1;"><g transform="translate(195.441102, 160.223821)"><path style="stroke:none" d="M 24.3125 -21.453125 L 16 -3.46875 C 13.945312 0.914062 12.375 4.582031 11.28125 7.53125 L 9.6875 12.203125 C 9.269531 13.347656 8.550781 13.921875 7.53125 13.921875 C 6.851562 13.921875 6.269531 13.703125 5.78125 13.265625 C 5.289062 12.828125 5.046875 12.28125 5.046875 11.625 C 5.046875 10.019531 6.78125 5.375 10.25 -2.3125 L 1.640625 -18.890625 L 0.546875 -20.640625 C 0.117188 -21.378906 -0.09375 -21.992188 -0.09375 -22.484375 C -0.09375 -23.148438 0.15625 -23.726562 0.65625 -24.21875 C 1.164062 -24.71875 1.734375 -24.96875 2.359375 -24.96875 C 3.097656 -24.96875 3.664062 -24.6875 4.0625 -24.125 C 6.789062 -20.34375 9.71875 -14.957031 12.84375 -7.96875 L 16.40625 -16.265625 C 17.6875 -19.128906 18.921875 -21.597656 20.109375 -23.671875 C 20.617188 -24.566406 21.289062 -25.015625 22.125 -25.015625 C 22.789062 -25.015625 23.375 -24.78125 23.875 -24.3125 C 24.382812 -23.851562 24.640625 -23.300781 24.640625 -22.65625 C 24.640625 -22.300781 24.53125 -21.898438 24.3125 -21.453125 Z M 24.3125 -21.453125 "/></g></g><g style="fill:#000000;fill-opacity:1;"><g transform="translate(221.078143, 160.223821)"><path style="stroke:none" d=""/></g></g><g style="fill:#000000;fill-opacity:1;"><g transform="translate(235.796594, 160.223821)"><path style="stroke:none" d="M 19.4375 -20.5 C 19.101562 -20.5 18.707031 -20.515625 18.25 -20.546875 C 17.789062 -20.578125 17.394531 -20.59375 17.0625 -20.59375 C 16.6875 -20.59375 15.59375 -20.472656 13.78125 -20.234375 L 14.234375 -6.015625 L 14.265625 -4.953125 L 14.28125 -3.734375 C 14.351562 -0.210938 13.515625 1.546875 11.765625 1.546875 C 11.117188 1.546875 10.554688 1.332031 10.078125 0.90625 C 9.609375 0.488281 9.375 -0.03125 9.375 -0.65625 C 9.375 -1.257812 9.398438 -2.171875 9.453125 -3.390625 C 9.503906 -4.609375 9.53125 -5.523438 9.53125 -6.140625 L 9.046875 -20.1875 C 7.867188 -20.226562 6.085938 -20.363281 3.703125 -20.59375 C 2.273438 -20.78125 1.5625 -21.570312 1.5625 -22.96875 C 1.5625 -23.675781 1.773438 -24.257812 2.203125 -24.71875 C 2.640625 -25.1875 3.195312 -25.421875 3.875 -25.421875 L 8.921875 -25.015625 C 8.921875 -25.835938 8.882812 -26.929688 8.8125 -28.296875 C 8.738281 -29.671875 8.703125 -30.660156 8.703125 -31.265625 C 8.703125 -31.941406 8.9375 -32.5 9.40625 -32.9375 C 9.875 -33.382812 10.441406 -33.609375 11.109375 -33.609375 C 12.554688 -33.609375 13.398438 -32.425781 13.640625 -30.0625 C 13.691406 -29.46875 13.71875 -28.753906 13.71875 -27.921875 L 13.65625 -26.53125 L 13.640625 -25.046875 C 15.628906 -25.296875 16.769531 -25.421875 17.0625 -25.421875 C 18.726562 -25.421875 19.816406 -25.34375 20.328125 -25.1875 C 21.304688 -24.863281 21.796875 -24.109375 21.796875 -22.921875 C 21.796875 -22.210938 21.570312 -21.628906 21.125 -21.171875 C 20.6875 -20.722656 20.125 -20.5 19.4375 -20.5 Z M 19.4375 -20.5 "/></g></g><g style="fill:#000000;fill-opacity:1;"><g transform="translate(259.004616, 160.223821)"><path style="stroke:none" d="M 12.359375 1.421875 C 9.671875 1.421875 7.351562 0.425781 5.40625 -1.5625 C 3.25 -3.78125 2.113281 -6.753906 2 -10.484375 C 1.90625 -14.109375 2.816406 -17.300781 4.734375 -20.0625 C 6.984375 -23.320312 10.113281 -24.953125 14.125 -24.953125 C 17.332031 -24.953125 19.757812 -23.484375 21.40625 -20.546875 C 22.71875 -18.171875 23.351562 -15.316406 23.3125 -11.984375 C 23.257812 -8.421875 22.328125 -5.378906 20.515625 -2.859375 C 18.460938 -0.00390625 15.742188 1.421875 12.359375 1.421875 Z M 13.8125 -20.0625 C 11.445312 -20.082031 9.609375 -18.957031 8.296875 -16.6875 C 7.253906 -14.875 6.734375 -12.804688 6.734375 -10.484375 C 6.734375 -8.160156 7.367188 -6.347656 8.640625 -5.046875 C 9.691406 -3.972656 10.929688 -3.4375 12.359375 -3.4375 C 14.023438 -3.4375 15.460938 -4.046875 16.671875 -5.265625 C 18.035156 -6.609375 18.753906 -8.429688 18.828125 -10.734375 C 19.054688 -16.929688 17.382812 -20.039062 13.8125 -20.0625 Z M 13.8125 -20.0625 "/></g></g><g style="fill:#000000;fill-opacity:1;"><g transform="translate(284.90621, 160.223821)"><path style="stroke:none" d="M 23.375 0.984375 C 22.5 0.984375 21.820312 0.519531 21.34375 -0.40625 C 20.507812 -2.03125 19.25 -3.945312 17.5625 -6.15625 L 13.296875 -11.953125 C 12.367188 -11.210938 10.925781 -10.179688 8.96875 -8.859375 C 8.789062 -6.367188 8.703125 -3.945312 8.703125 -1.59375 C 8.703125 -0.863281 8.484375 -0.273438 8.046875 0.171875 C 7.609375 0.617188 7.039062 0.84375 6.34375 0.84375 C 4.726562 0.84375 3.921875 -0.242188 3.921875 -2.421875 C 3.921875 -3.753906 4.007812 -5.75 4.1875 -8.40625 C 4.375 -11.0625 4.46875 -13.054688 4.46875 -14.390625 C 4.46875 -16.828125 4.503906 -19.613281 4.578125 -22.75 C 4.648438 -25.882812 4.6875 -28.65625 4.6875 -31.0625 C 4.6875 -31.78125 4.648438 -32.628906 4.578125 -33.609375 C 4.503906 -34.585938 4.46875 -35.4375 4.46875 -36.15625 C 4.46875 -36.875 4.6875 -37.457031 5.125 -37.90625 C 5.570312 -38.351562 6.140625 -38.578125 6.828125 -38.578125 C 7.515625 -38.578125 8.078125 -38.351562 8.515625 -37.90625 C 8.960938 -37.457031 9.1875 -36.875 9.1875 -36.15625 C 9.1875 -35.414062 9.226562 -34.546875 9.3125 -33.546875 C 9.394531 -32.546875 9.4375 -31.675781 9.4375 -30.9375 L 9.265625 -23.1875 C 9.179688 -20.394531 9.15625 -17.601562 9.1875 -14.8125 C 11.363281 -16.476562 13.460938 -18.304688 15.484375 -20.296875 L 20.78125 -25.765625 C 21.3125 -26.304688 21.878906 -26.578125 22.484375 -26.578125 C 23.117188 -26.578125 23.6875 -26.328125 24.1875 -25.828125 C 24.695312 -25.335938 24.953125 -24.765625 24.953125 -24.109375 C 24.953125 -23.554688 24.71875 -23.015625 24.25 -22.484375 C 22.28125 -20.179688 19.847656 -17.707031 16.953125 -15.0625 L 22.203125 -7.921875 C 24.660156 -4.566406 25.890625 -2.382812 25.890625 -1.375 C 25.890625 -0.726562 25.632812 -0.175781 25.125 0.28125 C 24.625 0.75 24.039062 0.984375 23.375 0.984375 Z M 23.375 0.984375 "/></g></g><g style="fill:#000000;fill-opacity:1;"><g transform="translate(311.505231, 160.223821)"><path style="stroke:none" d="M 14.578125 1.109375 C 10.953125 1.109375 8.015625 0.203125 5.765625 -1.609375 C 3.316406 -3.617188 2.09375 -6.425781 2.09375 -10.03125 C 2.09375 -14.195312 3.101562 -17.691406 5.125 -20.515625 C 7.320312 -23.597656 10.253906 -25.140625 13.921875 -25.140625 C 16.585938 -25.140625 18.765625 -24.691406 20.453125 -23.796875 C 22.515625 -22.679688 23.546875 -20.976562 23.546875 -18.6875 C 23.546875 -17.082031 22.640625 -15.625 20.828125 -14.3125 C 20.023438 -13.738281 18.328125 -12.84375 15.734375 -11.625 L 6.546875 -7.265625 C 7.441406 -5.929688 8.554688 -4.925781 9.890625 -4.25 C 11.234375 -3.582031 12.796875 -3.25 14.578125 -3.25 C 15.679688 -3.25 16.976562 -3.457031 18.46875 -3.875 C 20.363281 -4.40625 21.582031 -5.097656 22.125 -5.953125 C 22.675781 -6.804688 23.265625 -7.234375 23.890625 -7.234375 C 24.453125 -7.234375 24.953125 -7.019531 25.390625 -6.59375 C 25.828125 -6.175781 26.046875 -5.6875 26.046875 -5.125 C 26.046875 -3.34375 24.613281 -1.8125 21.75 -0.53125 C 19.289062 0.5625 16.898438 1.109375 14.578125 1.109375 Z M 13.921875 -20.8125 C 11.972656 -20.8125 10.347656 -20.050781 9.046875 -18.53125 C 7.742188 -17.019531 6.773438 -14.738281 6.140625 -11.6875 L 13.515625 -15.203125 C 16.421875 -16.609375 18.488281 -17.835938 19.71875 -18.890625 C 18.34375 -20.171875 16.410156 -20.8125 13.921875 -20.8125 Z M 13.921875 -20.8125 "/></g></g><g style="fill:#000000;fill-opacity:1;"><g transform="translate(338.48907, 160.223821)"><path style="stroke:none" d="M 21.796875 1.703125 C 20.410156 1.703125 19.628906 0.953125 19.453125 -0.546875 L 18.78125 -5.828125 C 18.5625 -7.703125 18.453125 -9.457031 18.453125 -11.09375 C 18.453125 -11.539062 18.476562 -12.300781 18.53125 -13.375 C 18.59375 -14.445312 18.625 -15.207031 18.625 -15.65625 C 18.625 -19.125 17.976562 -20.859375 16.6875 -20.859375 C 14.894531 -20.859375 13.179688 -19.789062 11.546875 -17.65625 C 10.066406 -15.71875 8.910156 -13.265625 8.078125 -10.296875 C 8.046875 -9.671875 7.972656 -8.882812 7.859375 -7.9375 C 7.765625 -7.132812 7.71875 -6.359375 7.71875 -5.609375 C 7.71875 -5.128906 7.765625 -4.40625 7.859375 -3.4375 C 7.960938 -2.476562 8.015625 -1.757812 8.015625 -1.28125 C 8.015625 -0.550781 7.789062 0.0351562 7.34375 0.484375 C 6.90625 0.929688 6.34375 1.15625 5.65625 1.15625 C 4.945312 1.15625 4.375 0.929688 3.9375 0.484375 C 3.507812 0.0351562 3.296875 -0.550781 3.296875 -1.28125 C 3.296875 -1.757812 3.242188 -2.476562 3.140625 -3.4375 C 3.035156 -4.40625 2.984375 -5.128906 2.984375 -5.609375 C 2.984375 -7.253906 3.097656 -9.539062 3.328125 -12.46875 C 3.566406 -15.394531 3.6875 -17.6875 3.6875 -19.34375 C 3.6875 -19.851562 3.65625 -20.613281 3.59375 -21.625 C 3.539062 -22.632812 3.515625 -23.394531 3.515625 -23.90625 C 3.515625 -24.601562 3.742188 -25.171875 4.203125 -25.609375 C 4.660156 -26.046875 5.222656 -26.265625 5.890625 -26.265625 C 7.367188 -26.265625 8.179688 -25.222656 8.328125 -23.140625 L 8.390625 -20.328125 C 11.085938 -23.921875 13.851562 -25.71875 16.6875 -25.71875 C 19.257812 -25.71875 21.050781 -24.585938 22.0625 -22.328125 C 22.75 -20.816406 23.125 -18.585938 23.1875 -15.640625 L 23.1875 -13.203125 L 23.171875 -10.96875 C 23.171875 -9.632812 23.34375 -7.910156 23.6875 -5.796875 C 24.03125 -3.691406 24.203125 -1.984375 24.203125 -0.671875 C 24.203125 0.0351562 23.972656 0.609375 23.515625 1.046875 C 23.054688 1.484375 22.484375 1.703125 21.796875 1.703125 Z M 21.796875 1.703125 "/></g></g><g style="fill:#000000;fill-opacity:1;"><g transform="translate(66.492598, 228.473817)"><path style="stroke:none" d="M 12.359375 1.421875 C 9.671875 1.421875 7.351562 0.425781 5.40625 -1.5625 C 3.25 -3.78125 2.113281 -6.753906 2 -10.484375 C 1.90625 -14.109375 2.816406 -17.300781 4.734375 -20.0625 C 6.984375 -23.320312 10.113281 -24.953125 14.125 -24.953125 C 17.332031 -24.953125 19.757812 -23.484375 21.40625 -20.546875 C 22.71875 -18.171875 23.351562 -15.316406 23.3125 -11.984375 C 23.257812 -8.421875 22.328125 -5.378906 20.515625 -2.859375 C 18.460938 -0.00390625 15.742188 1.421875 12.359375 1.421875 Z M 13.8125 -20.0625 C 11.445312 -20.082031 9.609375 -18.957031 8.296875 -16.6875 C 7.253906 -14.875 6.734375 -12.804688 6.734375 -10.484375 C 6.734375 -8.160156 7.367188 -6.347656 8.640625 -5.046875 C 9.691406 -3.972656 10.929688 -3.4375 12.359375 -3.4375 C 14.023438 -3.4375 15.460938 -4.046875 16.671875 -5.265625 C 18.035156 -6.609375 18.753906 -8.429688 18.828125 -10.734375 C 19.054688 -16.929688 17.382812 -20.039062 13.8125 -20.0625 Z M 13.8125 -20.0625 "/></g></g><g style="fill:#000000;fill-opacity:1;"><g transform="translate(92.394192, 228.473817)"><path style="stroke:none" d="M 21.796875 1.703125 C 20.410156 1.703125 19.628906 0.953125 19.453125 -0.546875 L 18.78125 -5.828125 C 18.5625 -7.703125 18.453125 -9.457031 18.453125 -11.09375 C 18.453125 -11.539062 18.476562 -12.300781 18.53125 -13.375 C 18.59375 -14.445312 18.625 -15.207031 18.625 -15.65625 C 18.625 -19.125 17.976562 -20.859375 16.6875 -20.859375 C 14.894531 -20.859375 13.179688 -19.789062 11.546875 -17.65625 C 10.066406 -15.71875 8.910156 -13.265625 8.078125 -10.296875 C 8.046875 -9.671875 7.972656 -8.882812 7.859375 -7.9375 C 7.765625 -7.132812 7.71875 -6.359375 7.71875 -5.609375 C 7.71875 -5.128906 7.765625 -4.40625 7.859375 -3.4375 C 7.960938 -2.476562 8.015625 -1.757812 8.015625 -1.28125 C 8.015625 -0.550781 7.789062 0.0351562 7.34375 0.484375 C 6.90625 0.929688 6.34375 1.15625 5.65625 1.15625 C 4.945312 1.15625 4.375 0.929688 3.9375 0.484375 C 3.507812 0.0351562 3.296875 -0.550781 3.296875 -1.28125 C 3.296875 -1.757812 3.242188 -2.476562 3.140625 -3.4375 C 3.035156 -4.40625 2.984375 -5.128906 2.984375 -5.609375 C 2.984375 -7.253906 3.097656 -9.539062 3.328125 -12.46875 C 3.566406 -15.394531 3.6875 -17.6875 3.6875 -19.34375 C 3.6875 -19.851562 3.65625 -20.613281 3.59375 -21.625 C 3.539062 -22.632812 3.515625 -23.394531 3.515625 -23.90625 C 3.515625 -24.601562 3.742188 -25.171875 4.203125 -25.609375 C 4.660156 -26.046875 5.222656 -26.265625 5.890625 -26.265625 C 7.367188 -26.265625 8.179688 -25.222656 8.328125 -23.140625 L 8.390625 -20.328125 C 11.085938 -23.921875 13.851562 -25.71875 16.6875 -25.71875 C 19.257812 -25.71875 21.050781 -24.585938 22.0625 -22.328125 C 22.75 -20.816406 23.125 -18.585938 23.1875 -15.640625 L 23.1875 -13.203125 L 23.171875 -10.96875 C 23.171875 -9.632812 23.34375 -7.910156 23.6875 -5.796875 C 24.03125 -3.691406 24.203125 -1.984375 24.203125 -0.671875 C 24.203125 0.0351562 23.972656 0.609375 23.515625 1.046875 C 23.054688 1.484375 22.484375 1.703125 21.796875 1.703125 Z M 21.796875 1.703125 "/></g></g><g style="fill:#000000;fill-opacity:1;"><g transform="translate(118.175532, 228.473817)"><path style="stroke:none" d=""/></g></g><g style="fill:#000000;fill-opacity:1;"><g transform="translate(132.893983, 228.473817)"><path style="stroke:none" d="M 21.3125 -0.96875 C 17.707031 0.445312 13.097656 1.15625 7.484375 1.15625 C 6.796875 1.15625 6.140625 0.828125 5.515625 0.171875 C 4.898438 -0.472656 4.59375 -1.140625 4.59375 -1.828125 L 4.59375 -8.828125 C 4.59375 -11.117188 4.738281 -14.390625 5.03125 -18.640625 C 5.351562 -23.222656 5.53125 -26.546875 5.5625 -28.609375 C 5.539062 -30.078125 5.628906 -32.269531 5.828125 -35.1875 C 5.929688 -35.988281 6.191406 -36.519531 6.609375 -36.78125 C 8.796875 -37.457031 11.273438 -37.796875 14.046875 -37.796875 C 16.867188 -37.796875 19.578125 -36.832031 22.171875 -34.90625 C 25.171875 -32.6875 26.671875 -29.953125 26.671875 -26.703125 C 26.671875 -22.578125 25.066406 -19.328125 21.859375 -16.953125 C 24.265625 -15.929688 26.066406 -14.796875 27.265625 -13.546875 C 28.460938 -12.296875 29.0625 -10.929688 29.0625 -9.453125 C 29.0625 -7.515625 28.007812 -5.640625 25.90625 -3.828125 C 24.445312 -2.546875 22.914062 -1.59375 21.3125 -0.96875 Z M 14.046875 -32.890625 C 12.296875 -32.890625 11.070312 -32.832031 10.375 -32.71875 L 10.3125 -28.5 L 9.84375 -19.203125 C 12.113281 -19.003906 13.332031 -18.914062 13.5 -18.9375 C 15.914062 -19.125 17.894531 -19.875 19.4375 -21.1875 C 21.09375 -22.613281 21.921875 -24.453125 21.921875 -26.703125 C 21.921875 -28.222656 21.078125 -29.632812 19.390625 -30.9375 C 17.703125 -32.238281 15.921875 -32.890625 14.046875 -32.890625 Z M 16.75 -13.609375 L 14.1875 -14.03125 C 13.976562 -14.03125 13.660156 -14.015625 13.234375 -13.984375 C 12.816406 -13.960938 12.492188 -13.953125 12.265625 -13.953125 C 11.398438 -13.953125 10.476562 -14.023438 9.5 -14.171875 C 9.40625 -12.148438 9.359375 -10.34375 9.359375 -8.75 L 9.359375 -3.78125 C 13.554688 -3.925781 16.976562 -4.519531 19.625 -5.5625 C 20.75 -5.988281 21.828125 -6.660156 22.859375 -7.578125 C 23.828125 -8.410156 24.3125 -9.035156 24.3125 -9.453125 C 24.3125 -10.203125 23.285156 -11.050781 21.234375 -12 C 19.703125 -12.726562 18.207031 -13.265625 16.75 -13.609375 Z M 16.75 -13.609375 "/></g></g><g style="fill:#000000;fill-opacity:1;"><g transform="translate(163.942225, 228.473817)"><path style="stroke:none" d="M 7.9375 -30.453125 C 7.164062 -30.453125 6.5 -30.722656 5.9375 -31.265625 C 5.375 -31.816406 5.09375 -32.476562 5.09375 -33.25 C 5.09375 -34.019531 5.375 -34.675781 5.9375 -35.21875 C 6.5 -35.757812 7.164062 -36.03125 7.9375 -36.03125 C 8.707031 -36.03125 9.367188 -35.757812 9.921875 -35.21875 C 10.472656 -34.675781 10.75 -34.019531 10.75 -33.25 C 10.75 -32.476562 10.472656 -31.816406 9.921875 -31.265625 C 9.367188 -30.722656 8.707031 -30.453125 7.9375 -30.453125 Z M 9.015625 -10.921875 C 9.015625 -9.960938 9.039062 -8.523438 9.09375 -6.609375 C 9.15625 -4.691406 9.1875 -3.25 9.1875 -2.28125 C 9.1875 -1.582031 8.96875 -1.003906 8.53125 -0.546875 C 8.101562 -0.0976562 7.535156 0.125 6.828125 0.125 C 6.140625 0.125 5.570312 -0.0976562 5.125 -0.546875 C 4.6875 -1.003906 4.46875 -1.582031 4.46875 -2.28125 C 4.46875 -3.25 4.441406 -4.691406 4.390625 -6.609375 C 4.335938 -8.523438 4.3125 -9.960938 4.3125 -10.921875 C 4.3125 -12.429688 4.390625 -14.3125 4.546875 -16.5625 C 4.703125 -18.8125 4.78125 -20.691406 4.78125 -22.203125 C 4.78125 -22.921875 5 -23.503906 5.4375 -23.953125 C 5.882812 -24.410156 6.453125 -24.640625 7.140625 -24.640625 C 7.828125 -24.640625 8.390625 -24.410156 8.828125 -23.953125 C 9.273438 -23.503906 9.5 -22.921875 9.5 -22.203125 C 9.5 -20.691406 9.414062 -18.8125 9.25 -16.5625 C 9.09375 -14.3125 9.015625 -12.429688 9.015625 -10.921875 Z M 9.015625 -10.921875 "/></g></g><g style="fill:#000000;fill-opacity:1;"><g transform="translate(177.746786, 228.473817)"><path style="stroke:none" d="M 19.4375 -20.5 C 19.101562 -20.5 18.707031 -20.515625 18.25 -20.546875 C 17.789062 -20.578125 17.394531 -20.59375 17.0625 -20.59375 C 16.6875 -20.59375 15.59375 -20.472656 13.78125 -20.234375 L 14.234375 -6.015625 L 14.265625 -4.953125 L 14.28125 -3.734375 C 14.351562 -0.210938 13.515625 1.546875 11.765625 1.546875 C 11.117188 1.546875 10.554688 1.332031 10.078125 0.90625 C 9.609375 0.488281 9.375 -0.03125 9.375 -0.65625 C 9.375 -1.257812 9.398438 -2.171875 9.453125 -3.390625 C 9.503906 -4.609375 9.53125 -5.523438 9.53125 -6.140625 L 9.046875 -20.1875 C 7.867188 -20.226562 6.085938 -20.363281 3.703125 -20.59375 C 2.273438 -20.78125 1.5625 -21.570312 1.5625 -22.96875 C 1.5625 -23.675781 1.773438 -24.257812 2.203125 -24.71875 C 2.640625 -25.1875 3.195312 -25.421875 3.875 -25.421875 L 8.921875 -25.015625 C 8.921875 -25.835938 8.882812 -26.929688 8.8125 -28.296875 C 8.738281 -29.671875 8.703125 -30.660156 8.703125 -31.265625 C 8.703125 -31.941406 8.9375 -32.5 9.40625 -32.9375 C 9.875 -33.382812 10.441406 -33.609375 11.109375 -33.609375 C 12.554688 -33.609375 13.398438 -32.425781 13.640625 -30.0625 C 13.691406 -29.46875 13.71875 -28.753906 13.71875 -27.921875 L 13.65625 -26.53125 L 13.640625 -25.046875 C 15.628906 -25.296875 16.769531 -25.421875 17.0625 -25.421875 C 18.726562 -25.421875 19.816406 -25.34375 20.328125 -25.1875 C 21.304688 -24.863281 21.796875 -24.109375 21.796875 -22.921875 C 21.796875 -22.210938 21.570312 -21.628906 21.125 -21.171875 C 20.6875 -20.722656 20.125 -20.5 19.4375 -20.5 Z M 19.4375 -20.5 "/></g></g><g style="fill:#000000;fill-opacity:1;"><g transform="translate(200.954808, 228.473817)"><path style="stroke:none" d="M 14.21875 1.515625 C 10.925781 1.515625 8.179688 0.519531 5.984375 -1.46875 C 3.679688 -3.550781 2.53125 -6.300781 2.53125 -9.71875 C 2.53125 -12.976562 3.609375 -16.335938 5.765625 -19.796875 C 8.171875 -23.648438 10.882812 -25.578125 13.90625 -25.578125 C 15.476562 -25.578125 17.234375 -25.207031 19.171875 -24.46875 C 21.628906 -23.519531 22.859375 -22.363281 22.859375 -21 C 22.859375 -20.394531 22.65625 -19.851562 22.25 -19.375 C 21.851562 -18.90625 21.359375 -18.671875 20.765625 -18.671875 C 20.296875 -18.671875 19.890625 -18.8125 19.546875 -19.09375 C 19.203125 -19.375 18.867188 -19.648438 18.546875 -19.921875 C 17.597656 -20.671875 16.050781 -21.046875 13.90625 -21.046875 C 12.269531 -21.046875 10.648438 -19.585938 9.046875 -16.671875 C 7.585938 -13.992188 6.859375 -11.675781 6.859375 -9.71875 C 6.859375 -7.601562 7.578125 -5.9375 9.015625 -4.71875 C 10.367188 -3.570312 12.101562 -3 14.21875 -3 C 15.175781 -3 16.203125 -3.257812 17.296875 -3.78125 L 20.09375 -5.265625 C 20.570312 -5.523438 20.914062 -5.65625 21.125 -5.65625 C 21.71875 -5.65625 22.226562 -5.414062 22.65625 -4.9375 C 23.09375 -4.46875 23.3125 -3.925781 23.3125 -3.3125 C 23.3125 -2.144531 22.078125 -1.015625 19.609375 0.078125 C 17.441406 1.035156 15.644531 1.515625 14.21875 1.515625 Z M 14.21875 1.515625 "/></g></g><g style="fill:#000000;fill-opacity:1;"><g transform="translate(226.255152, 228.473817)"><path style="stroke:none" d="M 12.359375 1.421875 C 9.671875 1.421875 7.351562 0.425781 5.40625 -1.5625 C 3.25 -3.78125 2.113281 -6.753906 2 -10.484375 C 1.90625 -14.109375 2.816406 -17.300781 4.734375 -20.0625 C 6.984375 -23.320312 10.113281 -24.953125 14.125 -24.953125 C 17.332031 -24.953125 19.757812 -23.484375 21.40625 -20.546875 C 22.71875 -18.171875 23.351562 -15.316406 23.3125 -11.984375 C 23.257812 -8.421875 22.328125 -5.378906 20.515625 -2.859375 C 18.460938 -0.00390625 15.742188 1.421875 12.359375 1.421875 Z M 13.8125 -20.0625 C 11.445312 -20.082031 9.609375 -18.957031 8.296875 -16.6875 C 7.253906 -14.875 6.734375 -12.804688 6.734375 -10.484375 C 6.734375 -8.160156 7.367188 -6.347656 8.640625 -5.046875 C 9.691406 -3.972656 10.929688 -3.4375 12.359375 -3.4375 C 14.023438 -3.4375 15.460938 -4.046875 16.671875 -5.265625 C 18.035156 -6.609375 18.753906 -8.429688 18.828125 -10.734375 C 19.054688 -16.929688 17.382812 -20.039062 13.8125 -20.0625 Z M 13.8125 -20.0625 "/></g></g><g style="fill:#000000;fill-opacity:1;"><g transform="translate(252.156746, 228.473817)"><path style="stroke:none" d="M 7.9375 -30.453125 C 7.164062 -30.453125 6.5 -30.722656 5.9375 -31.265625 C 5.375 -31.816406 5.09375 -32.476562 5.09375 -33.25 C 5.09375 -34.019531 5.375 -34.675781 5.9375 -35.21875 C 6.5 -35.757812 7.164062 -36.03125 7.9375 -36.03125 C 8.707031 -36.03125 9.367188 -35.757812 9.921875 -35.21875 C 10.472656 -34.675781 10.75 -34.019531 10.75 -33.25 C 10.75 -32.476562 10.472656 -31.816406 9.921875 -31.265625 C 9.367188 -30.722656 8.707031 -30.453125 7.9375 -30.453125 Z M 9.015625 -10.921875 C 9.015625 -9.960938 9.039062 -8.523438 9.09375 -6.609375 C 9.15625 -4.691406 9.1875 -3.25 9.1875 -2.28125 C 9.1875 -1.582031 8.96875 -1.003906 8.53125 -0.546875 C 8.101562 -0.0976562 7.535156 0.125 6.828125 0.125 C 6.140625 0.125 5.570312 -0.0976562 5.125 -0.546875 C 4.6875 -1.003906 4.46875 -1.582031 4.46875 -2.28125 C 4.46875 -3.25 4.441406 -4.691406 4.390625 -6.609375 C 4.335938 -8.523438 4.3125 -9.960938 4.3125 -10.921875 C 4.3125 -12.429688 4.390625 -14.3125 4.546875 -16.5625 C 4.703125 -18.8125 4.78125 -20.691406 4.78125 -22.203125 C 4.78125 -22.921875 5 -23.503906 5.4375 -23.953125 C 5.882812 -24.410156 6.453125 -24.640625 7.140625 -24.640625 C 7.828125 -24.640625 8.390625 -24.410156 8.828125 -23.953125 C 9.273438 -23.503906 9.5 -22.921875 9.5 -22.203125 C 9.5 -20.691406 9.414062 -18.8125 9.25 -16.5625 C 9.09375 -14.3125 9.015625 -12.429688 9.015625 -10.921875 Z M 9.015625 -10.921875 "/></g></g><g style="fill:#000000;fill-opacity:1;"><g transform="translate(265.961318, 228.473817)"><path style="stroke:none" d="M 21.796875 1.703125 C 20.410156 1.703125 19.628906 0.953125 19.453125 -0.546875 L 18.78125 -5.828125 C 18.5625 -7.703125 18.453125 -9.457031 18.453125 -11.09375 C 18.453125 -11.539062 18.476562 -12.300781 18.53125 -13.375 C 18.59375 -14.445312 18.625 -15.207031 18.625 -15.65625 C 18.625 -19.125 17.976562 -20.859375 16.6875 -20.859375 C 14.894531 -20.859375 13.179688 -19.789062 11.546875 -17.65625 C 10.066406 -15.71875 8.910156 -13.265625 8.078125 -10.296875 C 8.046875 -9.671875 7.972656 -8.882812 7.859375 -7.9375 C 7.765625 -7.132812 7.71875 -6.359375 7.71875 -5.609375 C 7.71875 -5.128906 7.765625 -4.40625 7.859375 -3.4375 C 7.960938 -2.476562 8.015625 -1.757812 8.015625 -1.28125 C 8.015625 -0.550781 7.789062 0.0351562 7.34375 0.484375 C 6.90625 0.929688 6.34375 1.15625 5.65625 1.15625 C 4.945312 1.15625 4.375 0.929688 3.9375 0.484375 C 3.507812 0.0351562 3.296875 -0.550781 3.296875 -1.28125 C 3.296875 -1.757812 3.242188 -2.476562 3.140625 -3.4375 C 3.035156 -4.40625 2.984375 -5.128906 2.984375 -5.609375 C 2.984375 -7.253906 3.097656 -9.539062 3.328125 -12.46875 C 3.566406 -15.394531 3.6875 -17.6875 3.6875 -19.34375 C 3.6875 -19.851562 3.65625 -20.613281 3.59375 -21.625 C 3.539062 -22.632812 3.515625 -23.394531 3.515625 -23.90625 C 3.515625 -24.601562 3.742188 -25.171875 4.203125 -25.609375 C 4.660156 -26.046875 5.222656 -26.265625 5.890625 -26.265625 C 7.367188 -26.265625 8.179688 -25.222656 8.328125 -23.140625 L 8.390625 -20.328125 C 11.085938 -23.921875 13.851562 -25.71875 16.6875 -25.71875 C 19.257812 -25.71875 21.050781 -24.585938 22.0625 -22.328125 C 22.75 -20.816406 23.125 -18.585938 23.1875 -15.640625 L 23.1875 -13.203125 L 23.171875 -10.96875 C 23.171875 -9.632812 23.34375 -7.910156 23.6875 -5.796875 C 24.03125 -3.691406 24.203125 -1.984375 24.203125 -0.671875 C 24.203125 0.0351562 23.972656 0.609375 23.515625 1.046875 C 23.054688 1.484375 22.484375 1.703125 21.796875 1.703125 Z M 21.796875 1.703125 "/></g></g><g style="fill:#000000;fill-opacity:1;"><g transform="translate(291.742658, 228.473817)"><path style="stroke:none" d="M 8.921875 -7.40625 C 8.265625 -7.40625 7.6875 -7.65625 7.1875 -8.15625 C 6.695312 -8.664062 6.453125 -9.242188 6.453125 -9.890625 C 6.453125 -10.992188 7.476562 -12.351562 9.53125 -13.96875 L 15.28125 -18.3125 C 17.34375 -20.082031 18.375 -21.707031 18.375 -23.1875 C 18.375 -25.050781 17.5 -26.769531 15.75 -28.34375 C 14.070312 -29.863281 12.285156 -30.625 10.390625 -30.625 C 9.378906 -30.625 8.09375 -30.101562 6.53125 -29.0625 C 4.976562 -28.03125 4.019531 -27.515625 3.65625 -27.515625 C 3 -27.515625 2.429688 -27.78125 1.953125 -28.3125 C 1.484375 -28.84375 1.25 -29.4375 1.25 -30.09375 C 1.25 -31.363281 2.476562 -32.625 4.9375 -33.875 C 7.132812 -34.988281 8.953125 -35.546875 10.390625 -35.546875 C 13.617188 -35.546875 16.546875 -34.285156 19.171875 -31.765625 C 21.804688 -29.253906 23.125 -26.394531 23.125 -23.1875 C 23.125 -20.84375 22.367188 -18.765625 20.859375 -16.953125 C 19.960938 -15.867188 18.296875 -14.457031 15.859375 -12.71875 C 13.398438 -10.945312 11.691406 -9.503906 10.734375 -8.390625 C 10.171875 -7.734375 9.566406 -7.40625 8.921875 -7.40625 Z M 7.59375 1.734375 C 6.894531 1.734375 6.257812 1.492188 5.6875 1.015625 C 5.113281 0.546875 4.828125 -0.0234375 4.828125 -0.703125 C 4.828125 -1.691406 5.09375 -2.585938 5.625 -3.390625 C 6.21875 -4.285156 6.984375 -4.734375 7.921875 -4.734375 C 9.453125 -4.734375 10.21875 -3.789062 10.21875 -1.90625 C 10.21875 -1.019531 10.007812 -0.222656 9.59375 0.484375 C 9.082031 1.316406 8.414062 1.734375 7.59375 1.734375 Z M 7.59375 1.734375 "/></g></g></g></svg>