<svg xmlns="http://www.w3.org/2000/svg" xmlns:xlink="http://www.w3.org/1999/xlink" width="500" zoomAndPan="magnify" viewBox="0 0 375 374.999991" height="500" preserveAspectRatio="xMidYMid meet" version="1.2"><defs/><g id="c357b6d754"><path style=" stroke:none;fill-rule:nonzero;fill:#ffffff;fill-opacity:1;" d="M 98.066406 270.589844 C 171.804688 276.296875 232.648438 277.601562 306.542969 276.820312 C 327.554688 276.597656 351.78125 274.238281 363.941406 254.242188 C 370.402344 243.617188 371.953125 230.039062 372.648438 217.035156 C 374.621094 180.304688 371.320312 143.195312 362.929688 107.714844 C 358.886719 90.601562 352.949219 72.742188 340.414062 62.6875 C 328.3125 52.972656 312.621094 52.558594 297.929688 52.488281 C 218.398438 52.121094 138.078125 51.851562 60.457031 72.0625 C 42.472656 76.746094 22.949219 84 13.527344 102.480469 C 7.957031 113.417969 6.894531 126.597656 6.078125 139.285156 C 3.695312 176.382812 2.292969 213.566406 1.863281 250.761719 C 1.773438 258.308594 1.910156 266.511719 5.929688 272.425781 C 12.210938 281.660156 24.1875 280.648438 33.878906 283.984375 C 45.835938 288.097656 55.398438 300.5 57.648438 314.8125 C 54.855469 302.300781 58.257812 288.171875 66.222656 279.1875 C 74.191406 270.203125 82.503906 270.589844 97.023438 270.410156 C 97.273438 270.40625 97.515625 270.542969 97.769531 270.558594 "/><path style=" stroke:none;fill-rule:nonzero;fill:#100f0d;fill-opacity:1;" d="M 98.066406 269.441406 C 134.121094 272.222656 170.238281 274.160156 206.398438 275.105469 C 241.746094 276.023438 277.371094 276.835938 312.71875 275.535156 C 326.132812 275.042969 340.46875 273.273438 351.800781 265.476562 C 366.0625 255.65625 369.925781 238.527344 371.167969 222.257812 C 373.992188 185.34375 370.808594 147.648438 362.648438 111.574219 C 359.195312 96.3125 354.964844 79.570312 344.097656 67.722656 C 332.753906 55.355469 316.144531 53.800781 300.316406 53.652344 C 263.375 53.300781 226.355469 53.28125 189.449219 55.101562 C 152.007812 56.949219 114.582031 60.898438 77.949219 69.03125 C 63.023438 72.34375 47.269531 75.625 33.890625 83.355469 C 19.453125 91.703125 11.683594 104.921875 9.015625 121.179688 C 6.035156 139.355469 6.011719 158.292969 5.160156 176.660156 C 4.257812 196.003906 3.621094 215.355469 3.253906 234.710938 C 3.082031 243.703125 2.214844 253.109375 3.5 262.042969 C 4.789062 270.988281 9.753906 276.765625 18.433594 279.175781 C 24.382812 280.828125 30.664062 281.265625 36.375 283.734375 C 42.128906 286.21875 47 290.441406 50.726562 295.4375 C 54.921875 301.058594 57.570312 307.617188 58.753906 314.511719 C 59 315.941406 56.84375 316.578125 56.542969 315.117188 C 53.832031 302.007812 56.867188 287.003906 66.46875 277.246094 C 70.121094 273.539062 74.621094 271.171875 79.734375 270.21875 C 82.367188 269.722656 85.050781 269.53125 87.726562 269.425781 C 91.042969 269.292969 94.820312 268.800781 98.074219 269.453125 C 99.519531 269.746094 98.910156 271.957031 97.464844 271.667969 C 94.46875 271.0625 90.78125 271.59375 87.726562 271.71875 C 85.253906 271.820312 82.777344 271.972656 80.339844 272.429688 C 75.597656 273.3125 71.488281 275.410156 68.09375 278.867188 C 59.085938 288.03125 56.207031 302.199219 58.753906 314.511719 C 58.015625 314.710938 57.28125 314.914062 56.542969 315.117188 C 55.160156 307.0625 51.726562 299.453125 46.101562 293.460938 C 40.699219 287.703125 34.128906 284.847656 26.519531 283.277344 C 20.367188 282.011719 13.773438 281.085938 8.699219 277.066406 C 3.007812 272.554688 1.265625 265.347656 0.835938 258.417969 C 0.242188 248.789062 0.859375 238.996094 1.066406 229.363281 C 1.285156 219.429688 1.570312 209.496094 1.925781 199.566406 C 2.640625 179.464844 3.632812 159.363281 4.933594 139.285156 C 5.953125 123.539062 7.378906 106.835938 17.636719 94.042969 C 26.464844 83.019531 39.75 76.976562 52.972656 72.96875 C 88.496094 62.203125 126.230469 57.382812 163.136719 54.480469 C 202.125 51.414062 241.261719 51.15625 280.351562 51.273438 C 296.617188 51.324219 314.722656 49.546875 330.210938 55.566406 C 343.984375 60.921875 352.328125 72.859375 357.617188 86.15625 C 364.273438 102.882812 367.464844 121.273438 370.101562 139 C 372.929688 158.007812 374.355469 177.222656 374.351562 196.4375 C 374.339844 213.632812 374.738281 232.878906 367.886719 249.003906 C 362.664062 261.300781 352.425781 269.667969 339.851562 273.742188 C 325.757812 278.308594 310.632812 277.949219 296.003906 278.066406 C 276.792969 278.21875 257.578125 278.21875 238.371094 277.996094 C 201.210938 277.554688 164.066406 276.1875 126.984375 273.789062 C 117.339844 273.167969 107.699219 272.476562 98.066406 271.734375 C 96.601562 271.621094 96.589844 269.332031 98.066406 269.441406 "/><path style=" stroke:none;fill-rule:nonzero;fill:#100f0d;fill-opacity:1;" d="M 266.691406 58.550781 C 277.402344 58.375 288.113281 58.542969 298.8125 59.105469 C 308.007812 59.589844 317.972656 59.554688 326.835938 62.351562 C 334.71875 64.839844 339.914062 70.535156 344.226562 77.335938 C 349.480469 85.621094 353.558594 94.566406 356.574219 103.882812 C 356.886719 104.859375 355.351562 105.277344 355.035156 104.304688 C 352.207031 95.550781 348.421875 87.15625 343.589844 79.316406 C 338.507812 71.070312 332.535156 65.019531 322.78125 62.941406 C 314.035156 61.082031 304.730469 60.960938 295.824219 60.550781 C 286.121094 60.105469 276.40625 59.984375 266.691406 60.140625 C 265.667969 60.15625 265.667969 58.566406 266.691406 58.550781 "/><path style=" stroke:none;fill-rule:nonzero;fill:#100f0d;fill-opacity:1;" d="M 11.320312 237.480469 C 10.488281 249.90625 11.253906 264.515625 22.039062 272.773438 C 27.351562 276.835938 33.929688 277.003906 39.976562 279.285156 C 44.597656 281.03125 48.5 283.941406 51.644531 287.726562 C 52.292969 288.507812 51.175781 289.636719 50.519531 288.851562 C 45.816406 283.191406 39.996094 280.695312 33 278.988281 C 27.25 277.582031 22.140625 275.714844 18.03125 271.277344 C 9.574219 262.148438 8.945312 249.242188 9.730469 237.480469 C 9.796875 236.464844 11.386719 236.457031 11.320312 237.480469 "/><path style=" stroke:none;fill-rule:nonzero;fill:#100f0d;fill-opacity:1;" d="M 38.414062 89.214844 C 32.039062 92.941406 27.132812 98.472656 24.273438 105.289062 C 23.878906 106.214844 22.339844 105.808594 22.734375 104.867188 C 25.761719 97.652344 30.847656 91.792969 37.609375 87.839844 C 38.496094 87.324219 39.296875 88.695312 38.414062 89.214844 "/><path style=" stroke:none;fill-rule:nonzero;fill:#100f0d;fill-opacity:1;" d="M 344.398438 119.929688 C 348.167969 122.15625 351.09375 125.167969 353.199219 129.011719 C 352.707031 129.144531 352.210938 129.277344 351.71875 129.414062 C 351.734375 124.410156 355.375 120.496094 360.324219 119.96875 C 360.253906 120.492188 360.183594 121.011719 360.109375 121.53125 C 355.910156 120.160156 352.445312 117.78125 349.710938 114.304688 C 350.164062 114.117188 350.617188 113.929688 351.070312 113.742188 C 350.992188 118.234375 347.296875 121.660156 342.789062 121.257812 C 341.777344 121.164062 341.765625 119.574219 342.789062 119.664062 C 346.398438 119.988281 349.414062 117.398438 349.476562 113.742188 C 349.488281 113.117188 350.386719 112.609375 350.835938 113.179688 C 353.390625 116.433594 356.589844 118.710938 360.535156 119.996094 C 361.425781 120.289062 361.199219 121.464844 360.324219 121.558594 C 356.222656 121.996094 353.328125 125.328125 353.3125 129.414062 C 353.308594 130.183594 352.210938 130.515625 351.824219 129.8125 C 349.847656 126.203125 347.140625 123.398438 343.59375 121.300781 C 342.710938 120.78125 343.511719 119.40625 344.398438 119.929688 "/><g style="fill:#000000;fill-opacity:1;"><g transform="translate(103.441592, 121.440702)"><path style="stroke:none" d="M 2.875 -5.359375 C 2.863281 -5.953125 3.066406 -6.4375 3.484375 -6.8125 C 3.910156 -7.195312 4.429688 -7.390625 5.046875 -7.390625 C 5.753906 -7.390625 6.375 -6.988281 6.90625 -6.1875 C 7.632812 -5.101562 8.285156 -4.367188 8.859375 -3.984375 C 10.078125 -3.179688 11.847656 -2.78125 14.171875 -2.78125 C 16.390625 -2.78125 18.453125 -3.257812 20.359375 -4.21875 C 22.796875 -5.445312 24.015625 -7.160156 24.015625 -9.359375 C 24.015625 -11.160156 22.988281 -12.582031 20.9375 -13.625 C 19.207031 -14.53125 17.066406 -15.019531 14.515625 -15.09375 C 12.242188 -15.175781 10.316406 -15.671875 8.734375 -16.578125 C 6.691406 -17.734375 5.671875 -19.394531 5.671875 -21.5625 C 5.671875 -24.113281 7.117188 -26.441406 10.015625 -28.546875 C 12.785156 -30.546875 15.644531 -31.546875 18.59375 -31.546875 C 19.988281 -31.546875 21.5625 -31.304688 23.3125 -30.828125 C 25.625 -30.210938 26.78125 -29.425781 26.78125 -28.46875 C 26.78125 -27.207031 26.140625 -26.578125 24.859375 -26.578125 C 24.285156 -26.578125 23.28125 -26.726562 21.84375 -27.03125 C 20.40625 -27.34375 19.296875 -27.488281 18.515625 -27.46875 C 16.273438 -27.445312 14.375 -26.898438 12.8125 -25.828125 C 11.207031 -24.722656 10.40625 -23.378906 10.40625 -21.796875 C 10.40625 -20.609375 11.46875 -19.769531 13.59375 -19.28125 C 14.375 -19.09375 15.898438 -18.921875 18.171875 -18.765625 C 21.453125 -18.523438 24.015625 -17.492188 25.859375 -15.671875 C 27.554688 -14.003906 28.40625 -11.976562 28.40625 -9.59375 C 28.40625 -6.175781 26.828125 -3.453125 23.671875 -1.421875 C 20.929688 0.335938 17.753906 1.21875 14.140625 1.21875 C 11.523438 1.21875 9.125 0.71875 6.9375 -0.28125 C 4.28125 -1.507812 2.925781 -3.203125 2.875 -5.359375 Z M 2.875 -5.359375 "/></g></g><g style="fill:#000000;fill-opacity:1;"><g transform="translate(133.966418, 121.440702)"><path style="stroke:none" d="M 17.375 -18.3125 C 17.070312 -18.3125 16.710938 -18.328125 16.296875 -18.359375 C 15.890625 -18.390625 15.539062 -18.40625 15.25 -18.40625 C 14.914062 -18.40625 13.9375 -18.296875 12.3125 -18.078125 L 12.734375 -5.375 L 12.75 -4.421875 L 12.765625 -3.328125 C 12.828125 -0.191406 12.078125 1.375 10.515625 1.375 C 9.941406 1.375 9.441406 1.1875 9.015625 0.8125 C 8.597656 0.445312 8.390625 -0.015625 8.390625 -0.578125 C 8.390625 -1.117188 8.410156 -1.9375 8.453125 -3.03125 C 8.492188 -4.125 8.515625 -4.941406 8.515625 -5.484375 L 8.078125 -18.03125 C 7.035156 -18.082031 5.445312 -18.207031 3.3125 -18.40625 C 2.03125 -18.570312 1.390625 -19.28125 1.390625 -20.53125 C 1.390625 -21.164062 1.582031 -21.6875 1.96875 -22.09375 C 2.363281 -22.507812 2.863281 -22.71875 3.46875 -22.71875 L 7.96875 -22.359375 C 7.96875 -23.085938 7.9375 -24.0625 7.875 -25.28125 C 7.8125 -26.507812 7.78125 -27.398438 7.78125 -27.953125 C 7.78125 -28.554688 7.988281 -29.050781 8.40625 -29.4375 C 8.820312 -29.832031 9.332031 -30.03125 9.9375 -30.03125 C 11.226562 -30.03125 11.976562 -28.976562 12.1875 -26.875 C 12.226562 -26.34375 12.25 -25.707031 12.25 -24.96875 L 12.21875 -23.71875 L 12.1875 -22.375 C 13.96875 -22.601562 14.988281 -22.71875 15.25 -22.71875 C 16.738281 -22.71875 17.710938 -22.648438 18.171875 -22.515625 C 19.046875 -22.222656 19.484375 -21.546875 19.484375 -20.484375 C 19.484375 -19.859375 19.285156 -19.335938 18.890625 -18.921875 C 18.492188 -18.515625 17.988281 -18.3125 17.375 -18.3125 Z M 17.375 -18.3125 "/></g></g><g style="fill:#000000;fill-opacity:1;"><g transform="translate(154.710407, 121.440702)"><path style="stroke:none" d="M 19.78125 1.421875 C 19.507812 1.421875 19.015625 1.101562 18.296875 0.46875 C 17.648438 -0.113281 17.171875 -0.632812 16.859375 -1.09375 C 15.484375 -0.351562 14.269531 0.203125 13.21875 0.578125 C 12.175781 0.960938 11.300781 1.15625 10.59375 1.15625 C 7.238281 1.15625 4.796875 0.210938 3.265625 -1.671875 C 1.816406 -3.453125 1.09375 -6.175781 1.09375 -9.84375 C 1.09375 -13.3125 2.285156 -16.28125 4.671875 -18.75 C 7.054688 -21.21875 9.90625 -22.453125 13.21875 -22.453125 C 14.46875 -22.453125 15.867188 -22.128906 17.421875 -21.484375 C 19.367188 -20.679688 20.34375 -19.710938 20.34375 -18.578125 C 20.34375 -18.191406 20.195312 -17.847656 19.90625 -17.546875 C 19.757812 -17.003906 19.644531 -16.109375 19.5625 -14.859375 C 19.488281 -13.609375 19.445312 -12.007812 19.4375 -10.0625 C 19.425781 -8.28125 19.546875 -6.875 19.796875 -5.84375 C 19.941406 -5.21875 20.394531 -3.957031 21.15625 -2.0625 C 21.257812 -1.800781 21.425781 -1.421875 21.65625 -0.921875 L 21.78125 -0.5625 C 21.78125 0.0078125 21.578125 0.484375 21.171875 0.859375 C 20.773438 1.234375 20.3125 1.421875 19.78125 1.421875 Z M 15.3125 -13.515625 C 15.3125 -14.140625 15.347656 -14.8125 15.421875 -15.53125 C 15.503906 -16.257812 15.625 -17.03125 15.78125 -17.84375 C 15.25 -18.113281 14.789062 -18.3125 14.40625 -18.4375 C 14.03125 -18.570312 13.726562 -18.640625 13.5 -18.640625 C 11.28125 -18.640625 9.363281 -17.734375 7.75 -15.921875 C 6.132812 -14.109375 5.328125 -12.019531 5.328125 -9.65625 C 5.328125 -7.300781 5.742188 -5.535156 6.578125 -4.359375 C 7.410156 -3.179688 8.65625 -2.59375 10.3125 -2.59375 C 11.695312 -2.59375 12.867188 -2.847656 13.828125 -3.359375 C 14.335938 -3.628906 15.0625 -4.171875 16 -4.984375 C 15.539062 -8.785156 15.3125 -11.628906 15.3125 -13.515625 Z M 15.3125 -13.515625 "/></g></g><g style="fill:#000000;fill-opacity:1;"><g transform="translate(177.238589, 121.440702)"><path style="stroke:none" d="M 19.71875 -15.890625 C 19.613281 -14.097656 18.894531 -13.203125 17.5625 -13.203125 C 16.332031 -13.203125 15.71875 -13.910156 15.71875 -15.328125 C 15.71875 -15.597656 15.695312 -16.097656 15.65625 -16.828125 L 15.59375 -18.640625 C 13.320312 -18.367188 11.503906 -17.734375 10.140625 -16.734375 C 8.867188 -15.796875 7.8125 -14.390625 6.96875 -12.515625 L 7.015625 -0.734375 C 7.015625 0.710938 6.300781 1.4375 4.875 1.4375 C 3.613281 1.4375 2.984375 0.710938 2.984375 -0.734375 L 2.984375 -15.828125 C 2.984375 -16.296875 3 -17.003906 3.03125 -17.953125 C 3.070312 -18.898438 3.09375 -19.609375 3.09375 -20.078125 C 3.09375 -21.523438 3.722656 -22.25 4.984375 -22.25 C 6.390625 -22.25 7.097656 -21.0625 7.109375 -18.6875 C 9.867188 -21.332031 12.925781 -22.65625 16.28125 -22.65625 C 17.4375 -22.65625 18.300781 -22.21875 18.875 -21.34375 C 19.445312 -20.46875 19.734375 -19.148438 19.734375 -17.390625 C 19.734375 -16.648438 19.726562 -16.148438 19.71875 -15.890625 Z M 19.71875 -15.890625 "/></g></g><g style="fill:#000000;fill-opacity:1;"><g transform="translate(198.391004, 121.440702)"><path style="stroke:none" d="M 17.375 -18.3125 C 17.070312 -18.3125 16.710938 -18.328125 16.296875 -18.359375 C 15.890625 -18.390625 15.539062 -18.40625 15.25 -18.40625 C 14.914062 -18.40625 13.9375 -18.296875 12.3125 -18.078125 L 12.734375 -5.375 L 12.75 -4.421875 L 12.765625 -3.328125 C 12.828125 -0.191406 12.078125 1.375 10.515625 1.375 C 9.941406 1.375 9.441406 1.1875 9.015625 0.8125 C 8.597656 0.445312 8.390625 -0.015625 8.390625 -0.578125 C 8.390625 -1.117188 8.410156 -1.9375 8.453125 -3.03125 C 8.492188 -4.125 8.515625 -4.941406 8.515625 -5.484375 L 8.078125 -18.03125 C 7.035156 -18.082031 5.445312 -18.207031 3.3125 -18.40625 C 2.03125 -18.570312 1.390625 -19.28125 1.390625 -20.53125 C 1.390625 -21.164062 1.582031 -21.6875 1.96875 -22.09375 C 2.363281 -22.507812 2.863281 -22.71875 3.46875 -22.71875 L 7.96875 -22.359375 C 7.96875 -23.085938 7.9375 -24.0625 7.875 -25.28125 C 7.8125 -26.507812 7.78125 -27.398438 7.78125 -27.953125 C 7.78125 -28.554688 7.988281 -29.050781 8.40625 -29.4375 C 8.820312 -29.832031 9.332031 -30.03125 9.9375 -30.03125 C 11.226562 -30.03125 11.976562 -28.976562 12.1875 -26.875 C 12.226562 -26.34375 12.25 -25.707031 12.25 -24.96875 L 12.21875 -23.71875 L 12.1875 -22.375 C 13.96875 -22.601562 14.988281 -22.71875 15.25 -22.71875 C 16.738281 -22.71875 17.710938 -22.648438 18.171875 -22.515625 C 19.046875 -22.222656 19.484375 -21.546875 19.484375 -20.484375 C 19.484375 -19.859375 19.285156 -19.335938 18.890625 -18.921875 C 18.492188 -18.515625 17.988281 -18.3125 17.375 -18.3125 Z M 17.375 -18.3125 "/></g></g><g style="fill:#000000;fill-opacity:1;"><g transform="translate(219.134994, 121.440702)"><path style="stroke:none" d=""/></g></g><g style="fill:#000000;fill-opacity:1;"><g transform="translate(232.290764, 121.440702)"><path style="stroke:none" d="M 13.03125 0.90625 C 10.832031 0.90625 8.835938 0.472656 7.046875 -0.390625 C 6.585938 0.296875 6.03125 0.640625 5.375 0.640625 C 4.832031 0.640625 4.367188 0.445312 3.984375 0.0625 C 3.609375 -0.3125 3.421875 -0.785156 3.421875 -1.359375 C 3.421875 -1.722656 3.4375 -2.269531 3.46875 -3 C 3.507812 -3.738281 3.53125 -4.296875 3.53125 -4.671875 C 3.53125 -6.179688 3.488281 -8.453125 3.40625 -11.484375 C 3.332031 -14.515625 3.296875 -16.789062 3.296875 -18.3125 C 3.296875 -19.363281 3.300781 -21.347656 3.3125 -24.265625 C 3.320312 -27.179688 3.328125 -29.171875 3.328125 -30.234375 C 3.328125 -31.085938 3.507812 -31.859375 3.875 -32.546875 C 4.34375 -33.421875 4.992188 -33.859375 5.828125 -33.859375 C 6.898438 -33.859375 7.4375 -33.234375 7.4375 -31.984375 C 7.4375 -31.785156 7.398438 -31.492188 7.328125 -31.109375 C 7.253906 -30.722656 7.21875 -30.429688 7.21875 -30.234375 L 7.15625 -25.515625 L 7.109375 -20.03125 C 8.359375 -20.882812 9.546875 -21.519531 10.671875 -21.9375 C 11.796875 -22.363281 12.851562 -22.578125 13.84375 -22.578125 C 16.925781 -22.578125 19.425781 -21.394531 21.34375 -19.03125 C 23.15625 -16.800781 24.0625 -14.066406 24.0625 -10.828125 C 24.0625 -7.566406 23.003906 -4.796875 20.890625 -2.515625 C 18.785156 -0.234375 16.164062 0.90625 13.03125 0.90625 Z M 13.84375 -18.515625 C 12.664062 -18.515625 11.460938 -18.179688 10.234375 -17.515625 C 9.628906 -17.191406 8.597656 -16.484375 7.140625 -15.390625 L 7.09375 -11.671875 L 7.109375 -8.328125 L 7.140625 -4.796875 C 7.828125 -4.484375 8.796875 -4.082031 10.046875 -3.59375 C 10.929688 -3.320312 11.925781 -3.1875 13.03125 -3.1875 C 15.101562 -3.1875 16.804688 -3.914062 18.140625 -5.375 C 19.472656 -6.832031 20.140625 -8.648438 20.140625 -10.828125 C 20.140625 -12.972656 19.601562 -14.757812 18.53125 -16.1875 C 17.375 -17.738281 15.8125 -18.515625 13.84375 -18.515625 Z M 13.84375 -18.515625 "/></g></g><g style="fill:#000000;fill-opacity:1;"><g transform="translate(258.408842, 121.440702)"><path style="stroke:none" d="M 21.734375 -19.171875 L 14.296875 -3.09375 C 12.460938 0.820312 11.054688 4.097656 10.078125 6.734375 L 8.671875 10.90625 C 8.296875 11.9375 7.648438 12.453125 6.734375 12.453125 C 6.128906 12.453125 5.609375 12.253906 5.171875 11.859375 C 4.734375 11.460938 4.515625 10.972656 4.515625 10.390625 C 4.515625 8.953125 6.0625 4.800781 9.15625 -2.0625 L 1.46875 -16.875 L 0.5 -18.453125 C 0.101562 -19.109375 -0.09375 -19.660156 -0.09375 -20.109375 C -0.09375 -20.691406 0.128906 -21.203125 0.578125 -21.640625 C 1.035156 -22.085938 1.546875 -22.3125 2.109375 -22.3125 C 2.765625 -22.3125 3.273438 -22.0625 3.640625 -21.5625 C 6.066406 -18.175781 8.679688 -13.359375 11.484375 -7.109375 L 14.65625 -14.53125 C 15.800781 -17.09375 16.90625 -19.300781 17.96875 -21.15625 C 18.425781 -21.957031 19.03125 -22.359375 19.78125 -22.359375 C 20.363281 -22.359375 20.878906 -22.148438 21.328125 -21.734375 C 21.785156 -21.316406 22.015625 -20.820312 22.015625 -20.25 C 22.015625 -19.9375 21.921875 -19.578125 21.734375 -19.171875 Z M 21.734375 -19.171875 "/></g></g><g style="fill:#000000;fill-opacity:1;"><g transform="translate(57.646855, 182.444488)"><path style="stroke:none" d="M 22.796875 -18.984375 C 22.617188 -16.878906 22.53125 -14.769531 22.53125 -12.65625 C 22.53125 -7.882812 22.753906 -4.28125 23.203125 -1.84375 C 23.222656 -1.644531 23.234375 -1.484375 23.234375 -1.359375 C 23.234375 -0.785156 23.03125 -0.3125 22.625 0.0625 C 22.226562 0.4375 21.765625 0.625 21.234375 0.625 C 20.347656 0.625 19.695312 -0.0195312 19.28125 -1.3125 C 18.25 -0.550781 17.175781 0.0195312 16.0625 0.40625 C 14.957031 0.789062 13.800781 0.984375 12.59375 0.984375 C 9.625 0.984375 7.164062 -0.00390625 5.21875 -1.984375 C 3.21875 -4.003906 2.21875 -6.597656 2.21875 -9.765625 C 2.21875 -13.585938 3.226562 -16.648438 5.25 -18.953125 C 7.28125 -21.265625 9.914062 -22.421875 13.15625 -22.421875 C 14.820312 -22.421875 16.101562 -22.164062 17 -21.65625 L 19.03125 -20.171875 C 19.226562 -26.203125 19.460938 -30.265625 19.734375 -32.359375 C 19.921875 -33.628906 20.570312 -34.265625 21.6875 -34.265625 C 23 -34.265625 23.65625 -33.570312 23.65625 -32.1875 C 23.65625 -30.195312 23.367188 -25.796875 22.796875 -18.984375 Z M 13.25 -18.421875 C 10.832031 -18.421875 9.019531 -17.707031 7.8125 -16.28125 C 6.613281 -14.851562 6.015625 -12.707031 6.015625 -9.84375 C 6.015625 -8 6.671875 -6.410156 7.984375 -5.078125 C 9.296875 -3.742188 10.832031 -3.078125 12.59375 -3.078125 C 13.800781 -3.078125 14.820312 -3.296875 15.65625 -3.734375 C 16.132812 -3.992188 16.925781 -4.59375 18.03125 -5.53125 C 18.25 -5.71875 18.457031 -5.9375 18.65625 -6.1875 L 18.59375 -9.90625 L 18.625 -12.40625 L 18.65625 -14.9375 C 18.113281 -16.101562 17.390625 -16.972656 16.484375 -17.546875 C 15.585938 -18.128906 14.507812 -18.421875 13.25 -18.421875 Z M 13.25 -18.421875 "/></g></g><g style="fill:#000000;fill-opacity:1;"><g transform="translate(83.506977, 182.444488)"><path style="stroke:none" d="M 7.09375 -27.21875 C 6.40625 -27.21875 5.8125 -27.460938 5.3125 -27.953125 C 4.8125 -28.441406 4.5625 -29.03125 4.5625 -29.71875 C 4.5625 -30.40625 4.8125 -30.988281 5.3125 -31.46875 C 5.8125 -31.957031 6.40625 -32.203125 7.09375 -32.203125 C 7.78125 -32.203125 8.367188 -31.957031 8.859375 -31.46875 C 9.359375 -30.988281 9.609375 -30.40625 9.609375 -29.71875 C 9.609375 -29.03125 9.359375 -28.441406 8.859375 -27.953125 C 8.367188 -27.460938 7.78125 -27.21875 7.09375 -27.21875 Z M 8.0625 -9.765625 C 8.0625 -8.898438 8.085938 -7.609375 8.140625 -5.890625 C 8.191406 -4.179688 8.21875 -2.898438 8.21875 -2.046875 C 8.21875 -1.410156 8.019531 -0.890625 7.625 -0.484375 C 7.238281 -0.0859375 6.734375 0.109375 6.109375 0.109375 C 5.492188 0.109375 4.988281 -0.0859375 4.59375 -0.484375 C 4.195312 -0.890625 4 -1.410156 4 -2.046875 C 4 -2.898438 3.972656 -4.179688 3.921875 -5.890625 C 3.867188 -7.609375 3.84375 -8.898438 3.84375 -9.765625 C 3.84375 -11.109375 3.914062 -12.785156 4.0625 -14.796875 C 4.207031 -16.816406 4.28125 -18.5 4.28125 -19.84375 C 4.28125 -20.488281 4.472656 -21.007812 4.859375 -21.40625 C 5.253906 -21.8125 5.765625 -22.015625 6.390625 -22.015625 C 7.003906 -22.015625 7.507812 -21.8125 7.90625 -21.40625 C 8.300781 -21.007812 8.5 -20.488281 8.5 -19.84375 C 8.5 -18.5 8.425781 -16.816406 8.28125 -14.796875 C 8.132812 -12.785156 8.0625 -11.109375 8.0625 -9.765625 Z M 8.0625 -9.765625 "/></g></g><g style="fill:#000000;fill-opacity:1;"><g transform="translate(95.845885, 182.444488)"><path style="stroke:none" d="M 17.4375 -30.234375 C 13.96875 -30.234375 12.023438 -27.820312 11.609375 -23 L 11.546875 -21.671875 C 13.984375 -21.835938 15.5625 -21.921875 16.28125 -21.921875 C 18.550781 -21.921875 19.6875 -21.207031 19.6875 -19.78125 C 19.6875 -18.726562 19.128906 -18.101562 18.015625 -17.90625 C 17.523438 -17.820312 16.953125 -17.789062 16.296875 -17.8125 C 15.648438 -17.832031 14.003906 -17.734375 11.359375 -17.515625 L 11.1875 -12.625 C 11.1875 -11.726562 11.210938 -10.390625 11.265625 -8.609375 C 11.328125 -6.835938 11.359375 -5.515625 11.359375 -4.640625 C 11.359375 -1.921875 11.195312 0.195312 10.875 1.71875 C 10.632812 2.863281 9.96875 3.4375 8.875 3.4375 C 8.289062 3.4375 7.789062 3.242188 7.375 2.859375 C 6.957031 2.484375 6.75 2.007812 6.75 1.4375 C 6.75 1.320312 6.765625 1.179688 6.796875 1.015625 C 7.097656 -0.847656 7.25 -2.878906 7.25 -5.078125 L 7.1875 -10.9375 L 7.1875 -17.171875 C 5.394531 -17.035156 4.257812 -16.96875 3.78125 -16.96875 C 2.332031 -16.96875 1.609375 -17.660156 1.609375 -19.046875 C 1.609375 -20.460938 2.863281 -21.207031 5.375 -21.28125 L 7.4375 -21.34375 C 7.476562 -22.144531 7.585938 -23.234375 7.765625 -24.609375 C 8.140625 -27.796875 8.941406 -30.140625 10.171875 -31.640625 C 11.660156 -33.460938 13.988281 -34.375 17.15625 -34.375 C 19.207031 -34.375 20.234375 -33.679688 20.234375 -32.296875 C 20.234375 -30.921875 19.300781 -30.234375 17.4375 -30.234375 Z M 17.4375 -30.234375 "/></g></g><g style="fill:#000000;fill-opacity:1;"><g transform="translate(118.223598, 182.444488)"><path style="stroke:none" d="M 17.4375 -30.234375 C 13.96875 -30.234375 12.023438 -27.820312 11.609375 -23 L 11.546875 -21.671875 C 13.984375 -21.835938 15.5625 -21.921875 16.28125 -21.921875 C 18.550781 -21.921875 19.6875 -21.207031 19.6875 -19.78125 C 19.6875 -18.726562 19.128906 -18.101562 18.015625 -17.90625 C 17.523438 -17.820312 16.953125 -17.789062 16.296875 -17.8125 C 15.648438 -17.832031 14.003906 -17.734375 11.359375 -17.515625 L 11.1875 -12.625 C 11.1875 -11.726562 11.210938 -10.390625 11.265625 -8.609375 C 11.328125 -6.835938 11.359375 -5.515625 11.359375 -4.640625 C 11.359375 -1.921875 11.195312 0.195312 10.875 1.71875 C 10.632812 2.863281 9.96875 3.4375 8.875 3.4375 C 8.289062 3.4375 7.789062 3.242188 7.375 2.859375 C 6.957031 2.484375 6.75 2.007812 6.75 1.4375 C 6.75 1.320312 6.765625 1.179688 6.796875 1.015625 C 7.097656 -0.847656 7.25 -2.878906 7.25 -5.078125 L 7.1875 -10.9375 L 7.1875 -17.171875 C 5.394531 -17.035156 4.257812 -16.96875 3.78125 -16.96875 C 2.332031 -16.96875 1.609375 -17.660156 1.609375 -19.046875 C 1.609375 -20.460938 2.863281 -21.207031 5.375 -21.28125 L 7.4375 -21.34375 C 7.476562 -22.144531 7.585938 -23.234375 7.765625 -24.609375 C 8.140625 -27.796875 8.941406 -30.140625 10.171875 -31.640625 C 11.660156 -33.460938 13.988281 -34.375 17.15625 -34.375 C 19.207031 -34.375 20.234375 -33.679688 20.234375 -32.296875 C 20.234375 -30.921875 19.300781 -30.234375 17.4375 -30.234375 Z M 17.4375 -30.234375 "/></g></g><g style="fill:#000000;fill-opacity:1;"><g transform="translate(140.60131, 182.444488)"><path style="stroke:none" d="M 20.53125 -12.5625 C 20.53125 -11.53125 20.535156 -9.976562 20.546875 -7.90625 C 20.566406 -5.84375 20.578125 -4.296875 20.578125 -3.265625 C 20.578125 -2.953125 20.597656 -2.472656 20.640625 -1.828125 C 20.691406 -1.179688 20.71875 -0.703125 20.71875 -0.390625 C 20.71875 0.222656 20.507812 0.726562 20.09375 1.125 C 19.6875 1.519531 19.179688 1.71875 18.578125 1.71875 C 17.472656 1.71875 16.769531 1.035156 16.46875 -0.328125 C 14.675781 0.609375 12.613281 1.078125 10.28125 1.078125 C 8.394531 1.078125 6.835938 0.660156 5.609375 -0.171875 C 4.242188 -1.085938 3.4375 -2.425781 3.1875 -4.1875 C 2.625 -7.988281 2.34375 -11.375 2.34375 -14.34375 C 2.34375 -16.300781 2.554688 -18.535156 2.984375 -21.046875 C 3.191406 -22.296875 3.875 -22.921875 5.03125 -22.921875 C 5.644531 -22.921875 6.160156 -22.722656 6.578125 -22.328125 C 6.992188 -21.929688 7.203125 -21.425781 7.203125 -20.8125 C 7.203125 -20.15625 7.097656 -19.101562 6.890625 -17.65625 C 6.679688 -16.207031 6.578125 -15.101562 6.578125 -14.34375 C 6.578125 -11.945312 6.65625 -9.894531 6.8125 -8.1875 C 6.96875 -6.488281 7.207031 -5.117188 7.53125 -4.078125 C 8 -3.828125 8.460938 -3.632812 8.921875 -3.5 C 9.378906 -3.363281 9.832031 -3.296875 10.28125 -3.296875 C 12.195312 -3.296875 14.222656 -3.601562 16.359375 -4.21875 L 16.34375 -8.578125 L 16.296875 -12.75 C 16.296875 -15.84375 16.429688 -18.53125 16.703125 -20.8125 C 16.859375 -22.132812 17.554688 -22.796875 18.796875 -22.796875 C 19.410156 -22.796875 19.925781 -22.59375 20.34375 -22.1875 C 20.757812 -21.78125 20.953125 -21.28125 20.921875 -20.6875 Z M 20.53125 -12.5625 "/></g></g><g style="fill:#000000;fill-opacity:1;"><g transform="translate(163.494934, 182.444488)"><path style="stroke:none" d="M 17.5 -16.5625 C 16.707031 -16.5625 16.15625 -16.820312 15.84375 -17.34375 C 15.625 -17.71875 15.4375 -18.492188 15.28125 -19.671875 C 14.207031 -19.398438 12.550781 -18.898438 10.3125 -18.171875 C 8.007812 -17.253906 6.851562 -16.117188 6.84375 -14.765625 C 7.269531 -14.609375 7.691406 -14.492188 8.109375 -14.421875 C 11.398438 -13.835938 13.847656 -13.03125 15.453125 -12 C 17.796875 -10.488281 18.96875 -8.304688 18.96875 -5.453125 C 18.96875 -3.117188 17.957031 -1.359375 15.9375 -0.171875 C 14.257812 0.804688 12.132812 1.296875 9.5625 1.296875 C 7.6875 1.296875 5.894531 0.976562 4.1875 0.34375 C 1.976562 -0.457031 0.875 -1.578125 0.875 -3.015625 C 0.875 -3.585938 1.097656 -4.085938 1.546875 -4.515625 C 2.003906 -4.941406 2.519531 -5.15625 3.09375 -5.15625 C 3.539062 -5.15625 4.113281 -4.8125 4.8125 -4.125 C 5.15625 -3.800781 5.929688 -3.53125 7.140625 -3.3125 C 8.097656 -3.132812 8.90625 -3.046875 9.5625 -3.046875 C 10.769531 -3.046875 11.832031 -3.191406 12.75 -3.484375 C 14.082031 -3.898438 14.75 -4.554688 14.75 -5.453125 C 14.75 -7.410156 13.382812 -8.734375 10.65625 -9.421875 L 8.421875 -9.90625 C 6.515625 -10.320312 5.160156 -10.8125 4.359375 -11.375 C 3.203125 -12.175781 2.625 -13.382812 2.625 -15 C 2.625 -18 4.035156 -20.132812 6.859375 -21.40625 C 7.710938 -21.800781 9.085938 -22.265625 10.984375 -22.796875 C 12.878906 -23.335938 14.234375 -23.796875 15.046875 -24.171875 C 15.640625 -24.421875 16.28125 -24.546875 16.96875 -24.546875 C 17.582031 -24.546875 18.082031 -24.34375 18.46875 -23.9375 C 18.863281 -23.539062 19.0625 -23.019531 19.0625 -22.375 C 19.0625 -21.957031 19.148438 -21.347656 19.328125 -20.546875 C 19.515625 -19.742188 19.609375 -19.132812 19.609375 -18.71875 C 19.609375 -18.082031 19.410156 -17.5625 19.015625 -17.15625 C 18.617188 -16.757812 18.113281 -16.5625 17.5 -16.5625 Z M 17.5 -16.5625 "/></g></g><g style="fill:#000000;fill-opacity:1;"><g transform="translate(184.926807, 182.444488)"><path style="stroke:none" d="M 7.09375 -27.21875 C 6.40625 -27.21875 5.8125 -27.460938 5.3125 -27.953125 C 4.8125 -28.441406 4.5625 -29.03125 4.5625 -29.71875 C 4.5625 -30.40625 4.8125 -30.988281 5.3125 -31.46875 C 5.8125 -31.957031 6.40625 -32.203125 7.09375 -32.203125 C 7.78125 -32.203125 8.367188 -31.957031 8.859375 -31.46875 C 9.359375 -30.988281 9.609375 -30.40625 9.609375 -29.71875 C 9.609375 -29.03125 9.359375 -28.441406 8.859375 -27.953125 C 8.367188 -27.460938 7.78125 -27.21875 7.09375 -27.21875 Z M 8.0625 -9.765625 C 8.0625 -8.898438 8.085938 -7.609375 8.140625 -5.890625 C 8.191406 -4.179688 8.21875 -2.898438 8.21875 -2.046875 C 8.21875 -1.410156 8.019531 -0.890625 7.625 -0.484375 C 7.238281 -0.0859375 6.734375 0.109375 6.109375 0.109375 C 5.492188 0.109375 4.988281 -0.0859375 4.59375 -0.484375 C 4.195312 -0.890625 4 -1.410156 4 -2.046875 C 4 -2.898438 3.972656 -4.179688 3.921875 -5.890625 C 3.867188 -7.609375 3.84375 -8.898438 3.84375 -9.765625 C 3.84375 -11.109375 3.914062 -12.785156 4.0625 -14.796875 C 4.207031 -16.816406 4.28125 -18.5 4.28125 -19.84375 C 4.28125 -20.488281 4.472656 -21.007812 4.859375 -21.40625 C 5.253906 -21.8125 5.765625 -22.015625 6.390625 -22.015625 C 7.003906 -22.015625 7.507812 -21.8125 7.90625 -21.40625 C 8.300781 -21.007812 8.5 -20.488281 8.5 -19.84375 C 8.5 -18.5 8.425781 -16.816406 8.28125 -14.796875 C 8.132812 -12.785156 8.0625 -11.109375 8.0625 -9.765625 Z M 8.0625 -9.765625 "/></g></g><g style="fill:#000000;fill-opacity:1;"><g transform="translate(197.265716, 182.444488)"><path style="stroke:none" d="M 19.484375 1.53125 C 18.242188 1.53125 17.546875 0.851562 17.390625 -0.5 L 16.796875 -5.203125 C 16.585938 -6.878906 16.484375 -8.445312 16.484375 -9.90625 C 16.484375 -10.3125 16.507812 -10.992188 16.5625 -11.953125 C 16.613281 -12.910156 16.640625 -13.59375 16.640625 -14 C 16.640625 -17.09375 16.066406 -18.640625 14.921875 -18.640625 C 13.316406 -18.640625 11.78125 -17.6875 10.3125 -15.78125 C 9 -14.039062 7.96875 -11.847656 7.21875 -9.203125 C 7.195312 -8.640625 7.132812 -7.9375 7.03125 -7.09375 C 6.945312 -6.375 6.90625 -5.679688 6.90625 -5.015625 C 6.90625 -4.578125 6.945312 -3.925781 7.03125 -3.0625 C 7.113281 -2.207031 7.15625 -1.566406 7.15625 -1.140625 C 7.15625 -0.492188 6.957031 0.0234375 6.5625 0.421875 C 6.175781 0.828125 5.671875 1.03125 5.046875 1.03125 C 4.421875 1.03125 3.914062 0.828125 3.53125 0.421875 C 3.144531 0.0234375 2.953125 -0.492188 2.953125 -1.140625 C 2.953125 -1.566406 2.90625 -2.207031 2.8125 -3.0625 C 2.71875 -3.925781 2.671875 -4.578125 2.671875 -5.015625 C 2.671875 -6.484375 2.773438 -8.523438 2.984375 -11.140625 C 3.191406 -13.765625 3.296875 -15.8125 3.296875 -17.28125 C 3.296875 -17.738281 3.269531 -18.421875 3.21875 -19.328125 C 3.164062 -20.234375 3.140625 -20.914062 3.140625 -21.375 C 3.140625 -21.988281 3.34375 -22.492188 3.75 -22.890625 C 4.15625 -23.285156 4.660156 -23.484375 5.265625 -23.484375 C 6.585938 -23.484375 7.3125 -22.550781 7.4375 -20.6875 L 7.5 -18.171875 C 9.90625 -21.378906 12.378906 -22.984375 14.921875 -22.984375 C 17.210938 -22.984375 18.8125 -21.972656 19.71875 -19.953125 C 20.332031 -18.609375 20.664062 -16.613281 20.71875 -13.96875 L 20.71875 -11.796875 L 20.703125 -9.796875 C 20.703125 -8.609375 20.851562 -7.070312 21.15625 -5.1875 C 21.46875 -3.300781 21.625 -1.773438 21.625 -0.609375 C 21.625 0.0234375 21.421875 0.539062 21.015625 0.9375 C 20.609375 1.332031 20.097656 1.53125 19.484375 1.53125 Z M 19.484375 1.53125 "/></g></g><g style="fill:#000000;fill-opacity:1;"><g transform="translate(220.30981, 182.444488)"><path style="stroke:none" d="M 20.6875 -9.265625 L 20.1875 -2.046875 C 20.101562 0.816406 19.8125 3.160156 19.3125 4.984375 C 18.664062 7.304688 17.628906 9.019531 16.203125 10.125 C 14.484375 11.457031 12 12.125 8.75 12.125 C 6.84375 12.125 5.242188 11.992188 3.953125 11.734375 C 2.148438 11.378906 1.25 10.632812 1.25 9.5 C 1.25 8.226562 1.875 7.59375 3.125 7.59375 C 3.632812 7.59375 4.488281 7.71875 5.6875 7.96875 C 6.894531 8.21875 8.234375 8.328125 9.703125 8.296875 C 12.453125 8.253906 14.347656 6.921875 15.390625 4.296875 C 16.078125 2.546875 16.441406 -0.140625 16.484375 -3.765625 C 15.710938 -2.328125 14.789062 -1.25 13.71875 -0.53125 C 12.65625 0.175781 11.4375 0.53125 10.0625 0.53125 C 7.46875 0.53125 5.359375 -0.347656 3.734375 -2.109375 C 2.109375 -3.878906 1.296875 -6.179688 1.296875 -9.015625 C 1.296875 -12.878906 2.40625 -15.992188 4.625 -18.359375 C 6.914062 -20.796875 10.039062 -22.015625 14 -22.015625 C 15.332031 -22.015625 16.445312 -21.84375 17.34375 -21.5 C 18.25 -21.15625 18.941406 -20.640625 19.421875 -19.953125 C 20.953125 -19.910156 21.71875 -19.054688 21.71875 -17.390625 C 21.71875 -16.367188 21.566406 -15.007812 21.265625 -13.3125 C 20.929688 -11.332031 20.738281 -9.984375 20.6875 -9.265625 Z M 13.78125 -18.578125 C 11.0625 -18.578125 8.953125 -17.640625 7.453125 -15.765625 C 6.117188 -14.066406 5.453125 -11.914062 5.453125 -9.3125 C 5.453125 -7.226562 5.847656 -5.660156 6.640625 -4.609375 C 7.429688 -3.566406 8.613281 -3.046875 10.1875 -3.046875 C 11.632812 -3.046875 13.039062 -3.863281 14.40625 -5.5 C 15.632812 -7.007812 16.335938 -8.5 16.515625 -9.96875 C 16.816406 -11.519531 17.140625 -13.953125 17.484375 -17.265625 C 16.910156 -17.710938 16.3125 -18.039062 15.6875 -18.25 C 15.070312 -18.46875 14.4375 -18.578125 13.78125 -18.578125 Z M 13.78125 -18.578125 "/></g></g><g style="fill:#000000;fill-opacity:1;"><g transform="translate(243.676355, 182.444488)"><path style="stroke:none" d=""/></g></g><g style="fill:#000000;fill-opacity:1;"><g transform="translate(256.832125, 182.444488)"><path style="stroke:none" d="M 17.375 -18.3125 C 17.070312 -18.3125 16.710938 -18.328125 16.296875 -18.359375 C 15.890625 -18.390625 15.539062 -18.40625 15.25 -18.40625 C 14.914062 -18.40625 13.9375 -18.296875 12.3125 -18.078125 L 12.734375 -5.375 L 12.75 -4.421875 L 12.765625 -3.328125 C 12.828125 -0.191406 12.078125 1.375 10.515625 1.375 C 9.941406 1.375 9.441406 1.1875 9.015625 0.8125 C 8.597656 0.445312 8.390625 -0.015625 8.390625 -0.578125 C 8.390625 -1.117188 8.410156 -1.9375 8.453125 -3.03125 C 8.492188 -4.125 8.515625 -4.941406 8.515625 -5.484375 L 8.078125 -18.03125 C 7.035156 -18.082031 5.445312 -18.207031 3.3125 -18.40625 C 2.03125 -18.570312 1.390625 -19.28125 1.390625 -20.53125 C 1.390625 -21.164062 1.582031 -21.6875 1.96875 -22.09375 C 2.363281 -22.507812 2.863281 -22.71875 3.46875 -22.71875 L 7.96875 -22.359375 C 7.96875 -23.085938 7.9375 -24.0625 7.875 -25.28125 C 7.8125 -26.507812 7.78125 -27.398438 7.78125 -27.953125 C 7.78125 -28.554688 7.988281 -29.050781 8.40625 -29.4375 C 8.820312 -29.832031 9.332031 -30.03125 9.9375 -30.03125 C 11.226562 -30.03125 11.976562 -28.976562 12.1875 -26.875 C 12.226562 -26.34375 12.25 -25.707031 12.25 -24.96875 L 12.21875 -23.71875 L 12.1875 -22.375 C 13.96875 -22.601562 14.988281 -22.71875 15.25 -22.71875 C 16.738281 -22.71875 17.710938 -22.648438 18.171875 -22.515625 C 19.046875 -22.222656 19.484375 -21.546875 19.484375 -20.484375 C 19.484375 -19.859375 19.285156 -19.335938 18.890625 -18.921875 C 18.492188 -18.515625 17.988281 -18.3125 17.375 -18.3125 Z M 17.375 -18.3125 "/></g></g><g style="fill:#000000;fill-opacity:1;"><g transform="translate(277.576114, 182.444488)"><path style="stroke:none" d="M 20.984375 1.328125 C 19.960938 1.328125 19.296875 0.785156 18.984375 -0.296875 C 18.648438 -1.472656 18.347656 -3.144531 18.078125 -5.3125 C 17.816406 -7.382812 17.6875 -9.085938 17.6875 -10.421875 C 17.6875 -10.796875 17.703125 -11.363281 17.734375 -12.125 C 17.773438 -12.882812 17.796875 -13.453125 17.796875 -13.828125 C 17.796875 -16.515625 17.125 -17.859375 15.78125 -17.859375 C 13.957031 -17.859375 12.332031 -17.035156 10.90625 -15.390625 C 10.164062 -14.546875 9.160156 -12.9375 7.890625 -10.5625 C 7.890625 -5.09375 7.660156 -1.859375 7.203125 -0.859375 C 6.796875 0.0234375 6.171875 0.46875 5.328125 0.46875 C 4.742188 0.46875 4.226562 0.269531 3.78125 -0.125 C 3.34375 -0.53125 3.125 -1.019531 3.125 -1.59375 C 3.125 -1.789062 3.1875 -2.101562 3.3125 -2.53125 C 3.425781 -2.894531 3.503906 -3.941406 3.546875 -5.671875 L 3.609375 -8.859375 L 3.671875 -24.65625 C 3.773438 -26.4375 3.828125 -27.632812 3.828125 -28.25 C 3.828125 -28.976562 3.757812 -29.664062 3.625 -30.3125 C 3.488281 -30.96875 3.421875 -31.648438 3.421875 -32.359375 C 3.421875 -32.960938 3.628906 -33.457031 4.046875 -33.84375 C 4.460938 -34.238281 4.96875 -34.4375 5.5625 -34.4375 C 6.738281 -34.4375 7.425781 -33.804688 7.625 -32.546875 C 7.851562 -31.160156 7.96875 -29.90625 7.96875 -28.78125 C 7.96875 -27.28125 7.921875 -25.710938 7.828125 -24.078125 C 7.742188 -22.515625 7.707031 -20.945312 7.71875 -19.375 L 7.734375 -17.484375 C 8.910156 -19.054688 10.164062 -20.234375 11.5 -21.015625 C 12.84375 -21.796875 14.269531 -22.1875 15.78125 -22.1875 C 18.15625 -22.1875 19.789062 -21.410156 20.6875 -19.859375 C 21.3125 -18.773438 21.664062 -16.941406 21.75 -14.359375 L 21.921875 -10.25 L 22.359375 -5.78125 C 22.554688 -4.101562 22.800781 -2.628906 23.09375 -1.359375 C 23.144531 -1.109375 23.171875 -0.898438 23.171875 -0.734375 C 23.171875 -0.140625 22.957031 0.347656 22.53125 0.734375 C 22.101562 1.128906 21.585938 1.328125 20.984375 1.328125 Z M 20.984375 1.328125 "/></g></g><g style="fill:#000000;fill-opacity:1;"><g transform="translate(303.006299, 182.444488)"><path style="stroke:none" d="M 13.03125 0.984375 C 9.789062 0.984375 7.164062 0.175781 5.15625 -1.4375 C 2.96875 -3.226562 1.875 -5.738281 1.875 -8.96875 C 1.875 -12.695312 2.773438 -15.820312 4.578125 -18.34375 C 6.546875 -21.09375 9.171875 -22.46875 12.453125 -22.46875 C 14.828125 -22.46875 16.769531 -22.066406 18.28125 -21.265625 C 20.125 -20.273438 21.046875 -18.753906 21.046875 -16.703125 C 21.046875 -15.273438 20.238281 -13.972656 18.625 -12.796875 C 17.90625 -12.273438 16.382812 -11.472656 14.0625 -10.390625 L 5.84375 -6.5 C 6.644531 -5.300781 7.644531 -4.398438 8.84375 -3.796875 C 10.039062 -3.203125 11.4375 -2.90625 13.03125 -2.90625 C 14.019531 -2.90625 15.179688 -3.09375 16.515625 -3.46875 C 18.203125 -3.9375 19.289062 -4.550781 19.78125 -5.3125 C 20.269531 -6.082031 20.789062 -6.46875 21.34375 -6.46875 C 21.851562 -6.46875 22.300781 -6.273438 22.6875 -5.890625 C 23.082031 -5.515625 23.28125 -5.078125 23.28125 -4.578125 C 23.28125 -2.984375 22 -1.613281 19.4375 -0.46875 C 17.238281 0.5 15.101562 0.984375 13.03125 0.984375 Z M 12.453125 -18.59375 C 10.703125 -18.59375 9.242188 -17.914062 8.078125 -16.5625 C 6.921875 -15.207031 6.054688 -13.171875 5.484375 -10.453125 L 12.078125 -13.59375 C 14.671875 -14.851562 16.519531 -15.945312 17.625 -16.875 C 16.394531 -18.019531 14.671875 -18.59375 12.453125 -18.59375 Z M 12.453125 -18.59375 "/></g></g><g style="fill:#000000;fill-opacity:1;"><g transform="translate(85.404415, 243.448273)"><path style="stroke:none" d="M 8.453125 -16.90625 L 8.125 -6.21875 C 8.125 -5.082031 8.066406 -3.414062 7.953125 -1.21875 C 7.804688 0.207031 7.101562 0.921875 5.84375 0.921875 C 4.4375 0.921875 3.734375 0.191406 3.734375 -1.265625 C 3.734375 -3.003906 3.8125 -5.609375 3.96875 -9.078125 C 4.132812 -12.554688 4.21875 -15.164062 4.21875 -16.90625 C 4.21875 -19.164062 4.25 -21.753906 4.3125 -24.671875 C 4.382812 -27.585938 4.421875 -30.175781 4.421875 -32.4375 C 4.421875 -33.875 5.125 -34.59375 6.53125 -34.59375 C 7.957031 -34.59375 8.671875 -33.875 8.671875 -32.4375 C 8.671875 -30.175781 8.632812 -27.585938 8.5625 -24.671875 C 8.488281 -21.753906 8.453125 -19.164062 8.453125 -16.90625 Z M 8.453125 -16.90625 "/></g></g><g style="fill:#000000;fill-opacity:1;"><g transform="translate(97.463876, 243.448273)"><path style="stroke:none" d="M 11.046875 1.265625 C 8.640625 1.265625 6.570312 0.378906 4.84375 -1.390625 C 2.90625 -3.367188 1.882812 -6.03125 1.78125 -9.375 C 1.695312 -12.613281 2.515625 -15.46875 4.234375 -17.9375 C 6.242188 -20.84375 9.039062 -22.296875 12.625 -22.296875 C 15.488281 -22.296875 17.660156 -20.984375 19.140625 -18.359375 C 20.304688 -16.234375 20.867188 -13.679688 20.828125 -10.703125 C 20.785156 -7.523438 19.957031 -4.8125 18.34375 -2.5625 C 16.507812 -0.0078125 14.078125 1.265625 11.046875 1.265625 Z M 12.34375 -17.9375 C 10.238281 -17.945312 8.597656 -16.941406 7.421875 -14.921875 C 6.484375 -13.296875 6.015625 -11.445312 6.015625 -9.375 C 6.015625 -7.289062 6.582031 -5.671875 7.71875 -4.515625 C 8.664062 -3.554688 9.773438 -3.078125 11.046875 -3.078125 C 12.535156 -3.078125 13.820312 -3.617188 14.90625 -4.703125 C 16.125 -5.910156 16.765625 -7.539062 16.828125 -9.59375 C 17.035156 -15.132812 15.539062 -17.914062 12.34375 -17.9375 Z M 12.34375 -17.9375 "/></g></g><g style="fill:#000000;fill-opacity:1;"><g transform="translate(120.615457, 243.448273)"><path style="stroke:none" d="M 12.90625 -1.125 C 12.851562 0.195312 12.195312 0.859375 10.9375 0.859375 C 9.894531 0.859375 9.140625 0.242188 8.671875 -0.984375 L 5.375 -9.71875 L 1.546875 -19.59375 C 1.398438 -19.957031 1.328125 -20.285156 1.328125 -20.578125 C 1.328125 -21.160156 1.550781 -21.660156 2 -22.078125 C 2.445312 -22.492188 2.960938 -22.703125 3.546875 -22.703125 C 4.410156 -22.703125 5.023438 -22.265625 5.390625 -21.390625 L 10.859375 -6.359375 C 11.929688 -8.648438 13.285156 -11.976562 14.921875 -16.34375 C 15.304688 -17.488281 15.914062 -19.109375 16.75 -21.203125 C 17.195312 -22.117188 17.828125 -22.578125 18.640625 -22.578125 C 19.222656 -22.578125 19.738281 -22.367188 20.1875 -21.953125 C 20.632812 -21.535156 20.859375 -21.039062 20.859375 -20.46875 C 20.859375 -19.925781 19.675781 -16.859375 17.3125 -11.265625 Z M 12.90625 -1.125 "/></g></g><g style="fill:#000000;fill-opacity:1;"><g transform="translate(142.025828, 243.448273)"><path style="stroke:none" d="M 13.03125 0.984375 C 9.789062 0.984375 7.164062 0.175781 5.15625 -1.4375 C 2.96875 -3.226562 1.875 -5.738281 1.875 -8.96875 C 1.875 -12.695312 2.773438 -15.820312 4.578125 -18.34375 C 6.546875 -21.09375 9.171875 -22.46875 12.453125 -22.46875 C 14.828125 -22.46875 16.769531 -22.066406 18.28125 -21.265625 C 20.125 -20.273438 21.046875 -18.753906 21.046875 -16.703125 C 21.046875 -15.273438 20.238281 -13.972656 18.625 -12.796875 C 17.90625 -12.273438 16.382812 -11.472656 14.0625 -10.390625 L 5.84375 -6.5 C 6.644531 -5.300781 7.644531 -4.398438 8.84375 -3.796875 C 10.039062 -3.203125 11.4375 -2.90625 13.03125 -2.90625 C 14.019531 -2.90625 15.179688 -3.09375 16.515625 -3.46875 C 18.203125 -3.9375 19.289062 -4.550781 19.78125 -5.3125 C 20.269531 -6.082031 20.789062 -6.46875 21.34375 -6.46875 C 21.851562 -6.46875 22.300781 -6.273438 22.6875 -5.890625 C 23.082031 -5.515625 23.28125 -5.078125 23.28125 -4.578125 C 23.28125 -2.984375 22 -1.613281 19.4375 -0.46875 C 17.238281 0.5 15.101562 0.984375 13.03125 0.984375 Z M 12.453125 -18.59375 C 10.703125 -18.59375 9.242188 -17.914062 8.078125 -16.5625 C 6.921875 -15.207031 6.054688 -13.171875 5.484375 -10.453125 L 12.078125 -13.59375 C 14.671875 -14.851562 16.519531 -15.945312 17.625 -16.875 C 16.394531 -18.019531 14.671875 -18.59375 12.453125 -18.59375 Z M 12.453125 -18.59375 "/></g></g><g style="fill:#000000;fill-opacity:1;"><g transform="translate(166.14474, 243.448273)"><path style="stroke:none" d=""/></g></g><g style="fill:#000000;fill-opacity:1;"><g transform="translate(179.30051, 243.448273)"><path style="stroke:none" d="M 13.03125 0.90625 C 10.832031 0.90625 8.835938 0.472656 7.046875 -0.390625 C 6.585938 0.296875 6.03125 0.640625 5.375 0.640625 C 4.832031 0.640625 4.367188 0.445312 3.984375 0.0625 C 3.609375 -0.3125 3.421875 -0.785156 3.421875 -1.359375 C 3.421875 -1.722656 3.4375 -2.269531 3.46875 -3 C 3.507812 -3.738281 3.53125 -4.296875 3.53125 -4.671875 C 3.53125 -6.179688 3.488281 -8.453125 3.40625 -11.484375 C 3.332031 -14.515625 3.296875 -16.789062 3.296875 -18.3125 C 3.296875 -19.363281 3.300781 -21.347656 3.3125 -24.265625 C 3.320312 -27.179688 3.328125 -29.171875 3.328125 -30.234375 C 3.328125 -31.085938 3.507812 -31.859375 3.875 -32.546875 C 4.34375 -33.421875 4.992188 -33.859375 5.828125 -33.859375 C 6.898438 -33.859375 7.4375 -33.234375 7.4375 -31.984375 C 7.4375 -31.785156 7.398438 -31.492188 7.328125 -31.109375 C 7.253906 -30.722656 7.21875 -30.429688 7.21875 -30.234375 L 7.15625 -25.515625 L 7.109375 -20.03125 C 8.359375 -20.882812 9.546875 -21.519531 10.671875 -21.9375 C 11.796875 -22.363281 12.851562 -22.578125 13.84375 -22.578125 C 16.925781 -22.578125 19.425781 -21.394531 21.34375 -19.03125 C 23.15625 -16.800781 24.0625 -14.066406 24.0625 -10.828125 C 24.0625 -7.566406 23.003906 -4.796875 20.890625 -2.515625 C 18.785156 -0.234375 16.164062 0.90625 13.03125 0.90625 Z M 13.84375 -18.515625 C 12.664062 -18.515625 11.460938 -18.179688 10.234375 -17.515625 C 9.628906 -17.191406 8.597656 -16.484375 7.140625 -15.390625 L 7.09375 -11.671875 L 7.109375 -8.328125 L 7.140625 -4.796875 C 7.828125 -4.484375 8.796875 -4.082031 10.046875 -3.59375 C 10.929688 -3.320312 11.925781 -3.1875 13.03125 -3.1875 C 15.101562 -3.1875 16.804688 -3.914062 18.140625 -5.375 C 19.472656 -6.832031 20.140625 -8.648438 20.140625 -10.828125 C 20.140625 -12.972656 19.601562 -14.757812 18.53125 -16.1875 C 17.375 -17.738281 15.8125 -18.515625 13.84375 -18.515625 Z M 13.84375 -18.515625 "/></g></g><g style="fill:#000000;fill-opacity:1;"><g transform="translate(205.418588, 243.448273)"><path style="stroke:none" d="M 11.046875 1.265625 C 8.640625 1.265625 6.570312 0.378906 4.84375 -1.390625 C 2.90625 -3.367188 1.882812 -6.03125 1.78125 -9.375 C 1.695312 -12.613281 2.515625 -15.46875 4.234375 -17.9375 C 6.242188 -20.84375 9.039062 -22.296875 12.625 -22.296875 C 15.488281 -22.296875 17.660156 -20.984375 19.140625 -18.359375 C 20.304688 -16.234375 20.867188 -13.679688 20.828125 -10.703125 C 20.785156 -7.523438 19.957031 -4.8125 18.34375 -2.5625 C 16.507812 -0.0078125 14.078125 1.265625 11.046875 1.265625 Z M 12.34375 -17.9375 C 10.238281 -17.945312 8.597656 -16.941406 7.421875 -14.921875 C 6.484375 -13.296875 6.015625 -11.445312 6.015625 -9.375 C 6.015625 -7.289062 6.582031 -5.671875 7.71875 -4.515625 C 8.664062 -3.554688 9.773438 -3.078125 11.046875 -3.078125 C 12.535156 -3.078125 13.820312 -3.617188 14.90625 -4.703125 C 16.125 -5.910156 16.765625 -7.539062 16.828125 -9.59375 C 17.035156 -15.132812 15.539062 -17.914062 12.34375 -17.9375 Z M 12.34375 -17.9375 "/></g></g><g style="fill:#000000;fill-opacity:1;"><g transform="translate(228.570169, 243.448273)"><path style="stroke:none" d="M 30.296875 1.78125 C 29.117188 1.78125 28.429688 1.15625 28.234375 -0.09375 C 27.972656 -1.664062 27.710938 -3.882812 27.453125 -6.75 L 26.71875 -13.421875 C 26.582031 -14.410156 26.34375 -15.375 26 -16.3125 C 25.507812 -17.601562 24.976562 -18.25 24.40625 -18.25 C 23.875 -18.25 22.882812 -17.800781 21.4375 -16.90625 C 20.0625 -16.070312 19.15625 -15.40625 18.71875 -14.90625 C 18.707031 -13.550781 18.742188 -12.203125 18.828125 -10.859375 L 19.484375 -5.109375 C 19.753906 -2.847656 19.890625 -0.976562 19.890625 0.5 C 19.890625 1.125 19.691406 1.640625 19.296875 2.046875 C 18.898438 2.460938 18.394531 2.671875 17.78125 2.671875 C 17.164062 2.671875 16.660156 2.460938 16.265625 2.046875 C 15.867188 1.640625 15.671875 1.125 15.671875 0.5 C 15.671875 -1.238281 15.492188 -3.800781 15.140625 -7.1875 C 14.796875 -10.582031 14.625 -13.144531 14.625 -14.875 C 14.625 -16.394531 14.40625 -17.578125 13.96875 -18.421875 C 12.96875 -17.960938 11.953125 -17.21875 10.921875 -16.1875 L 8.390625 -13.34375 C 8.160156 -13 7.789062 -12.550781 7.28125 -12 C 7.28125 -11.132812 7.203125 -9.863281 7.046875 -8.1875 C 6.890625 -6.507812 6.8125 -5.269531 6.8125 -4.46875 C 6.8125 -4.039062 6.878906 -3.4375 7.015625 -2.65625 C 7.148438 -1.882812 7.21875 -1.328125 7.21875 -0.984375 C 7.21875 -0.398438 7 0.0859375 6.5625 0.484375 C 6.125 0.890625 5.613281 1.09375 5.03125 1.09375 C 3.40625 1.09375 2.59375 -0.742188 2.59375 -4.421875 C 2.59375 -5.285156 2.671875 -6.566406 2.828125 -8.265625 C 2.992188 -9.972656 3.078125 -11.257812 3.078125 -12.125 C 3.078125 -12.882812 3.007812 -14.023438 2.875 -15.546875 C 2.738281 -17.066406 2.671875 -18.210938 2.671875 -18.984375 C 2.671875 -22.234375 3.398438 -23.859375 4.859375 -23.859375 C 5.421875 -23.859375 5.929688 -23.613281 6.390625 -23.125 C 6.859375 -22.644531 7.09375 -22.117188 7.09375 -21.546875 C 7.09375 -21.273438 7.054688 -20.851562 6.984375 -20.28125 C 6.910156 -19.707031 6.875 -19.269531 6.875 -18.96875 L 6.921875 -16.703125 C 7.671875 -18.234375 8.769531 -19.617188 10.21875 -20.859375 C 11.664062 -22.097656 12.894531 -22.71875 13.90625 -22.71875 C 16.15625 -22.71875 17.703125 -21.601562 18.546875 -19.375 C 19.335938 -20.414062 20.273438 -21.195312 21.359375 -21.71875 C 22.453125 -22.25 23.703125 -22.515625 25.109375 -22.515625 C 27.503906 -22.515625 29.140625 -21.222656 30.015625 -18.640625 C 30.179688 -18.117188 30.472656 -16.101562 30.890625 -12.59375 C 31.296875 -10.132812 31.8125 -6.03125 32.4375 -0.28125 C 32.476562 0.289062 32.285156 0.773438 31.859375 1.171875 C 31.429688 1.578125 30.910156 1.78125 30.296875 1.78125 Z M 30.296875 1.78125 "/></g></g><g style="fill:#000000;fill-opacity:1;"><g transform="translate(262.770887, 243.448273)"><path style="stroke:none" d="M 13.03125 0.90625 C 10.832031 0.90625 8.835938 0.472656 7.046875 -0.390625 C 6.585938 0.296875 6.03125 0.640625 5.375 0.640625 C 4.832031 0.640625 4.367188 0.445312 3.984375 0.0625 C 3.609375 -0.3125 3.421875 -0.785156 3.421875 -1.359375 C 3.421875 -1.722656 3.4375 -2.269531 3.46875 -3 C 3.507812 -3.738281 3.53125 -4.296875 3.53125 -4.671875 C 3.53125 -6.179688 3.488281 -8.453125 3.40625 -11.484375 C 3.332031 -14.515625 3.296875 -16.789062 3.296875 -18.3125 C 3.296875 -19.363281 3.300781 -21.347656 3.3125 -24.265625 C 3.320312 -27.179688 3.328125 -29.171875 3.328125 -30.234375 C 3.328125 -31.085938 3.507812 -31.859375 3.875 -32.546875 C 4.34375 -33.421875 4.992188 -33.859375 5.828125 -33.859375 C 6.898438 -33.859375 7.4375 -33.234375 7.4375 -31.984375 C 7.4375 -31.785156 7.398438 -31.492188 7.328125 -31.109375 C 7.253906 -30.722656 7.21875 -30.429688 7.21875 -30.234375 L 7.15625 -25.515625 L 7.109375 -20.03125 C 8.359375 -20.882812 9.546875 -21.519531 10.671875 -21.9375 C 11.796875 -22.363281 12.851562 -22.578125 13.84375 -22.578125 C 16.925781 -22.578125 19.425781 -21.394531 21.34375 -19.03125 C 23.15625 -16.800781 24.0625 -14.066406 24.0625 -10.828125 C 24.0625 -7.566406 23.003906 -4.796875 20.890625 -2.515625 C 18.785156 -0.234375 16.164062 0.90625 13.03125 0.90625 Z M 13.84375 -18.515625 C 12.664062 -18.515625 11.460938 -18.179688 10.234375 -17.515625 C 9.628906 -17.191406 8.597656 -16.484375 7.140625 -15.390625 L 7.09375 -11.671875 L 7.109375 -8.328125 L 7.140625 -4.796875 C 7.828125 -4.484375 8.796875 -4.082031 10.046875 -3.59375 C 10.929688 -3.320312 11.925781 -3.1875 13.03125 -3.1875 C 15.101562 -3.1875 16.804688 -3.914062 18.140625 -5.375 C 19.472656 -6.832031 20.140625 -8.648438 20.140625 -10.828125 C 20.140625 -12.972656 19.601562 -14.757812 18.53125 -16.1875 C 17.375 -17.738281 15.8125 -18.515625 13.84375 -18.515625 Z M 13.84375 -18.515625 "/></g></g><g style="fill:#000000;fill-opacity:1;"><g transform="translate(288.888955, 243.448273)"><path style="stroke:none" d="M 7.109375 -32.59375 L 7.109375 -8.671875 C 7.109375 -7.390625 6.472656 -6.75 5.203125 -6.75 C 3.929688 -6.75 3.296875 -7.390625 3.296875 -8.671875 C 3.296875 -9.253906 3.273438 -10.128906 3.234375 -11.296875 C 3.203125 -12.460938 3.1875 -13.332031 3.1875 -13.90625 C 3.1875 -15.988281 3.203125 -19.101562 3.234375 -23.25 C 3.273438 -27.394531 3.296875 -30.507812 3.296875 -32.59375 C 3.296875 -33.863281 3.929688 -34.5 5.203125 -34.5 C 6.472656 -34.5 7.109375 -33.863281 7.109375 -32.59375 Z M 7.140625 -0.5 C 7.140625 0.0195312 6.929688 0.46875 6.515625 0.84375 C 6.109375 1.226562 5.648438 1.421875 5.140625 1.421875 C 4.566406 1.421875 3.992188 1.046875 3.421875 0.296875 C 2.859375 -0.398438 2.578125 -1.046875 2.578125 -1.640625 C 2.578125 -2.148438 2.78125 -2.59375 3.1875 -2.96875 C 3.601562 -3.34375 4.070312 -3.53125 4.59375 -3.53125 C 5.15625 -3.53125 5.734375 -3.15625 6.328125 -2.40625 C 6.867188 -1.707031 7.140625 -1.070312 7.140625 -0.5 Z M 7.140625 -0.5 "/></g></g></g></svg>